<svg xmlns="http://www.w3.org/2000/svg" width="157.617" height="175" viewBox="0 0 157.617 175">
  <g id="Group_55" data-name="Group 55" transform="translate(-598.192 -343)">
    <path id="Polygon_Copy" data-name="Polygon Copy" d="M91,0l78.808,43.75v87.5L91,175,12.192,131.25V43.75Z" transform="translate(586 343)" fill="#333645"/>
    <path id="XMLID_389_" d="M58.1,93c-1.235,0-2.486-.062-3.716-.184A37.963,37.963,0,0,1,22.719,68.346H9.375a1.892,1.892,0,0,1,0-3.785H21.523a38.811,38.811,0,0,1-1.171-7.274H12A1.892,1.892,0,0,1,12,53.5h8.291a38.937,38.937,0,0,1,.931-7.273H1.875a1.892,1.892,0,0,1,0-3.784H22.282a38.168,38.168,0,0,1,3.326-7.274H14.657a1.892,1.892,0,0,1,0-3.785H28.018c.049,0,.1,0,.142.007a38.451,38.451,0,0,1,3.184-3.646A37.61,37.61,0,0,1,49.809,17.5V12.677A6.44,6.44,0,0,1,51.348,0h13.5a6.44,6.44,0,0,1,1.539,12.677v4.808A37.6,37.6,0,0,1,84.908,27.749a38.5,38.5,0,0,1,5.009,47.82,1.864,1.864,0,0,1-2.594.556,1.905,1.905,0,0,1-.551-2.618,34.829,34.829,0,0,0-4.516-43.082,33.946,33.946,0,0,0-48.261,0A34.7,34.7,0,0,0,34,79.13a34.016,34.016,0,0,0,42.726,4.533,1.864,1.864,0,0,1,2.595.554,1.905,1.905,0,0,1-.548,2.618A37.714,37.714,0,0,1,58.1,93ZM53.559,12.867v3.981a37.86,37.86,0,0,1,9.077-.007V12.867ZM51.348,3.784a2.649,2.649,0,0,0,0,5.3h13.5a2.649,2.649,0,0,0,0-5.3Z" transform="translate(618 384)" fill="#fff"/>
    <path id="XMLID_394_" d="M29,58A29,29,0,1,1,58,29,29.033,29.033,0,0,1,29,58ZM29,3.739A25.261,25.261,0,1,0,54.261,29,25.29,25.29,0,0,0,29,3.739Z" transform="translate(647 410)" fill="#fff"/>
    <path id="XMLID_397_" d="M9.934,21a5.859,5.859,0,0,1-5.227-8.445L.549,8.376a1.9,1.9,0,0,1,0-2.666,1.87,1.87,0,0,1,2.653,0L7.359,9.889a5.782,5.782,0,0,1,5.149,0L21.8.552a1.87,1.87,0,0,1,2.652,0,1.894,1.894,0,0,1,0,2.667l-.272.274-9.017,9.063A5.859,5.859,0,0,1,9.934,21Zm0-7.945a2.088,2.088,0,1,0,2.077,2.088A2.085,2.085,0,0,0,9.934,13.054Z" transform="translate(666 424)" fill="#fff"/>
    <path id="XMLID_398_" d="M3.291,0H1.709A1.872,1.872,0,0,0,0,2,1.872,1.872,0,0,0,1.709,4H3.291A1.872,1.872,0,0,0,5,2,1.872,1.872,0,0,0,3.291,0Z" transform="translate(693 437)" fill="#fff"/>
    <path id="XMLID_399_" d="M3.291,0H1.709A1.872,1.872,0,0,0,0,2,1.872,1.872,0,0,0,1.709,4H3.291A1.872,1.872,0,0,0,5,2,1.872,1.872,0,0,0,3.291,0Z" transform="translate(654 437)" fill="#fff"/>
    <path id="XMLID_400_" d="M2,5A1.872,1.872,0,0,0,4,3.291V1.709A1.872,1.872,0,0,0,2,0,1.872,1.872,0,0,0,0,1.709V3.291A1.872,1.872,0,0,0,2,5Z" transform="translate(674 416)" fill="#fff"/>
    <path id="XMLID_424_" d="M2,0A1.872,1.872,0,0,0,0,1.709V3.291A1.872,1.872,0,0,0,2,5,1.872,1.872,0,0,0,4,3.291V1.709A1.872,1.872,0,0,0,2,0Z" transform="translate(674 455)" fill="#fff"/>
  </g>
</svg>
