<svg xmlns="http://www.w3.org/2000/svg" width="157.617" height="175" viewBox="0 0 157.617 175">
  <g id="Group_55" data-name="Group 55" transform="translate(-896.192 -343)">
    <path id="Polygon_Copy_2" data-name="Polygon Copy 2" d="M91,0l78.808,43.75v87.5L91,175,12.192,131.25V43.75Z" transform="translate(884 343)" fill="#333645"/>
    <path id="Path" d="M25.133,27.159c-3.891-4.416-4.44-11.347-7.092-14.679-2.226-2.8-5.758-1.442-6.179,1-.652,3.787,3.455,14.946,5.528,18.524.516.891-.409,2.538-2.007,1.12S7.434,17.272,9.908,7.741C11.12,3.075,8-1.8,3.992.662s-6.331,23-.388,35.012c5.015,10.138,15.6,16.842,17.44,17.989,1.25.779,1.757,5.3,1.954,8.111C23.09,63.1,23.457,64,24.941,64c1.633,0,4.954,0,9.562,0,2.4,0,2.487-1.428,2.486-2.109C36.972,43.976,37.949,41.7,25.133,27.159Z" transform="translate(932 414)" fill="#fff"/>
    <path id="Path-2" data-name="Path" d="M11.867,27.159c3.891-4.416,4.44-11.347,7.092-14.679,2.226-2.8,5.758-1.442,6.179,1,.652,3.787-3.455,14.946-5.528,18.524-.516.891.409,2.538,2.007,1.12s7.95-15.857,5.475-25.388C25.88,3.075,29-1.8,33.008.662s6.331,23,.388,35.012c-5.015,10.138-15.6,16.842-17.44,17.989-1.25.779-1.757,5.3-1.954,8.111C13.91,63.1,13.543,64,12.059,64c-1.633,0-4.954,0-9.562,0C.094,64,.011,62.572.011,61.89.028,43.976-.948,41.7,11.867,27.159Z" transform="translate(982 414)" fill="#fff"/>
    <path id="Path-3" data-name="Path" d="M43.033,0A17.936,17.936,0,0,0,30.5,5.081,17.976,17.976,0,0,0,0,17.906,17.775,17.775,0,0,0,3.28,28.212a17.2,17.2,0,0,0,2.935,3.465l18.638,18.6C26.72,52.14,28.587,54,30.453,54l.047,0,.047,0c1.867,0,3.733-1.86,5.6-3.721l18.638-18.6a17.2,17.2,0,0,0,2.935-3.465A17.889,17.889,0,0,0,43.033,0Z" transform="translate(945 384)" fill="#fff"/>
  </g>
</svg>
