<svg id="web-programming" xmlns="http://www.w3.org/2000/svg" width="58" height="52" viewBox="0 0 58 52">
  <path id="Path" d="M7.055,13a.911.911,0,0,1-.611-.238L.332,7.26a1.036,1.036,0,0,1,0-1.52L6.443.238A.91.91,0,0,1,7.775.351a1.038,1.038,0,0,1-.107,1.407L2.4,6.5l5.267,4.741a1.038,1.038,0,0,1,.107,1.407A.922.922,0,0,1,7.055,13Z" transform="translate(15 25)" fill="#8f9bb3"/>
  <path id="Path-2" data-name="Path" d="M.945,13a.921.921,0,0,1-.719-.352,1.038,1.038,0,0,1,.106-1.407L5.6,6.5.332,1.758A1.038,1.038,0,0,1,.226.351.909.909,0,0,1,1.556.238l6.112,5.5a1.036,1.036,0,0,1,0,1.52l-6.112,5.5A.911.911,0,0,1,.945,13Z" transform="translate(35 25)" fill="#8f9bb3"/>
  <path id="Path-3" data-name="Path" d="M1,21a1.013,1.013,0,0,1-.206-.022A.993.993,0,0,1,.022,19.8L4.032.788A.994.994,0,0,1,5.978,1.2L1.968,20.211A.994.994,0,0,1,1,21Z" transform="translate(26 21)" fill="#8f9bb3"/>
  <path id="Shape" d="M51.571,52H6.43A6.489,6.489,0,0,1,0,45.467V6.533A6.489,6.489,0,0,1,6.43,0H51.571A6.489,6.489,0,0,1,58,6.533V45.467A6.489,6.489,0,0,1,51.571,52ZM6.43,1.946A4.556,4.556,0,0,0,1.915,6.533V45.467A4.556,4.556,0,0,0,6.43,50.054H51.571a4.556,4.556,0,0,0,4.514-4.586V6.533a4.556,4.556,0,0,0-4.514-4.587Z" fill="#8f9bb3"/>
  <path id="Path-4" data-name="Path" d="M57.042,2H.958A.979.979,0,0,1,0,1,.98.98,0,0,1,.958,0H57.042A.98.98,0,0,1,58,1,.979.979,0,0,1,57.042,2Z" transform="translate(0 14)" fill="#8f9bb3"/>
  <path id="Shape-2" data-name="Shape" d="M3,6A3,3,0,1,1,6,3,3,3,0,0,1,3,6ZM3,1.9A1.1,1.1,0,1,0,4.1,3,1.1,1.1,0,0,0,3,1.9Z" transform="translate(35 5)" fill="#8f9bb3"/>
  <path id="Shape-3" data-name="Shape" d="M3,6A3,3,0,1,1,6,3,3,3,0,0,1,3,6ZM3,1.9A1.1,1.1,0,1,0,4.1,3,1.1,1.1,0,0,0,3,1.9Z" transform="translate(25 5)" fill="#8f9bb3"/>
  <path id="Shape-4" data-name="Shape" d="M3,6A3,3,0,1,1,6,3,3,3,0,0,1,3,6ZM3,1.9A1.1,1.1,0,1,0,4.1,3,1.105,1.105,0,0,0,3,1.9Z" transform="translate(44 5)" fill="#8f9bb3"/>
</svg>
