<svg xmlns="http://www.w3.org/2000/svg" width="35.902" height="35.902" viewBox="0 0 35.902 35.902"><defs><style>.a{fill:#3d5a72;}</style></defs><circle class="a" cx="0.598" cy="0.598" r="0.598" transform="translate(2.393 1.795)"/><circle class="a" cx="0.598" cy="0.598" r="0.598" transform="translate(4.189 1.795)"/><circle class="a" cx="0.598" cy="0.598" r="0.598" transform="translate(5.984 1.795)"/><path class="a" d="M8.387,21.574A4.787,4.787,0,1,0,3.6,16.787,4.787,4.787,0,0,0,8.387,21.574Zm0-1.2a3.592,3.592,0,0,1-.6-.051V16.787h.949l1.021,1.022a.6.6,0,0,0,.846,0l1.021-1.022h.351A3.594,3.594,0,0,1,8.387,20.377Zm3.384-4.787h-.393a.6.6,0,0,0-.423.175l-.774.774-.774-.774a.6.6,0,0,0-.423-.175h-1.2V13.248A3.585,3.585,0,0,1,11.771,15.59ZM6.592,13.68v1.91H5A3.609,3.609,0,0,1,6.592,13.68Zm0,3.107v3.107a3.591,3.591,0,0,1-1.8-3.107Z" transform="translate(-1.805 -6.016)"/><path class="a" d="M28.8,13.2h4.189v1.2H28.8Z" transform="translate(-14.439 -6.618)"/><path class="a" d="M4.8,40.8h5.385V42H4.8Z" transform="translate(-2.407 -20.455)"/><path class="a" d="M4.8,46.8H6V48H4.8Z" transform="translate(-2.407 -23.464)"/><path class="a" d="M9.6,46.8h5.984V48H9.6Z" transform="translate(-4.813 -23.464)"/><path class="a" d="M4.8,52.8H9.587V54H4.8Z" transform="translate(-2.407 -26.472)"/><path class="a" d="M16.8,52.8h2.393V54H16.8Z" transform="translate(-8.423 -26.472)"/><path class="a" d="M31.2,22.8h1.2V24H31.2Z" transform="translate(-15.642 -11.431)"/><path class="a" d="M36,22.8h4.787V24H36Z" transform="translate(-18.049 -11.431)"/><path class="a" d="M28.8,28.8h5.385V30H28.8Z" transform="translate(-14.439 -14.439)"/><path class="a" d="M42,28.8h1.8V30H42Z" transform="translate(-21.057 -14.439)"/><path class="a" d="M28.8,34.8h3.59V36H28.8Z" transform="translate(-14.439 -17.447)"/><path class="a" d="M4.8,34.8H8.39V36H4.8Z" transform="translate(-2.407 -17.447)"/><path class="a" d="M46.994,44.353a7.185,7.185,0,1,0-2.641,2.641l5.2,5.2a1.868,1.868,0,0,0,2.641-2.641ZM34.788,40.772a5.984,5.984,0,1,1,5.984,5.984A5.984,5.984,0,0,1,34.788,40.772ZM46.3,45.35l.807.807-.949.949L45.35,46.3A7.24,7.24,0,0,0,46.3,45.35Zm4.572,6.192a.666.666,0,0,1-.474-.2L47,47.952,47.952,47,51.346,50.4a.671.671,0,0,1-.474,1.145Z" transform="translate(-16.837 -16.837)"/><path class="a" d="M25.132,14.959V2.992A3,3,0,0,0,22.14,0H2.992A3,3,0,0,0,0,2.992V28.123a3,3,0,0,0,2.992,2.992H17.353v-1.2H13.164V4.787H23.935V14.959ZM11.967,29.919H2.992a1.8,1.8,0,0,1-1.8-1.8V4.787H11.967ZM1.2,3.59v-.6a1.8,1.8,0,0,1,1.8-1.8H22.14a1.8,1.8,0,0,1,1.8,1.8v.6Z"/><path class="a" d="M43.187,38.4v1.2a3.59,3.59,0,1,1-3.59,3.59H38.4A4.787,4.787,0,1,0,43.187,38.4Z" transform="translate(-19.252 -19.252)"/><path class="a" d="M28.8,40.8h1.8V42H28.8Z" transform="translate(-14.439 -20.455)"/><path class="a" d="M28.8,52.8h1.8V54H28.8Z" transform="translate(-14.439 -26.472)"/><path class="a" d="M28.8,46.8H30V48H28.8Z" transform="translate(-14.439 -23.464)"/></svg>