<svg xmlns="http://www.w3.org/2000/svg" width="159.2" height="159.2" viewBox="0 0 159.2 159.2"><defs><style>.a{fill:#fff;stroke:#173a56;stroke-width:0.2px;stroke-dasharray:5;}.b{fill:#3d5a72;}</style></defs><g transform="translate(-257.9 -2169.4)"><path class="a" d="M79.5,0A79.5,79.5,0,1,1,0,79.5,79.5,79.5,0,0,1,79.5,0Z" transform="translate(258 2169.5)"/><g transform="translate(301.5 2213)"><path class="b" d="M36,16.8A7.2,7.2,0,1,0,43.2,24,7.2,7.2,0,0,0,36,16.8Zm0,12A4.8,4.8,0,1,1,40.8,24,4.8,4.8,0,0,1,36,28.8Z"/><path class="b" d="M48.865,34.381a15.331,15.331,0,0,0-1.251-1.123l.012-.035A29.375,29.375,0,0,0,36.7.223a1.2,1.2,0,0,0-1.394,0,29.375,29.375,0,0,0-10.928,33l.012.035a15.322,15.322,0,0,0-1.235,22.79,1.2,1.2,0,0,0,2.036-.678l.906-6.341A1.2,1.2,0,0,1,27.281,48h3.655l-.912,4.56A1.2,1.2,0,0,0,31.2,54h9.6a1.2,1.2,0,0,0,1.176-1.44L41.064,48h3.655a1.2,1.2,0,0,1,1.187,1.031l.906,6.34a1.2,1.2,0,0,0,2.036.678A15.321,15.321,0,0,0,48.865,34.381ZM36,2.692A27.078,27.078,0,0,1,43.094,10.8H28.906A27.078,27.078,0,0,1,36,2.692ZM27.281,45.6a3.617,3.617,0,0,0-3.563,3.091l-.52,3.64a12.9,12.9,0,0,1-2.1-8.2h0a12.94,12.94,0,0,1,4.08-8.412L28.354,45.6Zm5.383,6,.72-3.6h5.232l.72,3.6Zm-1.789-6L26.924,33.31l-.264-.822A26.982,26.982,0,0,1,27.7,13.2H44.3A26.981,26.981,0,0,1,45.34,32.488l-.264.822L41.125,45.6ZM48.8,52.331l-.52-3.64A3.617,3.617,0,0,0,44.719,45.6H43.646l3.178-9.886A12.962,12.962,0,0,1,48.8,52.331Z"/><path class="b" d="M31.2,56.3v3.912a8.32,8.32,0,0,0-8.256,2.019A9.63,9.63,0,0,0,15.6,58.8a9.452,9.452,0,0,0-2.584.36A11.939,11.939,0,0,0,1.2,49.2H0v2.4H1.2a9.545,9.545,0,0,1,9.524,8.57,9.618,9.618,0,0,0-2.965,2.691A11.94,11.94,0,0,0,0,60v2.4A9.611,9.611,0,0,1,9.6,72H12a11.922,11.922,0,0,0-2.52-7.337,7.223,7.223,0,0,1,2.983-2.743.046.046,0,0,0,.037-.012,7.122,7.122,0,0,1,3.1-.708,7.215,7.215,0,0,1,5.85,3.038A8.963,8.963,0,0,0,20.4,68.4h2.4a6.494,6.494,0,0,1,1-3.467h-.007c.017-.023.04-.039.056-.063A5.979,5.979,0,0,1,31.2,62.76V65.9h2.4V56.3Z"/><path class="b" d="M70.8,51.6H72V49.2H70.8a11.939,11.939,0,0,0-11.816,9.96A9.452,9.452,0,0,0,56.4,58.8a9.63,9.63,0,0,0-7.344,3.431A8.321,8.321,0,0,0,40.8,60.213V56.3H38.4v9.6h2.4V62.76a5.979,5.979,0,0,1,7.351,2.108c.017.024.04.041.056.064H48.2a6.493,6.493,0,0,1,1,3.468h2.4a8.963,8.963,0,0,0-1.05-4.162A7.215,7.215,0,0,1,56.4,61.2a7.123,7.123,0,0,1,3.1.71c.012.006.025.007.037.012a7.224,7.224,0,0,1,2.989,2.741A11.921,11.921,0,0,0,60,72h2.4A9.611,9.611,0,0,1,72,62.4V60a11.943,11.943,0,0,0-7.759,2.862,9.618,9.618,0,0,0-2.965-2.691A9.545,9.545,0,0,1,70.8,51.6Z"/><rect class="b" width="2.4" height="2.4" transform="translate(30 34.8)"/><rect class="b" width="2.4" height="2.4" transform="translate(34.8 34.8)"/><rect class="b" width="2.4" height="2.4" transform="translate(39.6 34.8)"/><rect class="b" width="2.4" height="2.4" transform="translate(13.2 63.6)"/><rect class="b" width="2.4" height="2.4" transform="translate(0 44.4)"/><rect class="b" width="2.4" height="2.4" transform="translate(67.2 55.2)"/><rect class="b" width="2.4" height="2.4" transform="translate(57.6 50.4)"/><rect class="b" width="2.4" height="2.4" transform="translate(44.4 69.6)"/><rect class="b" width="2.4" height="2.4" transform="translate(69.6 42)"/></g></g></svg>