<svg xmlns="http://www.w3.org/2000/svg" width="159.2" height="159.2" viewBox="0 0 159.2 159.2"><defs><style>.a{fill:#fff;stroke:#173a56;stroke-width:0.2px;stroke-dasharray:5;}.b{fill:#3d5a72;}</style></defs><g transform="translate(-1022.4 -908.4)"><path class="a" d="M79.5,0A79.5,79.5,0,1,1,0,79.5,79.5,79.5,0,0,1,79.5,0Z" transform="translate(1022.5 908.5)"/><g transform="translate(1065.133 951.133)"><path class="b" d="M66.916,40.066V16.633a8.36,8.36,0,1,0-9.559-8.269H0v47.8H35.909a19.107,19.107,0,1,0,31.007-16.1ZM65.721,2.39a5.975,5.975,0,1,1-5.975,5.975A5.981,5.981,0,0,1,65.721,2.39ZM2.39,10.754H57.709a8.357,8.357,0,0,0,1.323,2.611l-7.308,7.308a3.459,3.459,0,0,0-3.072,0l-2.408-2.408a3.551,3.551,0,0,0,.359-1.537,3.585,3.585,0,0,0-7.17,0,3.525,3.525,0,0,0,.36,1.535L33.8,24.257a3.551,3.551,0,0,0-1.537-.359,3.585,3.585,0,1,0,3.585,3.585,3.525,3.525,0,0,0-.36-1.535l5.993-5.993a3.465,3.465,0,0,0,3.072,0l2.408,2.408A3.551,3.551,0,0,0,46.6,23.9a3.585,3.585,0,1,0,7.17,0,3.525,3.525,0,0,0-.36-1.535l7.309-7.308a8.314,8.314,0,0,0,3.8,1.58v21.8a19,19,0,0,0-23.9,3.928V37.043h-7.17V51.382H36.2a19.13,19.13,0,0,0-.288,2.39H2.39ZM50.187,22.7A1.195,1.195,0,1,1,48.992,23.9,1.2,1.2,0,0,1,50.187,22.7Zm-8.365-5.975a1.195,1.195,0,1,1,1.195,1.195A1.2,1.2,0,0,1,41.823,16.729ZM33.458,27.483a1.195,1.195,0,1,1-1.195-1.195A1.2,1.2,0,0,1,33.458,27.483ZM54.967,64.526a9.559,9.559,0,1,1,9.559-9.559A9.571,9.571,0,0,1,54.967,64.526Zm-16.729-18.8a18.977,18.977,0,0,0-1.421,3.261h-.969V39.433h2.39ZM53.772,38.3v4.78a11.925,11.925,0,0,0-9.69,16.792l-4.145,2.393A16.672,16.672,0,0,1,53.772,38.3Zm1.195,33.4A16.72,16.72,0,0,1,41.12,64.341l4.162-2.4a11.91,11.91,0,0,0,19.37,0l4.162,2.4A16.72,16.72,0,0,1,54.967,71.7ZM70,62.264l-4.145-2.393a11.925,11.925,0,0,0-9.69-16.792V38.3A16.672,16.672,0,0,1,70,62.264Z"/><path class="b" d="M38.274,31.1a7.17,7.17,0,1,0,7.17,7.17A7.177,7.177,0,0,0,38.274,31.1Zm0,11.949a4.78,4.78,0,1,1,4.78-4.78A4.784,4.784,0,0,1,38.274,43.053Z" transform="translate(16.693 16.693)"/><path class="b" d="M3.11,8.554H5.5v2.39H3.11Z" transform="translate(1.669 4.591)"/><path class="b" d="M6.221,8.554H22.95v2.39H6.221Z" transform="translate(3.339 4.591)"/><path class="b" d="M3.11,11.664H5.5v2.39H3.11Z" transform="translate(1.669 6.26)"/><path class="b" d="M6.221,11.664H22.95v2.39H6.221Z" transform="translate(3.339 6.26)"/><path class="b" d="M3.11,14.774H5.5v2.39H3.11Z" transform="translate(1.669 7.929)"/><path class="b" d="M6.221,14.774H22.95v2.39H6.221Z" transform="translate(3.339 7.929)"/><path class="b" d="M3.11,17.885H5.5v2.39H3.11Z" transform="translate(1.669 9.599)"/><path class="b" d="M6.221,17.885H22.95v2.39H6.221Z" transform="translate(3.339 9.599)"/><path class="b" d="M3.11,37.61h7.17V25.661H3.11ZM5.5,28.051H7.89v7.17H5.5Z" transform="translate(1.669 13.772)"/><path class="b" d="M9.331,36.775H16.5V27.216H9.331Zm2.39-7.17h2.39v4.78h-2.39Z" transform="translate(5.008 14.607)"/><path class="b" d="M15.552,40.114h7.17V21h-7.17Zm2.39-16.729h2.39V37.724h-2.39Z" transform="translate(8.347 11.268)"/></g></g></svg>