<svg xmlns="http://www.w3.org/2000/svg" width="283.268" height="266" viewBox="0 0 283.268 266">
  <g id="Group_17" data-name="Group 17" transform="translate(-38.9 -658)">
    <path id="Polygon" d="M51.5,0,96.1,25.5v51L51.5,102,6.9,76.5v-51Z" transform="translate(32 740)" fill="#d0d4de"/>
    <path id="Polygon_Copy_8" data-name="Polygon Copy 8" d="M51,0,95.167,25.5v51L51,102,6.833,76.5v-51Z" transform="translate(179 822)" fill="#d0d4de"/>
    <path id="Polygon_Copy_6" data-name="Polygon Copy 6" d="M51,0,95.167,25.5v51L51,102,6.833,76.5v-51Z" transform="translate(227 740)" fill="#d0d4de"/>
    <path id="Polygon_Copy_5" data-name="Polygon Copy 5" d="M51,0,95.167,25.5v51L51,102,6.833,76.5v-51Z" transform="translate(130 740)" fill="#d0d4de"/>
    <path id="Polygon_Copy_10" data-name="Polygon Copy 10" d="M51,0,95.167,25.5v51L51,102,6.833,76.5v-51Z" transform="translate(82 658)" fill="#d0d4de"/>
    <path id="Polygon_Copy_11" data-name="Polygon Copy 11" d="M51,0,95.167,25.5v51L51,102,6.833,76.5v-51Z" transform="translate(179 658)" fill="#d0d4de"/>
    <path id="Polygon_Copy_7" data-name="Polygon Copy 7" d="M51,0,95.167,25.5v51L51,102,6.833,76.5v-51Z" transform="translate(82 822)" fill="#d0d4de"/>
  </g>
</svg>
