<svg xmlns="http://www.w3.org/2000/svg" xmlns:xlink="http://www.w3.org/1999/xlink" width="531.783" height="509" viewBox="0 0 531.783 509"><defs><style>.a{fill:#66ded1;opacity:0.199;}.b,.f,.g,.i,.k,.l,.m,.o,.q{fill:none;}.b,.k{stroke:#66ded1;}.b,.k,.l{stroke-linecap:round;}.b{stroke-linejoin:round;opacity:0.3;}.b,.f,.g,.h,.i,.k,.l,.m,.o{stroke-miterlimit:10;}.b,.o{stroke-width:3px;}.c{opacity:0.9;}.d{opacity:0.5;}.e{fill:#a6d1f3;}.f,.g{stroke:#60c3be;}.f,.g,.m{stroke-linecap:square;}.f,.g,.i,.k,.l,.m{stroke-width:2px;}.f{stroke-dasharray:0 5;}.g{stroke-dasharray:0 4;}.h,.n{fill:#60c3be;}.h{stroke:#fff;stroke-width:6px;}.i,.l,.m,.o{stroke:#2a2c39;}.j{fill:#2a2c39;}.p{stroke:none;}.r{filter:url(#i);}.s{filter:url(#g);}.t{filter:url(#e);}.u{filter:url(#c);}.v{filter:url(#a);}</style><filter id="a" x="200" y="0" width="136" height="136" filterUnits="userSpaceOnUse"><feOffset dy="3" input="SourceAlpha"/><feGaussianBlur stdDeviation="3" result="b"/><feFlood flood-opacity="0.161"/><feComposite operator="in" in2="b"/><feComposite in="SourceGraphic"/></filter><filter id="c" x="395.783" y="146.5" width="136" height="136" filterUnits="userSpaceOnUse"><feOffset dy="3" input="SourceAlpha"/><feGaussianBlur stdDeviation="3" result="d"/><feFlood flood-opacity="0.161"/><feComposite operator="in" in2="d"/><feComposite in="SourceGraphic"/></filter><filter id="e" x="328" y="373" width="136" height="136" filterUnits="userSpaceOnUse"><feOffset dy="3" input="SourceAlpha"/><feGaussianBlur stdDeviation="3" result="f"/><feFlood flood-opacity="0.161"/><feComposite operator="in" in2="f"/><feComposite in="SourceGraphic"/></filter><filter id="g" x="64" y="373" width="136" height="136" filterUnits="userSpaceOnUse"><feOffset dy="3" input="SourceAlpha"/><feGaussianBlur stdDeviation="3" result="h"/><feFlood flood-opacity="0.161"/><feComposite operator="in" in2="h"/><feComposite in="SourceGraphic"/></filter><filter id="i" x="0" y="146" width="136" height="136" filterUnits="userSpaceOnUse"><feOffset dy="3" input="SourceAlpha"/><feGaussianBlur stdDeviation="3" result="j"/><feFlood flood-opacity="0.161"/><feComposite operator="in" in2="j"/><feComposite in="SourceGraphic"/></filter></defs><g transform="translate(-330.217 -272)"><g transform="translate(0 -7705)"><path class="a" d="M212,0,413.624,146.488,336.61,383.512H87.39L10.376,146.488Z" transform="translate(386.217 8037)"/><path class="b" d="M144,0,280.952,99.5l-52.311,161H59.359L7.048,99.5Z" transform="translate(454.217 8106)"/><g class="c" transform="translate(588.217 8128)"><g class="d" transform="translate(0 272)"><path class="e" d="M10,0,20-6V-18L10-24,0-18V-6Z" transform="translate(0.04 -20.308)"/><path class="f" d="M1.274-.663v-37" transform="translate(8.726 -233.337)"/><path class="g" d="M1.341-.262,1-78.7" transform="translate(9.159 -0.238)"/></g></g></g><g class="v" transform="matrix(1, 0, 0, 1, 330.22, 272)"><circle class="h" cx="56" cy="56" r="56" transform="translate(212 9)"/></g><g class="u" transform="matrix(1, 0, 0, 1, 330.22, 272)"><circle class="h" cx="56" cy="56" r="56" transform="translate(407.78 155.5)"/></g><g class="t" transform="matrix(1, 0, 0, 1, 330.22, 272)"><circle class="h" cx="56" cy="56" r="56" transform="translate(340 382)"/></g><g class="s" transform="matrix(1, 0, 0, 1, 330.22, 272)"><circle class="h" cx="56" cy="56" r="56" transform="translate(76 382)"/></g><g class="r" transform="matrix(1, 0, 0, 1, 330.22, 272)"><circle class="h" cx="56" cy="56" r="56" transform="translate(12 155)"/></g><g transform="translate(568.217 304)"><g class="i"><rect class="p" width="61" height="48" rx="4"/><rect class="q" x="1" y="1" width="59" height="46" rx="3"/></g><path class="i" d="M0,.27H59.891" transform="translate(0.555 11.865)"/><ellipse class="j" cx="1.386" cy="1.348" rx="1.386" ry="1.348" transform="translate(47.355 5.315)"/><ellipse class="j" cx="1.386" cy="1.348" rx="1.386" ry="1.348" transform="translate(52.9 5.315)"/><ellipse class="j" cx="1.386" cy="1.348" rx="1.386" ry="1.348" transform="translate(41.809 5.315)"/><path class="j" d="M21,6.3A11.033,11.033,0,0,1,30.966,0C37.06,0,42,3.637,42,11.055S31.773,27.546,21,36C9.863,27.343,0,18.611,0,11.055S4.94,0,11.034,0A11.033,11.033,0,0,1,21,6.3Z" transform="translate(10 19)"/><path class="k" d="M16,0c-2.627,2.453-5.291,4.594-8.159,7C5.388,4.962,2.251,2.032,0,0" transform="translate(23 60)"/><path class="l" d="M16,0c-2.627,2.453-5.291,4.594-8.159,7C5.388,4.962,2.251,2.032,0,0" transform="translate(23 60)"/><path class="l" d="M22,0c-3.612,3.154-7.275,5.907-11.219,9C7.408,6.38,3.095,2.613,0,0" transform="translate(20 52)"/></g><g transform="translate(371.717 451)"><g transform="translate(13.5 47)"><path class="i" d="M-26,.348V21l13.588-6.006L0,21V0" transform="translate(26)"/><path class="m" d="M.277.214V13.479" transform="translate(7.191 3.405)"/><path class="m" d="M.277.214V13.479" transform="translate(18.255 3.405)"/></g><circle class="j" cx="19.5" cy="19.5" r="19.5" transform="translate(6.5 6)"/><g class="i" transform="translate(0.5)"><circle class="p" cx="25" cy="25" r="25"/><circle class="q" cx="25" cy="25" r="26"/></g><path class="n" d="M10.5,15.75,4.328,18.995l1.179-6.872L.514,7.255l6.9-1L10.5,0l3.086,6.253,6.9,1-4.993,4.867,1.179,6.872Z" transform="translate(15.5 15)"/></g><path class="o" d="M25.5,38.25,14.1,44.244a2,2,0,0,1-2.9-2.108l2.178-12.7L4.15,20.449a2,2,0,0,1,1.108-3.411l12.747-1.852,5.7-11.551a2,2,0,0,1,3.587,0l5.7,11.551,12.747,1.852a2,2,0,0,1,1.108,3.411L37.626,29.44l2.178,12.7a2,2,0,0,1-2.9,2.108Z" transform="translate(701.217 679)"/><path class="j" d="M12.5,18.75,8.74,20.727a2,2,0,0,1-2.9-2.108l.718-4.187L3.514,11.466A2,2,0,0,1,4.622,8.055l4.2-.611,1.88-3.81a2,2,0,0,1,3.587,0l1.88,3.81,4.2.611a2,2,0,0,1,1.108,3.411l-3.042,2.965.718,4.187a2,2,0,0,1-2.9,2.108Z" transform="translate(714.217 692)"/><rect class="j" width="11" height="4" rx="2" transform="translate(721.217 727)"/><rect class="j" width="23" height="4" rx="2" transform="translate(715.217 736)"/><rect class="j" width="31" height="4" rx="2" transform="translate(711.217 745)"/><g transform="translate(757.582 385.572)"><path class="j" d="M73.87,90.034,58.186,74.346a.905.905,0,0,0-1.279,0l-3.611,3.6a.907.907,0,0,0-.263.642.877.877,0,0,0,.263.638l1.59,1.594-3.753,3.757L37.107,86.244,23.085,84.575l-3.768-3.766L20.9,79.227a.907.907,0,0,0,.265-.638.923.923,0,0,0-.265-.642l-3.608-3.6a.9.9,0,0,0-1.278,0L.264,90.038a.9.9,0,0,0,0,1.275l3.6,3.6c.035.035.072.069.111.1l7.49,11.8a16.8,16.8,0,0,0,1.572,2.539l15.671,15.676a3.708,3.708,0,0,0,2.576,1.137,2.582,2.582,0,0,0,1.848-.735l.233-.224.01.01a3.194,3.194,0,0,0,3.73.413,3.2,3.2,0,0,0,3.731-.41l.012-.014.23.225a2.565,2.565,0,0,0,1.848.735,3.714,3.714,0,0,0,2.574-1.137l15.676-15.672L70.082,95.1l3.788-3.79a.9.9,0,0,0,.265-.637A.886.886,0,0,0,73.87,90.034ZM57.8,77.491a1.271,1.271,0,0,1,0,2.541,1.271,1.271,0,1,1,0-2.541ZM14.983,78.645a1.271,1.271,0,1,1,.987,1.507A1.276,1.276,0,0,1,14.983,78.645Zm31.646,39.694c.217.225.312.47.127.654l-1.887,1.885a.306.306,0,0,1-.207.072.655.655,0,0,1-.449-.2l-2.27-2.3-6.978-6.968L33.032,113.4l.014.016,7.5,7.5c.072.074.251.284.1.438,0,0-1.511,1.513-1.825,1.825s-.655-.133-.655-.133l-7.728-7.735H26.615a.863.863,0,0,0,.1.122l5.768,5.764c.187.185.4.432.22.613l-1.5,1.491c-.151.15-.4.1-.631-.138l-15.64-15.633c-.467-.673-4.257-7.072-6.948-11.63l11.2-11.194,2.425,2.469a.9.9,0,0,0,.595.271l6.228.671a3.779,3.779,0,0,0-.954,3.065l.429,3.383a3.549,3.549,0,0,0,3.81,3.207l4.093-.384,13.436,13.534a.561.561,0,0,1,0,.79l-2.168,2.172a.58.58,0,0,1-.79,0l-8.576-8.578v4.108Zm12.641-10.8-9.919,9.922-.879-.936,2.781-2.794c1.894-1.894,1.324-3.819-1.213-6.346L39.154,96.654s.595-.509.634-.538l-.608-1.985-7.73.708c-.019,0-.1,0-.124.006a.679.679,0,0,1-.589-.638L30.3,90.828a.784.784,0,0,1,.143-.585.514.514,0,0,1,.316-.2l21.254-2.587a.913.913,0,0,0,.592-.269l2.424-2.468,11.2,11.194C63.54,100.475,59.749,106.868,59.27,107.541Z" transform="translate(0)"/></g><path class="j" d="M48.8,2H7.2A5.193,5.193,0,0,0,2.026,7.2L2,54,12.4,43.6H48.8A5.215,5.215,0,0,0,54,38.4V7.2A5.215,5.215,0,0,0,48.8,2ZM12.4,20.2H43.6v5.2H12.4Zm20.8,13H12.4V28H33.2ZM43.6,17.6H12.4V12.4H43.6Z" transform="translate(434.5 685)"/></g></svg>