<svg xmlns="http://www.w3.org/2000/svg" width="52" height="52" viewBox="0 0 52 52">
    <g fill="none">
        <path fill="#000" d="M36.728 50.869c-.214.07-.428.133-.642.192.214-.059.428-.123.642-.192zM37.24 50.803c-.102.037-.204.071-.306.107.102-.036.204-.07.306-.107zM35.514 51.047c-.25.056-.501.106-.753.148.252-.042.503-.092.753-.148zM36.005 51.001c-.12.032-.24.062-.36.09.12-.028.24-.058.36-.09zM37.937 50.663l-.27.113.27-.113zM39.666 50.231l-.218.121.218-.12zM39.143 50.373c-.079.042-.158.084-.237.124.08-.04.158-.081.237-.124zM38.459 50.547c-.084.04-.168.076-.252.113.084-.037.168-.074.252-.113zM34.753 51.144c-.135.022-.27.043-.405.06.135-.017.27-.038.405-.06z" transform="translate(.5)"/>
        <path fill="#9DA6B2" d="M51.2 25.6C51.2 11.464 39.736 0 25.6 0 11.464 0 0 11.464 0 25.6c0 14.136 11.464 25.6 25.6 25.6.15 0 .3-.003.45-.006V31.266h-5.5v-6.41h5.5v-4.717c0-5.47 3.34-8.448 8.22-8.448 2.336 0 4.344.175 4.93.252v5.718h-3.365c-2.655 0-3.169 1.261-3.169 3.112v4.083h6.348l-.827 6.41h-5.52V50.21C43.366 47.143 51.2 37.285 51.2 25.6z" transform="translate(.5)"/>
        <path fill="#000" d="M34.291 51.173c-.266.034-.534.062-.802.08.268-.018.536-.046.802-.08zM33.475 51.228c-.141.01-.283.017-.425.021.142-.004.284-.011.425-.02z" transform="translate(.5)"/>
    </g>
</svg>
