<svg xmlns="http://www.w3.org/2000/svg" width="52" height="52" viewBox="0 0 52 52">
    <path fill="#9DA6B2" d="M25.6 0C11.464 0 0 11.464 0 25.6c0 14.136 11.464 25.6 25.6 25.6 14.136 0 25.6-11.464 25.6-25.6C51.2 11.464 39.736 0 25.6 0zm11.689 19.96c.011.252.016.505.016.76 0 7.764-5.91 16.718-16.718 16.718-3.318 0-6.406-.973-9.007-2.64.46.055.928.082 1.402.082 2.753 0 5.287-.94 7.298-2.516-2.572-.047-4.74-1.746-5.49-4.08.359.068.727.105 1.105.105.536 0 1.056-.072 1.55-.207-2.69-.538-4.715-2.914-4.715-5.76l.001-.074c.792.44 1.698.705 2.662.734-1.578-1.052-2.615-2.852-2.615-4.89 0-1.077.29-2.086.795-2.954 2.898 3.555 7.229 5.894 12.112 6.14-.1-.431-.153-.88-.153-1.34 0-3.244 2.632-5.876 5.877-5.876 1.69 0 3.217.715 4.289 1.857 1.339-.264 2.596-.753 3.731-1.426-.44 1.371-1.37 2.522-2.584 3.25 1.189-.143 2.322-.458 3.375-.926-.787 1.179-1.784 2.214-2.931 3.043z"/>
</svg>
