<svg xmlns="http://www.w3.org/2000/svg" width="40" height="40" viewBox="0 -5 40 40">
    <path fill="#9DA6B2" fill-rule="evenodd" d="M31.022 16.857c-1.85 0-3.585-.781-5.16-2.055l.382-1.801.012-.07c.348-1.915 1.425-5.125 4.766-5.125 2.503 0 4.537 2.03 4.537 4.527 0 2.494-2.034 4.524-4.537 4.524zm-.396-13.875c-4.19 0-7.443 2.793-8.762 7.39C19.852 7.267 18.32 3.54 17.431.4h-4.514v12.039c-.003 2.38-1.883 4.308-4.203 4.31-2.318-.003-4.197-1.931-4.2-4.31V.4H0v12.039c0 4.93 3.91 8.975 8.714 8.975 4.807 0 8.717-4.045 8.717-8.975v-2.016c.874 1.874 1.95 3.773 3.258 5.45L17.926 29.2h4.616l2.003-9.665c1.752 1.15 3.769 1.879 6.08 1.879 4.95 0 8.975-4.151 8.975-9.226 0-5.078-4.024-9.206-8.974-9.206z"/>
</svg>
