<svg xmlns="http://www.w3.org/2000/svg" width="74.4" height="74.402" viewBox="0 0 74.4 74.402"><defs><style>.a{fill:#23255f;}</style></defs><path class="a" d="M70.8,0H3.6A3.6,3.6,0,0,0,0,3.6V56.4A3.6,3.6,0,0,0,3.6,60H36v.66a8.44,8.44,0,0,0,.876,3.736L39.6,69.881v4.465l21.6.056V70l1.92-2.56A8.451,8.451,0,0,0,64.8,62.4V60h6a3.6,3.6,0,0,0,3.6-3.6V3.6A3.6,3.6,0,0,0,70.8,0ZM3.6,2.4H70.8A1.2,1.2,0,0,1,72,3.6V14.4H2.4V3.6A1.2,1.2,0,0,1,3.6,2.4ZM46.8,28.8a3.6,3.6,0,0,0-3.6,3.6v1.2H28.8v-12H67.2v12H50.4V32.4A3.6,3.6,0,0,0,46.8,28.8ZM43.2,48.308a8.864,8.864,0,0,0-6.457-2.759A3.147,3.147,0,0,0,33.6,48.691a3.183,3.183,0,0,0,.331,1.406l1.352,2.7H28.8v-12H43.2ZM62.4,62.4A6.034,6.034,0,0,1,61.2,66l-2.4,3.2V72L42,71.952V69.318l-2.975-5.99A6.028,6.028,0,0,1,38.4,60.66V55.73a8.789,8.789,0,0,0-.923-3.911l-1.4-2.8A.745.745,0,0,1,36,48.691a.776.776,0,0,1,.857-.742A6.351,6.351,0,0,1,43.2,54.294V58.75h2.4V32.4a1.2,1.2,0,0,1,2.4,0V51.6h2.4V46.8a1.2,1.2,0,1,1,2.4,0v4.8h2.4V46.8a1.2,1.2,0,1,1,2.4,0v4.8H60V49.2a1.2,1.2,0,0,1,2.4,0ZM61.2,45.6a3.581,3.581,0,0,0-1.339.264A3.568,3.568,0,0,0,54,44.136a3.489,3.489,0,0,0-3.6-.715V40.8H67.2v12H64.8V49.2A3.6,3.6,0,0,0,61.2,45.6Zm9.6,12h-6V55.2h4.8V38.4H50.4V36H69.6V19.2H26.4V36H43.2v2.4H26.4V55.2h9.569c.016.176.031.354.031.53V57.6H3.6a1.2,1.2,0,0,1-1.2-1.2V16.8H72V56.4A1.2,1.2,0,0,1,70.8,57.6Z"/><path class="a" d="M12,4.8H4.8V12H12ZM9.6,9.6H7.2V7.2H9.6Z"/><path class="a" d="M21.6,4.8H14.4V12h7.2ZM19.2,9.6H16.8V7.2h2.4Z"/><path class="a" d="M31.2,4.8H24V12h7.2ZM28.8,9.6H26.4V7.2h2.4Z"/><path class="a" d="M31.2,24h2.4v2.4H31.2Z"/><path class="a" d="M36,24H64.8v2.4H36Z"/><path class="a" d="M52.8,28.8h12v2.4h-12Z"/><path class="a" d="M31.2,28.8h9.6v2.4H31.2Z"/><path class="a" d="M7.2,36H24V19.2H7.2ZM9.6,21.6h12v12H9.6Z"/><path class="a" d="M14.4,28.3l-1.552-1.552-1.7,1.7L14.4,31.7l6.848-6.848-1.7-1.7Z"/><path class="a" d="M7.2,55.2H24V38.4H7.2ZM9.6,40.8h12v12H9.6Z"/><path class="a" d="M14.4,47.5l-1.552-1.552-1.7,1.7L14.4,50.9l6.848-6.848-1.7-1.7Z"/></svg>