<svg xmlns="http://www.w3.org/2000/svg" width="86.882" height="94.316" viewBox="0 0 86.882 94.316"><g transform="translate(0.5 99.616) rotate(-90)"><path d="M37.5,76C58.211,76,75,58.987,75,38S58.211,0,37.5,0,0,17.013,0,38" transform="translate(15.5 0.5)" fill="none" stroke="#fff" stroke-miterlimit="10" stroke-width="2"/><path d="M22.5,45A22.5,22.5,0,1,0,0,22.5" transform="translate(30 16)" fill="none" stroke="#fff" stroke-miterlimit="10" stroke-width="2"/><circle cx="9" cy="9" r="9" transform="translate(43 30)" fill="#fff"/><g transform="translate(37.196 39.535) rotate(45)"><path d="M11.667,0,23.333,33.571H0Z" transform="translate(0.959 0.133)" fill="#fff"/><rect width="6.667" height="23.5" transform="translate(8.117 27.969)" fill="#fff"/></g><path d="M.3.625H11.616" transform="translate(87 38)" fill="none" stroke="#fff" stroke-linecap="square" stroke-miterlimit="10" stroke-width="2"/><path d="M.3.625H11.616" transform="translate(6 38)" fill="none" stroke="#fff" stroke-linecap="square" stroke-miterlimit="10" stroke-width="2"/></g></svg>