<svg xmlns="http://www.w3.org/2000/svg" xmlns:xlink="http://www.w3.org/1999/xlink" width="122" height="63" viewBox="0 0 122 63"><defs><style>.a{fill:#fff;}.b{clip-path:url(#a);}.c{fill:#173a56;opacity:0.6;}</style><clipPath id="a"><rect class="a" width="122" height="63" rx="10" transform="translate(-14315 -16199)"/></clipPath></defs><g class="b" transform="translate(14315 16199)"><path class="c" d="M9.364,75.634A112.3,112.3,0,0,0,25.343,94.547c.276.272.565.547.852.818.869.819,1.765,1.64,2.662,2.428C30.4,99.2,32,100.564,33.619,101.869c.854.717,1.736,1.421,2.607,2.107a176.423,176.423,0,0,0,31.648,19.946c3.318,1.615,6.64,3.051,9.921,4.285,17.121,6.525,33.133,7.862,44.307.941a27.69,27.69,0,0,0,9.07-9.194q.588-.955,1.175-1.9c3.63-5.952,7.1-11.927,10.163-17.928.727-1.4,1.408-2.784,2.076-4.186,11.128-23.206,15.6-46.582.721-69.268-5.785-8.824-15.4-15.614-27.005-20.342A93.684,93.684,0,0,0,107.94,2.778c-1.767-.527-3.548-.981-5.375-1.389q-3.444-.822-7-1.424c-1.816-.32-3.629-.6-5.459-.833Q88.958-1,87.816-1.139A138.321,138.321,0,0,0,71.47-1.987c-.717,0-1.436.007-2.142.018-3.3.069-6.575.252-9.808.568-.867.072-1.734.159-2.6.274-16.506,1.86-31.7,6.81-42.1,14.786a42.2,42.2,0,0,0-6.092,5.654c-.33.371-.644.741-.942,1.125-.1.119-.2.237-.3.357a40.882,40.882,0,0,0-5.241,8.3C-4.51,43.372-.945,58.942,7.919,73.362,8.391,74.129,8.861,74.884,9.364,75.634Z" transform="translate(-14246.756 -16213.972) rotate(42)"/></g></svg>