<svg xmlns="http://www.w3.org/2000/svg" xmlns:xlink="http://www.w3.org/1999/xlink" width="73" height="66" viewBox="0 0 73 66"><defs><style>.a{fill:#fff;stroke:#707070;}.b{clip-path:url(#a);}.c{fill:#173a56;opacity:0.05;}</style><clipPath id="a"><rect class="a" width="73" height="66" rx="10" transform="translate(-14694 -16790)"/></clipPath></defs><g class="b" transform="translate(14694 16790)"><path class="c" d="M-442.626,37.11a56.956,56.956,0,0,0,7.858,9.282c.135.134.277.269.418.4.426.4.865.808,1.3,1.2.757.694,1.536,1.366,2.329,2.011.418.354.849.7,1.274,1.041a88.872,88.872,0,0,0,15.428,9.9c1.614.808,3.228,1.529,4.821,2.152,8.313,3.293,16.051,4.064,21.389.8a12.765,12.765,0,0,0,4.305-4.381l.552-.913c1.706-2.854,3.335-5.72,4.765-8.6.34-.673.658-1.337.969-2.011,5.19-11.15,7.166-22.435-.19-33.535-2.86-4.318-7.555-7.68-13.19-10.06a46.479,46.479,0,0,0-5.028-1.8c-.857-.269-1.72-.5-2.6-.714q-1.668-.425-3.391-.744c-.879-.169-1.756-.318-2.641-.446l-1.1-.149a66.906,66.906,0,0,0-7.9-.537C-413.6,0-413.951,0-414.291,0c-1.593.008-3.171.071-4.729.2-.418.028-.835.064-1.253.113-7.951.772-15.244,3.051-20.2,6.832a19.433,19.433,0,0,0-2.9,2.69c-.156.177-.305.354-.446.537-.05.057-.093.113-.142.171a18.97,18.97,0,0,0-2.465,3.979c-3.151,6.86-1.309,14.427,3.081,21.478C-443.107,36.374-442.874,36.743-442.626,37.11Z" transform="matrix(0.454, 0.891, -0.891, 0.454, -14452.335, -16422.408)"/></g></svg>