<svg xmlns="http://www.w3.org/2000/svg" xmlns:xlink="http://www.w3.org/1999/xlink" width="52.889" height="20" viewBox="0 0 52.889 20"><defs><style>.a{fill:#fff;}.b{clip-path:url(#a);}</style><clipPath id="a"><rect class="a" width="52.889" height="20" transform="translate(0 0.617)"/></clipPath></defs><g class="b" transform="translate(0 -0.617)"><g transform="translate(0 2.949)"><g transform="translate(0 0)"><g transform="translate(0 0)"><path class="a" d="M8.012,12.727H7.323A9.223,9.223,0,0,0,5.9,12.8V10.252a12.25,12.25,0,0,0,1.881.086H8.93c.733,0,1.264-.015,1.9-.072a13.637,13.637,0,0,0-.1,1.957v1.612a14.7,14.7,0,0,0,.1,2.144A7.126,7.126,0,0,1,9,16.887a9.58,9.58,0,0,1-3.045.489,5.7,5.7,0,0,1-4.265-1.541A6.7,6.7,0,0,1,0,11.057C0,7.272,2.283,4.868,5.9,4.868a5,5,0,0,1,4.107,1.714,4.187,4.187,0,0,1,.848,1.568l-2.93.677a1.819,1.819,0,0,0-.646-1.037,2.211,2.211,0,0,0-1.45-.447c-1.839,0-2.843,1.339-2.843,3.757a4.446,4.446,0,0,0,.876,3.008,2.692,2.692,0,0,0,2.067.777,4.3,4.3,0,0,0,2.083-.518Z" transform="translate(0 -4.69)"/><path class="a" d="M359.791,112.4v-.382a8.358,8.358,0,0,0-2.4.273,1.015,1.015,0,0,0-.8.9c0,.491.416.779,1.137.779a2.592,2.592,0,0,0,1.567-.52,1.369,1.369,0,0,0,.5-1.052m0-2.131v-.314c0-.655-.4-.956-1.318-.956-.887,0-1.358.287-1.566.956l-2.649-.423a2.939,2.939,0,0,1,1.166-1.653,5.381,5.381,0,0,1,3.12-.779,6.088,6.088,0,0,1,2.565.479,2.459,2.459,0,0,1,1.276,2.459v3.688a15.755,15.755,0,0,0,.1,1.939h-2.69v-.629a4.068,4.068,0,0,1-2.69.82,3.425,3.425,0,0,1-2.4-.751,2.441,2.441,0,0,1-.763-1.858,2.285,2.285,0,0,1,1.013-1.994,5.83,5.83,0,0,1,2.884-.888c.541-.054.956-.068,1.955-.1" transform="translate(-340.948 -103.173)"/><path class="a" d="M636.157,9.737h2.865a8.043,8.043,0,0,0-.11,1.528V15.5a13.318,13.318,0,0,0,.11,2.057h-2.755v-.59a3.481,3.481,0,0,1,.014-.37,3.8,3.8,0,0,1-2.879,1.179,3.066,3.066,0,0,1-2.2-.767,2.942,2.942,0,0,1-.79-2.3V11.265a9.161,9.161,0,0,0-.111-1.528h2.879a8.226,8.226,0,0,0-.111,1.528v2.811a1.553,1.553,0,0,0,.222,1.029,1.089,1.089,0,0,0,.9.383,2.251,2.251,0,0,0,2.076-1.1v-3.12a12.17,12.17,0,0,0-.11-1.528" transform="translate(-607.169 -9.379)"/><path class="a" d="M937.946,107.159v1.979c-.517.55-.91.962-1.154,1.251l-2.27,2.653c-.108.123-.149.178-.258.288a3.747,3.747,0,0,1,.408-.013h1.48a17.545,17.545,0,0,0,2.051-.1v2.461a16.749,16.749,0,0,0-2.064-.1h-3.4c-1.087,0-1.4,0-1.834.042v-2.09c.53-.522.87-.893,1.155-1.223l2.2-2.612a3.476,3.476,0,0,1,.258-.289h-1.3a17.568,17.568,0,0,0-2.051.1V107.1a18.342,18.342,0,0,0,2.051.1h2.867a18.3,18.3,0,0,0,1.861-.042" transform="translate(-896.741 -103.173)"/><path class="a" d="M1176.737,119.671l-2.578-5.844c-.593-1.385-.647-1.509-.827-1.855h2.991a9.31,9.31,0,0,0,.538,1.786l1.27,3.2,1.226-3.144a8.378,8.378,0,0,0,.594-1.842h2.991c-.345.72-.345.72-.827,1.855l-3.157,7.326a3.005,3.005,0,0,1-3.116,1.9,8.235,8.235,0,0,1-1.889-.236l.3-2.2a2.092,2.092,0,0,0,1.075.3,1.169,1.169,0,0,0,1.115-.651Z" transform="translate(-1130.268 -107.862)"/><path class="a" d="M671.182,256.55h-6.94a3.471,3.471,0,0,1,6.94,0" transform="translate(-639.862 -243.863)"/><path class="a" d="M1325.348.252h-.712V2.323h-.291V.252h-.709V0h1.712Zm.734-.252.723,1.9.724-1.9h.379V2.323h-.292v-.9l.027-.976-.727,1.881h-.224l-.724-1.876.028.972v.9h-.292V0Z" transform="translate(-1275.054)"/></g></g></g></g></svg>