<svg xmlns="http://www.w3.org/2000/svg" xmlns:xlink="http://www.w3.org/1999/xlink" width="107.499" height="81.5" viewBox="0 0 107.499 81.5"><defs><style>.a{fill:#fff;}.b{clip-path:url(#a);}.c{fill:#173a56;opacity:0.68;}</style><clipPath id="a"><rect class="a" width="37" height="89" rx="10" transform="matrix(0.966, 0.259, -0.259, 0.966, -14658.244, -16835.363)"/></clipPath></defs><g class="b" transform="matrix(0.259, 0.966, -0.966, 0.259, -12369.63, 18538.34)"><path class="c" d="M-441.792,42.868a65.792,65.792,0,0,0,9.077,10.722c.156.155.32.311.483.465.492.466,1,.933,1.506,1.382.874.8,1.775,1.578,2.691,2.322.483.409.981.81,1.472,1.2A102.659,102.659,0,0,0-408.742,70.4c1.864.933,3.729,1.766,5.569,2.486,9.6,3.8,18.541,4.695,24.708.924a14.745,14.745,0,0,0,4.973-5.061l.638-1.055c1.97-3.3,3.852-6.608,5.5-9.937.393-.777.76-1.545,1.12-2.322,5.995-12.88,8.278-25.915-.22-38.738-3.3-4.988-8.727-8.872-15.237-11.621A53.689,53.689,0,0,0-387.495,3c-.99-.311-1.987-.581-3.009-.825q-1.927-.491-3.918-.859c-1.015-.2-2.028-.367-3.051-.515L-398.748.63a77.286,77.286,0,0,0-9.12-.621c-.4-.009-.8-.009-1.194-.009-1.84.009-3.663.082-5.463.23-.482.033-.965.074-1.448.13-9.185.892-17.609,3.525-23.334,7.892a22.449,22.449,0,0,0-3.345,3.108c-.181.2-.352.409-.515.621-.057.065-.107.131-.164.2a21.913,21.913,0,0,0-2.847,4.6c-3.639,7.924-1.512,16.665,3.559,24.811C-442.348,42.017-442.079,42.443-441.792,42.868Z" transform="matrix(0.719, -0.695, 0.695, 0.719, -14416.631, -17094.787)"/></g></svg>