<svg xmlns="http://www.w3.org/2000/svg" width="771.058" height="584.1" viewBox="0 0 771.058 584.1"><defs><style>.a{fill:#2ec0ff;opacity:0.05;}.b{fill:#173a56;}.c{fill:#fff;}.d{fill:#8ae9ff;}.e{fill:#ffd800;}.f{fill:#ffd710;}.g{fill:#647b8e;}.h{fill:#00467f;}.i{fill:#03335e;}.j{fill:#a2e9f4;}.k{fill:#0a184a;}.l{fill:#d8dee2;}.m{fill:#136cbd;}.n{fill:#edf1f4;}.o{fill:#afbdc6;}.p{fill:#d1dde6;}.q{fill:#202a24;}.r{fill:#ffd8c5;}.s{fill:#ffc29f;}.t{fill:#e8bd0c;}.u{fill:#05496b;}.v{fill:#0e547f;}.w{fill:#f2ca03;}.x{fill:#f4c7b5;}.y{fill:#13597c;}.z{fill:#a6f2ff;}.aa{fill:#95f2fc;}.ab{fill:#0b1f30;}.ac{fill:#0f283b;}</style></defs><g transform="translate(-63.383 -321)"><path class="a" d="M321.289,70.963s-11.009,70.286,47.195,79.143,53.8-6.148,60.725,44.209c5.672,41.227,101.9,19.658,126.112,52.441,40.357,54.647-74.266,99.835-99.21,165.273s-11.785,163.55,86.737,156.361C657.873,560,666.536,621.7,739.638,613.95c109.225-11.577,128.344-48.981,184.468-12.159s122.8,28.944,167.411,16.955V44.636s-63.61,64.441-179.93,80.783S542.741,69.511,473.038,70.963,321.289,70.963,321.289,70.963Z" transform="translate(-257.076 276.364)"/><g transform="translate(190.154 432.145)"><path class="b" d="M845.352,422.188v-7.747l-6.227-.534a28.023,28.023,0,0,0-1.524-5.681l5.127-3.577-3.875-6.709-5.664,2.654a28.241,28.241,0,0,0-4.156-4.157l2.654-5.666-6.71-3.873-3.577,5.127a28.035,28.035,0,0,0-5.682-1.524l-.534-6.227h-7.748L806.9,390.5a28.035,28.035,0,0,0-5.682,1.524l-3.577-5.127-6.709,3.873,2.654,5.666a28.292,28.292,0,0,0-4.157,4.157l-5.664-2.654-3.875,6.709,5.127,3.577a27.954,27.954,0,0,0-1.523,5.681l-6.227.534v7.747l6.227.534a27.945,27.945,0,0,0,1.523,5.682l-5.127,3.576,3.875,6.71,5.664-2.654a28.347,28.347,0,0,0,4.157,4.157l-2.654,5.664,6.709,3.875,3.577-5.127a27.957,27.957,0,0,0,5.682,1.523l.534,6.228h7.748l.534-6.228a27.958,27.958,0,0,0,5.682-1.523l3.577,5.127,6.71-3.875-2.654-5.664a28.3,28.3,0,0,0,4.156-4.157l5.664,2.654,3.875-6.71L837.6,428.4a28.015,28.015,0,0,0,1.524-5.682ZM811.31,436.339a18.025,18.025,0,1,1,18.025-18.025A18.025,18.025,0,0,1,811.31,436.339Z" transform="translate(-324.204 -112.799)"/><g transform="translate(200.28 6.825)"><g transform="translate(6.657 32.2)"><rect class="c" width="0.83" height="16.396" transform="translate(0 0.642) rotate(-22.806)"/><rect class="d" width="0.83" height="16.252" transform="matrix(0.979, -0.205, 0.205, 0.979, 6.07, 0.17)"/><rect class="c" width="16.396" height="0.83" transform="matrix(0.388, -0.922, 0.922, 0.388, 16.077, 15.432)"/><rect class="d" width="16.252" height="0.83" transform="translate(12.985 15.906) rotate(-78.16)"/></g><path class="c" d="M542.726,154.782A26.771,26.771,0,0,0,546.048,168c-3.951-4.529-6.459-10.727-6.459-15.858a16.7,16.7,0,0,1,9.764-14.865C545.352,141.1,542.726,147.514,542.726,154.782Z" transform="translate(-539.589 -135.32)"/><path class="e" d="M547.488,154.866c0,7.836,2.062,14.683,5.126,18.354a19.425,19.425,0,0,1-6.754-5.134,26.771,26.771,0,0,1-3.321-13.22c0-7.268,2.626-13.682,6.627-17.5a19.042,19.042,0,0,1,3.947-1.41C549.776,139.458,547.488,146.61,547.488,154.866Z" transform="translate(-539.402 -135.404)"/><path class="e" d="M571.821,154.866a26.758,26.758,0,0,1-3.314,13.209,19.353,19.353,0,0,1-6.765,5.14c3.068-3.674,5.129-10.516,5.129-18.349,0-8.26-2.292-15.415-5.633-18.916a18.888,18.888,0,0,1,3.951,1.417C569.194,141.189,571.821,147.6,571.821,154.866Z" transform="translate(-538.213 -135.404)"/><path class="c" d="M568.271,167.991a26.758,26.758,0,0,0,3.314-13.209c0-7.264-2.627-13.677-6.631-17.5a16.692,16.692,0,0,1,9.768,14.862C574.722,157.27,572.218,163.466,568.271,167.991Z" transform="translate(-537.977 -135.32)"/><path class="c" d="M552.31,154.892c0,8.539,1.229,15.9,3,19.264a13.478,13.478,0,0,1-2.995-.91c-3.064-3.67-5.126-10.517-5.126-18.354,0-8.256,2.289-15.408,5.625-18.913a19.1,19.1,0,0,1,2.542-.436C553.562,138.862,552.31,146.277,552.31,154.892Z" transform="translate(-539.106 -135.43)"/><path class="c" d="M567.023,154.892c0,7.833-2.061,14.676-5.129,18.349l0,0a13.207,13.207,0,0,1-2.992.91c1.774-3.362,3.007-10.725,3.007-19.264,0-8.615-1.252-16.03-3.048-19.349a19.269,19.269,0,0,1,2.533.433C564.731,139.477,567.023,146.633,567.023,154.892Z" transform="translate(-538.365 -135.43)"/><path class="e" d="M562.341,154.9c0,8.539-1.233,15.9-3.007,19.264a11.991,11.991,0,0,1-4.327,0c-1.774-3.362-3-10.725-3-19.264,0-8.615,1.252-16.03,3.049-19.349a19.981,19.981,0,0,1,4.239,0C561.089,138.869,562.341,146.284,562.341,154.9Z" transform="translate(-538.8 -135.437)"/><path class="f" d="M0,0H11.049a0,0,0,0,1,0,0V5.148a4.971,4.971,0,0,1-4.971,4.971H4.971A4.971,4.971,0,0,1,0,5.148V0A0,0,0,0,1,0,0Z" transform="translate(12.848 46.495)"/></g><path class="g" d="M698.471,190.179A18.241,18.241,0,0,0,679.183,160.3c.015-.365.029-.73.029-1.1a27.326,27.326,0,0,0-54.545-2.417,12.467,12.467,0,0,0-19.821,9.484,16.036,16.036,0,0,0-18.216,15.908v.132a11.342,11.342,0,0,0,11.4,11.144h92.453A11.144,11.144,0,0,0,698.471,190.179Z" transform="translate(-336.319 -128.839)"/><g transform="translate(217.764 135.905)"><rect class="h" width="25.068" height="50.499" transform="translate(78.254 94.686)"/><path class="i" d="M14.506,0H63.3A14.507,14.507,0,0,1,77.805,14.507v2.437a0,0,0,0,1,0,0H0a0,0,0,0,1,0,0V14.506A14.506,14.506,0,0,1,14.506,0Z" transform="translate(51.886 140.794)"/><rect class="i" width="183.133" height="123.618" rx="5"/><rect class="c" width="167.097" height="106.956" rx="5" transform="translate(8.018 8.331)"/><g transform="translate(72.474 31.535)"><path class="j" d="M8.325,0H29.86a8.326,8.326,0,0,1,8.326,8.326V29.86a8.326,8.326,0,0,1-8.326,8.326H8.326A8.326,8.326,0,0,1,0,29.86V8.325A8.325,8.325,0,0,1,8.325,0Z" transform="translate(0 19.993)"/><path class="j" d="M661.445,319.213H625V301.362a14.924,14.924,0,0,1,14.907-14.907h6.631a14.924,14.924,0,0,1,14.907,14.907Zm-31.711-4.735H656.71V301.362a10.183,10.183,0,0,0-10.172-10.172h-6.631a10.184,10.184,0,0,0-10.173,10.172Z" transform="translate(-624.119 -286.455)"/><path class="k" d="M646.67,319.319a4.291,4.291,0,1,0-6.655,3.577v8.579h4.73V322.9A4.282,4.282,0,0,0,646.67,319.319Z" transform="translate(-623.287 -284.639)"/></g></g><path class="g" d="M489.926,168.139a10.978,10.978,0,0,1,11.606-17.985c-.007-.22-.016-.439-.016-.662a16.444,16.444,0,0,1,32.824-1.455,7.5,7.5,0,0,1,11.929,5.708,9.875,9.875,0,0,1,1.3-.09,9.663,9.663,0,0,1,9.662,9.663v.08a6.825,6.825,0,0,1-6.86,6.706H494.734A6.709,6.709,0,0,1,489.926,168.139Z" transform="translate(-342.664 -128.764)"/><path class="l" d="M821.213,213.432a26.406,26.406,0,0,0-27.92-43.261c.02-.529.039-1.056.039-1.59a39.558,39.558,0,0,0-78.96-3.5,18.049,18.049,0,0,0-28.695,13.73,23.213,23.213,0,0,0-26.372,23.028c0,.063,0,.127,0,.191a16.42,16.42,0,0,0,16.5,16.133H809.646A16.138,16.138,0,0,0,821.213,213.432Z" transform="translate(-331.701 -129.02)"/><path class="b" d="M475.414,358.647v-9.534l-6.009-.516a24.137,24.137,0,0,0-3.2-7.721l3.885-4.614-6.741-6.742-4.615,3.885a24.138,24.138,0,0,0-7.721-3.2L450.5,324.2h-9.535l-.515,6.009a24.128,24.128,0,0,0-7.721,3.2l-4.615-3.885-6.742,6.742,3.886,4.614a24.114,24.114,0,0,0-3.2,7.721l-6.009.516v9.534l6.009.515a24.1,24.1,0,0,0,3.2,7.721l-3.886,4.615,6.742,6.742,4.615-3.886a24.1,24.1,0,0,0,7.721,3.2l.515,6.009H450.5l.515-6.009a24.113,24.113,0,0,0,7.721-3.2l4.615,3.886,6.741-6.742-3.885-4.615a24.118,24.118,0,0,0,3.2-7.721Zm-29.684,12.434a17.2,17.2,0,1,1,17.2-17.2A17.2,17.2,0,0,1,445.731,371.081Z" transform="translate(-347.16 -116.616)"/><g transform="translate(399.627 220.188)"><rect class="m" width="89.833" height="132.951" rx="5"/><path class="c" d="M2.7,0H74.193a2.7,2.7,0,0,1,2.7,2.7V108.689a2.7,2.7,0,0,1-2.7,2.7H2.7a2.7,2.7,0,0,1-2.7-2.7V2.7A2.7,2.7,0,0,1,2.7,0Z" transform="translate(6.435 11.89)"/><path class="h" d="M755.205,341.825a2.221,2.221,0,1,0-2.221,2.221A2.222,2.222,0,0,0,755.205,341.825Z" transform="translate(-725.515 -335.826)"/><path class="h" d="M787.21,344.045H760.561a2.221,2.221,0,0,1-2.221-2.221h0a2.222,2.222,0,0,1,2.221-2.222H787.21a2.222,2.222,0,0,1,2.222,2.222h0A2.221,2.221,0,0,1,787.21,344.045Z" transform="translate(-725.034 -335.826)"/><g transform="translate(67.824 15.99)"><path class="f" d="M799.876,358.452a.719.719,0,0,1-.719-.718V351.8a.718.718,0,0,1,1.437,0v5.93A.718.718,0,0,1,799.876,358.452Z" transform="translate(-790.264 -351.086)"/><path class="f" d="M797.088,358.366a.718.718,0,0,1-.718-.718v-4.492a.718.718,0,1,1,1.437,0v4.492A.718.718,0,0,1,797.088,358.366Z" transform="translate(-790.441 -351)"/><path class="f" d="M794.3,358.323a.719.719,0,0,1-.719-.718v-3.773a.719.719,0,0,1,1.438,0v3.773A.719.719,0,0,1,794.3,358.323Z" transform="translate(-790.618 -350.957)"/><path class="f" d="M791.514,358.237a.719.719,0,0,1-.719-.718v-2.337a.719.719,0,1,1,1.438,0v2.337A.719.719,0,0,1,791.514,358.237Z" transform="translate(-790.795 -350.871)"/></g><rect class="n" width="64.5" height="33.78" rx="1.27" transform="translate(12.936 28.267)"/><g transform="translate(18.146 35.498)"><rect class="j" width="26.324" height="19.318" rx="0.676"/><path class="c" d="M770.41,379.8v7.92a.718.718,0,0,1-.718.718H744.8a.718.718,0,0,1-.719-.718v-1.453l5.773-6.426a.72.72,0,0,1,1.052-.019l4.322,4.473a.719.719,0,0,0,1.047-.014l8.893-9.693a.719.719,0,0,1,1.09.036Z" transform="translate(-744.086 -369.115)"/><path class="c" d="M752.453,374.147a2.635,2.635,0,1,0-2.634,2.634A2.635,2.635,0,0,0,752.453,374.147Z" transform="translate(-743.889 -369.296)"/></g><g transform="translate(49.677 36.637)"><path class="c" d="M783.481,373.1h-8.445a1.3,1.3,0,0,1-1.3-1.3h0a1.3,1.3,0,0,1,1.3-1.3h8.445a1.3,1.3,0,0,1,1.3,1.3h0A1.3,1.3,0,0,1,783.481,373.1Z" transform="translate(-773.733 -370.499)"/><path class="c" d="M789.417,373.1h-1.8a1.3,1.3,0,0,1-1.3-1.3h0a1.3,1.3,0,0,1,1.3-1.3h1.8a1.3,1.3,0,0,1,1.3,1.3h0A1.3,1.3,0,0,1,789.417,373.1Z" transform="translate(-772.933 -370.499)"/><path class="c" d="M776.832,377.665h-1.8a1.3,1.3,0,0,1-1.3-1.3h0a1.3,1.3,0,0,1,1.3-1.3h1.8a1.3,1.3,0,0,1,1.3,1.3h0A1.3,1.3,0,0,1,776.832,377.665Z" transform="translate(-773.733 -370.209)"/><path class="c" d="M789.223,377.694h-8.445a1.3,1.3,0,0,1-1.3-1.3h0a1.3,1.3,0,0,1,1.3-1.3h8.445a1.3,1.3,0,0,1,1.3,1.3h0A1.3,1.3,0,0,1,789.223,377.694Z" transform="translate(-773.368 -370.207)"/><path class="c" d="M776.832,386.678h-1.8a1.3,1.3,0,0,1-1.3-1.3h0a1.3,1.3,0,0,1,1.3-1.3h1.8a1.3,1.3,0,0,1,1.3,1.3h0A1.3,1.3,0,0,1,776.832,386.678Z" transform="translate(-773.733 -369.636)"/><path class="c" d="M786.648,386.678h-5.362a1.3,1.3,0,0,1-1.3-1.3h0a1.3,1.3,0,0,1,1.3-1.3h5.362a1.3,1.3,0,0,1,1.3,1.3h0A1.3,1.3,0,0,1,786.648,386.678Z" transform="translate(-773.336 -369.636)"/><path class="c" d="M795.335,386.678h-4.7a1.3,1.3,0,0,1-1.3-1.3h0a1.3,1.3,0,0,1,1.3-1.3h4.7a1.3,1.3,0,0,1,1.3,1.3h0A1.3,1.3,0,0,1,795.335,386.678Z" transform="translate(-772.742 -369.636)"/><path class="c" d="M795.161,373.1h-1.8a1.3,1.3,0,0,1-1.3-1.3h0a1.3,1.3,0,0,1,1.3-1.3h1.8a1.3,1.3,0,0,1,1.3,1.3h0A1.3,1.3,0,0,1,795.161,373.1Z" transform="translate(-772.568 -370.499)"/><path class="c" d="M783.481,382.186h-8.445a1.3,1.3,0,0,1-1.3-1.3h0a1.3,1.3,0,0,1,1.3-1.3h8.445a1.3,1.3,0,0,1,1.3,1.3h0A1.3,1.3,0,0,1,783.481,382.186Z" transform="translate(-773.733 -369.922)"/><path class="c" d="M789.417,382.186h-1.8a1.3,1.3,0,0,1-1.3-1.3h0a1.3,1.3,0,0,1,1.3-1.3h1.8a1.3,1.3,0,0,1,1.3,1.3h0A1.3,1.3,0,0,1,789.417,382.186Z" transform="translate(-772.933 -369.922)"/><path class="c" d="M795.161,382.186h-1.8a1.3,1.3,0,0,1-1.3-1.3h0a1.3,1.3,0,0,1,1.3-1.3h1.8a1.3,1.3,0,0,1,1.3,1.3h0A1.3,1.3,0,0,1,795.161,382.186Z" transform="translate(-772.568 -369.922)"/></g><g transform="translate(13.301 110.881)"><rect class="o" width="9.616" height="2.547" rx="1.13" transform="translate(0 0.014)"/><rect class="o" width="3.83" height="2.547" rx="1.13" transform="translate(11.649 0.014)"/><rect class="o" width="3.831" height="2.547" rx="1.13" transform="translate(0 4.757)"/><rect class="o" width="9.617" height="2.547" rx="1.13" transform="translate(5.316 4.786)"/><path class="o" d="M1.13,0H2.7A1.129,1.129,0,0,1,3.831,1.129v.287A1.13,1.13,0,0,1,2.7,2.547H1.13A1.13,1.13,0,0,1,0,1.417V1.13A1.13,1.13,0,0,1,1.13,0Z" transform="translate(23.071)"/><rect class="o" width="9.616" height="2.547" rx="1.13" transform="translate(28.387 0.029)"/><rect class="o" width="3.831" height="2.547" rx="1.13" transform="translate(16.965 0.014)"/><path class="o" d="M1.129,0H8.486a1.13,1.13,0,0,1,1.13,1.13v.287a1.13,1.13,0,0,1-1.13,1.13H1.129A1.129,1.129,0,0,1,0,1.417V1.129A1.129,1.129,0,0,1,1.129,0Z" transform="translate(16.965 4.786)"/><path class="o" d="M1.129,0H2.7a1.13,1.13,0,0,1,1.13,1.13v.287A1.13,1.13,0,0,1,2.7,2.547H1.129A1.129,1.129,0,0,1,0,1.417V1.129A1.129,1.129,0,0,1,1.129,0Z" transform="translate(28.614 4.786)"/><path class="o" d="M1.13,0H2.7A1.129,1.129,0,0,1,3.831,1.129v.287A1.13,1.13,0,0,1,2.7,2.547H1.13A1.13,1.13,0,0,1,0,1.417V1.13A1.13,1.13,0,0,1,1.13,0Z" transform="translate(33.931 4.786)"/></g><rect class="n" width="64.5" height="33.78" rx="1.27" transform="translate(12.936 70.189)"/><g transform="translate(18.146 75.579)"><rect class="c" width="4.132" height="24.913"/><rect class="c" width="4.132" height="24.913" transform="translate(8.564)"/><rect class="c" width="4.132" height="24.913" transform="translate(17.128)"/><rect class="c" width="4.132" height="24.913" transform="translate(25.692)"/><rect class="c" width="4.132" height="24.913" transform="translate(34.256)"/></g><g transform="translate(18.146 78.481)"><rect class="j" width="4.132" height="20.068" transform="translate(0 1.942)"/><rect class="j" width="4.132" height="13.99" transform="translate(8.564 8.02)"/><rect class="j" width="4.132" height="22.01" transform="translate(17.128)"/><rect class="j" width="4.132" height="11.005" transform="translate(25.692 11.005)"/><rect class="j" width="4.132" height="8.998" transform="translate(34.256 13.013)"/></g><g transform="translate(63.781 75.579)"><rect class="c" width="9.792" height="3.293"/><rect class="j" width="9.792" height="3.294" transform="translate(0 5.749)"/></g><g transform="translate(61.151 87.586)"><path class="o" d="M791.418,419.662H785.15a.628.628,0,0,1-.629-.629h0a.629.629,0,0,1,.629-.63h6.269a.629.629,0,0,1,.629.63h0A.628.628,0,0,1,791.418,419.662Z" transform="translate(-784.521 -418.404)"/><path class="o" d="M795.808,419.662h-2.7a.629.629,0,0,1-.629-.629h0a.629.629,0,0,1,.629-.63h2.7a.63.63,0,0,1,.63.63h0A.629.629,0,0,1,795.808,419.662Z" transform="translate(-784.015 -418.404)"/><path class="o" d="M791.164,421.942h-2.022a.629.629,0,0,1-.63-.629h0a.63.63,0,0,1,.63-.63h2.022a.629.629,0,0,1,.629.63h0A.628.628,0,0,1,791.164,421.942Z" transform="translate(-784.267 -418.259)"/><path class="o" d="M786.724,421.942H785.15a.628.628,0,0,1-.629-.629h0a.629.629,0,0,1,.629-.63h1.574a.629.629,0,0,1,.629.63h0A.628.628,0,0,1,786.724,421.942Z" transform="translate(-784.521 -418.259)"/><path class="o" d="M795.808,421.942h-2.7a.629.629,0,0,1-.629-.629h0a.629.629,0,0,1,.629-.63h2.7a.63.63,0,0,1,.63.63h0A.629.629,0,0,1,795.808,421.942Z" transform="translate(-784.015 -418.259)"/><path class="o" d="M791.418,424.1H785.15a.628.628,0,0,1-.629-.629h0a.629.629,0,0,1,.629-.63h6.269a.629.629,0,0,1,.629.63h0A.628.628,0,0,1,791.418,424.1Z" transform="translate(-784.521 -418.122)"/><path class="o" d="M795.808,424.1h-2.7a.629.629,0,0,1-.629-.629h0a.629.629,0,0,1,.629-.63h2.7a.63.63,0,0,1,.63.63h0A.629.629,0,0,1,795.808,424.1Z" transform="translate(-784.015 -418.122)"/><path class="o" d="M791.164,426.383h-2.022a.629.629,0,0,1-.63-.629h0a.628.628,0,0,1,.63-.628h2.022a.628.628,0,0,1,.629.628h0A.628.628,0,0,1,791.164,426.383Z" transform="translate(-784.267 -417.977)"/><path class="o" d="M786.724,426.383H785.15a.628.628,0,0,1-.629-.629h0a.627.627,0,0,1,.629-.628h1.574a.627.627,0,0,1,.629.628h0A.628.628,0,0,1,786.724,426.383Z" transform="translate(-784.521 -417.977)"/><path class="o" d="M795.808,426.383h-2.7a.628.628,0,0,1-.629-.629h0a.628.628,0,0,1,.629-.628h2.7a.628.628,0,0,1,.63.628h0A.629.629,0,0,1,795.808,426.383Z" transform="translate(-784.015 -417.977)"/></g><path class="j" d="M761.325,358.831H741.891a2.141,2.141,0,0,1-2.141-2.141h0a2.141,2.141,0,0,1,2.141-2.142h19.434a2.142,2.142,0,0,1,2.141,2.142h0A2.141,2.141,0,0,1,761.325,358.831Z" transform="translate(-726.215 -334.876)"/><path class="j" d="M772.974,358.831h-6.18a2.141,2.141,0,0,1-2.141-2.141h0a2.141,2.141,0,0,1,2.141-2.142h6.18a2.142,2.142,0,0,1,2.141,2.142h0A2.142,2.142,0,0,1,772.974,358.831Z" transform="translate(-724.633 -334.876)"/></g><path class="h" d="M2.667,0H177.44a2.667,2.667,0,0,1,2.667,2.667V127.634a0,0,0,0,1,0,0H0a0,0,0,0,1,0,0V2.667A2.667,2.667,0,0,1,2.667,0Z" transform="translate(98.973 173.632)"/><path class="p" d="M2.026,0H158.832a2.027,2.027,0,0,1,2.027,2.027V97.989a2.026,2.026,0,0,1-2.026,2.026H2.026A2.026,2.026,0,0,1,0,97.989V2.026A2.026,2.026,0,0,1,2.026,0Z" transform="translate(108.598 182.466)"/><path class="m" d="M429.062,400.784H641.786c3.321,6.226-2.02,13.3-10.045,13.3H439.106c-8.024,0-13.366-7.069-10.044-13.3Z" transform="translate(-346.397 -111.749)"/><path class="m" d="M531.012,296.529a1.89,1.89,0,1,0-1.891,1.891A1.891,1.891,0,0,0,531.012,296.529Z" transform="translate(-340.094 -118.495)"/><g transform="translate(192.573 191.409)"><path class="c" d="M1.333,0H68.064A1.334,1.334,0,0,1,69.4,1.334V27.267A1.333,1.333,0,0,1,68.064,28.6H1.333A1.333,1.333,0,0,1,0,27.267V1.333A1.333,1.333,0,0,1,1.333,0Z"/><path class="f" d="M556.907,320.778l-3.291.554a6.97,6.97,0,0,1,.177,1.545,6.829,6.829,0,0,1-4.233,6.319l.674,3.311a10.224,10.224,0,0,0,5.552-4.595,10.091,10.091,0,0,0,1.34-5.035A10.328,10.328,0,0,0,556.907,320.778Zm-20.132,2.1a10.153,10.153,0,0,0,5.014,8.757l1.121-3.247a6.829,6.829,0,0,1,.617-11.431,6.72,6.72,0,0,1,2.893-.9v-3.341a10.2,10.2,0,0,0-9.644,10.161Z" transform="translate(-532.06 -308.755)"/><path class="g" d="M549.935,331.57a10.044,10.044,0,0,1-3.283.546,10.165,10.165,0,0,1-2.135-.225,10.059,10.059,0,0,1-3.028-1.192l1.121-3.247a6.731,6.731,0,0,0,2.112,1.056,6.922,6.922,0,0,0,1.929.277,6.643,6.643,0,0,0,2.609-.524Z" transform="translate(-531.761 -307.819)"/><path class="g" d="M556.331,320.779l-3.291.554a6.862,6.862,0,0,0-6.665-5.3c-.178,0-.362.006-.532.021v-3.341c.177-.006.354-.014.532-.014a10.035,10.035,0,0,1,4.077.857A10.186,10.186,0,0,1,556.331,320.779Z" transform="translate(-531.484 -308.756)"/><rect class="p" width="12.645" height="3.309" transform="translate(34.699 10.235) rotate(90)"/><rect class="o" width="9.46" height="3.309" transform="translate(40.253 13.42) rotate(90)"/><rect class="p" width="5.602" height="3.309" transform="translate(45.807 17.277) rotate(90)"/><rect class="p" width="15.848" height="3.309" transform="translate(51.362 7.032) rotate(90)"/><rect class="o" width="7.924" height="3.309" transform="translate(56.916 14.956) rotate(90)"/></g><g transform="translate(116.085 191.409)"><path class="c" d="M1.333,0H68.064A1.333,1.333,0,0,1,69.4,1.333V27.267A1.333,1.333,0,0,1,68.064,28.6H1.334A1.334,1.334,0,0,1,0,27.266V1.333A1.333,1.333,0,0,1,1.333,0Z"/><g transform="translate(11.068 3.444)"><rect class="p" width="18.979" height="7.16" rx="1.445" transform="translate(0 13.693)"/><rect class="p" width="18.979" height="7.16" rx="1.445" transform="translate(28.048 13.693)"/><rect class="p" width="18.979" height="7.16" rx="1.445" transform="translate(14.174)"/><path class="p" d="M507.065,327.42H506.1V316.106H498.9v-.962h8.168Z" transform="translate(-469.047 -312.045)"/><path class="p" d="M480.263,327.42H479.3V315.144h8.168v.962h-7.207Z" transform="translate(-470.292 -312.045)"/></g></g><g transform="translate(211.186 227.131)"><rect class="c" width="50.783" height="35.112" rx="1.333"/><g transform="translate(5.925 6.895)"><path class="o" d="M566.7,351.121H556.442a1.029,1.029,0,0,1-1.028-1.03h0a1.029,1.029,0,0,1,1.028-1.028H566.7a1.029,1.029,0,0,1,1.028,1.028h0A1.029,1.029,0,0,1,566.7,351.121Z" transform="translate(-555.414 -349.063)"/><path class="o" d="M573.878,351.121h-4.408a1.029,1.029,0,0,1-1.029-1.03h0a1.029,1.029,0,0,1,1.029-1.028h4.408a1.029,1.029,0,0,1,1.029,1.028h0A1.029,1.029,0,0,1,573.878,351.121Z" transform="translate(-554.586 -349.063)"/><path class="o" d="M566.282,354.85h-3.308a1.028,1.028,0,0,1-1.029-1.028h0a1.028,1.028,0,0,1,1.029-1.027h3.308a1.028,1.028,0,0,1,1.028,1.027h0A1.028,1.028,0,0,1,566.282,354.85Z" transform="translate(-554.999 -348.826)"/><path class="o" d="M559.018,354.85h-2.576a1.028,1.028,0,0,1-1.028-1.028h0a1.028,1.028,0,0,1,1.028-1.027h2.576a1.028,1.028,0,0,1,1.029,1.027h0A1.028,1.028,0,0,1,559.018,354.85Z" transform="translate(-555.414 -348.826)"/><path class="o" d="M573.878,354.85h-4.408a1.028,1.028,0,0,1-1.029-1.028h0a1.028,1.028,0,0,1,1.029-1.027h4.408a1.028,1.028,0,0,1,1.029,1.027h0A1.028,1.028,0,0,1,573.878,354.85Z" transform="translate(-554.586 -348.826)"/><path class="o" d="M566.7,358.385H556.442a1.028,1.028,0,0,1-1.028-1.028h0a1.029,1.029,0,0,1,1.028-1.029H566.7a1.029,1.029,0,0,1,1.028,1.029h0A1.028,1.028,0,0,1,566.7,358.385Z" transform="translate(-555.414 -348.601)"/><path class="o" d="M573.878,358.385h-4.408a1.028,1.028,0,0,1-1.029-1.028h0a1.029,1.029,0,0,1,1.029-1.029h4.408a1.029,1.029,0,0,1,1.029,1.029h0A1.028,1.028,0,0,1,573.878,358.385Z" transform="translate(-554.586 -348.601)"/><path class="o" d="M566.282,362.116h-3.308a1.029,1.029,0,0,1-1.029-1.028h0a1.03,1.03,0,0,1,1.029-1.03h3.308a1.029,1.029,0,0,1,1.028,1.03h0A1.029,1.029,0,0,1,566.282,362.116Z" transform="translate(-554.999 -348.364)"/><path class="o" d="M559.018,362.116h-2.576a1.029,1.029,0,0,1-1.028-1.028h0a1.029,1.029,0,0,1,1.028-1.03h2.576a1.029,1.029,0,0,1,1.029,1.03h0A1.029,1.029,0,0,1,559.018,362.116Z" transform="translate(-555.414 -348.364)"/><path class="o" d="M573.878,362.116h-4.408a1.029,1.029,0,0,1-1.029-1.028h0a1.029,1.029,0,0,1,1.029-1.03h4.408a1.029,1.029,0,0,1,1.029,1.03h0A1.029,1.029,0,0,1,573.878,362.116Z" transform="translate(-554.586 -348.364)"/></g><path class="j" d="M2.433,0H19.568A2.433,2.433,0,0,1,22,2.433V3.2a2.434,2.434,0,0,1-2.434,2.434H2.433A2.433,2.433,0,0,1,0,3.2V2.433A2.433,2.433,0,0,1,2.433,0Z" transform="translate(6.452 25.682)"/></g><g transform="translate(116.05 227.131)"><path class="c" d="M1.334,0H88.661a1.334,1.334,0,0,1,1.334,1.334V33.779a1.333,1.333,0,0,1-1.333,1.333H1.334A1.334,1.334,0,0,1,0,33.778V1.334A1.334,1.334,0,0,1,1.334,0Z"/><path class="p" d="M477.22,352.31a6.163,6.163,0,1,0-6.163,6.163A6.163,6.163,0,0,0,477.22,352.31Z" transform="translate(-460.106 -342.353)"/><path class="o" d="M495.324,365.99H466.37a1.477,1.477,0,0,1-1.477-1.477h0a1.477,1.477,0,0,1,1.477-1.476h28.954a1.477,1.477,0,0,1,1.477,1.476h0A1.477,1.477,0,0,1,495.324,365.99Z" transform="translate(-460.106 -341.28)"/><path class="o" d="M479.37,371.1h-13a1.477,1.477,0,0,1-1.477-1.477h0a1.477,1.477,0,0,1,1.477-1.477h13a1.477,1.477,0,0,1,1.477,1.477h0A1.478,1.478,0,0,1,479.37,371.1Z" transform="translate(-460.106 -340.955)"/><path class="o" d="M512.483,365.99h-13a1.477,1.477,0,0,1-1.477-1.477h0a1.477,1.477,0,0,1,1.477-1.476h13a1.477,1.477,0,0,1,1.477,1.476h0A1.477,1.477,0,0,1,512.483,365.99Z" transform="translate(-458.002 -341.28)"/><path class="o" d="M503.789,371.1H484.482a1.477,1.477,0,0,1-1.477-1.477h0a1.477,1.477,0,0,1,1.477-1.477h19.307a1.477,1.477,0,0,1,1.477,1.477h0A1.477,1.477,0,0,1,503.789,371.1Z" transform="translate(-458.955 -340.955)"/><path class="e" d="M479.894,358.474h33.563s-2.6-12.328-4.019-12.328c-.953,0-5.436,6.618-6.735,6.737s-2.245-2.541-3.192-2.6c-.635-.039-3.642,4.608-4.254,4.726s-3.546-7.327-4.726-6.973-3.074,5.437-3.428,5.791-2.009-3.073-3.191-2.363S479.894,358.474,479.894,358.474Z" transform="translate(-459.153 -342.353)"/><path class="n" d="M542.674,351.721v18.129a3.115,3.115,0,0,1-3.114,3.1H523.048a3.114,3.114,0,0,1-3.113-3.1V351.721a3.107,3.107,0,0,1,3.113-3.1H539.56A3.108,3.108,0,0,1,542.674,351.721Z" transform="translate(-456.608 -342.196)"/><path class="j" d="M542.674,355.531v13.88a3.115,3.115,0,0,1-3.114,3.1H523.048a3.114,3.114,0,0,1-3.113-3.1v-2.974s2.43-8.707,4.569-7.111,3.646,5.655,5.083,5.635,2.571-3.426,4.078-3.164,2.722,3.848,4.188,2.8S540.373,355.912,542.674,355.531Z" transform="translate(-456.608 -341.757)"/></g><rect class="c" width="145.919" height="10.995" rx="1.33" transform="translate(116.05 267.615)"/><g transform="translate(0 177.892)"><path class="q" d="M391.675,409.793c.272.153,7.451,1.638,7.852,3.689.331,1.694-5.139,1.156-8.306.883-1.7-.147-2.2-1.465-2.191-3.172,0-.749.4-.767.785-1.242C390.654,408.9,391.059,409.45,391.675,409.793Z" transform="translate(-348.877 -289.097)"/><path class="r" d="M392.163,405.314l-.457,4.735s4.533,1.867,3.372,2.348c-1.734.72-6.018-.948-6.018-.948l-.519-5.428Z" transform="translate(-348.908 -289.353)"/><path class="q" d="M355.034,408.979c.15.274,5.429,5.36,4.673,7.31-.623,1.608-4.963-1.764-7.5-3.684-1.359-1.033-1.078-2.414-.161-3.852.4-.631.751-.434,1.326-.633C354.645,407.68,354.7,408.359,355.034,408.979Z" transform="translate(-351.276 -289.184)"/><path class="r" d="M357.9,405.462l-2.914,3.762s2.839,4,1.6,3.785C354.737,412.693,352,409,352,409l2.457-4.869Z" transform="translate(-351.23 -289.429)"/><path class="s" d="M422.163,330.112a6.055,6.055,0,0,0-1.522,1.731,3.385,3.385,0,0,1-2.049,1.666,16.271,16.271,0,0,1-2.822-.093l-.819,2.146s4.822,2.019,6.158,1.426c1.218-.54,1.925-2.835,2.081-3.892a14.255,14.255,0,0,1,1.619-1.929c.4-.3.332-.669-.006-.77q.482-.461,1.1-.961C426.716,328.778,423.637,328.758,422.163,330.112Z" transform="translate(-347.23 -294.203)"/><path class="t" d="M388.653,318.369c.942-2.264,6.228-.473,9.417,4.794s4.991,8.038,6.238,8.94,12.477,1.041,13.586,1.181.554,4.435.554,4.435-13.169,2.634-16.5,1.248S385.187,326.686,388.653,318.369Z" transform="translate(-348.937 -294.94)"/><path class="u" d="M379.77,348.879s13.586,22.042,14.279,26.061,1.525,32.3.692,35.905h-6.1s-1.663-25.785-3.881-29.943-10.259-12.338-12.2-15.666S379.77,348.879,379.77,348.879Z" transform="translate(-349.941 -292.94)"/><path class="v" d="M382.408,349.511s-9.981,33.27-12.2,37.014-12.477,23.982-12.477,23.982l-5.128-1.248s3.465-18.3,7.209-28.557,3.327-35.073,6.377-36.875S381.576,345.075,382.408,349.511Z" transform="translate(-351.192 -293.294)"/><path class="r" d="M400.767,300.328a18.013,18.013,0,0,1,.7,4.5c0,1.121,1.483,2.1.47,2.819-.662.466.635,5.091-.821,5.576s-4.645.624-6.308-.693-6.723-6.654-4.367-9.7S400.767,300.328,400.767,300.328Z" transform="translate(-348.826 -296.028)"/><path class="e" d="M384.583,314.468s-5.96,9.843-7.763,13.586-14.833,19.962-14.833,19.962,16.5,6.655,23.429,7.072c0,0,.97-9.843,2.773-13.587s8.595-10.536,8.04-13.723.415-8.734-1.664-11.091S384.583,314.468,384.583,314.468Z" transform="translate(-350.595 -295.127)"/><path class="r" d="M397.622,311.227s-4.724,4.188-4.574,5.684c.525,5.239-7.2-1.748-7.2-1.748S395.284,309.626,397.622,311.227Z" transform="translate(-349.079 -295.351)"/><path class="q" d="M377.828,312.181c5.325-1.692,7.167-3.419,7.427-8.27.286-5.335,7.625-9.289,13.517-6.932s5.822,3.882,5.268,4.783-4.089,1.664-6.308,1.733-.637,2.7-.637,2.7-1.876-1.234-2.375.288,2.18,1.661,2.18,1.661-.5,4.367-1.74,5.059-3.875-.207-5.538,2.634-1.106,8.442-4.445,9.069c-4.706.883-3.8,5.743-8.023,6.177-6.734.69-9.411-5.894-7.832-11.289C370.482,315.829,373.6,313.524,377.828,312.181Z" transform="translate(-350.157 -296.282)"/><path class="r" d="M421.106,331.7a6.022,6.022,0,0,0-1.053,2.049,3.385,3.385,0,0,1-1.58,2.118,16.393,16.393,0,0,1-2.759.6l-.27,2.281s5.17.779,6.321-.122c1.05-.821,1.174-3.219,1.068-4.281a14.189,14.189,0,0,1,1.1-2.269c.317-.392.157-.729-.194-.745q.353-.565.832-1.2C425.195,329.29,422.2,330.023,421.106,331.7Z" transform="translate(-347.198 -294.154)"/><path class="w" d="M388.1,320.705c.943-2.264,6.229-.472,9.417,4.8s4.991,8.038,6.239,8.94,12.477,1.041,13.586,1.178.554,4.436.554,4.436-13.17,2.634-16.5,1.249S384.634,329.023,388.1,320.705Z" transform="translate(-348.972 -294.791)"/></g><g transform="translate(320.258 85.649)"><path class="x" d="M698.9,305.483c-.085-.043-1.638-.181-2.776-.286-.638-.053-1.149-.1-1.212-.107-.308-.043-.883-.116-1.563-.254a13.209,13.209,0,0,1-1.383-.383,5.483,5.483,0,0,1,1.181-5.755c.638.6,1.319,1.149,1.319,1.149a7.055,7.055,0,0,1-.128-2.9,1.311,1.311,0,0,1,.744-.639c.447-.181.893-.128.776.308-.532,2.117.638,2.83.5,4.712,0,.107.308.223.745.34.968.277,2.595.542,2.818.628C701.553,302.857,700.4,306.143,698.9,305.483Z" transform="translate(-649.906 -204.044)"/><path class="e" d="M664.247,332.034v-2.127a30.611,30.611,0,0,0,30.577-30.577V211.658h2.127V299.33A32.741,32.741,0,0,1,664.247,332.034Z" transform="translate(-651.645 -209.417)"/><g transform="translate(0 117.031)"><g transform="translate(0 3.03)"><path class="b" d="M653.482,328.165a.532.532,0,0,1-.073-1.058l4.99-.693a.532.532,0,1,1,.147,1.053l-4.99.693A.565.565,0,0,1,653.482,328.165Z" transform="translate(-652.363 -322.186)"/><path class="b" d="M652.93,324.195a.532.532,0,0,1-.072-1.058l4.989-.693a.532.532,0,1,1,.147,1.053l-4.99.694C652.979,324.193,652.954,324.195,652.93,324.195Z" transform="translate(-652.398 -322.438)"/></g><path class="b" d="M669.671,323.341h0a2.034,2.034,0,0,1-1.735,2.3l-3.231.449-.559-4.03,3.23-.449A2.035,2.035,0,0,1,669.671,323.341Z" transform="translate(-651.652 -319.462)"/><path class="b" d="M668.652,323.684h0a4.746,4.746,0,0,1-4.048,5.355l-7.562,1.051-1.307-9.4,7.562-1.052A4.748,4.748,0,0,1,668.652,323.684Z" transform="translate(-652.186 -319.589)"/></g><path class="b" d="M697.162,212.4a2.851,2.851,0,1,0-2.851,2.852A2.852,2.852,0,0,0,697.162,212.4Z" transform="translate(-649.916 -209.551)"/><path class="r" d="M694.814,300.3c-.382.893-1.393-.065-1.562-.235.181.213,1.424,1.68.786,1.946s-1.819-.319-1.946-.382c.191.128,1.946,1.318,1.212,1.553a1.629,1.629,0,0,1-1.436-.373,5.973,5.973,0,0,1,.809,1.191c.095.235.085.394-.15.384-.722-.043-2.659-1.829-2.488-2.511a3.637,3.637,0,0,1,.266-.541.926.926,0,0,1,.266-1.51c-.235-1.244,1.2-1.4,1.2-1.4-.2-.925.7-1.117,1.053-1.149.032,0,.053-.011.074,0a3.167,3.167,0,0,1,.254.235l.021.02a6.164,6.164,0,0,0,.65.681.171.171,0,0,1,.031.044C694.453,298.916,695.049,299.777,694.814,300.3Z" transform="translate(-650.007 -203.977)"/></g><g transform="translate(273.799 49.597)"><rect class="e" width="2.127" height="60.74" transform="translate(3.691 2.851)"/><g transform="translate(0 60.101)"><g transform="translate(2.193 11.798)"><path class="b" d="M615.326,249.358a.532.532,0,0,1-.532-.531l-.01-5.038a.532.532,0,0,1,.531-.533h0a.532.532,0,0,1,.532.531l.01,5.038a.534.534,0,0,1-.532.533Z" transform="translate(-610.522 -243.256)"/><path class="b" d="M611.318,249.366a.532.532,0,0,1-.532-.531l-.01-5.038a.532.532,0,0,1,.531-.533h0a.533.533,0,0,1,.533.531l.01,5.038a.531.531,0,0,1-.531.533Z" transform="translate(-610.777 -243.255)"/></g><path class="b" d="M613.288,232.163h0a2.035,2.035,0,0,1,2.039,2.03l.005,3.261-4.068.009-.006-3.261A2.034,2.034,0,0,1,613.288,232.163Z" transform="translate(-608.553 -232.163)"/><path class="b" d="M613.453,233.637h0a4.747,4.747,0,0,1,4.756,4.738l.014,7.634-9.493.019-.015-7.635A4.748,4.748,0,0,1,613.453,233.637Z" transform="translate(-608.715 -232.069)"/></g><path class="b" d="M616.194,178.5a2.851,2.851,0,1,0-2.851,2.851A2.852,2.852,0,0,0,616.194,178.5Z" transform="translate(-608.602 -175.653)"/></g><g transform="translate(365.159 141.444)"><path class="q" d="M726.9,400.578a93.622,93.622,0,0,1-16.213.352c.165-1.232.531-2.76,1.385-3.089,1.475-.574,4.44.046,6.945-.7s3.224-1.9,3.224-1.9l3.33-.443A54.512,54.512,0,0,1,726.9,400.578Z" transform="translate(-693.594 -253.574)"/><path class="y" d="M726.909,400.232c.1.748.1,1.307-.073,1.438-.562.441-12.085.541-15.38.562a.83.83,0,0,1-.835-.888c.017-.229.04-.486.076-.759A93.626,93.626,0,0,0,726.909,400.232Z" transform="translate(-693.599 -253.228)"/><path class="r" d="M720.68,390.536l.489,5.34a1.894,1.894,0,0,0,1.808,1.72h0a1.9,1.9,0,0,0,1.974-1.861l.088-5.205Z" transform="translate(-692.96 -253.845)"/><path class="q" d="M710.393,387.572a93.588,93.588,0,0,1-15.725,3.966c-.114-1.238-.1-2.809.659-3.319,1.31-.89,4.337-.949,6.612-2.233s2.717-2.576,2.717-2.576l3.147-1.175A54.53,54.53,0,0,1,710.393,387.572Z" transform="translate(-694.616 -254.372)"/><path class="y" d="M710.39,387.253c.262.707.387,1.252.25,1.418-.45.555-11.66,3.229-14.865,3.985a.833.833,0,0,1-1.014-.68c-.034-.227-.069-.483-.1-.757A93.6,93.6,0,0,0,710.39,387.253Z" transform="translate(-694.613 -254.053)"/><path class="r" d="M702.159,379.036l1.672,5.1a1.892,1.892,0,0,0,2.146,1.272h0a1.894,1.894,0,0,0,1.508-2.255l-1.077-5.093Z" transform="translate(-694.137 -254.638)"/><path class="d" d="M761.932,329s3.341,7.181-4.343,14.53S734.3,363.5,733.263,366.5s-4.653,30.763-4.653,30.763a68.466,68.466,0,0,1-8.419,0c-2.047-.334.435-29.779,1.059-33.778S738.6,338.676,738.6,338.676a252.41,252.41,0,0,0-24.959,19.684,5.5,5.5,0,0,0-1.5,2.357c-2.291,7.016-2.8,16.681-3.474,23.029-2.461,1.812-7.685.873-7.685.873s-1.841-26.413,2.987-33.358c10.1-14.536,32.66-26.943,32.66-26.943Z" transform="translate(-694.233 -258.053)"/><path class="w" d="M735.621,287.947c3.615-2.928,11.312-.228,8.2,6.845s-21.241,13.153-24.6,14.3-21.164-2.121-23.875-3.1l1.239-4.49,20.582,1.46S731.708,291.116,735.621,287.947Z" transform="translate(-694.57 -260.438)"/><path class="e" d="M742.259,282.068s8.918,2.042,13.783,17.459,5.656,32.448,5.656,32.448-16.78,3.181-30.231-3.091c0,0-.726-27.577.979-39.286C733.193,284.464,742.259,282.068,742.259,282.068Z" transform="translate(-692.284 -260.738)"/><path class="r" d="M728.217,267.264s-1.727,3.393-1.46,6.047c.215,2.154-1.922,3.1-1.115,3.435a4.316,4.316,0,0,1,2.511,2.732c.13.672.322,4.153,4.3,2.517,2.79-1.148,4.8,1.386,3.632,4.188,0,0,4.629,2.676,7.475-2.69,0,0-1.483-8.279-.666-14.42C738.47,265.377,733.83,262.2,728.217,267.264Z" transform="translate(-692.656 -261.845)"/><path class="q" d="M723.419,269.341s.549,1.318,8.625,1.8c3.476.206,3.729,2.9,3.326,3.86l.876.366s1.356-1.77,2.189-.562-.6,2.666-2.344,2.04a12.7,12.7,0,0,0,1.116,2.533c.424.753.925,1.457,1.786,1.538a6.5,6.5,0,0,0,2.512-.26c2.126-.656,1.959-2.116,2.851-5.876,1.349-5.685.032-8.967-5.471-11.061,0,0,.4-.551,2.192-.074,0,0-2.026-1.581-3.654-.366a3.251,3.251,0,0,0-2.911-1.227s1.144.7,1.382,1.275a7.583,7.583,0,0,0-7.911,1.04C726.111,265.758,726.509,270.152,723.419,269.341Z" transform="translate(-692.786 -262.012)"/><path class="r" d="M711,317.431l.058-3.732s-3.617.412-4.849.37a5.427,5.427,0,0,1-2.1-1.6c-1.18-1.751-2.068-3.094-3.849-3.486a4.244,4.244,0,0,0-3.754,1.264c-.481.395-1.3,1.467-1.141,1.679s.771.162.93.118c.541-.151.8-.7,1.322-.918a7.093,7.093,0,0,1,1.555-.207,9.758,9.758,0,0,0-1.6.93,4.378,4.378,0,0,0-1.276,1.6,1.657,1.657,0,0,0-.131,1.352c.071.157.486-.111.651-.505a4.43,4.43,0,0,1,.812-1.229,2.412,2.412,0,0,0-.337,1.15c0,.546.432,1.7.6.8a2.757,2.757,0,0,1,.656-1.5,4.451,4.451,0,0,1,1.071-.534c-.428.4-1.522,1.9-.755,2.321.16.087.317-.322.537-.608.237-.31,1.191-1.109,2.4.5,1.974,2.627,3.724,1.973,3.724,1.973Z" transform="translate(-694.57 -259.033)"/><path class="w" d="M740.507,291.837c2.781-3.729,10.906-3.008,9.633,4.615s-13.66,18.369-16.634,20.309-24.719,2.773-27.587,2.487l.093-4.658,23.4-3.315S737.495,295.873,740.507,291.837Z" transform="translate(-693.898 -260.256)"/></g><g transform="translate(217.136 203.95)"><path class="x" d="M644.9,344.026s.633-.916.039-1.172-4.691,2.72-5.616,3.569a48.85,48.85,0,0,0-3.581,4.913l-1.218,1.316.013.015c-1.526,1.619-3.907,3.9-5.894,4.739-1.217.512-13.565-3.959-13.565-3.959l-2.211,5.858s13.56,3.705,17.068,3.3c1.745-.2,6.912-6.97,8.369-8.924a5.513,5.513,0,0,0,3.811-1.977,17.016,17.016,0,0,0,2.291-2.7c.184-.365.529-1.327.352-1.357a1.571,1.571,0,0,0-1.114.864c-.212.44-1.764,1.074-1.685.788.554-1.985,3.109-3.592,3.286-4.02S644.9,344.026,644.9,344.026Z" transform="translate(-551.788 -319.382)"/><path class="d" d="M609.4,386.971s7.777,18.416,10.645,25.548,8.154,41.36,8.154,41.36l-8.42,2.448L610.7,418.182S580.03,400.9,583.894,386.759,609.4,386.971,609.4,386.971Z" transform="translate(-553.65 -316.987)"/><path class="z" d="M610.647,387s-7.168,27.352-9.294,33.3-32.147,29.126-32.147,29.126l-5.266-5.206s21.136-25.876,23.14-28.027-5.609-21.158-1.4-31.988S610.647,387,610.647,387Z" transform="translate(-554.897 -317.019)"/><path class="e" d="M583.233,364.68a40.121,40.121,0,0,1,4.658-15.08,13.573,13.573,0,0,1,1.558-2.361c2.16-2.863,4.716-4.853,7.551-5.087a8.634,8.634,0,0,1,7.335,2.429h0c8.911,5.634,14.7,7.516,14.7,7.516l-3.814,9.087c-2.472-1.294-4.612-2.564-6.429-3.735.173,3.1.158,6.973.127,9.318-.021,1.535-.005,3.06.05,4.6.181,5.063.562,16.2.49,18.051,0,0-10.912-4.707-26.077.709A128.413,128.413,0,0,1,583.233,364.68Z" transform="translate(-553.708 -319.428)"/><g transform="translate(0 129.844)"><path class="q" d="M556.218,450.045A93.653,93.653,0,0,0,568.8,460.271a3.526,3.526,0,0,0-.054-3.318c-.812-1.359-2.678-2.658-4.2-4.782s-1.377-3.483-1.377-3.483l-2.357-2.393A54.377,54.377,0,0,0,556.218,450.045Z" transform="translate(-555.388 -442.651)"/><path class="y" d="M556.268,449.821c-.535.531-.88.971-.824,1.179.173.693,9.21,7.844,11.8,9.881a.829.829,0,0,0,1.2-.188c.128-.19.267-.409.407-.647A93.654,93.654,0,0,1,556.268,449.821Z" transform="translate(-555.438 -442.427)"/><path class="r" d="M560.586,449.718a1.883,1.883,0,0,1-.573-.66,1.907,1.907,0,0,1,.155-2.024l.892-1.186,2.236-2.979,3.438,2.679-2.942,3.144-.723.774A1.9,1.9,0,0,1,560.586,449.718Z" transform="translate(-555.161 -442.869)"/></g><path class="r" d="M597.2,343.337a3.943,3.943,0,0,0,1.231,3.036,2.724,2.724,0,0,0,1.533.764,1.876,1.876,0,0,0,1.632-.72,3.394,3.394,0,0,0,.8-2.474l-.049-.75-.085-1.3,0,0-.085-1.308-4.367-3.761Z" transform="translate(-552.784 -319.764)"/><path class="aa" d="M569.869,445.485c-1.182-1.235-4.2-4.274-5.517-5.594a.839.839,0,0,0-1.22.033l-1.779,1.989a.841.841,0,0,0,.007,1.127L566.831,449a.84.84,0,0,0,1.286-.059l1.811-2.367A.838.838,0,0,0,569.869,445.485Z" transform="translate(-555.075 -313.23)"/><g transform="translate(69.177 139.25)"><path class="q" d="M623.535,463.193a93.573,93.573,0,0,0,14.891-6.425,3.526,3.526,0,0,0-2.966-1.487c-1.582.091-3.6,1.143-6.184,1.509s-3.723-.391-3.723-.391l-3.213.982A54.565,54.565,0,0,0,623.535,463.193Z" transform="translate(-620.363 -451.487)"/><path class="y" d="M623.464,463.1c.223.72.455,1.229.665,1.276.695.168,11.216-4.534,14.221-5.887a.829.829,0,0,0,.389-1.155c-.109-.2-.239-.425-.384-.659A93.575,93.575,0,0,1,623.464,463.1Z" transform="translate(-620.291 -451.397)"/><path class="r" d="M625.3,459.094a1.886,1.886,0,0,1-.851.2,1.908,1.908,0,0,1-1.723-1.073l-.638-1.341-1.606-3.361,3.967-1.808,1.425,4.063.351,1A1.9,1.9,0,0,1,625.3,459.094Z" transform="translate(-620.481 -451.713)"/></g><path class="aa" d="M627.6,449.185l.77,2.365a.826.826,0,0,1-.5,1.028l-9.741,3.648a.826.826,0,0,1-1.108-.666l-.407-3.1a.826.826,0,0,1,.573-.9l9.38-2.915A.825.825,0,0,1,627.6,449.185Z" transform="translate(-551.55 -312.66)"/><path class="r" d="M604.018,324.879a8.054,8.054,0,0,1,2.682,3.806c.65,2.068,3.125,3.03,2.447,3.985-1.161,1.64-.351,1.149-1.162,3.278s-3.025,9.953-11.694,3.336S595.721,321.431,604.018,324.879Z" transform="translate(-553.078 -320.564)"/><path class="q" d="M594.625,331.725c-.078.664,2.138,3.151,1.889,3.7s-2.274-1.125-2.739-.169.156,1.422,2.784,4.248c0,0-6-3.269-7.584-6.593s-.289-9.15,5.1-11.719l.472.925s7.779-4.072,12.958,2.012a2.362,2.362,0,0,0-2.44,1.245c-.683,1.307-5.751,3.58-8.2,4.068a2.725,2.725,0,0,0-2.228,2.241Z" transform="translate(-553.346 -320.784)"/><path class="r" d="M631.058,347.189a17.341,17.341,0,0,0-3.05.852s.925-.793,1.265-1,1.648-1.055,1.568-1.3-1.607.177-1.607.177.385-.624-.686-.505-3.225,2.011-3.777,2.966-2.257,6.531-2.257,6.531c-1.082,1.246-4.483,5.441-7.139,6.557-1.217.513-13.525-4.443-13.525-4.443l-2.211,5.857s13.332,5.37,16.838,4.967c1.746-.2,8.346-10.974,8.348-11.023l-.027-.016a3.143,3.143,0,0,1,.367-.191,7.831,7.831,0,0,0,2.957-3.232c.286-.849.012-3.358.068-3.846s1.854-1.282,2.273-1.542S631.255,347.333,631.058,347.189Z" transform="translate(-552.629 -319.219)"/><path class="w" d="M607.373,357.128a75.38,75.38,0,0,0-2.406-9.982,36.728,36.728,0,0,1,3.51,10.679Z" transform="translate(-552.29 -319.108)"/><path class="w" d="M592.75,351c1.719-3.147,3.86-3.21,6.6-2.43,3.238.922,6.01,4.855,6.01,4.855a40.976,40.976,0,0,0,5.041,4.786l-5.961,7.93C595.325,361.742,589.273,357.373,592.75,351Z" transform="translate(-553.13 -319.044)"/><path class="r" d="M626.47,353.171a9.9,9.9,0,0,1,.626-2.465c.4-.731,1.1-1.345,1.146-1.827.035-.331-.814,0-1.4.6a13.021,13.021,0,0,0-1.214,1.436Z" transform="translate(-550.977 -319.006)"/></g><g transform="translate(467.129 64.815)"><rect class="e" width="2.127" height="147.107" transform="translate(2.421 2.852)"/><path class="b" d="M796.791,192.813a2.851,2.851,0,1,0-2.851,2.851A2.851,2.851,0,0,0,796.791,192.813Z" transform="translate(-790.455 -189.962)"/><path class="ab" d="M795.406,331.148h-3.089v-1.587a1.545,1.545,0,0,1,1.544-1.544h0a1.545,1.545,0,0,1,1.544,1.544Z" transform="translate(-790.377 -181.189)"/><path class="b" d="M797.461,336.473h-6.968v-3.579a3.484,3.484,0,0,1,3.484-3.483h0a3.483,3.483,0,0,1,3.484,3.483Z" transform="translate(-790.493 -181.1)"/></g><g transform="translate(169.285 289.226)"><g transform="translate(14.789)"><path class="e" d="M535.553,445.086l-.218.093q-1.457-.775-2.864-1.567c-.257-.143-.513-.286-.763-.434-.13-.071-.255-.141-.381-.215q-3.106-1.793-5.945-3.678c-.246-.165-.491-.328-.736-.495-.1-.069-.2-.134-.3-.2a62.413,62.413,0,0,1,2.263-15.653l6.615,7.211-5.246-10.907a30.02,30.02,0,0,1,6.89-9.878l5.209,6.07-2.315-8.5a40.417,40.417,0,0,1,12.126-5.971s4.108,7.06,2.606,18.364l-6.711,1.442,6.359.747a46.1,46.1,0,0,1-3.881,11.495A24.96,24.96,0,0,1,535.553,445.086Z" transform="translate(-524.351 -400.964)"/><path class="c" d="M546.136,411.1c-.084.216-5.994,15.757-14.1,31.908-.257-.143-.513-.286-.763-.434,8.073-16.089,13.959-31.568,14.041-31.786a.442.442,0,0,1,.826.313Z" transform="translate(-523.911 -400.358)"/></g><g transform="translate(0 11.638)"><path class="e" d="M530.67,444.66h0c-.828.253-1.652.5-2.468.722q-.335.1-.667.184c-.112.033-.221.063-.332.091q-2.731.731-5.364,1.264c-.228.046-.456.091-.685.135-.094.017-.186.036-.279.051a49.215,49.215,0,0,1-7.462-9.985l7.705.332-9-3.155a23.661,23.661,0,0,1-1.663-9.345l6.284.481-6.024-3.446a31.839,31.839,0,0,1,3.43-10.082s6.224,1.645,11.686,8.782l-2.937,4.542,3.961-3.127a36.265,36.265,0,0,1,4.219,8.5A19.979,19.979,0,0,1,530.67,444.66Z" transform="translate(-510.446 -411.907)"/><path class="c" d="M517.854,419.283c.073.168,5.439,12.122,9.92,25.643q-.335.1-.667.184c-4.466-13.467-9.811-25.373-9.888-25.54a.348.348,0,0,1,.635-.287Z" transform="translate(-510.018 -411.451)"/></g><g transform="translate(0.224 40.935)"><path class="b" d="M543.766,461.3h-26.6l-2.79-19.821h32.183Z" transform="translate(-510.421 -439.324)"/><path class="ac" d="M548.592,443.758H512.81a2.153,2.153,0,0,1-2.153-2.154h0a2.152,2.152,0,0,1,2.153-2.152h35.782a2.153,2.153,0,0,1,2.153,2.152h0A2.154,2.154,0,0,1,548.592,443.758Z" transform="translate(-510.657 -439.453)"/></g></g></g></g></svg>