<svg id="Layer_1" data-name="Layer 1" xmlns="http://www.w3.org/2000/svg" xmlns:xlink="http://www.w3.org/1999/xlink" viewBox="0 0 1730.53 524.49"> <defs>
        <linearGradient id="prefix__a" x1="94.886%" x2="23.086%" y1="11.719%" y2="91.284%">
            <stop offset="0%" stop-color="#336C8F"/>
            <stop offset="100%" stop-color="#173A56"/>
        </linearGradient>
    </defs>
    <path fill="url(#prefix__a)" fill-rule="evenodd" d="M95.796 3177.532c-12.911 19.39-28.935 38.016-46.678 55.135-.804.795-1.645 1.598-2.482 2.393-2.527 2.397-5.135 4.798-7.742 7.107-4.496 4.125-9.126 8.116-13.837 11.942-2.481 2.103-5.042 4.168-7.57 6.182-29.351 23.217-60.725 43.528-91.64 58.83-9.586 4.799-19.174 9.084-28.637 12.785-49.379 19.558-95.342 24.142-127.053 4.752-10.097-6.14-18.719-14.719-25.574-26.026-1.094-1.813-2.187-3.621-3.28-5.425-10.132-16.951-19.81-33.978-28.304-51.098-2.02-3.995-3.908-7.943-5.758-11.942-30.827-66.233-42.565-133.264 1.131-199.201 16.991-25.648 44.879-45.623 78.351-59.756 9.551-4.075 19.515-7.612 29.865-10.682 5.089-1.598 10.215-2.985 15.472-4.243 6.607-1.682 13.332-3.154 20.145-4.42 5.22-1.004 10.43-1.887 15.687-2.649 2.187-.29 4.374-.584 6.561-.883 15.519-1.972 31.248-3.07 46.897-3.191 2.057-.047 4.118-.047 6.14-.047 9.463.047 18.838.42 28.09 1.182 2.481.168 4.963.378 7.444.669 47.23 4.587 90.548 18.124 119.987 40.584 6.435 4.92 12.2 10.215 17.201 15.98.93 1.051 1.813 2.102 2.65 3.192.294.336.55.672.84 1.013 6.099 7.65 10.978 15.56 14.64 23.633 18.716 40.749 7.777 85.698-18.298 127.582-1.388 2.229-2.772 4.42-4.248 6.602z" opacity=".032" transform="scale(-1 1) rotate(45 3558.55 1911.535)"/><g id="_02" data-name=" 02" class="cls-2" transform="translate( 1350 0)">  <text fill="#FFF" fill-opacity="0" fill-rule="evenodd" stroke="#979797" stroke-opacity=".405" stroke-width=".6" font-family="SFProDisplay-Black, SF Pro Display" font-size="200" font-weight="700" transform="translate(-840 -107)">
        <tspan x="834.027" y="253">02</tspan>
    </text></g></svg> 

