<svg xmlns="http://www.w3.org/2000/svg" width="1764.424" height="2464.638" viewBox="0 0 1764.424 2464.638">
  <g id="Group_1" data-name="Group 1" transform="translate(197.567 -4610.676)">
    <rect id="Rectangle" width="207" height="207" rx="23.5" transform="translate(1128.423 4876.869) rotate(-60)" fill="#d8d8d8" opacity="0.048"/>
    <rect id="Rectangle_Copy_6" data-name="Rectangle Copy 6" width="144" height="144" rx="23.5" transform="translate(-64.592 4735.384) rotate(-60)" fill="#d8d8d8" opacity="0.048"/>
    <rect id="Rectangle_Copy_7" data-name="Rectangle Copy 7" width="199" height="199" rx="23.5" transform="translate(66.581 4960.92) rotate(-60)" fill="#d8d8d8" opacity="0.048"/>
    <rect id="Rectangle_Copy_2" data-name="Rectangle Copy 2" width="207" height="207" rx="23.5" transform="translate(-196.884 5482.384) rotate(-60)" fill="#d8d8d8" stroke="#979797" stroke-miterlimit="10" stroke-width="1" opacity="0.094"/>
    <rect id="Rectangle_Copy_3" data-name="Rectangle Copy 3" width="115" height="115" rx="23.5" transform="translate(1177.953 6965.547) rotate(-60)" fill="#d8d8d8" opacity="0.048"/>
    <rect id="Rectangle_Copy_4" data-name="Rectangle Copy 4" width="185" height="185" rx="23.5" transform="translate(1175.143 6763.357) rotate(-60)" fill="#d8d8d8" opacity="0.048"/>
    <rect id="Rectangle_Copy_8" data-name="Rectangle Copy 8" width="115" height="115" rx="23.5" transform="translate(1255.143 5893.735) rotate(-60)" fill="#d8d8d8" opacity="0.048"/>
    <rect id="Rectangle_Copy_9" data-name="Rectangle Copy 9" width="185" height="185" rx="23.5" transform="translate(1314.143 5482.357) rotate(-60)" fill="#d8d8d8" opacity="0.048"/>
    <rect id="Rectangle_Copy_5" data-name="Rectangle Copy 5" width="185" height="185" rx="23.5" transform="translate(186.5 7075.314) rotate(-135)" fill="#d8d8d8" opacity="0.048"/>
    <rect id="Rectangle_Copy_10" data-name="Rectangle Copy 10" width="185" height="185" rx="23.5" transform="translate(-49.857 6407.357) rotate(-60)" fill="#d8d8d8" stroke="#979797" stroke-miterlimit="10" stroke-width="1" opacity="0.094"/>
  </g>
</svg>
