<svg xmlns="http://www.w3.org/2000/svg" width="44" height="44" viewBox="0 0 44 44">
    <g fill="none">
        <path fill="#3D5A72" d="M21.504 30.464c-.742 0-1.344-.602-1.344-1.344V1.344C20.16.602 20.762 0 21.504 0c.742 0 1.344.602 1.344 1.344V29.12c0 .742-.602 1.344-1.344 1.344z"/>
        <path fill="#173A56" d="M21.504 30.464c-.344 0-.688-.13-.95-.394l-7.168-7.168c-.525-.525-.525-1.376 0-1.902.525-.525 1.376-.525 1.902 0l6.218 6.219L27.724 21c.525-.525 1.376-.525 1.901 0 .525.526.525 1.377 0 1.902l-7.168 7.168c-.265.263-.609.394-.953.394z"/>
        <path fill="#173A56" d="M38.08 43.008H4.928C2.21 43.008 0 40.798 0 38.08v-8.064c0-.742.602-1.344 1.344-1.344.742 0 1.344.602 1.344 1.344v8.064c0 1.235 1.005 2.24 2.24 2.24H38.08c1.235 0 2.24-1.005 2.24-2.24v-8.064c0-.742.602-1.344 1.344-1.344.742 0 1.344.602 1.344 1.344v8.064c0 2.718-2.21 4.928-4.928 4.928z"/>
    </g>
</svg>
