<svg xmlns="http://www.w3.org/2000/svg" width="52" height="52" viewBox="0 0 52 52">
    <g fill="#173A56">
        <path d="M51.14 3.822C51.03 1.788 49.412.172 47.378.06 43.274-.164 35.244.054 27.565 4.026 23.65 6.05 19.51 9.483 16.206 13.444l-.12.147-7.498.58c-1.234.095-2.334.742-3.016 1.774L.456 23.682c-.518.783-.6 1.763-.22 2.621.38.859 1.16 1.457 2.088 1.6l6.317.979c-.023.123-.045.245-.066.368-.21 1.258.207 2.552 1.116 3.46l8.799 8.8c.753.753 1.771 1.168 2.814 1.168.215 0 .43-.018.646-.053.123-.021.245-.043.368-.066l.979 6.318c.143.927.741 1.707 1.6 2.087.357.158.735.236 1.11.236.53 0 1.054-.154 1.51-.456l7.738-5.115c1.033-.683 1.68-1.782 1.775-3.017l.579-7.498.147-.12c3.96-3.304 7.394-7.444 9.418-11.359 3.972-7.679 4.19-15.71 3.966-19.813zM33.6 43.126l-7.4 4.893-.954-6.156c3.128-.92 6.222-2.393 9.17-4.366l-.377 4.884c-.024.305-.184.576-.438.745zm-12.989-3.738l-8.8-8.8c-.224-.224-.328-.54-.277-.843.262-1.564.668-3.053 1.172-4.456l13.203 13.203c-1.685.603-3.194.963-4.454 1.174-.304.05-.62-.053-.844-.278zM8.82 17.161l4.884-.377c-1.973 2.948-3.446 6.042-4.366 9.17l-6.156-.953 4.893-7.402c.169-.255.44-.414.745-.438zM35.834 32.69c-2.423 2.021-4.775 3.483-6.944 4.541L13.968 22.31c1.386-2.83 3.078-5.187 4.542-6.943 3.058-3.666 6.86-6.828 10.433-8.676 7.048-3.645 14.473-3.841 18.271-3.635.503.028.903.428.93.93.208 3.8.011 11.225-3.634 18.272-1.848 3.573-5.01 7.375-8.676 10.433z"/>
        <path d="M35.072 23.624c1.92 0 3.841-.73 5.303-2.193 1.417-1.416 2.197-3.3 2.197-5.303s-.78-3.886-2.197-5.303c-2.924-2.924-7.682-2.924-10.606 0-1.417 1.417-2.197 3.3-2.197 5.303s.78 3.887 2.197 5.303c1.462 1.462 3.382 2.194 5.303 2.193zM31.89 12.946c.877-.877 2.03-1.316 3.182-1.316 1.152 0 2.305.439 3.182 1.316.85.85 1.318 1.98 1.318 3.182s-.468 2.332-1.318 3.182c-1.755 1.754-4.61 1.754-6.364 0-.85-.85-1.318-1.98-1.318-3.182s.468-2.332 1.318-3.182zM1.53 42.194c.384 0 .768-.147 1.06-.44l4.898-4.897c.586-.586.586-1.535 0-2.121-.586-.586-1.536-.586-2.121 0L.47 39.633c-.586.586-.586 1.536 0 2.121.292.293.676.44 1.06.44zM11.976 39.224c-.586-.586-1.535-.586-2.121 0L.439 48.639c-.585.586-.585 1.536 0 2.122.293.293.677.439 1.061.439.384 0 .768-.146 1.06-.44l9.416-9.415c.586-.586.586-1.535 0-2.121zM14.343 43.712l-4.897 4.897c-.586.586-.586 1.536 0 2.122.293.292.676.439 1.06.439s.768-.146 1.06-.44l4.898-4.897c.586-.585.586-1.535 0-2.121-.586-.586-1.535-.586-2.121 0z"/>
    </g>
</svg>
