<svg xmlns="http://www.w3.org/2000/svg" width="61" height="57" viewBox="0 0 61 57">
    <g fill="none" fill-rule="evenodd" stroke="#FFF" stroke-width="2">
        <path d="M10.5 48.75L4.328 51.995 5.507 45.122.514 40.255 7.414 39.253 10.5 33 13.586 39.253 20.486 40.255 15.493 45.122 16.672 51.995zM46.5 48.75L40.328 51.995 41.507 45.122 36.514 40.255 43.414 39.253 46.5 33 49.586 39.253 56.486 40.255 51.493 45.122 52.672 51.995zM25.5 15.75L19.328 18.995 20.507 12.122 15.514 7.255 22.414 6.253 25.5 0 28.586 6.253 35.486 7.255 30.493 12.122 31.672 18.995z" transform="translate(2 3)"/>
    </g>
</svg>
