<svg xmlns="http://www.w3.org/2000/svg" width="111.8" height="111.8" viewBox="0 0 111.8 111.8"><defs><style>.a{fill:#fff;stroke:#173a56;stroke-miterlimit:10;stroke-width:0.5px;stroke-dasharray:3.5;}.b{fill:#173a56;}</style></defs><g transform="translate(0.582 -0.25)"><circle class="a" cx="55.65" cy="55.65" r="55.65" transform="translate(-0.332 0.5)"/><g transform="translate(30.168 31)"><path class="b" d="M69.893,15.36a3.333,3.333,0,1,0,3.333,3.333A3.337,3.337,0,0,0,69.893,15.36Zm0,5a1.667,1.667,0,1,1,1.667-1.667A1.668,1.668,0,0,1,69.893,20.36Z" transform="translate(-23.227 -5.36)"/><path class="b" d="M3.333,57.6a3.333,3.333,0,1,0,3.333,3.333A3.337,3.337,0,0,0,3.333,57.6Zm0,5A1.667,1.667,0,1,1,5,60.933,1.668,1.668,0,0,1,3.333,62.6Z" transform="translate(0 -20.1)"/><path class="b" d="M64.7,15.073,57.515,11.6a.833.833,0,1,0-.724,1.5l7.189,3.471a.833.833,0,0,0,.724-1.5Z" transform="translate(-19.653 -4.02)"/><path class="b" d="M55.813,66.56a3.333,3.333,0,1,0,3.333,3.333A3.337,3.337,0,0,0,55.813,66.56Zm0,5a1.667,1.667,0,1,1,1.667-1.667A1.668,1.668,0,0,1,55.813,71.56Z" transform="translate(-18.313 -23.227)"/><path class="b" d="M50.624,66.273,43.435,62.8a.833.833,0,1,0-.724,1.5L49.9,67.774a.833.833,0,0,0,.724-1.5Z" transform="translate(-14.74 -21.886)"/><path class="b" d="M36.613,34.56a3.333,3.333,0,1,0,3.333,3.333A3.337,3.337,0,0,0,36.613,34.56Zm0,5a1.667,1.667,0,1,1,1.667-1.667A1.668,1.668,0,0,1,36.613,39.56Z" transform="translate(-11.613 -12.06)"/><path class="b" d="M32.468,33.92l-5.522-4.3a.834.834,0,1,0-1.025,1.315l5.522,4.3a.834.834,0,1,0,1.025-1.315Z" transform="translate(-8.933 -10.274)"/><path class="b" d="M56.527,33.28a9.167,9.167,0,1,0,9.167,9.167A9.178,9.178,0,0,0,56.527,33.28Zm0,16.667a7.5,7.5,0,1,1,7.5-7.5A7.508,7.508,0,0,1,56.527,49.947Z" transform="translate(-16.527 -11.613)"/><path class="b" d="M59.653,38.4a3.333,3.333,0,1,0,3.333,3.333A3.337,3.337,0,0,0,59.653,38.4Zm0,5a1.667,1.667,0,1,1,1.667-1.667A1.668,1.668,0,0,1,59.653,43.4Z" transform="translate(-19.653 -13.4)"/><path class="b" d="M61.178,51.2H56.342a2.551,2.551,0,0,0-2.582,2.513v2.2a.834.834,0,0,0,.416.722,9.12,9.12,0,0,0,9.168,0,.833.833,0,0,0,.416-.721v-2.2A2.551,2.551,0,0,0,61.178,51.2Zm.916,4.212a7.556,7.556,0,0,1-6.667,0v-1.7a.884.884,0,0,1,.916-.847h4.835a.884.884,0,0,1,.916.847v1.7Z" transform="translate(-18.76 -17.867)"/><path class="b" d="M25.807,48.64a9.167,9.167,0,1,0,9.167,9.167A9.178,9.178,0,0,0,25.807,48.64Zm0,16.667a7.5,7.5,0,1,1,7.5-7.5A7.508,7.508,0,0,1,25.807,65.307Z" transform="translate(-5.807 -16.973)"/><path class="b" d="M28.933,53.76a3.333,3.333,0,1,0,3.333,3.333A3.337,3.337,0,0,0,28.933,53.76Zm0,5A1.667,1.667,0,1,1,30.6,57.093,1.668,1.668,0,0,1,28.933,58.76Z" transform="translate(-8.933 -18.76)"/><path class="b" d="M30.458,66.56H25.623a2.551,2.551,0,0,0-2.583,2.512v2.2a.834.834,0,0,0,.416.722,9.12,9.12,0,0,0,9.168,0,.832.832,0,0,0,.416-.721v-2.2A2.551,2.551,0,0,0,30.458,66.56Zm.916,4.212a7.556,7.556,0,0,1-6.667,0v-1.7a.884.884,0,0,1,.916-.847h4.835a.884.884,0,0,1,.916.847v1.7Z" transform="translate(-8.04 -23.227)"/><path class="b" d="M9.167,16.64a9.167,9.167,0,1,0,9.167,9.167A9.178,9.178,0,0,0,9.167,16.64Zm0,16.667a7.5,7.5,0,1,1,7.5-7.5A7.508,7.508,0,0,1,9.167,33.307Z" transform="translate(0 -5.807)"/><path class="b" d="M12.293,21.76a3.333,3.333,0,1,0,3.333,3.333A3.337,3.337,0,0,0,12.293,21.76Zm0,5a1.667,1.667,0,1,1,1.667-1.667A1.668,1.668,0,0,1,12.293,26.76Z" transform="translate(-3.127 -7.593)"/><path class="b" d="M13.818,34.56H8.983A2.551,2.551,0,0,0,6.4,37.073v2.2a.834.834,0,0,0,.416.722,9.12,9.12,0,0,0,9.168,0,.832.832,0,0,0,.416-.721v-2.2A2.551,2.551,0,0,0,13.818,34.56Zm.916,4.212a7.556,7.556,0,0,1-6.667,0v-1.7a.884.884,0,0,1,.916-.847h4.835a.884.884,0,0,1,.916.847v1.7Z" transform="translate(-2.233 -12.06)"/><path class="b" d="M39.887,0a9.167,9.167,0,1,0,9.167,9.167A9.178,9.178,0,0,0,39.887,0Zm0,16.667a7.5,7.5,0,1,1,7.5-7.5A7.508,7.508,0,0,1,39.887,16.667Z" transform="translate(-10.72)"/><path class="b" d="M43.013,5.12a3.333,3.333,0,1,0,3.333,3.333A3.337,3.337,0,0,0,43.013,5.12Zm0,5A1.667,1.667,0,1,1,44.68,8.453,1.668,1.668,0,0,1,43.013,10.12Z" transform="translate(-13.847 -1.787)"/><path class="b" d="M44.538,17.92H39.7a2.551,2.551,0,0,0-2.583,2.512v2.2a.834.834,0,0,0,.416.722,9.12,9.12,0,0,0,9.168,0,.833.833,0,0,0,.416-.721v-2.2A2.551,2.551,0,0,0,44.538,17.92Zm.916,4.212a7.556,7.556,0,0,1-6.667,0v-1.7a.884.884,0,0,1,.916-.847h4.835a.884.884,0,0,1,.916.847v1.7Z" transform="translate(-12.953 -6.253)"/><path class="b" d="M29.092,13.091A.834.834,0,0,0,27.917,13l-5.775,4.942a.833.833,0,1,0,1.083,1.266L29,14.266A.833.833,0,0,0,29.092,13.091Z" transform="translate(-7.625 -4.467)"/><path class="b" d="M57.7,30.041l-5-6.667a.833.833,0,0,0-1.333,1l5,6.667a.833.833,0,0,0,1.333-1Z" transform="translate(-17.867 -8.041)"/><path class="b" d="M47.38,51.414a.833.833,0,0,0-1.167-.167l-4.655,3.491a.833.833,0,0,0,1,1.332l4.655-3.491A.832.832,0,0,0,47.38,51.414Z" transform="translate(-14.386 -17.825)"/><path class="b" d="M14.347,61.44H8.513a.833.833,0,1,0,0,1.667h5.833a.833.833,0,0,0,0-1.667Z" transform="translate(-2.68 -21.44)"/><path class="b" d="M12.293,0a3.333,3.333,0,1,0,3.333,3.333A3.337,3.337,0,0,0,12.293,0Zm0,5A1.667,1.667,0,1,1,13.96,3.333,1.668,1.668,0,0,1,12.293,5Z" transform="translate(-3.127)"/><path class="b" d="M13.633,7.68a.833.833,0,0,0-.833.833v5.833a.833.833,0,1,0,1.667,0V8.513A.833.833,0,0,0,13.633,7.68Z" transform="translate(-4.467 -2.68)"/></g></g></svg>