<svg xmlns="http://www.w3.org/2000/svg" width="111.8" height="111.8" viewBox="0 0 111.8 111.8"><defs><style>.a{fill:#fff;stroke:#173a56;stroke-miterlimit:10;stroke-width:0.5px;stroke-dasharray:3.5;}.b{fill:#173a56;}</style></defs><g transform="translate(0.25 0.25)"><circle class="a" cx="55.65" cy="55.65" r="55.65"/><g transform="translate(30.5 31)"><path class="b" d="M49.023,20.386h-6.25a.977.977,0,0,0-.977.977v4.932a.977.977,0,0,0,1.953,0V22.339h4.3V48.047h-4.3V33.618a.977.977,0,1,0-1.953,0V48.047H39.844V27.832a.977.977,0,0,0-.977-.977h-6.25a.977.977,0,0,0-.977.977V48.047H29.688V34.668a.977.977,0,0,0-.977-.977h-6.25a.977.977,0,0,0-.977.977V48.047H19.531V40.271a.977.977,0,0,0-.977-.977H12.3a.977.977,0,0,0-.977.977v7.776H2.93a.978.978,0,0,1-.977-.977V2.93a.978.978,0,0,1,.977-.977H28.123V8.4a2.933,2.933,0,0,0,2.93,2.93H37.5V23.34a.977.977,0,1,0,1.953,0V10.352a.977.977,0,0,0-.286-.691L29.79.286A.977.977,0,0,0,29.1,0H2.93A2.933,2.933,0,0,0,0,2.93V47.07A2.933,2.933,0,0,0,2.93,50H49.023A.977.977,0,0,0,50,49.023V21.362A.977.977,0,0,0,49.023,20.386ZM30.076,3.334l6.041,6.041H31.052a.978.978,0,0,1-.977-.977Zm-12.5,44.713h-4.3v-6.8h4.3Zm10.156,0h-4.3v-12.4h4.3Zm10.156,0h-4.3V28.809h4.3Z"/><path class="b" d="M35.988,23.933a.976.976,0,1,0,.286.69A.98.98,0,0,0,35.988,23.933Z" transform="translate(7.476 5.151)"/><path class="b" d="M13.28,4.389a.977.977,0,0,0-.977.977V7.122a8.982,8.982,0,1,0,9.906,9.906h1.757a.977.977,0,0,0,.977-.977A11.676,11.676,0,0,0,13.28,4.389Zm0,18.691A7.029,7.029,0,0,1,12.3,9.09v6.961a.977.977,0,0,0,.977.977h6.961A7.04,7.04,0,0,1,13.28,23.08Zm.977-8.005h0V6.391a9.728,9.728,0,0,1,8.684,8.684Z" transform="translate(0.936 0.956)"/><path class="b" d="M23.959,23.6H5.307a.977.977,0,0,0,0,1.953H23.959a.977.977,0,0,0,0-1.953Z" transform="translate(0.943 5.139)"/><path class="b" d="M11.557,27.465H5.307a.977.977,0,1,0,0,1.953h6.25a.977.977,0,1,0,0-1.953Z" transform="translate(0.943 5.982)"/><path class="b" d="M15.145,27.751a.976.976,0,1,0,.286.69A.984.984,0,0,0,15.145,27.751Z" transform="translate(2.936 5.982)"/></g></g></svg>