<svg xmlns="http://www.w3.org/2000/svg" width="159" height="159" viewBox="0 0 159 159"><defs><style>.a{fill:#fff;}.b{fill:#173a56;}</style></defs><g transform="translate(-0.5 -0.5)"><circle class="a" cx="79.5" cy="79.5" r="79.5" transform="translate(0.5 0.5)"/><g transform="translate(42 42)"><path class="b" d="M31,1h2.452V4.677H31Z" transform="translate(5.774 -1)"/><path class="b" d="M24.19,35.489A87.584,87.584,0,0,0,29.408,43.5c-3.529,1.03-5.731,3.047-5.731,5.4,0,3.495,4.743,6.129,11.032,6.129S45.742,52.4,45.742,48.9c0-2.376-2.235-4.407-5.826-5.428,1.792-2.579,3.592-5.235,5.147-8.023,2.973-5.335,4.357-9.891,4.357-14.338A14.93,14.93,0,0,0,34.716,6,14.953,14.953,0,0,0,20,21.114c0,4.669,1.331,9.236,4.19,14.375ZM43.29,48.9c0,1.736-3.67,3.677-8.581,3.677s-8.581-1.942-8.581-3.677c0-1.1,1.692-2.551,4.809-3.255.945,1.32,1.88,2.632,2.762,3.94a1.226,1.226,0,0,0,1.016.541h.011a1.226,1.226,0,0,0,1.017-.56c.826-1.275,1.731-2.584,2.671-3.934,2.817.629,4.875,1.974,4.875,3.268ZM34.716,8.452A12.476,12.476,0,0,1,46.968,21.114c0,4.013-1.286,8.191-4.045,13.144-1.76,3.152-3.878,6.188-5.927,9.124-.8,1.144-1.567,2.244-2.3,3.328-.707-1.013-1.434-2.029-2.168-3.051a100.648,100.648,0,0,1-6.2-9.364c-2.647-4.757-3.88-8.946-3.88-13.179A12.5,12.5,0,0,1,34.716,8.452Z" transform="translate(3.29 0.129)"/><path class="b" d="M33.806,29.613A9.806,9.806,0,1,0,24,19.806,9.818,9.818,0,0,0,33.806,29.613Zm0-17.161a7.355,7.355,0,1,1-7.355,7.355A7.362,7.362,0,0,1,33.806,12.452Z" transform="translate(4.194 1.032)"/><path class="b" d="M29.755,20.334l-.333,2.05a1.226,1.226,0,0,0,1.8,1.271l1.678-.929,1.679.928a1.226,1.226,0,0,0,1.8-1.271l-.333-2.05,1.406-1.442a1.226,1.226,0,0,0-.693-2.068l-1.894-.289L34.013,14.7a1.225,1.225,0,0,0-2.219,0l-.859,1.829-1.894.289a1.226,1.226,0,0,0-.693,2.068Zm2.2-1.476a1.226,1.226,0,0,0,.924-.69l.027-.058.027.058a1.223,1.223,0,0,0,.924.69l.183.028-.173.178a1.224,1.224,0,0,0-.332,1.053l.027.169-.063-.034a1.225,1.225,0,0,0-1.187,0l-.064.034.027-.169a1.224,1.224,0,0,0-.332-1.053l-.173-.178Z" transform="translate(5.097 1.935)"/><path class="b" d="M26.226,49A1.226,1.226,0,0,0,25,50.226v14.71a1.226,1.226,0,0,0,1.226,1.226h14.71a1.226,1.226,0,0,0,1.226-1.226V50.226A1.226,1.226,0,0,0,40.935,49Zm6.129,2.452h2.452v3.677H32.355ZM39.71,63.71H27.452V51.452H29.9v4.9a1.226,1.226,0,0,0,1.226,1.226h4.9a1.226,1.226,0,0,0,1.226-1.226v-4.9H39.71Z" transform="translate(4.419 9.839)"/><path class="b" d="M64.935,36H50.226A1.226,1.226,0,0,0,49,37.226v14.71a1.226,1.226,0,0,0,1.226,1.226h14.71a1.226,1.226,0,0,0,1.226-1.226V37.226A1.226,1.226,0,0,0,64.935,36Zm-8.581,2.452h2.452v3.677H56.355ZM63.71,50.71H51.452V38.452H53.9v4.9a1.226,1.226,0,0,0,1.226,1.226h4.9a1.226,1.226,0,0,0,1.226-1.226v-4.9H63.71Z" transform="translate(9.839 6.903)"/><path class="b" d="M2.226,53.161h14.71a1.226,1.226,0,0,0,1.226-1.226V37.226A1.226,1.226,0,0,0,16.935,36H2.226A1.226,1.226,0,0,0,1,37.226v14.71A1.226,1.226,0,0,0,2.226,53.161Zm6.129-14.71h2.452v3.677H8.355Zm-4.9,0H5.9v4.9a1.226,1.226,0,0,0,1.226,1.226h4.9a1.226,1.226,0,0,0,1.226-1.226v-4.9H15.71V50.71H3.452Z" transform="translate(-1 6.903)"/><path class="b" d="M46,17h3.677v2.452H46Z" transform="translate(9.161 2.613)"/><path class="b" d="M15,17h3.677v2.452H15Z" transform="translate(2.161 2.613)"/><path class="b" d="M0,0H2.452V3.677H0Z" transform="translate(22.452 8.808) rotate(-45)"/><path class="b" d="M0,0H3.677V2.452H0Z" transform="translate(49.319 9.678) rotate(-45)"/><path class="b" d="M23.909,29.881l-.505-2.4A38.369,38.369,0,0,0,9.236,33.246l1.419,2A35.961,35.961,0,0,1,23.909,29.881Z" transform="translate(0.86 4.98)"/><path class="b" d="M58.682,53.183l-1.419-2c-3.791,2.692-9.27,4.745-15.428,5.78l.406,2.419c6.611-1.111,12.3-3.255,16.442-6.2Z" transform="translate(8.221 10.332)"/><path class="b" d="M8.421,53.183c4.146,2.944,9.832,5.087,16.443,6.2l.406-2.419c-6.158-1.035-11.638-3.088-15.428-5.78Z" transform="translate(0.676 10.332)"/><path class="b" d="M43.789,29.914a35.828,35.828,0,0,1,13.033,5.32l1.419-2a38.279,38.279,0,0,0-13.935-5.717Z" transform="translate(8.662 4.988)"/></g></g></svg>