<svg xmlns="http://www.w3.org/2000/svg" width="159.2" height="159.2" viewBox="0 0 159.2 159.2"><defs><style>.a{fill:#fff;stroke:#173a56;stroke-miterlimit:10;stroke-width:0.2px;stroke-dasharray:5;}.b{fill:#173a56;}</style></defs><g transform="translate(0.1 0.1)"><circle class="a" cx="79.5" cy="79.5" r="79.5"/><g transform="translate(40 40.18)"><path class="b" d="M63.485,40.778h.805v-9.6a7.854,7.854,0,0,0-1.876.124,10.1,10.1,0,0,1,9.932-8.588A10.025,10.025,0,0,1,82.289,31.3a4.8,4.8,0,0,0-1.078-.126h-.805V39.8a6.36,6.36,0,0,1-4.433,3.322,2.228,2.228,0,0,0-.266-.441,11.506,11.506,0,0,0,3.888-7.527l.009,0-.007-.017a9.394,9.394,0,0,0,.055-.95,7.3,7.3,0,0,0-14.607,0c0,4,2.718,8.81,6.256,9.625a2.4,2.4,0,0,0,1.984,2.073,2.87,2.87,0,0,0,.589.062,2.278,2.278,0,0,0,2.082-1.183,7.947,7.947,0,0,0,5.773-4.012,4.8,4.8,0,0,0,2.252-8.691A11.629,11.629,0,0,0,72.347,21.1,11.71,11.71,0,0,0,60.724,32.053a4.8,4.8,0,0,0,2.761,8.725Zm8.863-12.254a5.408,5.408,0,0,1,5.313,3.483,4.279,4.279,0,0,0-2-1.22c-3.06-.757-3.731,2.608-6.395,2.3A3.643,3.643,0,0,1,67.1,31.826a5.42,5.42,0,0,1,5.244-3.3Zm-5.693,5.66c0-.19.01-.375.025-.558a4.78,4.78,0,0,0,2.382,1.056c3.392.418,4.295-2.8,6.215-2.332,1.241.3,2.243,2.049,2.673,3.018a9.573,9.573,0,0,1-3.731,6.385c-.02,0-.037-.013-.057-.017a2.87,2.87,0,0,0-.589-.062,2.429,2.429,0,0,0-1.651.614C69.1,41.893,66.655,37.579,66.655,34.184Zm6.963,10.122c-.468-.1-.763-.436-.713-.67.042-.2.33-.351.669-.351a1.224,1.224,0,0,1,.254.028c.468.1.763.436.713.671S74.049,44.4,73.618,44.306Zm8.4-5.242V32.887a3.192,3.192,0,0,1,0,6.177ZM62.679,32.887v6.177a3.192,3.192,0,0,1,0-6.177Z" transform="translate(-11.224 -3.751)"/><path class="b" d="M72.213,18.972l-.271-1.588a14.736,14.736,0,0,0-2.667.718l.562,1.509A13.147,13.147,0,0,1,72.213,18.972Z" transform="translate(-13.285 -3.028)"/><path class="b" d="M66.1,20.814l-.778-1.41a14.979,14.979,0,0,0-6.186,6.427l1.44.722A13.561,13.561,0,0,1,66.1,20.814Z" transform="translate(-11.312 -3.421)"/><path class="b" d="M61.574,54.023V52.412A7.588,7.588,0,0,0,58.629,53l.621,1.486A5.99,5.99,0,0,1,61.574,54.023Z" transform="translate(-11.213 -9.844)"/><path class="b" d="M55.409,57.54l-1.34-.9a7.616,7.616,0,0,0-1.287,4.245h1.611A6.008,6.008,0,0,1,55.409,57.54Z" transform="translate(-10.076 -10.668)"/><path class="b" d="M8.674,53.412H7.063v7.654h7.412V59.455h-5.8Z" transform="translate(-1.18 -10.038)"/><path class="b" d="M41.773,45.477h1.611v8.358H41.773Z" transform="translate(-7.933 -8.494)"/><path class="b" d="M41.773,38.888h1.611v2.858H41.773Z" transform="translate(-7.933 -7.212)"/><path class="b" d="M27.636,21.644a9.912,9.912,0,1,0-9.912-9.912A9.923,9.923,0,0,0,27.636,21.644ZM20.085,8.3l1.538.888.805-1.4-1.536-.887A8.3,8.3,0,0,1,26.83,3.472V5.254h1.611V3.472a8.3,8.3,0,0,1,5.938,3.437L32.843,7.8l.805,1.4L35.187,8.3a8.21,8.21,0,0,1,0,6.859l-1.538-.888-.805,1.4,1.536.887a8.3,8.3,0,0,1-5.938,3.437V18.21H26.83v1.782a8.3,8.3,0,0,1-5.937-3.437l1.536-.887-.805-1.4-1.538.888a8.21,8.21,0,0,1,0-6.859Z" transform="translate(-3.254)"/><path class="b" d="M32.692,15.061l-2.051-2.051V10.105H29.03v3.572L31.553,16.2Z" transform="translate(-5.454 -1.612)"/><path class="b" d="M16.266,84.912H70.6v1.611H16.266Z" transform="translate(-2.97 -16.167)"/><path class="b" d="M77.433,68.373v-11.4a6.017,6.017,0,0,0-6.014-6.006H64.394L61.37,57.909l-3.017-6.946H51.329a6.017,6.017,0,0,0-6.014,6.006v11.4H32.706a2.488,2.488,0,0,0,.174-.9,2.515,2.515,0,0,0-2.512-2.512H28.451l-1.682-4.226h9.918a2.643,2.643,0,0,0,2.64-2.64v-23.9a2.644,2.644,0,0,0-2.64-2.641H4.514a2.644,2.644,0,0,0-2.64,2.641v23.9a2.643,2.643,0,0,0,2.64,2.64h9.911L12.749,64.96H10.833a2.515,2.515,0,0,0-2.512,2.512,2.488,2.488,0,0,0,.174.9H1V76.14H8.364V74.529H2.611V69.984h74.1v4.546H71.589V76.14h6.732V68.373Zm-30.507-11.4a4.4,4.4,0,0,1,4.4-4.395H57.3l4.072,9.375,4.081-9.375h5.969a4.4,4.4,0,0,1,4.4,4.395v11.4H71.285V63.829H69.674v4.542h-16.6V63.829H51.462v4.542H46.926ZM3.484,58.093v-23.9a1.031,1.031,0,0,1,1.03-1.03H36.687a1.031,1.031,0,0,1,1.03,1.03v23.9a1.03,1.03,0,0,1-1.03,1.03H4.514a1.031,1.031,0,0,1-1.03-1.03Zm12.673,2.64h8.879l1.682,4.226H14.481Zm-5.324,7.639a.9.9,0,1,1,0-1.8H30.368a.9.9,0,0,1,0,1.8Z" transform="translate(0 -5.784)"/><path class="b" d="M35.576,89.877H69.228v1.611H35.576Z" transform="translate(-6.728 -17.134)"/><path class="b" d="M18.819,89.877h9.03v1.611h-9.03Z" transform="translate(-3.467 -17.134)"/><path class="b" d="M62.164,94.18h6.7v1.611h-6.7Z" transform="translate(-11.901 -17.971)"/><path class="b" d="M25.692,94.18H50.924v1.611H25.692Z" transform="translate(-4.804 -17.971)"/></g></g></svg>