<svg xmlns="http://www.w3.org/2000/svg" width="111.8" height="111.8" viewBox="0 0 111.8 111.8"><defs><style>.a{fill:#fff;stroke:#173a56;stroke-miterlimit:10;stroke-width:0.5px;stroke-dasharray:3.5;}.b{fill:#173a56;}</style></defs><g transform="translate(0.25 0.25)"><circle class="a" cx="55.65" cy="55.65" r="55.65"/><g transform="translate(30.416 30)"><path class="b" d="M45.555,27.276V11.324a5.691,5.691,0,1,0-6.508-5.629H0V38.233H24.446A13.007,13.007,0,1,0,45.555,27.276ZM44.741,1.627a4.067,4.067,0,1,1-4.067,4.067A4.072,4.072,0,0,1,44.741,1.627ZM1.627,7.321h37.66a5.689,5.689,0,0,0,.9,1.777l-4.975,4.975a2.355,2.355,0,0,0-2.091,0l-1.639-1.639a2.418,2.418,0,0,0,.244-1.046,2.44,2.44,0,1,0-4.881,0,2.4,2.4,0,0,0,.245,1.045l-4.08,4.08a2.418,2.418,0,0,0-1.046-.244,2.44,2.44,0,1,0,2.44,2.44,2.4,2.4,0,0,0-.245-1.045l4.08-4.08a2.359,2.359,0,0,0,2.091,0l1.639,1.639a2.418,2.418,0,0,0-.244,1.046,2.44,2.44,0,1,0,4.881,0,2.4,2.4,0,0,0-.245-1.045l4.976-4.975a5.66,5.66,0,0,0,2.59,1.075V26.166a12.936,12.936,0,0,0-16.27,2.674V25.218H22.777v9.762h1.865a13.024,13.024,0,0,0-.2,1.627H1.627Zm32.539,8.135a.813.813,0,1,1-.813.813A.814.814,0,0,1,34.166,15.456Zm-5.694-4.067a.813.813,0,1,1,.813.813A.814.814,0,0,1,28.472,11.389ZM22.777,18.71a.813.813,0,1,1-.813-.813A.814.814,0,0,1,22.777,18.71ZM37.42,43.928a6.508,6.508,0,1,1,6.508-6.508A6.515,6.515,0,0,1,37.42,43.928Zm-11.389-12.8a12.919,12.919,0,0,0-.967,2.22H24.4V26.845h1.627Zm10.575-5.06v3.254a8.118,8.118,0,0,0-6.6,11.432l-2.822,1.629a11.35,11.35,0,0,1,9.418-16.315Zm.813,22.736A11.383,11.383,0,0,1,27.993,43.8l2.833-1.636a8.108,8.108,0,0,0,13.186,0L46.846,43.8a11.383,11.383,0,0,1-9.427,5.007Zm10.232-6.421L44.83,40.758a8.118,8.118,0,0,0-6.6-11.432V26.073a11.35,11.35,0,0,1,9.418,16.315Z"/><path class="b" d="M35.985,31.1a4.881,4.881,0,1,0,4.881,4.881A4.886,4.886,0,0,0,35.985,31.1Zm0,8.135a3.254,3.254,0,1,1,3.254-3.254A3.257,3.257,0,0,1,35.985,39.239Z" transform="translate(1.435 1.435)"/><path class="b" d="M3.11,8.554H4.737v1.627H3.11Z" transform="translate(0.144 0.395)"/><path class="b" d="M6.221,8.554H17.609v1.627H6.221Z" transform="translate(0.287 0.395)"/><path class="b" d="M3.11,11.664H4.737v1.627H3.11Z" transform="translate(0.144 0.538)"/><path class="b" d="M6.221,11.664H17.609v1.627H6.221Z" transform="translate(0.287 0.538)"/><path class="b" d="M3.11,14.774H4.737V16.4H3.11Z" transform="translate(0.144 0.682)"/><path class="b" d="M6.221,14.774H17.609V16.4H6.221Z" transform="translate(0.287 0.682)"/><path class="b" d="M3.11,17.885H4.737v1.627H3.11Z" transform="translate(0.144 0.825)"/><path class="b" d="M6.221,17.885H17.609v1.627H6.221Z" transform="translate(0.287 0.825)"/><path class="b" d="M3.11,33.8H7.991V25.661H3.11Zm1.627-6.508H6.364v4.881H4.737Z" transform="translate(0.144 1.184)"/><path class="b" d="M9.331,33.724h4.881V27.216H9.331Zm1.627-4.881h1.627V32.1H10.958Z" transform="translate(0.431 1.256)"/><path class="b" d="M15.552,34.011h4.881V21H15.552Zm1.627-11.389h1.627v9.762H17.179Z" transform="translate(0.718 0.969)"/></g></g></svg>