<svg xmlns="http://www.w3.org/2000/svg" width="111.8" height="111.8" viewBox="0 0 111.8 111.8"><defs><style>.a{fill:#fff;stroke:#173a56;stroke-miterlimit:10;stroke-width:0.5px;stroke-dasharray:3.5;}.b{fill:#173a56;}</style></defs><g transform="translate(0.25 0.25)"><circle class="a" cx="55.65" cy="55.65" r="55.65"/><g transform="translate(29.832 31)"><path class="b" d="M49.172,3.206c-7.026-6.927-18.707-1.837-18.848,7.722a11.027,11.027,0,0,0,5.058,9.461c.672.436.467.271,4.476,7.353a1.82,1.82,0,0,0,.248.339l-5.849,5.635A4.679,4.679,0,0,0,27,34.535L19.2,29.889a4.684,4.684,0,1,0-8.121,3.2L5.968,40.809a4.686,4.686,0,1,0,1.5.739L12.4,34.091a4.687,4.687,0,0,0,6.471-2.469l7.5,4.465a4.685,4.685,0,1,0,8.846-1C42.372,28.2,41.933,28.63,42,28.533a1.739,1.739,0,0,0,.931-.791c4.007-7.079,3.8-6.917,4.478-7.354A11.075,11.075,0,0,0,49.172,3.206ZM7.714,45.315a3.029,3.029,0,1,1-3.03-3.03A3.034,3.034,0,0,1,7.714,45.315Zm4.318-13.667a3.029,3.029,0,1,1,5.51-1.738,3.033,3.033,0,0,1-5.51,1.738ZM30.959,40.07a3.028,3.028,0,1,1,2.106-5.2,3.039,3.039,0,0,1-2.106,5.2Zm15.61-20.984a3.949,3.949,0,0,0-1.286,1.359c-3.986,7.042-3.7,6.642-3.886,6.642s.106.411-3.887-6.642a3.934,3.934,0,0,0-1.285-1.358,9.522,9.522,0,1,1,10.344,0Z" transform="translate(0 0)"/><path class="b" d="M63.221,8.065a7.707,7.707,0,1,0-1.11,10.362.828.828,0,1,0-1.092-1.244A6.051,6.051,0,1,1,62.6,14.99a.828.828,0,1,0,1.527.638A7.705,7.705,0,0,0,63.221,8.065Z" transform="translate(-15.624 -1.563)"/></g></g></svg>