<svg xmlns="http://www.w3.org/2000/svg" width="93.661" height="26.6" viewBox="0 0 93.661 26.6"><defs><style>.a{fill:#fff;}.b{fill:#ef4335;}</style></defs><g transform="translate(-21 -235.9)"><path class="a" d="M177,235.9h4.308v26.6H177Z" transform="translate(-131.648)"/><path class="a" d="M236.8,300.653a4.178,4.178,0,0,1-4.5,4.5c-2.622,0-3-2.435-3-3.746V291.1H225v10.115a7.91,7.91,0,0,0,2.248,5.994,6.78,6.78,0,0,0,5.058,1.873,6.541,6.541,0,0,0,4.5-1.5v1.5h4.308V291.1H236.8Z" transform="translate(-172.155 -46.583)"/><path class="a" d="M341.693,249.1h-4.308v6.556H334.2v4.121h3.184v13.862h4.308V259.777h3.184v-4.121h-3.184Z" transform="translate(-264.309 -11.139)"/><path class="a" d="M420.138,301.625a5.914,5.914,0,0,1-3.559,1.311,4.97,4.97,0,0,1-5.058-5.245,4.818,4.818,0,0,1,5.058-5.058,4.945,4.945,0,0,1,3.559,1.311l.562.562,3-2.81-.749-.562a9.6,9.6,0,0,0-6.369-2.435,9.179,9.179,0,0,0,0,18.357,9.6,9.6,0,0,0,6.369-2.435l.749-.562-3-3Z" transform="translate(-326.083 -44.558)"/><path class="a" d="M538.112,246.015a5.945,5.945,0,0,0-4.683-1.873,5.634,5.634,0,0,0-4.121,1.5V235.9H525v26.6h4.308v-9.928c0-4.121,2.81-4.5,3.934-4.5,2.623,0,2.435,2.435,2.435,3.746v10.49h4.308v-10.3C539.986,249.574,539.424,247.327,538.112,246.015Z" transform="translate(-425.325 0)"/><circle class="b" cx="2.997" cy="2.997" r="2.997" transform="translate(87.312 250.324)"/><path class="a" d="M39.357,260.982a8.784,8.784,0,0,1-6.182,2.435c-4.683,0-8.055-3.746-8.055-8.8s3.372-8.8,8.242-8.8a8.815,8.815,0,0,1,6.182,2.622l.562.562,2.81-2.81-.562-.562a12.615,12.615,0,0,0-8.991-3.746C26.245,241.688,21,247.308,21,254.613s5.245,12.925,12.176,12.925a12.3,12.3,0,0,0,8.991-3.746l.562-.562-2.81-2.81Z" transform="translate(0 -5.039)"/></g></svg>