<svg xmlns="http://www.w3.org/2000/svg" width="149.155" height="22.233" viewBox="0 0 149.155 22.233"><defs><style>.a{fill:#fff;}</style></defs><g transform="translate(0 0)"><g transform="translate(0 0)"><path class="a" d="M9.14,7.819S7.906,7.7,7.906,8.8v4.886h8.152v1.466a.7.7,0,0,1-.741.733H7.906v6.352H16.8s5.385-.831,5.435-6.352V7.819ZM21.986,0H5.929C.123,1.368,0,6.132,0,6.132v16.1H6.177V7.574A1.506,1.506,0,0,1,7.411,6.109H21.987V0Zm21.2,17.626c-.423.283-.737.49-.958.623a17.145,17.145,0,0,1-2.247,1.17,7.278,7.278,0,0,1-2.726.623,9.825,9.825,0,0,1-6.945-2.566A8.413,8.413,0,0,1,27.527,11a9.389,9.389,0,0,1,2.5-6.529,7.9,7.9,0,0,1,6.1-2.755,10.253,10.253,0,0,1,3.168.529,8.765,8.765,0,0,1,3.518,2.018l-1.6,1.773a6.184,6.184,0,0,0-2.6-1.453,9.048,9.048,0,0,0-2.56-.339,5.305,5.305,0,0,0-4.218,2.018,7.352,7.352,0,0,0-1.694,4.849,6.093,6.093,0,0,0,1.933,4.624,6.856,6.856,0,0,0,4.918,1.849,5.023,5.023,0,0,0,2.542-.773c.719-.547,1.087-.812,1.105-.831V12.116H35.263L36.036,9.7h7.148ZM59.43,12.908a6.712,6.712,0,0,1-1.989,4.849,6.754,6.754,0,0,1-9.671.038,6.554,6.554,0,0,1-2.026-4.868,6.984,6.984,0,0,1,1.934-4.906,6.185,6.185,0,0,1,4.734-2.075,6.79,6.79,0,0,1,7.018,6.962Zm-2.524.038a4.427,4.427,0,0,0-1.27-3.208,4.171,4.171,0,0,0-3.15-1.321,3.916,3.916,0,0,0-3,1.359,4.467,4.467,0,0,0-1.234,3.113A4.371,4.371,0,0,0,49.5,16.022a4.132,4.132,0,0,0,3.113,1.32,4.05,4.05,0,0,0,3-1.3,4.236,4.236,0,0,0,1.29-3.094Zm18.549-.038a6.712,6.712,0,0,1-1.989,4.849A6.754,6.754,0,0,1,63.8,17.8a6.558,6.558,0,0,1-2.026-4.868A6.984,6.984,0,0,1,63.7,8.021a6.187,6.187,0,0,1,4.734-2.075,6.79,6.79,0,0,1,7.018,6.962Zm-2.524.038a4.427,4.427,0,0,0-1.27-3.208,4.171,4.171,0,0,0-3.15-1.321,3.916,3.916,0,0,0-3,1.359,4.467,4.467,0,0,0-1.234,3.113,4.368,4.368,0,0,0,1.254,3.133,4.129,4.129,0,0,0,3.113,1.32,4.05,4.05,0,0,0,3-1.3,4.236,4.236,0,0,0,1.29-3.094Zm17.353,6.49-2.321.359V17.55l-.5.565a6.1,6.1,0,0,1-1.474,1.02,5.955,5.955,0,0,1-2.523.547,6.07,6.07,0,0,1-4.606-2,6.741,6.741,0,0,1-1.878-4.773A7.06,7.06,0,0,1,78.845,8a5.9,5.9,0,0,1,4.549-2.038,6.528,6.528,0,0,1,2.689.509,4.564,4.564,0,0,1,1.382.963c.129.169.258.358.387.527V2.077l2.467-.359Zm-2.174-6.359a4.541,4.541,0,0,0-1.345-3.339A4.161,4.161,0,0,0,83.69,8.361a4.005,4.005,0,0,0-3.113,1.3A4.432,4.432,0,0,0,79.453,12.7a4.813,4.813,0,0,0,1.16,3.32,3.765,3.765,0,0,0,2.948,1.3,4.58,4.58,0,0,0,3.132-1.207,3.927,3.927,0,0,0,1.419-3.039Zm15.2-8.546H96.4v4.7h5.359v2.415H96.4v7.774l-2.689.4V2.1h9.062Zm5.545-1.378-1.658,2.094-1.584-2.094,1.676-2.075Zm-.5,16.283-2.468.34V6.663l2.468-.377V19.437ZM119.5,6.153l-1.16,2.679a3.252,3.252,0,0,0-.461-.037,4.709,4.709,0,0,0-.719.056,2.828,2.828,0,0,0-.773.265,3.013,3.013,0,0,0-1.345,1.453,5.876,5.876,0,0,0-.646,2.7v6.151l-2.467.4V6.663l2.284-.415V8.983c.294-.472.608-.943.9-1.434a3.652,3.652,0,0,1,1.474-1.058,11.594,11.594,0,0,1,2.91-.339ZM137.88,19.436l-2.468.359v-9a2.518,2.518,0,0,0-.553-1.812,2.2,2.2,0,0,0-1.64-.566,2.175,2.175,0,0,0-1.97,1.076,3.007,3.007,0,0,0-.461,1.547v8.378l-2.468.453V10.851a2.736,2.736,0,0,0-.535-1.81,1.853,1.853,0,0,0-1.474-.624h-.239a1.961,1.961,0,0,0-1.879,1.095,4.4,4.4,0,0,0-.441,2.094v7.811l-2.56.453V6.663l2.3-.4V7.946A5.2,5.2,0,0,1,124.25,7a3.263,3.263,0,0,1,2.3-.925,4.051,4.051,0,0,1,2.192.472A4.063,4.063,0,0,1,129.977,8.1a4.047,4.047,0,0,1,3.629-2.019,3.969,3.969,0,0,1,3.37,1.435,5.672,5.672,0,0,1,.9,3.491Zm11.276-3.981a3.866,3.866,0,0,1-1.27,2.981,4.5,4.5,0,0,1-3.206,1.17,5.178,5.178,0,0,1-2.634-.68,4.926,4.926,0,0,1-1.768-1.566l1.732-1.547a3.406,3.406,0,0,0,.349.452,3.139,3.139,0,0,0,2.321,1,2.113,2.113,0,0,0,1.474-.49,1.7,1.7,0,0,0,.535-1.359q0-.989-1.27-1.358-2.516-.764-2.708-.849a4.687,4.687,0,0,1-1.677-1.283,3.7,3.7,0,0,1-.589-2.188,3.675,3.675,0,0,1,1.252-2.83,4.247,4.247,0,0,1,2.964-1.114,5.015,5.015,0,0,1,2.414.585,4.118,4.118,0,0,1,1.584,1.3l-1.474,1.6a5.408,5.408,0,0,0-.718-.6,2.984,2.984,0,0,0-1.694-.623A2.213,2.213,0,0,0,143.5,8.4a1.453,1.453,0,0,0-.59,1.246,1.283,1.283,0,0,0,.572,1.17,7.932,7.932,0,0,0,2.137.679,5.034,5.034,0,0,1,2.56,1.359A3.455,3.455,0,0,1,149.155,15.455Z"/></g></g></svg>