<svg xmlns="http://www.w3.org/2000/svg" xmlns:xlink="http://www.w3.org/1999/xlink" width="170" height="49" viewBox="0 0 170 49"><defs><style>.a{fill:url(#a);}.b{filter:url(#n);}.c{filter:url(#k);}.d{filter:url(#h);}.e{filter:url(#e);}.f{filter:url(#b);}</style><linearGradient id="a" y1="0.419" x2="0.916" y2="0.5" gradientUnits="objectBoundingBox"><stop offset="0" stop-color="#8dc26f"/><stop offset="1" stop-color="#45b649"/></linearGradient><filter id="b" x="0" y="0" width="50" height="49" filterUnits="userSpaceOnUse"><feOffset input="SourceAlpha"/><feGaussianBlur stdDeviation="5" result="c"/><feFlood flood-opacity="0.188"/><feComposite operator="in" in2="c"/><feComposite in="SourceGraphic"/></filter><filter id="e" x="30" y="0" width="50" height="49" filterUnits="userSpaceOnUse"><feOffset input="SourceAlpha"/><feGaussianBlur stdDeviation="5" result="f"/><feFlood flood-opacity="0.188"/><feComposite operator="in" in2="f"/><feComposite in="SourceGraphic"/></filter><filter id="h" x="60" y="0" width="50" height="49" filterUnits="userSpaceOnUse"><feOffset input="SourceAlpha"/><feGaussianBlur stdDeviation="5" result="i"/><feFlood flood-opacity="0.188"/><feComposite operator="in" in2="i"/><feComposite in="SourceGraphic"/></filter><filter id="k" x="90" y="0" width="50" height="49" filterUnits="userSpaceOnUse"><feOffset input="SourceAlpha"/><feGaussianBlur stdDeviation="5" result="l"/><feFlood flood-opacity="0.188"/><feComposite operator="in" in2="l"/><feComposite in="SourceGraphic"/></filter><filter id="n" x="120" y="0" width="50" height="49" filterUnits="userSpaceOnUse"><feOffset input="SourceAlpha"/><feGaussianBlur stdDeviation="5" result="o"/><feFlood flood-opacity="0.188"/><feComposite operator="in" in2="o"/><feComposite in="SourceGraphic"/></filter></defs><g transform="translate(-434.5 -4773)"><g class="f" transform="matrix(1, 0, 0, 1, 434.5, 4773)"><path class="a" d="M12,17.27,18.18,21l-1.64-7.03L22,9.24l-7.19-.61L12,2,9.19,8.63,2,9.24l5.46,4.73L5.82,21Z" transform="translate(13 13)"/></g><g class="e" transform="matrix(1, 0, 0, 1, 434.5, 4773)"><path class="a" d="M12,17.27,18.18,21l-1.64-7.03L22,9.24l-7.19-.61L12,2,9.19,8.63,2,9.24l5.46,4.73L5.82,21Z" transform="translate(43 13)"/></g><g class="d" transform="matrix(1, 0, 0, 1, 434.5, 4773)"><path class="a" d="M12,17.27,18.18,21l-1.64-7.03L22,9.24l-7.19-.61L12,2,9.19,8.63,2,9.24l5.46,4.73L5.82,21Z" transform="translate(73 13)"/></g><g class="c" transform="matrix(1, 0, 0, 1, 434.5, 4773)"><path class="a" d="M12,17.27,18.18,21l-1.64-7.03L22,9.24l-7.19-.61L12,2,9.19,8.63,2,9.24l5.46,4.73L5.82,21Z" transform="translate(103 13)"/></g><g class="b" transform="matrix(1, 0, 0, 1, 434.5, 4773)"><path class="a" d="M12,17.27,18.18,21l-1.64-7.03L22,9.24l-7.19-.61L12,2,9.19,8.63,2,9.24l5.46,4.73L5.82,21Z" transform="translate(133 13)"/></g></g></svg>