<svg xmlns="http://www.w3.org/2000/svg" xmlns:xlink="http://www.w3.org/1999/xlink" width="215" height="215" viewBox="0 0 215 215"><defs><style>.a{fill:url(#a);}.b{fill:#fff;}.c{filter:url(#b);}</style><linearGradient id="a" x1="0.247" y1="0.081" x2="1" y2="1" gradientUnits="objectBoundingBox"><stop offset="0" stop-color="#d2c699"/><stop offset="1" stop-color="#ad8d47"/></linearGradient><filter id="b" x="0" y="0" width="215" height="215" filterUnits="userSpaceOnUse"><feOffset input="SourceAlpha"/><feGaussianBlur stdDeviation="12.5" result="c"/><feFlood flood-color="#fff" flood-opacity="0.6"/><feComposite operator="in" in2="c"/><feComposite in="SourceGraphic"/></filter></defs><g transform="translate(-1089 -5458.5)"><g transform="translate(1126.5 5496)"><g class="c" transform="matrix(1, 0, 0, 1, -37.5, -37.5)"><circle class="a" cx="70" cy="70" r="70" transform="translate(37.5 37.5)"/></g><g transform="translate(40.503 44.025)"><g transform="translate(26.054 7.013)"><g transform="translate(0 0)"><path class="b" d="M230.2,90.328a1.142,1.142,0,0,1-.462-.1l-2.2-.967a1.148,1.148,0,1,1,.925-2.1l2.2.967a1.149,1.149,0,0,1-.463,2.2Z" transform="translate(-226.852 -87.063)"/></g></g><g transform="translate(0 0)"><path class="b" d="M58.8,54.712v-2.3a8.049,8.049,0,0,0-8.039-8.039H37.546q.549-.268,1.083-.581c3.755-2.21,6.377-5.867,6.842-9.544a1.149,1.149,0,0,0-.69-1.2,11.115,11.115,0,0,0-5.146-.778,10.766,10.766,0,0,0-.594-5.558,1.148,1.148,0,0,0-1.213-.7,10.479,10.479,0,0,0-5.545,2.675,10.081,10.081,0,0,0-2.167-2.435,1.148,1.148,0,0,0-1.421-.008,9.764,9.764,0,0,0-2.188,2.433,10.475,10.475,0,0,0-5.534-2.665,1.148,1.148,0,0,0-1.213.7,10.77,10.77,0,0,0-.594,5.558,11.116,11.116,0,0,0-5.146.778,1.149,1.149,0,0,0-.69,1.2c.466,3.677,3.087,7.335,6.842,9.544.356.209.719.4,1.086.581H8.039A8.049,8.049,0,0,0,0,52.415v2.3A8.042,8.042,0,0,0,3.9,61.6,8.042,8.042,0,0,0,0,68.494v2.3A8.048,8.048,0,0,0,8.039,78.83H50.763A8.049,8.049,0,0,0,58.8,70.791v-2.3A8.042,8.042,0,0,0,54.9,61.6,8.042,8.042,0,0,0,58.8,54.712ZM43.024,34.859a11.744,11.744,0,0,1-5.561,6.955,12.079,12.079,0,0,1-6.914,1.741V39.692a13.029,13.029,0,0,1,3.83-3.4A11.35,11.35,0,0,1,43.024,34.859ZM37.21,28.477a9.247,9.247,0,0,1,.028,4.182,15.331,15.331,0,0,0-4.023,1.656,15.819,15.819,0,0,0-2.368,1.708c-.068-.292-.147-.584-.235-.873a12.233,12.233,0,0,1,.827-1.777,10.188,10.188,0,0,1,5.771-4.9Zm-7.816.222a8.63,8.63,0,0,1,1.257,1.73,14.622,14.622,0,0,0-1.211,1.812l-.04.072-.039-.072a14.633,14.633,0,0,0-1.22-1.824A8.293,8.293,0,0,1,29.394,28.7Zm-7.8-.222a10.188,10.188,0,0,1,5.771,4.9,11.9,11.9,0,0,1,1.27,3.277,15.712,15.712,0,0,0-3.046-2.335,15.328,15.328,0,0,0-4.023-1.656A9.254,9.254,0,0,1,21.592,28.477Zm-5.814,6.382a11.351,11.351,0,0,1,8.645,1.435,13.027,13.027,0,0,1,3.83,3.4v3.864a12.078,12.078,0,0,1-6.914-1.741,11.744,11.744,0,0,1-5.561-6.955ZM56.505,68.494v2.3a5.749,5.749,0,0,1-5.742,5.742H49.456a4.59,4.59,0,0,0-3.976-6.891H11.025a1.148,1.148,0,1,1,0-2.3,1.148,1.148,0,1,0,0-2.3,3.445,3.445,0,1,0,0,6.891H45.48a2.3,2.3,0,0,1,0,4.594H8.039A5.749,5.749,0,0,1,2.3,70.791v-2.3a5.749,5.749,0,0,1,5.742-5.742H50.763a5.749,5.749,0,0,1,5.742,5.742Zm-7.05-8.039a4.59,4.59,0,0,0-3.976-6.891H34.569a1.148,1.148,0,0,0,0,2.3H45.48a2.3,2.3,0,0,1,0,4.594H8.039A5.749,5.749,0,0,1,2.3,54.712v-2.3a5.749,5.749,0,0,1,5.742-5.742H50.763a5.749,5.749,0,0,1,5.742,5.742v2.3a5.749,5.749,0,0,1-5.742,5.742H49.456Z" transform="translate(0 -26)"/><path class="b" d="M82.653,230.595H69.445a1.148,1.148,0,1,1,0-2.3,1.148,1.148,0,1,0,0-2.3,3.445,3.445,0,1,0,0,6.891H82.653a1.148,1.148,0,1,0,0-2.3Z" transform="translate(-58.42 -203.031)"/><path class="b" d="M247.146,266h0a1.148,1.148,0,1,0,1.149,1.148A1.148,1.148,0,0,0,247.145,266Z" transform="translate(-217.745 -238.437)"/></g></g></g></g></svg>