<svg xmlns="http://www.w3.org/2000/svg" width="32.317" height="31.458" viewBox="0 0 32.317 31.458">
  <path id="Shape" d="M15.848,31.458a1.566,1.566,0,0,1-1.554-1.573V1.573a1.554,1.554,0,1,1,3.108,0V29.885A1.565,1.565,0,0,1,15.848,31.458Zm4.972-4.839a1.557,1.557,0,0,1-1.553-1.556V6.4a1.553,1.553,0,1,1,3.107,0V25.062A1.557,1.557,0,0,1,20.82,26.618Zm-9.322,0a1.557,1.557,0,0,1-1.553-1.556V6.4a1.553,1.553,0,1,1,3.107,0V25.062A1.557,1.557,0,0,1,11.5,26.618ZM7.039,22.383a1.66,1.66,0,0,1-1.17-.478L0,16.031l5.869-5.873c.018-.019.038-.037.058-.055a1.649,1.649,0,0,1,1.112-.423h.039A1.645,1.645,0,0,1,8.205,12.5l-3.53,3.532,3.533,3.533a1.648,1.648,0,0,1-1.17,2.819Zm18.224-.6h0A1.638,1.638,0,0,1,24.079,19l3.568-3.73L24.12,11.825a1.578,1.578,0,0,1,.032-2.31,1.653,1.653,0,0,1,1.133-.44h.025a1.675,1.675,0,0,1,1.145.47l5.862,5.727L26.428,21.3a1.639,1.639,0,0,1-1.148.482Z" transform="translate(0 0)" fill="#fff"/>
</svg>
