<svg xmlns="http://www.w3.org/2000/svg" width="67.44" height="65.265" viewBox="0 0 67.44 65.265"><defs><style>.a{fill:#23255f;}</style></defs><g transform="translate(0 -0.005)"><g transform="translate(0 0.005)"><path class="a" d="M5.439,58.744H33.72V56.568H5.439A3.263,3.263,0,0,1,2.175,53.3V5.444A3.263,3.263,0,0,1,5.439,2.181H53.3a3.262,3.262,0,0,1,3.263,3.263V30.462h2.176V5.444A5.445,5.445,0,0,0,53.3.005H5.439A5.445,5.445,0,0,0,0,5.444V53.3A5.446,5.446,0,0,0,5.439,58.744Z" transform="translate(0 -0.005)"/><path class="a" d="M2.618,2.624H4.794V4.8H2.618Z" transform="translate(1.733 1.728)"/><path class="a" d="M5.236,2.624H7.412V4.8H5.236Z" transform="translate(3.465 1.728)"/><path class="a" d="M7.855,2.624H10.03V4.8H7.855Z" transform="translate(5.198 1.728)"/><path class="a" d="M2.618,5.242H52.654V7.418H2.618Z" transform="translate(1.733 3.46)"/><path class="a" d="M13.827,8.052l-2.763,2.763A5.456,5.456,0,1,0,12.6,12.353L15.365,9.59ZM8.07,18.61a3.263,3.263,0,0,1,0-6.526,3.206,3.206,0,0,1,1.4.326L7.3,14.577l1.538,1.538,2.168-2.165a3.2,3.2,0,0,1,.326,1.4A3.263,3.263,0,0,1,8.07,18.61Z" transform="translate(1.72 5.32)"/><path class="a" d="M11.127,10.478H29.619v2.175H11.127Z" transform="translate(7.364 6.926)"/><path class="a" d="M11.127,13.1h7.614v2.175H11.127Z" transform="translate(7.364 8.659)"/><path class="a" d="M17.018,13.1H32.247v2.175H17.018Z" transform="translate(11.263 8.659)"/><path class="a" d="M23.564,10.478H34.441v2.175H23.564Z" transform="translate(15.595 6.926)"/><path class="a" d="M13.827,15.906l-2.763,2.763A5.455,5.455,0,1,0,12.6,20.207l2.763-2.763ZM8.07,26.465a3.263,3.263,0,0,1,0-6.527,3.206,3.206,0,0,1,1.4.326L7.3,22.432,8.839,23.97,11.007,21.8a3.2,3.2,0,0,1,.326,1.4A3.263,3.263,0,0,1,8.07,26.465Z" transform="translate(1.72 10.518)"/><path class="a" d="M11.127,18.333H29.619v2.176H11.127Z" transform="translate(7.364 12.124)"/><path class="a" d="M11.127,20.951h7.614v2.175H11.127Z" transform="translate(7.364 13.857)"/><path class="a" d="M17.018,20.951h8.7v2.175h-8.7Z" transform="translate(11.263 13.857)"/><path class="a" d="M23.564,18.333h4.351v2.176H23.564Z" transform="translate(15.595 12.124)"/><path class="a" d="M13.827,23.761l-2.763,2.763A5.455,5.455,0,1,0,12.6,28.062L15.365,25.3ZM8.07,34.32a3.263,3.263,0,0,1,0-6.526,3.2,3.2,0,0,1,1.4.326L7.3,30.287l1.538,1.538,2.168-2.166a3.206,3.206,0,0,1,.326,1.4A3.263,3.263,0,0,1,8.07,34.32Z" transform="translate(1.72 15.716)"/><path class="a" d="M11.127,26.188h14.14v2.176H11.127Z" transform="translate(7.364 17.322)"/><path class="a" d="M11.127,28.806h7.614v2.175H11.127Z" transform="translate(7.364 19.055)"/><path class="a" d="M17.018,28.806h4.351v2.175H17.018Z" transform="translate(11.263 19.055)"/><path class="a" d="M37.262,52.275A16.316,16.316,0,1,0,20.946,35.958,16.316,16.316,0,0,0,37.262,52.275Zm0-30.457A14.141,14.141,0,1,1,23.121,35.958,14.141,14.141,0,0,1,37.262,21.818Z" transform="translate(13.862 12.99)"/><path class="a" d="M27.547,33.4l-1.947.972,2.176,4.351a1.088,1.088,0,0,0,.8.588,1.227,1.227,0,0,0,.169.014,1.09,1.09,0,0,0,.769-.319L42.565,25.954l-1.538-1.538L29.041,36.4Z" transform="translate(16.942 16.15)"/></g></g></svg>