<svg xmlns="http://www.w3.org/2000/svg" width="70.313" height="70.313" viewBox="0 0 70.313 70.313"><defs><style>.a{fill:#23255f;}</style></defs><path class="a" d="M58.594,12.415V5.859A5.867,5.867,0,0,0,52.734,0H5.859A5.867,5.867,0,0,0,0,5.859V31.641a5.848,5.848,0,0,0,5.255,5.8L9.66,48.875a5.861,5.861,0,0,0,7.574,3.361l27.508-10.6A16.94,16.94,0,0,0,46.2,56.68l.673,1.077V69.141a1.172,1.172,0,0,0,1.172,1.172H69.141a1.172,1.172,0,0,0,1.172-1.172V30.458a15.337,15.337,0,0,0-4.49-10.8Zm0,7.008,3.557,9.233A3.515,3.515,0,0,1,60.132,33.2l-2.033.785a5.862,5.862,0,0,0,.495-2.344ZM2.344,31.641V5.859A3.516,3.516,0,0,1,5.859,2.344H52.734A3.516,3.516,0,0,1,56.25,5.859v7.448h-.01l.01.027V31.641a3.556,3.556,0,0,1-.08.607L45.436,21.512a6.252,6.252,0,0,0-9.023,8.646l4.576,5H5.859A3.516,3.516,0,0,1,2.344,31.641ZM17.357,37.5,9.023,40.708,7.791,37.5Zm-.966,12.548a3.515,3.515,0,0,1-4.545-2.016L9.87,42.891,23.858,37.5v-.007H43.137l1.523,1.66ZM67.969,67.969H49.219V58.594h18.75Zm0-11.719H48.7l-.508-.812a14.613,14.613,0,0,1-.3-15.008,1.171,1.171,0,0,0-.153-1.373l-9.6-10.477a3.908,3.908,0,0,1,5.643-5.405l18.674,18.67,1.657-1.657-4.336-4.336,1.2-.469a5.86,5.86,0,0,0,3.36-7.571l-3.966-10.3,3.8,3.8a12.978,12.978,0,0,1,3.8,9.142Z"/><path class="a" d="M13.359,16.406a3.047,3.047,0,0,0,3.047-3.047V7.734a3.047,3.047,0,0,0-3.047-3.047H7.734A3.047,3.047,0,0,0,4.688,7.734v5.625a3.047,3.047,0,0,0,3.047,3.047ZM7.031,13.359V11.719H9.375V9.375H7.031V7.734a.7.7,0,0,1,.7-.7h5.625a.7.7,0,0,1,.7.7V9.375H11.719v2.344h2.344v1.641a.7.7,0,0,1-.7.7H7.734A.7.7,0,0,1,7.031,13.359Z"/><path class="a" d="M5.859,19.922h4.688v2.344H5.859Z"/><path class="a" d="M5.859,26.953h4.688V29.3H5.859Z"/><path class="a" d="M26.953,26.953h4.688V29.3H26.953Z"/><path class="a" d="M12.891,19.922h4.688v2.344H12.891Z"/><path class="a" d="M19.922,19.922h4.688v2.344H19.922Z"/><path class="a" d="M26.953,19.922h4.688v2.344H26.953Z"/><path class="a" d="M49.219,5.859h2.344V9.375H49.219Z"/><path class="a" d="M44.531,5.859h2.344V9.375H44.531Z"/><path class="a" d="M39.844,5.859h2.344V9.375H39.844Z"/><path class="a" d="M35.156,5.859H37.5V9.375H35.156Z"/><path class="a" d="M51.563,60.938h2.344v2.344H51.563Z"/></svg>