<svg xmlns="http://www.w3.org/2000/svg" xmlns:xlink="http://www.w3.org/1999/xlink" width="210" height="210" viewBox="0 0 210 210">
    <defs>
        <filter id="prefix__a" width="144.6%" height="144.6%" x="-21.6%" y="-21.6%" filterUnits="objectBoundingBox">
            <feMorphology in="SourceAlpha" operator="dilate" radius=".25" result="shadowSpreadOuter1"/>
            <feOffset dx="1" dy="1" in="shadowSpreadOuter1" result="shadowOffsetOuter1"/>
            <feGaussianBlur in="shadowOffsetOuter1" result="shadowBlurOuter1" stdDeviation="10"/>
            <feComposite in="shadowBlurOuter1" in2="SourceAlpha" operator="out" result="shadowBlurOuter1"/>
            <feColorMatrix in="shadowBlurOuter1" values="0 0 0 0 0.392156863 0 0 0 0 0.482352941 0 0 0 0 0.556862745 0 0 0 0.190750656 0"/>
        </filter>
        <rect id="prefix__b" width="138" height="138" x="29" y="29" rx="30"/>
    </defs>
    <g fill="none" fill-rule="evenodd">
        <g transform="translate(5.5 7) rotate(-45 98 98)">
            <use fill="#000" filter="url(#prefix__a)" xlink:href="#prefix__b"/>
            <use fill="#F9FAFB" fill-opacity=".7" stroke="#335B7A" stroke-opacity=".298" stroke-width=".5" xlink:href="#prefix__b"/>
        </g>
        <g fill-rule="nonzero">
            <path fill="#EEEBEE" d="M65.413 10.826c-13.653-.982-27.306-.982-40.96 0-2.702.194-4.883 2.298-5.168 4.993-1.09 10.317-1.09 20.635 0 30.952.285 2.695 2.466 4.799 5.169 4.993 13.653.983 27.306.983 40.959 0 2.702-.194 4.883-2.298 5.168-4.993 1.09-10.317 1.09-20.635 0-30.952-.285-2.695-2.466-4.799-5.168-4.993z" transform="translate(5.5 7) translate(54.5 63)"/>
            <path fill="#D3CED5" d="M25.728 51.853l-1.274-.09c-2.703-.193-4.884-2.297-5.169-4.991-1.09-10.319-1.09-20.636 0-30.953.285-2.696 2.466-4.799 5.17-4.994l1.274-.09c-1.644.887-2.814 2.545-3.02 4.5-1.133 10.706-1.133 21.413 0 32.118.206 1.958 1.375 3.614 3.019 4.5z" transform="translate(5.5 7) translate(54.5 63)"/>
            <path fill="#DA4A54" d="M55.221 27.417L48.811 27.417 48.811 21.008 41.056 21.008 41.056 27.417 34.646 27.417 34.646 35.173 41.056 35.173 41.056 41.583 48.811 41.583 48.811 35.173 55.221 35.173z" transform="translate(5.5 7) translate(54.5 63)"/>
            <path fill="#F1D0A5" d="M72.984 48.132h-.002L53.633 63.653c-1.59 1.276-3.63 1.857-5.656 1.61L21.9 62.089l-6.949 2.57c-3.732-3.838-2.198-16.19-2.198-16.19l1.654-.453c-.143-2.211.9-4.407 2.835-5.663.214-.14.438-.267.673-.382l11.183-5.461 5.75-2.809c.314-.153.634-.273.958-.361 2.404-.658 5.014.399 6.244 2.665 1.396 2.574.517 5.79-1.995 7.295l-9.296 5.571 15.644 2.725c1.882.327 3.82-.068 5.423-1.11l15.559-10.1c2.087-1.356 4.863-.885 6.389 1.083.394.51.671 1.075.833 1.663.49 1.785-.09 3.77-1.622 5z" transform="translate(5.5 7) translate(54.5 63)"/>
            <path fill="#F1B986" d="M47.935 61.094c-10.713 1.392-18.1-4.89-22.568-10.801-2.215-2.93-1.468-7.123 1.625-9.105 10.788-6.916 13.578-6.661 15.057-5.183-1.23-2.266-3.84-3.323-6.244-2.665-.325.088-.644.208-.957.361l-5.751 2.809-9.064 4.427-.001.001-2.118 1.033c-2.364 1.154-3.667 3.59-3.507 6.045l-1.655.453s-1.534 12.352 2.199 16.19l6.948-2.57 26.079 3.174c2.025.247 4.065-.334 5.655-1.61l19.35-15.52C66.296 46.318 55.15 59.99 47.934 61.094z" transform="translate(5.5 7) translate(54.5 63)"/>
            <path fill="#3D5A72" d="M10.437 46.914c-3.347.409-6.451 1.506-9.312 3.291 1.87 6.378 4.081 12.636 6.634 18.773 3.347-.408 6.451-1.505 9.312-3.29-1.87-6.379-4.081-12.636-6.634-18.774z" transform="translate(5.5 7) translate(54.5 63)"/>
            <path fill="#647B8E" d="M17.071 65.688c-2.86 1.786-5.964 2.883-9.312 3.29-.664-1.598-1.305-3.205-1.923-4.819 3.488-.43 6.726-1.563 9.716-3.399.53 1.635 1.036 3.278 1.519 4.928z" transform="translate(5.5 7) translate(54.5 63)"/>
            <path fill="#000" d="M75.69 42.832c-.205-.745-.551-1.435-1.028-2.052-.631-.813-1.444-1.418-2.342-1.8.364-6.975.231-14.043-.4-21.022-.056-.619-.604-1.075-1.222-1.02-.619.057-1.075.604-1.019 1.222.61 6.754.749 13.591.413 20.343-1.145-.024-2.305.28-3.32.94L51.213 49.542c-1.371.889-3.012 1.225-4.62.945L33.93 48.282l6.702-4.018c.702-.42 1.297-.951 1.778-1.556h6.4c.622 0 1.126-.503 1.126-1.125v-5.286h5.284c.622 0 1.125-.503 1.125-1.125v-7.755c0-.621-.503-1.125-1.125-1.125h-5.284v-5.284c0-.621-.504-1.125-1.125-1.125h-7.755c-.621 0-1.125.504-1.125 1.125v5.284h-5.286c-.621 0-1.125.504-1.125 1.125v5.68L19.84 39.78c-.46-7.924-.272-15.936.564-23.842.228-2.155 1.965-3.833 4.13-3.99 13.536-.973 27.263-.973 40.798 0 1.507.11 2.847.96 3.584 2.277.304.542.99.736 1.532.432s.735-.99.431-1.531c-1.107-1.978-3.12-3.257-5.385-3.421-1.887-.136-3.777-.251-5.67-.35-.067-1.75-.19-3.514-.374-5.257-.205-1.953-1.776-3.472-3.737-3.613-7.153-.514-14.407-.514-21.56 0-1.96.14-3.532 1.66-3.736 3.612-.185 1.744-.308 3.508-.375 5.259-1.892.098-3.783.213-5.669.349-3.254.234-5.864 2.756-6.207 5.997-.881 8.34-1.052 16.795-.512 25.146l-.23.112c-.273.132-.541.285-.795.45-1.975 1.283-3.206 3.429-3.347 5.75l-1.37.38-.436-1.057c-.194-.466-.674-.745-1.175-.684-3.496.426-6.784 1.588-9.771 3.453-.429.267-.626.786-.485 1.27 1.873 6.388 4.119 12.743 6.675 18.89.176.423.589.692 1.038.692.045 0 .091-.002.137-.008 3.496-.427 6.784-1.588 9.772-3.453.428-.267.625-.786.484-1.27l-.187-.628 4.07-1.506 4.207.512c.617.075 1.178-.365 1.253-.981.075-.617-.364-1.178-.981-1.253l-4.478-.544c-.178-.022-.358 0-.526.061l-4.2 1.554c-1.354-4.362-2.88-8.696-4.555-12.946l1.953-.541c.514-.143.857-.626.823-1.158-.121-1.856.77-3.636 2.328-4.648.177-.115.36-.22.55-.311l16.933-8.271c.246-.12.502-.217.762-.288 1.952-.535 3.99.336 4.957 2.117 1.112 2.05.416 4.595-1.584 5.794l-9.296 5.572c-.403.242-.613.708-.527 1.17.086.462.45.822.913.903l15.644 2.724c2.168.377 4.38-.076 6.229-1.275l15.558-10.1c1.61-1.045 3.71-.689 4.886.829.297.383.512.812.639 1.27.382 1.397-.093 2.885-1.212 3.802l-.032.025-19.349 15.52c-1.345 1.08-3.1 1.58-4.816 1.37l-17.136-2.084c-.617-.076-1.178.364-1.253.98-.075.617.364 1.178.981 1.253l17.136 2.085c.346.042.694.063 1.04.063 1.97 0 3.913-.673 5.456-1.912l19.314-15.492.037-.028c1.84-1.477 2.626-3.9 2.003-6.178zm-43.036-38.5c.091-.867.79-1.541 1.66-1.604 7.047-.506 14.192-.506 21.238 0 .871.063 1.57.737 1.66 1.604.173 1.63.29 3.277.357 4.914-8.41-.37-16.863-.37-25.272 0 .067-1.637.185-3.284.357-4.915zM15.744 65.17c-2.263 1.294-4.704 2.157-7.279 2.572-2.277-5.552-4.298-11.27-6.014-17.02 2.264-1.294 4.706-2.157 7.28-2.572 2.278 5.553 4.298 11.27 6.014 17.02zM35.77 32.189v-3.647h5.286c.621 0 1.125-.503 1.125-1.125v-5.284h5.505v5.284c0 .622.504 1.125 1.125 1.125h5.284v5.505h-5.284c-.621 0-1.125.504-1.125 1.125v5.286h-4.11c.47-1.61.325-3.398-.538-4.99-1.425-2.626-4.385-3.948-7.268-3.28z" transform="translate(5.5 7) translate(54.5 63)"/>
            <path fill="#000" d="M35.96 43.004c.458 0 .922-.11 1.353-.34l1.395-.744c.548-.292.755-.974.463-1.522s-.974-.756-1.522-.463l-1.395.743c-.272.146-.617.063-.785-.188-.93-1.389-1.224-2.806-1.232-2.844-.118-.608-.706-1.007-1.316-.89-.61.117-1.01.707-.893 1.317.015.075.37 1.874 1.572 3.669.546.815 1.44 1.262 2.36 1.262zM10.943 64.75c.523 0 .98-.37 1.097-.877.228-.991-.93-1.742-1.75-1.162-.414.292-.578.848-.396 1.32.166.429.588.72 1.05.72z" transform="translate(5.5 7) translate(54.5 63)"/>
        </g>
    </g>
</svg>
