<svg xmlns="http://www.w3.org/2000/svg" xmlns:xlink="http://www.w3.org/1999/xlink" width="494.594" height="534.192" viewBox="0 0 494.594 534.192">
  <defs>
    <linearGradient id="linear-gradient" x1="0.051" x2="0.769" y2="1.039" gradientUnits="objectBoundingBox">
      <stop offset="0" stop-color="#336c8f"/>
      <stop offset="1" stop-color="#173a56"/>
    </linearGradient>
  </defs>
  <path id="Fill_1_Copy_3" data-name="Fill 1 Copy 3" d="M-416.076,220.437c12.911,19.39,28.935,38.015,46.678,55.135.8.795,1.644,1.6,2.481,2.393,2.528,2.4,5.135,4.8,7.743,7.107,4.5,4.125,9.126,8.116,13.837,11.943,2.481,2.1,5.043,4.167,7.57,6.182,29.351,23.217,60.725,43.528,91.641,58.831,9.585,4.8,19.174,9.083,28.636,12.784,49.378,19.558,95.342,24.142,127.052,4.752a75.827,75.827,0,0,0,25.575-26.026q1.64-2.719,3.28-5.425c10.131-16.951,19.809-33.978,28.3-51.1,2.019-3.995,3.907-7.944,5.758-11.943,30.827-66.232,42.565-133.263-1.131-199.2C-45.643,60.223-73.531,40.248-107,26.114a276.086,276.086,0,0,0-29.864-10.681c-5.089-1.6-10.215-2.986-15.473-4.243q-9.911-2.523-20.145-4.42c-5.219-1.005-10.43-1.888-15.687-2.649q-3.28-.435-6.561-.883A397.414,397.414,0,0,0-241.63.046C-243.687,0-245.747,0-247.77,0c-9.463.046-18.837.421-28.089,1.182-2.481.168-4.963.378-7.444.669-47.229,4.588-90.548,18.124-119.987,40.584a115.446,115.446,0,0,0-17.2,15.98c-.929,1.051-1.813,2.1-2.65,3.192-.294.336-.551.673-.841,1.013a112.674,112.674,0,0,0-14.64,23.633c-18.715,40.748-7.776,85.7,18.3,127.582C-418.936,216.064-417.552,218.255-416.076,220.437Z" transform="matrix(0.259, 0.966, -0.966, 0.259, 494.594, 432.735)" opacity="0.032" fill="url(#linear-gradient)"/>
</svg>
