<svg xmlns="http://www.w3.org/2000/svg" width="95" height="94" viewBox="0 0 95 94">
    <g fill="#647B8E">
        <path d="M39.16 50.558c5.498-3.12 9.224-9.02 9.224-15.782v-3.024c3.335 0 6.048-2.713 6.048-6.048s-2.713-6.048-6.048-6.048V1.512c0-.61-.367-1.163-.933-1.397-.567-.234-1.216-.104-1.648.328-2.64 2.64-6.148 4.093-9.88 4.093H18.143c-3.335 0-6.048 2.713-6.048 6.048v9.072c-3.335 0-6.048 2.713-6.048 6.048s2.713 6.048 6.048 6.048v3.024c0 6.762 3.726 12.661 9.225 15.782C9.14 53.262 0 64.131 0 77.112v15.12c0 .836.676 1.512 1.512 1.512h57.456c.836 0 1.512-.676 1.512-1.512v-15.12c0-12.98-9.142-23.85-21.32-26.554zm-16.64 2.828l5.724 5.724-2.54 3.385-6.216-8.287c.986-.334 1.993-.617 3.032-.822zm4.696-.466h6.048c.284 0 .561.033.844.042L30.24 56.83l-3.868-3.868c.283-.009.56-.042.844-.042zm10.744.466c1.039.205 2.046.488 3.032.822l-6.216 8.287-2.54-3.385 5.724-5.724zm-22.84-18.61V22.68h10.584c4.258 0 8.266-2.268 10.455-5.921l.129-.213.129.213c1.927 3.216 5.264 5.36 8.943 5.826v12.191c0 1.243-.168 2.443-.45 3.6-3.971-3.307-8.921-5.112-14.151-5.112H29.72c-5.23 0-10.18 1.805-14.15 5.112-.283-1.157-.451-2.357-.451-3.6zm36.288-9.072c0 1.668-1.356 3.024-3.024 3.024V22.68c1.668 0 3.024 1.356 3.024 3.024zM18.144 7.56h17.778c3.411 0 6.668-.998 9.438-2.855v14.809c-2.614-.445-4.965-2.002-6.35-4.31l-1.425-2.373c-.546-.912-2.047-.912-2.593 0l-1.424 2.374c-1.65 2.745-4.662 4.451-7.864 4.451H15.12v-9.072c0-1.668 1.356-3.024 3.024-3.024zM9.072 25.704c0-1.668 1.356-3.024 3.024-3.024v6.048c-1.668 0-3.024-1.356-3.024-3.024zm7.616 15.735c3.553-3.315 8.148-5.151 13.033-5.151h1.038c4.885 0 9.48 1.836 13.033 5.151-1.324 2.683-3.414 4.914-5.992 6.411v-4.002h-3.024v5.351c-.97.305-1.98.517-3.024.621v-5.972h-3.024v5.97c-1.043-.103-2.053-.314-3.024-.62v-5.35H22.68v4.002c-2.576-1.497-4.668-3.728-5.992-6.41zM3.024 77.112c0-9.53 5.554-17.768 13.582-21.708l7.888 10.52c.285.38.734.604 1.21.604s.924-.224 1.21-.605l1.814-2.419V90.72H12.096V72.576H9.072V90.72H3.024V77.112zM57.456 90.72h-6.048V72.576h-3.024V90.72H31.752V63.502l1.814 2.42c.285.38.734.604 1.21.604s.924-.223 1.21-.604l7.888-10.52c8.028 3.942 13.582 12.18 13.582 21.71V90.72z" transform="translate(.667)"/>
        <path d="M36.288 69.552L45.36 69.552 45.36 72.576 36.288 72.576zM69.43 11.5L64.894.916C64.656.36 64.109 0 63.504 0c-.605 0-1.152.36-1.39.916L57.578 11.5h.002c-.079.183-.124.384-.124.596v46.872c0 3.335 2.713 6.048 6.048 6.048s6.048-2.713 6.048-6.048V12.096c0-.212-.045-.413-.122-.596zm-5.926-6.149l2.244 5.233h-4.486l2.242-5.233zm3.024 44.545H60.48V13.608h6.048v36.288zm-3.024 12.096c-1.668 0-3.024-1.356-3.024-3.024V52.92h6.048v6.048c0 1.668-1.356 3.024-3.024 3.024zM92.232 0H74.088c-.836 0-1.512.677-1.512 1.512v90.72c0 .836.676 1.512 1.512 1.512h18.144c.836 0 1.512-.676 1.512-1.512V1.512C93.744.677 93.068 0 92.232 0zM90.72 90.72H75.6v-6.048h9.072v-3.024H75.6v-3.024h6.048V75.6H75.6v-3.024h6.048v-3.024H75.6v-3.024h6.048v-3.024H75.6V60.48h9.072v-3.024H75.6v-3.024h6.048v-3.024H75.6v-3.024h6.048V45.36H75.6v-3.024h6.048v-3.024H75.6v-3.024h9.072v-3.024H75.6V30.24h6.048v-3.024H75.6v-3.024h6.048v-3.024H75.6v-3.024h6.048V15.12H75.6v-3.024h9.072V9.072H75.6V3.024h15.12V90.72z" transform="translate(.667)"/>
    </g>
</svg>
