<svg xmlns="http://www.w3.org/2000/svg" width="92" height="91" viewBox="0 0 92 91">
    <g fill="none">
        <path d="M89.208 80.325v6.048c-.005 1.668-1.356 3.019-3.024 3.024H4.536c-1.668-.005-3.019-1.356-3.024-3.024v-6.048h87.696zM80.136 62.181L89.208 80.325 57.456 80.325 54.432 74.277 36.288 74.277 33.264 80.325 1.512 80.325 10.584 62.181zM80.136 27.405h3.024v-6.048h-4.93c-.285-1.091-.718-2.14-1.284-3.115l2.842-2.842.635-.635-4.279-4.28-3.311 3.312h-.484c-.882-.488-1.822-.863-2.797-1.119V7.75h-6.048v4.93c-.975.255-1.915.63-2.797 1.118h-.484l-3.311-3.311-3.312 3.311-.967.968 3.477 3.477c-.566.976-.999 2.024-1.285 3.115h-4.929v6.048h4.93c.285 1.091.718 2.14 1.284 3.115l-3.477 3.477 4.279 4.28 3.477-3.478c.976.566 2.024.999 3.115 1.285v4.929h6.048v-4.93c1.091-.285 2.14-.718 3.115-1.284l3.477 3.477 3.992-3.991.287-.288-.287-.287-3.19-3.19c.566-.976.999-2.024 1.285-3.115h1.905zm-13.608 3.024c-3.34 0-6.048-2.708-6.048-6.048s2.708-6.048 6.048-6.048 6.048 2.708 6.048 6.048-2.708 6.048-6.048 6.048zM37.8 52.958v3.175H24.192l-2.752-9.344 1.24-1.24 4.536 1.512 1.058-4.234 4.143 1.845c3.273 1.457 5.382 4.703 5.383 8.286zM30.24 13.797h-7.56V4.861c1.86.297 3.578 1.182 4.899 2.525 1.71 1.694 2.668 4.004 2.661 6.411z" transform="translate(.333)"/>
        <path d="M28.274 42.827L27.216 47.061 22.68 45.549 21.168 42.525 24.192 41.013zM21.44 46.789L24.192 56.133 15.12 56.133 17.872 46.789 19.656 48.573zM21.168 1.701h-3.024c-.835 0-1.512.677-1.512 1.512v10.584h6.048V3.213c0-.835-.677-1.512-1.512-1.512z" transform="translate(.333)"/>
        <path d="M21.168 42.525L22.68 45.549 21.44 46.789 19.656 48.573 17.872 46.789 16.632 45.549 18.144 42.525z" transform="translate(.333)"/>
        <path d="M18.144 42.525L16.632 45.549 12.096 47.061 11.038 42.827 15.12 41.013zM16.632 4.861v8.936h-7.56c-.002-4.426 3.195-8.204 7.56-8.936z" transform="translate(.333)"/>
        <path d="M32.372 14.69c-.56-.575-1.33-.897-2.132-.893H9.072c-1.668.005-3.019 1.356-3.024 3.024.012 1.665 1.359 3.012 3.024 3.024H30.24c1.668-.005 3.019-1.356 3.024-3.024.004-.802-.318-1.572-.892-2.132zM16.632 45.549l-4.536 1.512-1.058-4.234-.454.197-3.69 1.648c-3.272 1.457-5.381 4.703-5.382 8.286v3.175H15.12l2.752-9.344-1.24-1.24z" transform="translate(.333)"/>
        <g fill="#647B8E">
            <path d="M81.648 61.818V43.236c7.588-6.073 10.801-16.1 8.156-25.452C87.16 8.432 79.172 1.574 69.527.374c-9.644-1.2-19.07 3.492-23.925 11.911H31.63c-.31-2.26-1.357-4.354-2.979-5.957-1.234-1.251-2.77-2.163-4.46-2.646v-.469C24.187 1.545 22.836.194 21.168.189h-3.024c-1.668.005-3.019 1.356-3.024 3.024v.454c-4.049 1.19-6.995 4.684-7.484 8.875-1.836.604-3.083 2.311-3.1 4.244-.018 1.933 1.199 3.662 3.024 4.299v.272c-2.505 0-4.536 2.03-4.536 4.536 0 2.505 2.03 4.536 4.536 4.536h.393c.822 3.133 2.856 5.81 5.655 7.439v2.162l-7.333 3.266C2.46 44.996.002 48.781 0 52.958v3.175c0 .835.677 1.512 1.512 1.512h7.56v4.173L.166 79.645c-.108.21-.165.443-.166.68v6.048c.007 2.502 2.034 4.529 4.536 4.536h81.648c2.502-.007 4.529-2.034 4.536-4.536v-6.048c-.001-.237-.058-.47-.166-.68l-8.906-17.827zM7.56 27.405c-.835 0-1.512-.677-1.512-1.512s.677-1.512 1.512-1.512v3.024zM66.528 3.213c8.937-.013 16.92 5.588 19.948 13.997 3.028 8.408.448 17.813-6.446 23.5-6.895 5.687-16.618 6.432-24.298 1.86-.23-.147-.497-.226-.77-.226-.166-.001-.33.03-.485.09l-6.728 2.238 2.071-6.23c.161-.47.082-.99-.211-1.39-2.763-3.646-4.256-8.097-4.249-12.671.013-11.686 9.482-21.155 21.168-21.168zM34.504 15.309h9.616c-3.094 7.578-2.12 16.21 2.586 22.907l-2.782 8.361c-.176.546-.037 1.145.362 1.558.286.282.672.44 1.074.438.164-.003.327-.028.484-.076l8.95-2.978c7.423 4.151 16.488 4.065 23.83-.227v15.377H12.096v-3.024H37.8c.835 0 1.512-.677 1.512-1.512v-3.175c-.002-4.177-2.46-7.961-6.275-9.662l-7.333-3.266v-2.162c2.799-1.63 4.833-4.306 5.655-7.439h.393c2.505 0 4.536-2.03 4.536-4.536 0-2.505-2.03-4.536-4.536-4.536v-.272c1.138-.392 2.07-1.224 2.588-2.31.518-1.087.577-2.336.164-3.466zM18.598 49.647c.584.584 1.532.584 2.116 0l1.452 4.974h-5.02l1.452-4.974zm-.121-4.4l.604-1.21h1.15l.604 1.21-1.179 1.194-1.18-1.194zm2.328-4.234h-2.298l-1.875-.937v-.968c1.982.524 4.066.524 6.048 0v.968l-1.875.937zm5.927 7.484c.157.048.32.073.484.076.253.001.503-.061.726-.181.37-.207.638-.557.74-.968l.62-2.48 2.495 1.104c2.731 1.213 4.491 3.921 4.491 6.91v1.663H25.326l-2.162-7.318 3.568 1.194zm-3.538-5.292l1.028-.514 2.283.998-.363 1.422-2.388-.802-.56-1.104zm8.558-15.8v-3.024c.835 0 1.512.677 1.512 1.512s-.677 1.512-1.512 1.512zm-7.56-20.518c.866.377 1.655.91 2.328 1.573 1.052 1.041 1.768 2.374 2.057 3.825h-4.385V6.887zm-6.048-3.674h3.024v9.072h-3.024V3.213zM15.12 6.887v5.398h-4.385c.485-2.411 2.124-4.43 4.385-5.398zm-7.56 9.934c0-.835.677-1.512 1.512-1.512H30.24c.835 0 1.512.677 1.512 1.512s-.677 1.512-1.512 1.512H9.072c-.835 0-1.512-.677-1.512-1.512zm3.024 10.584v-6.048h18.144v6.048c0 5.01-4.062 9.072-9.072 9.072-5.01 0-9.072-4.062-9.072-9.072zm4.506 15.286l1.028.514-.56 1.104-2.388.802-.363-1.422 2.283-.998zM3.024 54.621v-1.663c0-2.989 1.76-5.697 4.49-6.91l2.495-1.104.62 2.48c.103.41.372.76.741.968.223.12.473.182.726.181.164-.003.327-.028.484-.076l3.568-1.194-2.162 7.318H3.024zm8.497 9.072H79.2l7.56 15.12H58.393l-2.615-5.216c-.253-.512-.775-.835-1.346-.832H36.288c-.57-.003-1.093.32-1.346.832l-2.615 5.216H3.96l7.56-15.12zm43.486 15.12H35.713l1.512-3.024h16.27l1.512 3.024zm32.689 7.56c0 .835-.677 1.512-1.512 1.512H4.536c-.835 0-1.512-.677-1.512-1.512v-4.536h84.672v4.536z" transform="translate(.333)"/>
            <path d="M12.096 72.765L15.12 72.765 15.12 75.789 12.096 75.789zM18.144 72.765L21.168 72.765 21.168 75.789 18.144 75.789zM69.552 72.765L72.576 72.765 72.576 75.789 69.552 75.789zM75.6 72.765L78.624 72.765 78.624 75.789 75.6 75.789zM19.656 66.717L22.68 66.717 22.68 69.741 19.656 69.741zM13.608 66.717L16.632 66.717 16.632 69.741 13.608 69.741zM25.704 66.717L28.728 66.717 28.728 69.741 25.704 69.741zM31.752 66.717L34.776 66.717 34.776 69.741 31.752 69.741zM37.8 66.717L40.824 66.717 40.824 69.741 37.8 69.741zM43.848 66.717L46.872 66.717 46.872 69.741 43.848 69.741zM49.896 66.717L52.92 66.717 52.92 69.741 49.896 69.741zM55.944 66.717L58.968 66.717 58.968 69.741 55.944 69.741zM61.992 66.717L65.016 66.717 65.016 69.741 61.992 69.741zM68.04 66.717L71.064 66.717 71.064 69.741 68.04 69.741zM74.088 66.717L77.112 66.717 77.112 69.741 74.088 69.741zM24.192 72.765L30.24 72.765 30.24 75.789 24.192 75.789zM60.48 72.765L66.528 72.765 66.528 75.789 60.48 75.789zM13.608 24.381L16.632 24.381 16.632 27.405 13.608 27.405zM22.68 24.381L25.704 24.381 25.704 27.405 22.68 27.405zM49.896 28.917h3.813c.16.45.343.89.55 1.32l-2.7 2.697c-.59.59-.59 1.548 0 2.138l4.278 4.278c.59.59 1.547.59 2.138 0l2.696-2.696c.43.205.871.388 1.321.547v3.812c0 .835.677 1.512 1.512 1.512h6.048c.835 0 1.512-.677 1.512-1.512V37.2c.45-.16.89-.342 1.321-.548l2.696 2.698c.59.59 1.548.59 2.138 0l4.278-4.278c.59-.59.59-1.547 0-2.138l-2.698-2.697c.206-.43.388-.87.548-1.32h3.813c.835 0 1.512-.677 1.512-1.512v-6.048c0-.835-.677-1.512-1.512-1.512h-3.813c-.16-.45-.343-.89-.55-1.32l2.7-2.697c.59-.59.59-1.548 0-2.138l-4.278-4.278c-.59-.59-1.547-.59-2.138 0l-2.696 2.698c-.43-.206-.871-.389-1.321-.548V7.75c0-.835-.677-1.512-1.512-1.512h-6.048c-.835 0-1.512.677-1.512 1.512v3.813c-.45.16-.89.342-1.321.548l-2.696-2.698c-.59-.59-1.548-.59-2.138 0l-4.278 4.278c-.59.59-.59 1.547 0 2.138l2.698 2.697c-.206.43-.39.87-.55 1.32h-3.811c-.835 0-1.512.677-1.512 1.512v6.048c0 .835.677 1.512 1.512 1.512zm1.512-6.048h3.42c.689 0 1.29-.467 1.462-1.134.249-.955.629-1.871 1.13-2.722.35-.594.253-1.35-.235-1.837l-2.419-2.419 2.138-2.138 2.42 2.42c.487.488 1.245.584 1.84.232.85-.501 1.766-.88 2.721-1.128.667-.172 1.133-.773 1.134-1.462v-3.42h3.024v3.42c0 .689.467 1.29 1.134 1.462.955.247 1.872.627 2.722 1.128.594.352 1.352.256 1.84-.233l2.419-2.419 2.138 2.138-2.42 2.42c-.487.487-.584 1.242-.234 1.836.501.85.881 1.767 1.13 2.722.172.667.773 1.133 1.462 1.134h3.414v3.024h-3.42c-.689 0-1.29.467-1.462 1.134-.249.955-.629 1.871-1.13 2.722-.35.594-.253 1.35.235 1.837l2.419 2.419-2.138 2.138-2.42-2.42c-.487-.488-1.245-.584-1.84-.232-.85.501-1.766.88-2.721 1.128-.667.172-1.133.773-1.134 1.462v3.42h-3.021v-3.42c0-.689-.467-1.29-1.134-1.462-.955-.247-1.872-.627-2.722-1.128-.594-.352-1.352-.256-1.84.233l-2.419 2.419-2.138-2.138 2.42-2.42c.487-.487.584-1.242.234-1.836-.501-.85-.881-1.767-1.13-2.722-.172-.667-.773-1.133-1.462-1.134h-3.417v-3.024z" transform="translate(.333)"/>
            <path d="M66.528 31.941c4.175 0 7.56-3.385 7.56-7.56s-3.385-7.56-7.56-7.56-7.56 3.385-7.56 7.56c.005 4.173 3.387 7.555 7.56 7.56zm0-12.096c2.505 0 4.536 2.03 4.536 4.536 0 2.505-2.03 4.536-4.536 4.536-2.505 0-4.536-2.03-4.536-4.536 0-2.505 2.03-4.536 4.536-4.536z" transform="translate(.333)"/>
        </g>
    </g>
</svg>
