<svg xmlns="http://www.w3.org/2000/svg" width="100" height="100" viewBox="0 0 100 100">
    <g fill="#647B8E">
        <path d="M29.931 58.069L27.669 60.331 35.307 67.97 52.429 47.424 49.971 45.376 35.093 63.23zM11.2 16c2.646 0 4.8-2.154 4.8-4.8s-2.154-4.8-4.8-4.8-4.8 2.154-4.8 4.8S8.554 16 11.2 16zm0-6.4c.882 0 1.6.718 1.6 1.6 0 .882-.718 1.6-1.6 1.6-.882 0-1.6-.718-1.6-1.6 0-.882.718-1.6 1.6-1.6zM24 16c2.646 0 4.8-2.154 4.8-4.8S26.646 6.4 24 6.4s-4.8 2.154-4.8 4.8S21.354 16 24 16zm0-6.4c.882 0 1.6.718 1.6 1.6 0 .882-.718 1.6-1.6 1.6-.882 0-1.6-.718-1.6-1.6 0-.882.718-1.6 1.6-1.6zM36.8 16c2.646 0 4.8-2.154 4.8-4.8s-2.154-4.8-4.8-4.8S32 8.554 32 11.2s2.154 4.8 4.8 4.8zm0-6.4c.882 0 1.6.718 1.6 1.6 0 .882-.718 1.6-1.6 1.6-.882 0-1.6-.718-1.6-1.6 0-.882.718-1.6 1.6-1.6z"/>
        <path d="M99.2 40c0-10.93-8.478-19.898-19.2-20.718V4.8C80 2.154 77.846 0 75.2 0H4.8C2.154 0 0 2.154 0 4.8v89.6c0 2.646 2.154 4.8 4.8 4.8h73.6c4.411 0 8-3.589 8-8v-24c0-1.765-1.435-3.2-3.2-3.2v-3.78c9.158-2.177 16-10.406 16-20.22zM96 40c0 9.704-7.896 17.6-17.6 17.6S60.8 49.704 60.8 40s7.896-17.6 17.6-17.6S96 30.296 96 40zm-38.216 2.627c.389 3.06 1.443 5.909 3.016 8.407v4.262c0 12.934-8.531 24.322-20.8 27.842-12.269-3.52-20.8-14.906-20.8-27.842V43.042c7.72-.872 14.707-2.901 20.8-6.037 5.293 2.726 11.27 4.606 17.784 5.622zm-.152-3.264c-6.216-1.033-11.89-2.899-16.875-5.574L40 33.384l-.757.405c-6.265 3.361-13.598 5.453-21.792 6.217L16 40.141v15.155c0 14.523 9.698 27.291 23.582 31.046l.418.114.418-.114C54.302 82.586 64 69.82 64 55.296v-.323c.954.918 1.994 1.745 3.109 2.469C66.168 72.938 55.168 86.027 40 89.557c-16.034-3.728-27.2-17.765-27.2-34.263V36.792c9.602-.122 18.97-2.782 27.2-7.718 5.576 3.347 11.627 5.622 18.013 6.801-.227 1.133-.344 2.301-.381 3.488zM4.8 3.2h70.4c.882 0 1.6.718 1.6 1.6v14.4H3.2V4.8c0-.882.718-1.6 1.6-1.6zM3.2 94.4v-72h64.165c-3.85 2.422-6.843 6.064-8.45 10.387-6.433-1.147-12.509-3.47-18.069-6.944l-.848-.53-.848.53C31.03 30.918 21.678 33.6 12.104 33.6H9.6v21.698c0 18.126 12.358 33.532 30.053 37.464l.347.076.347-.076c16.261-3.613 28.216-17.272 29.84-33.66 1.091.47 2.235.837 3.413 1.116V64c-1.765 0-3.2 1.435-3.2 3.2v24c0 1.808.626 3.46 1.642 4.8H4.8c-.882 0-1.6-.718-1.6-1.6zm80-27.2v3.2h-9.6v-3.2h9.6zM78.4 96c-2.646 0-4.8-2.154-4.8-4.8V73.6h9.6v17.6c0 2.646-2.154 4.8-4.8 4.8zM80 64h-3.2v-3.282c.53.04 1.06.082 1.6.082s1.07-.04 1.6-.082V64z"/>
        <path d="M76.8 38.4L80 38.4 80 41.6 76.8 41.6zM83.2 38.4L86.4 38.4 86.4 41.6 83.2 41.6zM70.4 38.4L73.6 38.4 73.6 41.6 70.4 41.6z"/>
    </g>
</svg>
