<svg xmlns="http://www.w3.org/2000/svg" xmlns:xlink="http://www.w3.org/1999/xlink" width="80.933" height="88.514" viewBox="0 0 80.933 88.514">
  <defs>
    <clipPath id="clip-path">
      <path id="Clip_2" data-name="Clip 2" d="M0,0H80.933V88.514H0Z" transform="translate(0 0.486)" fill="none"/>
    </clipPath>
  </defs>
  <g id="Group_21" data-name="Group 21" transform="translate(0 -0.486)">
    <path id="Fill_4_Copy" data-name="Fill 4 Copy" d="M2.233,1.023c.117-.035.287-.1.5-.154C3.172.744,3.792.591,4.537.456S6.149.2,7.079.123C7.545.084,8.025.048,8.514.032S9.5.006,9.995,0s.993.009,1.481.032.97.049,1.435.09c.931.078,1.8.195,2.543.328s1.365.283,1.8.406c.217.054.388.117.5.151l.178.061c1.426.489,2.32,2.643,2,4.81a3.623,3.623,0,0,1-2,3.038l-.178.061c-.116.034-.287.1-.5.151-.434.124-1.055.276-1.8.409s-1.612.253-2.543.334c-.465.041-.946.073-1.434.092S10.5,9.995,10,10s-.992-.005-1.481-.028-.969-.051-1.434-.088c-.93-.077-1.8-.194-2.543-.328a18.21,18.21,0,0,1-1.8-.409c-.217-.055-.388-.118-.5-.153l-.178-.061C.634,8.438-.258,6.28.067,4.113A3.625,3.625,0,0,1,2.055,1.085Z" transform="translate(36 36)" fill="#fc9"/>
    <g id="Group_10" data-name="Group 10">
      <g id="Group_3" data-name="Group 3">
        <path id="Clip_2-2" data-name="Clip 2" d="M0,0H80.933V88.514H0Z" transform="translate(0 0.486)" fill="none"/>
        <g id="Group_3-2" data-name="Group 3" clip-path="url(#clip-path)">
          <path id="Fill_1" data-name="Fill 1" d="M22.02,88.514a13.261,13.261,0,0,1-5.492-1.149A8.312,8.312,0,0,1,20.45,83.97a64.881,64.881,0,0,1,4.517-11.4c-2.176,1.221-4.206,2.314-6.2,3.343a4.808,4.808,0,0,1-2.19.527,4.874,4.874,0,0,1-.991-.1l-.017,0a10.635,10.635,0,0,1-1.478-.426,1.049,1.049,0,0,1-.694-.942,1.063,1.063,0,0,1,.6-1.022c1.483-.731,2.988-1.5,4.473-2.281,2.688-1.414,5.457-2.958,8.23-4.59l.079-.047L26.821,67a1.558,1.558,0,0,1,.039-1.489,1.555,1.555,0,0,1,.361-1.2c.313-4.77.429-8.331.43-8.366a16.851,16.851,0,0,1-7.989,2.194c-8.326,0-13.619-7.5-15.044-9.8A7.3,7.3,0,0,1,.7,46.093c-.657-.787-.871-1.538-.557-1.96A2.461,2.461,0,0,1,.97,43.4a1.071,1.071,0,0,1,.372-.146,1.185,1.185,0,0,1,.231-.034A2.3,2.3,0,0,1,3.6,41.451a.146.146,0,0,1,.006-.018c.009-.027.026-.078.048-.141a2.356,2.356,0,0,1,.144-.319l.007-.014.008-.015.007-.013a.124.124,0,0,1,.008-.014A1.669,1.669,0,0,1,5.115,39.9a1.011,1.011,0,0,1,.657.269A5.622,5.622,0,0,1,7.2,42.488l.008-.006a6.044,6.044,0,0,1,2.336-.841.743.743,0,0,1,.7.326c.725,1.233-1.652,2.824-1.676,2.84a3.116,3.116,0,0,1-.293.987c3.292,3.115,6.614,4.695,9.874,4.695a10.766,10.766,0,0,0,5.938-1.852,14.024,14.024,0,0,0,2.024-1.613,22.213,22.213,0,0,1-3.178-1.4c-7.028-3.815-10.595-11.048-10.6-21.5-.007-9.672,4.4-16.887,12.735-20.867A36.935,36.935,0,0,1,40,0c.2,0,.35,0,.438,0,.04,0,.186-.005.408-.005h.011A37.327,37.327,0,0,1,55.274,3c8.678,3.915,13.269,11.2,13.275,21.083a32.111,32.111,0,0,1-1.789,11.2l.011,0,.148,0a6.068,6.068,0,0,1,3.642,1.3,2.059,2.059,0,0,1-.161.286l-.076.1-.141.193c-.208.288-.426.58-.667.895-.543.711-1.146,1.453-1.792,2.206-.281.327-.541.623-.793.9-.653.728-1.334,1.458-2.027,2.17-.324.333-.64.648-.906.913-1.724,1.708-3.125,2.936-3.648,3.385a4.3,4.3,0,0,1,1.07,2.726,10.061,10.061,0,0,0,1.335.089c3.269,0,6.6-1.59,9.9-4.725a3.087,3.087,0,0,1-.287-.969c-.1-.066-2.39-1.629-1.679-2.838a.745.745,0,0,1,.7-.327,6.193,6.193,0,0,1,2.343.843v-.007a5.575,5.575,0,0,1,1.424-2.316,1.01,1.01,0,0,1,.657-.269A1.671,1.671,0,0,1,77.1,40.865l0,.007,0,.007c.007.012.014.025.021.038l.012.023a2.718,2.718,0,0,1,.135.3c.034.093.055.161.055.161a2.318,2.318,0,0,1,2.028,1.766h.005a1.251,1.251,0,0,1,.224.034,1.212,1.212,0,0,1,.378.142,2.551,2.551,0,0,1,.827.735c.314.422.1,1.173-.555,1.96A7.3,7.3,0,0,1,76.289,48.3c-1.422,2.3-6.713,9.808-15.044,9.809a16.855,16.855,0,0,1-7.973-2.183c0,.015.123,3.6.443,8.366a.887.887,0,0,1,.468,1.025,2.379,2.379,0,0,1-.243,2.052c.045.583.087,1.107.129,1.6a73.406,73.406,0,0,1,6.446,14.971,8.334,8.334,0,0,1,3.926,3.389h0l-.005,0a13.355,13.355,0,0,1-5.5,1.152,13.538,13.538,0,0,1-2.529-.238,13.72,13.72,0,0,1-3.11-.991A20.532,20.532,0,0,0,40.475,73.987a20.532,20.532,0,0,0-12.8,13.288A13.483,13.483,0,0,1,22.02,88.514Zm16.021-49.3a5.046,5.046,0,0,0,.249.818,7.282,7.282,0,0,0,1.229,2.021,7.407,7.407,0,0,0,4.4,2.555l.928.1c.122.005.245.008.367.008a8.427,8.427,0,0,0,1.61-.158,11.061,11.061,0,0,0,2.6-.869,9.28,9.28,0,0,0,3-2.259,10.558,10.558,0,0,0,1.526-2.273,3.785,3.785,0,0,1-.975-2,36.253,36.253,0,0,1-12.589,2.138c-1.432,0-2.332-.078-2.341-.079Z" transform="translate(0 0.486)" fill="#633ba1"/>
        </g>
      </g>
      <path id="Fill_4" data-name="Fill 4" d="M5.052,1.554C5.316,1.5,5.7,1.4,6.193,1.32,7.175,1.13,8.578.9,10.263.693S13.91.307,16.014.186c1.054-.058,2.14-.113,3.245-.138S21.488.009,22.61,0c1.123.008,2.246.014,3.351.049s2.194.075,3.245.137c2.1.118,4.07.3,5.754.5s3.088.43,4.07.617c.492.082.878.177,1.141.229l.4.093A6.118,6.118,0,0,1,45.1,8.932a6.059,6.059,0,0,1-4.514,4.616l-.4.093c-.263.052-.649.148-1.14.23-.983.188-2.386.419-4.07.622s-3.648.385-5.753.508c-1.051.063-2.14.111-3.245.14s-2.227.045-3.351.054-2.245-.008-3.35-.043-2.192-.077-3.245-.134c-2.1-.117-4.069-.294-5.753-.5S7.185,14.089,6.2,13.9c-.491-.083-.878-.179-1.142-.232l-.4-.093A6.122,6.122,0,0,1,.151,6.25a6.061,6.061,0,0,1,4.5-4.6Z" transform="translate(17.514 19.537)" fill="#fc9"/>
      <path id="Fill_6" data-name="Fill 6" d="M0,4.878l.092-.17C.15,4.6.232,4.453.349,4.273a9.6,9.6,0,0,1,1.1-1.4A9.77,9.77,0,0,1,3.438,1.246,9.385,9.385,0,0,1,4.783.577,8.387,8.387,0,0,1,6.3.138,7.447,7.447,0,0,1,7.888,0a7.688,7.688,0,0,1,1.52.161,8.294,8.294,0,0,1,1.345.389,8.645,8.645,0,0,1,1.115.506,7.914,7.914,0,0,1,.867.525,6.31,6.31,0,0,1,.622.453c.329.267.507.427.507.427l-1,1.395s-.2-.084-.536-.242c-.166-.085-.376-.166-.609-.265s-.5-.2-.785-.307c-.141-.059-.3-.093-.449-.145A4.732,4.732,0,0,0,10,2.76a9.9,9.9,0,0,0-1.032-.207,8.332,8.332,0,0,0-1.091-.07,4.364,4.364,0,0,0-.554.032c-.186.01-.369.041-.554.068a6.508,6.508,0,0,0-1.084.287,6.788,6.788,0,0,0-1.02.437,9.561,9.561,0,0,0-.92.537c-.281.2-.553.38-.788.574A13.206,13.206,0,0,0,1.852,5.4c-.124.124-.221.223-.287.29l-.089.095Z" transform="translate(45.243 24.602)" fill="#141719"/>
      <path id="Fill_8" data-name="Fill 8" d="M13.865,4.874l-.093-.17c-.058-.106-.14-.255-.256-.435a9.675,9.675,0,0,0-1.1-1.4,9.787,9.787,0,0,0-1.993-1.628A9.468,9.468,0,0,0,9.078.573,8.452,8.452,0,0,0,7.559.136,7.514,7.514,0,0,0,5.973,0,7.724,7.724,0,0,0,4.452.166,8.325,8.325,0,0,0,3.109.558a8.66,8.66,0,0,0-1.114.507,8.03,8.03,0,0,0-.866.527,6.342,6.342,0,0,0-.62.455C.179,2.314,0,2.475,0,2.475l1,1.4s.2-.084.536-.244c.166-.084.375-.166.608-.266s.5-.2.784-.307c.142-.06.3-.094.45-.147a4.662,4.662,0,0,1,.478-.14,10.272,10.272,0,0,1,1.032-.209,8.467,8.467,0,0,1,1.089-.071,4.34,4.34,0,0,1,.554.031c.187.01.37.041.556.068a6.537,6.537,0,0,1,1.084.286A6.734,6.734,0,0,1,9.2,3.308a9.092,9.092,0,0,1,.92.537c.281.2.555.379.788.573a13.023,13.023,0,0,1,1.108.985c.125.123.222.223.289.29l.089.095Z" transform="translate(21.892 24.602)" fill="#141719"/>
    </g>
  </g>
</svg>
