<svg xmlns="http://www.w3.org/2000/svg" xmlns:xlink="http://www.w3.org/1999/xlink" width="215" height="215" viewBox="0 0 215 215"><defs><style>.a{fill:url(#a);}.b{fill:#fff;}.c{filter:url(#b);}</style><linearGradient id="a" x1="0.247" y1="0.081" x2="1" y2="1" gradientUnits="objectBoundingBox"><stop offset="0" stop-color="#d2c699"/><stop offset="1" stop-color="#ad8d47"/></linearGradient><filter id="b" x="0" y="0" width="215" height="215" filterUnits="userSpaceOnUse"><feOffset input="SourceAlpha"/><feGaussianBlur stdDeviation="12.5" result="c"/><feFlood flood-color="#fff" flood-opacity="0.6"/><feComposite operator="in" in2="c"/><feComposite in="SourceGraphic"/></filter></defs><g transform="translate(-363 -5458.5)"><g class="c" transform="matrix(1, 0, 0, 1, 363, 5458.5)"><circle class="a" cx="70" cy="70" r="70" transform="translate(37.5 37.5)"/></g><g transform="translate(449.808 5540.025)"><path class="b" d="M18.637,27.267a5.009,5.009,0,0,1-3.016-9.015A1.092,1.092,0,0,1,16.925,20,2.775,2.775,0,0,0,15.8,22.249a2.837,2.837,0,0,0,2.834,2.834,1.092,1.092,0,1,1,0,2.183Z" transform="translate(-8.792 -2.503)"/><path class="b" d="M37.878,27.262a1.092,1.092,0,1,1,0-2.184,2.832,2.832,0,0,0,1.771-5.044,1.093,1.093,0,0,1,1.363-1.708,5.017,5.017,0,0,1-3.134,8.937Z" transform="translate(-6.658 -2.498)"/><path class="b" d="M28.934,36.732c-.293,0-.586-.012-.881-.034a11.3,11.3,0,0,1-9.555-7.14,11.871,11.871,0,0,1-.884-4.5V17.4H19.8v7.659a9.692,9.692,0,0,0,.722,3.679,9.113,9.113,0,0,0,17.6-3.343V17.4H40.3V25.39A11.332,11.332,0,0,1,28.934,36.732Z" transform="translate(-8.424 -2.562)"/><path class="b" d="M10.291,53.993A1.092,1.092,0,0,1,9.2,52.9V46.318a6.325,6.325,0,0,1,4.52-6.09l9.088-2.748A1.534,1.534,0,0,0,23.9,36V33.675a1.092,1.092,0,0,1,2.184,0V36a3.706,3.706,0,0,1-2.648,3.568l-9.087,2.748a4.156,4.156,0,0,0-2.968,4V52.9a1.092,1.092,0,0,1-1.092,1.092Z" transform="translate(-9.199 -1.163)"/><path class="b" d="M47.133,53.993A1.091,1.091,0,0,1,46.041,52.9V46.318a4.155,4.155,0,0,0-2.969-4l-9.086-2.748A3.7,3.7,0,0,1,31.336,36V33.675a1.092,1.092,0,0,1,2.184,0V36a1.534,1.534,0,0,0,1.1,1.478L43.7,40.229a6.325,6.325,0,0,1,4.521,6.089V52.9a1.092,1.092,0,0,1-1.092,1.092Z" transform="translate(-7.16 -1.163)"/><path class="b" d="M16.87,53.365a1.092,1.092,0,0,1-1.012-1.5,14.634,14.634,0,0,0,0-10.956,1.092,1.092,0,1,1,2.026-.815,16.8,16.8,0,0,1,0,12.585,1.092,1.092,0,0,1-1.013.685Z" transform="translate(-8.593 -0.535)"/><path class="b" d="M39.411,53.365A1.093,1.093,0,0,1,38.4,52.68a16.8,16.8,0,0,1,0-12.585,1.092,1.092,0,1,1,2.027.815,14.623,14.623,0,0,0,0,10.956,1.092,1.092,0,0,1-.606,1.421,1.115,1.115,0,0,1-.407.079Z" transform="translate(-6.623 -0.535)"/><path class="b" d="M28.754,45.893a9.383,9.383,0,0,1-9.027-6.684,1.092,1.092,0,1,1,2.089-.636,7.252,7.252,0,0,0,11.991,3.083,1.092,1.092,0,0,1,1.522,1.566A9.381,9.381,0,0,1,28.754,45.893Z" transform="translate(-8.234 -0.683)"/><path class="b" d="M39.208,19.366h-20.5a1.092,1.092,0,0,1-1.092-1.092V13.658a1.092,1.092,0,0,1,1.092-1.092h20.5A1.092,1.092,0,0,1,40.3,13.658v4.616A1.091,1.091,0,0,1,39.208,19.366ZM19.8,17.182H38.115V14.75H19.8Z" transform="translate(-8.424 -3.007)"/><path class="b" d="M39.178,15.556a1.092,1.092,0,0,1-1.092-1.092V12.9a3.251,3.251,0,0,0-1-2.03,1.092,1.092,0,0,1-.09-1.545,2.759,2.759,0,0,0,.372-2.821C33.9,8.343,27.051,8.828,23.074,8.658a3.2,3.2,0,0,0-3.045,1.9,1.092,1.092,0,0,1-2-.876,5.319,5.319,0,0,1,5.135-3.2c5.082.206,12.046-.722,13.92-2.387A1.092,1.092,0,0,1,38.72,4.3c.09.137,1.981,3.061.485,5.679A4.905,4.905,0,0,1,40.271,12.9v1.56A1.094,1.094,0,0,1,39.178,15.556Z" transform="translate(-8.394 -3.813)"/></g></g></svg>