<svg xmlns="http://www.w3.org/2000/svg" width="49" height="49" viewBox="0 0 49 49">
    <g fill="#FFF" stroke="#FFF" stroke-width=".5">
        <path d="M20.25 40.588v-12.02c0-.415-.336-.75-.75-.75h-5c-.414 0-.75.335-.75.75 0 .414.336.75.75.75h4.25v11.27c-1.431.34-2.5 1.628-2.5 3.162 0 1.792 1.458 3.25 3.25 3.25s3.25-1.458 3.25-3.25c0-1.534-1.068-2.822-2.5-3.162h0zM19.5 45.5c-.965 0-1.75-.785-1.75-1.75S18.535 42 19.5 42s1.75.785 1.75 1.75-.785 1.75-1.75 1.75zM28.25 40.588v-12.02c0-.415-.336-.75-.75-.75h-5c-.414 0-.75.335-.75.75 0 .414.336.75.75.75h4.25v11.27c-1.431.34-2.5 1.628-2.5 3.162 0 1.792 1.458 3.25 3.25 3.25s3.25-1.458 3.25-3.25c0-1.534-1.068-2.822-2.5-3.162h0zM27.5 45.5c-.965 0-1.75-.785-1.75-1.75S26.535 42 27.5 42s1.75.785 1.75 1.75-.785 1.75-1.75 1.75zM41 35.5c-1.534 0-2.822 1.069-3.162 2.5H36.25v-9.432c0-.415-.336-.75-.75-.75h-5c-.414 0-.75.335-.75.75 0 .414.336.75.75.75h4.25v9.432c0 .414.336.75.75.75h2.338c.34 1.432 1.628 2.5 3.162 2.5 1.792 0 3.25-1.458 3.25-3.25S42.792 35.5 41 35.5zm0 5c-.965 0-1.75-.785-1.75-1.75S40.035 37 41 37s1.75.785 1.75 1.75-.785 1.75-1.75 1.75z" transform="translate(1 1)"/>
        <path d="M45.214 16.156c-1.01-1.255-2.384-2.185-3.911-2.66-.172-3.55-1.645-6.862-4.184-9.38C34.442 1.462 30.892 0 27.123 0c-4.95 0-9.531 2.581-12.107 6.779-.626-.198-1.277-.297-1.943-.297-3.064 0-5.699 2.162-6.334 5.11C2.804 12.612 0 16.199 0 20.31c0 4.967 4.04 9.008 9.007 9.008h1.743V38H9.162c-.34-1.431-1.628-2.5-3.162-2.5-1.792 0-3.25 1.458-3.25 3.25S4.208 42 6 42c1.534 0 2.822-1.068 3.162-2.5H11.5c.414 0 .75-.336.75-.75V28.568c0-.415-.336-.75-.75-.75H9.007c-4.14 0-7.507-3.368-7.507-7.508 0-3.572 2.54-6.669 6.038-7.363.316-.062.556-.319.598-.638.323-2.467 2.445-4.327 4.937-4.327.685 0 1.35.137 1.975.408.355.153.768.012.955-.326C18.24 4.015 22.502 1.5 27.123 1.5c6.938 0 12.634 5.644 12.696 12.581.003.347.244.646.581.724 3.003.695 5.1 3.335 5.1 6.42 0 3.635-2.957 6.593-6.592 6.593H38.5c-.414 0-.75.335-.75.75 0 .414.336.75.75.75h.408c4.462 0 8.092-3.63 8.092-8.093 0-1.84-.634-3.64-1.786-5.07zM6 40.5c-.965 0-1.75-.785-1.75-1.75S5.035 37 6 37s1.75.785 1.75 1.75S6.965 40.5 6 40.5z" transform="translate(1 1)"/>
        <path d="M36.57 14.86h.006c.414-.003.747-.342.743-.756-.01-1.236-.244-2.445-.693-3.593-.15-.386-.585-.577-.971-.426-.386.15-.577.585-.426.971.382.979.58 2.009.59 3.061.004.412.34.744.75.744h0zM33.828 8.676c.148.18.362.272.578.272.169 0 .338-.056.478-.172.319-.264.364-.736.1-1.056C33.031 5.356 30.166 4 27.123 4c-.415 0-.75.336-.75.75s.335.75.75.75c2.594 0 5.038 1.157 6.705 3.176h0z" transform="translate(1 1)"/>
    </g>
</svg>
