<svg xmlns="http://www.w3.org/2000/svg" width="80.351" height="80.351" viewBox="0 0 80.351 80.351"><defs><style>.a{fill:#23255f;}</style></defs><path class="a" d="M72.575,43.454V18.04A9.067,9.067,0,1,0,62.207,9.072H0v51.84H38.946a20.722,20.722,0,1,0,33.63-17.457Zm-1.3-40.862a6.48,6.48,0,1,1-6.48,6.48A6.487,6.487,0,0,1,71.279,2.592ZM2.592,11.664h60A9.064,9.064,0,0,0,64.024,14.5L56.1,22.422a3.752,3.752,0,0,0-3.332,0L50.155,19.81a3.852,3.852,0,0,0,.389-1.667,3.888,3.888,0,0,0-7.776,0,3.823,3.823,0,0,0,.39,1.665l-6.5,6.5a3.852,3.852,0,0,0-1.667-.389,3.888,3.888,0,1,0,3.888,3.888,3.823,3.823,0,0,0-.39-1.665l6.5-6.5a3.758,3.758,0,0,0,3.332,0l2.611,2.611a3.852,3.852,0,0,0-.389,1.667,3.888,3.888,0,1,0,7.776,0,3.824,3.824,0,0,0-.39-1.665l7.928-7.926a9.018,9.018,0,0,0,4.126,1.713V41.687a20.61,20.61,0,0,0-25.92,4.26V40.176H36.288V55.727h2.97a20.748,20.748,0,0,0-.312,2.592H2.592Zm51.84,12.96a1.3,1.3,0,1,1-1.3,1.3A1.3,1.3,0,0,1,54.431,24.624Zm-9.072-6.48a1.3,1.3,0,1,1,1.3,1.3A1.3,1.3,0,0,1,45.36,18.144ZM36.288,29.808a1.3,1.3,0,1,1-1.3-1.3A1.3,1.3,0,0,1,36.288,29.808ZM59.615,69.983A10.368,10.368,0,1,1,69.983,59.615,10.38,10.38,0,0,1,59.615,69.983ZM41.472,49.6a20.582,20.582,0,0,0-1.541,3.537H38.88V42.768h2.592Zm16.848-8.061v5.184A12.933,12.933,0,0,0,47.81,64.934l-4.5,2.6A18.082,18.082,0,0,1,58.319,41.538Zm1.3,36.221A18.135,18.135,0,0,1,44.6,69.783l4.514-2.606a12.917,12.917,0,0,0,21.008,0l4.514,2.606a18.135,18.135,0,0,1-15.018,7.977Zm16.3-10.229-4.5-2.6A12.933,12.933,0,0,0,60.911,46.722V41.538A18.082,18.082,0,0,1,75.916,67.53Z"/><path class="a" d="M38.88,31.1a7.776,7.776,0,1,0,7.776,7.776A7.784,7.784,0,0,0,38.88,31.1Zm0,12.96a5.184,5.184,0,1,1,5.184-5.184A5.189,5.189,0,0,1,38.88,44.064Z" transform="translate(20.736 20.736)"/><path class="a" d="M3.11,8.554H5.7v2.592H3.11Z" transform="translate(2.074 5.702)"/><path class="a" d="M6.221,8.554H24.365v2.592H6.221Z" transform="translate(4.147 5.702)"/><path class="a" d="M3.11,11.664H5.7v2.592H3.11Z" transform="translate(2.074 7.776)"/><path class="a" d="M6.221,11.664H24.365v2.592H6.221Z" transform="translate(4.147 7.776)"/><path class="a" d="M3.11,14.774H5.7v2.592H3.11Z" transform="translate(2.074 9.849)"/><path class="a" d="M6.221,14.774H24.365v2.592H6.221Z" transform="translate(4.147 9.849)"/><path class="a" d="M3.11,17.885H5.7v2.592H3.11Z" transform="translate(2.074 11.923)"/><path class="a" d="M6.221,17.885H24.365v2.592H6.221Z" transform="translate(4.147 11.923)"/><path class="a" d="M3.11,38.621h7.776V25.661H3.11ZM5.7,28.253H8.294v7.776H5.7Z" transform="translate(2.074 17.107)"/><path class="a" d="M9.331,37.584h7.776V27.216H9.331Zm2.592-7.776h2.592v5.184H11.923Z" transform="translate(6.221 18.144)"/><path class="a" d="M15.552,41.731h7.776V21H15.552Zm2.592-18.144h2.592V39.139H18.144Z" transform="translate(10.368 13.996)"/></svg>