<svg xmlns="http://www.w3.org/2000/svg" width="74.406" height="74.4" viewBox="0 0 74.406 74.4"><defs><style>.a{fill:#23255f;}</style></defs><g transform="translate(-0.147)"><path class="a" d="M40.95,8.4a3.6,3.6,0,1,0-3.6,3.6A3.6,3.6,0,0,0,40.95,8.4Zm-4.8,0a1.2,1.2,0,1,1,1.2,1.2A1.2,1.2,0,0,1,36.15,8.4Z"/><path class="a" d="M6.75,48.48A3.6,3.6,0,1,0,11.668,49.8,3.607,3.607,0,0,0,6.75,48.48Zm2.4,4.158A1.2,1.2,0,1,1,9.588,51,1.2,1.2,0,0,1,9.15,52.638Z"/><path class="a" d="M67.95,48.48a3.6,3.6,0,0,0-3.6,6.238h0a3.6,3.6,0,0,0,3.6-6.238ZM67.19,52.2a1.2,1.2,0,1,1-.439-1.639A1.2,1.2,0,0,1,67.19,52.2Z"/><path class="a" d="M70.351,44.324a8.392,8.392,0,0,0-11.1,2.486l-8.7-4.354V31.942l13.3-6.65A5.941,5.941,0,0,0,67,27.395a6,6,0,1,0-4.243-7.348,5.932,5.932,0,0,0,.022,3.1L50.55,29.258V21.6h-12V16.7a8.4,8.4,0,1,0-2.4,0v4.9h-12v7.657L11.924,23.144A5.979,5.979,0,0,0,4.6,15.805a6,6,0,1,0,6.253,9.486l13.3,6.649V42.456l-8.706,4.352a8.385,8.385,0,1,0,1.076,2.144l7.63-3.812V52.8h12v9.721a6,6,0,1,0,2.4,0V52.8h12V45.14l7.627,3.814a8.4,8.4,0,1,0,12.174-4.63ZM65.072,20.669a3.6,3.6,0,1,1,.36,2.731A3.579,3.579,0,0,1,65.072,20.669ZM31.35,8.4a6,6,0,1,1,6,6,6.007,6.007,0,0,1-6-6ZM9.268,23.4a3.6,3.6,0,1,1,.36-2.731A3.6,3.6,0,0,1,9.268,23.4Zm2.281,33.395a6,6,0,1,1,2.2-8.2A6.006,6.006,0,0,1,11.549,56.795ZM40.95,68.4a3.6,3.6,0,1,1-3.6-3.6A3.6,3.6,0,0,1,40.95,68.4Zm7.2-18H26.55V24h21.6Zm23.2,4.2a6,6,0,1,1-2.2-8.2A6,6,0,0,1,71.347,54.6Z"/><path class="a" d="M45.75,36h-7.2v2.4h-4.8v2.4h-4.8V48h16.8Zm-14.4,7.2h2.4v2.4h-2.4Zm4.8,2.4V40.8h2.4v4.8Zm7.2,0h-2.4V38.4h2.4Z"/><path class="a" d="M28.95,26.4h2.4v2.4h-2.4Z"/><path class="a" d="M33.75,26.4h12v2.4h-12Z"/><path class="a" d="M28.95,31.2h16.8v2.4H28.95Z"/></g></svg>