<svg xmlns="http://www.w3.org/2000/svg" xmlns:xlink="http://www.w3.org/1999/xlink" width="648" height="592" viewBox="0 0 648 592">
  <defs>
    <clipPath id="clip-path">
      <rect id="Rectangle_Copy_16" data-name="Rectangle Copy 16" width="648" height="592" fill="#fff"/>
    </clipPath>
  </defs>
  <g id="Group_9" data-name="Group 9" clip-path="url(#clip-path)">
    <g id="Group_3" data-name="Group 3" transform="translate(80 58)">
      <text id="Your_name" data-name="Your name" fill="#2a2c39" font-size="21" font-family="Roboto-Bold, Roboto" font-weight="700"><tspan x="0" y="22">Your name</tspan></text>
      <text id="Add_your_name" data-name="Add your name" transform="translate(0 28)" fill="#2a2c39" font-size="16" font-family="Roboto-Regular, Roboto" opacity="0.4"><tspan x="0" y="17">Add your name</tspan></text>
      <path id="Line_10_Copy" data-name="Line 10 Copy" d="M0,.5H472" transform="translate(0 57)" fill="none" stroke="#979797" stroke-linecap="square" stroke-miterlimit="10" stroke-width="1" opacity="0.3"/>
    </g>
    <g id="Group_7" data-name="Group 7" transform="translate(80 142)">
      <text id="How_we_can_reach_you" data-name="How we can reach you" fill="#2a2c39" font-size="21" font-family="Roboto-Bold, Roboto" font-weight="700"><tspan x="0" y="22">How we can reach you?</tspan></text>
      <text id="Add_your_email_or_ph" data-name="Add your email or ph" transform="translate(0 27)" fill="#2a2c39" font-size="16" font-family="Roboto-Regular, Roboto" opacity="0.4"><tspan x="0" y="17">Add your email or phone number </tspan></text>
      <path id="Line_10_Copy_2" data-name="Line 10 Copy 2" d="M0,.5H472" transform="translate(0 57)" fill="none" stroke="#979797" stroke-linecap="square" stroke-miterlimit="10" stroke-width="1" opacity="0.3"/>
    </g>
    <g id="Group_7_Copy" data-name="Group 7 Copy" transform="translate(80 225)">
      <text id="Anything_you_want_to" data-name="Anything you want to" fill="#2a2c39" font-size="21" font-family="Roboto-Bold, Roboto" font-weight="700"><tspan x="0" y="22">Anything you want to share?</tspan></text>
      <text id="You_can_attach_you_C" data-name="You can attach you C" transform="translate(0 27)" fill="#2a2c39" font-size="16" font-family="Roboto-Regular, Roboto" opacity="0.4"><tspan x="0" y="17">You can attach you CV here</tspan></text>
      <path id="Line_10_Copy_2-2" data-name="Line 10 Copy 2" d="M0,.5H472" transform="translate(0 57)" fill="none" stroke="#979797" stroke-linecap="square" stroke-miterlimit="10" stroke-width="1" opacity="0.3"/>
    </g>
    <g id="Group_13" data-name="Group 13" transform="translate(229 460)">
      <rect id="Rectangle_Copy_11" data-name="Rectangle Copy 11" width="323" height="72" rx="4" fill="#66ded1"/>
      <text id="Join_Our_team" data-name="Join Our team" transform="translate(45 24)" fill="#fff" font-size="20" font-family="Roboto-Bold, Roboto" font-weight="700"><tspan x="42.679" y="21">JOIN OUR TEAM</tspan></text>
    </g>
    <g id="Group_4" data-name="Group 4" transform="translate(80 314)">
      <text id="Tell_us_about_you" data-name="Tell us about you" transform="translate(141 34)" fill="#2a2c39" font-size="21" font-family="Roboto-Bold, Roboto" font-weight="700"><tspan x="14.658" y="22">Tell us about you</tspan></text>
      <text id="Tell_us_about_your_b" data-name="Tell us about your b" transform="translate(38 62)" fill="#2a2c39" font-size="16" font-family="Roboto-Regular, Roboto" opacity="0.4"><tspan x="91.16" y="17">Tell us about your background</tspan></text>
      <g id="Rectangle" fill="none" stroke="#979797" stroke-miterlimit="10" stroke-width="1" stroke-dasharray="2">
        <rect width="472" height="120" rx="2" stroke="none"/>
        <rect x="0.5" y="0.5" width="471" height="119" rx="1.5" fill="none"/>
      </g>
    </g>
    <g id="iconfinder_ic_attach_file_48px_352032" transform="translate(536 238.787) rotate(45)">
      <path id="Path" d="M12.091,6.364V21A5.091,5.091,0,1,1,1.909,21V5.091a3.182,3.182,0,1,1,6.364,0V18.455a1.273,1.273,0,0,1-2.545,0V6.364H3.818V18.455a3.182,3.182,0,0,0,6.364,0V5.091A5.091,5.091,0,1,0,0,5.091V21a7,7,0,0,0,14,0V6.364Z" transform="translate(8 1)" fill="#2a2c39"/>
      <path id="Path-2" data-name="Path" d="M0,0H30V30H0Z" transform="translate(0 0)" fill="none"/>
    </g>
  </g>
</svg>
