<svg xmlns="http://www.w3.org/2000/svg" width="37.87" height="37.867" viewBox="0 0 37.87 37.867"><defs><style>.a{fill:#3d5a72;}</style></defs><g transform="translate(-0.147)"><path class="a" d="M37.415,6.632a1.832,1.832,0,1,0-1.832,1.832A1.835,1.835,0,0,0,37.415,6.632Zm-2.443,0a.611.611,0,1,1,.611.611A.611.611,0,0,1,34.972,6.632Z" transform="translate(-16.5 -2.357)"/><path class="a" d="M5.866,48.244a1.833,1.833,0,1,0,2.5.671A1.836,1.836,0,0,0,5.866,48.244ZM7.088,50.36a.611.611,0,1,1,.223-.834A.611.611,0,0,1,7.088,50.36Z" transform="translate(-2.359 -23.569)"/><path class="a" d="M65.3,48.244a1.833,1.833,0,0,0-1.832,3.175h0A1.833,1.833,0,0,0,65.3,48.244Zm-.387,1.893a.61.61,0,1,1-.224-.834A.61.61,0,0,1,64.912,50.137Z" transform="translate(-30.642 -23.57)"/><path class="a" d="M35.879,22.56a4.271,4.271,0,0,0-5.648,1.265L25.8,21.609V16.257l6.768-3.385a3.024,3.024,0,0,0,1.6,1.071,3.053,3.053,0,1,0-2.16-3.74,3.019,3.019,0,0,0,.011,1.576L25.8,14.892v-3.9H19.693V8.5a4.275,4.275,0,1,0-1.222,0v2.492H12.364v3.9L6.141,11.78A3.043,3.043,0,0,0,2.412,8.044a3.053,3.053,0,1,0,3.183,4.828l6.769,3.384v5.352L7.933,23.824a4.268,4.268,0,1,0,.548,1.091l3.883-1.94v3.9h6.108v4.948a3.054,3.054,0,1,0,1.222,0V26.873H25.8v-3.9l3.882,1.941a4.276,4.276,0,1,0,6.2-2.356ZM33.192,10.52a1.832,1.832,0,1,1,.183,1.39A1.822,1.822,0,0,1,33.192,10.52ZM16.028,4.275a3.054,3.054,0,1,1,3.054,3.054,3.057,3.057,0,0,1-3.054-3.054ZM4.789,11.91a1.831,1.831,0,1,1,.183-1.39A1.834,1.834,0,0,1,4.789,11.91Zm1.161,17a3.054,3.054,0,1,1,1.118-4.171A3.057,3.057,0,0,1,5.95,28.907Zm14.964,5.907a1.832,1.832,0,1,1-1.832-1.832A1.835,1.835,0,0,1,20.914,34.813Zm3.665-9.161H13.585V12.215H24.579Zm11.807,2.137a3.054,3.054,0,1,1-1.118-4.171A3.056,3.056,0,0,1,36.386,27.789Z" transform="translate(0)"/><path class="a" d="M37.5,36H33.836v1.222H31.393v1.222H28.95v3.665H37.5Zm-7.329,3.665h1.222v1.222H30.172Zm2.443,1.222V38.443h1.222v2.443Zm3.665,0H35.058V37.222h1.222Z" transform="translate(-14.143 -17.677)"/><path class="a" d="M28.95,26.4h1.222v1.222H28.95Z" transform="translate(-14.143 -12.963)"/><path class="a" d="M33.75,26.4h6.108v1.222H33.75Z" transform="translate(-16.5 -12.963)"/><path class="a" d="M28.95,31.2H37.5v1.222H28.95Z" transform="translate(-14.143 -15.32)"/></g></svg>