<svg xmlns="http://www.w3.org/2000/svg" width="35.357" height="33" viewBox="0 0 35.357 33"><defs><style>.a{fill:#3d5a72;}</style></defs><g transform="translate(-2 -4)"><path class="a" d="M34.411,6.357H26.75a.589.589,0,0,0,0,1.179h7.661A1.77,1.77,0,0,1,36.178,9.3v5.3H25.793A7.059,7.059,0,0,0,19.679,4a.589.589,0,0,0,0,1.179,5.893,5.893,0,1,1-4.042,1.606.589.589,0,0,0-.809-.857c-.155.146-.3.3-.44.461a.57.57,0,0,0-.15-.03H4.946A2.95,2.95,0,0,0,2,9.3v24.75A2.95,2.95,0,0,0,4.946,37H34.411a2.95,2.95,0,0,0,2.946-2.946V9.3a2.95,2.95,0,0,0-2.946-2.946Zm0,29.464H4.946a1.77,1.77,0,0,1-1.768-1.768V15.786h9.29a.589.589,0,0,0,0-1.179H3.179V9.3A1.77,1.77,0,0,1,4.946,7.536h8.616a7.061,7.061,0,0,0,11.379,8.242c.014,0,.026.008.04.008h11.2V34.053A1.77,1.77,0,0,1,34.411,35.821Z" transform="translate(0 0)"/><path class="a" d="M33.518,31H14.661a.589.589,0,1,0,0,1.179H33.518a1.768,1.768,0,0,1,0,3.536H9.946a1.768,1.768,0,0,1,0-3.536H12.3A.589.589,0,1,0,12.3,31H9.946a2.946,2.946,0,1,0,0,5.893H33.518a2.946,2.946,0,1,0,0-5.893Z" transform="translate(-2.054 -11.089)"/><path class="a" d="M33.518,43H9.946a2.946,2.946,0,1,0,0,5.893H33.518a2.946,2.946,0,0,0,0-5.893Zm0,4.714H9.946a1.768,1.768,0,0,1,0-3.536H33.518a1.768,1.768,0,0,1,0,3.536Z" transform="translate(-2.054 -16.018)"/><path class="a" d="M26.589,6.056a.587.587,0,0,0,.268-.064,5.832,5.832,0,0,1,1.071-.421.589.589,0,1,0-.321-1.134,7.026,7.026,0,0,0-1.286.505.589.589,0,0,0,.269,1.114Z" transform="translate(-9.857 -0.17)"/><path class="a" d="M29.953,8a2.366,2.366,0,0,0-2.363,2.363v1.172a.589.589,0,0,0-.589.589v4.714a.589.589,0,0,0,.589.589H32.3a.589.589,0,0,0,.589-.589V12.125a.588.588,0,0,0-.577-.587V10.363A2.366,2.366,0,0,0,29.953,8Zm-1.185,2.363a1.185,1.185,0,1,1,2.37,0v1.172h-2.37Zm2.946,5.887H28.179V12.714h3.536Z" transform="translate(-10.268 -1.643)"/><path class="a" d="M31.384,19.268a.884.884,0,1,0-.884-.884.884.884,0,0,0,.884.884Zm0-1.179a.295.295,0,1,1-.295.295A.295.295,0,0,1,31.384,18.089Z" transform="translate(-11.705 -5.545)"/><circle class="a" cx="0.5" cy="0.5" r="0.5" transform="translate(30.999 29.999)"/><circle class="a" cx="0.5" cy="0.5" r="0.5" transform="translate(28.999 29.999)"/><circle class="a" cx="0.5" cy="0.5" r="0.5" transform="translate(26.999 29.999)"/><circle class="a" cx="0.5" cy="0.5" r="0.5" transform="translate(22.999 29.999)"/><circle class="a" cx="0.5" cy="0.5" r="0.5" transform="translate(20.999 29.999)"/><circle class="a" cx="0.5" cy="0.5" r="0.5" transform="translate(18.999 29.999)"/><ellipse class="a" cx="1" cy="0.5" rx="1" ry="0.5" transform="translate(15.999 29.999)"/><circle class="a" cx="0.5" cy="0.5" r="0.5" transform="translate(13.999 29.999)"/><circle class="a" cx="0.5" cy="0.5" r="0.5" transform="translate(11.999 29.999)"/><circle class="a" cx="0.5" cy="0.5" r="0.5" transform="translate(6.999 29.999)"/><ellipse class="a" cx="1" cy="0.5" rx="1" ry="0.5" transform="translate(8.999 29.999)"/><path class="a" d="M11,35.589a.589.589,0,0,0,.589.589H35.161a.589.589,0,0,0,0-1.179H11.589A.589.589,0,0,0,11,35.589Z" transform="translate(-3.696 -12.732)"/></g></svg>