<svg xmlns="http://www.w3.org/2000/svg" width="36.643" height="36.645" viewBox="0 0 36.643 36.645"><defs><style>.a{fill:#3d5a72;}</style></defs><path class="a" d="M34.87,0H1.773A1.775,1.775,0,0,0,0,1.773v26a1.775,1.775,0,0,0,1.773,1.773H17.731v.325a4.157,4.157,0,0,0,.431,1.84l1.342,2.7v2.2l10.638.028V34.476l.946-1.261a4.162,4.162,0,0,0,.827-2.482V29.551H34.87a1.775,1.775,0,0,0,1.773-1.773v-26A1.775,1.775,0,0,0,34.87,0ZM1.773,1.182h33.1a.592.592,0,0,1,.591.591V7.092H1.182V1.773A.592.592,0,0,1,1.773,1.182Zm21.277,13a1.775,1.775,0,0,0-1.773,1.773v.591H14.185v-5.91H33.1v5.91H24.823v-.591A1.775,1.775,0,0,0,23.05,14.185Zm-1.773,9.608a4.366,4.366,0,0,0-3.18-1.359,1.55,1.55,0,0,0-1.548,1.547,1.568,1.568,0,0,0,.163.693L17.378,26H14.185v-5.91h7.092Zm9.456,6.94a2.972,2.972,0,0,1-.591,1.773L28.96,34.082V35.46l-8.274-.022v-1.3l-1.465-2.95a2.969,2.969,0,0,1-.308-1.314V27.448a4.329,4.329,0,0,0-.454-1.926l-.689-1.377a.367.367,0,0,1-.039-.164.382.382,0,0,1,.422-.365,3.128,3.128,0,0,1,3.124,3.125v2.194h1.182V15.958a.591.591,0,1,1,1.182,0v9.456h1.182V23.05a.591.591,0,1,1,1.182,0v2.364h1.182V23.05a.591.591,0,1,1,1.182,0v2.364h1.182V24.232a.591.591,0,1,1,1.182,0Zm-.591-8.274a1.763,1.763,0,0,0-.66.13,1.757,1.757,0,0,0-2.887-.851,1.719,1.719,0,0,0-1.773-.352V20.095H33.1V26H31.915V24.232A1.775,1.775,0,0,0,30.142,22.459Zm4.728,5.91H31.915V27.187h2.364V18.913H24.823V17.731h9.456V9.456H13v8.274h8.274v1.182H13v8.274h4.713c.008.087.015.174.015.261v.921H1.773a.592.592,0,0,1-.591-.591V8.274H35.461v19.5A.592.592,0,0,1,34.87,28.369Z"/><path class="a" d="M8.346,4.8H4.8V8.346H8.346ZM7.164,7.164H5.982V5.982H7.164Z" transform="translate(-2.436 -2.436)"/><path class="a" d="M17.946,4.8H14.4V8.346h3.546ZM16.764,7.164H15.582V5.982h1.182Z" transform="translate(-7.308 -2.436)"/><path class="a" d="M27.546,4.8H24V8.346h3.546ZM26.364,7.164H25.182V5.982h1.182Z" transform="translate(-12.18 -2.436)"/><path class="a" d="M31.2,24h1.182v1.182H31.2Z" transform="translate(-15.833 -12.18)"/><path class="a" d="M36,24H50.185v1.182H36Z" transform="translate(-18.269 -12.18)"/><path class="a" d="M52.8,28.8h5.91v1.182H52.8Z" transform="translate(-26.795 -14.615)"/><path class="a" d="M31.2,28.8h4.728v1.182H31.2Z" transform="translate(-15.833 -14.615)"/><path class="a" d="M7.2,27.474h8.274V19.2H7.2Zm1.182-7.092h5.91v5.91H8.382Z" transform="translate(-3.654 -9.744)"/><path class="a" d="M12.751,25.689l-.764-.764-.836.836,1.6,1.6,3.373-3.373-.836-.836Z" transform="translate(-5.659 -11.749)"/><path class="a" d="M7.2,46.674h8.274V38.4H7.2Zm1.182-7.092h5.91v5.91H8.382Z" transform="translate(-3.654 -19.487)"/><path class="a" d="M12.751,44.889l-.764-.764-.836.836,1.6,1.6,3.373-3.373-.836-.836Z" transform="translate(-5.659 -21.493)"/></svg>