<svg xmlns="http://www.w3.org/2000/svg" width="159.2" height="159.2" viewBox="0 0 159.2 159.2"><defs><style>.a{fill:#fff;stroke:#173a56;stroke-width:0.2px;stroke-dasharray:5;}.b{fill:#3d5a72;}</style></defs><g transform="translate(-257.4 -908.4)"><path class="a" d="M79.5,0A79.5,79.5,0,1,1,0,79.5,79.5,79.5,0,0,1,79.5,0Z" transform="translate(257.5 908.5)"/><g transform="translate(298.278 951)"><g transform="translate(3.721)"><g transform="translate(0)"><path class="b" d="M75.709,61.325a3.857,3.857,0,0,0-.139-.781,16.045,16.045,0,0,0-3.164-5.786,34.71,34.71,0,0,0,.919-9.487,1.07,1.07,0,1,0-2.137.128A33.254,33.254,0,0,1,70.2,54.8a1.07,1.07,0,0,0,.244.956,14.072,14.072,0,0,1,3.067,5.368,1.752,1.752,0,0,1-.753,1.966,1.782,1.782,0,0,1-1.851.087l-9.945-5.274a1.778,1.778,0,0,1-.912-1.185,1.83,1.83,0,0,1,.3-1.486l.068-.09a1.07,1.07,0,0,0,.157-.964,13.407,13.407,0,0,0-2.742-4.708,4.156,4.156,0,0,0,1.835-2.94,1.07,1.07,0,1,0-2.129-.225A2.346,2.346,0,0,1,56.2,47.981a11.19,11.19,0,0,0-2.228-1.306,1.068,1.068,0,0,0-.316-.084l-5.683-7.579a36.279,36.279,0,0,0,5.644-6.8,2.934,2.934,0,0,0,.166-.295,26.182,26.182,0,0,1,7.461.837,6.52,6.52,0,0,0,3.532,1.426,11.814,11.814,0,0,1,5.681,7.035,1.07,1.07,0,0,0,2.044-.636A13.89,13.89,0,0,0,67.9,33.7,6.552,6.552,0,0,0,66.13,21.152a27.611,27.611,0,0,0-6.791-7.164A20.877,20.877,0,0,0,44.391,9.979a13.4,13.4,0,0,0-.82-2.248,2.507,2.507,0,0,0-2.316-4.344c-.237.073-.473.141-.71.207-.194-.18-.394-.356-.6-.526A13.5,13.5,0,0,0,31.387,0a13.361,13.361,0,0,0-9.15,3.586c-.434-.112-.677-.186-.691-.191A2.506,2.506,0,0,0,19.2,7.73a13.454,13.454,0,0,0-1.03,3.144l-.648,3.3a7.231,7.231,0,0,0-.033,2.6,1.071,1.071,0,0,0-.139.1,19.76,19.76,0,0,0-5.689,8.072A37.238,37.238,0,0,0,9.458,39.413a6.573,6.573,0,0,0-.385,9.041A16.165,16.165,0,0,0,7.111,54,1.07,1.07,0,0,0,8,55.227a1.081,1.081,0,0,0,.17.014,1.07,1.07,0,0,0,1.055-.9,14.051,14.051,0,0,1,1.525-4.5,6.584,6.584,0,0,0,9.773-4.488c.075.034.15.067.229.1a25.965,25.965,0,0,0,8.113,1.216c.9,0,1.812-.045,2.709-.13l2.01,5.814L27.275,57.84a1.061,1.061,0,0,0-.117.014c-.032.006-3.191.559-5.107-.845a1.07,1.07,0,0,0-1.266,1.726,7.732,7.732,0,0,0,3.933,1.331L19.913,64.25a1.07,1.07,0,0,0-.2,1.376,7.007,7.007,0,0,1,.844,2.212c.069.306.129.636.181,1.009a1.831,1.831,0,0,1-.43,1.456,1.779,1.779,0,0,1-1.361.619H7.687a1.782,1.782,0,0,1-1.595-.944,1.752,1.752,0,0,1,.258-2.092,13.22,13.22,0,0,1,3.473-2.531,1.07,1.07,0,0,0,.522-1.3,24.045,24.045,0,0,1-1.238-5.549,1.07,1.07,0,1,0-2.132.2,25.464,25.464,0,0,0,1.065,5.19A14.882,14.882,0,0,0,4.806,66.4a3.854,3.854,0,0,0-.487.621,3.958,3.958,0,0,0,3.368,6.037H18.945a3.954,3.954,0,0,0,3.91-4.513c-.061-.434-.131-.822-.212-1.179a9.971,9.971,0,0,0-.678-2.067L34.337,54.529l.541,1.565a2.772,2.772,0,0,0,3.61,1.691l3.835-1.452a1.07,1.07,0,0,0-.758-2L37.73,55.782a.638.638,0,0,1-.829-.388l-3.164-9.153a27.522,27.522,0,0,0,12.62-5.82l6.556,8.742a.638.638,0,0,1-.284.979L46,52.652a1.07,1.07,0,1,0,.758,2l6.63-2.51a2.756,2.756,0,0,0,1.684-1.823,2.843,2.843,0,0,0,.09-.44,10.843,10.843,0,0,1,3.211,4.485A3.953,3.953,0,0,0,59.96,59.8L69.9,65.072a3.908,3.908,0,0,0,4.03-.189A3.907,3.907,0,0,0,75.709,61.325ZM53.957,29.777a2.885,2.885,0,0,0-3.143-2A20.233,20.233,0,0,0,49.1,23.462c2.435-.089,6.836.143,9.915,2.552a6.549,6.549,0,0,0,.282,4.13A30.567,30.567,0,0,0,53.957,29.777Zm15.811-2.119a4.417,4.417,0,0,1-4.392,4.412,17.6,17.6,0,0,0-1.713-.769c-.452-.175-.909-.33-1.367-.469a4.411,4.411,0,1,1,7.473-3.174ZM31.387,2.14A11.356,11.356,0,0,1,37.9,4.2a37.8,37.8,0,0,1-12.966-.045A11.235,11.235,0,0,1,31.387,2.14ZM20.432,5.67a.367.367,0,0,1,.35-.254.378.378,0,0,1,.114.018c.022.007.5.154,1.329.352a1.069,1.069,0,0,0,.169.04,39.741,39.741,0,0,0,18.1,0l.059-.016q.666-.172,1.335-.377a.366.366,0,1,1,.216.7A35.478,35.478,0,0,1,31.65,7.641,39.127,39.127,0,0,1,20.668,6.131a.366.366,0,0,1-.236-.461Zm-.807,8.917.648-3.3A11.324,11.324,0,0,1,21.208,8.5,43.484,43.484,0,0,0,31.65,9.781,38.092,38.092,0,0,0,41.57,8.512a11.31,11.31,0,0,1,.93,2.774l0,.01c0,.011,0,.022,0,.034a1.056,1.056,0,0,0,.028.125l.614,3.133a5.082,5.082,0,0,1-4.987,6.061H24.613a5.083,5.083,0,0,1-4.987-6.061Zm-5.579,34a4.45,4.45,0,1,1,4.45-4.45A4.455,4.455,0,0,1,14.046,48.587ZM19.67,40.7a6.633,6.633,0,0,0-1.1-1.356,30.542,30.542,0,0,1,1.3-3.372,17.65,17.65,0,0,0,.29,4.333A2.894,2.894,0,0,0,19.67,40.7Zm-2.952-2.59a6.568,6.568,0,0,0-5.132-.09,33.837,33.837,0,0,1,2.067-12.293,17.91,17.91,0,0,1,4.577-6.791,7.213,7.213,0,0,0,6.384,3.848H38.159a7.222,7.222,0,0,0,7.088-8.614l-.41-2.091c9.956-1,16.189,5.62,18.816,9.246a6.575,6.575,0,0,0-3.742,2.683c-4.438-3.16-10.548-2.791-12.4-2.591l-1.671-1.611a1.07,1.07,0,0,0-1.486,1.541l2.006,1.934A14.341,14.341,0,0,1,48.9,28.88c-.045.058-.089.116-.13.179-4.446,6.828-10.166,10.742-17,11.631A21.962,21.962,0,0,1,22.707,40a2.881,2.881,0,0,0-.458-.119,20.43,20.43,0,0,1,.52-8.666c.006-.02.011-.039.016-.059s0-.009,0-.014l1.028-4.561a1.07,1.07,0,1,0-2.088-.471l-.97,4.3A24.656,24.656,0,0,0,16.717,38.115Zm15.348,6.213a26.293,26.293,0,0,1-3.2.2,23.609,23.609,0,0,1-7.386-1.089.752.752,0,0,1,.257-1.46.763.763,0,0,1,.257.045,23.648,23.648,0,0,0,10.054.793c7.485-.974,13.716-5.209,18.519-12.586a.753.753,0,0,1,1.261.821C45.482,40.794,37.578,43.649,32.065,44.328Z" transform="translate(-3.721)"/></g></g><g transform="translate(24.102 23.372)"><path class="b" d="M167.961,169.313a5.822,5.822,0,0,0-2.7-2.726,11.238,11.238,0,0,0,1.505-.842,1.07,1.07,0,0,0-1.187-1.781,9.287,9.287,0,0,1-5.543,1.539,11.431,11.431,0,0,0-6.831,1.9,9.285,9.285,0,0,1-5.544,1.539,1.07,1.07,0,1,0-.1,2.138q.259.012.517.012a11.365,11.365,0,0,0,2.281-.234,17.077,17.077,0,0,0-1.311,6.523,1.07,1.07,0,0,0,2.14,0,14.892,14.892,0,0,1,2.078-7.539,11.173,11.173,0,0,0,1.125-.658,9.288,9.288,0,0,1,5.543-1.539,11.154,11.154,0,0,0,1.264-.014c.439.034,3.815.369,4.807,2.566a1.07,1.07,0,0,0,1.951-.88Z" transform="translate(-146.544 -163.784)"/></g><g transform="translate(35.121 32.196)"><path class="b" d="M226.148,227.659l-.273-1.2a1.07,1.07,0,0,0-2.087.474l.273,1.2a1.07,1.07,0,1,0,2.087-.474Z" transform="translate(-223.761 -225.622)"/></g><g transform="translate(33.953 10.116)"><g transform="translate(0)"><path class="b" d="M219.129,71.512a1.07,1.07,0,0,0-1.42-.523l-1.506.7a1.07,1.07,0,1,0,.9,1.944l1.506-.7A1.07,1.07,0,0,0,219.129,71.512Z" transform="translate(-215.58 -70.89)"/></g></g><g transform="translate(25.173 10.116)"><g transform="translate(0)"><path class="b" d="M157.072,71.685l-1.506-.7a1.07,1.07,0,1,0-.9,1.943l1.506.7a1.07,1.07,0,0,0,.9-1.943Z" transform="translate(-154.047 -70.891)"/></g></g><g transform="translate(26.142 13.837)"><path class="b" d="M171.318,98.964l-.759-2a4.644,4.644,0,0,0-1.746,1.3,3.747,3.747,0,0,0-2.209-1.032,5.24,5.24,0,0,0-3.3.965,4.631,4.631,0,0,0-1.69-1.238l-.38,1-.392,1a2.482,2.482,0,0,1,1.438,2.384,1.07,1.07,0,1,0,2.14,0,5.278,5.278,0,0,0-.137-1.216,3.43,3.43,0,0,1,2.117-.761,1.887,1.887,0,0,1,1.334.906,1.058,1.058,0,0,0,.1.121,5.407,5.407,0,0,0-.083.95,1.07,1.07,0,1,0,2.14,0,2.482,2.482,0,0,1,1.438-2.384Z" transform="translate(-160.841 -96.963)"/></g></g></g></svg>