<svg xmlns="http://www.w3.org/2000/svg" width="54.842" height="20" viewBox="0 0 54.842 20"><defs><style>.a{fill:#fff;}</style></defs><g transform="translate(0)"><path class="a" d="M9.349,8.262l1.113,3.055a9.192,9.192,0,0,1-5.053,1.435C1.781,12.751,0,10.437,0,7.359A7.042,7.042,0,0,1,7.056,0C10.039,0,11.6,1.759,11.6,4.166a8.362,8.362,0,0,1-.712,3.17H3.962C3.94,8.47,4.7,9.326,6.211,9.326A6.471,6.471,0,0,0,9.349,8.262ZM8.192,4.929a2.038,2.038,0,0,0,.111-.6c0-.671-.512-1.157-1.447-1.157A2.5,2.5,0,0,0,4.43,4.929ZM14.269,7.29l.4-2.43c.111-.579.089-1.018-.4-1.018a2.679,2.679,0,0,0-1.091.255L13.645.579a7.325,7.325,0,0,1,2.76-.463c1.914,0,3.094.949,2.627,3.656L18.543,6.6c-.2,1.319.089,2.013.957,2.013,1.269,0,2.07-1.018,2.07-3.98a18.383,18.383,0,0,0-.579-4.3h4.43a25.917,25.917,0,0,1,.334,3.888c0,5.415-2.4,8.447-6.834,8.447C15.159,12.659,13.712,10.6,14.269,7.29Zm22.594.972,1.113,3.055a9.191,9.191,0,0,1-5.053,1.435c-3.628,0-5.409-2.314-5.409-5.392A7.042,7.042,0,0,1,34.57,0c2.983,0,4.541,1.759,4.541,4.166a8.361,8.361,0,0,1-.712,3.17H31.476c-.022,1.134.735,1.99,2.248,1.99A6.471,6.471,0,0,0,36.862,8.262ZM35.7,4.929a2.04,2.04,0,0,0,.111-.6c0-.671-.512-1.157-1.447-1.157a2.5,2.5,0,0,0-2.426,1.759Zm5.52,7.5L42.494,4.86c.089-.579.089-1.018-.4-1.018a3.478,3.478,0,0,0-1.113.255L41.47.579A8.249,8.249,0,0,1,44.253.116a2.336,2.336,0,0,1,2.6,1.736A3.361,3.361,0,0,1,49.818.116,3.994,3.994,0,0,1,51.776.6L50.6,4.675a4.811,4.811,0,0,0-2.115-.486c-1.18,0-1.781.926-2.026,1.921l-1.068,6.318Z" transform="translate(0)"/><g transform="translate(49.477 7.342)"><path class="a" d="M2.682,0A2.7,2.7,0,1,1,0,2.7,2.694,2.694,0,0,1,2.682,0Zm0,.361A2.344,2.344,0,1,0,5.007,2.7,2.335,2.335,0,0,0,2.682.361Zm-.73.812.861,0A.955.955,0,0,1,3.5,1.4a.72.72,0,0,1,.2.62.824.824,0,0,1-.2.477,1.067,1.067,0,0,1-.463.311l.444,1.218,0,.026H3.088l-.4-1.167h-.66l-.2,1.167H1.455Zm.316.313L2.08,2.579l.542,0A.753.753,0,0,0,3.1,2.43a.591.591,0,0,0,.228-.405.469.469,0,0,0-.1-.388.522.522,0,0,0-.389-.149Z" transform="translate(0 0)"/></g><g transform="translate(0 15.732)"><g transform="translate(0 0.143)"><rect class="a" width="5.206" height="0.75"/><ellipse class="a" cx="0.558" cy="0.562" rx="0.558" ry="0.562" transform="translate(0 3)"/><ellipse class="a" cx="0.558" cy="0.562" rx="0.558" ry="0.562" transform="translate(4.091 3)"/><rect class="a" width="3.719" height="0.75" transform="translate(0 1.5)"/></g><path class="a" d="M18.224,3.971a1.305,1.305,0,0,0,.644-.155,1.077,1.077,0,0,0,.433-.438,1.363,1.363,0,0,0,.153-.659h0V1.246A1.351,1.351,0,0,0,19.3.593a1.077,1.077,0,0,0-.433-.438A1.305,1.305,0,0,0,18.224,0a1.29,1.29,0,0,0-.641.155,1.081,1.081,0,0,0-.43.438A1.351,1.351,0,0,0,17,1.246h0V2.72a1.363,1.363,0,0,0,.153.659,1.081,1.081,0,0,0,.43.438A1.29,1.29,0,0,0,18.224,3.971Zm0-.67a.438.438,0,0,1-.348-.152.583.583,0,0,1-.132-.4h0V1.224a.592.592,0,0,1,.132-.4A.438.438,0,0,1,18.224.67a.444.444,0,0,1,.354.152.592.592,0,0,1,.132.4h0V2.753a.583.583,0,0,1-.132.4A.444.444,0,0,1,18.224,3.3Zm3.232.62A.06.06,0,0,0,21.5,3.9a.066.066,0,0,0,.018-.047h0V2.415q0-.028.026-.028h.57a1.089,1.089,0,0,0,.562-.144.976.976,0,0,0,.38-.407,1.314,1.314,0,0,0,.135-.607,1.379,1.379,0,0,0-.135-.62,1,1,0,0,0-.38-.421,1.058,1.058,0,0,0-.562-.15H20.839a.06.06,0,0,0-.045.019.066.066,0,0,0-.018.047h0v3.75a.066.066,0,0,0,.018.047.06.06,0,0,0,.045.019h.617Zm.538-2.155h-.448q-.026,0-.026-.028h0v-1q0-.028.026-.028h.448a.414.414,0,0,1,.33.144.574.574,0,0,1,.124.388.555.555,0,0,1-.124.379.417.417,0,0,1-.33.141Zm4.625,2.155a.06.06,0,0,0,.045-.019.066.066,0,0,0,.018-.047h0V3.318a.066.066,0,0,0-.018-.047.06.06,0,0,0-.045-.019H25.205q-.026,0-.026-.028h0V2.332q0-.028.026-.028h.881a.06.06,0,0,0,.045-.019.066.066,0,0,0,.018-.047h0V1.7a.066.066,0,0,0-.018-.047.06.06,0,0,0-.045-.019h-.881q-.026,0-.026-.028h0V.742q0-.028.026-.028h1.414A.06.06,0,0,0,26.664.7a.066.066,0,0,0,.018-.047h0V.111a.066.066,0,0,0-.018-.047.06.06,0,0,0-.045-.019H24.5a.06.06,0,0,0-.045.019.066.066,0,0,0-.018.047h0V3.855a.066.066,0,0,0,.018.047.06.06,0,0,0,.045.019h2.121Zm2.029,0a.06.06,0,0,0,.045-.019.066.066,0,0,0,.018-.047h0l-.005-2.232c0-.015,0-.022.011-.022s.014.006.021.017h0l1.008,2.254a.075.075,0,0,0,.074.05h.644a.06.06,0,0,0,.045-.019.066.066,0,0,0,.018-.047h0V.111a.066.066,0,0,0-.018-.047.06.06,0,0,0-.045-.019h-.612a.06.06,0,0,0-.045.019.066.066,0,0,0-.018.047h0V2.343c0,.015,0,.022-.011.022s-.014-.006-.021-.017h0L28.749.094a.075.075,0,0,0-.074-.05h-.638a.06.06,0,0,0-.045.019.066.066,0,0,0-.018.047h0V3.855a.066.066,0,0,0,.018.047.06.06,0,0,0,.045.019h.612Zm5.841,0a.06.06,0,0,0,.045-.019.066.066,0,0,0,.018-.047h0V2.415q0-.028.026-.028h.57a1.089,1.089,0,0,0,.562-.144.975.975,0,0,0,.38-.407,1.314,1.314,0,0,0,.135-.607,1.379,1.379,0,0,0-.135-.62,1,1,0,0,0-.38-.421,1.058,1.058,0,0,0-.562-.15H33.872a.06.06,0,0,0-.045.019.066.066,0,0,0-.018.047h0v3.75a.066.066,0,0,0,.018.047.06.06,0,0,0,.045.019h.617Zm.538-2.155h-.448q-.026,0-.026-.028h0v-1q0-.028.026-.028h.448a.414.414,0,0,1,.33.144.574.574,0,0,1,.124.388.555.555,0,0,1-.124.379.417.417,0,0,1-.33.141Zm4.625,2.155A.06.06,0,0,0,39.7,3.9a.066.066,0,0,0,.018-.047h0V3.318a.066.066,0,0,0-.018-.047.06.06,0,0,0-.045-.019H38.239q-.026,0-.026-.028h0V.111a.066.066,0,0,0-.018-.047.06.06,0,0,0-.045-.019h-.617a.06.06,0,0,0-.045.019.066.066,0,0,0-.018.047h0V3.855a.066.066,0,0,0,.018.047.06.06,0,0,0,.045.019h2.121Zm1.908,0a.067.067,0,0,0,.069-.055h0l.121-.543a.025.025,0,0,1,.026-.022h.987a.025.025,0,0,1,.026.022h0l.121.543a.07.07,0,0,0,.074.055h.644q.058,0,.058-.05h0l-.005-.022L42.732.1a.07.07,0,0,0-.074-.055h-.765A.07.07,0,0,0,41.819.1h0l-.95,3.75q-.016.072.053.072h.638ZM42.616,2.7h-.7a.034.034,0,0,1-.021-.008.021.021,0,0,1-.005-.025h0l.354-1.606q.005-.022.016-.022c.007,0,.012.007.016.022h0l.364,1.606a.021.021,0,0,1-.005.025.034.034,0,0,1-.021.008Zm3.322,1.224a.06.06,0,0,0,.045-.019A.066.066,0,0,0,46,3.855h0V.748q0-.028.026-.028h.8A.06.06,0,0,0,46.874.7a.066.066,0,0,0,.018-.047h0V.111a.066.066,0,0,0-.018-.047.06.06,0,0,0-.045-.019H44.455a.06.06,0,0,0-.045.019.066.066,0,0,0-.018.047h0V.654A.066.066,0,0,0,44.41.7a.06.06,0,0,0,.045.019h.776q.026,0,.026.028h0V3.855a.066.066,0,0,0,.018.047.06.06,0,0,0,.045.019h.617Zm2.894,0a.06.06,0,0,0,.045-.019.066.066,0,0,0,.018-.047h0V2.332q0-.028.026-.028H49.8a.06.06,0,0,0,.045-.019.066.066,0,0,0,.018-.047h0V1.7a.066.066,0,0,0-.018-.047.06.06,0,0,0-.045-.019h-.876q-.026,0-.026-.028h0V.742q0-.028.026-.028H50.33A.06.06,0,0,0,50.375.7a.066.066,0,0,0,.018-.047h0V.111a.066.066,0,0,0-.018-.047A.06.06,0,0,0,50.33.044H48.214a.06.06,0,0,0-.045.019.066.066,0,0,0-.018.047h0V3.855a.066.066,0,0,0,.018.047.06.06,0,0,0,.045.019h.617Zm3.9.05a1.3,1.3,0,0,0,.644-.155,1.077,1.077,0,0,0,.433-.438,1.362,1.362,0,0,0,.153-.659h0V1.246A1.35,1.35,0,0,0,53.81.593a1.077,1.077,0,0,0-.433-.438A1.3,1.3,0,0,0,52.734,0a1.29,1.29,0,0,0-.641.155,1.081,1.081,0,0,0-.43.438,1.351,1.351,0,0,0-.153.654h0V2.72a1.363,1.363,0,0,0,.153.659,1.081,1.081,0,0,0,.43.438A1.29,1.29,0,0,0,52.734,3.971Zm0-.67a.438.438,0,0,1-.348-.152.583.583,0,0,1-.132-.4h0V1.224a.592.592,0,0,1,.132-.4A.438.438,0,0,1,52.734.67a.445.445,0,0,1,.354.152.592.592,0,0,1,.132.4h0V2.753a.584.584,0,0,1-.132.4A.445.445,0,0,1,52.734,3.3Zm3.248.62a.059.059,0,0,0,.045-.019.065.065,0,0,0,.019-.047h0V2.343c0-.018.009-.028.026-.028H56.4c.011,0,.019.007.027.022h0l.533,1.529a.07.07,0,0,0,.074.055h.643q.058,0,.058-.05a.065.065,0,0,0-.005-.028h0l-.6-1.59a.027.027,0,0,1,.016-.039.925.925,0,0,0,.417-.388,1.224,1.224,0,0,0,.148-.615A1.354,1.354,0,0,0,57.58.6a.983.983,0,0,0-.375-.413,1.05,1.05,0,0,0-.554-.147H55.364a.059.059,0,0,0-.045.019A.065.065,0,0,0,55.3.111h0V3.855a.065.065,0,0,0,.019.047.059.059,0,0,0,.045.019h.617Zm.549-2.2h-.459c-.017,0-.026-.009-.026-.028h0V.742c0-.018.009-.028.026-.028h.459a.405.405,0,0,1,.317.136.534.534,0,0,1,.121.368.526.526,0,0,1-.121.363.405.405,0,0,1-.317.136Zm3.148,2.2a.059.059,0,0,0,.045-.019.065.065,0,0,0,.019-.047h0V1.4c0-.015,0-.023.011-.025s.014,0,.021.014h0l.485.842a.075.075,0,0,0,.074.044h.121a.075.075,0,0,0,.074-.044h0l.485-.842c.007-.011.014-.016.021-.014s.01.01.01.025h0V3.855a.067.067,0,0,0,.019.047.06.06,0,0,0,.045.019h.618A.059.059,0,0,0,61.77,3.9a.065.065,0,0,0,.019-.047h0V.111A.065.065,0,0,0,61.77.064a.059.059,0,0,0-.045-.019h-.612a.075.075,0,0,0-.074.044h0L60.411,1.18c-.01.022-.021.022-.031,0h0L59.746.089a.074.074,0,0,0-.074-.044h-.612a.061.061,0,0,0-.045.019A.067.067,0,0,0,59,.111h0V3.855a.067.067,0,0,0,.018.047.061.061,0,0,0,.045.019h.617Z" transform="translate(-9.498)"/></g></g></svg>