<svg xmlns="http://www.w3.org/2000/svg" xmlns:xlink="http://www.w3.org/1999/xlink" width="237" height="237" viewBox="0 0 237 237"><defs><style>.a{fill:#fff;}.b{clip-path:url(#a);}.c{fill:#8b9caa;opacity:0.1;}</style><clipPath id="a"><rect class="a" width="174" height="63" rx="10" transform="translate(-14356.177 -16109.871) rotate(-45)"/></clipPath></defs><g class="b" transform="translate(-1208.549 21629.748) rotate(45)"><path class="c" d="M17.234,133.076a195.393,195.393,0,0,0,27.8,32.907c.48.473.983.951,1.483,1.424,1.511,1.426,3.071,2.853,4.632,4.225,2.689,2.452,5.462,4.822,8.284,7.092,1.486,1.248,3.021,2.473,4.536,3.667A306.972,306.972,0,0,0,119.039,217.1c5.773,2.81,11.553,5.309,17.262,7.456,29.789,11.354,57.652,13.679,77.094,1.637a48.179,48.179,0,0,0,15.781-16q1.022-1.661,2.045-3.314c6.316-10.356,12.358-20.753,17.683-31.195,1.265-2.437,2.45-4.845,3.612-7.283,19.362-40.378,27.142-81.052,1.255-120.525C243.7,32.52,226.967,20.7,206.781,12.478a163.008,163.008,0,0,0-18.028-6.172C185.679,5.389,182.58,4.6,179.4,3.89q-5.993-1.43-12.188-2.478c-3.159-.557-6.314-1.041-9.5-1.45q-1.987-.231-3.975-.47A240.676,240.676,0,0,0,125.3-1.983c-1.248-.008-2.5.012-3.728.032-5.746.12-11.441.438-17.066.989-1.508.126-3.017.277-4.526.477-28.72,3.236-55.152,11.85-73.246,25.727a73.432,73.432,0,0,0-10.6,9.837c-.575.645-1.121,1.29-1.64,1.957-.182.206-.341.413-.521.621A71.135,71.135,0,0,0,4.853,52.1C-6.907,76.94-.7,104.032,14.72,129.122,15.541,130.457,16.359,131.769,17.234,133.076Z" transform="translate(-14215.06 -16220.934) rotate(42)"/></g></svg>