<svg xmlns="http://www.w3.org/2000/svg" width="132.727" height="30" viewBox="0 0 132.727 30">
  <g id="Group_2" data-name="Group 2" opacity="0.5">
    <path id="ever_copy_4" data-name="ever copy 4" d="M79.771,30a16.192,16.192,0,0,1-5.757-.964,11.061,11.061,0,0,1-4.093-2.663,12.746,12.746,0,0,1-3.256-9.058A17.478,17.478,0,0,1,71.472,5.023,16.921,16.921,0,0,1,83.762,0c3.446,0,6.286.96,8.212,2.777A9.358,9.358,0,0,1,94.766,9.8a19.153,19.153,0,0,1-1.726,7.459H76.265a4.317,4.317,0,0,0,1.177,3.2,5.82,5.82,0,0,0,4.271,1.487,16.06,16.06,0,0,0,7.605-2.5l2.7,7.187A22.843,22.843,0,0,1,79.771,30Zm3.506-22.54A6.044,6.044,0,0,0,77.4,11.6h9.114a4.645,4.645,0,0,0,.27-1.416C86.783,8.5,85.439,7.459,83.277,7.459ZM13.107,30a16.2,16.2,0,0,1-5.757-.964,11.061,11.061,0,0,1-4.093-2.663A12.746,12.746,0,0,1,0,17.314,17.478,17.478,0,0,1,4.807,5.023,16.921,16.921,0,0,1,17.1,0c3.446,0,6.286.96,8.212,2.777A9.358,9.358,0,0,1,28.1,9.8a19.153,19.153,0,0,1-1.726,7.459H9.6a4.317,4.317,0,0,0,1.177,3.2,5.82,5.82,0,0,0,4.271,1.487,16.06,16.06,0,0,0,7.605-2.5l2.7,7.187A22.836,22.836,0,0,1,13.107,30Zm3.505-22.54A6.046,6.046,0,0,0,10.733,11.6h9.115a4.64,4.64,0,0,0,.269-1.416C20.118,8.5,18.774,7.459,16.612,7.459ZM45.845,29.782c-4.447,0-7.667-1.147-9.571-3.409-1.815-2.157-2.388-5.26-1.7-9.223l.971-5.717c.212-1.068.174-1.7-.122-2.065a1.027,1.027,0,0,0-.849-.331,6.632,6.632,0,0,0-2.642.6l1.132-8.276A18.466,18.466,0,0,1,39.75.272c2.484,0,4.291.652,5.369,1.939,1.194,1.425,1.529,3.667,1,6.664l-1.186,6.642c-.306,1.954-.142,3.269.5,4.021a2.27,2.27,0,0,0,1.818.717,3.956,3.956,0,0,0,3.661-2.069c.912-1.541,1.355-3.928,1.355-7.3A42.2,42.2,0,0,0,50.862.762H61.594A59.248,59.248,0,0,1,62.4,9.909C62.4,22.724,56.523,29.782,45.845,29.782Zm64.13-.544H99.889l3.074-17.8a2.859,2.859,0,0,0-.154-2.088,1.009,1.009,0,0,0-.817-.308,8.638,8.638,0,0,0-2.7.6l1.186-8.276A20.563,20.563,0,0,1,107.224.272a7.853,7.853,0,0,1,4.106.96,4.837,4.837,0,0,1,2.2,3.124c1.946-2.825,4.158-4.084,7.173-4.084a9.89,9.89,0,0,1,4.747,1.144L122.6,11a11.92,11.92,0,0,0-5.124-1.143c-3.275,0-4.481,2.831-4.909,4.519l-2.589,14.863Z" fill="#fff"/>
    <g id="Group_4_Copy_2" data-name="Group 4 Copy 2" transform="translate(120 17.273)">
      <path id="Combined_Shape" data-name="Combined Shape" d="M0,6.364a6.363,6.363,0,1,1,6.364,6.363A6.371,6.371,0,0,1,0,6.364Zm.849,0A5.515,5.515,0,1,0,6.364.849,5.521,5.521,0,0,0,.849,6.364ZM4.333,9.546h-.88L4.631,2.759l2.042,0A2.288,2.288,0,0,1,8.3,3.3a1.7,1.7,0,0,1,.471,1.459,1.943,1.943,0,0,1-.464,1.123,2.559,2.559,0,0,1-1.1.732L8.262,9.485l0,.059H7.326L6.375,6.8H4.809L4.333,9.545h0Zm.6-3.478,1.286,0a1.807,1.807,0,0,0,1.133-.356,1.4,1.4,0,0,0,.54-.953,1.1,1.1,0,0,0-.233-.913,1.252,1.252,0,0,0-.922-.35l-1.356,0Z" fill="#fff"/>
    </g>
  </g>
</svg>
