<svg xmlns="http://www.w3.org/2000/svg" width="157.617" height="175" viewBox="0 0 157.617 175">
  <g id="Group_54" data-name="Group 54" transform="translate(-297.192 -343)">
    <path id="Polygon" d="M91,0l78.808,43.75v87.5L91,175,12.192,131.25V43.75Z" transform="translate(285 343)" fill="#333645"/>
    <circle id="Oval" cx="10" cy="10" r="10" transform="translate(365 432)" fill="#fff"/>
    <path id="Path" d="M1.346,0l-.23,0L0,14.39,1.5,16,3,14.39,1.884.01H1.5C1.449.01,1.4,0,1.346,0Z" transform="translate(374 455)" fill="#fff"/>
    <path id="Path-2" data-name="Path" d="M70.926,0a3.082,3.082,0,0,0-2.175.91L55.609,14.193a18.557,18.557,0,0,1-10.466,5.29l-4.378.621L42.1,36.343,37,41.5l-5.1-5.16,1.339-16.226-4.376-.632a18.557,18.557,0,0,1-10.466-5.29L5.251.911A3.08,3.08,0,0,0,3.074,0,3.1,3.1,0,0,0,0,3.108a3.149,3.149,0,0,0,.9,2.2L25.227,29.9V51H48.773V29.9L73.1,5.306a3.146,3.146,0,0,0,.9-2.2A3.1,3.1,0,0,0,70.926,0Z" transform="translate(338 435)" fill="#fff"/>
    <path id="Shape" d="M35.6,49H26.044L19.49,42.446A6.431,6.431,0,0,0,8.756,48.9a10.133,10.133,0,1,1,9.7-15.827l2.773-1.934a13.554,13.554,0,0,0-9.4-5.679c0-.018,0-.037,0-.055s0-.036,0-.055A25.33,25.33,0,0,1,58.486,11.666l.835,1.3,1.368-.713a18.391,18.391,0,0,1,8.587-2.112A18.676,18.676,0,0,1,87.551,25.36a13.592,13.592,0,0,0-13.207,13.5h3.379a10.136,10.136,0,1,1,11.52,10.031,6.367,6.367,0,0,0,.308-1.874A6.468,6.468,0,0,0,78.51,42.446L71.956,49H62.4a13.505,13.505,0,0,0-26.8,0ZM37.173,3.379A21.89,21.89,0,0,0,15.51,21.686l3.334.558A18.518,18.518,0,0,1,37.173,6.759Zm3.658.3-.557,3.334a18.7,18.7,0,0,1,3.1.8l1.125-3.185A21.61,21.61,0,0,0,40.83,3.684Z" transform="translate(326 391)" fill="#fff"/>
  </g>
</svg>
