<svg xmlns="http://www.w3.org/2000/svg" width="157.617" height="175" viewBox="0 0 157.617 175">
  <g id="Group_57" data-name="Group 57" transform="translate(-1496.192 -343)">
    <path id="Polygon_Copy_4" data-name="Polygon Copy 4" d="M91,0l78.808,43.75v87.5L91,175,12.192,131.25V43.75Z" transform="translate(1484 343)" fill="#333645"/>
    <path id="Path" d="M95.348,4.4l-.237-.239A5.718,5.718,0,0,0,87,4.164l-8.729,8.868a1.2,1.2,0,0,1-1.675.039L64.359,1.711A6.378,6.378,0,0,0,60,0H41.8a1.669,1.669,0,0,0-1.152.461L25.216,15.19a5.965,5.965,0,0,0-.344,8.173,5.688,5.688,0,0,0,4.208,1.851h.028a5.721,5.721,0,0,0,4.183-1.852l10.9-11.595h3.9L22.658,40.342H6.972A6.85,6.85,0,0,0,.01,46.705a6.707,6.707,0,0,0,6.678,7.083H30.094a1.666,1.666,0,0,0,1.22-.533L43.308,40.385l10.085,10.6L50.348,70.55A6.692,6.692,0,0,0,56.808,79a6.627,6.627,0,0,0,2.954-.7,6.715,6.715,0,0,0,3.556-4.564l5.2-28.049a1.688,1.688,0,0,0-.463-1.5L54.175,30.256,65.2,19.186l7.687,7.727a5.793,5.793,0,0,0,8.034,0l14.424-14.5a5.69,5.69,0,0,0,0-8.018Z" transform="translate(1521 406)" fill="#fff"/>
    <path id="Path-2" data-name="Path" d="M10,20A10,10,0,1,0,0,10,10.01,10.01,0,0,0,10,20Z" transform="translate(1588 391)" fill="#fff"/>
  </g>
</svg>
