<svg xmlns="http://www.w3.org/2000/svg" width="100" height="100" viewBox="0 0 100 100">
    <g fill="#647B8E">
        <path d="M99.2 51.2V38.362c0-3.56-2.291-6.64-5.7-7.663l-10.3-3.09v-2.43c2.898-2.027 4.8-5.382 4.8-9.177V11.2C88 5.024 82.976 0 76.8 0c-6.176 0-11.2 5.024-11.2 11.2V16c0 3.797 1.902 7.152 4.8 9.177v2.43l-9.077 2.724C57.917 27.285 53.577 25.6 48.97 25.6c-4.59 0-8.788 1.681-12.032 4.452L28.8 27.609v-2.43c2.898-2.027 4.8-5.382 4.8-9.177V11.2C33.6 5.024 28.576 0 22.4 0c-6.176 0-11.2 5.024-11.2 11.2V16c0 3.797 1.902 7.152 4.8 9.177v2.43l-10.3 3.09C2.292 31.723 0 34.803 0 38.363V51.2h3.2V38.362c0-2.136 1.374-3.985 3.421-4.597l10.302-3.092c.932 1.21 2.733 2.927 5.477 2.927s4.545-1.717 5.477-2.927l6.561 1.968c-2.083 2.62-3.47 5.808-3.891 9.297C28.504 39.766 25.61 38.4 22.4 38.4c-6.176 0-11.2 5.024-11.2 11.2v4.8c0 3.797 1.902 7.152 4.8 9.177v2.43l-10.3 3.09C2.292 70.123 0 73.203 0 76.763V91.2h19.2c.881 0 1.6.719 1.6 1.6v6.4h57.6v-6.4c0-.881.719-1.6 1.6-1.6h19.2V76.762c0-3.56-2.291-6.64-5.7-7.663l-10.3-3.09v-2.43c2.898-2.027 4.8-5.382 4.8-9.177v-4.8c0-6.176-5.024-11.2-11.2-11.2-3.133 0-5.965 1.296-8 3.375v-1.516c0-3.16-1.717-6.005-4.397-7.509l6.92-2.077c.932 1.208 2.733 2.925 5.477 2.925s4.545-1.717 5.477-2.927l10.303 3.092c2.046.612 3.42 2.46 3.42 4.597V51.2h3.2zm-76.8-48c4.41 0 8 3.59 8 8h-7.337c-1.017 0-2.014-.412-2.732-1.131L19.2 8.937l-1.131 1.132c-.718.718-1.715 1.131-2.731 1.131H14.4c0-4.41 3.59-8 8-8zm-8 12.8v-1.6h.938c1.393 0 2.725-.4 3.862-1.147 1.137.747 2.469 1.147 3.863 1.147H30.4V16c0 4.41-3.59 8-8 8s-8-3.59-8-8zm8 14.4c-1.7 0-2.803-1.429-3.2-2.04v-1.63c1.014.302 2.088.47 3.2.47s2.186-.168 3.2-.472v1.63c-.397.615-1.5 2.042-3.2 2.042zm43.98 28.083c.815 2.07 2.222 3.839 4.02 5.096v2.43L60.102 69.1c-.339.101-.668.232-.99.378l-1.512-.349v-3.152c1.71-1.374 3.058-3.18 3.885-5.248 1.843-.162 3.571-.946 4.895-2.245zM49.6 68.8c1.698 0 3.317-.34 4.8-.942V69.6l-4.8 3.6-4.8-3.6v-1.742c1.483.603 3.102.942 4.8.942zm-6.765 3.327l3.9 2.926-4.012 2.408-1.014-5.073 1.126-.261zM47.832 84.8h3.536L52.612 96h-6.025l1.245-11.2zm3.814-3.2h-4.094l-.918-2.755 2.966-1.78 2.965 1.78-.919 2.755zm.818-6.547l3.9-2.926 1.127.259-1.014 5.073-4.013-2.406zM64.352 56.03c-.554.608-1.257 1.033-2.02 1.293.044-.435.068-.876.068-1.322v-7.656c1.722.653 3.003 2.168 3.176 3.978.131 1.377-.303 2.692-1.224 3.707zM59.2 56c0 5.295-4.305 9.6-9.6 9.6S40 61.295 40 56v-8h5.432c3.487 0 6.88-.87 9.913-2.533L56.611 48H59.2v8zm-22.331 1.322c-.764-.26-1.467-.685-2.021-1.293-.921-1.013-1.355-2.33-1.224-3.706.173-1.81 1.454-3.326 3.176-3.978V56c0 .446.024.887.069 1.322zm.846 3.406c.826 2.069 2.173 3.874 3.885 5.248v3.152l-1.512.349c-.323-.146-.651-.275-.989-.378L28.8 66.01v-2.43c1.797-1.257 3.205-3.027 4.02-5.096 1.324 1.299 3.052 2.083 4.895 2.245zM22.4 41.6c4.41 0 8 3.59 8 8h-.938c-1.016 0-2.013-.413-2.73-1.131L25.6 47.337l-1.131 1.132c-.718.718-1.715 1.131-2.732 1.131H14.4c0-4.41 3.59-8 8-8zm-8 12.8v-1.6h7.338c1.393 0 2.724-.4 3.862-1.147 1.137.747 2.469 1.147 3.862 1.147h.938v1.6c0 4.41-3.59 8-8 8s-8-3.59-8-8zm8 11.2c1.112 0 2.186-.168 3.2-.472v1.63c-.397.615-1.5 2.042-3.2 2.042-1.7 0-2.803-1.429-3.2-2.04v-1.63c1.014.302 2.088.47 3.2.47zM19.2 88h-6.4V76.8H9.6V88H3.2V76.762c0-2.136 1.374-3.985 3.421-4.597l10.302-3.092C17.855 70.283 19.656 72 22.4 72s4.545-1.717 5.477-2.927l6.067 1.822-4.463 1.028c-5.111 1.18-8.681 5.67-8.681 10.914V84.8H24v-1.963c0-3.747 2.55-6.952 6.202-7.796l8.387-1.936 1.886 9.434 3.348-2.008.947 2.842L43.368 96H35.2V83.2H32V96h-8v-3.2c0-2.646-2.154-4.8-4.8-4.8zm73.379-15.835c2.047.612 3.421 2.46 3.421 4.597V88h-6.4V76.8h-3.2V88H80c-2.646 0-4.8 2.154-4.8 4.8V96h-8V83.2H64V96h-8.168l-1.403-12.627.947-2.842 3.347 2.008 1.886-9.434L69 75.041c3.65.844 6.201 4.049 6.201 7.796V84.8h3.2v-1.963c0-5.245-3.57-9.733-8.681-10.914l-4.463-1.028 6.067-1.822C72.255 70.283 74.056 72 76.8 72s4.545-1.717 5.477-2.927l10.302 3.092zM80 66.76c-.397.613-1.5 2.04-3.2 2.04-1.704 0-2.808-1.434-3.2-2.04v-1.632c1.014.304 2.088.472 3.2.472s2.186-.168 3.2-.472v1.632zm-3.2-4.36c-4.41 0-8-3.59-8-8v-1.6h.938c1.393 0 2.725-.4 3.862-1.147 1.138.747 2.469 1.147 3.863 1.147H84.8v1.6c0 4.41-3.59 8-8 8zm0-20.8c4.41 0 8 3.59 8 8h-7.337c-1.017 0-2.014-.413-2.732-1.131L73.6 47.337l-1.131 1.132c-.718.718-1.715 1.131-2.731 1.131H68.8c0-4.41 3.59-8 8-8zm-11.2 4.936c-1.416-1.072-3.174-1.736-5.075-1.736h-1.936l-1.968-3.936-1.508 1.005c-2.878 1.919-6.225 2.931-9.681 2.931h-6.757c-1.9 0-3.66.664-5.075 1.736V44.17c0-8.474 6.896-15.37 15.37-15.37 4.105 0 7.966 1.598 10.868 4.5l1.698 1.698.359.12c2.215.74 3.705 2.805 3.705 5.141v6.277zM76.8 3.2c4.41 0 8 3.59 8 8h-.938c-1.016 0-2.013-.412-2.73-1.131L80 8.937l-1.131 1.132c-.718.718-1.715 1.131-2.731 1.131H68.8c0-4.41 3.59-8 8-8zm-8 12.8v-1.6h7.338c1.393 0 2.724-.4 3.862-1.147 1.138.747 2.469 1.147 3.862 1.147h.938V16c0 4.41-3.59 8-8 8s-8-3.59-8-8zm8 14.4c-1.704 0-2.808-1.434-3.2-2.04v-1.632c1.014.304 2.088.472 3.2.472s2.186-.168 3.2-.472v1.63c-.397.615-1.5 2.042-3.2 2.042z"/>
        <path d="M36.8 0L40 0 40 3.2 36.8 3.2zM36.8 6.4L40 6.4 40 24 36.8 24zM59.2 0L62.4 0 62.4 3.2 59.2 3.2zM59.2 6.4L62.4 6.4 62.4 24 59.2 24zM43.2 6.4L46.4 6.4 46.4 17.6 43.2 17.6zM43.2 20.8L46.4 20.8 46.4 24 43.2 24zM52.8 6.4L56 6.4 56 17.6 52.8 17.6zM52.8 20.8L56 20.8 56 24 52.8 24z"/>
    </g>
</svg>
