<svg xmlns="http://www.w3.org/2000/svg" width="72" height="72" viewBox="0 0 72 72"><g transform="translate(72 72) rotate(-180)"><path d="M12.642,72a3.42,3.42,0,0,1-2.432-1.007L1.005,61.788a3.443,3.443,0,0,1,0-4.863L23.627,34.3l-20.5-20.5A7.548,7.548,0,1,1,13.8,3.131l20.5,20.5L36.334,21.6a1.111,1.111,0,0,1,1.571,1.572L35.873,25.2,46.8,36.125l2.183-2.183-2.6-2.6a1.111,1.111,0,0,1,1.571-1.571l2.6,2.6,2.581-2.58-5.919-5.919A1.111,1.111,0,0,1,48.787,22.3l5.919,5.919,2.58-2.581-2.6-2.6a1.111,1.111,0,0,1,1.571-1.571l2.6,2.6,2.58-2.581-2.6-2.6a1.111,1.111,0,0,1,1.571-1.571l2.6,2.6,2.581-2.581-5.918-5.918a1.111,1.111,0,0,1,1.571-1.571l5.918,5.918L69.422,13.5a1.216,1.216,0,0,0,0-1.72L60.217,2.577a1.218,1.218,0,0,0-1.72,0L41.166,19.908a1.111,1.111,0,0,1-1.571-1.571L56.926,1.005a3.444,3.444,0,0,1,4.864,0l9.205,9.205a3.443,3.443,0,0,1,0,4.863L48.37,37.7l16.6,16.6a1.133,1.133,0,0,1,.249.382L70.438,68.1a1.8,1.8,0,0,1-1.68,2.456,1.78,1.78,0,0,1-.652-.122L54.679,65.221a1.114,1.114,0,0,1-.383-.249L42.948,53.626a1.111,1.111,0,1,1,1.572-1.571l10.561,10.56,2.98-2.98L23,24.578a1.111,1.111,0,1,1,1.571-1.572L36.3,34.727c.012.01.023.02.034.031l6.635,6.635c.01.01.018.02.027.03l16.642,16.64,2.98-2.98L46.121,38.592a.979.979,0,0,1-.217-.217L33.518,25.988,21.761,14.232l-2.98,2.981,1.842,1.842a1.111,1.111,0,0,1-1.571,1.571l-1.843-1.842-2.98,2.98L38.308,45.841A1.115,1.115,0,0,1,38.5,46a1.065,1.065,0,0,1,.154.193l2.224,2.224a1.111,1.111,0,0,1-1.571,1.571l-1.612-1.611L15.074,70.993A3.42,3.42,0,0,1,12.642,72ZM25.2,35.876h0L2.578,58.5a1.217,1.217,0,0,0,0,1.72l9.205,9.205a1.216,1.216,0,0,0,1.72,0l2.259-2.259L9.843,61.243a1.111,1.111,0,0,1,1.571-1.571l5.918,5.919,2.581-2.581-2.6-2.6a1.111,1.111,0,1,1,1.571-1.572l2.6,2.6,2.581-2.581-2.6-2.6a1.111,1.111,0,0,1,1.572-1.571l2.6,2.6L28.219,54.7,22.3,48.786a1.111,1.111,0,0,1,1.571-1.571l5.919,5.918,2.581-2.581-2.6-2.6a1.111,1.111,0,0,1,1.571-1.571l2.6,2.6,2.181-2.18L25.2,35.876ZM17.315,9.786h0L9.783,17.318l2.875,2.874,3.766-3.765L20.19,12.66,17.315,9.786Z" fill="#fff"/></g></svg>