<svg xmlns="http://www.w3.org/2000/svg" width="987.244" height="140" viewBox="0 0 987.244 140">
  <g id="Group_30" data-name="Group 30" transform="translate(-468.378 -3916)">
    <path id="Polygon" d="M70,0l60.622,35v70L70,140,9.378,105V35Z" transform="translate(459 3916)" fill="#d0d4de"/>
    <path id="Polygon_Copy_8" data-name="Polygon Copy 8" d="M70,0l60.622,35v70L70,140,9.378,105V35Z" transform="translate(1036 3916)" fill="#d0d4de"/>
    <path id="Polygon_Copy_6" data-name="Polygon Copy 6" d="M70,0l60.622,35v70L70,140,9.378,105V35Z" transform="translate(748 3916)" fill="#d0d4de"/>
    <path id="Polygon_Copy_9" data-name="Polygon Copy 9" d="M70,0l60.622,35v70L70,140,9.378,105V35Z" transform="translate(1325 3916)" fill="#d0d4de"/>
    <path id="Polygon_Copy_5" data-name="Polygon Copy 5" d="M70,0l60.622,35v70L70,140,9.378,105V35Z" transform="translate(603 3916)" fill="#d0d4de"/>
    <path id="Polygon_Copy_10" data-name="Polygon Copy 10" d="M70,0l60.622,35v70L70,140,9.378,105V35Z" transform="translate(1181 3916)" fill="#d0d4de"/>
    <path id="Polygon_Copy_7" data-name="Polygon Copy 7" d="M70,0l60.622,35v70L70,140,9.378,105V35Z" transform="translate(892 3916)" fill="#d0d4de"/>
  </g>
</svg>
