<svg xmlns="http://www.w3.org/2000/svg" width="74.4" height="74.401" viewBox="0 0 74.4 74.401"><defs><style>.a{fill:#23255f;}</style></defs><path class="a" d="M34.8,66.7l-1.552-1.552-1.7,1.7L34.8,70.1l8.048-8.048-1.7-1.7Z"/><path class="a" d="M42.848,6.848l-1.7-1.7L34.8,11.5,33.248,9.952l-1.7,1.7L34.8,14.9Z"/><path class="a" d="M63.6,33.6a6,6,0,1,0-6-6A6.007,6.007,0,0,0,63.6,33.6Zm0-9.6A3.6,3.6,0,1,1,60,27.6,3.6,3.6,0,0,1,63.6,24Z"/><path class="a" d="M69.2,39.238l3.749-6.426a10.646,10.646,0,0,0-9.2-16.012h-.307a10.647,10.647,0,0,0-9.2,16.01L56.111,36H44.4a3.6,3.6,0,0,0-3.6,3.6V55.907a9.559,9.559,0,0,0-2.4-.624V19.117a9.607,9.607,0,1,0-7.2-2.035V48A1.2,1.2,0,0,1,30,49.2H28.8V47.126a6.019,6.019,0,0,0-4.812-5.881l-4.247-.852a2.4,2.4,0,0,1-1.405-1.1A6.01,6.01,0,0,0,19.891,37.2H20.4a3.6,3.6,0,0,0,2.542-6.148,5.971,5.971,0,0,0-7.408-9.367,6.652,6.652,0,0,0-1-.085H10.272A6.662,6.662,0,0,0,5.027,32.382,3.54,3.54,0,0,0,4.8,33.6a3.6,3.6,0,0,0,3.6,3.6h.509a6.006,6.006,0,0,0,1.556,2.093,2.3,2.3,0,0,1-1.313,1.076l-4.34.876A6.02,6.02,0,0,0,0,47.126V54H28.8V51.6H30A3.6,3.6,0,0,0,33.6,48V18.493a9.558,9.558,0,0,0,2.4.624V55.284a9.607,9.607,0,1,0,7.2,2.035V39.6a1.2,1.2,0,0,1,1.2-1.2H57.511l.488.838c-3.244,1.049-5.2,2.95-5.2,5.162,0,3.421,4.643,6,10.8,6s10.8-2.579,10.8-6c0-2.213-1.956-4.114-5.2-5.162ZM10.8,34.8V32.4a1.2,1.2,0,0,1,.971-1.178A12.639,12.639,0,0,0,17.083,32.4H18v2.4a3.6,3.6,0,1,1-7.2,0Zm9.6,0V32.4a1.2,1.2,0,1,1,0,2.4ZM7.2,33.6a1.2,1.2,0,0,1,1.2-1.2v2.4A1.2,1.2,0,0,1,7.2,33.6ZM9.336,30H8.4a3.559,3.559,0,0,0-1.764.481A4.246,4.246,0,0,1,10.272,24h3.437a5.94,5.94,0,0,0-.509,2.4h2.4A3.6,3.6,0,1,1,19.2,30H17.083a10.21,10.21,0,0,1-4.547-1.074l-.253-.126H12A3.582,3.582,0,0,0,9.336,30ZM14.4,40.8a5.913,5.913,0,0,0,1.849-.322,4.812,4.812,0,0,0,.511.712,2.391,2.391,0,0,1-4.72.007,4.761,4.761,0,0,0,.512-.719A5.886,5.886,0,0,0,14.4,40.8Zm12,10.8H2.4V47.126A3.61,3.61,0,0,1,5.287,43.6l4.433-.9c.083-.024.161-.059.241-.088a4.788,4.788,0,0,0,8.876-.008c.112.041.22.086.336.12l4.339.875A3.611,3.611,0,0,1,26.4,47.126ZM30,9.6a7.2,7.2,0,1,1,7.2,7.2A7.207,7.207,0,0,1,30,9.6ZM44.4,64.8a7.2,7.2,0,1,1-7.2-7.2A7.207,7.207,0,0,1,44.4,64.8ZM63.446,19.2h.307a8.246,8.246,0,0,1,7.123,12.4L64.368,42.757a.925.925,0,0,1-1.536,0L56.323,31.6a8.246,8.246,0,0,1,7.123-12.4ZM63.6,48c-4.807,0-8.4-1.9-8.4-3.6,0-1.144,1.661-2.354,4.045-3.028l1.514,2.6a3.289,3.289,0,0,0,5.682,0l1.514-2.6C70.339,42.046,72,43.256,72,44.4,72,46.1,68.407,48,63.6,48Z"/><path class="a" d="M4.8,56.4H21.6v2.4H4.8Z"/><path class="a" d="M4.8,61.2H21.6v2.4H4.8Z"/><path class="a" d="M9.6,66H12v2.4H9.6Z"/><path class="a" d="M4.8,66H7.2v2.4H4.8Z"/><path class="a" d="M14.4,66h2.4v2.4H14.4Z"/><path class="a" d="M19.2,66h2.4v2.4H19.2Z"/></svg>