<svg xmlns="http://www.w3.org/2000/svg" width="25" height="26" viewBox="0 0 25 26">
  <g id="mongodb-plain" transform="translate(0)">
    <path id="Shape" d="M6.624,26h0L6.3,25.878l-.309-.105a.512.512,0,0,0-.038-.041c-.029-.029-.06-.06-.062-.091-.008-.134-.006-.269,0-.4,0-.049,0-.094,0-.139l-.074-.887-.153-.85L5.5,22.817l.185-.633.01-.047c.036-.177.074-.36.108-.541-.036.183-.086.368-.136.547l-.011.041c-.021.077-.041.155-.061.232-.034.132-.07.267-.11.4l-.212-.177c-.3-.253-.59-.491-.877-.755A13.193,13.193,0,0,1,.4,15.583,9.965,9.965,0,0,1,.048,13.5Q.042,13.4.036,13.3a9.726,9.726,0,0,1-.022-1.293A17.053,17.053,0,0,1,.7,8.14L.72,8.112l.716-1.885L2.508,4.308l1.326-1.7c.134-.128.267-.257.4-.386.289-.281.588-.572.9-.842A1.749,1.749,0,0,0,5.864.11.2.2,0,0,1,5.878.057C5.883.041,5.889.024,5.9,0l.113.278L6.178.6c.12.228.244.464.37.693a4.827,4.827,0,0,0,.906,1.083c.087.085.177.174.264.262a14.983,14.983,0,0,1,3.544,5.847,11.838,11.838,0,0,1,.688,3.047,12.975,12.975,0,0,1-.225,3.867.483.483,0,0,1-.022.065c0,.012-.01.025-.014.037-.042.147-.083.3-.122.443-.087.323-.176.657-.3.975a15.423,15.423,0,0,1-.685,1.531A10.514,10.514,0,0,1,9.2,20.529a19.227,19.227,0,0,1-1.358,1.4,6.047,6.047,0,0,1-.578.469c-.09.067-.182.136-.271.206l-.23.4-.081.257-.111,1.182,0,.776L6.624,26ZM6.47,21.944h0l.18.385.266.22-.266-.22Z" fill="#4faa41"/>
  </g>
</svg>
