<svg xmlns="http://www.w3.org/2000/svg" width="219.085" height="190" viewBox="0 0 219.085 190"><defs><style>.a{fill:#2a2c39;}.b,.c{fill:#66ded1;}.c{stroke:#66ded1;stroke-width:1.912px;}.c,.d,.e{stroke-miterlimit:10;}.d,.e{fill:none;stroke:#000;}.d{stroke-width:1.434px;}.e{stroke-width:1.528px;}.f,.g{stroke:none;}.g{fill:rgba(255,255,255,0.16);}</style></defs><g transform="translate(-606.457 -545)"><g class="a" transform="translate(618 555)"><path class="f" d="M147,0l49,85-49,85H49L0,85,49,0Z"/><path class="g" d="M 49 0 L 0 85 L 49 170 L 147 170 L 196 85 L 147 0 L 49 0 M 43.22210693359375 -10 L 49 -10 L 147 -10 L 152.7778930664063 -10 L 155.6635437011719 -4.994293212890625 L 204.6635437011719 80.00571441650391 L 207.5426025390625 85 L 204.6635437011719 89.99428558349609 L 155.6635437011719 174.9942932128906 L 152.7778930664063 180 L 147 180 L 49 180 L 43.22210693359375 180 L 40.33647155761719 174.9942932128906 L -8.663528442382813 89.99428558349609 L -11.5426025390625 85 L -8.663528442382813 80.00571441650391 L 40.33647155761719 -4.994293212890625 L 43.22210693359375 -10 Z"/></g><g transform="translate(409.793 221.992)"><path class="b" d="M324.544,419.437a11.809,11.809,0,1,0,11.81,11.809A11.809,11.809,0,0,0,324.544,419.437Zm-6.049,20.492V435.71a2.575,2.575,0,0,1,2.259-2.548,5.008,5.008,0,0,0,7.588,0,2.574,2.574,0,0,1,2.26,2.548v4.219A10.681,10.681,0,0,1,318.495,439.929Zm13.208-1.26V435.65a3.8,3.8,0,0,0-4.112-3.771.064.064,0,0,0-.051.031,3.523,3.523,0,0,1-5.983,0,.064.064,0,0,0-.051-.031,3.8,3.8,0,0,0-4.112,3.771v3.017c-5.833-5.6-3.672-16.393,6.775-18.131a1.107,1.107,0,0,1,.32-.007C335,421.837,337.6,432.534,332,438.367c-.1.1-.2.2-.3.3Z"/><path class="b" d="M340.574,433.1a16.581,16.581,0,0,0-.115-4.422l1.827-1.753a.66.66,0,0,0,.148-.741l-2.08-4.757a.66.66,0,0,0-.654-.393l-2.532.186a14.866,14.866,0,0,0-3.206-3.054l.075-2.528a.661.661,0,0,0-.422-.636l-4.843-1.871a.662.662,0,0,0-.738.185l-1.636,1.9a16.631,16.631,0,0,0-4.423.114l-1.753-1.827a.66.66,0,0,0-.741-.148l-4.756,2.082a.659.659,0,0,0-.4.653l.186,2.532a14.908,14.908,0,0,0-3.054,3.205l-2.525-.075a.657.657,0,0,0-.636.423l-1.868,4.843a.66.66,0,0,0,.184.738l1.9,1.639a16.579,16.579,0,0,0,.115,4.422l-1.828,1.75a.66.66,0,0,0-.148.741l2.081,4.757a.661.661,0,0,0,.654.394l2.532-.186a14.889,14.889,0,0,0,3.206,3.054l-.075,2.527a.661.661,0,0,0,.423.636l4.843,1.871a.662.662,0,0,0,.738-.185l1.637-1.9a16.622,16.622,0,0,0,4.422-.114l1.753,1.827a.66.66,0,0,0,.741.148l4.757-2.081a.659.659,0,0,0,.393-.653l-.186-2.532a14.888,14.888,0,0,0,3.054-3.206l2.528.074a.661.661,0,0,0,.636-.423l1.871-4.843a.662.662,0,0,0-.185-.738Zm-.849,6.307-2.421-.072a.66.66,0,0,0-.569.294,13.619,13.619,0,0,1-3.241,3.4.662.662,0,0,0-.266.579l.178,2.422-3.907,1.706-1.677-1.749a.664.664,0,0,0-.6-.192,15.3,15.3,0,0,1-4.722.122.659.659,0,0,0-.585.223l-1.565,1.817-3.971-1.533.071-2.421a.659.659,0,0,0-.293-.569,13.6,13.6,0,0,1-3.4-3.241.66.66,0,0,0-.58-.265l-2.417.18L308.05,436.2l1.747-1.677a.659.659,0,0,0,.193-.6,15.3,15.3,0,0,1-.122-4.722.659.659,0,0,0-.223-.585l-1.816-1.565,1.533-3.972,2.421.071a.658.658,0,0,0,.569-.294,13.623,13.623,0,0,1,3.243-3.4.662.662,0,0,0,.266-.579l-.178-2.422,3.907-1.706,1.673,1.746a.66.66,0,0,0,.6.193,15.241,15.241,0,0,1,4.723-.122.658.658,0,0,0,.586-.224l1.565-1.816,3.972,1.534-.071,2.422a.66.66,0,0,0,.294.569,13.614,13.614,0,0,1,3.4,3.24.658.658,0,0,0,.579.266l2.422-.178,1.708,3.908-1.748,1.676a.665.665,0,0,0-.193.6,15.265,15.265,0,0,1,.123,4.722.658.658,0,0,0,.223.585l1.813,1.561Z"/><path class="b" d="M324.544,423.412a4.2,4.2,0,1,0,4.2,4.2h0a4.194,4.194,0,0,0-4.194-4.194Zm0,7.068a2.875,2.875,0,1,1,2.874-2.874,2.877,2.877,0,0,1-2.874,2.874Z"/><circle class="c" cx="26.285" cy="26.285" r="26.285" transform="translate(270.707 386.008)"/><line class="d" y1="14.337" transform="translate(296.829 394.926)"/><line class="d" x1="9.797" transform="translate(299.219 412.13)"/><circle class="e" cx="2.628" cy="2.628" r="2.628" transform="translate(294.201 409.502)"/><line class="e" y1="2.867" x2="1.912" transform="translate(306.626 391.819)"/><line class="e" y1="2.221" x2="3.203" transform="translate(313.795 400.112)"/><line class="e" x2="3.446" transform="translate(316.632 411.927)"/><line class="e" x1="1.912" y2="2.867" transform="translate(284.869 429.086)"/><line class="e" x1="3.203" y2="2.221" transform="translate(276.409 421.439)"/><line class="e" x1="3.446" transform="translate(273.328 411.845)"/><line class="e" x1="2.867" y1="1.912" transform="translate(276.533 400.291)"/><line class="e" x1="2.221" y1="3.203" transform="translate(284.827 391.831)"/><line class="e" y1="3.446" transform="translate(296.641 388.751)"/><line class="e" x2="2.867" y2="1.912" transform="translate(313.845 421.726)"/><line class="e" x2="2.221" y2="3.203" transform="translate(306.199 428.895)"/><line class="e" y2="3.446" transform="translate(296.605 431.732)"/></g></g></svg>