<svg xmlns="http://www.w3.org/2000/svg" width="1455.459" height="578" viewBox="0 0 1455.459 578"><defs><style>.a,.b,.c{fill:#fff;}.a{opacity:0.05;}.b{opacity:0.1;}.c{opacity:0.2;}</style></defs><g transform="translate(5.368 12)"><path class="a" d="M109,0l94.4,54.5v109L109,218,14.6,163.5V54.5Z" transform="translate(283 328)"/><path class="b" d="M171,0,319.09,85.5v171L171,342,22.91,256.5V85.5Z" transform="translate(1119 23)"/><path class="b" d="M49.5,0,92.368,24.5v49L49.5,98,6.632,73.5v-49Z" transform="translate(0 456)"/><path class="c" d="M36.5,0,68.11,18V54L36.5,72,4.89,54V18Z" transform="translate(1320)"/><path class="a" d="M56,0l48.5,28V84L56,112,7.5,84V28Z" transform="translate(457 349)"/><path class="b" d="M36,0,67.177,18V54L36,72,4.823,54V18Z" transform="translate(595 345)"/><path class="b" d="M34.5,0,64.378,17V51L34.5,68,4.622,51V17Z" transform="translate(255 437)"/></g></svg>