<svg xmlns="http://www.w3.org/2000/svg" xmlns:xlink="http://www.w3.org/1999/xlink" width="1640" height="367.949" viewBox="0 0 1640 367.949"><defs><style>.a{fill:#66ded1;}.b,.d{fill:#fff;}.c{clip-path:url(#a);}.d{opacity:0.1;}.e{clip-path:url(#b);}</style><clipPath id="a"><rect class="a" width="1640" height="360"/></clipPath><clipPath id="b"><rect class="b" width="362" height="158" transform="translate(1419 2234)"/></clipPath></defs><g transform="translate(-141 -2032)"><g transform="translate(-2552.5 11410)"><rect class="a" width="1640" height="360" transform="translate(2693.5 -9378)"/></g><path class="d" d="M102,0l34,58.5L102,117H34L0,58.5,34,0Z" transform="translate(238.718 2399.949) rotate(-135)"/><path class="d" d="M27,0l9,15.5L27,31H9L0,15.5,9,0Z" transform="translate(318.77 2266.188) rotate(-135)"/><path class="d" d="M69,0,92,39.5,69,79H23L0,39.5,23,0Z" transform="translate(1743 2136) rotate(180)"/><g class="e"><path class="d" d="M249,0l83,143.5L249,287H83L0,143.5,83,0Z" transform="matrix(-0.966, 0.259, -0.259, -0.966, 1804.484, 2488.146)"/></g></g></svg>