<svg xmlns="http://www.w3.org/2000/svg" width="219.085" height="190" viewBox="0 0 219.085 190"><defs><style>.a{fill:#2a2c39;}.b{fill:#66ded1;}.c,.d{stroke:none;}.d{fill:rgba(255,255,255,0.16);}</style></defs><g transform="translate(-1088.457 -545)"><g class="a" transform="translate(1100 555)"><path class="c" d="M147,0l49,85-49,85H49L0,85,49,0Z"/><path class="d" d="M 49 0 L 0 85 L 49 170 L 147 170 L 196 85 L 147 0 L 49 0 M 43.22210693359375 -10 L 49 -10 L 147 -10 L 152.7778930664063 -10 L 155.6635437011719 -4.994293212890625 L 204.6635437011719 80.00571441650391 L 207.5426025390625 85 L 204.6635437011719 89.99428558349609 L 155.6635437011719 174.9942932128906 L 152.7778930664063 180 L 147 180 L 49 180 L 43.22210693359375 180 L 40.33647155761719 174.9942932128906 L -8.663528442382813 89.99428558349609 L -11.5426025390625 85 L -8.663528442382813 80.00571441650391 L 40.33647155761719 -4.994293212890625 L 43.22210693359375 -10 Z"/></g><g transform="translate(1162 604)"><path class="b" d="M33.29,42.581A9.29,9.29,0,1,0,24,33.29,9.3,9.3,0,0,0,33.29,42.581Zm0-16.258a6.968,6.968,0,1,1-6.968,6.968A6.975,6.975,0,0,1,33.29,26.323Z" transform="translate(2.71 2.71)"/><path class="b" d="M32.645,37.29A4.645,4.645,0,1,0,28,32.645,4.65,4.65,0,0,0,32.645,37.29Zm0-6.968a2.323,2.323,0,1,1-2.323,2.323A2.325,2.325,0,0,1,32.645,30.323Z" transform="translate(3.355 3.355)"/><path class="b" d="M26.467,47.816l2.03-.971c.181.08.363.157.547.228l.747,2.121H38.4l.749-2.121q.273-.108.547-.228l2.03.971,6.09-6.09-.971-2.03c.08-.181.157-.363.228-.547l2.119-.747V29.792l-2.121-.749q-.108-.273-.228-.547l.971-2.03-6.09-6.09-2.03.971c-.181-.08-.363-.157-.547-.228L38.4,19H29.792l-.749,2.121q-.273.108-.547.228l-2.03-.971-6.09,6.09.971,2.03c-.08.181-.157.363-.228.547L19,29.791V38.4l2.121.749q.108.273.228.547l-.971,2.03ZM21.323,36.758V31.434l1.617-.57.182-.532A11.354,11.354,0,0,1,23.677,29l.247-.505-.741-1.549,3.765-3.765,1.549.741L29,23.674a11.556,11.556,0,0,1,1.332-.555l.532-.182.569-1.614H36.76l.57,1.617.532.182a11.355,11.355,0,0,1,1.332.555l.505.247,1.549-.741,3.765,3.765L44.272,28.5l.247.505a11.555,11.555,0,0,1,.555,1.332l.182.532,1.614.569V36.76l-1.617.57-.182.532a11.355,11.355,0,0,1-.555,1.332l-.247.505.741,1.549-3.765,3.765L39.7,44.272l-.505.247a11.556,11.556,0,0,1-1.332.555l-.532.182-.569,1.614H31.434l-.57-1.617-.532-.182A11.354,11.354,0,0,1,29,44.517l-.505-.247-1.549.741-3.765-3.765.741-1.549-.247-.505a11.556,11.556,0,0,1-.555-1.332l-.182-.532Z" transform="translate(1.903 1.903)"/><path class="b" d="M16.1,47H4.484A3.488,3.488,0,0,0,1,50.484V62.1a3.488,3.488,0,0,0,3.484,3.484H16.1A3.488,3.488,0,0,0,19.581,62.1V50.484A3.488,3.488,0,0,0,16.1,47Zm1.161,15.1A1.163,1.163,0,0,1,16.1,63.258H4.484A1.163,1.163,0,0,1,3.323,62.1V50.484a1.163,1.163,0,0,1,1.161-1.161H16.1a1.163,1.163,0,0,1,1.161,1.161Z" transform="translate(-1 6.419)"/><path class="b" d="M62.1,24H50.484A3.488,3.488,0,0,0,47,27.484V39.1a3.488,3.488,0,0,0,3.484,3.484H62.1A3.488,3.488,0,0,0,65.581,39.1V27.484A3.488,3.488,0,0,0,62.1,24Zm1.161,15.1A1.163,1.163,0,0,1,62.1,40.258H50.484A1.163,1.163,0,0,1,49.323,39.1V27.484a1.163,1.163,0,0,1,1.161-1.161H62.1a1.163,1.163,0,0,1,1.161,1.161Z" transform="translate(6.419 2.71)"/><path class="b" d="M10.484,19.581H22.1A3.488,3.488,0,0,0,25.581,16.1V4.484A3.488,3.488,0,0,0,22.1,1H10.484A3.488,3.488,0,0,0,7,4.484V16.1A3.488,3.488,0,0,0,10.484,19.581ZM9.323,4.484a1.163,1.163,0,0,1,1.161-1.161H22.1a1.163,1.163,0,0,1,1.161,1.161V16.1A1.163,1.163,0,0,1,22.1,17.258H10.484A1.163,1.163,0,0,1,9.323,16.1Z" transform="translate(-0.032 -1)"/><path class="b" d="M7.437,57.44l-1.5-1.5L4.293,57.58l3.144,3.144,7.789-7.789-1.642-1.642Z" transform="translate(-0.469 7.112)"/><path class="b" d="M21.225,6.935,19.583,5.293,13.437,11.44l-1.5-1.5L10.293,11.58l3.144,3.144Z" transform="translate(0.499 -0.308)"/><path class="b" d="M53.437,34.44l-1.5-1.5L50.293,34.58l3.144,3.144,7.789-7.789-1.642-1.642Z" transform="translate(6.95 3.402)"/><path class="b" d="M50.963,45.4l.563,2.253,6.6-1.65a28.928,28.928,0,0,1-36.47,10.633l-.974,2.108A31.245,31.245,0,0,0,59.8,47.68l.744,5.955,2.3-.288L61.525,42.756Z" transform="translate(2.175 5.735)"/><path class="b" d="M13.659,38.755l-2.259-.54-1.417,5.93a27.429,27.429,0,0,1-2.1-10.3,28.8,28.8,0,0,1,2.709-12.266l-2.105-.982A31.12,31.12,0,0,0,5.562,33.84,29.736,29.736,0,0,0,7.809,44.964l-5.17-2.851L1.517,44.148l9.59,5.286Z" transform="translate(-0.917 2.16)"/><path class="b" d="M34.9,10.458,31.127,7.941H33.1A28.967,28.967,0,0,1,58.859,23.573L60.918,22.5A31.279,31.279,0,0,0,33.1,5.618H31.127L34.9,3.1,33.615,1.168,25.2,6.779l8.417,5.611Z" transform="translate(2.903 -0.973)"/></g></g></svg>