<svg xmlns="http://www.w3.org/2000/svg" width="219.085" height="190" viewBox="0 0 219.085 190"><defs><style>.a{fill:#2a2c39;}.b{fill:#66ded1;}.c,.d{stroke:none;}.d{fill:rgba(255,255,255,0.16);}</style></defs><g transform="translate(-846.457 -545)"><g class="a" transform="translate(858 555)"><path class="c" d="M147,0l49,85-49,85H49L0,85,49,0Z"/><path class="d" d="M 49 0 L 0 85 L 49 170 L 147 170 L 196 85 L 147 0 L 49 0 M 43.22210693359375 -10 L 49 -10 L 147 -10 L 152.7778930664063 -10 L 155.6635437011719 -4.994293212890625 L 204.6635437011719 80.00571441650391 L 207.5426025390625 85 L 204.6635437011719 89.99428558349609 L 155.6635437011719 174.9942932128906 L 152.7778930664063 180 L 147 180 L 49 180 L 43.22210693359375 180 L 40.33647155761719 174.9942932128906 L -8.663528442382813 89.99428558349609 L -11.5426025390625 85 L -8.663528442382813 80.00571441650391 L 40.33647155761719 -4.994293212890625 L 43.22210693359375 -10 Z"/></g><g transform="translate(919 604)"><path class="b" d="M24,0A18,18,0,0,0,6,18V31.2a8.41,8.41,0,0,0,8.4,8.4h1.2V37.2H14.4a6.007,6.007,0,0,1-6-6V18a15.6,15.6,0,1,1,31.2,0V31.2a6.007,6.007,0,0,1-6,6H32.4v2.4h1.2A8.41,8.41,0,0,0,42,31.2V18A18,18,0,0,0,24,0Z" transform="translate(1)"/><path class="b" d="M9.889,56.555l.877-1.381L8.74,53.887,7.862,55.27a11.962,11.962,0,0,0,.5,13.54V72h2.4V68.4a1.2,1.2,0,0,0-.263-.75A9.56,9.56,0,0,1,9.889,56.555Z" transform="translate(1)"/><path class="b" d="M66,0H50.4a6.007,6.007,0,0,0-6,6V18a6.007,6.007,0,0,0,6,6h2.4v4.8a1.2,1.2,0,0,0,.74,1.109A1.185,1.185,0,0,0,54,30a1.2,1.2,0,0,0,.848-.352L60.5,24H66a6.007,6.007,0,0,0,6-6V6A6.007,6.007,0,0,0,66,0Zm3.6,18A3.6,3.6,0,0,1,66,21.6H60a1.2,1.2,0,0,0-.848.352L55.2,25.9V22.8A1.2,1.2,0,0,0,54,21.6H50.4A3.6,3.6,0,0,1,46.8,18V6a3.6,3.6,0,0,1,3.6-3.6H66A3.6,3.6,0,0,1,69.6,6Z" transform="translate(1)"/><rect class="b" width="8.4" height="2.4" transform="translate(51.4 6)"/><rect class="b" width="4.8" height="2.4" transform="translate(62.2 6)"/><rect class="b" width="15.6" height="2.4" transform="translate(51.4 10.8)"/><rect class="b" width="8.4" height="2.4" transform="translate(51.4 15.6)"/><path class="b" d="M40.138,55.27l-.877-1.382-2.027,1.286.877,1.382A9.558,9.558,0,0,1,37.5,67.65a1.2,1.2,0,0,0-.263.75V72h2.4V68.809A11.962,11.962,0,0,0,40.138,55.27Z" transform="translate(1)"/><path class="b" d="M70.8,40.8H60a8.4,8.4,0,0,0-8.383,8.058L48,55.369V50.4A8.41,8.41,0,0,0,39.6,42H35.214l-.032-.025L35.16,42H32.4A2.4,2.4,0,0,1,30,39.6V36.776A12,12,0,0,0,36,26.4V16.8a12.025,12.025,0,0,0-1.44-5.7A1.2,1.2,0,0,0,33,10.589L12.689,20.146A1.2,1.2,0,0,0,12,21.232V26.4a12,12,0,0,0,6,10.376V39.6A2.4,2.4,0,0,1,15.6,42H8.4A8.41,8.41,0,0,0,0,50.4V72H2.4V50.4a6.007,6.007,0,0,1,6-6h3.818L23.024,59.5a1.2,1.2,0,0,0,.96.5H24a1.2,1.2,0,0,0,.96-.48L36.36,44.4H39.6a6.007,6.007,0,0,1,6,6V60a1.2,1.2,0,0,0,2.249.582L53.506,50.4h6.88L48.685,72h2.73l11.7-21.6h.48A8.41,8.41,0,0,0,72,42,1.2,1.2,0,0,0,70.8,40.8ZM14.4,26.4V21.994l18.529-8.719A9.6,9.6,0,0,1,33.6,16.8v9.6a9.6,9.6,0,1,1-19.2,0Zm9.625,30.374-3.7-5.174h7.6ZM29.741,49.2H18.6l-3.436-4.8H15.6a4.8,4.8,0,0,0,4.8-4.8V37.847a11.99,11.99,0,0,0,7.2,0V39.6a4.8,4.8,0,0,0,4.8,4.8h.96ZM63.6,48H54.12A6.01,6.01,0,0,1,60,43.2h9.48A6.01,6.01,0,0,1,63.6,48Z" transform="translate(1)"/></g></g></svg>