<svg xmlns="http://www.w3.org/2000/svg" width="679.545" height="250" viewBox="0 0 679.545 250"><defs><style>.a{opacity:0.38;}.b,.c{fill:#fff;}.b{opacity:0.05;}.c{opacity:0.1;}</style></defs><g class="a" transform="translate(-905.046 -3435)"><path class="b" d="M109,0l94.4,54.5v109L109,218,14.6,163.5V54.5Z" transform="translate(1296.223 3673) rotate(180)"/><path class="c" d="M49.5,0,92.368,24.5v49L49.5,98,6.632,73.5v-49Z" transform="translate(1579.223 3545) rotate(180)"/><path class="b" d="M56,0l48.5,28V84L56,112,7.5,84V28Z" transform="translate(1122.223 3652) rotate(180)"/><path class="c" d="M36,0,67.177,18V54L36,72,4.823,54V18Z" transform="translate(984.223 3656) rotate(180)"/><path class="c" d="M34.5,0,64.378,17V51L34.5,68,4.622,51V17Z" transform="translate(1324.223 3564) rotate(180)"/></g></svg>