<svg xmlns="http://www.w3.org/2000/svg" width="435.107" height="376" viewBox="0 0 435.107 376"><defs><style>.a{fill:rgba(102,222,209,0.06);}.b,.c{stroke:none;}.c{fill:#66ded1;}</style></defs><g class="a" transform="translate(11.553 10)"><path class="b" d="M 311.8835144042969 361 L 309 361 L 103 361 L 100.1165008544922 361 L 98.67233276367188 358.5042114257813 L -4.327666759490967 180.5042266845703 L -5.776777744293213 178 L -4.327666759490967 175.4957733154297 L 98.67233276367188 -2.50422215461731 L 100.1165008544922 -5 L 103 -5 L 309 -5 L 311.8835144042969 -5 L 313.3276672363281 -2.50422215461731 L 416.3276672363281 175.4957733154297 L 417.7767639160156 178 L 416.3276672363281 180.5042266845703 L 313.3276672363281 358.5042114257813 L 311.8835144042969 361 Z"/><path class="c" d="M 103 0 L 0 178 L 103 356 L 309 356 L 412 178 L 309 0 L 103 0 M 97.23300170898438 -10 L 103 -10 L 309 -10 L 314.7669982910156 -10 L 317.6553649902344 -5.0084228515625 L 420.6553649902344 172.9915618896484 L 423.5534973144531 178 L 420.6553649902344 183.0084381103516 L 317.6553649902344 361.0084228515625 L 314.7669982910156 366 L 309 366 L 103 366 L 97.23300170898438 366 L 94.34463500976563 361.0084228515625 L -8.655364990234375 183.0084381103516 L -11.55349731445313 178 L -8.655364990234375 172.9915618896484 L 94.34463500976563 -5.0084228515625 L 97.23300170898438 -10 Z"/></g></svg>