<svg xmlns="http://www.w3.org/2000/svg" width="45" height="45" viewBox="0 0 45 45">
    <g fill="none" fill-rule="evenodd">
        <path fill="#173A56" d="M22.26 44.52c12.294 0 22.26-9.966 22.26-22.26C44.52 9.966 34.554 0 22.26 0 9.966 0 0 9.966 0 22.26c0 12.294 9.966 22.26 22.26 22.26z"/>
        <g fill="#FFF" fill-rule="nonzero">
            <path d="M9.111 14.233l-.314.629c-.457.917-.696 1.927-.697 2.952v4.536c.001.883.717 1.599 1.6 1.6h6c.883-.001 1.599-.717 1.6-1.6v-5c0-1.232-.175-2.457-.52-3.64L15.2 8.293V6.75c.003-.47.364-.861.833-.901.207-.017.367-.19.367-.399-.002-1.49-1.21-2.698-2.7-2.7H7.3c-.22 0-.4.18-.4.4v1.6c0 .22.18.4.4.4h1.187c-.066 1.094-.405 2.154-.986 3.084l-.94 1.504c-.077.123-.081.279-.01.406.07.127.204.206.349.206h1.6c.13 0 .25-.062.325-.168l.814-1.139c.36-.503.65-1.054.861-1.637v.944c-.002 2.042-.478 4.056-1.389 5.883zM16.5 17.35v5c0 .442-.358.8-.8.8h-6c-.442 0-.8-.358-.8-.8v-4.536c.001-.9.21-1.788.612-2.594l.315-.629c.906-1.818 1.406-3.81 1.467-5.841H14.5l1.512 5.184c.324 1.11.488 2.26.488 3.416zm-2.1-9.4h-3.1v-.8h3.1v.8zm1.173-2.819c-.558.188-.983.647-1.125 1.219H10.9v-1.6c0-.22-.18-.4-.4-.4H9.3v-.8h4.4c.926.001 1.717.669 1.873 1.581zM7.7 3.55h.8v.8h-.8v-.8zm1.288 5.028l-.694.972h-.672l.557-.892C8.84 7.601 9.222 6.394 9.29 5.15h.811c-.006 1.23-.395 2.428-1.112 3.428z" transform="translate(13 10)"/>
            <path d="M14.5 15.95h-3.6c-.442 0-.8.358-.8.8v4.8c0 .442.358.8.8.8h3.6c.442 0 .8-.358.8-.8v-4.8c0-.442-.358-.8-.8-.8zm0 5.6h-3.6v-4.8h3.6v4.8z" transform="translate(13 10)"/>
            <path d="M2.082 0.167L2.882 0.167 2.882 1.142 2.082 1.142z" transform="translate(13 10) rotate(-51.331 2.482 .654)"/>
            <path d="M5.128 2.603L5.928 2.603 5.928 3.578 5.128 3.578z" transform="translate(13 10) rotate(-51.331 5.528 3.09)"/>
            <path d="M3.605 1.385L4.405 1.385 4.405 2.36 3.605 2.36z" transform="translate(13 10) rotate(-51.331 4.005 1.872)"/>
            <path d="M3.925 3.55L4.9 3.55 4.9 4.35 3.925 4.35zM1.976 3.55L2.95 3.55 2.95 4.35 1.976 4.35zM.026 3.55L1.001 3.55 1.001 4.35.026 4.35z" transform="translate(13 10)"/>
            <path d="M1.996 6.845L2.971 6.845 2.971 7.645 1.996 7.645z" transform="translate(13 10) rotate(-38.669 2.484 7.245)"/>
            <path d="M5.041 4.408L6.016 4.408 6.016 5.208 5.041 5.208z" transform="translate(13 10) rotate(-38.669 5.528 4.808)"/>
            <path d="M3.518 5.627L4.494 5.627 4.494 6.427 3.518 6.427z" transform="translate(13 10) rotate(-38.669 4.006 6.027)"/>
            <path d="M14.665 13.167c-.102.03-.187.1-.237.193-.05.094-.062.203-.031.305l.12.4c.04.138.151.244.29.277.14.033.287-.01.386-.116.098-.104.132-.254.09-.391l-.12-.4c-.063-.212-.286-.332-.498-.268zM13.825 10.367c-.102.03-.187.1-.237.193-.05.094-.062.203-.031.305l.48 1.6c.04.138.151.244.29.277.14.033.287-.01.386-.116.098-.104.132-.254.09-.391l-.48-1.6c-.063-.212-.286-.332-.498-.268z" transform="translate(13 10)"/>
        </g>
    </g>
</svg>
