<svg xmlns="http://www.w3.org/2000/svg" width="45" height="45" viewBox="0 0 45 45">
    <g fill="none" fill-rule="evenodd">
        <path fill="#173A56" d="M22.26 44.52c12.294 0 22.26-9.966 22.26-22.26C44.52 9.966 34.554 0 22.26 0 9.966 0 0 9.966 0 22.26c0 12.294 9.966 22.26 22.26 22.26z"/>
        <g fill="#FFF" fill-rule="nonzero">
            <path d="M18.254 13.376c-.02-.033-.04-.065-.061-.093-.207-.29-.515-.48-.866-.538-.349-.058-.703.025-.99.231l-3.817 2.725H8.533c-.188 0-.341-.153-.341-.341 0-.188.153-.341.341-.341h2.219c.659 0 1.195-.536 1.195-1.195l-.001-.039c-.021-.658-.577-1.171-1.221-1.156h-4.44c-.394.004-.778.145-1.08.397l-1.669 1.389c-.078.065-.123.161-.123.262v4.096c0 .19.153.342.342.342h8.469c.554-.001 1.094-.196 1.52-.55l4.139-3.419c.562-.4.725-1.178.371-1.77zm-.787 1.23l-4.157 3.433c-.306.253-.692.392-1.087.393H4.096v-3.595l1.547-1.287c.181-.151.41-.236.644-.238h4.449c.283 0 .519.213.528.512 0 .282-.23.512-.512.512H8.533c-.564 0-1.024.46-1.024 1.024 0 .565.46 1.024 1.024 1.024h4.096c.071 0 .14-.022.2-.063l3.905-2.79c.14-.1.311-.14.483-.113.17.029.32.122.423.265.01.014.02.028.028.043.173.29.093.669-.2.88z" transform="translate(12 12)"/>
            <path d="M3.744 13.995H0v.682h3.403v5.12H0v.683h3.744c.189 0 .342-.153.342-.341v-5.803c0-.189-.153-.341-.342-.341z" transform="translate(12 12)"/>
            <path d="M1.707 17.067c-.565 0-1.024.46-1.024 1.024 0 .564.46 1.024 1.024 1.024.564 0 1.024-.46 1.024-1.024 0-.565-.46-1.024-1.024-1.024zm0 1.365c-.188 0-.342-.153-.342-.341 0-.189.154-.342.342-.342.188 0 .341.153.341.342 0 .188-.153.341-.341.341zM20.139 10.581H.34c-.188 0-.341.153-.341.342 0 1.317 1.072 2.389 2.39 2.389h15.7c1.318 0 2.39-1.072 2.39-2.39 0-.188-.153-.34-.341-.34zM18.09 12.63H2.389c-.824 0-1.513-.587-1.672-1.365h19.046c-.159.778-.848 1.365-1.672 1.365z" transform="translate(12 12)"/>
            <path d="M10.24 1.707c-4.893 0-8.875 3.981-8.875 8.874v.342c0 .188.153.341.342.341h17.066c.19 0 .342-.153.342-.341v-.342c0-4.893-3.981-8.874-8.875-8.874zM2.048 10.58c0-4.517 3.675-8.192 8.192-8.192s8.192 3.675 8.192 8.192H2.048z" transform="translate(12 12)"/>
            <path d="M4.626 5.6c-.239.269-.46.556-.658.854l.57.377c.18-.272.381-.533.598-.777l-.51-.454zM10.24 3.072c-1.917.001-3.742.725-5.139 2.038l.468.498c1.27-1.194 2.929-1.852 4.671-1.853v-.683zM9.216 0H11.264V1H9.216z" transform="translate(12 12)"/>
            <path d="M9.899 0.341H10.899V2.048H9.899z" transform="translate(12 12)"/>
        </g>
    </g>
</svg>
