<svg xmlns="http://www.w3.org/2000/svg" width="45" height="45" viewBox="0 0 45 45">
    <g fill="none" fill-rule="evenodd">
        <path fill="#173A56" d="M22.26 44.52c12.294 0 22.26-9.966 22.26-22.26C44.52 9.966 34.554 0 22.26 0 9.966 0 0 9.966 0 22.26c0 12.294 9.966 22.26 22.26 22.26z"/>
        <g fill="#FFF" fill-rule="nonzero" transform="translate(13 11)">
            <circle cx="11.616" cy="8.8" r="1"/>
            <circle cx="7.392" cy="8.8" r="1"/>
            <path d="M10.912 10.912h-.704c0 .388-.316.704-.704.704-.388 0-.704-.316-.704-.704h-.704c0 .777.631 1.408 1.408 1.408.777 0 1.408-.631 1.408-1.408z"/>
            <path d="M15.531 16.294l-3.61-1.478c-.4-.163-.657-.547-.657-.977v-.253c1.083-.749 1.91-1.805 2.38-3.026h.084c.97 0 1.76-.79 1.76-1.76V6.271c.409-.145.704-.533.704-.991 0-.553-.428-1.002-.97-1.047C14.457 1.729 12.146 0 9.504 0 6.861 0 4.551 1.728 3.786 4.233c-.542.044-.97.494-.97 1.047 0 .458.295.846.704.991V8.8c0 .97.79 1.76 1.76 1.76h.085c.469 1.222 1.296 2.277 2.379 3.026v.253c0 .43-.257.814-.656.977l-3.611 1.477C1.365 17.158 0 19.19 0 21.472v.352h19.008v-.352c0-2.282-1.365-4.314-3.477-5.178zM6.598 17.6l.277.704H4.117l-.26-.704h2.74zm-2.735-.704l2.117-.866.34.866H3.864zm3.177 2.816H4.224v-.704H7.04v.704zm-2.816.704H7.04v.704H4.224v-.704zm2.407-4.652l.487-.2c.51.817 1.412 1.332 2.386 1.332.975 0 1.876-.515 2.386-1.332l.487.2-1.113 2.825v2.531h-3.52v-2.53l-1.113-2.826zm6.397.266l2.116.866h-2.457l.341-.866zm1.756 3.682h-2.816v-.704h2.816v.704zm-2.816.704h2.816v.704h-2.816v-.704zm2.923-2.112h-2.758l.277-.704h2.742l-.261.704zM4.865 7.094c-.237.058-.453.164-.641.307V6.5c.202.213.414.414.641.595zm.197-.758h8.884c-1.004.899-2.302 1.408-3.671 1.408H8.733c-1.37 0-2.667-.509-3.671-1.408zm9.722.164v.901c-.189-.142-.404-.248-.641-.306.227-.181.439-.382.641-.595zm-.91 3.341c.133-.521.206-1.065.206-1.621v-.411c.409.145.704.533.704.991 0 .532-.397.97-.91 1.041zM6.33 1.765l.365 1.824.69-.138-.42-2.098c.373-.204.77-.363 1.188-.473l.297 2.678.7-.077L8.846.749c.217-.027.436-.045.658-.045.222 0 .441.018.658.045l-.304 2.732.7.078.297-2.678c.417.11.815.269 1.187.473l-.42 2.097.691.139.365-1.824c.815.613 1.453 1.459 1.805 2.459H4.525c.352-1.001.99-1.847 1.805-2.46zM3.872 4.928h11.264c.194 0 .352.158.352.352 0 .194-.158.352-.352.352H3.872c-.194 0-.352-.158-.352-.352 0-.194.158-.352.352-.352zM4.224 8.8c0-.458.295-.846.704-.991v.41c0 .557.073 1.1.206 1.622-.513-.072-.91-.509-.91-1.041zm1.408-.58v-.606c.932.538 1.996.834 3.101.834h1.542c1.106 0 2.169-.296 3.101-.834v.606c0 2.472-1.55 4.662-3.872 5.488-2.321-.826-3.872-3.016-3.872-5.488zm3.76 6.194l.112.037.111-.037c.334-.111.653-.247.957-.406.048.497.3.94.692 1.234-.388.585-1.049.95-1.76.95-.711 0-1.372-.365-1.76-.95.392-.293.644-.737.691-1.234.304.159.624.295.958.406zm-6.388 2.912l.516 1.393v2.401H.716c.112-1.572.968-2.972 2.288-3.794zm12.484 3.794v-2.401l.516-1.393c1.32.821 2.176 2.222 2.288 3.794h-2.804z"/>
            <path d="M8.85 20.587L9.454 20.949 10.83 18.656 9.774 18.656 10.51 17.429 9.906 17.067 8.53 19.36 9.586 19.36z"/>
        </g>
    </g>
</svg>
