<svg xmlns="http://www.w3.org/2000/svg" width="44.52" height="44.52" viewBox="0 0 44.52 44.52">
  <g id="Group_1" data-name="Group 1" transform="translate(0 0)">
    <circle id="Oval_Copy_12" data-name="Oval Copy 12" cx="22.26" cy="22.26" r="22.26" transform="translate(0 0)" fill="#173a56"/>
    <path id="Shape" d="M1.762,7.107A2.375,2.375,0,0,1,.077,5.416,2.409,2.409,0,0,1,1.438,2.595a1.1,1.1,0,0,0,.621-.745A2.362,2.362,0,0,1,4.343,0,2.428,2.428,0,0,1,6.71,1.779a1.261,1.261,0,0,0,.714.837A2.241,2.241,0,0,1,8.577,3.785a2.446,2.446,0,0,1-.191,2.334,2.4,2.4,0,0,1-3.291.692,1.245,1.245,0,0,0-1.354-.035A2.367,2.367,0,0,1,2.4,7.19,2.538,2.538,0,0,1,1.762,7.107Z" transform="translate(19.43 14.215)" fill="#fff"/>
    <path id="Shape-2" data-name="Shape" d="M7.31,8.822,5.218,7.607a3.642,3.642,0,0,0-1.3-.387A1.2,1.2,0,0,1,2.8,7.988H.4a.4.4,0,0,1-.4-.4V.4A.4.4,0,0,1,.4,0H2.8A1.2,1.2,0,0,1,3.925.8H6.756a2.8,2.8,0,0,1,1.372.359l2.111,1.187a.4.4,0,0,0,.2.051H13.02a1.6,1.6,0,0,1,1.6,1.6,1.642,1.642,0,0,1-.026.283l3.765-1.294a1.55,1.55,0,0,1,1.893.666c.558,1.032.045,1.652-.931,2.273A.4.4,0,1,1,19,5.188c.545-.323.851-.6.547-1.16a.759.759,0,0,0-.922-.293L13.769,5.4a1.59,1.59,0,0,1-.749.187H8.96a.4.4,0,1,1,0-.8h4.06a.8.8,0,1,0,0-1.6H10.435a1.2,1.2,0,0,1-.589-.154L7.736,1.854A2.008,2.008,0,0,0,6.757,1.6H3.994V6.424a4.418,4.418,0,0,1,1.633.5L7.718,8.135a4.294,4.294,0,0,0,3.987.227l4.364-1.9a.4.4,0,1,1,.319.733L12.032,9.09A5.087,5.087,0,0,1,7.31,8.822Z" transform="translate(12 21.924)" fill="#fff"/>
    <path id="Shape-3" data-name="Shape" d="M0,1.6A1.6,1.6,0,1,1,1.6,3.2,1.6,1.6,0,0,1,0,1.6Z" transform="translate(24.222 11.02)" fill="#fff"/>
    <path id="Shape-4" data-name="Shape" d="M0,1.6A1.6,1.6,0,1,1,1.6,3.2,1.6,1.6,0,0,1,0,1.6Z" transform="translate(20.228 11.02)" fill="#fff"/>
    <path id="Shape-5" data-name="Shape" d="M0,1.2A1.2,1.2,0,1,1,1.2,2.4,1.2,1.2,0,0,1,0,1.2Z" transform="translate(26.618 14.215)" fill="#fff"/>
    <path id="Shape-6" data-name="Shape" d="M0,1.2A1.2,1.2,0,1,1,1.2,2.4,1.2,1.2,0,0,1,0,1.2Z" transform="translate(18.63 14.215)" fill="#fff"/>
  </g>
</svg>
