<svg xmlns="http://www.w3.org/2000/svg" width="743.795" height="496.304" viewBox="0 0 743.795 496.304"><defs><style>.a{fill:#3251b4;}.b{fill:#647b8e;}.c{fill:#bcd0e5;}.d{fill:#173a56;}.e{fill:#b3cbf9;}.f{fill:#dfeafe;}.g{fill:#fea815;}.h{fill:#608fdf;}.i,.m{opacity:0.5;}.j,.m{fill:#101e41;}.k{fill:#fb660a;}.l{fill:#23399b;}.n{fill:#ffc8b7;}.o{fill:#fff;}</style></defs><g transform="translate(-489.587 -40.239)"><g transform="translate(489.587 40.239)"><g transform="translate(0 131.983)"><g transform="translate(171.886 10.453)"><path class="a" d="M564.138,335.4c-6.721,61.809,5.487,114.314,15.6,116.311,9.741,1.922,54.237-53.9,65.477-115.273,11.22-61.265-3.993-94.567-33.8-96.777C575.536,237,570.907,273.151,564.138,335.4Z" transform="translate(-562.209 -233.796)"/><path class="b" d="M565.54,331.212c-6.721,61.809,5.488,114.312,15.6,116.308,9.739,1.921,54.234-53.9,65.474-115.268,11.221-61.263-3.991-94.566-33.8-96.777C576.939,232.815,572.31,268.964,565.54,331.212Z" transform="translate(-561.693 -235.338)"/><path class="c" d="M589.091,300.178c-7.036-6.029-16.054-7.333-14.487-8.711s11.452.252,18.488,6.282c4.67,4,8.181,7.981,9.566,10.615.727-6.709,1.424-13.134,2.1-19.138-1.915-.668-6.432-5.49-11.987-10.248-6.5-5.566-14.123-7.383-12.971-8.394s9.534,1.144,16.029,6.709c4.4,3.767,7.8,7.42,9.18,9.705.955-8.426,1.862-15.954,2.737-22.178-1.844-1.386-4.7-4.377-8.1-7.3-5.1-4.363-11.5-5.416-10.422-6.368s8.114.342,13.209,4.705a42.749,42.749,0,0,1,5.766,5.864c2.266-15.092,4.337-20.769,6.507-9.731a61.7,61.7,0,0,1,.958,10.458,46.8,46.8,0,0,1,7.316-4.014c6.283-2.821,13.423-2.193,14.151-1s-5.74.5-12.022,3.325c-3.8,1.7-7.177,3.588-9.427,4.552a216.507,216.507,0,0,1-1.5,22.144,57.341,57.341,0,0,1,11.541-6.531c8.009-3.6,16.723-3.437,17.5-2.165s-7.107.988-15.117,4.585c-6.291,2.828-11.762,5.937-14.2,6.528-.67,5.666-1.509,11.647-2.477,17.826a55.616,55.616,0,0,1,11.37-6.542c8.676-3.9,18.658-2.836,19.71-1.1s-7.992.588-16.668,4.487c-6.542,2.94-12.194,6.3-15.031,7.034-.921,5.652-1.939,11.444-3.027,17.3a43.872,43.872,0,0,1,10.741-6.506c8.429-3.787,18.759-1.708,20.034.39s-8.107.007-16.536,3.793c-6.795,3.054-12.492,6.751-15.115,6.97-1.283,6.718-2.646,13.483-4.05,20.166,2.058-2.4,6.583-5.424,12.3-8,8.708-3.913,19.447-1.653,20.792.56s-8.412-.055-17.118,3.857c-8.184,3.677-14.814,8.288-16.7,6.993-1.335,6.283-2.7,12.476-4.05,18.468a42.849,42.849,0,0,1,11.429-7.073c8.708-3.913,19.447-1.653,20.792.558s-8.413-.053-17.12,3.859c-7.509,3.374-13.706,7.526-16.132,7.186-1.248,5.458-2.481,10.718-3.667,15.7,1.765-1.849,6.728-4.818,12.923-7.6,8.256-3.709,17.18-3.642,17.955-2.369s-7.3,1.071-15.553,4.781c-7.7,3.459-14.23,7.318-15.706,6.792-1.456,6.083-2.834,11.711-4.086,16.746,1.1-1.392,4.522-4.212,9.2-6.592,5.988-3.05,11.741-4.21,12.123-3.653s-5.15,2.04-11.138,5.089c-5.55,2.827-9.538,6-10.4,6.007-.591,2.377-1.158,4.632-1.684,6.71.479-2.2.948-4.478,1.409-6.817-.951-.7-3.418-4.664-7.294-8.772-4.452-4.719-9.074-7.829-8.5-8.232s5.528,2.47,9.98,7.188a30.049,30.049,0,0,1,6.023,8.776c1-5.126,1.951-10.551,2.867-16.2-2.136-1.118-6.6-5.789-11.99-10.407-6.7-5.737-14.477-7.684-13.327-8.7s9.708,1.29,16.4,7.026a55.1,55.1,0,0,1,9.3,9.676c.78-4.92,1.532-9.994,2.258-15.166-2.178.939-7.064-5.3-13.791-11.067-7.062-6.051-17.123-6.471-15.124-8.229s13-1.071,20.062,4.978c4.779,4.1,8.2,8.315,9.289,11.162.911-6.644,1.781-13.428,2.615-20.242-2.286.423-7.062-5.58-13.547-11.138-7.062-6.051-17.124-6.469-15.124-8.229s13-1.071,20.06,4.978c4.492,3.848,7.777,7.8,9.066,10.63.794-6.6,1.553-13.212,2.282-19.726-2.405-.727-6.727-5.892-12.365-10.722-6.836-5.856-16.484-6.343-14.586-8.014s12.447-.915,19.283,4.941a40.233,40.233,0,0,1,8.19,9.106c.649-5.855,1.274-11.608,1.877-17.186C600.229,311.124,595.35,305.539,589.091,300.178Z" transform="translate(-561.191 -231.326)"/></g><g transform="translate(35.877)"><path class="d" d="M517.158,379.312c42.71,77.56,98.164,130.772,110.6,125.972,11.977-4.622,14.53-101.837-22.986-182.069-37.454-80.1-80.623-108.57-114.309-90.1C449.912,255.347,474.145,301.2,517.158,379.312Z" transform="translate(-460.265 -227.698)"/><path class="b" d="M510.255,380.948c42.709,77.558,98.164,130.772,110.6,125.972,11.977-4.622,14.53-101.837-22.984-182.067-37.455-80.1-80.623-108.573-114.307-90.1C443.009,256.983,467.241,302.837,510.255,380.948Z" transform="translate(-462.807 -227.096)"/><g transform="translate(11.915 20.599)"><path class="c" d="M579.5,433.4s-3.366-8.866-9.054-23.251C574.115,418.66,577.192,426.491,579.5,433.4Z" transform="translate(-435.082 -181.105)"/><path class="c" d="M510.973,327.169c-12.4-2.126-23.1,2.713-22.538-.018s12.461-7.8,24.859-5.672c8.228,1.411,15.2,3.619,18.808,5.741-4.638-8.415-9.08-16.478-13.205-24.024-2.589.566-11.317-1.922-21.106-3.6-11.444-1.963-21.076,1.29-20.661-.717s11.13-5.392,22.575-3.43c7.746,1.327,14.333,3.231,17.66,4.944-5.782-10.6-10.889-20.108-14.977-28.061-3.1-.327-8.565-1.833-14.564-2.862-8.977-1.539-16.685,1.753-16.295-.135s8.958-5.332,17.935-3.793a59.835,59.835,0,0,1,10.905,2.828c-9.758-19.379-12.124-27.531-.888-16.062a98.368,98.368,0,0,1,9.465,11.64,57.175,57.175,0,0,1,4.592-9.9c4.445-7.766,12.594-12.076,14.338-11.179s-5.736,4.649-10.18,12.416c-2.685,4.69-4.786,9.3-6.416,12.026,5.141,7.586,10.621,16.808,16.279,27.144.9-3.667,3.459-9.53,7.077-15.853,5.668-9.9,15.125-15.872,16.982-14.918s-6.811,6.187-12.479,16.09c-4.451,7.779-7.8,15.308-9.926,17.726,3.856,7.151,7.787,14.787,11.741,22.75a68.313,68.313,0,0,1,6.888-15.748c6.138-10.726,17.678-16.53,20.2-15.234s-8.078,6.345-14.217,17.072c-4.629,8.087-7.965,16.04-10.409,18.911,3.578,7.308,7.166,14.851,10.725,22.512a54.327,54.327,0,0,1,6.245-15.256c5.963-10.419,18.7-15.274,21.757-13.7s-8.672,5.737-14.635,16.158c-4.808,8.4-7.921,16.783-10.551,18.9,4.05,8.821,8.051,17.753,11.945,26.614.264-4.283,2.665-11.041,6.717-18.117,6.159-10.763,19.477-15.7,22.7-14.04s-9.047,5.884-15.207,16.646c-5.789,10.117-9.165,20.235-12.227,20.044,3.645,8.345,7.185,16.6,10.577,24.618.692-4.264,2.976-10.218,6.523-16.414,6.16-10.763,19.479-15.7,22.7-14.04s-9.047,5.884-15.207,16.648c-5.313,9.284-8.591,18.555-11.462,19.872,3.069,7.308,6,14.375,8.75,21.082.4-3.423,3.311-10.428,7.694-18.087,5.841-10.207,15.448-16.438,17.3-15.485s-6.943,6.42-12.785,16.627c-5.446,9.518-9.323,18.68-11.328,19.105,3.354,8.193,6.423,15.8,9.148,22.615.055-2.415,1.44-8.16,4.521-14.27,3.948-7.824,9.17-13.259,10.027-12.874s-3.865,6.045-7.81,13.87c-3.659,7.253-5.366,13.809-6.278,14.424,1.285,3.22,2.5,6.275,3.612,9.095-1.261-2.927-2.6-5.945-4-9.027-1.577-.146-7.423-3.077-14.888-5.175-8.575-2.412-16.032-2.806-15.746-3.685s7.909-1,16.485,1.411c6.349,1.786,11.432,4.456,13.53,6.081-3.072-6.742-6.428-13.807-10.01-21.111-3.191.193-11.737-2.154-21.239-3.785-11.8-2.022-21.7,1.185-21.282-.821s11.429-5.343,23.229-3.319c7.652,1.312,14.2,3.147,17.765,4.822-3.137-6.346-6.43-12.854-9.83-19.461-1.572,2.648-11.842-1.252-23.694-3.285-12.442-2.133-23.549,4.485-22.83,1s13.049-10.454,25.491-8.319c8.422,1.445,15.485,4,18.953,6.58-4.388-8.468-8.934-17.076-13.543-25.691-2.106,2.113-12.061-1.582-23.493-3.543-12.442-2.133-23.55,4.485-22.828,1s13.049-10.452,25.49-8.318c7.913,1.356,14.623,3.693,18.286,6.111-4.484-8.338-9.006-16.662-13.484-24.851-3.162.846-11.956-2.182-21.892-3.887-12.044-2.065-22.763,4.18-22.079.874s12.581-9.88,24.626-7.814a57.3,57.3,0,0,1,16.118,4.934c-4.032-7.355-8.01-14.574-11.866-21.571C531.731,332.189,522,329.062,510.973,327.169Z" transform="translate(-471.516 -242.752)"/></g></g><g transform="translate(0 122.957)"><path class="a" d="M507.612,424.211c51.313,35.107,103.363,49.135,109.9,41.162,6.293-7.679-21.912-73.26-70.7-112.143-48.709-38.818-85.249-41.13-101.271-15.9C426.25,367.705,455.932,388.853,507.612,424.211Z" transform="translate(-435.471 -316.378)"/><path class="d" d="M504.581,421c51.313,35.106,103.36,49.132,109.895,41.158,6.293-7.677-21.909-73.258-70.7-112.14-48.708-38.815-85.247-41.128-101.268-15.9C423.222,364.493,452.9,385.64,504.581,421Z" transform="translate(-436.587 -317.561)"/><path class="e" d="M488.79,385.165c-8.637,3.356-14.044,10.688-14.519,8.658s5.63-9.976,14.266-13.333c5.732-2.228,10.9-3.444,13.874-3.419-5.57-3.808-10.905-7.457-15.88-10.886-1.491,1.374-7.876,3.079-14.694,5.728-7.973,3.1-13.175,8.966-13.525,7.472s5.513-7.866,13.484-10.964c5.4-2.1,10.221-3.366,12.89-3.508-6.978-4.819-13.186-9.174-18.26-12.885-2.093.973-6.078,2.077-10.257,3.7-6.254,2.431-10.206,7.583-10.534,6.181s4.131-6.992,10.384-9.421a42.462,42.462,0,0,1,7.891-2.317c-12.234-9.122-16.261-13.628-5.5-10.33a61.672,61.672,0,0,1,9.668,4.092,46.754,46.754,0,0,1-.082-8.345c.478-6.87,4.4-12.869,5.8-12.945s-2.266,5.3-2.743,12.169c-.289,4.149-.227,8.018-.439,10.459a216.148,216.148,0,0,1,18.815,11.774,57.363,57.363,0,0,1-.309-13.256c.609-8.76,4.866-16.366,6.354-16.447s-2.486,6.732-3.1,15.49c-.479,6.882-.32,13.171-.951,15.6,4.679,3.269,9.556,6.83,14.546,10.6a55.531,55.531,0,0,1-.4-13.115c.659-9.489,6.309-17.785,8.333-17.894s-3.254,7.323-3.915,16.812c-.5,7.155-.2,13.724-.895,16.571,4.547,3.48,9.173,7.111,13.817,10.833a43.934,43.934,0,0,1-.664-12.54c.642-9.217,7.352-17.343,9.8-17.474s-3.823,7.148-4.465,16.366c-.516,7.431.052,14.2-.992,16.615,5.316,4.3,10.634,8.7,15.864,13.09-1.144-2.947-1.673-8.363-1.238-14.621.662-9.523,7.725-17.924,10.309-18.064s-4.019,7.389-4.681,16.912c-.622,8.949.311,16.972-1.72,18.022,4.909,4.143,9.724,8.267,14.368,12.29a42.923,42.923,0,0,1-.84-13.416c.664-9.522,7.725-17.923,10.311-18.063s-4.02,7.389-4.682,16.912c-.57,8.212.164,15.635-1.281,17.614,4.22,3.677,8.277,7.245,12.107,10.642-.794-2.427-1.069-8.2-.6-14.979.627-9.029,4.9-16.865,6.388-16.946s-2.5,6.937-3.128,15.966c-.586,8.42-.268,16-1.428,17.054,4.674,4.154,8.986,8.026,12.833,11.507-.708-1.625-1.578-5.975-1.469-11.221.138-6.717,1.833-12.336,2.5-12.41s-.632,5.5-.772,12.22c-.127,6.227.785,11.239.387,12,1.816,1.645,3.536,3.209,5.12,4.654-1.712-1.46-3.5-2.95-5.345-4.461-1.062.51-5.726.81-11.176,2.288-6.263,1.7-11.186,4.3-11.272,3.611s4.786-3.708,11.049-5.4a30.033,30.033,0,0,1,10.58-1.167c-4.047-3.3-8.379-6.7-12.927-10.176-1.995,1.355-8.219,3.084-14.836,5.656-8.219,3.194-13.609,9.132-13.958,7.64s5.719-7.947,13.937-11.142a55.075,55.075,0,0,1,12.921-3.63c-3.969-3.009-8.086-6.068-12.3-9.15-.2,2.363-8.01,3.723-16.266,6.933-8.667,3.369-13.787,12.038-14.394,9.445s5.194-11.966,13.861-15.334c5.867-2.28,11.2-3.3,14.226-2.919-5.425-3.941-11-7.91-16.609-11.862-.707,2.212-8.252,3.589-16.215,6.684-8.667,3.369-13.787,12.039-14.393,9.445s5.194-11.966,13.861-15.334c5.511-2.141,10.549-3.17,13.649-2.972-5.446-3.818-10.914-7.608-16.311-11.325-1.776,1.777-8.368,3.148-15.289,5.838-8.39,3.259-13.375,11.535-13.95,9.073s5.068-11.4,13.458-14.664a40.18,40.18,0,0,1,11.893-2.923c-4.853-3.336-9.631-6.6-14.262-9.77C503.7,380.515,496.471,382.18,488.79,385.165Z" transform="translate(-433.26 -315.689)"/></g><g transform="translate(18.83 182.656)"><path class="d" d="M509.74,440.908c43.013,24,87.948,31.267,94.181,24.48,6-6.536-14.829-56.332-55.391-83.5-40.5-27.122-72.5-26.265-88.125-5.134C441.594,402.2,466.423,416.742,509.74,440.908Z" transform="translate(-448.988 -361.191)"/><path class="b" d="M506.045,444.158c43.011,24,87.948,31.265,94.181,24.479,6-6.536-14.83-56.331-55.394-83.5-40.494-27.122-72.5-26.267-88.124-5.135C437.9,405.446,462.727,419.991,506.045,444.158Z" transform="translate(-450.349 -359.995)"/><g transform="translate(10.231 9.869)"><path class="f" d="M560.856,440.774s-4.023-3.274-10.682-8.511A131.693,131.693,0,0,1,560.856,440.774Z" transform="translate(-423.816 -344.886)"/><path class="f" d="M494.385,416.754c-7.8,3.289-13,9.488-13.3,7.915s5.559-8.3,13.36-11.592c5.178-2.184,9.8-3.525,12.413-3.724-4.67-2.6-9.141-5.1-13.309-7.442-1.4,1.2-7.116,3.013-13.276,5.609-7.2,3.038-12.134,8.059-12.35,6.9s5.325-6.627,12.527-9.661A53.48,53.48,0,0,1,492,401.039c-5.847-3.3-11.045-6.287-15.282-8.849-1.9.924-5.473,2.088-9.248,3.679-5.648,2.382-9.438,6.747-9.641,5.661s4.057-5.832,9.707-8.214a46.33,46.33,0,0,1,7.082-2.41c-10.209-6.317-13.478-9.585-4.216-7.768a49.7,49.7,0,0,1,8.258,2.527,33.51,33.51,0,0,1,.434-6.594c.837-5.469,4.654-10.5,5.889-10.664s-2.315,4.357-3.151,9.826c-.506,3.3-.687,6.358-1.022,8.3a159.071,159.071,0,0,1,15.839,7.931,40.757,40.757,0,0,1,.531-10.462c1.069-6.973,5.275-13.3,6.588-13.475s-2.6,5.507-3.663,12.479c-.839,5.479-1.081,10.443-1.783,12.406,3.919,2.241,7.992,4.7,12.154,7.316a39.38,39.38,0,0,1,.443-10.341c1.156-7.554,6.629-14.531,8.416-14.766s-3.306,6.031-4.463,13.584c-.872,5.695-1.011,10.87-1.794,13.172,3.79,2.418,7.639,4.95,11.5,7.553a30.762,30.762,0,0,1,.178-9.869c1.122-7.337,7.519-14.256,9.683-14.542s-3.8,5.936-4.919,13.272c-.906,5.916-.816,11.228-1.881,13.215,4.415,3.014,8.828,6.1,13.161,9.187-.829-2.245-.965-6.49-.2-11.473,1.16-7.58,7.883-14.743,10.166-15.044s-3.984,6.141-5.146,13.72c-1.091,7.125-.757,13.4-2.605,14.379,4.067,2.917,8.052,5.825,11.893,8.665a29.943,29.943,0,0,1,.077-10.549c1.16-7.58,7.884-14.743,10.166-15.044s-3.986,6.141-5.145,13.721c-1,6.538-.806,12.354-2.2,14.025,3.489,2.6,6.841,5.123,10,7.528-.551-1.862-.442-6.41.383-11.8,1.1-7.188,5.335-13.7,6.648-13.873s-2.622,5.672-3.72,12.858c-1.026,6.7-1.208,12.674-2.292,13.594,3.86,2.942,7.417,5.688,10.591,8.159a21.524,21.524,0,0,1-.61-8.767c.529-5.324,2.362-9.894,2.954-10s-.889,4.4-1.42,9.723c-.49,4.933.008,8.831-.389,9.462,1.5,1.167,2.917,2.278,4.223,3.3-1.416-1.029-2.9-2.077-4.432-3.136-.963.482-5.085,1.062-9.971,2.63-5.611,1.8-10.1,4.227-10.135,3.685s4.436-3.284,10.047-5.086a30.956,30.956,0,0,1,9.378-1.7c-3.361-2.311-6.963-4.685-10.755-7.1-1.839,1.219-7.419,3.044-13.4,5.565-7.426,3.131-12.527,8.225-12.743,7.069s5.514-6.706,12.938-9.837a59.775,59.775,0,0,1,11.585-3.82c-3.309-2.088-6.744-4.2-10.268-6.331-.32,1.883-7.275,3.532-14.732,6.676-7.829,3.3-12.86,10.537-13.235,8.53s5.3-9.846,13.125-13.146c5.3-2.234,10.053-3.432,12.691-3.354-4.533-2.717-9.193-5.448-13.892-8.162-.757,1.8-7.478,3.445-14.671,6.479-7.828,3.3-12.859,10.534-13.235,8.527s5.3-9.845,13.123-13.145c4.979-2.1,9.474-3.284,12.189-3.355-4.559-2.619-9.139-5.215-13.661-7.758-1.672,1.537-7.554,3.1-13.807,5.741-7.578,3.195-12.465,10.1-12.822,8.2s5.152-9.392,12.73-12.588a43.205,43.205,0,0,1,10.64-3.184c-4.067-2.282-8.072-4.515-11.953-6.679C507.782,411.981,501.324,413.828,494.385,416.754Z" transform="translate(-457.826 -368.404)"/></g></g><path class="g" d="M580.254,366.913c1.621-2.512,2.481-8.065-.718-17.3-4.271-12.334-7.584-16.029-9.589-15.813-2.579.279,1.229,6.817,3.783,16.495a93.166,93.166,0,0,1,2.317,11.629,271.489,271.489,0,0,0-24.425-24.882c3.162-1.688,5.96-9.02-1.486-22.62-8.009-14.63-13.564-19-16.638-18.651-4.012.452,2.821,8.336,8.03,20.012a106.042,106.042,0,0,1,6.082,17.737,286.929,286.929,0,0,0-32.852-24.336c2.166-3.046,2.4-10.38-5.685-22.839-10.5-16.168-17.1-21.134-20.4-20.842-4.287.38,4.164,9.215,11.284,22.024A123.031,123.031,0,0,1,508.035,305a404.111,404.111,0,0,0-48.454-24.71s-20.515-7.285-11.634-.647c5.059,3.782,16.708,6.089,42.99,19.636,5.845,3.014,12.1,6.564,18.507,10.532-1.745,1.538-3.1,8.007-11.333,18.4-9.652,12.178-21.712,18.7-16.466,23.169,4.133,3.516,13.315,1.093,26.935-14.739,9.1-10.582,8.006-19.486,5.375-23.99a323.345,323.345,0,0,1,31.68,23.191c-2.668-.252-1.426,8.58-8.928,25.035-7.645,16.761-19.249,26.619-12.616,31.945,5.2,4.175,14.465-.048,25.354-22.02,7.324-14.777,3.916-26.287.109-31.64a260.362,260.362,0,0,1,27.03,26.813l.012.073c-2.241-.684-.208,6.588-4.12,18.886-3.727,11.725-11.851,22.254-5.583,22.1,9.226-.235,13.145-.866,16.14-13.086,2.359-9.618.688-17.433-1.739-22.33A203.663,203.663,0,0,1,602.6,403.568c-.125.057,4.691,7.111,5.187,7.785.346.316.7.627,1.071.924-.369-.3-.725-.608-1.071-.924,2.659,3.6,4.222,4.79-2.521-8.489A254.818,254.818,0,0,0,580.254,366.913Z" transform="translate(-433.224 -213.781)"/></g><g transform="translate(253.965 42.965)"><g transform="translate(332.251 136.695)"><path class="d" d="M927.312,315.53c-40.946,38.784-64.521,80.2-59.382,86.347,4.949,5.914,65.962-10.934,109.471-47.277,43.436-36.285,53.719-66.093,36.391-81.7C992.932,254.118,968.548,276.47,927.312,315.53Z" transform="translate(-864.205 -261.216)"/><path class="b" d="M925.1,311.93c-40.946,38.781-64.521,80.2-59.382,86.345,4.949,5.912,65.962-10.932,109.471-47.278,43.436-36.283,53.719-66.091,36.392-81.7C990.721,250.517,966.336,272.869,925.1,311.93Z" transform="translate(-865.02 -262.543)"/><path class="c" d="M951.455,302.487c-.817-7.422-5.68-12.574-3.882-12.769s7.011,5.591,7.829,13.014c.542,4.926.371,9.291-.328,11.733,4.443-4.212,8.7-8.244,12.688-12-.8-1.359-.759-6.77-1.4-12.631-.754-6.851-4.446-11.695-3.124-11.837s5.284,5.29,6.038,12.141a38.589,38.589,0,0,1-.029,10.934c5.606-5.271,10.648-9.953,14.9-13.764-.331-1.814-.337-5.2-.732-8.787-.592-5.375-3.976-9.121-2.731-9.254s4.87,4.069,5.461,9.444a32.92,32.92,0,0,1,.123,6.707c10.387-9.173,15.057-12.046,9.853-3.525a62.651,62.651,0,0,1-5.618,7.552,39,39,0,0,1,6.963.739c5.607,1.055,9.7,4.859,9.443,6.016s-3.889-2.374-9.5-3.43c-3.386-.638-6.621-.961-8.6-1.371-3.84,4.339-8.638,9.178-14.1,14.327a48.33,48.33,0,0,1,11.1,1.026c7.147,1.346,12.5,5.58,12.228,6.811s-5.032-2.693-12.18-4.041c-5.617-1.058-10.885-1.537-12.759-2.286-3.789,3.53-7.868,7.192-12.146,10.931a47.022,47.022,0,0,1,11,.937c7.743,1.459,13.352,6.9,12.981,8.576s-5.349-3.382-13.092-4.84c-5.84-1.1-11.372-1.493-13.583-2.337-3.934,3.4-8.015,6.852-12.174,10.31a37.574,37.574,0,0,1,10.586.666c7.521,1.416,12.745,7.716,12.3,9.743s-5.074-3.831-12.595-5.249c-6.066-1.143-11.827-1.329-13.6-2.42-4.8,3.956-9.67,7.9-14.519,11.774,2.713-.655,7.339-.568,12.45.394,7.769,1.464,13.144,8.081,12.669,10.218s-5.228-4.017-13-5.481c-7.3-1.375-14.19-1.382-14.6-3.154-4.571,3.634-9.1,7.194-13.512,10.622a36.914,36.914,0,0,1,11.352.606c7.771,1.464,13.145,8.08,12.67,10.218s-5.228-4.017-13-5.481c-6.7-1.263-13.045-1.375-14.361-2.753-4.023,3.113-7.921,6.1-11.623,8.921,2.2-.417,7.07-.086,12.6.956,7.37,1.386,12.912,5.656,12.638,6.887s-5.2-2.724-12.568-4.113c-6.872-1.293-13.251-1.766-13.861-2.82-4.526,3.44-8.735,6.61-12.511,9.434a28.411,28.411,0,0,1,9.672-.123c5.557.764,9.846,2.7,9.754,3.255s-4.435-1.049-9.991-1.813c-5.151-.707-9.531-.441-10.072-.841-1.784,1.333-3.478,2.6-5.043,3.759,1.606-1.266,3.256-2.593,4.934-3.962-.182-.921.635-4.784.653-9.407.022-5.31-1.022-9.607-.426-9.611s1.991,4.292,1.969,9.6a25.248,25.248,0,0,1-1.45,8.809c3.67-3.009,7.493-6.241,11.424-9.642-.671-1.772-.686-7.053-1.311-12.74-.777-7.064-4.487-12.068-3.166-12.211s5.3,5.469,6.082,12.532a42.75,42.75,0,0,1,.066,10.968c3.412-2.971,6.9-6.059,10.426-9.229-1.921-.393-1.266-6.943-2.046-14.037-.821-7.449-6.863-12.494-4.567-12.743s8.767,5.424,9.588,12.873c.555,5.042.183,9.522-.827,11.972,4.519-4.078,9.1-8.273,13.668-12.5-1.679-.795-1.1-7.13-1.851-13.973-.821-7.45-6.863-12.5-4.566-12.743s8.766,5.424,9.587,12.871c.521,4.737.224,8.977-.65,11.507,4.422-4.108,8.825-8.236,13.153-12.312-1.073-1.634-.7-7.183-1.36-13.133-.794-7.209-6.536-12.105-4.358-12.341s8.33,5.268,9.124,12.477a31.74,31.74,0,0,1-.29,10.058c3.886-3.668,7.7-7.278,11.39-10.779C951.915,315.189,952.182,309.089,951.455,302.487Z" transform="translate(-860.27 -260.068)"/></g><g transform="translate(279.988 268.638)"><path class="f" d="M851.269,399.873s3.75-8.407,10.031-22.028C857.315,385.884,853.914,393.3,851.269,399.873Z" transform="translate(-817.82 -352.023)"/><path class="a" d="M926.308,434.834c-52.412,5.082-97.442-6.488-99.427-15.485-1.911-8.664,44.336-47.326,96.243-56.421,51.822-9.081,80.594,4.881,83.323,31.34C1009.728,426.123,979.093,429.715,926.308,434.834Z" transform="translate(-826.823 -358.537)"/><path class="d" d="M929.832,433.65c-52.412,5.083-97.439-6.487-99.425-15.486-1.913-8.663,44.334-47.326,96.241-56.42,51.82-9.081,80.592,4.881,83.319,31.34C1013.248,424.94,982.616,428.532,929.832,433.65Z" transform="translate(-825.524 -358.973)"/><path class="f" d="M844.6,401.65s5.466-1.452,14.412-3.682C853.614,399.113,848.752,400.336,844.6,401.65Z" transform="translate(-820.275 -344.612)"/><path class="e" d="M947.187,411.092c5.331,6.325,6.7,14.34,7.825,12.971s-.542-10.159-5.87-16.484c-3.538-4.2-7.026-7.367-9.306-8.632,5.688-.549,11.136-1.075,16.228-1.589.621,1.708,4.853,5.782,9.062,10.775,4.919,5.838,6.681,12.628,7.512,11.621s-1.245-8.471-6.166-14.309c-3.33-3.952-6.535-7.017-8.522-8.278,7.145-.725,13.527-1.423,18.8-2.111,1.23,1.656,3.857,4.229,6.438,7.29,3.859,4.578,4.934,10.276,5.714,9.33s-.52-7.2-4.38-11.777a39.769,39.769,0,0,0-5.152-5.2c12.78-1.8,17.551-3.551,8.1-5.633a51.335,51.335,0,0,0-8.927-1,39.585,39.585,0,0,0,3.207-6.431c2.225-5.531,1.489-11.871.449-12.532s-.267,5.081-2.49,10.611c-1.344,3.34-2.849,6.313-3.605,8.295a175.123,175.123,0,0,0-18.8,1.013,48.353,48.353,0,0,0,5.231-10.14c2.835-7.049,2.451-14.78,1.346-15.483s-.639,6.287-3.475,13.339c-2.226,5.54-4.718,10.344-5.15,12.5-4.805.515-9.871,1.174-15.1,1.943a46.808,46.808,0,0,0,5.246-9.988c3.072-7.638,1.884-16.5.38-17.461s-.275,7.078-3.347,14.716c-2.316,5.759-5.015,10.723-5.561,13.229-4.783.735-9.683,1.554-14.632,2.437a36.869,36.869,0,0,0,5.232-9.433c2.983-7.419.921-16.608-.9-17.768s.224,7.189-2.76,14.608c-2.406,5.982-5.39,10.982-5.5,13.3-5.683,1.044-11.4,2.158-17.046,3.3,1.984-1.79,4.428-5.759,6.456-10.8,3.083-7.665.855-17.22-1.067-18.444s.285,7.461-2.8,15.125c-2.9,7.2-6.631,13.019-5.476,14.708-5.309,1.095-10.541,2.214-15.6,3.33a35.945,35.945,0,0,0,5.695-10.035c3.083-7.665.855-17.22-1.064-18.444s.285,7.46-2.8,15.125c-2.659,6.612-6.016,12.046-5.659,14.2-4.608,1.029-9.05,2.047-13.255,3.028,1.522-1.539,3.906-5.9,6.1-11.35,2.921-7.27,2.612-15.184,1.505-15.886s-.7,6.452-3.627,13.721c-2.726,6.777-5.823,12.514-5.335,13.831-5.134,1.2-9.886,2.347-14.136,3.386a26.385,26.385,0,0,0,5.351-8.063c2.425-5.265,3.248-10.351,2.764-10.7s-1.59,4.537-4.014,9.8c-2.25,4.879-4.836,8.371-4.818,9.132-2.008.491-3.908.962-5.664,1.4,1.858-.393,3.786-.776,5.762-1.153.618.854,4.066,3.1,7.673,6.594,4.142,4.013,6.918,8.158,7.246,7.656s-2.259-4.935-6.4-8.95a27.312,27.312,0,0,0-7.639-5.465c4.333-.81,8.922-1.58,13.7-2.312,1.015,1.91,5.116,5.934,9.2,10.781,5.072,6.018,6.949,12.945,7.78,11.938s-1.374-8.624-6.446-14.645a51.553,51.553,0,0,0-8.5-8.383c4.165-.621,8.46-1.215,12.843-1.784-.739,1.917,4.714,6.338,9.808,12.384,5.35,6.347,5.992,15.274,7.433,13.527s.543-11.513-4.807-17.86c-3.619-4.3-7.307-7.385-9.761-8.394,5.628-.714,11.376-1.389,17.153-2.032-.3,2.021,4.949,6.341,9.863,12.172,5.349,6.346,5.992,15.274,7.431,13.525s.543-11.513-4.805-17.859c-3.4-4.036-6.861-7.006-9.3-8.189,5.6-.61,11.2-1.19,16.723-1.745.687,2.144,5.2,6.049,9.475,11.117,5.179,6.144,5.867,14.7,7.233,13.047s.427-11.024-4.751-17.168a37.323,37.323,0,0,0-7.981-7.391c4.964-.493,9.842-.965,14.572-1.422C937.557,401.061,942.447,405.468,947.187,411.092Z" transform="translate(-820.565 -357.359)"/></g><g transform="translate(369.881)"><path class="a" d="M915.289,216.033c-20.2,37.577-26.43,74.474-20.779,78.558,5.44,3.932,47.126-19.33,69.968-55.367,22.8-35.979,22.2-61.458,4.592-71.151C947.875,156.4,935.633,178.189,915.289,216.033Z" transform="translate(-892.521 -161.8)"/><path class="b" d="M917.234,213.749c-20.2,37.576-26.427,74.474-20.777,78.557,5.44,3.932,47.126-19.33,69.968-55.367,22.8-35.979,22.2-61.456,4.589-71.148C949.819,154.124,937.579,175.907,917.234,213.749Z" transform="translate(-891.804 -162.64)"/><g transform="translate(7.072 9.277)"><path class="c" d="M897.69,258.206s2.752-3.649,7.151-9.671C902.324,252.228,899.926,255.5,897.69,258.206Z" transform="translate(-897.69 -140.284)"/><path class="c" d="M936.547,200.691c-2.724-5.8-7.884-9.14-6.571-9.585s6.921,3.344,9.644,9.146a31.646,31.646,0,0,1,3.069,9.434c2.191-4.082,4.291-7.987,6.265-11.63-.995-.959-2.493-5.293-4.644-9.872-2.512-5.355-6.692-8.635-5.726-8.961s5.52,3.381,8.032,8.736a35.81,35.81,0,0,1,3.072,8.743c2.776-5.112,5.291-9.664,7.446-13.394-.765-1.4-1.725-4.1-3.043-6.906-1.972-4.2-5.607-6.653-4.7-6.959s4.86,2.471,6.83,6.672a30.6,30.6,0,0,1,1.991,5.344c5.313-9,8.056-12.048,6.5-4.4A44.1,44.1,0,0,1,962.58,184a29.625,29.625,0,0,1,5.509-.528c4.567-.056,8.76,2.329,8.891,3.3s-3.633-1.274-8.2-1.219c-2.757.034-5.312.3-6.936.286a152.24,152.24,0,0,1-6.681,13.716,36.252,36.252,0,0,1,8.742-.962c5.823-.07,11.1,2.453,11.238,3.481s-4.593-1.344-10.417-1.273c-4.574.055-8.723.519-10.362.22-1.885,3.429-3.956,7.012-6.155,10.686a35.163,35.163,0,0,1,8.641-1.015c6.309-.078,12.12,3.374,12.31,4.771s-5.027-1.844-11.336-1.768c-4.756.059-9.079.634-11,.313-2.033,3.351-4.164,6.763-6.35,10.2a27.8,27.8,0,0,1,8.247-1.167c6.129-.074,11.889,4.121,12.119,5.815s-4.946-2.249-11.073-2.173c-4.942.06-9.381.836-11.038.246-2.533,3.931-5.127,7.869-7.721,11.743,1.88-.959,5.428-1.631,9.589-1.682,6.331-.078,12.294,4.348,12.538,6.133s-5.119-2.371-11.448-2.295c-5.949.073-11.2,1.174-12.008-.175-2.452,3.638-4.9,7.211-7.281,10.66a27.066,27.066,0,0,1,8.814-1.34c6.331-.078,12.294,4.348,12.538,6.134s-5.117-2.373-11.448-2.295c-5.459.067-10.321.995-11.712.1-2.182,3.136-4.3,6.15-6.326,9,1.557-.688,5.358-1.205,9.862-1.259,6-.075,11.429,2.448,11.57,3.475s-4.73-1.342-10.733-1.27c-5.6.068-10.588.716-11.351-.03-2.472,3.478-4.779,6.687-6.855,9.551a20.361,20.361,0,0,1,7.328-1.652c4.447-.282,8.259.577,8.346,1.037s-3.672-.129-8.119.156c-4.121.261-7.38,1.177-7.907.943-.98,1.352-1.913,2.635-2.775,3.813.865-1.27,1.745-2.593,2.635-3.957-.4-.709-.87-3.927-2.165-7.625-1.486-4.249-3.5-7.517-3.045-7.616s2.73,3.111,4.217,7.36a21.855,21.855,0,0,1,1.387,7.274c1.943-2.992,3.939-6.189,5.97-9.541-1.013-1.309-2.519-5.528-4.6-9.975-2.59-5.522-6.829-8.925-5.863-9.251s5.585,3.519,8.175,9.042a39.714,39.714,0,0,1,3.153,8.758c1.757-2.924,3.538-5.952,5.328-9.053-1.573-.005-2.928-5.347-5.531-10.894-2.731-5.822-8.761-8.886-7.082-9.452s8.21,2.928,10.941,8.752c1.85,3.942,2.835,7.583,2.76,9.7,2.286-3.987,4.585-8.074,6.867-12.193-1.5-.364-2.853-5.521-5.364-10.871-2.731-5.822-8.76-8.886-7.082-9.452s8.21,2.928,10.941,8.75a26.194,26.194,0,0,1,2.763,9.3c2.2-3.993,4.389-8,6.531-11.953-1.278-1.133-2.57-5.628-4.751-10.278-2.645-5.636-8.4-8.628-6.811-9.166s7.832,2.873,10.477,8.511a29.032,29.032,0,0,1,2.624,8.087c1.922-3.556,3.8-7.053,5.624-10.445C940.489,210.771,938.966,205.85,936.547,200.691Z" transform="translate(-896.476 -169.42)"/></g></g><g transform="translate(330.038 98.724)"><path class="d" d="M907.421,277.319c-29.426,31.863-44.943,67.222-40.427,73.032,4.35,5.6,51.253-5.4,82.884-34.923,31.577-29.473,37.469-55.356,22.626-70.4C954.633,226.915,937.055,245.228,907.421,277.319Z" transform="translate(-862.364 -233.656)"/><path class="b" d="M904.6,274.235c-29.426,31.863-44.943,67.222-40.426,73.032,4.347,5.6,51.252-5.4,82.882-34.923,31.578-29.473,37.469-55.356,22.626-70.4C951.815,223.831,934.235,242.144,904.6,274.235Z" transform="translate(-863.402 -234.792)"/><g transform="translate(3.779 7.603)"><path class="c" d="M866.164,317.755s3.634-2.861,9.492-7.617C872.242,313.11,869.05,315.689,866.164,317.755Z" transform="translate(-866.164 -214.647)"/><path class="c" d="M925.063,268.028c-1.2-6.666-5.424-11.578-4.019-11.633s5.952,5.444,7.152,12.112a34.588,34.588,0,0,1,.616,10.433c3.193-3.462,6.252-6.774,9.12-9.858-.732-1.264-1.1-6.085-2.051-11.347-1.106-6.155-4.383-10.714-3.35-10.755s4.567,5.061,5.674,11.217a39.342,39.342,0,0,1,.794,9.741c4.031-4.327,7.661-8.167,10.73-11.284-.4-1.639-.654-4.652-1.234-7.879-.869-4.829-3.819-8.389-2.847-8.426s4.148,3.947,5.018,8.775a33.917,33.917,0,0,1,.6,5.986c7.515-7.491,10.987-9.744,7.515-2.494a44.459,44.459,0,0,1-3.87,6.36,29.773,29.773,0,0,1,5.55,1.115c4.5,1.309,8.021,4.97,7.9,5.983s-3.248-2.37-7.753-3.681c-2.722-.791-5.3-1.292-6.892-1.787a150.728,150.728,0,0,1-10.061,11.838,36.2,36.2,0,0,1,8.839,1.645c5.743,1.669,10.287,5.795,10.162,6.873s-4.173-2.731-9.916-4.4c-4.513-1.312-8.709-2.084-10.244-2.878-2.727,2.9-5.673,5.893-8.772,8.942a35.131,35.131,0,0,1,8.756,1.56c6.22,1.81,11.057,7.029,10.889,8.5s-4.476-3.365-10.7-5.175c-4.69-1.366-9.087-2.078-10.9-2.976-2.853,2.772-5.815,5.58-8.84,8.386a27.64,27.64,0,0,1,8.407,1.29c6.044,1.757,10.638,7.716,10.435,9.492s-4.292-3.749-10.336-5.506c-4.872-1.417-9.433-1.963-10.912-3.053-3.492,3.209-7.045,6.4-10.584,9.537,2.095-.406,5.752-.023,9.857,1.171,6.244,1.814,10.98,8.063,10.766,9.938s-4.429-3.924-10.671-5.74c-5.869-1.706-11.306-2.166-11.762-3.771-3.336,2.938-6.647,5.811-9.872,8.576a27.02,27.02,0,0,1,9.007,1.286c6.244,1.816,10.981,8.065,10.764,9.939s-4.426-3.924-10.67-5.739c-5.386-1.567-10.4-2.085-11.543-3.4-2.943,2.509-5.8,4.918-8.511,7.186,1.708-.228,5.574.387,10.019,1.68,5.919,1.723,10.612,5.889,10.489,6.967s-4.309-2.769-10.229-4.491c-5.52-1.606-10.59-2.447-11.151-3.426-3.315,2.769-6.4,5.316-9.172,7.584a19.938,19.938,0,0,1,7.627.527c4.443,1.045,7.973,3.051,7.942,3.543s-3.578-1.229-8.022-2.273c-4.12-.969-7.556-1.021-8.013-1.413-1.309,1.071-2.553,2.085-3.7,3.017,1.173-1.021,2.375-2.1,3.6-3.2-.212-.832.145-4.221-.186-8.34-.382-4.73-1.526-8.63-1.055-8.593s1.891,3.954,2.271,8.685a23.631,23.631,0,0,1-.486,7.754c2.671-2.44,5.447-5.067,8.3-7.84-.662-1.623-1.069-6.331-1.987-11.439-1.141-6.346-4.443-11.048-3.41-11.087s4.595,5.223,5.736,11.566a43.7,43.7,0,0,1,.87,9.779c2.473-2.425,4.994-4.948,7.542-7.538-1.545-.478-1.517-6.271-2.664-12.644-1.2-6.691-6.35-11.585-4.556-11.655s7.326,5.41,8.53,12.1c.816,4.529.857,8.5.244,10.615,3.261-3.337,6.562-6.773,9.854-10.244-1.386-.817-1.4-6.424-2.505-12.57-1.2-6.692-6.352-11.585-4.557-11.655s7.326,5.409,8.529,12.1c.766,4.254.848,8.014.348,10.209,3.183-3.369,6.352-6.757,9.463-10.1-.969-1.526-1.092-6.447-2.054-11.79-1.166-6.477-6.064-11.217-4.362-11.283s6.967,5.241,8.133,11.718a31.871,31.871,0,0,1,.523,8.943c2.794-3.013,5.533-5.979,8.186-8.854C926.374,279.378,926.129,273.958,925.063,268.028Z" transform="translate(-863.609 -240.349)"/></g></g><g transform="translate(33.513 93.469)"><path class="d" d="M678.575,305.608c24.893,35.516,56.154,58.182,62.79,55,6.39-3.062,5.6-51.233-16.538-88.407-22.1-37.113-46.147-48.362-64-37.05C639.337,248.773,653.5,269.837,678.575,305.608Z" transform="translate(-645.358 -230.951)"/><path class="b" d="M674.962,307.709c24.895,35.516,56.156,58.183,62.792,55,6.39-3.062,5.6-51.231-16.54-88.406-22.1-37.115-46.145-48.363-64-37.05C635.725,250.875,649.891,271.941,674.962,307.709Z" transform="translate(-646.688 -230.177)"/><g transform="translate(6.623 10.408)"><path class="c" d="M713.91,328.324s-2.024-4.16-5.429-10.89C710.661,321.4,712.505,325.065,713.91,328.324Z" transform="translate(-630.554 -209.51)"/><path class="c" d="M674.215,281.313c-6.77-.244-12.466,2.843-12.221,1.459s6.583-4.663,13.352-4.42a34.622,34.622,0,0,1,10.326,1.61c-2.7-3.853-5.291-7.545-7.7-11-1.389.447-6.178-.212-11.522-.4-6.25-.223-11.4,2.01-11.221.992s5.916-3.388,12.165-3.165a39.305,39.305,0,0,1,9.686,1.293c-3.373-4.859-6.354-9.221-8.749-12.881-1.686.04-4.685-.348-7.961-.465-4.9-.177-9.009,1.951-8.839.995s4.738-3.218,9.641-3.042a33.734,33.734,0,0,1,5.975.687c-5.725-8.933-7.19-12.806-.842-7.873a44.383,44.383,0,0,1,5.392,5.131,29.607,29.607,0,0,1,2.27-5.187c2.234-4.125,6.558-6.783,7.524-6.454s-3.007,2.669-5.242,6.794c-1.352,2.492-2.388,4.9-3.21,6.356a150.919,150.919,0,0,1,9.433,12.345,36.256,36.256,0,0,1,3.482-8.289c2.852-5.258,7.847-8.821,8.875-8.472s-3.555,3.5-6.4,8.756c-2.241,4.132-3.886,8.069-4.986,9.4,2.251,3.281,4.554,6.795,6.876,10.47a35.1,35.1,0,0,1,3.382-8.225c3.087-5.7,9.215-9.312,10.612-8.836s-4.236,3.659-7.326,9.354c-2.327,4.3-3.96,8.44-5.221,10.016,2.106,3.376,4.22,6.867,6.321,10.419a27.632,27.632,0,0,1,3.043-7.941c3-5.532,9.8-8.76,11.491-8.184s-4.574,3.4-7.573,8.932c-2.419,4.462-3.92,8.8-5.3,10.019,2.394,4.091,4.764,8.241,7.074,12.364.048-2.132,1.2-5.625,3.236-9.384,3.1-5.715,10.211-9.017,12-8.411s-4.774,3.495-7.873,9.211c-2.913,5.372-4.515,10.588-6.181,10.692,2.163,3.885,4.268,7.731,6.286,11.467a26.975,26.975,0,0,1,3.169-8.528c3.1-5.717,10.21-9.018,12-8.411s-4.774,3.493-7.872,9.21c-2.675,4.93-4.244,9.722-5.771,10.558,1.828,3.411,3.574,6.71,5.216,9.842.139-1.717,1.563-5.365,3.767-9.433,2.94-5.421,8.009-9.122,9.038-8.773s-3.622,3.625-6.561,9.043c-2.741,5.054-4.637,9.831-5.715,10.172,2,3.828,3.837,7.383,5.466,10.573a19.984,19.984,0,0,1,2.133-7.342c1.964-4.12,4.674-7.142,5.146-7.01s-1.958,3.237-3.923,7.357c-1.821,3.819-2.6,7.168-3.081,7.531.769,1.507,1.5,2.938,2.163,4.258-.748-1.366-1.543-2.768-2.368-4.2-.859.032-4.094-1.036-8.188-1.586-4.7-.632-8.757-.342-8.622-.794s4.266-1.008,8.969-.376a23.6,23.6,0,0,1,7.472,2.121c-1.816-3.129-3.794-6.4-5.9-9.772-1.727.3-6.415-.3-11.6-.486-6.443-.231-11.738,2-11.558.98s6.076-3.384,12.52-3.153a43.753,43.753,0,0,1,9.742,1.226q-2.767-4.4-5.766-8.97c-.794,1.409-6.45.153-12.922-.079-6.794-.243-12.667,3.748-12.356,1.98s6.841-6.011,13.635-5.767c4.6.164,8.486.966,10.425,2.016-2.568-3.9-5.227-7.851-7.919-11.8-1.095,1.179-6.576,0-12.817-.219-6.795-.245-12.669,3.746-12.356,1.977s6.841-6.011,13.634-5.767c4.322.155,8.013.873,10.051,1.828-2.616-3.826-5.256-7.641-7.866-11.392-1.7.622-6.532-.3-11.957-.5-6.577-.234-12.249,3.547-11.953,1.87s6.6-5.7,13.178-5.462a31.786,31.786,0,0,1,8.85,1.387c-2.351-3.37-4.669-6.676-6.917-9.88C685.583,282.44,680.237,281.529,674.215,281.313Z" transform="translate(-651.528 -238.558)"/></g></g><path class="g" d="M741.877,373.578a37.023,37.023,0,0,0-2.763-18.455c3.12,3.746,6.614,7.333-.925-5.451a182.833,182.833,0,0,0-24.113-28.809c1.148-3.109,1.387-9.373-2.359-18.551-5.235-12.825-8.623-15.756-10.289-14.479-2.094,1.6,2.013,7.609,5.406,17.591a106.245,106.245,0,0,1,3.248,11.625,167.83,167.83,0,0,0-22.095-17.389c1.928-3.111,2.648-12.735-5.58-25.416-9.12-14.054-14-16.285-15.879-13.907-2.363,2.986,4.016,8.827,10.244,20.07a126.86,126.86,0,0,1,7.8,17.088A125.682,125.682,0,0,0,659.4,285.488c.33-4.177-1.564-12.382-9.5-22.464-10.443-13.268-15.175-15.254-16.479-12.889-1.636,2.969,5.024,8.392,12.421,19.045a140.26,140.26,0,0,1,9.009,14.866,100.864,100.864,0,0,0-27.288-4.162s-8.72,1.3-3.935,3.841c2.787,1.478,7.4-.8,21.713,1.679a83.552,83.552,0,0,1,11.514,2.95c-.454,2.226.569,8.959-.672,20.861-1.272,12.2-4.551,19.4-1.546,21.535,2.394,1.706,5.681-1.709,8.382-17.321,2.129-12.3-.61-20.556-3.129-24.037a141.332,141.332,0,0,1,23.822,11.325c-1.787.743.7,9.122-.919,26.07-1.4,14.656-5.628,23.14-1.52,25.917,3.274,2.212,7.612-1.7,10.848-20.394,2.624-15.167-1.6-25.484-5.162-29.621a159.65,159.65,0,0,1,23.989,18.328c.007.025.012.046.018.071-1.877-.022.5,6.523-1.29,18.587-1.523,10.272-5.859,19.094-1.783,18.354,6.393-1.16,9.222-2.093,10.657-12.517,1.244-9.036-.735-16.059-3.179-20.22a147.286,147.286,0,0,1,20.335,25.436c-1.023.634,1.6,9.979-.94,21.177-2.289,10.076-7.491,12.585-3.355,16.044C734.707,390.7,740.69,387.44,741.877,373.578Z" transform="translate(-622.196 -130.733)"/></g><g transform="translate(394.274 322.098)"><path class="d" d="M757.441,523c-8.158,0-15.964-1.464-22.1-5.319-19.115-12-6.565-44.32-6.44-44.629l1.208.478c-.118.3-12.277,31.62,5.923,43.05,17.76,11.154,50.124,1.642,63.017-4.712,13.026-6.421,30.411-17.262,30.993-37.169.659-22.618,29.214-73.125,61.809-90.3l33.7-17.758.606,1.151-33.7,17.758c-34.331,18.09-60.538,69.377-61.116,89.187-.672,22.991-23.227,34.113-31.718,38.3C790.931,517.322,773.506,523,757.441,523Z" transform="translate(-724.74 -366.643)"/></g><g transform="translate(337.217)"><path class="h" d="M683.04,246.682v151.7l315.314,73.771V131.239Z" transform="translate(-683.04 -131.239)"/><g class="i" transform="translate(11.901 48.577)"><g transform="translate(7.969 39.826)"><path class="j" d="M912.356,206.421l-.182.041L861.53,242.4a.14.14,0,0,1-.055.023l-41.661,7.39a.133.133,0,0,1-.157-.133V210.245a.135.135,0,0,0-.178-.127l-31.142,10.87a.131.131,0,0,0-.089.125v36.859a.133.133,0,0,1-.1.13L754.8,266.59a.135.135,0,0,1-.167-.129l-.272-33.486a.134.134,0,0,0-.171-.127l-33.835,9.615.338,1.387,32.063-9.083a.133.133,0,0,1,.171.127l.568,69.857a.132.132,0,0,1-.126.135L739,305.636a.134.134,0,0,1-.142-.134V281.71l-1.424,0v25.32a.135.135,0,0,0,.142.134l15.8-.81a.135.135,0,0,1,.141.134l.1,11.886a.133.133,0,0,1-.135.135l-7.676-.133a.136.136,0,0,0-.135.131l-.713,37a.133.133,0,0,0,.126.137l44.539,2.817a.132.132,0,0,0,.141-.133V222.156a.135.135,0,0,1,.092-.127l28.073-9.772a.135.135,0,0,1,.179.127v39.27l.157,54.025,1.56.033-.159-54.221a.134.134,0,0,1,.111-.131l42.348-7.476a.143.143,0,0,0,.053-.023l50.687-35.912a.163.163,0,0,1,.048-.021l43.812-10a.135.135,0,0,1,.164.131V380.036a.136.136,0,0,1-.146.134L699.045,357.29a.134.134,0,0,1-.122-.134V282.891a.135.135,0,0,1,.108-.131l21.75-4.431a.134.134,0,0,0,.107-.131V253.431l-1.394.027v23.559a.133.133,0,0,1-.107.131l-21.716,4.441a.135.135,0,0,0-.11.131v76.737a.136.136,0,0,0,.123.134l260.054,23.3.943.086v-186a.134.134,0,0,0-.163-.13Zm-157.6,61.692,33.328-8.457a.135.135,0,0,1,.167.13v43.16a.137.137,0,0,1-.127.134l-33.032,1.72a.134.134,0,0,1-.141-.133l-.3-36.422A.135.135,0,0,1,754.752,268.112Zm-8.338,86.031L747.07,320a.137.137,0,0,1,.137-.133l7.727.141a.136.136,0,0,0,.138-.135l-.111-13.468a.136.136,0,0,1,.127-.134l33.017-1.693a.134.134,0,0,1,.142.134v52.03a.136.136,0,0,1-.143.134l-41.566-2.6A.134.134,0,0,1,746.414,354.143Z" transform="translate(-697.562 -195.848)"/><path class="j" d="M826.823,232.512v39.761a.135.135,0,0,0,.157.133l22.5-4.03a.132.132,0,0,1,.157.131v36.225a.134.134,0,0,1-.137.134l-18.184-.276a.133.133,0,0,0-.136.133v1.7a.135.135,0,0,0,.133.134l19.862.324a.135.135,0,0,0,.137-.134V266.2a.135.135,0,0,0-.159-.133l-22.534,4.061a.133.133,0,0,1-.157-.131V232.474Z" transform="translate(-649.958 -182.359)"/></g><path class="k" d="M812.62,192.076v57.309c0,10.072,10.1,17.859,21.526,16.593L867.6,262.27c9.555-1.06,16.718-8.169,16.718-16.593v-62.2c0-11.165-12.267-19.2-24.514-16.047l-33.453,8.6C818.211,178.122,812.62,184.656,812.62,192.076Z" transform="translate(-647.22 -166.741)"/><path class="a" d="M755.814,203.361v25.9a6.087,6.087,0,0,0,7.769,5.851l10.9-3.132a6.091,6.091,0,0,0,4.406-5.851V198.716a6.087,6.087,0,0,0-8.474-5.6l-10.9,4.644A6.086,6.086,0,0,0,755.814,203.361Z" transform="translate(-668.14 -157.209)"/><path class="l" d="M758.59,254.689v16.863a5.076,5.076,0,0,0,5.067,5.076l5.322.01a5.077,5.077,0,0,0,5.086-5.075V253.879a5.074,5.074,0,0,0-5.841-5.019l-5.323.81A5.078,5.078,0,0,0,758.59,254.689Z" transform="translate(-667.118 -136.52)"/><path class="l" d="M877,265.643v46.472a3.521,3.521,0,0,0,3.513,3.521l24.165.045a3.518,3.518,0,0,0,3.528-3.519v-50.2a3.521,3.521,0,0,0-4.052-3.481l-24.164,3.686A3.52,3.52,0,0,0,877,265.643Z" transform="translate(-623.51 -132.972)"/><path class="g" d="M773.928,280.662V317.58a9.908,9.908,0,0,0,8.3,9.776l15.99,2.631a9.908,9.908,0,0,0,11.515-9.776V280.945A9.908,9.908,0,0,0,800,271.039l-15.988-.281A9.906,9.906,0,0,0,773.928,280.662Z" transform="translate(-661.469 -128.434)"/><path class="l" d="M841.135,315.313V343.43a3.729,3.729,0,0,0,2.78,3.608l16.232,4.277a3.731,3.731,0,0,0,4.682-3.608V316.126a3.731,3.731,0,0,0-3.545-3.726l-16.232-.814A3.731,3.731,0,0,0,841.135,315.313Z" transform="translate(-636.718 -113.399)"/><path class="k" d="M712.634,283.834v56.487a4.642,4.642,0,0,0,4,4.6l22.61,3.191a4.644,4.644,0,0,0,5.294-4.6V284.119a4.646,4.646,0,0,0-4.586-4.645l-22.611-.285A4.647,4.647,0,0,0,712.634,283.834Z" transform="translate(-684.042 -125.329)"/><path class="a" d="M691.738,268.6v34.585a2.6,2.6,0,0,0,2.512,2.6l12.187.413a2.6,2.6,0,0,0,2.687-2.6V268.725a2.84,2.84,0,0,0-2.808-2.839l-11.71-.122A2.84,2.84,0,0,0,691.738,268.6Z" transform="translate(-691.738 -130.273)"/><path class="g" d="M736.239,244.922v9.915A4.166,4.166,0,0,0,740.414,259h0a4.165,4.165,0,0,0,4.158-4.166v-9.912a4.168,4.168,0,0,0-4.986-4.086h0A4.168,4.168,0,0,0,736.239,244.922Z" transform="translate(-675.349 -139.484)"/><path class="g" d="M827.435,282.826v11.795a3.133,3.133,0,0,0,3.138,3.133l2.067-.005a3.132,3.132,0,0,0,3.128-3.132V282.412a3.135,3.135,0,0,0-3.75-3.073l-2.067.416A3.133,3.133,0,0,0,827.435,282.826Z" transform="translate(-641.763 -125.297)"/><path class="a" d="M706.8,226v17.169a5.451,5.451,0,0,0,6.259,5.391l2.11-.317a5.45,5.45,0,0,0,4.641-5.388V225.6a5.45,5.45,0,0,0-6.484-5.35l-2.11.406A5.447,5.447,0,0,0,706.8,226Z" transform="translate(-686.191 -147.073)"/></g></g><g transform="translate(415.33 370.957)"><path class="d" d="M774.275,511.445c-12.379,0-26.7-3.255-31.938-12.6-7.173-12.795,5.379-37.28,5.9-38.284l1.152.6c-.125.239-12.75,24.866-5.921,37.049,7.152,12.759,32.332,13.56,44.416,10.421.822-.212,1.7-.431,2.637-.662,13.549-3.359,38.769-9.612,39.776-41.441,1.071-33.842-20.4-63.1-20.619-63.394l1.044-.779c.219.3,21.962,29.906,20.874,64.213-1.039,32.813-26.88,39.22-40.764,42.661-.926.23-1.8.449-2.622.66A57.764,57.764,0,0,1,774.275,511.445Z" transform="translate(-740.128 -402.351)"/></g><g transform="translate(168.161 191.969)"><path class="m" d="M880.153,311.874a75.322,75.322,0,0,0-41.062,12.267,3.336,3.336,0,0,1-4.716-1.181c-19.026-31.049-50.977-51.421-87.179-51.421-44.039,0-81.773,30.143-97.613,72.974a3.507,3.507,0,0,1-4.128,2.386,63.007,63.007,0,0,0-16.233-2.124c-38.516,0-69.736,34.908-69.736,77.963,0,20.5,5.9,37.691,17.473,51.609.048.059.256.316.51.625a3.419,3.419,0,0,0,2.646,1.311H929.56a3.321,3.321,0,0,0,2.237-.873c18.665-16.854,30.611-42.659,30.611-71.576C962.409,353.045,925.579,311.874,880.153,311.874Z" transform="translate(-559.486 -271.539)"/><path class="b" d="M872.2,316.606a73.053,73.053,0,0,0-39.16,11.429,3.223,3.223,0,0,1-4.5-1.1C810.4,298,779.925,279.019,745.4,279.019c-42,0-77.985,28.089-93.094,68a3.354,3.354,0,0,1-3.936,2.223,61.422,61.422,0,0,0-15.482-1.98c-36.732,0-66.508,32.529-66.508,72.649,0,19.1,5.628,35.12,16.664,48.09.047.055.245.3.487.583a3.285,3.285,0,0,0,2.523,1.221H919.321a3.2,3.2,0,0,0,2.133-.813c17.8-15.705,29.195-39.75,29.195-66.7C950.649,354.968,915.524,316.606,872.2,316.606Z" transform="translate(-556.947 -268.784)"/><path class="d" d="M867.5,322.685a66.428,66.428,0,0,0-51.228,24.061,79.936,79.936,0,0,0-156.336,23.5q0,2.089.107,4.15a47.838,47.838,0,1,0-32.514,82.925c23.974,0,48.074-2.16,51.549-25.165,14.5,20.268,33.966,18.018,60.786,18.018,27.557,0,51.374-.249,65.743-21.47,10.066,23.983,34.253,27.13,61.894,27.13a66.576,66.576,0,0,0,0-133.151Z" transform="translate(-552.044 -264.622)"/></g><g transform="translate(57.595 179.165)"><g transform="translate(36.519 10.417)"><path class="n" d="M537.294,290.144c.676,12.721-2.418,18.823-10.05,20.126-9.322,1.591-17.993-2.693-21-14.515s1.984-23.295,11.15-25.626S536.646,277.964,537.294,290.144Z" transform="translate(-505.369 -269.794)"/><path class="n" d="M510.134,291.894s1.675,14.331,0,21.218,5.39,10.749,9.581,10.307,11.637-2.861,9.031-7.7-5.212-10.237-4.466-16.378S510.134,291.894,510.134,291.894Z" transform="translate(-503.707 -261.655)"/></g><g transform="translate(0 243.807)"><path class="n" d="M509.541,440.366c-.736,1.3-14.119,29.369-17.243,35.871s-8.337,14.672-8.337,14.672-4.749,2.724-3.118,5.936,7.4,7.628,10.636,9.469,9.211,3.571,9.065,1.234c-.134-2.165-5.309-7.88-7.731-9.612-2.363-1.688,19.086-37.105,26.8-44.141S509.541,440.366,509.541,440.366Z" transform="translate(-478.009 -440.366)"/><path class="d" d="M483.57,483.388a5.143,5.143,0,0,1,.431-5.165l.631-.918s-2.939.428-3.674,1.569-4.258,5.232-.75,7.441,14.282,10.04,17.385,12.234,8.455,2.288,7.683-1.255-5.555-7.17-6.627-7.729c0,0,3,4.547,1.081,5.221s-12.951-7.5-14.5-8.927A12.807,12.807,0,0,1,483.57,483.388Z" transform="translate(-478.68 -426.762)"/></g><g transform="translate(64.917 246.295)"><path class="n" d="M526.124,444.084c.249,1.528,7.708,33.014,9.415,40.323s2.81,17.329,2.81,17.329-2.076,5.306,1.341,6.844,10.974,1.36,14.8.74,9.8-3.112,8.154-4.911c-1.52-1.667-9.441-2.924-12.533-2.749-3.017.171-8.725-42.526-7.064-53.258S526.124,444.084,526.124,444.084Z" transform="translate(-526.124 -442.184)"/><path class="d" d="M538.692,491.332a5.349,5.349,0,0,1-3.018-4.469l-.086-1.155s-2.1,2.265-1.957,3.668-.038,7.018,4.244,6.52,18.126-1.173,22.07-1.42,8.346-3.657,5.411-6.026-9.181-2.191-10.413-1.944c0,0,5.4,1.728,4.281,3.527s-15.39,2.366-17.578,2.221A13.375,13.375,0,0,1,538.692,491.332Z" transform="translate(-523.362 -426.155)"/></g><path class="n" d="M550.872,341.1c-.951-1.775-6.486-9.1-7.572-14.266s-12.654-25.284-22.737-19.4,7.114,27.051,13.319,36.727a19.221,19.221,0,0,0,2.24,2.763c3.318,3.478,10.771,10.521,14.632,7.658,1.9-1.408,3.362-4.684,3.767-6.045.337-1.132-1.843-4.569-3.645-7.43Z" transform="translate(-464.397 -245.907)"/><path class="h" d="M522.9,306.82a38.243,38.243,0,0,0-10.269.9c-3.822.967-9.058,10.462-9.337,12.625-.335,2.593,3.133,19.387,4.127,34.773s1.35,19.356-4.288,34.743S496.5,425.1,497.989,438s.993,72.464-14.89,86.36,15.7,15.883,21.652,13.462,17.868-8.561,22.707-7.073,9.12,6.412,17.868,7.952,26.614,3.67,31.081,0,9.121-6.65,4.467-12.6-29.521-112.417-29.463-119.489-4.358-20.847-4.2-26.43,1.162-14.517,4.2-21.218,7.75-9.633,6.881-18.03-2.979-13.238-7.817-18.2-5.665-13.785-11.123-17.031C536.018,304.745,522.9,306.82,522.9,306.82Z" transform="translate(-478.68 -246.245)"/><path class="n" d="M508.474,356.2c.328-1.984.415-11.167,2.7-15.921s5.4-27.754-6.174-29.244-10.871,25.772-11.859,37.224a19.264,19.264,0,0,0,.089,3.556c.508,4.779,2.114,14.907,6.919,15,2.367.044,5.522-1.661,6.673-2.49.958-.691,1.327-4.744,1.646-8.111Z" transform="translate(-473.37 -244.209)"/><path class="n" d="M593.368,338.563c-2.367,1.712-8.449-.583-7.067-1.773s1.218-3.014-.642-4.032-6.852,4.592-9.192,5.3c-1.838.554-20.071-2.715-28.34-4.978a9.648,9.648,0,0,0-5.039.208,12.168,12.168,0,0,0-6.684,5.447,4.017,4.017,0,0,0,2.275,6.079l3.083.865c4.31,1.2,33.4-1.913,39.542.33s17.039.717,19.051-2.653S595.736,336.851,593.368,338.563Z" transform="translate(-457.667 -236.234)"/><path class="j" d="M557.375,359.775l11.018-41.122h64.477l-11.018,41.122V363.8H526.977v-4.029Z" transform="translate(-460.893 -241.383)"/><path class="n" d="M553.319,350.845c-2.434,1.613-8.419-.928-6.989-2.061s1.341-2.962-.476-4.054-7.034,4.309-9.4,4.918c-1.858.478-19.943-3.533-28.111-6.133a9.634,9.634,0,0,0-5.045,0,12.159,12.159,0,0,0-6.9,5.168,4.018,4.018,0,0,0,2.025,6.167l3.046.989c4.258,1.375,33.45-.545,39.5,1.947s17,1.412,19.144-1.873S555.754,349.232,553.319,350.845Z" transform="translate(-472.436 -232.35)"/><path class="d" d="M518.154,291.891s17.123.992,21.341-3.474,7.445-10.714,3.476-15.159-14.976-16.605-30.94-8.167-15.964,17.922-14.972,28.566,2.73,18.832,9.927,22.306,11.912-1.24,11.168-3.969S510.957,298.094,518.154,291.891Z" transform="translate(-472.042 -262.181)"/><path class="d" d="M528.852,338.944a7.845,7.845,0,0,0,.436-2.575,6.581,6.581,0,0,0-1.843-4.827,4.743,4.743,0,0,0-1.573-6.45,5.933,5.933,0,0,0-4.4-9.939c-.022,0-.044.005-.067.005a6.726,6.726,0,0,0,.565-2.674c0-2.869-1.729-5.254-4.017-5.78a4.1,4.1,0,0,0,.542-2c0-2.549-2.37-4.614-5.3-4.614s-5.294,2.065-5.294,4.614c0,2.442,2.184,4.421,4.939,4.584a6.659,6.659,0,0,0-.8,3.195c0,2.951,1.832,5.373,4.214,5.806a5.88,5.88,0,0,0-.74,2.819,5.952,5.952,0,0,0,3.711,5.51,4.759,4.759,0,0,0,2.708,7.111,7.772,7.772,0,0,0-.464,2.639c0,2.437,1.049,4.5,2.52,5.32a7.026,7.026,0,0,0-.751,3.18c0,3.325,2.181,6.019,4.87,6.019s4.87-2.694,4.87-6.019C532.98,341.86,531.186,339.388,528.852,338.944Z" transform="translate(-467.917 -248.219)"/><path class="g" d="M526.5,329.206c.493,1.2-1.331,1.7-3.441,2.42s-3.675,1.512-4.2.192c-.609-1.523,1.331-1.7,3.443-2.419S525.745,327.382,526.5,329.206Z" transform="translate(-463.927 -237.84)"/></g><g transform="translate(415.863 392.619)"><rect class="g" width="11.232" height="9.594" transform="translate(2.242)"/><rect class="o" width="15.678" height="11.7" transform="translate(0 9.594)"/><path class="d" d="M741.373,433.745l3.393,16.263h6.552l3.628-16.263Z" transform="translate(-740.203 -412.451)"/><g transform="translate(4.027)"><rect class="k" width="1.169" height="3.315"/><rect class="k" width="1.17" height="3.315" transform="translate(6.493)"/><rect class="k" width="1.171" height="3.315" transform="translate(4.328)"/><rect class="k" width="1.171" height="3.315" transform="translate(2.163)"/></g></g><g transform="translate(390.476 392.619)"><rect class="g" width="11.232" height="9.594" transform="translate(2.243)"/><rect class="o" width="15.678" height="11.7" transform="translate(0 9.594)"/><path class="d" d="M722.819,433.745l3.393,16.263h6.553l3.627-16.263Z" transform="translate(-721.649 -412.451)"/><g transform="translate(4.027)"><rect class="k" width="1.171" height="3.315"/><rect class="k" width="1.169" height="3.315" transform="translate(6.494)"/><rect class="k" width="1.169" height="3.315" transform="translate(4.329)"/><rect class="k" width="1.169" height="3.315" transform="translate(2.165)"/></g></g><g transform="translate(365.163 393.106)"><rect class="g" width="11.231" height="9.594" transform="translate(2.243)"/><rect class="o" width="15.678" height="11.7" transform="translate(0 9.594)"/><path class="d" d="M704.319,434.1l3.393,16.263h6.553l3.626-16.263Z" transform="translate(-703.149 -412.808)"/><g transform="translate(4.027)"><rect class="k" width="1.169" height="3.315"/><rect class="k" width="1.171" height="3.315" transform="translate(6.493)"/><rect class="k" width="1.169" height="3.315" transform="translate(4.329)"/><rect class="k" width="1.169" height="3.315" transform="translate(2.165)"/></g></g><g transform="translate(175.928 298.397)"><path class="d" d="M679.508,528.661c-32.341,0-66.6-5.017-88.294-24.4-35.6-31.818-27.716-108.595-17.053-154.936l1.267.293c-10.584,46-18.477,122.278,16.652,153.673C622.786,530.726,679.293,529,719.122,525.3c35.285-3.266,42.522-44.132,42.59-44.544l1.282.214c-.071.423-7.484,42.269-43.755,45.627C707.139,527.721,693.5,528.661,679.508,528.661Z" transform="translate(-565.162 -349.321)"/></g><g transform="translate(574.37 169.019)"><path class="b" d="M888.463,484.591h17.22a.845.845,0,0,0,.844-.846V444.2a4.964,4.964,0,0,0-4.949-4.949H899.8a3.376,3.376,0,0,1-3.263-3.477V431.8a3.376,3.376,0,0,1,3.263-3.478h1.78a4.962,4.962,0,0,0,4.949-4.948V398.64a.843.843,0,0,0-.844-.843h-16.49a2.489,2.489,0,0,1,0-4.968h38.284a2.489,2.489,0,0,1,0,4.968h-16.49a.843.843,0,0,0-.844.843v24.734a4.962,4.962,0,0,0,4.949,4.948h1.78a3.378,3.378,0,0,1,3.266,3.478v3.975a3.378,3.378,0,0,1-3.266,3.477h-1.78a4.964,4.964,0,0,0-4.949,4.949v39.545a.845.845,0,0,0,.844.846h17.22a1.711,1.711,0,0,1,0,3.415H915.225a1.228,1.228,0,0,1-.3.963l-3.109,3.311a1.085,1.085,0,0,1-.877.358.746.746,0,0,0-.795.746v18.99l18.3,7.743a1.131,1.131,0,0,1-.439,2.173H888.718a1.142,1.142,0,0,1-.445-2.193l18.253-7.723v-18.99a.744.744,0,0,0-.8-.746,1.082,1.082,0,0,1-.875-.358l-3.11-3.311a1.231,1.231,0,0,1-.3-.963H888.463a1.711,1.711,0,0,1,0-3.415Z" transform="translate(-845.131 -203.92)"/><path class="g" d="M879.471,397.184h67.634a6.065,6.065,0,0,0,6.064-6.064h0a6.064,6.064,0,0,0-6.064-6.063H879.471a6.064,6.064,0,0,0-6.064,6.063h0A6.066,6.066,0,0,0,879.471,397.184Z" transform="translate(-850.085 -206.782)"/><path class="k" d="M903.976,341.64c-8.471,5.647-23.718,6.212-27.954,1.836s0-11.859,3.106-11.719,5.082-3.671,3.813-5.647-8.653-5.083-8.7-10.023,7.007-6.213,7.007-9.46-6.956-4.941-7.007-10.447,5.878-13.271,16.184-12.565c0,0-5.03-9.6-1.315-15.247s11.481-6.5,13.739-3.813c0,0,8.189-10.588,20.895-9.741s28.8,5.647,29.083,14.26-10.023,17.788-9.318,23.575,9.318,11.86,19.484,11.436,19.482,5.224,19.482,10.589-3.953,10.87-8.189,11.859c0,0,10.73,2.965,10.589,9.882S979.79,350.251,966.8,348.98s-35.859-12.423-44.048-12.423S903.976,341.64,903.976,341.64Z" transform="translate(-849.779 -254.766)"/><path class="k" d="M863.066,437.4a5.569,5.569,0,0,0-2.129,3.432c-.447,3.493-1.2,9.157.627,13.792s5,11.574,9.941-1.114-.234-16.314-1.783-16.751S863.066,437.4,863.066,437.4Z" transform="translate(-854.876 -187.778)"/><path class="k" d="M881.468,440.9a5.575,5.575,0,0,0-1.361,3.8c.3,3.508.751,9.2,3.511,13.35s7.323,10.265,9.486-3.176-3.657-15.9-5.262-16S881.468,440.9,881.468,440.9Z" transform="translate(-847.623 -186.962)"/><path class="n" d="M858.48,392.747s2.867,44.061,3.584,51.584,1.791,14.329,1.791,14.329-.478,10.388,2.507,10.507,4.777-8.955,4.658-10.388.609-8.6.005-10.627,1.665-22.567,2.741-28.18,1.552-19.224,0-24.956S858.48,392.747,858.48,392.747Z" transform="translate(-855.582 -204.332)"/><path class="n" d="M871.1,396.988s9.64,43.09,11.509,50.412,3.983,13.88,3.983,13.88,1.133,10.336,4.1,9.994,3.335-9.585,3-10.983-.727-8.587-1.635-10.5-1.842-22.555-1.646-28.265-1.437-19.234-3.854-24.658S871.1,396.988,871.1,396.988Z" transform="translate(-850.935 -203.309)"/><path class="a" d="M901.712,368.514l-31.076,8.776s-11.47,3.582-12.854,15.761-.49,13.255.854,13.434,11.251-.323,14.029-.053a69.287,69.287,0,0,1,8.088,1.212,13.6,13.6,0,0,0,14.422-4.92c3.756-4.8,2.15-3.225,18.449-4.658s26.5-2.687,33.489-10.21,4.982-19.342,4.982-19.342Z" transform="translate(-856.095 -212.875)"/><path class="n" d="M921.751,315.956a8.619,8.619,0,0,0-1.115-1.081,23.391,23.391,0,0,0,5.952-15.934c0-11.821-7.98-21.4-17.822-21.4s-17.822,9.583-17.822,21.4c0,9.772,5.461,18,12.913,20.561l-3.6,15.081,9.763,8.24,12.985-6.36,10.388-11.015A42.1,42.1,0,0,1,921.751,315.956Z" transform="translate(-843.626 -246.38)"/><path class="o" d="M890.345,319.278s2.176-10.938,9.911-11.105,8.171.895,8.171.895-7.078,16.808,5.112,18.569c10.747,1.55,18.732-17.425,18.732-17.425s8.583-1.2,12.642,2.021,7.405,3.463,12.777,25.494,6.089,27.942-1.612,38.687a160.849,160.849,0,0,1-16.12,18.986l-6.449-8.24s14.688-17.732,15.4-18.628,3.224-2.864,1.791-8.955-6.806-15.4-6.806-15.4-2.508,13.434-4.478,16.3-2.507,4.656-1.253,7.88,8.238,11.463,7.7,23.465l-53.972.357s6.866-14.506,8.12-20.955a45.847,45.847,0,0,0,.895-9.85c.179-1.255.179-10.569-2.686-11.463a3.159,3.159,0,0,0-3.941,1.872s-2.8,3.681-2.388,13.174-13.911,4.119-13.911,4.119S888.911,328.949,890.345,319.278Z" transform="translate(-848.399 -235.104)"/><path class="f" d="M893.539,340.975s14.568,7.171,27.942,2.873,10.957-20.168,10.957-20.168,3.217,10.667,5.1,13.952c2.9,5.054-5.966,20.779-5.1,23.374,1.806,5.432,1.818,3.917,4.254,9.5,4.15,4.15,3.448,15.59,3.448,15.59l-25.721.171s13.361-3.668,13.361-11.307c0-8.6-8.256-18.666-15.659-19.621S896.614,351.631,893.539,340.975Z" transform="translate(-842.671 -229.386)"/><path class="n" d="M928.917,365.7c-1.23,1.453-7.881,6.447-7.881,6.447s-13.791,1.434-16.3,6.269,15.939,2.508,15.939,2.508l11.639-10.7Z" transform="translate(-838.633 -213.909)"/><path class="o" d="M929.967,311.069c4.06,3.224,7.405,3.462,12.777,25.492s6.089,27.94-1.612,38.688a160.908,160.908,0,0,1-16.12,18.985l-6.449-8.24s14.688-17.732,15.4-18.626,3.224-2.867,1.791-8.955-6.806-15.4-6.806-15.4S925.909,307.844,929.967,311.069Z" transform="translate(-833.455 -234.107)"/><path class="j" d="M911.782,350.144H856.362l9.471,35.344h55.418Z" transform="translate(-856.362 -219.64)"/><rect class="j" width="81.545" height="3.463" transform="translate(9.471 165.848)"/><path class="k" d="M910.584,297.183c0,12.024,6.477,21.772,14.47,21.772s14.468-9.748,14.468-21.772-6.477-21.772-14.468-21.772S910.584,285.159,910.584,297.183Z" transform="translate(-836.393 -247.163)"/><path class="k" d="M892.711,282.131c0,5.1,7.04,9.243,15.724,9.243s15.724-4.139,15.724-9.243-7.04-9.245-15.724-9.245S892.711,277.024,892.711,282.131Z" transform="translate(-842.976 -248.092)"/></g></g></g></svg>