<svg xmlns="http://www.w3.org/2000/svg" width="45" height="45" viewBox="0 0 45 45">
    <g fill="none" fill-rule="evenodd">
        <path fill="#173A56" d="M22.26 44.52c12.294 0 22.26-9.966 22.26-22.26C44.52 9.966 34.554 0 22.26 0 9.966 0 0 9.966 0 22.26c0 12.294 9.966 22.26 22.26 22.26z"/>
        <g fill="#FFF" fill-rule="nonzero">
            <path d="M16.64 14.08h-3.2c-.53 0-.96.43-.96.96v.64c0 .177.143.32.32.32h2.88c.706 0 1.28-.574 1.28-1.28v-.32c0-.177-.143-.32-.32-.32zm-.96 1.28h-2.56v-.32c0-.176.144-.32.32-.32h2.88c0 .353-.287.64-.64.64zM7.04 14.08h-3.2c-.177 0-.32.143-.32.32v.32c0 .706.574 1.28 1.28 1.28h2.88c.177 0 .32-.143.32-.32v-.64c0-.53-.43-.96-.96-.96zm.32 1.28H4.8c-.353 0-.64-.287-.64-.64h2.88c.176 0 .32.144.32.32v.32z" transform="translate(12 12)"/>
            <path d="M18.24 16.699v-2.186c0-.76-.449-1.449-1.143-1.756l-.626-.277h.809v-.64h-1.161l-.683-1.991c-.313-.915-1.188-1.529-2.176-1.529H7.22c-.988 0-1.863.614-2.176 1.529L4.36 11.84H3.2v.64h.583l-.504.26c-.64.33-1.039.984-1.039 1.706V16.7c-.372.132-.64.484-.64.901v.32c0 .53.43.96.96.96h.32v.64c0 .53.43.96.96.96h1.28c.53 0 .96-.43.96-.96v-.64h1.6v.32c0 .177.143.32.32.32h4.48c.177 0 .32-.143.32-.32v-.32h1.6v.64c0 .53.43.96.96.96h1.28c.53 0 .96-.43.96-.96v-.64h.32c.53 0 .96-.43.96-.96v-.32c0-.417-.268-.769-.64-.901zM5.649 10.057c.225-.656.856-1.097 1.57-1.097h6.04c.715 0 1.347.44 1.572 1.097l.728 2.125-1.252.358-.404-.809c-.163-.327-.493-.531-.859-.531h-1.128c-.366 0-.695.203-.859.53l-.014.032-.385 1.038H9.183l-.386-1.038-.014-.031c-.163-.328-.493-.531-.859-.531H6.796c-.366 0-.696.204-.859.531l-.345.69-.696-.17.753-2.194zm8.03 2.658l-.35.085H11.34l.296-.796c.057-.102.162-.164.28-.164h1.128c.122 0 .232.068.287.177l.348.698zm-5.18.085H7.152l-.92-.224.278-.559c.055-.11.165-.177.287-.177h1.128c.118 0 .223.062.28.164l.296.796zM2.56 18.24c-.176 0-.32-.144-.32-.32v-.32c0-.176.144-.32.32-.32h1.712c-.07.146-.112.308-.112.48s.043.334.112.48H2.56zm2.88 1.28c0 .176-.144.32-.32.32H3.84c-.176 0-.32-.144-.32-.32v-.64h1.92v.64zm-.16-1.28c-.265 0-.48-.215-.48-.48s.215-.48.48-.48.48.215.48.48-.215.48-.48.48zm2.4 0H6.288c.07-.146.112-.308.112-.48s-.043-.334-.112-.48H7.68v.96zm4.48.64H8.32v-1.6h3.84v1.6zm1.712-.64H12.8v-.96h1.072c-.07.146-.112.308-.112.48s.043.334.112.48zm-1.392-1.6H2.88v-2.194c0-.48.266-.917.693-1.137l.947-.489 2.432.61c.026.007.052.01.078.01h6.41c.03 0 .06-.004.088-.012l.41-.117 1.826-.444 1.074.476c.463.204.762.664.762 1.17v2.127h-5.12zm1.92 1.12c0-.265.215-.48.48-.48s.48.215.48.48-.215.48-.48.48-.48-.215-.48-.48zm2.56 1.76c0 .176-.144.32-.32.32h-1.28c-.176 0-.32-.144-.32-.32v-.64h1.92v.64zm1.28-1.6c0 .176-.144.32-.32.32h-2.032c.07-.146.112-.308.112-.48s-.043-.334-.112-.48h2.032c.176 0 .32.144.32.32v.32z" transform="translate(12 12)"/>
            <path d="M8.64 14.08H11.84V15.08H8.64zM8.64 15.36H11.84V16.36H8.64zM9.28 9.92H11.2V10.92H9.28zM9.92 5.44H10.92V6.44H9.92zM9.92 6.72H10.92V7.72H9.92zM6.4 5.44H7.4V6.44H6.4zM6.4 6.72H7.4V7.72H6.4zM3.2 5.44H4.2V6.44H3.2zM8 3.84H9V4.84H8zM8 5.12H9V6.12H8zM8 6.4H9V7.4H8zM4.8 3.84H5.8V4.84H4.8zM4.8 5.12H5.8V6.12H4.8zM4.8 6.4H5.8V7.4H4.8zM4.8 7.68H5.8V8.68H4.8zM11.84 3.84H12.84V4.84H11.84zM11.84 5.12H12.84V6.12H11.84zM11.84 6.4H12.84V7.4H11.84zM13.44 5.44H14.44V6.44H13.44zM13.44 6.72H14.44V7.72H13.44zM15.04 3.84H16.04V4.84H15.04zM15.04 5.12H16.04V6.12H15.04zM15.04 6.4H16.04V7.4H15.04zM16.64 5.44H17.64V6.44H16.64z" transform="translate(12 12)"/>
            <path d="M17.6 0H2.88c-.177 0-.32.143-.32.32v.96c0 .353.287.64.64.64V4.8h.64V1.92h.96V3.2h.64V1.92h.96V4.8h.64V1.92H8V3.2h.64V1.92h1.28V4.8h.64V1.92h1.28V3.2h.64V1.92h.96V4.8h.64V1.92h.96V3.2h.64V1.92h.96V4.8h.64V1.92c.353 0 .64-.287.64-.64V.32c0-.177-.143-.32-.32-.32zm-1.92 1.28H3.2V.64h14.08v.64h-1.6zM17.6 9.6L17.6 9.28 16.96 9.28 16.96 9.6 16.64 9.6 16.64 10.24 16.96 10.24 16.96 10.56 17.6 10.56 17.6 10.24 17.92 10.24 17.92 9.6zM1.12 9.28C.502 9.28 0 9.782 0 10.4c0 .618.502 1.12 1.12 1.12.618 0 1.12-.502 1.12-1.12 0-.618-.502-1.12-1.12-1.12zm0 1.6c-.265 0-.48-.215-.48-.48s.215-.48.48-.48.48.215.48.48-.215.48-.48.48zM19.36 6.4c-.618 0-1.12.502-1.12 1.12 0 .618.502 1.12 1.12 1.12.618 0 1.12-.502 1.12-1.12 0-.618-.502-1.12-1.12-1.12zm0 1.6c-.265 0-.48-.215-.48-.48s.215-.48.48-.48.48.215.48.48-.215.48-.48.48z" transform="translate(12 12)"/>
        </g>
    </g>
</svg>
