<svg xmlns="http://www.w3.org/2000/svg" width="45" height="45" viewBox="0 0 45 45">
    <g fill="none" fill-rule="evenodd">
        <path fill="#173A56" d="M22.26 44.52c12.294 0 22.26-9.966 22.26-22.26C44.52 9.966 34.554 0 22.26 0 9.966 0 0 9.966 0 22.26c0 12.294 9.966 22.26 22.26 22.26z"/>
        <g fill="#F9F5F5" fill-rule="nonzero">
            <path d="M7.596 6.63c0 .228-.185.413-.414.413-.228 0-.413-.185-.413-.413 0-.229.185-.414.413-.414.229 0 .414.185.414.414z" transform="translate(13 10)"/>
            <path d="M16.869 17.431c-.452 0-.879.11-1.256.302V9.69c0-.167-.059-.32-.157-.442.09-.275.136-.562.136-.857 0-.691-.255-1.324-.675-1.81.335-.78.31-1.436-.08-1.823-.308-.307-.785-.386-1.363-.233-.068-.582-.312-.99-.702-1.166-.408-.182-.894-.08-1.393.289-.305-.606-.733-.949-1.205-.952h-.006c-.817 0-1.472 1.009-1.653 2.469-.354-.165-.748-.257-1.163-.257-.717 0-1.402.28-1.913.767C2.985 1.148 1.566-.435.526.1-.629.696.077 3.194 3.048 8.988h-.102c-.388 0-.703.315-.703.702v12.647c0 .388.315.703.703.703h8.367c.187 0 .339-.152.339-.339 0-.187-.152-.338-.339-.338H2.946c-.014 0-.026-.012-.026-.026V9.69c0-.014.012-.025.026-.025h1.877v3.353c0 2.263 1.842 4.105 4.105 4.105 2.263 0 4.105-1.842 4.105-4.105V9.665h1.877c.014 0 .026.011.026.025v8.528c-.518.505-.841 1.209-.841 1.987 0 .779.323 1.483.84 1.987v.145c0 .014-.01.026-.025.026h-2.004c-.187 0-.338.151-.338.338 0 .187.151.339.338.339h2.004c.279 0 .52-.163.633-.399.394.216.846.338 1.326.338 1.53 0 2.773-1.244 2.773-2.774s-1.244-2.774-2.773-2.774zm-3.111-8.443c-.32-1.125-1.317-1.931-2.492-2.005.392-.43.954-.688 1.552-.688 1.156 0 2.096.94 2.096 2.096 0 .205-.029.404-.086.597h-1.07zm-4.621 0c.308-.792 1.074-1.334 1.953-1.334s1.646.542 1.954 1.334H9.137zm1.031-5.614h.002c.245.001.519.318.713.827.051.133.165.232.303.265.14.032.284-.006.39-.102.36-.331.712-.48.918-.387.2.09.32.42.322.885 0 .141.071.273.188.353.116.08.265.097.397.046.443-.171.802-.18.959-.023.148.147.15.467.018.86-.445-.303-.982-.48-1.56-.48-1.017 0-1.957.564-2.439 1.451-.103.027-.204.06-.302.099-.119-.632-.452-1.188-.921-1.59.087-1.309.59-2.204 1.012-2.204zM7.352 5.585c1.101 0 2.006.854 2.09 1.934-.483.356-.848.866-1.019 1.469H7.157c-.224-.45-.468-.932-.728-1.436-.225-.438-.443-.854-.654-1.25.396-.452.971-.717 1.577-.717zm-3.216-.859c-.52.225-.92.308-1.127.313.12-.163.411-.433.889-.724l.238.411zm-.36 4.194C2.475 6.4 1.61 4.512 1.13 3.152.39 1.057.756.743.837.702c.08-.042.547-.157 1.825 1.66.274.389.57.845.89 1.372-.56.343-1.537 1.052-1.225 1.657.123.239.373.325.67.325.486 0 1.096-.231 1.473-.398.186.336.815 1.505.912 1.69-.545.242-.966.332-1.181.337.02-.028.048-.062.084-.102.126-.138.116-.352-.022-.478s-.352-.116-.478.022c-.39.427-.361.73-.269.91.117.228.364.32.677.32.43 0 .987-.175 1.503-.408.044.083.704 1.378.704 1.378H3.81l-.035-.067zm8.58 4.098c0 1.89-1.538 3.427-3.428 3.427s-3.427-1.537-3.427-3.427V9.665h.6v1.042c0 .187.152.339.34.339.186 0 .338-.152.338-.339V9.665h4.298v3.353c0 1.185-.964 2.149-2.149 2.149s-2.149-.964-2.149-2.15v-.704c0-.187-.152-.338-.339-.338-.187 0-.338.151-.338.338v.705c0 1.558 1.268 2.826 2.826 2.826 1.559 0 2.827-1.268 2.827-2.826V9.665h.6v3.353zm4.513 9.284c-1.156 0-2.097-.94-2.097-2.097 0-1.156.94-2.096 2.097-2.096 1.156 0 2.096.94 2.096 2.096 0 1.156-.94 2.097-2.096 2.097z" transform="translate(13 10)"/>
            <path d="M18.354 20.877c0 .228-.185.413-.413.413-.228 0-.413-.185-.413-.413 0-.228.185-.413.413-.413.228 0 .413.185.413.413z" transform="translate(13 10)"/>
        </g>
    </g>
</svg>
