<svg id="download" xmlns="http://www.w3.org/2000/svg" xmlns:xlink="http://www.w3.org/1999/xlink" width="64.308" height="16.413" viewBox="0 0 64.308 16.413">
  <defs>
    <linearGradient id="linear-gradient" x1="0.224" y1="0.058" x2="0.844" y2="1.054" gradientUnits="objectBoundingBox">
      <stop offset="0.628" stop-color="#c4dd8d"/>
      <stop offset="1" stop-color="#73c16a"/>
    </linearGradient>
    <linearGradient id="linear-gradient-2" x1="0.224" y1="0.058" x2="0.844" y2="1.054" xlink:href="#linear-gradient"/>
    <linearGradient id="linear-gradient-3" x1="0.253" y1="0.994" x2="0.875" y2="0.143" xlink:href="#linear-gradient"/>
  </defs>
  <path id="Path" d="M0,0V15.9H3.968V6.6l7.3,9.3h.769l3.007-5.657V0H11.05V9.636L3.685,0Z" transform="translate(0 0.513)" fill="#fff"/>
  <path id="Path-2" data-name="Path" d="M0,0H4.584l7.344,15.9h-4.6Z" transform="translate(20.745)" fill="url(#linear-gradient)"/>
  <path id="Path-3" data-name="Path" d="M0,0H4.583l7.345,15.9h-4.6Z" transform="translate(27.487)" fill="url(#linear-gradient-2)"/>
  <path id="Shape" d="M8.837,15.9c-.17,0-.343,0-.514-.012a9.972,9.972,0,0,1-3.269-.7A8.659,8.659,0,0,1,2.611,13.7,7.644,7.644,0,0,1,.76,11.284,7.486,7.486,0,0,1,.1,9.22,7.128,7.128,0,0,1,0,7.967,7.542,7.542,0,0,1,.548,5.021,7.424,7.424,0,0,1,1.89,2.868,8.175,8.175,0,0,1,4.585.893,9.247,9.247,0,0,1,6.834.182,11.021,11.021,0,0,1,8.026.03C8.285.01,8.552,0,8.819,0c.2,0,.411.006.616.017a9.79,9.79,0,0,1,3.835.99,8.455,8.455,0,0,1,1.851,1.255,7.558,7.558,0,0,1,1.759,2.318,7.314,7.314,0,0,1,.663,2.138c.038.262.065.534.077.811a7.743,7.743,0,0,1-.591,3.4,7.476,7.476,0,0,1-1.429,2.2,8.487,8.487,0,0,1-3.362,2.188,9.872,9.872,0,0,1-2.091.5A10.271,10.271,0,0,1,8.837,15.9ZM8.912,3.489a5.122,5.122,0,0,0-.879.079,4.417,4.417,0,0,0-3.566,5.17A4.472,4.472,0,0,0,8.4,12.378a4.808,4.808,0,0,0,.5.027,3.992,3.992,0,0,0,.974-.117,4.294,4.294,0,0,0,2.905-2.34,4.486,4.486,0,0,0,.455-2.083,3.831,3.831,0,0,0-.052-.647,4.28,4.28,0,0,0-1.486-2.7A4.232,4.232,0,0,0,8.912,3.489Z" transform="translate(46.675 0.513)" fill="#fff"/>
  <path id="Shape-2" data-name="Shape" d="M7.823,15.9a.1.1,0,0,1-.1-.067c-.02-.042-.042-.083-.063-.124l-.033-.064q-.68-1.392-1.36-2.785c-.041-.083-.06-.123-.047-.144s.057-.022.148-.022a4.023,4.023,0,0,0,1.145-.146,1.975,1.975,0,0,0,.649-.323,1.463,1.463,0,0,0,.586-1.044,1.424,1.424,0,0,0-.246-1.035,1.565,1.565,0,0,0-.595-.493A2.721,2.721,0,0,0,7.02,9.4a4.146,4.146,0,0,0-.5-.023H5.65c-.261,0-.6,0-.946,0A.2.2,0,0,1,4.5,9.25C4.12,8.465,3.73,7.669,3.353,6.9l-.088-.18L2.5,5.155,1.732,3.591Q1,2.094.264.6L.179.426C.126.321.074.216.023.111,0,.063,0,.039,0,.024S.038,0,.092,0H6.685A11.473,11.473,0,0,1,7.878.069a7.588,7.588,0,0,1,1.43.282,5.174,5.174,0,0,1,1.876.964,3.39,3.39,0,0,1,1.239,2.216A3.518,3.518,0,0,1,10.1,7.39l-.042.011a.69.69,0,0,0-.2.079L9.92,7.5l.1.029a3.825,3.825,0,0,1,2.863,3.109,4.717,4.717,0,0,1,.069,1.163,3.847,3.847,0,0,1-1.415,2.789A5.466,5.466,0,0,1,9.4,15.641a8.069,8.069,0,0,1-1.258.23l-.121.01c-.06,0-.12.009-.179.017ZM3.543,3.263c-.123,0-.131.007-.131.133v2.8c0,.132.006.139.138.139H6.544a2.273,2.273,0,0,0,.677-.1A1.382,1.382,0,0,0,8.16,5.4a1.722,1.722,0,0,0,.1-.852,1.3,1.3,0,0,0-.777-1.1,2.051,2.051,0,0,0-.867-.187l-.5,0H3.543Z" transform="translate(32.673)" fill="#fff"/>
  <path id="Path-4" data-name="Path" d="M10.372,4.967,4.894,15.9H0L7.892,0Z" transform="translate(11.928)" fill="url(#linear-gradient-3)"/>
</svg>
