<svg xmlns="http://www.w3.org/2000/svg" width="967.441" height="762.118" viewBox="0 0 967.441 762.118"><defs><style>.a{fill:#173a56;}.b{fill:#fff;}.c{fill:#8ae9ff;}.d{fill:#ffd800;}.e{fill:#ffd710;}.f{fill:#647b8e;}.g{fill:#00467f;}.h{fill:#03335e;}.i{fill:#a2e9f4;}.j{fill:#0a184a;}.k{fill:#d8dee2;}.l{fill:#136cbd;}.m{fill:#edf1f4;}.n{fill:#afbdc6;}.o{fill:#d1dde6;}.p{fill:#202a24;}.q{fill:#ffd8c5;}.r{fill:#ffc29f;}.s{fill:#e8bd0c;}.t{fill:#05496b;}.u{fill:#0e547f;}.v{fill:#f2ca03;}.w{fill:#f4c7b5;}.x{fill:#13597c;}.y{fill:#a6f2ff;}.z{fill:#95f2fc;}.aa{fill:#0b1f30;}.ab{fill:#0f283b;}.ac{fill:#2ec0ff;opacity:0.05;}</style></defs><g transform="translate(-127.952 15.981)"><path class="a" d="M866.1,433.744V423.636l-8.125-.7a36.565,36.565,0,0,0-1.989-7.413l6.69-4.667-5.056-8.754-7.391,3.462a36.847,36.847,0,0,0-5.423-5.425l3.462-7.393-8.755-5.054-4.667,6.69a36.579,36.579,0,0,0-7.413-1.989l-.7-8.125h-10.11l-.7,8.125a36.579,36.579,0,0,0-7.413,1.989l-4.667-6.69-8.754,5.054,3.462,7.393a36.921,36.921,0,0,0-5.425,5.425l-7.391-3.462-5.056,8.754,6.69,4.667a36.475,36.475,0,0,0-1.987,7.413l-8.125.7v10.108l8.125.7a36.464,36.464,0,0,0,1.987,7.415l-6.69,4.666,5.056,8.755,7.391-3.462a36.99,36.99,0,0,0,5.425,5.425L795.1,464.63l8.754,5.056,4.667-6.69a36.481,36.481,0,0,0,7.413,1.987l.7,8.127h10.11l.7-8.127a36.481,36.481,0,0,0,7.413-1.987l4.667,6.69,8.755-5.056-3.462-7.391a36.915,36.915,0,0,0,5.423-5.425l7.391,3.462,5.056-8.755-6.69-4.666a36.554,36.554,0,0,0,1.989-7.415Zm-44.418,18.465a23.519,23.519,0,1,1,23.519-23.519A23.519,23.519,0,0,1,821.686,452.209Z" transform="translate(165.172 98.97)"/><g transform="translate(612.604 137.925)"><g transform="translate(8.687 42.016)"><rect class="b" width="1.082" height="21.394" transform="translate(0 0.837) rotate(-22.806)"/><rect class="c" width="1.083" height="21.205" transform="matrix(0.979, -0.205, 0.205, 0.979, 7.92, 0.222)"/><rect class="b" width="21.394" height="1.082" transform="matrix(0.388, -0.922, 0.922, 0.388, 20.978, 20.136)"/><rect class="c" width="21.205" height="1.083" transform="translate(16.943 20.754) rotate(-78.16)"/></g><path class="b" d="M543.683,160.117a34.931,34.931,0,0,0,4.334,17.25c-5.155-5.909-8.428-14-8.428-20.691,0-8.4,5.161-15.709,12.741-19.4C547.109,142.265,543.683,150.633,543.683,160.117Z" transform="translate(-539.589 -134.723)"/><path class="d" d="M549,160.631c0,10.225,2.691,19.159,6.689,23.948a25.346,25.346,0,0,1-8.812-6.7,34.931,34.931,0,0,1-4.334-17.25c0-9.484,3.426-17.852,8.647-22.838a24.843,24.843,0,0,1,5.15-1.84C551.983,140.527,549,149.858,549,160.631Z" transform="translate(-538.445 -135.237)"/><path class="d" d="M575.047,160.632a34.914,34.914,0,0,1-4.324,17.236,25.252,25.252,0,0,1-8.827,6.707c4-4.793,6.693-13.722,6.693-23.943,0-10.777-2.99-20.114-7.349-24.682a24.647,24.647,0,0,1,5.155,1.848C571.619,142.786,575.047,151.154,575.047,160.632Z" transform="translate(-531.195 -135.238)"/><path class="b" d="M569.282,177.351a34.914,34.914,0,0,0,4.324-17.236c0-9.478-3.428-17.846-8.653-22.834,7.58,3.683,12.745,10.988,12.745,19.392C577.7,163.363,574.432,171.447,569.282,177.351Z" transform="translate(-529.754 -134.722)"/><path class="b" d="M553.87,160.79c0,11.142,1.6,20.749,3.919,25.136a17.586,17.586,0,0,1-3.908-1.188c-4-4.789-6.689-13.723-6.689-23.948,0-10.773,2.986-20.1,7.34-24.678a24.926,24.926,0,0,1,3.317-.569C555.5,139.874,553.87,149.549,553.87,160.79Z" transform="translate(-536.641 -135.396)"/><path class="b" d="M569.512,160.79c0,10.221-2.689,19.149-6.693,23.943l0,.006a17.233,17.233,0,0,1-3.9,1.188c2.315-4.387,3.923-13.994,3.923-25.136,0-11.241-1.633-20.916-3.977-25.247a25.139,25.139,0,0,1,3.306.565C566.521,140.676,569.512,150.013,569.512,160.79Z" transform="translate(-532.118 -135.396)"/><path class="d" d="M565.491,160.831c0,11.142-1.608,20.749-3.923,25.136a15.646,15.646,0,0,1-5.645,0C553.608,181.58,552,171.973,552,160.831c0-11.241,1.633-20.916,3.979-25.247a26.073,26.073,0,0,1,5.532,0C563.858,139.915,565.491,149.59,565.491,160.831Z" transform="translate(-534.775 -135.437)"/><path class="e" d="M0,0H14.417a0,0,0,0,1,0,0V8.232A4.971,4.971,0,0,1,9.446,13.2H4.971A4.971,4.971,0,0,1,0,8.232V0A0,0,0,0,1,0,0Z" transform="translate(16.765 60.667)"/></g><path class="f" d="M732.562,207.953A23.8,23.8,0,0,0,707.4,168.96c.019-.476.037-.952.037-1.432a35.655,35.655,0,0,0-71.171-3.154A16.267,16.267,0,0,0,610.4,176.748,20.924,20.924,0,0,0,586.629,197.5v.172A14.8,14.8,0,0,0,601.5,212.217H722.137A14.541,14.541,0,0,0,732.562,207.953Z" transform="translate(91.254 1.105)"/><g transform="translate(635.417 306.35)"><rect class="g" width="32.709" height="65.892" transform="translate(102.107 123.547)"/><path class="h" d="M14.506,0H87.014a14.507,14.507,0,0,1,14.507,14.507v7.6a0,0,0,0,1,0,0H0a0,0,0,0,1,0,0v-7.6A14.506,14.506,0,0,1,14.506,0Z" transform="translate(67.701 183.709)"/><rect class="h" width="238.954" height="161.298" rx="5"/><rect class="b" width="218.03" height="139.558" rx="5" transform="translate(10.462 10.87)"/><g transform="translate(94.564 41.147)"><path class="i" d="M8.325,0H41.5a8.326,8.326,0,0,1,8.326,8.326V41.5A8.326,8.326,0,0,1,41.5,49.826H8.326A8.326,8.326,0,0,1,0,41.5V8.325A8.325,8.325,0,0,1,8.325,0Z" transform="translate(0 26.087)"/><path class="i" d="M672.553,329.2H625V305.905a19.473,19.473,0,0,1,19.45-19.451H653.1a19.472,19.472,0,0,1,19.451,19.451Zm-41.377-6.178h35.2V305.905A13.287,13.287,0,0,0,653.1,292.633H644.45a13.288,13.288,0,0,0-13.274,13.272Z" transform="translate(-623.85 -286.455)"/><path class="j" d="M649.285,320.627a5.6,5.6,0,1,0-8.683,4.667v11.193h6.171V325.294A5.587,5.587,0,0,0,649.285,320.627Z" transform="translate(-618.775 -275.375)"/></g></g><path class="f" d="M490.878,178.835a14.324,14.324,0,0,1,15.144-23.467c-.01-.287-.021-.573-.021-.863a21.457,21.457,0,0,1,42.83-1.9,9.791,9.791,0,0,1,15.565,7.448,12.885,12.885,0,0,1,1.7-.118A12.609,12.609,0,0,1,578.7,172.546v.1a8.906,8.906,0,0,1-8.951,8.75h-72.6A8.753,8.753,0,0,1,490.878,178.835Z" transform="translate(52.547 1.561)"/><path class="k" d="M870.564,239.162a34.455,34.455,0,0,0-36.431-56.447c.026-.69.051-1.378.051-2.075a51.615,51.615,0,0,0-103.028-4.567,23.551,23.551,0,0,0-37.441,17.916,30.289,30.289,0,0,0-34.41,30.047c0,.082,0,.165,0,.25a21.425,21.425,0,0,0,21.531,21.051H855.472A21.058,21.058,0,0,0,870.564,239.162Z" transform="translate(119.433)"/><path class="a" d="M493.51,369.148v-12.44l-7.841-.673a31.5,31.5,0,0,0-4.176-10.075l5.069-6.02-8.8-8.8-6.021,5.069a31.5,31.5,0,0,0-10.075-4.176L461,324.2H448.558l-.672,7.841a31.482,31.482,0,0,0-10.075,4.176l-6.021-5.069-8.8,8.8,5.071,6.02a31.464,31.464,0,0,0-4.176,10.075l-7.841.673v12.44l7.841.672a31.438,31.438,0,0,0,4.176,10.075l-5.071,6.021,8.8,8.8,6.021-5.071a31.451,31.451,0,0,0,10.075,4.176l.672,7.841H461l.672-7.841a31.464,31.464,0,0,0,10.075-4.176l6.021,5.071,8.8-8.8-5.069-6.021a31.47,31.47,0,0,0,4.176-10.075Zm-38.732,16.224a22.444,22.444,0,1,1,22.445-22.444A22.444,22.444,0,0,1,454.778,385.372Z" transform="translate(25.114 75.676)"/><g transform="translate(872.714 416.324)"><rect class="l" width="117.215" height="173.476" rx="5"/><path class="b" d="M2.7,0h94.93a2.7,2.7,0,0,1,2.7,2.7v139.94a2.7,2.7,0,0,1-2.7,2.7H2.7a2.7,2.7,0,0,1-2.7-2.7V2.7A2.7,2.7,0,0,1,2.7,0Z" transform="translate(8.396 15.514)"/><path class="g" d="M756.559,342.5a2.9,2.9,0,1,0-2.9,2.9A2.9,2.9,0,0,0,756.559,342.5Z" transform="translate(-717.819 -334.674)"/><path class="g" d="M796.01,345.4H761.237a2.9,2.9,0,0,1-2.9-2.9h0a2.9,2.9,0,0,1,2.9-2.9H796.01a2.9,2.9,0,0,1,2.9,2.9h0A2.9,2.9,0,0,1,796.01,345.4Z" transform="translate(-714.882 -334.674)"/><g transform="translate(88.497 20.864)"><path class="e" d="M800.1,360.7a.938.938,0,0,1-.938-.937v-7.738a.937.937,0,0,1,1.875,0v7.738A.936.936,0,0,1,800.1,360.7Z" transform="translate(-787.553 -351.086)"/><path class="e" d="M797.307,360.174a.936.936,0,0,1-.937-.937v-5.862a.937.937,0,1,1,1.875,0v5.862A.937.937,0,0,1,797.307,360.174Z" transform="translate(-788.633 -350.562)"/><path class="e" d="M794.52,359.911a.938.938,0,0,1-.938-.937v-4.924a.938.938,0,0,1,1.876,0v4.924A.938.938,0,0,1,794.52,359.911Z" transform="translate(-789.714 -350.3)"/><path class="e" d="M791.733,359.388a.938.938,0,0,1-.938-.937V355.4a.938.938,0,1,1,1.876,0v3.049A.938.938,0,0,1,791.733,359.388Z" transform="translate(-790.795 -349.776)"/></g><rect class="m" width="84.16" height="44.077" rx="1.27" transform="translate(16.879 36.883)"/><g transform="translate(23.678 46.318)"><rect class="i" width="34.348" height="25.207" rx="0.676"/><path class="b" d="M778.434,381.455v10.334a.936.936,0,0,1-.937.937H745.024a.937.937,0,0,1-.938-.937v-1.9l7.533-8.385a.939.939,0,0,1,1.372-.025l5.64,5.837A.938.938,0,0,0,760,387.3l11.6-12.648a.938.938,0,0,1,1.422.047Z" transform="translate(-744.086 -367.52)"/><path class="b" d="M754.059,374.951a3.438,3.438,0,1,0-3.437,3.437A3.439,3.439,0,0,0,754.059,374.951Z" transform="translate(-742.885 -368.62)"/></g><g transform="translate(64.82 47.804)"><path class="b" d="M786.452,373.9H775.433a1.7,1.7,0,0,1-1.7-1.7h0a1.7,1.7,0,0,1,1.7-1.7h11.019a1.7,1.7,0,0,1,1.7,1.7h0A1.7,1.7,0,0,1,786.452,373.9Z" transform="translate(-773.733 -370.499)"/><path class="b" d="M790.362,373.9h-2.344a1.7,1.7,0,0,1-1.7-1.7h0a1.7,1.7,0,0,1,1.7-1.7h2.344a1.7,1.7,0,0,1,1.7,1.7h0A1.7,1.7,0,0,1,790.362,373.9Z" transform="translate(-768.853 -370.499)"/><path class="b" d="M777.777,378.459h-2.344a1.7,1.7,0,0,1-1.7-1.7h0a1.7,1.7,0,0,1,1.7-1.7h2.344a1.7,1.7,0,0,1,1.7,1.7h0A1.7,1.7,0,0,1,777.777,378.459Z" transform="translate(-773.733 -368.731)"/><path class="b" d="M792.194,378.488H781.176a1.7,1.7,0,0,1-1.7-1.7h0a1.7,1.7,0,0,1,1.7-1.7h11.019a1.7,1.7,0,0,1,1.7,1.7h0A1.7,1.7,0,0,1,792.194,378.488Z" transform="translate(-771.506 -368.72)"/><path class="b" d="M777.777,387.472h-2.344a1.7,1.7,0,0,1-1.7-1.7h0a1.7,1.7,0,0,1,1.7-1.7h2.344a1.7,1.7,0,0,1,1.7,1.7h0A1.7,1.7,0,0,1,777.777,387.472Z" transform="translate(-773.733 -365.236)"/><path class="b" d="M788.68,387.472h-7a1.7,1.7,0,0,1-1.7-1.7h0a1.7,1.7,0,0,1,1.7-1.7h7a1.7,1.7,0,0,1,1.7,1.7h0A1.7,1.7,0,0,1,788.68,387.472Z" transform="translate(-771.31 -365.236)"/><path class="b" d="M797.165,387.472h-6.134a1.7,1.7,0,0,1-1.7-1.7h0a1.7,1.7,0,0,1,1.7-1.7h6.134a1.7,1.7,0,0,1,1.7,1.7h0A1.7,1.7,0,0,1,797.165,387.472Z" transform="translate(-767.685 -365.236)"/><path class="b" d="M796.106,373.9h-2.344a1.7,1.7,0,0,1-1.7-1.7h0a1.7,1.7,0,0,1,1.7-1.7h2.344a1.7,1.7,0,0,1,1.7,1.7h0A1.7,1.7,0,0,1,796.106,373.9Z" transform="translate(-766.626 -370.499)"/><path class="b" d="M786.452,382.98H775.433a1.7,1.7,0,0,1-1.7-1.7h0a1.7,1.7,0,0,1,1.7-1.7h11.019a1.7,1.7,0,0,1,1.7,1.7h0A1.7,1.7,0,0,1,786.452,382.98Z" transform="translate(-773.733 -366.978)"/><path class="b" d="M790.362,382.98h-2.344a1.7,1.7,0,0,1-1.7-1.7h0a1.7,1.7,0,0,1,1.7-1.7h2.344a1.7,1.7,0,0,1,1.7,1.7h0A1.7,1.7,0,0,1,790.362,382.98Z" transform="translate(-768.853 -366.978)"/><path class="b" d="M796.106,382.98h-2.344a1.7,1.7,0,0,1-1.7-1.7h0a1.7,1.7,0,0,1,1.7-1.7h2.344a1.7,1.7,0,0,1,1.7,1.7h0A1.7,1.7,0,0,1,796.106,382.98Z" transform="translate(-766.626 -366.978)"/></g><g transform="translate(17.356 144.679)"><rect class="n" width="12.547" height="3.323" rx="1.13" transform="translate(0 0.019)"/><rect class="n" width="4.998" height="3.323" rx="1.13" transform="translate(15.2 0.019)"/><rect class="n" width="4.999" height="3.323" rx="1.13" transform="translate(0 6.207)"/><rect class="n" width="12.548" height="3.323" rx="1.13" transform="translate(6.937 6.245)"/><path class="n" d="M1.13,0H3.869A1.129,1.129,0,0,1,5,1.129V2.193a1.13,1.13,0,0,1-1.13,1.13H1.13A1.13,1.13,0,0,1,0,2.193V1.13A1.13,1.13,0,0,1,1.13,0Z" transform="translate(30.103)"/><rect class="n" width="12.547" height="3.323" rx="1.13" transform="translate(37.04 0.038)"/><rect class="n" width="4.999" height="3.323" rx="1.13" transform="translate(22.137 0.019)"/><path class="n" d="M1.129,0H11.417a1.13,1.13,0,0,1,1.13,1.13V2.193a1.13,1.13,0,0,1-1.13,1.13H1.129A1.129,1.129,0,0,1,0,2.194V1.129A1.129,1.129,0,0,1,1.129,0Z" transform="translate(22.137 6.245)"/><path class="n" d="M1.129,0H3.869A1.13,1.13,0,0,1,5,1.13V2.193a1.13,1.13,0,0,1-1.13,1.13H1.129A1.129,1.129,0,0,1,0,2.194V1.129A1.129,1.129,0,0,1,1.129,0Z" transform="translate(37.336 6.245)"/><path class="n" d="M1.13,0H3.869A1.129,1.129,0,0,1,5,1.129V2.193a1.13,1.13,0,0,1-1.13,1.13H1.13A1.13,1.13,0,0,1,0,2.193V1.13A1.13,1.13,0,0,1,1.13,0Z" transform="translate(44.273 6.245)"/></g><rect class="m" width="84.16" height="44.077" rx="1.27" transform="translate(16.879 91.584)"/><g transform="translate(23.678 98.616)"><rect class="b" width="5.392" height="32.507"/><rect class="b" width="5.392" height="32.507" transform="translate(11.174)"/><rect class="b" width="5.392" height="32.507" transform="translate(22.349)"/><rect class="b" width="5.392" height="32.507" transform="translate(33.523)"/><rect class="b" width="5.392" height="32.507" transform="translate(44.697)"/></g><g transform="translate(23.678 102.404)"><rect class="i" width="5.392" height="26.185" transform="translate(0 2.534)"/><rect class="i" width="5.392" height="18.255" transform="translate(11.174 10.465)"/><rect class="i" width="5.392" height="28.72" transform="translate(22.349)"/><rect class="i" width="5.392" height="14.36" transform="translate(33.523 14.36)"/><rect class="i" width="5.392" height="11.74" transform="translate(44.697 16.979)"/></g><g transform="translate(83.222 98.616)"><rect class="b" width="12.777" height="4.297"/><rect class="i" width="12.777" height="4.299" transform="translate(0 7.501)"/></g><g transform="translate(79.79 114.283)"><path class="n" d="M793.52,420.046h-8.179a.82.82,0,0,1-.82-.82h0a.82.82,0,0,1,.82-.822h8.179a.82.82,0,0,1,.82.822h0A.82.82,0,0,1,793.52,420.046Z" transform="translate(-784.521 -418.404)"/><path class="n" d="M796.821,420.046H793.3a.821.821,0,0,1-.82-.82h0a.821.821,0,0,1,.82-.822h3.516a.822.822,0,0,1,.822.822h0A.821.821,0,0,1,796.821,420.046Z" transform="translate(-781.433 -418.404)"/><path class="n" d="M791.973,422.326h-2.638a.821.821,0,0,1-.822-.82h0a.821.821,0,0,1,.822-.822h2.638a.82.82,0,0,1,.82.822h0A.82.82,0,0,1,791.973,422.326Z" transform="translate(-782.973 -417.52)"/><path class="n" d="M787.4,422.326h-2.054a.82.82,0,0,1-.82-.82h0a.82.82,0,0,1,.82-.822H787.4a.82.82,0,0,1,.82.822h0A.82.82,0,0,1,787.4,422.326Z" transform="translate(-784.521 -417.52)"/><path class="n" d="M796.821,422.326H793.3a.821.821,0,0,1-.82-.82h0a.821.821,0,0,1,.82-.822h3.516a.821.821,0,0,1,.822.822h0A.821.821,0,0,1,796.821,422.326Z" transform="translate(-781.433 -417.52)"/><path class="n" d="M793.52,424.487h-8.179a.82.82,0,0,1-.82-.82h0a.82.82,0,0,1,.82-.822h8.179a.82.82,0,0,1,.82.822h0A.82.82,0,0,1,793.52,424.487Z" transform="translate(-784.521 -416.682)"/><path class="n" d="M796.821,424.487H793.3a.821.821,0,0,1-.82-.82h0a.821.821,0,0,1,.82-.822h3.516a.821.821,0,0,1,.822.822h0A.821.821,0,0,1,796.821,424.487Z" transform="translate(-781.433 -416.682)"/><path class="n" d="M791.973,426.766h-2.638a.82.82,0,0,1-.822-.82h0a.82.82,0,0,1,.822-.819h2.638a.819.819,0,0,1,.82.819h0A.819.819,0,0,1,791.973,426.766Z" transform="translate(-782.973 -415.797)"/><path class="n" d="M787.4,426.766h-2.054a.819.819,0,0,1-.82-.82h0a.819.819,0,0,1,.82-.819H787.4a.819.819,0,0,1,.82.819h0A.819.819,0,0,1,787.4,426.766Z" transform="translate(-784.521 -415.797)"/><path class="n" d="M796.821,426.766H793.3a.82.82,0,0,1-.82-.82h0a.82.82,0,0,1,.82-.819h3.516a.82.82,0,0,1,.822.819h0A.82.82,0,0,1,796.821,426.766Z" transform="translate(-781.433 -415.797)"/></g><path class="i" d="M767.9,360.136H742.543a2.794,2.794,0,0,1-2.793-2.793h0a2.794,2.794,0,0,1,2.793-2.795H767.9a2.794,2.794,0,0,1,2.794,2.795h0A2.794,2.794,0,0,1,767.9,360.136Z" transform="translate(-722.09 -328.88)"/><path class="i" d="M775.511,360.136h-8.064a2.794,2.794,0,0,1-2.793-2.793h0a2.794,2.794,0,0,1,2.793-2.795h8.064a2.8,2.8,0,0,1,2.794,2.795h0A2.8,2.8,0,0,1,775.511,360.136Z" transform="translate(-712.434 -328.88)"/></g><path class="g" d="M2.667,0H232.339a2.667,2.667,0,0,1,2.667,2.667V166.539a0,0,0,0,1,0,0H0a0,0,0,0,1,0,0V2.667A2.667,2.667,0,0,1,2.667,0Z" transform="translate(480.418 355.577)"/><path class="o" d="M2.026,0H207.863a2.027,2.027,0,0,1,2.027,2.027V128.475a2.026,2.026,0,0,1-2.026,2.026H2.026A2.026,2.026,0,0,1,0,128.475V2.026A2.026,2.026,0,0,1,2.026,0Z" transform="translate(492.976 367.104)"/><path class="l" d="M429.367,400.784H706.932c4.334,8.124-2.635,17.348-13.107,17.348H442.473c-10.47,0-17.44-9.224-13.106-17.348Z" transform="translate(29.771 105.372)"/><path class="l" d="M532.164,297.105a2.467,2.467,0,1,0-2.467,2.467A2.467,2.467,0,0,0,532.164,297.105Z" transform="translate(68.223 64.215)"/><g transform="translate(602.547 378.773)"><path class="b" d="M1.333,0H89.217A1.334,1.334,0,0,1,90.55,1.334V35.984a1.333,1.333,0,0,1-1.333,1.333H1.333A1.333,1.333,0,0,1,0,35.984V1.333A1.333,1.333,0,0,1,1.333,0Z"/><path class="e" d="M563.043,323.235l-4.294.723a9.1,9.1,0,0,1,.23,2.016,8.911,8.911,0,0,1-5.523,8.245l.88,4.32a13.34,13.34,0,0,0,7.244-5.995,13.166,13.166,0,0,0,1.748-6.57A13.472,13.472,0,0,0,563.043,323.235Zm-26.268,2.739a13.248,13.248,0,0,0,6.542,11.427l1.463-4.237a8.91,8.91,0,0,1,.8-14.915,8.768,8.768,0,0,1,3.775-1.174v-4.359a13.308,13.308,0,0,0-12.584,13.258Z" transform="translate(-530.623 -307.548)"/><path class="f" d="M552.509,332.826a13.1,13.1,0,0,1-4.284.712,13.263,13.263,0,0,1-2.785-.294,13.127,13.127,0,0,1-3.951-1.556l1.463-4.237a8.783,8.783,0,0,0,2.756,1.378,9.032,9.032,0,0,0,2.517.361,8.669,8.669,0,0,0,3.4-.684Z" transform="translate(-528.795 -301.835)"/><path class="f" d="M559.527,323.24l-4.294.723a8.954,8.954,0,0,0-8.7-6.911c-.232,0-.472.008-.694.028v-4.359c.23-.008.462-.018.694-.018a13.093,13.093,0,0,1,5.319,1.119A13.291,13.291,0,0,1,559.527,323.24Z" transform="translate(-527.107 -307.553)"/><rect class="o" width="16.5" height="4.318" transform="translate(45.275 13.354) rotate(90)"/><rect class="n" width="12.343" height="4.317" transform="translate(52.522 17.511) rotate(90)"/><rect class="o" width="7.31" height="4.318" transform="translate(59.77 22.544) rotate(90)"/><rect class="o" width="20.679" height="4.318" transform="translate(67.018 9.175) rotate(90)"/><rect class="n" width="10.339" height="4.318" transform="translate(74.265 19.515) rotate(90)"/></g><g transform="translate(502.745 378.773)"><path class="b" d="M1.333,0H89.217A1.333,1.333,0,0,1,90.55,1.333V35.984a1.333,1.333,0,0,1-1.333,1.333H1.334A1.334,1.334,0,0,1,0,35.984V1.333A1.333,1.333,0,0,1,1.333,0Z"/><g transform="translate(14.441 4.494)"><rect class="o" width="24.764" height="9.343" rx="1.445" transform="translate(0 17.867)"/><rect class="o" width="24.764" height="9.343" rx="1.445" transform="translate(36.598 17.867)"/><rect class="o" width="24.764" height="9.343" rx="1.445" transform="translate(18.494)"/><path class="o" d="M509.555,331.161H508.3V316.4h-9.4v-1.255h10.657Z" transform="translate(-459.948 -311.1)"/><path class="o" d="M480.556,331.161H479.3V315.144h10.657V316.4h-9.4Z" transform="translate(-467.546 -311.1)"/></g></g><g transform="translate(626.834 425.384)"><rect class="b" width="66.263" height="45.814" rx="1.333"/><g transform="translate(7.731 8.997)"><path class="n" d="M570.136,351.748H556.756a1.343,1.343,0,0,1-1.342-1.343h0a1.342,1.342,0,0,1,1.342-1.342h13.381a1.342,1.342,0,0,1,1.342,1.342h0A1.343,1.343,0,0,1,570.136,351.748Z" transform="translate(-555.414 -349.063)"/><path class="n" d="M575.535,351.748h-5.752a1.343,1.343,0,0,1-1.342-1.343h0a1.342,1.342,0,0,1,1.342-1.342h5.752a1.342,1.342,0,0,1,1.342,1.342h0A1.343,1.343,0,0,1,575.535,351.748Z" transform="translate(-550.363 -349.063)"/><path class="n" d="M567.6,355.476h-4.316a1.341,1.341,0,0,1-1.343-1.342h0a1.341,1.341,0,0,1,1.343-1.341H567.6a1.341,1.341,0,0,1,1.342,1.341h0A1.341,1.341,0,0,1,567.6,355.476Z" transform="translate(-552.882 -347.616)"/><path class="n" d="M560.117,355.476h-3.361a1.341,1.341,0,0,1-1.342-1.342h0a1.341,1.341,0,0,1,1.342-1.341h3.361a1.341,1.341,0,0,1,1.342,1.341h0A1.341,1.341,0,0,1,560.117,355.476Z" transform="translate(-555.414 -347.616)"/><path class="n" d="M575.535,355.476h-5.752a1.341,1.341,0,0,1-1.342-1.342h0a1.341,1.341,0,0,1,1.342-1.341h5.752a1.341,1.341,0,0,1,1.342,1.341h0A1.341,1.341,0,0,1,575.535,355.476Z" transform="translate(-550.363 -347.616)"/><path class="n" d="M570.136,359.012H556.756a1.341,1.341,0,0,1-1.342-1.342h0a1.342,1.342,0,0,1,1.342-1.342h13.381a1.342,1.342,0,0,1,1.342,1.342h0A1.341,1.341,0,0,1,570.136,359.012Z" transform="translate(-555.414 -346.246)"/><path class="n" d="M575.535,359.012h-5.752a1.341,1.341,0,0,1-1.342-1.342h0a1.342,1.342,0,0,1,1.342-1.342h5.752a1.342,1.342,0,0,1,1.342,1.342h0A1.341,1.341,0,0,1,575.535,359.012Z" transform="translate(-550.363 -346.246)"/><path class="n" d="M567.6,362.743h-4.316a1.342,1.342,0,0,1-1.343-1.342h0a1.343,1.343,0,0,1,1.343-1.343H567.6a1.343,1.343,0,0,1,1.342,1.343h0A1.342,1.342,0,0,1,567.6,362.743Z" transform="translate(-552.882 -344.8)"/><path class="n" d="M560.117,362.743h-3.361a1.342,1.342,0,0,1-1.342-1.342h0a1.343,1.343,0,0,1,1.342-1.343h3.361a1.343,1.343,0,0,1,1.342,1.343h0A1.342,1.342,0,0,1,560.117,362.743Z" transform="translate(-555.414 -344.8)"/><path class="n" d="M575.535,362.743h-5.752a1.342,1.342,0,0,1-1.342-1.342h0a1.343,1.343,0,0,1,1.342-1.343h5.752a1.343,1.343,0,0,1,1.342,1.343h0A1.342,1.342,0,0,1,575.535,362.743Z" transform="translate(-550.363 -344.8)"/></g><path class="i" d="M2.433,0H26.274a2.433,2.433,0,0,1,2.433,2.433V4.917a2.434,2.434,0,0,1-2.434,2.434H2.433A2.433,2.433,0,0,1,0,4.918V2.433A2.433,2.433,0,0,1,2.433,0Z" transform="translate(8.419 33.51)"/></g><g transform="translate(502.7 425.384)"><path class="b" d="M1.334,0H116.093a1.334,1.334,0,0,1,1.334,1.334V44.481a1.333,1.333,0,0,1-1.333,1.333H1.334A1.334,1.334,0,0,1,0,44.481V1.334A1.334,1.334,0,0,1,1.334,0Z"/><path class="o" d="M480.977,354.189a8.042,8.042,0,1,0-8.042,8.042A8.042,8.042,0,0,0,480.977,354.189Z" transform="translate(-458.647 -341.197)"/><path class="n" d="M504.6,366.891h-37.78a1.927,1.927,0,0,1-1.928-1.928h0a1.927,1.927,0,0,1,1.928-1.926H504.6a1.927,1.927,0,0,1,1.928,1.926h0A1.927,1.927,0,0,1,504.6,366.891Z" transform="translate(-458.647 -334.648)"/><path class="n" d="M483.783,372H466.821a1.928,1.928,0,0,1-1.928-1.928h0a1.928,1.928,0,0,1,1.928-1.928h16.962a1.928,1.928,0,0,1,1.928,1.928h0A1.928,1.928,0,0,1,483.783,372Z" transform="translate(-458.647 -332.666)"/><path class="n" d="M516.9,366.891H499.934a1.927,1.927,0,0,1-1.928-1.928h0a1.927,1.927,0,0,1,1.928-1.926H516.9a1.927,1.927,0,0,1,1.928,1.926h0A1.927,1.927,0,0,1,516.9,366.891Z" transform="translate(-445.808 -334.648)"/><path class="n" d="M510.124,372H484.933a1.928,1.928,0,0,1-1.928-1.928h0a1.928,1.928,0,0,1,1.928-1.928h25.191a1.928,1.928,0,0,1,1.928,1.928h0A1.928,1.928,0,0,1,510.124,372Z" transform="translate(-451.624 -332.666)"/><path class="d" d="M479.894,362.231h43.794s-3.393-16.085-5.244-16.085c-1.243,0-7.093,8.636-8.789,8.79s-2.93-3.315-4.165-3.392c-.828-.051-4.752,6.013-5.551,6.167s-4.627-9.56-6.167-9.1-4.01,7.094-4.473,7.556-2.621-4.009-4.163-3.084S479.894,362.231,479.894,362.231Z" transform="translate(-452.831 -341.197)"/><path class="m" d="M549.6,352.667v23.655a4.064,4.064,0,0,1-4.063,4.049H524a4.063,4.063,0,0,1-4.062-4.049V352.667A4.054,4.054,0,0,1,524,348.618h21.545A4.055,4.055,0,0,1,549.6,352.667Z" transform="translate(-437.306 -340.238)"/><path class="i" d="M549.6,355.531v18.111a4.064,4.064,0,0,1-4.063,4.049H524a4.063,4.063,0,0,1-4.062-4.049v-3.88s3.171-11.361,5.962-9.278,4.757,7.379,6.632,7.352,3.354-4.47,5.321-4.129,3.551,5.021,5.465,3.657S546.6,356.028,549.6,355.531Z" transform="translate(-437.306 -337.558)"/></g><rect class="b" width="190.397" height="14.346" rx="1.33" transform="translate(502.7 478.207)"/><g transform="translate(351.276 361.135)"><path class="p" d="M392.481,409.931c.355.2,9.722,2.137,10.246,4.814.432,2.211-6.706,1.508-10.838,1.152-2.219-.192-2.87-1.911-2.859-4.138.005-.977.527-1,1.024-1.621C391.149,408.768,391.678,409.483,392.481,409.931Z" transform="translate(-336.638 -252.446)"/><path class="q" d="M393.267,405.314l-.6,6.178s5.914,2.435,4.4,3.064c-2.262.94-7.852-1.236-7.852-1.236l-.677-7.083Z" transform="translate(-336.827 -254.007)"/><path class="p" d="M356.179,409.283c.2.358,7.084,6.994,6.1,9.538-.813,2.1-6.475-2.3-9.781-4.807-1.773-1.347-1.407-3.15-.21-5.026.525-.823.98-.566,1.731-.826C355.672,407.589,355.739,408.474,356.179,409.283Z" transform="translate(-351.276 -252.974)"/><path class="q" d="M359.7,405.868l-3.8,4.908s3.7,5.215,2.087,4.939c-2.413-.412-5.98-5.234-5.98-5.234l3.206-6.353Z" transform="translate(-350.994 -254.467)"/><path class="r" d="M424.361,330.451a7.9,7.9,0,0,0-1.986,2.259,4.417,4.417,0,0,1-2.674,2.173,21.23,21.23,0,0,1-3.682-.121l-1.069,2.8s6.292,2.634,8.035,1.861c1.589-.7,2.512-3.7,2.716-5.078a18.593,18.593,0,0,1,2.112-2.517c.527-.4.433-.873-.008-1q.629-.6,1.436-1.254C430.3,328.71,426.285,328.684,424.361,330.451Z" transform="translate(-326.587 -283.597)"/><path class="s" d="M388.826,318.662c1.23-2.954,8.127-.618,12.287,6.256s6.513,10.488,8.139,11.665,16.279,1.359,17.727,1.54.723,5.787.723,5.787-17.183,3.437-21.524,1.628S384.3,329.514,388.826,318.662Z" transform="translate(-337.003 -288.091)"/><path class="t" d="M382.049,348.879s17.727,28.761,18.632,34.005,1.99,42.145.9,46.85h-7.959s-2.17-33.644-5.064-39.07-13.386-16.1-15.919-20.441S382.049,348.879,382.049,348.879Z" transform="translate(-343.128 -275.889)"/><path class="u" d="M391.493,351.4s-13.024,43.411-15.919,48.3-16.279,31.292-16.279,31.292l-6.692-1.628s4.521-23.876,9.406-37.262,4.341-45.763,8.321-48.115S390.408,345.616,391.493,351.4Z" transform="translate(-350.762 -278.052)"/><path class="q" d="M404.1,300.34a23.5,23.5,0,0,1,.91,5.867c0,1.463,1.934,2.744.613,3.679-.863.608.828,6.643-1.071,7.276s-6.06.815-8.231-.9-8.772-8.682-5.7-12.662S404.1,300.34,404.1,300.34Z" transform="translate(-336.33 -294.729)"/><path class="d" d="M391.471,314.469s-7.777,12.843-10.129,17.727-19.355,26.046-19.355,26.046,21.527,8.683,30.57,9.227c0,0,1.266-12.843,3.618-17.728s11.214-13.747,10.491-17.906.541-11.4-2.172-14.471S391.471,314.469,391.471,314.469Z" transform="translate(-347.123 -289.232)"/><path class="q" d="M401.21,311.316s-6.164,5.465-5.969,7.416c.685,6.836-9.389-2.281-9.389-2.281S398.158,309.226,401.21,311.316Z" transform="translate(-337.87 -290.6)"/><path class="p" d="M380.555,317.027c6.948-2.208,9.352-4.462,9.691-10.791.373-6.961,9.949-12.12,17.637-9.045s7.6,5.065,6.873,6.241-5.336,2.172-8.231,2.261-.831,3.517-.831,3.517-2.448-1.61-3.1.376,2.845,2.168,2.845,2.168-.652,5.7-2.27,6.6-5.055-.271-7.226,3.437-1.443,11.016-5.8,11.833c-6.141,1.152-4.963,7.494-10.469,8.06-8.787.9-12.28-7.691-10.219-14.729C370.97,321.787,375.034,318.78,380.555,317.027Z" transform="translate(-344.45 -296.282)"/><path class="q" d="M422.832,332.281a7.858,7.858,0,0,0-1.374,2.674,4.416,4.416,0,0,1-2.062,2.763,21.39,21.39,0,0,1-3.6.781l-.352,2.977s6.746,1.016,8.247-.16c1.37-1.071,1.532-4.2,1.393-5.586a18.513,18.513,0,0,1,1.432-2.96c.414-.512.205-.951-.253-.971q.46-.737,1.085-1.568C428.167,329.141,424.264,330.1,422.832,332.281Z" transform="translate(-326.396 -283.295)"/><path class="v" d="M388.271,321c1.231-2.954,8.128-.616,12.287,6.257s6.513,10.488,8.14,11.665,16.279,1.359,17.727,1.538.723,5.788.723,5.788-17.184,3.437-21.525,1.629S383.75,331.852,388.271,321Z" transform="translate(-337.218 -287.185)"/></g><g transform="translate(769.153 240.775)"><path class="w" d="M701.127,308.311c-.111-.055-2.137-.236-3.622-.373-.833-.069-1.5-.125-1.582-.14-.4-.055-1.152-.151-2.04-.332a17.224,17.224,0,0,1-1.8-.5,7.154,7.154,0,0,1,1.54-7.509c.833.778,1.721,1.5,1.721,1.5a9.208,9.208,0,0,1-.167-3.787,1.711,1.711,0,0,1,.971-.834c.583-.236,1.166-.167,1.013.4-.694,2.763.833,3.693.652,6.148,0,.14.4.291.971.444,1.263.361,3.386.708,3.677.819C704.583,304.884,703.084,309.171,701.127,308.311Z" transform="translate(-637.194 -175.952)"/><path class="d" d="M664.247,368.726V365.95a39.942,39.942,0,0,0,39.9-39.9V211.658h2.775V326.053A42.72,42.72,0,0,1,664.247,368.726Z" transform="translate(-647.804 -208.734)"/><g transform="translate(0 152.704)"><g transform="translate(0 3.954)"><path class="a" d="M653.644,328.7a.694.694,0,0,1-.1-1.381l6.511-.9a.694.694,0,1,1,.192,1.374l-6.511.9A.737.737,0,0,1,653.644,328.7Z" transform="translate(-652.184 -320.899)"/><path class="a" d="M653.092,324.73A.694.694,0,0,1,653,323.35l6.51-.9a.694.694,0,1,1,.192,1.374l-6.511.906C653.156,324.728,653.124,324.73,653.092,324.73Z" transform="translate(-652.398 -322.438)"/></g><path class="a" d="M671.355,323.875h0a2.654,2.654,0,0,1-2.263,2.995l-4.216.586-.73-5.258,4.214-.586A2.655,2.655,0,0,1,671.355,323.875Z" transform="translate(-647.843 -318.815)"/><path class="a" d="M672.589,324.932h0a6.193,6.193,0,0,1-5.282,6.987l-9.867,1.371-1.706-12.269,9.867-1.372A6.2,6.2,0,0,1,672.589,324.932Z" transform="translate(-651.104 -319.589)"/></g><path class="a" d="M698.9,213.271a3.721,3.721,0,1,0-3.72,3.722A3.721,3.721,0,0,0,698.9,213.271Z" transform="translate(-637.253 -209.551)"/><path class="q" d="M696.272,301.224c-.5,1.166-1.818-.085-2.039-.307.236.278,1.858,2.193,1.025,2.54-.831.362-2.373-.416-2.539-.5.25.167,2.539,1.719,1.582,2.026a2.126,2.126,0,0,1-1.873-.487,7.8,7.8,0,0,1,1.056,1.554c.123.307.111.513-.2.5-.942-.056-3.469-2.387-3.246-3.276a4.751,4.751,0,0,1,.347-.706,1.209,1.209,0,0,1,.347-1.971c-.307-1.624,1.568-1.833,1.568-1.833-.264-1.207.916-1.457,1.374-1.5.042,0,.069-.014.1,0a4.137,4.137,0,0,1,.332.307l.028.026a8.034,8.034,0,0,0,.848.888.223.223,0,0,1,.04.057C695.8,299.42,696.579,300.544,696.272,301.224Z" transform="translate(-637.807 -175.543)"/></g><g transform="translate(708.532 193.734)"><rect class="d" width="2.775" height="79.254" transform="translate(4.816 3.72)"/><g transform="translate(0 78.421)"><g transform="translate(2.861 15.394)"><path class="a" d="M615.491,251.217a.694.694,0,0,1-.694-.692l-.013-6.574a.694.694,0,0,1,.693-.7h0a.7.7,0,0,1,.694.693l.013,6.574a.7.7,0,0,1-.694.7Z" transform="translate(-609.223 -243.256)"/><path class="a" d="M611.483,251.225a.7.7,0,0,1-.694-.692l-.013-6.574a.694.694,0,0,1,.693-.7h0a.7.7,0,0,1,.7.692l.013,6.574a.693.693,0,0,1-.693.7Z" transform="translate(-610.777 -243.253)"/></g><path class="a" d="M613.907,232.163h0a2.655,2.655,0,0,1,2.66,2.649l.007,4.255-5.308.011-.008-4.255A2.654,2.654,0,0,1,613.907,232.163Z" transform="translate(-607.729 -232.163)"/><path class="a" d="M614.9,233.637h0a6.194,6.194,0,0,1,6.206,6.182l.018,9.961-12.387.025-.019-9.963A6.2,6.2,0,0,1,614.9,233.637Z" transform="translate(-608.715 -231.591)"/></g><path class="a" d="M617.932,179.374a3.72,3.72,0,1,0-3.72,3.721A3.721,3.721,0,0,0,617.932,179.374Z" transform="translate(-608.026 -175.653)"/></g><g transform="translate(827.74 313.578)"><path class="p" d="M731.847,402.34a122.162,122.162,0,0,1-21.155.459c.215-1.607.692-3.6,1.807-4.03,1.925-.749,5.794.06,9.062-.91s4.206-2.485,4.206-2.485l4.345-.579A71.139,71.139,0,0,1,731.847,402.34Z" transform="translate(-688.383 -210.528)"/><path class="x" d="M731.875,400.232c.126.976.128,1.706-.1,1.876-.733.576-15.769.706-20.068.733a1.083,1.083,0,0,1-1.089-1.159c.022-.3.053-.634.1-.991A122.162,122.162,0,0,0,731.875,400.232Z" transform="translate(-688.411 -208.42)"/><path class="q" d="M720.68,390.538l.638,6.968a2.472,2.472,0,0,0,2.359,2.244h0a2.472,2.472,0,0,0,2.576-2.429l.115-6.792Z" transform="translate(-684.51 -212.182)"/><path class="p" d="M715.2,389.2a122.126,122.126,0,0,1-20.518,5.175c-.148-1.615-.129-3.665.86-4.331,1.71-1.161,5.659-1.238,8.628-2.914s3.546-3.361,3.546-3.361l4.106-1.533A71.165,71.165,0,0,1,715.2,389.2Z" transform="translate(-694.616 -215.398)"/><path class="x" d="M715.183,387.253c.341.923.505,1.633.326,1.85-.587.724-15.214,4.213-19.4,5.2a1.087,1.087,0,0,1-1.323-.887c-.044-.3-.09-.63-.125-.988A122.127,122.127,0,0,0,715.183,387.253Z" transform="translate(-694.597 -213.452)"/><path class="q" d="M702.159,379.334l2.182,6.649a2.469,2.469,0,0,0,2.8,1.66h0a2.472,2.472,0,0,0,1.968-2.942l-1.406-6.646Z" transform="translate(-691.692 -217.019)"/><path class="c" d="M780.615,330.43s4.359,9.37-5.666,18.959-30.4,26.053-31.742,29.975-6.071,40.14-6.071,40.14-8.313.436-10.985,0,.568-38.857,1.382-44.074,22.634-32.377,22.634-32.377A329.339,329.339,0,0,0,717.6,368.737a7.177,7.177,0,0,0-1.951,3.075c-2.989,9.155-3.659,21.765-4.532,30.049-3.211,2.365-10.028,1.139-10.028,1.139s-2.4-34.464,3.9-43.526c13.183-18.966,42.615-35.155,42.615-35.155Z" transform="translate(-692.281 -237.854)"/><path class="v" d="M747.9,288.3c4.717-3.82,14.76-.3,10.7,8.931S730.88,314.4,726.5,315.893s-27.614-2.767-31.152-4.051l1.617-5.859,26.855,1.905S742.792,292.437,747.9,288.3Z" transform="translate(-694.334 -252.409)"/><path class="d" d="M745.6,282.068s11.636,2.664,17.984,22.781,7.38,42.338,7.38,42.338-21.894,4.151-39.446-4.033c0,0-.948-35.983,1.278-51.261C733.767,285.195,745.6,282.068,745.6,282.068Z" transform="translate(-680.388 -254.236)"/><path class="q" d="M729.057,268.065s-2.254,4.427-1.905,7.891c.28,2.81-2.508,4.042-1.454,4.482A5.631,5.631,0,0,1,728.974,284c.169.877.42,5.419,5.608,3.285,3.64-1.5,6.267,1.808,4.739,5.465,0,0,6.039,3.492,9.753-3.51,0,0-1.935-10.8-.869-18.815C742.437,265.6,736.382,261.459,729.057,268.065Z" transform="translate(-682.657 -260.995)"/><path class="p" d="M723.419,271.575s.716,1.719,11.254,2.342c4.535.269,4.865,3.779,4.339,5.036l1.143.477s1.769-2.309,2.856-.733-.783,3.479-3.059,2.662a16.576,16.576,0,0,0,1.456,3.306c.554.983,1.207,1.9,2.33,2.007a8.487,8.487,0,0,0,3.278-.339c2.774-.856,2.556-2.762,3.72-7.667,1.76-7.417.042-11.7-7.138-14.432,0,0,.523-.719,2.86-.1,0,0-2.644-2.064-4.768-.477a4.242,4.242,0,0,0-3.8-1.6s1.493.908,1.8,1.664a9.9,9.9,0,0,0-10.322,1.357C726.931,266.9,727.45,272.634,723.419,271.575Z" transform="translate(-683.448 -262.012)"/><path class="q" d="M715.771,320.033l.076-4.87s-4.72.537-6.327.483a7.082,7.082,0,0,1-2.739-2.089c-1.539-2.284-2.7-4.037-5.022-4.549a5.538,5.538,0,0,0-4.9,1.649c-.627.515-1.7,1.914-1.489,2.191s1.006.211,1.213.154c.706-.2,1.042-.909,1.725-1.2a9.257,9.257,0,0,1,2.029-.271,12.735,12.735,0,0,0-2.094,1.213,5.713,5.713,0,0,0-1.665,2.093,2.162,2.162,0,0,0-.171,1.764c.093.205.634-.144.849-.659a5.781,5.781,0,0,1,1.059-1.6,3.146,3.146,0,0,0-.44,1.5c0,.712.563,2.216.777,1.039a3.6,3.6,0,0,1,.856-1.958,5.807,5.807,0,0,1,1.4-.7c-.558.525-1.986,2.48-.985,3.028.208.114.414-.421.7-.794.309-.4,1.554-1.447,3.136.655,2.576,3.428,4.858,2.574,4.858,2.574Z" transform="translate(-694.334 -243.834)"/><path class="v" d="M751.05,292.5c3.629-4.865,14.23-3.924,12.569,6.021s-17.824,23.968-21.7,26.5-32.254,3.618-36,3.245l.122-6.078,30.533-4.326S747.12,297.77,751.05,292.5Z" transform="translate(-690.234 -251.297)"/></g><g transform="translate(634.598 395.136)"><path class="w" d="M654.659,344.388s.826-1.195.051-1.529-6.121,3.548-7.327,4.657-4.672,6.41-4.672,6.41l-1.589,1.717.017.019c-1.991,2.112-5.1,5.094-7.691,6.184-1.588.667-17.7-5.165-17.7-5.165l-2.885,7.644s17.693,4.835,22.27,4.309c2.277-.261,9.019-9.1,10.92-11.644,3.411-.279,4.5-2.326,4.972-2.58a22.2,22.2,0,0,0,2.989-3.519c.24-.476.69-1.732.459-1.771a2.049,2.049,0,0,0-1.453,1.127c-.276.575-2.3,1.4-2.2,1.028.723-2.59,4.056-4.686,4.288-5.246S654.659,344.388,654.659,344.388Z" transform="translate(-533.172 -312.232)"/><path class="c" d="M617.277,388.934s10.147,24.03,13.89,33.335,10.64,53.968,10.64,53.968l-10.987,3.195-11.846-49.772s-40.019-22.555-34.978-41S617.277,388.934,617.277,388.934Z" transform="translate(-544.534 -297.618)"/><path class="y" d="M624.884,389.13s-9.353,35.69-12.127,43.448-41.946,38-41.946,38l-6.871-6.793s27.578-33.763,30.193-36.569-7.319-27.608-1.826-41.739S624.884,389.13,624.884,389.13Z" transform="translate(-552.141 -297.814)"/><path class="d" d="M583.41,371.561a52.352,52.352,0,0,1,6.078-19.677,17.717,17.717,0,0,1,2.033-3.081c2.818-3.736,6.153-6.332,9.853-6.638,4.378-.361,7.4.945,9.571,3.17h0c11.628,7.351,19.177,9.807,19.177,9.807L625.146,367c-3.225-1.689-6.017-3.346-8.389-4.874.226,4.047.207,9.1.165,12.158-.028,2-.007,3.993.065,6,.236,6.606.733,21.142.64,23.553,0,0-14.238-6.142-34.026.926A167.555,167.555,0,0,1,583.41,371.561Z" transform="translate(-544.884 -312.516)"/><g transform="translate(0 169.422)"><path class="p" d="M556.218,451.188a122.2,122.2,0,0,0,16.422,13.343,4.6,4.6,0,0,0-.071-4.33c-1.06-1.774-3.494-3.468-5.479-6.239s-1.8-4.545-1.8-4.545l-3.075-3.122A70.962,70.962,0,0,0,556.218,451.188Z" transform="translate(-555.135 -441.541)"/><path class="x" d="M556.521,449.821c-.7.692-1.148,1.267-1.076,1.539.226.9,12.018,10.235,15.4,12.893a1.082,1.082,0,0,0,1.571-.246c.167-.248.348-.534.531-.844A122.2,122.2,0,0,1,556.521,449.821Z" transform="translate(-555.438 -440.173)"/><path class="q" d="M560.828,451.806a2.456,2.456,0,0,1-.748-.862,2.488,2.488,0,0,1,.2-2.641l1.164-1.547,2.917-3.887,4.487,3.5-3.839,4.1-.944,1.01A2.48,2.48,0,0,1,560.828,451.806Z" transform="translate(-553.749 -442.869)"/></g><path class="q" d="M597.2,345.324a5.145,5.145,0,0,0,1.606,3.962,3.554,3.554,0,0,0,2,1,2.447,2.447,0,0,0,2.129-.939,4.428,4.428,0,0,0,1.042-3.228l-.064-.978-.111-1.7-.006-.006-.111-1.707-5.7-4.907Z" transform="translate(-539.248 -314.565)"/><path class="z" d="M572.529,447.266c-1.542-1.611-5.483-5.577-7.2-7.3a1.094,1.094,0,0,0-1.592.043l-2.322,2.6a1.1,1.1,0,0,0,.01,1.471l7.139,7.778a1.1,1.1,0,0,0,1.678-.076l2.363-3.089A1.094,1.094,0,0,0,572.529,447.266Z" transform="translate(-553.227 -274.698)"/><g transform="translate(90.263 181.695)"><path class="p" d="M623.9,465.606a122.094,122.094,0,0,0,19.43-8.383,4.6,4.6,0,0,0-3.87-1.94c-2.064.119-4.692,1.492-8.068,1.969s-4.858-.511-4.858-.511l-4.192,1.281A71.194,71.194,0,0,0,623.9,465.606Z" transform="translate(-619.76 -450.331)"/><path class="x" d="M623.464,465.062c.291.94.594,1.6.867,1.665.906.219,14.635-5.916,18.555-7.681a1.082,1.082,0,0,0,.508-1.507c-.143-.261-.312-.555-.5-.86A122.094,122.094,0,0,1,623.464,465.062Z" transform="translate(-619.324 -449.788)"/><path class="q" d="M626.767,461.344a2.461,2.461,0,0,1-1.11.264,2.49,2.49,0,0,1-2.248-1.4l-.833-1.75-2.1-4.385,5.176-2.359,1.86,5.3.458,1.3A2.48,2.48,0,0,1,626.767,461.344Z" transform="translate(-620.481 -451.713)"/></g><path class="z" d="M630.95,449.359l1,3.086a1.078,1.078,0,0,1-.647,1.342l-12.71,4.76a1.078,1.078,0,0,1-1.446-.869l-.531-4.041a1.077,1.077,0,0,1,.748-1.17l12.239-3.8A1.076,1.076,0,0,1,630.95,449.359Z" transform="translate(-531.719 -271.219)"/><path class="q" d="M607.508,325.075a10.509,10.509,0,0,1,3.5,4.967c.848,2.7,4.077,3.954,3.193,5.2-1.515,2.14-.458,1.5-1.517,4.277s-3.947,12.986-15.258,4.353S596.682,320.576,607.508,325.075Z" transform="translate(-541.04 -319.445)"/><path class="p" d="M596.541,335.06c-.1.866,2.789,4.112,2.465,4.829s-2.967-1.468-3.573-.221.2,1.855,3.633,5.543c0,0-7.823-4.266-9.9-8.6s-.377-11.939,6.65-15.291l.616,1.207s10.15-5.314,16.908,2.626a3.082,3.082,0,0,0-3.183,1.625c-.891,1.705-7.5,4.671-10.705,5.308a3.555,3.555,0,0,0-2.907,2.924Z" transform="translate(-542.679 -320.784)"/><path class="q" d="M640.635,347.735c-.255-.19-3.98,1.112-3.98,1.112s1.207-1.035,1.65-1.3,2.151-1.377,2.045-1.7-2.1.23-2.1.23.5-.815-.9-.659-4.208,2.624-4.928,3.87-2.945,8.522-2.945,8.522c-1.411,1.626-5.849,7.1-9.314,8.555-1.588.669-17.648-5.8-17.648-5.8l-2.885,7.642s17.4,7.007,21.971,6.481c2.279-.261,10.89-14.319,10.892-14.382l-.035-.021a4.1,4.1,0,0,1,.479-.25,10.218,10.218,0,0,0,3.858-4.217c.373-1.107.015-4.381.089-5.018s2.419-1.672,2.966-2.012S640.892,347.923,640.635,347.735Z" transform="translate(-538.299 -311.24)"/><path class="v" d="M608.106,360.171s-1.606-9.122-3.139-13.025a47.925,47.925,0,0,1,4.579,13.934Z" transform="translate(-536.233 -310.562)"/><path class="v" d="M593.054,351.868c2.243-4.106,5.036-4.188,8.607-3.171,4.226,1.2,7.842,6.335,7.842,6.335a53.463,53.463,0,0,0,6.578,6.245L608.3,371.623C596.414,365.884,588.516,360.183,593.054,351.868Z" transform="translate(-541.356 -310.171)"/><path class="q" d="M626.725,354.52a12.92,12.92,0,0,1,.817-3.217c.52-.953,1.432-1.755,1.5-2.384.046-.432-1.062,0-1.821.78a16.993,16.993,0,0,0-1.583,1.873Z" transform="translate(-528.22 -309.941)"/></g><g transform="translate(960.792 213.591)"><rect class="d" width="2.775" height="191.948" transform="translate(3.159 3.721)"/><path class="a" d="M798.529,193.683a3.721,3.721,0,1,0-3.721,3.721A3.72,3.72,0,0,0,798.529,193.683Z" transform="translate(-790.262 -189.962)"/><path class="aa" d="M796.347,332.1h-4.03v-2.07a2.016,2.016,0,0,1,2.015-2.015h0a2.016,2.016,0,0,1,2.015,2.015Z" transform="translate(-789.786 -136.434)"/><path class="a" d="M799.585,338.626h-9.092v-4.67a4.546,4.546,0,0,1,4.546-4.545h0a4.545,4.545,0,0,1,4.546,4.545Z" transform="translate(-790.493 -135.893)"/></g><g transform="translate(572.161 506.405)"><g transform="translate(19.296)"><path class="d" d="M538.968,458.535l-.284.121q-1.9-1.012-3.737-2.044c-.336-.186-.669-.373-1-.566-.169-.093-.333-.185-.5-.28q-4.053-2.34-7.757-4.8c-.32-.215-.641-.427-.96-.645-.129-.09-.26-.175-.386-.265.282-5.735.676-13.061,2.953-20.425l8.632,9.409-6.846-14.231a39.172,39.172,0,0,1,8.99-12.889l6.8,7.92-3.021-11.085a52.737,52.737,0,0,1,15.822-7.791s5.361,9.212,3.4,23.962l-8.757,1.882,8.3.974a60.156,60.156,0,0,1-5.064,15A32.569,32.569,0,0,1,538.968,458.535Z" transform="translate(-524.351 -400.964)"/><path class="b" d="M550.668,411.281c-.11.282-7.821,20.559-18.4,41.633-.336-.186-.669-.373-1-.566,10.534-20.994,18.214-41.191,18.321-41.475a.576.576,0,0,1,1.078.408Z" transform="translate(-521.669 -397.267)"/></g><g transform="translate(0 15.186)"><path class="d" d="M536.835,454.644h0c-1.081.33-2.155.647-3.221.942q-.437.127-.87.24c-.146.043-.289.082-.433.119q-3.564.953-7,1.649c-.3.06-.6.119-.894.176-.122.022-.243.047-.364.067a64.218,64.218,0,0,1-9.736-13.028l10.054.433-11.746-4.116a30.872,30.872,0,0,1-2.17-12.194l8.2.627-7.86-4.5a41.543,41.543,0,0,1,4.475-13.156s8.121,2.147,15.248,11.458l-3.833,5.927,5.168-4.08a47.319,47.319,0,0,1,5.505,11.095A26.068,26.068,0,0,1,536.835,454.644Z" transform="translate(-510.446 -411.907)"/><path class="b" d="M518.057,419.345c.1.219,7.1,15.817,12.943,33.46q-.437.127-.87.24c-5.827-17.571-12.8-33.107-12.9-33.325a.455.455,0,0,1,.829-.375Z" transform="translate(-507.832 -409.126)"/></g><g transform="translate(0.293 53.412)"><path class="a" d="M552.726,467.339H518.013l-3.64-25.863h41.993Z" transform="translate(-509.216 -438.669)"/><path class="ab" d="M560.155,445.071H513.466a2.81,2.81,0,0,1-2.809-2.81h0a2.808,2.808,0,0,1,2.809-2.807h46.689a2.809,2.809,0,0,1,2.809,2.807h0A2.811,2.811,0,0,1,560.155,445.071Z" transform="translate(-510.657 -439.453)"/></g></g><path class="ac" d="M257.076,44.636s24.319,73.732,91.8,85.288,99.735,44.3,107.768,110.008c6.576,53.793,118.141,25.649,146.212,68.424,46.79,71.3-86.1,130.262-115.023,215.644S474.171,737.4,588.4,728.016c133.359-10.951,143.4,69.557,228.156,59.446,126.634-15.106,148.8-63.909,213.87-15.864s142.371,37.766,194.094,22.122V44.636Z" transform="translate(-129.124 -60.617)"/></g></svg>