<svg xmlns="http://www.w3.org/2000/svg" width="75" height="17" viewBox="0 0 75 17">
  <g id="Group_2" data-name="Group 2" opacity="0.3">
    <path id="ever_copy_4" data-name="ever copy 4" d="M45.146,17a7.493,7.493,0,0,1-5.575-2.056,7.229,7.229,0,0,1-1.843-5.134,9.91,9.91,0,0,1,2.721-6.965A9.572,9.572,0,0,1,47.4,0a6.617,6.617,0,0,1,4.647,1.573,5.307,5.307,0,0,1,1.58,3.98,10.86,10.86,0,0,1-.977,4.226H43.161a2.447,2.447,0,0,0,.667,1.811,3.293,3.293,0,0,0,2.416.842,9.069,9.069,0,0,0,4.3-1.419l1.526,4.073A12.912,12.912,0,0,1,45.146,17ZM47.129,4.227A3.42,3.42,0,0,0,43.8,6.572h5.158a2.634,2.634,0,0,0,.153-.8C49.114,4.818,48.353,4.227,47.129,4.227ZM7.418,17a7.493,7.493,0,0,1-5.575-2.056A7.229,7.229,0,0,1,0,9.811,9.911,9.911,0,0,1,2.72,2.846,9.57,9.57,0,0,1,9.676,0a6.617,6.617,0,0,1,4.647,1.573,5.308,5.308,0,0,1,1.58,3.98,10.861,10.861,0,0,1-.977,4.226H5.433A2.447,2.447,0,0,0,6.1,11.592a3.293,3.293,0,0,0,2.416.842,9.077,9.077,0,0,0,4.3-1.419l1.526,4.073A12.912,12.912,0,0,1,7.418,17ZM9.4,4.227A3.422,3.422,0,0,0,6.074,6.572h5.159a2.634,2.634,0,0,0,.153-.8C11.386,4.818,10.625,4.227,9.4,4.227ZM25.946,16.877c-2.515,0-4.337-.649-5.415-1.93-1.029-1.222-1.354-2.981-.965-5.228l.55-3.24c.119-.605.1-.966-.07-1.17a.581.581,0,0,0-.48-.187,3.756,3.756,0,0,0-1.5.339l.642-4.69A10.44,10.44,0,0,1,22.5.154a3.775,3.775,0,0,1,3.038,1.1c.676.807.866,2.078.564,3.778l-.671,3.764a2.859,2.859,0,0,0,.284,2.279,1.285,1.285,0,0,0,1.029.406c1.937,0,2.839-1.686,2.839-5.307A23.932,23.932,0,0,0,28.785.432h6.074a33.61,33.61,0,0,1,.458,5.183C35.317,12.877,31.989,16.877,25.946,16.877Zm36.293-.309H56.532l1.74-10.089A1.618,1.618,0,0,0,58.185,5.3a.572.572,0,0,0-.463-.174,4.922,4.922,0,0,0-1.526.339l.671-4.69A11.542,11.542,0,0,1,60.682.154c1.97,0,3.2.8,3.571,2.314A4.621,4.621,0,0,1,68.314.154,5.607,5.607,0,0,1,71,.8L69.382,6.233a6.716,6.716,0,0,0-2.9-.648A2.963,2.963,0,0,0,63.7,8.145L62.24,16.567Z" fill="#fff"/>
    <g id="Group_4_Copy_2" data-name="Group 4 Copy 2" transform="translate(68 10)">
      <path id="Combined_Shape" data-name="Combined Shape" d="M0,3.5A3.5,3.5,0,1,1,3.5,7,3.5,3.5,0,0,1,0,3.5Zm.467,0A3.033,3.033,0,1,0,3.5.467,3.037,3.037,0,0,0,.467,3.5ZM1.9,5.25l.649-3.732,1.122,0a1.261,1.261,0,0,1,.895.3.935.935,0,0,1,.259.8,1.067,1.067,0,0,1-.255.617,1.4,1.4,0,0,1-.6.4l.579,1.577,0,.032H4.029L3.506,3.74H2.645L2.383,5.25H1.9Zm.815-1.912.707,0a.988.988,0,0,0,.623-.2.764.764,0,0,0,.3-.524.606.606,0,0,0-.128-.5.684.684,0,0,0-.508-.193l-.746,0Z" fill="#fff"/>
    </g>
  </g>
</svg>
