<svg xmlns="http://www.w3.org/2000/svg" width="74" height="30" viewBox="0 0 74 30">
  <g id="Group_35" data-name="Group 35" transform="translate(0)">
    <g id="Group_16_Copy_5" data-name="Group 16 Copy 5" transform="translate(11 20)">
      <text id="TECHNOLOGIES" fill="#adb5c5" font-size="7" font-family="SegoeUI, Segoe UI" letter-spacing="0.175em"><tspan x="0" y="8">TECHNOLOGIE</tspan></text>
    </g>
    <g id="Rectangle_Copy_47" data-name="Rectangle Copy 47" transform="translate(3 22)" fill="none" stroke="#66ded1" stroke-miterlimit="10" stroke-width="1">
      <rect width="5" height="5" stroke="none"/>
      <rect x="0.5" y="0.5" width="4" height="4" fill="none"/>
    </g>
    <path id="ever_copy_4" data-name="ever copy 4" d="M44.509,17a7.328,7.328,0,0,1-5.5-2.056A7.29,7.29,0,0,1,37.2,9.811a9.988,9.988,0,0,1,2.682-6.965A9.369,9.369,0,0,1,46.737,0a6.466,6.466,0,0,1,4.582,1.573,5.348,5.348,0,0,1,1.557,3.98,10.986,10.986,0,0,1-.963,4.226H42.554a2.463,2.463,0,0,0,.668,1.823,3.23,3.23,0,0,0,2.371.83,8.859,8.859,0,0,0,4.243-1.419l1.5,4.073A12.6,12.6,0,0,1,44.509,17ZM46.466,4.227a3.378,3.378,0,0,0-3.28,2.345h5.086a2.649,2.649,0,0,0,.15-.8C48.422,4.818,47.672,4.227,46.466,4.227ZM7.313,17a7.329,7.329,0,0,1-5.5-2.056A7.29,7.29,0,0,1,0,9.811,9.988,9.988,0,0,1,2.682,2.846,9.369,9.369,0,0,1,9.54,0a6.466,6.466,0,0,1,4.582,1.573,5.348,5.348,0,0,1,1.557,3.98,10.985,10.985,0,0,1-.963,4.226H5.357a2.465,2.465,0,0,0,.67,1.824,3.229,3.229,0,0,0,2.37.83,8.859,8.859,0,0,0,4.243-1.419l1.5,4.073A12.594,12.594,0,0,1,7.313,17ZM9.269,4.227A3.378,3.378,0,0,0,5.989,6.572h5.086a2.655,2.655,0,0,0,.151-.8C11.226,4.818,10.476,4.227,9.269,4.227ZM25.581,16.877c-2.462,0-4.251-.64-5.316-1.9-1.032-1.223-1.36-2.991-.974-5.255l.542-3.24c.119-.608.1-.97-.071-1.173a.571.571,0,0,0-.471-.184,3.656,3.656,0,0,0-1.474.339l.632-4.69A10.161,10.161,0,0,1,22.18.154a3.708,3.708,0,0,1,2.981,1.082c.678.807.87,2.083.57,3.794l-.662,3.764a2.876,2.876,0,0,0,.286,2.286,1.261,1.261,0,0,0,1.008.4c1.91,0,2.8-1.686,2.8-5.307A24.218,24.218,0,0,0,28.379.432h5.99a34.2,34.2,0,0,1,.451,5.183C34.819,12.877,31.538,16.877,25.581,16.877Zm35.782-.309H55.735L57.451,6.479a1.629,1.629,0,0,0-.088-1.186.561.561,0,0,0-.454-.172,4.746,4.746,0,0,0-1.5.339l.662-4.69A11.287,11.287,0,0,1,59.828.154,4.326,4.326,0,0,1,62.119.7a2.741,2.741,0,0,1,1.23,1.77,4.541,4.541,0,0,1,4-2.314A5.467,5.467,0,0,1,70,.8L68.405,6.233a6.574,6.574,0,0,0-2.859-.648,2.941,2.941,0,0,0-2.739,2.561l-1.444,8.422Z" fill="#fff"/>
    <g id="Group_4_Copy_2" data-name="Group 4 Copy 2" transform="translate(67 10)">
      <path id="Combined_Shape" data-name="Combined Shape" d="M0,3.5A3.5,3.5,0,1,1,3.5,7,3.5,3.5,0,0,1,0,3.5Zm.467,0A3.033,3.033,0,1,0,3.5.467,3.037,3.037,0,0,0,.467,3.5ZM1.9,5.25l.649-3.732,1.122,0a1.261,1.261,0,0,1,.895.3.935.935,0,0,1,.259.8,1.067,1.067,0,0,1-.255.617,1.4,1.4,0,0,1-.6.4l.579,1.577,0,.032H4.029L3.506,3.74H2.645L2.383,5.25H1.9Zm.815-1.912.707,0a.988.988,0,0,0,.623-.2.764.764,0,0,0,.3-.524.606.606,0,0,0-.128-.5.684.684,0,0,0-.508-.193l-.746,0Z" fill="#fff"/>
    </g>
  </g>
</svg>
