<svg xmlns="http://www.w3.org/2000/svg" xmlns:xlink="http://www.w3.org/1999/xlink" width="929.947" height="518.12" viewBox="0 0 929.947 518.12"><defs><style>.a,.s{fill:#bcd0e5;}.a,.r{opacity:0.2;}.b{fill:#e4f2f1;}.aa,.ab,.ac,.ah,.b,.g,.h,.i,.j,.k,.l,.u,.v,.x,.y,.z{mix-blend-mode:multiply;}.aa,.ab,.ac,.ad,.ah,.ai,.b,.g,.h,.i,.j,.k,.l,.t,.u,.v,.x,.y,.z{isolation:isolate;}.c{fill:#a9e2e4;}.d{fill:#2e465a;}.e{opacity:0.37;}.f{fill:#2c8182;}.aa,.ab,.ac,.g,.h,.i,.j,.k,.l,.v,.x,.y,.z{opacity:0.44;}.g{fill:url(#a);}.h{fill:url(#b);}.i{fill:url(#c);}.j{fill:url(#d);}.k{fill:url(#e);}.l{fill:url(#f);}.m{fill:#8b9caa;}.n{fill:#3d5a72;}.ag,.o{fill:#fff;}.p{opacity:0.32;}.q{fill:#29445a;}.ai,.t{fill:#383b3b;mix-blend-mode:screen;}.u{opacity:0.43;}.v{fill:url(#h);}.w{fill:#ff5e3e;}.x{fill:url(#m);}.y{fill:url(#n);}.z{fill:url(#o);}.aa{fill:url(#p);}.ab{fill:url(#q);}.ac{fill:url(#r);}.ae{fill:#dfe9f1;}.af{fill:#fccc3a;}.ag{opacity:0.42;}.ah{opacity:0.16;fill:url(#s);}.ai{opacity:0.57;}.aj{fill:#2a475e;}.ak{fill:#1f2b2b;}.al{fill:#f4c3cd;}.am{fill:#0cc;}.an{fill:#3f3f3f;}.ao{fill:#daebeb;}</style><linearGradient id="a" x1="0.616" y1="-1.483" x2="0.325" y2="3.128" gradientUnits="objectBoundingBox"><stop offset="0" stop-color="#fff"/><stop offset="0.449" stop-color="#9c9a9b"/><stop offset="1"/></linearGradient><linearGradient id="b" x1="0.56" y1="-1.524" x2="0.409" y2="3.182" xlink:href="#a"/><linearGradient id="c" x1="0.577" y1="-1.52" x2="0.383" y2="3.189" xlink:href="#a"/><linearGradient id="d" x1="0.559" y1="-1.525" x2="0.411" y2="3.184" xlink:href="#a"/><linearGradient id="e" x1="0.559" y1="-1.525" x2="0.411" y2="3.184" xlink:href="#a"/><linearGradient id="f" x1="0.583" y1="-1.506" x2="0.39" y2="3.159" xlink:href="#a"/><linearGradient id="h" x1="0.56" y1="-1.524" x2="0.409" y2="3.182" xlink:href="#a"/><linearGradient id="m" x1="0.517" y1="-1.682" x2="0.468" y2="3.364" xlink:href="#a"/><linearGradient id="n" x1="0.53" y1="-1.544" x2="0.439" y2="3.181" xlink:href="#a"/><linearGradient id="o" x1="0.517" y1="-1.677" x2="0.467" y2="3.358" xlink:href="#a"/><linearGradient id="p" x1="0.517" y1="-1.682" x2="0.468" y2="3.364" xlink:href="#a"/><linearGradient id="q" x1="0.517" y1="-1.682" x2="0.468" y2="3.364" xlink:href="#a"/><linearGradient id="r" x1="0.517" y1="-1.681" x2="0.468" y2="3.363" xlink:href="#a"/><linearGradient id="s" x1="0" y1="0.5" x2="1" y2="0.5" xlink:href="#a"/></defs><g transform="translate(-99.864 -108.413)"><path class="a" d="M289.513,585.353c-159.137-14.9-202.4-28.625-186.6-66.507,10.816-25.932,164.229-19.958,99.84-115.12-58.325-86.2-5.329-178.194,74.681-148.78,59.139,21.74,139.2,2.9,171.381-26.608,102.258-93.76,200.034-106.9,252.9,30.832,33,85.977,76.647,137.5,147.517,62.41,64.205-68.03,122.979.47,78.073,76.679-49.792,84.5,82.139,45.934,99.809,98.048,9.484,27.97,2.907,96.573-170.753,88.893-69.723-3.083-116.456,44.738-237.479,41.14C527.138,623.612,418.608,597.442,289.513,585.353Z"/><ellipse class="b" cx="166.356" cy="17.767" rx="166.356" ry="17.767" transform="translate(616.247 498.384)"/><path class="c" d="M875.473,339.606s22.825-44.362,17.634-65.069-11,9.543-21.884-22.468S856.094,198,844.914,201.077s-10.879,20.376-5.577,38.994-5.73,7.917-10.535,13.584c-9.393,11.079,10.535,32.342,18.6,45.061,9.18,14.477-19.809,10.754,20.212,45.34Z"/><path class="c" d="M903.182,365.835c10.5-4.988,30.389-13.884,44.624-15.223s17.136-16.376,1-18.806,18.391-20.233,29.766-36.788-13.413-4.252-7.291-20.69,26.831-21.1,18.495-32.021-47.4,23.15-56.689,39.944-3.928-14.878-15.08-12.328-7.225,46.625-12.608,54.267-4.595-7.125-14.377-.765-2.19,41.068-2.19,41.068Z"/><path class="c" d="M867.064,389.1c.536-16.037-6.734-63.921-16.759-59.565s-10.8,12.348-39.638-17.474-33.1-11.9-28.118-3.94c12.891,20.592-11.717,9.854,1.616,28.724,12.968,18.353,30.737,13.858,28.787,24.19-1.764,9.347,4.66,17.548,23.53,24.416s25.237,16.211,25.237,16.211Z"/><path class="d" d="M866.853,387.067v0l.822-15.41h.015c2.451-76.3-18.935-155.705-18.935-155.705,20.043,51.008,27.374,101.514,28.87,132.5s14.2,15.162,21.145,2.958c32.5-57.1,52.462-65.051,52.462-65.051-33.132,31.067-45.73,70.56-53.948,106.62-7.189,31.543-7.172,125.633-7.172,125.633l-29.362,0,3.96-91.354h0c3.016-56.557-61.3-103.7-61.3-103.7C843.628,336.691,866.853,387.067,866.853,387.067Z"/><g class="e"><path class="f" d="M808.83,334.888a1.468,1.468,0,1,1-1.388-1.542A1.467,1.467,0,0,1,808.83,334.888Z"/></g><g class="e"><path class="f" d="M805.847,339.624a1.468,1.468,0,1,1-1.388-1.542A1.467,1.467,0,0,1,805.847,339.624Z"/></g><g class="e"><path class="f" d="M811.5,339.925a1.469,1.469,0,1,1-1.388-1.543A1.468,1.468,0,0,1,811.5,339.925Z"/></g><g class="e"><path class="f" d="M885.8,291.554a1.468,1.468,0,1,1-1.388-1.542A1.467,1.467,0,0,1,885.8,291.554Z"/></g><g class="e"><path class="f" d="M922.024,350.111a1.468,1.468,0,1,1-1.388-1.542A1.467,1.467,0,0,1,922.024,350.111Z"/></g><g class="e"><path class="f" d="M863.549,325.177a1.468,1.468,0,1,1-1.388-1.542A1.467,1.467,0,0,1,863.549,325.177Z"/></g><g class="e"><path class="f" d="M849.876,341.606a1.469,1.469,0,1,1-1.389-1.542A1.469,1.469,0,0,1,849.876,341.606Z"/></g><g class="e"><path class="f" d="M962.226,265.165a1.468,1.468,0,1,1-1.388-1.542A1.467,1.467,0,0,1,962.226,265.165Z"/></g><g class="e"><path class="f" d="M830.587,364.892a1.468,1.468,0,1,1-1.388-1.542A1.467,1.467,0,0,1,830.587,364.892Z"/></g><g class="e"><path class="f" d="M827.6,369.627a1.468,1.468,0,1,1-1.388-1.542A1.468,1.468,0,0,1,827.6,369.627Z"/></g><g class="e"><path class="f" d="M833.26,369.928a1.469,1.469,0,1,1-1.389-1.542A1.468,1.468,0,0,1,833.26,369.928Z"/></g><g class="e"><path class="f" d="M850.565,273.531a1.469,1.469,0,1,1-1.388-1.542A1.468,1.468,0,0,1,850.565,273.531Z"/></g><g class="e"><path class="f" d="M847.582,278.267a1.469,1.469,0,1,1-1.388-1.542A1.469,1.469,0,0,1,847.582,278.267Z"/></g><g class="e"><path class="f" d="M853.237,278.567a1.469,1.469,0,1,1-1.388-1.542A1.468,1.468,0,0,1,853.237,278.567Z"/></g><g class="e"><path class="f" d="M899.052,333.65a1.468,1.468,0,1,1-1.388-1.542A1.468,1.468,0,0,1,899.052,333.65Z"/></g><g class="e"><path class="f" d="M896.069,338.386a1.468,1.468,0,1,1-1.388-1.542A1.467,1.467,0,0,1,896.069,338.386Z"/></g><g class="e"><path class="f" d="M901.725,338.687a1.469,1.469,0,1,1-1.388-1.542A1.468,1.468,0,0,1,901.725,338.687Z"/></g><g class="e"><path class="f" d="M945.589,307.008a1.468,1.468,0,1,1-1.388-1.542A1.466,1.466,0,0,1,945.589,307.008Z"/></g><g class="e"><path class="f" d="M942.606,311.744a1.469,1.469,0,1,1-1.388-1.542A1.468,1.468,0,0,1,942.606,311.744Z"/></g><g class="e"><path class="f" d="M948.261,312.045a1.468,1.468,0,1,1-1.388-1.543A1.467,1.467,0,0,1,948.261,312.045Z"/></g><path class="g" d="M303.194,317.546v.96a17.389,17.389,0,0,0,34.776,0V276.137H303.194Z"/><path class="h" d="M371.693,276.137H338.162v42.369a17.407,17.407,0,0,0,34.154,4.579,17.4,17.4,0,0,0,34.142-4.579V276.137H371.693Z"/><path class="i" d="M302.7,276.133V318.51a17.387,17.387,0,0,1-34.773,0,17.315,17.315,0,0,1-17.373,17.24c-.392,0-.774-.01-1.156-.039V276.133Z"/><path class="j" d="M406.662,276.137v42.369a17.389,17.389,0,0,0,34.776,0,17.086,17.086,0,0,0,.622,4.579,17.4,17.4,0,0,0,34.142-4.579V276.137h-69.54Z"/><path class="k" d="M476.406,276.137v42.369a17.383,17.383,0,0,0,34.765,0,16.624,16.624,0,0,0,.634,4.579,17.4,17.4,0,0,0,34.142-4.579V276.137H476.406Z"/><path class="l" d="M599.451,276.133v59.578c-.372.029-.764.039-1.146.039a17.32,17.32,0,0,1-17.392-17.24,17.388,17.388,0,0,1-34.774,0V276.133Z"/><ellipse class="b" cx="74.467" cy="7.714" rx="74.467" ry="7.714" transform="translate(524.898 543.421)"/><ellipse class="b" cx="244.573" cy="17.767" rx="244.573" ry="17.767" transform="translate(149.798 498.384)"/><path class="m" d="M313.342,464.372l-25.357,20.753c-8.951,3.135-18.206,8.543-30.487,11.5,0,0-36.793,7.634-45.217-18.643-.165-.522-.322-1.05-.464-1.591-6.98-26.482,31.892,3.111,21.135-20.4-9.955-21.779-1.124-33.027,9.868-25.036,10.993,7.976,14.024,53.827,24.713,31.3,7.773-16.385,19.919-19.731,25.874-14.239,2.247,2.049,3.618,5.354,3.566,9.667-.114,9.736,3.607,7.873,9.089,7.275C308.723,464.659,310.093,462.577,313.342,464.372Z"/><path class="n" d="M325.83,512.642l-.077.067c-4.541,3.957-21.161,5.815-27.188,5.815l-119.853.322c-4,0-12.723-2.346-14.112-6.086-.1-.265-.186-.535-.263-.808-6.756-23.93,36.248-.608,21.5-31.293s22.737-29.451,39.327,0c14.092,25.007,17.1-2.632,27.475-12.664a10.863,10.863,0,0,1,6.322-3.286c15.973-1.84,23.963,19.025,19.042,38.656s28.267-20.561,47.926-10.281c.267.138.525.286.774.433C334.456,498.054,333.719,505.776,325.83,512.642Z"/><path class="o" d="M250.9,505.6a.462.462,0,0,1-.458-.415,185.553,185.553,0,0,1-.69-19.382.461.461,0,0,1,.922.022,184.043,184.043,0,0,0,.686,19.27.462.462,0,0,1-.414.5Z"/><path class="o" d="M226.9,515.465a.437.437,0,0,0,.148-.083.459.459,0,0,0,.057-.648c-14.651-17.473-28.227-23.546-28.362-23.605a.46.46,0,1,0-.37.843c.133.059,13.524,6.059,28.026,23.353A.459.459,0,0,0,226.9,515.465Z"/><path class="o" d="M219.573,507.5a.46.46,0,0,0,.3-.54,185.63,185.63,0,0,0-5.6-18.572.461.461,0,0,0-.865.317,184.645,184.645,0,0,1,5.563,18.465.46.46,0,0,0,.554.343Z"/><g class="p"><path class="f" d="M267.138,505.14a1.483,1.483,0,1,1-1.483-1.482A1.482,1.482,0,0,1,267.138,505.14Z"/></g><g class="p"><path class="f" d="M270.105,500.309a1.484,1.484,0,1,1-1.483-1.481A1.482,1.482,0,0,1,270.105,500.309Z"/></g><g class="p"><path class="f" d="M273.125,505.14a1.484,1.484,0,1,1-1.484-1.482A1.482,1.482,0,0,1,273.125,505.14Z"/></g><g class="p"><path class="f" d="M197.907,472.715a1.483,1.483,0,1,1-1.484-1.482A1.482,1.482,0,0,1,197.907,472.715Z"/></g><g class="p"><path class="f" d="M200.874,467.884a1.483,1.483,0,1,1-1.484-1.481A1.483,1.483,0,0,1,200.874,467.884Z"/></g><g class="p"><path class="f" d="M203.893,472.715a1.484,1.484,0,1,1-1.484-1.482A1.482,1.482,0,0,1,203.893,472.715Z"/></g><g class="p"><path class="f" d="M320.158,498.828a1.483,1.483,0,1,1-1.483-1.482A1.482,1.482,0,0,1,320.158,498.828Z"/></g><g class="p"><path class="f" d="M325.486,503.658A1.483,1.483,0,1,1,324,502.177,1.483,1.483,0,0,1,325.486,503.658Z"/></g><path class="c" d="M585.851,501.513c-.428-23.44-25.182-51.325-26.4-30.686-1.162,19.661-19.177-2.226-32.428,2.551s2.05,15.56,14.516,22.811-11.158,4.014-13.985,13.866,63.859,7.429,63.859,7.429Z"/><path class="q" d="M577.9,514.9c-26.147-7.936-35.737-33.1-21.916-31.612s19.257,17.916,20.2-14.341,21.581-17.585,21.155-.834,8.931,5.438,17.022-8.7S636.8,472.689,620.8,491s9.333-1.348,21.1-.831,18.923,17.1,12.791,24.461S596.817,520.641,577.9,514.9Z"/><g class="e"><path class="f" d="M579.666,494.349a1.389,1.389,0,1,1-1.886-.553A1.389,1.389,0,0,1,579.666,494.349Z"/></g><g class="e"><path class="f" d="M579.62,499.645a1.389,1.389,0,1,1-1.886-.553A1.386,1.386,0,0,1,579.62,499.645Z"/></g><g class="e"><path class="f" d="M584.326,497.08a1.389,1.389,0,1,1-1.886-.553A1.388,1.388,0,0,1,584.326,497.08Z"/></g><path class="o" d="M595.992,517.164a.371.371,0,0,1-.086-.011.421.421,0,0,1-.313-.508c5.017-21.084,18.282-36.786,18.416-36.942a.422.422,0,1,1,.643.547c-.133.155-13.269,15.711-18.237,36.59A.422.422,0,0,1,595.992,517.164Z"/><path class="o" d="M602.337,499.532a.422.422,0,0,1-.376-.253,38.8,38.8,0,0,1-2.861-17.408.422.422,0,0,1,.84.087,37.914,37.914,0,0,0,2.795,16.983.422.422,0,0,1-.4.591Z"/><path class="o" d="M597.418,511.981a.423.423,0,0,1-.277-.731,32.718,32.718,0,0,1,19.112-8.561.422.422,0,0,1,.03.844,31.838,31.838,0,0,0-18.566,8.335A.423.423,0,0,1,597.418,511.981Z"/><g class="e"><path class="f" d="M587.2,466.517a1.39,1.39,0,1,1-1.351-1.426A1.389,1.389,0,0,1,587.2,466.517Z"/></g><g class="e"><path class="f" d="M584.488,471.07a1.389,1.389,0,1,1-1.351-1.425A1.389,1.389,0,0,1,584.488,471.07Z"/></g><g class="e"><path class="f" d="M589.847,471.218a1.39,1.39,0,1,1-1.351-1.426A1.389,1.389,0,0,1,589.847,471.218Z"/></g><g class="e"><path class="f" d="M640.508,501.462a1.39,1.39,0,1,1-1.351-1.425A1.389,1.389,0,0,1,640.508,501.462Z"/></g><g class="e"><path class="f" d="M637.8,506.016a1.39,1.39,0,1,1-1.351-1.425A1.389,1.389,0,0,1,637.8,506.016Z"/></g><g class="e"><path class="f" d="M643.159,506.164a1.39,1.39,0,1,1-1.351-1.426A1.389,1.389,0,0,1,643.159,506.164Z"/></g><path class="n" d="M653.641,515.211c-26.356-7.215-36.635-32.112-22.778-31s19.743,17.381,19.8-14.89,21.089-18.171,21.124-1.415,9.077,5.192,16.777-9.167,22.8,12.659,7.307,31.4,9.293-1.6,21.066-1.411,19.387,16.579,13.459,24.1S672.711,520.431,653.641,515.211Z"/><g class="e"><path class="f" d="M654.842,494.62a1.389,1.389,0,1,1-1.9-.5A1.387,1.387,0,0,1,654.842,494.62Z"/></g><g class="e"><path class="f" d="M654.943,499.915a1.39,1.39,0,1,1-1.9-.5A1.388,1.388,0,0,1,654.943,499.915Z"/></g><g class="e"><path class="f" d="M659.576,497.221a1.39,1.39,0,1,1-1.9-.5A1.387,1.387,0,0,1,659.576,497.221Z"/></g><path class="o" d="M671.791,516.978a.372.372,0,0,1-.087-.009.422.422,0,0,1-.327-.5c4.435-21.214,17.263-37.275,17.392-37.434a.422.422,0,0,1,.658.529c-.128.159-12.831,16.07-17.223,37.078A.422.422,0,0,1,671.791,516.978Z"/><path class="o" d="M677.647,499.178a.423.423,0,0,1-.382-.242,38.83,38.83,0,0,1-3.34-17.323.423.423,0,0,1,.843.064,37.9,37.9,0,0,0,3.261,16.9.42.42,0,0,1-.2.561A.425.425,0,0,1,677.647,499.178Z"/><path class="o" d="M673.073,511.757a.421.421,0,0,1-.3-.722,32.717,32.717,0,0,1,18.868-9.083.422.422,0,1,1,.054.842,31.838,31.838,0,0,0-18.33,8.842A.419.419,0,0,1,673.073,511.757Z"/><g class="e"><path class="f" d="M661.6,466.591a1.39,1.39,0,1,1-1.39-1.388A1.389,1.389,0,0,1,661.6,466.591Z"/></g><g class="e"><path class="f" d="M659.022,471.218a1.39,1.39,0,1,1-1.39-1.388A1.389,1.389,0,0,1,659.022,471.218Z"/></g><g class="e"><path class="f" d="M664.383,471.218a1.39,1.39,0,1,1-1.39-1.388A1.389,1.389,0,0,1,664.383,471.218Z"/></g><g class="e"><path class="f" d="M715.857,500.06a1.389,1.389,0,1,1-1.389-1.388A1.389,1.389,0,0,1,715.857,500.06Z"/></g><g class="e"><path class="f" d="M713.276,504.686a1.39,1.39,0,1,1-1.39-1.388A1.389,1.389,0,0,1,713.276,504.686Z"/></g><g class="e"><path class="f" d="M718.637,504.686a1.39,1.39,0,1,1-1.39-1.388A1.389,1.389,0,0,1,718.637,504.686Z"/></g><g class="r"><ellipse class="s" cx="40.361" cy="40.305" rx="40.361" ry="40.305" transform="translate(347.284 150.093)"/></g><path class="f" d="M403.775,189.308H372.5v-6.719a4.076,4.076,0,0,1,4.075-4.069H399.7a4.076,4.076,0,0,1,4.075,4.069Zm-30.7-.568h30.135v-6.151a3.507,3.507,0,0,0-3.506-3.5H376.577a3.507,3.507,0,0,0-3.506,3.5Z"/><path class="f" d="M402.638,212.9h-29V191.919h.569v20.416h27.861V191.919h.569Z"/><path class="f" d="M388.314,178.984H388.3c-9.2-.45-13.177-3.876-13.787-6.674a3.571,3.571,0,0,1,2.083-4.038,3.346,3.346,0,0,1,1.552-.38c4.87,0,10.194,10.243,10.419,10.679a.284.284,0,0,1-.253.413ZM378.148,168.46a2.776,2.776,0,0,0-1.29.316,3.03,3.03,0,0,0-1.789,3.413c.6,2.75,4.773,5.7,12.755,6.2C386.738,176.41,382.13,168.46,378.148,168.46Z"/><path class="f" d="M388.168,178.984a.284.284,0,0,1-.253-.413c.224-.436,5.548-10.679,10.418-10.679a3.346,3.346,0,0,1,1.552.38,3.57,3.57,0,0,1,2.083,4.038c-.61,2.8-4.587,6.224-13.787,6.674Zm10.165-10.524c-3.983,0-8.59,7.95-9.676,9.929,7.982-.5,12.156-3.45,12.755-6.2a3.029,3.029,0,0,0-1.788-3.413A2.783,2.783,0,0,0,398.333,168.46Z"/><path class="f" d="M383.274,202.683a.284.284,0,0,1-.284-.277c0-.109-.25-10.934,0-17.305.26-6.618,5.11-6.684,5.179-6.684h0a.283.283,0,1,1,0,.567h0c-.179,0-4.371.071-4.609,6.14-.249,6.352,0,17.16,0,17.268a.284.284,0,0,1-.277.291Z"/><path class="f" d="M393.323,202.683h-.006a.284.284,0,0,1-.278-.291c0-.108.249-10.916,0-17.268-.238-6.069-4.43-6.14-4.609-6.14a.283.283,0,0,1,0-.567h0c.069,0,4.919.065,5.179,6.684.25,6.371,0,17.2,0,17.305A.284.284,0,0,1,393.323,202.683Z"/><g class="r"><path class="s" d="M480.477,171.287a17.934,17.934,0,1,1-18.14-17.2A17.677,17.677,0,0,1,480.477,171.287Z"/></g><path class="f" d="M455.717,179.013l-.551-.517,14.285-14.386.551.517Z"/><path class="f" d="M467.058,178.953a3.142,3.142,0,1,1,3.193-3.18A3.192,3.192,0,0,1,467.058,178.953Zm-.068-5.536a2.4,2.4,0,1,0,2.495,2.366A2.434,2.434,0,0,0,466.99,173.417Z"/><path class="f" d="M458.123,170.31a3.142,3.142,0,1,1,3.193-3.179A3.191,3.191,0,0,1,458.123,170.31Zm-.068-5.535a2.4,2.4,0,1,0,2.495,2.365A2.433,2.433,0,0,0,458.055,164.775Z"/><rect class="n" width="350.05" height="245.278" transform="translate(249.401 273.334)"/><rect class="n" width="350.042" height="19.787" transform="translate(249.399 498.825)"/><rect class="o" width="65.658" height="149.21" transform="translate(500.417 340.047)"/><rect class="o" width="65.658" height="149.21" transform="translate(427.966 340.047)"/><path class="t" d="M598.3,285.644V428.692L444.958,273.333H586.138Z"/><rect class="o" width="65.658" height="149.21" transform="translate(355.516 340.047)"/><rect class="o" width="65.658" height="149.21" transform="translate(283.066 340.047)"/><path class="t" d="M581.221,518.608H438.97L249.4,327.98V273.333h87.9Z"/><g class="u"><path class="g" d="M303.194,318.524v.961a17.389,17.389,0,0,0,34.776,0v-42.37H303.194Z"/><path class="v" d="M371.693,277.115H338.162v42.37a17.407,17.407,0,0,0,34.154,4.578,17.4,17.4,0,0,0,34.142-4.578v-42.37H371.693Z"/><path class="i" d="M302.7,277.111v42.377a17.387,17.387,0,0,1-34.773,0,17.315,17.315,0,0,1-17.373,17.24c-.392,0-.774-.009-1.156-.039V277.111Z"/><path class="k" d="M406.662,277.115v42.37a17.389,17.389,0,0,0,34.776,0,17.079,17.079,0,0,0,.622,4.578,17.4,17.4,0,0,0,34.142-4.578v-42.37h-69.54Z"/><path class="k" d="M476.406,277.115v42.37a17.383,17.383,0,0,0,34.765,0,16.617,16.617,0,0,0,.634,4.578,17.4,17.4,0,0,0,34.142-4.578v-42.37H476.406Z"/><path class="l" d="M599.451,277.111v59.578c-.372.03-.764.039-1.146.039a17.319,17.319,0,0,1-17.392-17.24,17.388,17.388,0,0,1-34.774,0V277.111Z"/></g><path class="o" d="M302.7,271.542v42.369a17.389,17.389,0,0,1-34.776,0V271.542Z"/><path class="w" d="M337.967,271.542v42.369a17.389,17.389,0,0,1-34.776,0V271.542Z"/><path class="o" d="M372.935,271.542v42.369a17.072,17.072,0,0,1-.622,4.578,17.407,17.407,0,0,1-34.154-4.578V271.542Z"/><path class="w" d="M406.455,271.542v42.369a17.4,17.4,0,0,1-34.142,4.578,17.034,17.034,0,0,1-.623-4.578V271.542Z"/><path class="w" d="M615.678,313.911a17.383,17.383,0,0,1-34.765,0V271.542h18.961l15.5,41.408.1.283Z"/><path class="w" d="M267.928,271.542v42.369a17.383,17.383,0,0,1-34.765,0l.215-.678.1-.283,15.5-41.408Z"/><path class="o" d="M441.435,271.542v42.369a17.389,17.389,0,0,1-34.776,0V271.542Z"/><path class="w" d="M476.2,271.542v42.369a17.4,17.4,0,0,1-34.143,4.578,17.072,17.072,0,0,1-.622-4.578V271.542Z"/><path class="o" d="M511.168,271.542v42.369a17.383,17.383,0,0,1-34.765,0V271.542Z"/><path class="w" d="M545.944,271.542v42.369a17.4,17.4,0,0,1-34.142,4.578,16.612,16.612,0,0,1-.634-4.578V271.542Z"/><path class="o" d="M580.913,271.542v42.369a17.389,17.389,0,0,1-34.776,0V271.542Z"/><path class="x" d="M302.7,312.95v.961a17.389,17.389,0,0,1-34.776,0,17.383,17.383,0,0,1-34.765,0l.215-.678.1-.283Z"/><path class="y" d="M303.191,312.95h34.776v.961a17.389,17.389,0,0,1-34.776,0Z"/><path class="z" d="M406.455,312.95v.961a17.4,17.4,0,0,1-34.142,4.578,17.407,17.407,0,0,1-34.154-4.578v-.961Z"/><path class="aa" d="M476.2,312.95v.961a17.4,17.4,0,0,1-34.143,4.578,17.072,17.072,0,0,1-.622-4.578,17.389,17.389,0,0,1-34.776,0v-.961Z"/><path class="ab" d="M545.944,312.95v.961a17.4,17.4,0,0,1-34.142,4.578,16.612,16.612,0,0,1-.634-4.578,17.383,17.383,0,0,1-34.765,0v-.961Z"/><path class="ac" d="M615.678,313.911a17.383,17.383,0,0,1-34.765,0,17.389,17.389,0,0,1-34.776,0v-.961h69.235l.1.283Z"/><g class="ad"><ellipse class="ae" cx="22.847" cy="22.815" rx="22.847" ry="22.815" transform="translate(316.607 200.423)"/></g><ellipse class="af" cx="13.673" cy="13.654" rx="13.673" ry="13.654" transform="translate(325.781 209.584)"/><path class="o" d="M350.3,226.2l-.412-.113a10.813,10.813,0,0,0-16.052-12.071l-.223-.364A11.234,11.234,0,0,1,350.3,226.2Z"/><path class="o" d="M339.455,234.46a11.242,11.242,0,0,1-11.238-11.222,11.129,11.129,0,0,1,2.1-6.537l.347.248a10.707,10.707,0,0,0-2.023,6.289,10.815,10.815,0,0,0,19.969,5.738l.361.227A11.189,11.189,0,0,1,339.455,234.46Z"/><path class="o" d="M340.423,231.083h-1.647v-1.765a7.035,7.035,0,0,1-3.043-.788l-.115-.059v-2.889l.347.282a4.7,4.7,0,0,0,1.382.69,6.926,6.926,0,0,0,1.429.351v-2.656a6.383,6.383,0,0,1-2.619-1.583,3.311,3.311,0,0,1-.765-2.2,3.252,3.252,0,0,1,.99-2.383,4.059,4.059,0,0,1,2.394-1.111v-1.575h1.647v1.53a6.124,6.124,0,0,1,2.523.583l.11.061v2.757l-.325-.2a6.087,6.087,0,0,0-2.308-.808v2.772a6.767,6.767,0,0,1,2.567,1.509,3.109,3.109,0,0,1,.851,2.2,3.163,3.163,0,0,1-.952,2.386,4.331,4.331,0,0,1-2.466,1.065Zm-1.22-.427H340v-1.788l.19-.021a4.048,4.048,0,0,0,2.408-.973,2.717,2.717,0,0,0,.82-2.078,2.661,2.661,0,0,0-.736-1.9,6.563,6.563,0,0,0-2.541-1.452l-.141-.05v-3.55l.237.025a6.656,6.656,0,0,1,2.4.715v-1.759a6.39,6.39,0,0,0-2.429-.483l-.2-.01V215.82H339.2v1.532l-.192.019a3.72,3.72,0,0,0-2.328,1.011,2.805,2.805,0,0,0-.864,2.081,2.9,2.9,0,0,0,.664,1.928,6.3,6.3,0,0,0,2.581,1.511l.139.051v3.414l-.227-.015a6.936,6.936,0,0,1-1.769-.4,6.3,6.3,0,0,1-1.163-.521v1.774a6.653,6.653,0,0,0,2.947.685l.212,0Zm.793-3.3v-3.1l.3.129c.878.38,1.323.895,1.323,1.531,0,.544-.238,1.229-1.376,1.4Zm.427-2.437v1.927a.881.881,0,0,0,.768-.931C341.191,225.525,340.939,225.2,340.423,224.917ZM339.2,222.1l-.308-.153c-.849-.421-1.28-.968-1.28-1.626,0-.538.232-1.221,1.337-1.42l.251-.045Zm-.427-2.72a.9.9,0,0,0-.734.941,1.287,1.287,0,0,0,.734,1.073Z"/><path class="o" d="M348.358,220.913c-1.883.391-2.2.709-2.593,2.589-.393-1.88-.711-2.2-2.594-2.589,1.883-.392,2.2-.71,2.594-2.59C346.157,220.2,346.475,220.521,348.358,220.913Z"/><path class="o" d="M336.559,216.1c-.872.181-1.019.328-1.2,1.2-.182-.871-.329-1.018-1.2-1.2.872-.182,1.019-.329,1.2-1.2C335.54,215.768,335.687,215.915,336.559,216.1Z"/><rect class="n" width="209.109" height="407.708" transform="translate(657.249 110.9)"/><rect class="n" width="39.621" height="407.715" transform="translate(826.737 110.897)"/><rect class="ag" width="209.112" height="41.45" transform="translate(657.246 140.988)"/><rect class="ah" width="209.112" height="6.029" transform="translate(657.246 140.988)"/><rect class="m" width="49.914" height="139.552" transform="translate(685.799 219.47)"/><rect class="o" width="40.464" height="130.447" transform="translate(690.524 224.023)"/><rect class="m" width="49.914" height="139.552" transform="translate(749.088 219.47)"/><rect class="o" width="40.464" height="130.447" transform="translate(753.813 224.023)"/><rect class="m" width="112.877" height="101.913" transform="translate(685.962 387.687)"/><rect class="o" width="103.753" height="93.675" transform="translate(690.524 391.806)"/><path class="ai" d="M866.358,488.594v30.014H812.182l-152.975-156.9V276.137Z"/><rect class="aj" width="209.112" height="19.787" transform="translate(657.246 498.825)"/><path class="ai" d="M865.792,307.055v31.4L657.249,125.991V114.167Z"/><rect class="n" width="244.582" height="32.574" transform="translate(639.511 108.413)"/><path class="ak" d="M805.911,383.078a6.954,6.954,0,0,0-1.342,3.287,2.854,2.854,0,0,0,3.041,3.382c1.382,0,2.966,1.891,3.984.426,2.543-3.66,8-8.962,9.5-9.186s3.657-2.819,3.657-2.819,3.688-2.031,2.94-4.72c-.448-1.61-1.673-.933-3.477-1.792a2.954,2.954,0,0,0-4.017.967s-7.843-.075-9.231,1.493S805.911,383.078,805.911,383.078Z"/><path class="al" d="M824.749,378.168c.308-.25,3.309,6.889,2.524,7.561s-1.739.728-1.739,1.512-.785,1.457-3.028,1.008-.954,1.009-.281,1.457,2.861.728,2.692,1.288a15.952,15.952,0,0,0-.6,2.352c-.186,1.121-.578,1.457-2.822,1.064s-6.955-.514-8.525-8.042a5.008,5.008,0,0,1-1.907-2.319c-.281-1.232-.119-3.462,2.468-2.969C816.221,381.594,822.519,379.981,824.749,378.168Z"/><path class="al" d="M812.971,386.368a49.946,49.946,0,0,1-5.826,14.484s2.356,8.4,5.5,9.3,6.582-5.153,8.6-17.027C821.242,393.122,817.094,383.987,812.971,386.368Z"/><path class="ak" d="M818.4,371.055a5.518,5.518,0,0,0-3.05-1.751c-1.328-.215-2.9.442-5.027,1.366-1.713.746-3.338,1.386-4.172,2.386-2.768,3.321-1.063,7.632-1.063,7.632Z"/><path class="am" d="M805.911,383.078s8-7.393,14.284-10.455c0,0-.3-1.748-1.795-1.568-3.721.448-12.863,8.214-13.312,9.633A2.312,2.312,0,0,0,805.911,383.078Z"/><path class="am" d="M917.17,485.161l-30.962,9.258-15.132-50.335,33.943-6.822Z"/><path class="af" d="M874.818,456.431l17.31-5.176,1.831-.548,13.351-4.419.607,2.393-13.507,3.528-1.831.548-17.31,5.176Z"/><path class="af" d="M905.349,488.7l-1.831.547-14.608-48.72,2.126-.451Z"/><path class="af" d="M903.444,450.731c-.165-1.774-8.386.665-8.386.665s7.409-3.274,6.671-5.663-7.634,5.611-7.634,5.611.958-6.706-1.007-6.671.469,8.017.469,8.017S903.609,452.505,903.444,450.731Z"/><path class="al" d="M815.193,533.133l-2.187,7.412s5.1,4.593,5.833,4.761,3.87-.84,3.87-.84l-2.917-4.145a5.616,5.616,0,0,1,1.178-6.833C824.279,530.183,815.193,533.133,815.193,533.133Z"/><path class="al" d="M781.717,517.414l-5.844,4.813s-.539,9.092.82,9.781,2.627-2.366,2.627-2.366.2-4.693,7.285-7.62S781.717,517.414,781.717,517.414Z"/><path class="ak" d="M833.825,456.189s-5.482,31.036-13.221,40.162-34.843,29.29-37.781,28.842-5.853-7.617-4.283-8.962S800.078,495.4,802.994,490.7s9.6-32.714,9.6-32.714Z"/><path class="al" d="M813.611,496.351l2.667,4.448,2.122-2.224Z"/><path class="ak" d="M798.732,457.309s14.906,20.612,16.539,37.191-1.4,36.966-.891,38.982,7.236,4.257,9.255,2.241,11.217-35.174,10.1-43.688-8.005-34.8-8.005-34.8Z"/><path class="al" d="M860.578,441.851a11.352,11.352,0,0,0,3.066-1.2c.9-.672,3.515-1.793,5.16-1.046s3.964,1.718,4.861,2.241,0,1.493-1.421,1.195-3.963-1.195-5.384-.523-3.44,2.016-3.291,2.315a8.433,8.433,0,0,0,2.094,1.419c.6.3.748,1.269-.448,1.12a24.521,24.521,0,0,1-5.609-2.016C859.606,445.137,860.578,441.851,860.578,441.851Z"/><path class="w" d="M824.641,403.691l22.326,26.995,14.808,8.924-1.347,7.468s-26.7-6.422-35.787-25.689S824.641,403.691,824.641,403.691Z"/><path class="o" d="M807.145,460.521c1.234,0,28.006-1.942,28.006-1.942s1.047-33.009-1.794-37.34-7.362-16.884-7.362-16.884l-4.753-2.678-1.835-.485s-1.856,10.077-12.262-.34l-1.807.2Z"/><path class="w" d="M792.525,457.235c.149,3.286,2.243,4.48,6.431,4.928s8.825,4.182,10.918-2.464,6.39-59.968-4.882-58.623-15.758,19.118-15.758,19.118Z"/><path class="al" d="M787.953,465.431s-.342,5.217-.44,6.875,1.368,1.512,2.149,1.707,2.832.732,3.321,0-.049-3.918,0-4.105.187.68.5.821c.537.244,1.5.039.967-1.313s-1.514-3.985-1.514-3.985Z"/><path class="w" d="M787.14,466.793h7.179s-2.393-27.631,5.534-39.878,3.291-20.911-2.243-20.164S774.876,434.831,787.14,466.793Z"/><path class="w" d="M819.432,401.107c2.484.331,8.953,2.369,13.925,14.307,5.017,12.049,4.317,32.69,2.118,43.594-.213,1.056-2.232,1.331-2.237.254-.059-15.5-1.233-55.291-13.831-58.071Z"/><path class="an" d="M869.477,445.585a2.019,2.019,0,1,1-2.019-2.017A2.018,2.018,0,0,1,869.477,445.585Z"/><path class="ak" d="M813.38,539.279s-2.393,3.973-1.122,5.018,12.751,6.049,15.667,5.489.522-2.382-.486-2.875c-3.739-1.829-6.768-6.8-7.647-6.59s-1.14,1.773.655,2.931S816.483,543.632,813.38,539.279Z"/><path class="ak" d="M776.468,521.737s-4.054.412-4.3,2.889,1.257,10,4.411,15.616,2.406-4.787,2.788-7.819.865-4.993-.787-5.338-.858,3.322-1.515,3.16S775.607,524.179,776.468,521.737Z"/><path class="al" d="M825.277,494.093s5.721-.112,7.628-.9S830.662,497.677,825.277,494.093Z"/><path class="af" d="M915.051,495.377h-31.1l2.153-36.984,28.943,1.79Z"/><path class="ak" d="M903.7,462.614a.112.112,0,0,1-.112-.112v-5.484a3.515,3.515,0,0,0-7.03,0v5.462a.112.112,0,0,1-.224,0v-5.462a3.739,3.739,0,0,1,7.478,0V462.5A.113.113,0,0,1,903.7,462.614Z"/><path class="w" d="M.371,0H.492A.372.372,0,0,1,.864.372V2.093a.371.371,0,0,1-.371.371H.371A.371.371,0,0,1,0,2.093V.371A.371.371,0,0,1,.371,0Z" transform="translate(936.922 434.096) rotate(-66.912)"/><path class="w" d="M926.23,472.659c1.8-4.223,4-4.1,5.194-6.9.1-.234.185-.462.256-.686a1.756,1.756,0,0,0-3.139-1.5l-.032.047c-2.117,3.051-6.09,2.386-6.09,2.386s-3.228-2.4-2.487-6.043l.012-.055a1.756,1.756,0,0,0-3.257-1.226c-.113.207-.219.426-.319.66-1.2,2.795.409,4.295-1.4,8.517-1.668,3.9-9.218,1.781-12.822,10.21-4.346,10.164,8.324,15.876,8.324,15.876s12.894,5.187,17.24-4.977C931.318,480.539,924.562,476.56,926.23,472.659Z"/><path class="w" d="M924.3,467.078l-3.964-1.69,12.377-27.427,2.863,1.22Z"/><path class="w" d="M935.6,443.459l-5.988-2.553,6.137-11.309,3.786,1.614Z"/><rect class="w" width="0.864" height="2.464" rx="0.371" transform="translate(936.233 436.041) rotate(-66.911)"/><path class="w" d="M937.452,438.763l-1.585-.675a.372.372,0,0,1-.2-.488l.047-.111a.372.372,0,0,1,.487-.2l1.584.676a.372.372,0,0,1,.2.487l-.048.111A.371.371,0,0,1,937.452,438.763Z"/><ellipse class="o" cx="3.525" cy="3.529" rx="3.525" ry="3.529" transform="translate(915.556 477.206) rotate(-89.403)"/><path class="am" d="M922.8,482.16s-2.733-1.472-2.561-5.908c.142-3.662,3.283-3.038,1.615-8.642-1.27-4.271-4.055-6.645-2.014-11.044,1.819-3.919,2.585-6.816,2.249-8.776s-1.182-5.945-1.182-5.945,3.928,3.071,3.647,7.384c-.225,3.466-3,7.465-.411,12.609,2.051,4.082,2.345,9.117.229,11.746A8.356,8.356,0,0,0,922.8,482.16Z"/><path class="am" d="M912.4,446.6s-2.328,6.516.1,10.157,2.472,4.726.8,8.2-.271,6.017,1.7,8.511-.869,5.024.6,9.166a60.309,60.309,0,0,1,2.034-7.605c.458-1.265-2.019-3-2.275-5.5-.445-4.333,2.451-7.31.62-10.718S912.362,453.76,912.4,446.6Z"/><path class="am" d="M920.1,482.368c-4.4-3.771-3.075-5.622-2.663-10.79.233-2.914-1.122-3.538-1.177-6.965-.051-3.153,1.914-5.993,2.366-9.115a40.284,40.284,0,0,1-.208,7.043c-.711,4.007,2.243,6.949.785,11.536A11.044,11.044,0,0,0,920.1,482.368Z"/><path class="ao" d="M926.885,480.126v12.132c0,1.656-1.841,3.011-4.091,3.011h-5.909c-2.25,0-4.091-1.355-4.091-3.011V480.126Z"/><path class="an" d="M928.437,496.575H881.5l-14.255-50.93a.224.224,0,0,1,.432-.121l5,17.864h63.9a2.465,2.465,0,0,1,2.371,3.145l-8.133,28.259A2.477,2.477,0,0,1,928.437,496.575Zm-46.6-.448h46.6a2.027,2.027,0,0,0,1.941-1.459l8.133-28.259a2.016,2.016,0,0,0-1.94-2.573H872.8Z"/><path class="an" d="M872.416,541.1a2.466,2.466,0,0,1-2.38-3.115l11.415-41.69a.224.224,0,0,1,.433.118L870.469,538.1a2.016,2.016,0,0,0,1.947,2.547h0l57.559-.053h0a.224.224,0,1,1,0,.448l-57.559.054Z"/><path class="an" d="M877.031,543.229a4.257,4.257,0,1,0,4.263,4.257A4.258,4.258,0,0,0,877.031,543.229Zm0,6.833a2.577,2.577,0,1,1,2.58-2.576A2.578,2.578,0,0,1,877.031,550.062Z"/><path class="an" d="M922.13,543.229a4.257,4.257,0,1,0,4.263,4.257A4.261,4.261,0,0,0,922.13,543.229Zm0,6.833a2.577,2.577,0,1,1,2.58-2.576A2.582,2.582,0,0,1,922.13,550.062Z"/><path class="an" d="M937.985,469.271h-63.96a.225.225,0,1,1,0-.449h63.96a.225.225,0,1,1,0,.449Z"/><path class="an" d="M936.23,475.372h-60.5a.224.224,0,1,1,0-.448h60.5a.224.224,0,1,1,0,.448Z"/><path class="an" d="M934.635,480.912H877.283a.224.224,0,0,1,0-.448h57.352a.224.224,0,0,1,0,.448Z"/><path class="an" d="M933.005,486.575H878.868a.224.224,0,0,1,0-.448h54.137a.224.224,0,1,1,0,.448Z"/><path class="an" d="M931.171,491.872H880.35a.224.224,0,0,1,0-.448h50.821a.224.224,0,1,1,0,.448Z"/><rect class="f" width="0.531" height="4.909" transform="translate(828.913 390.976) rotate(-83.049)"/><rect class="f" width="4.909" height="0.531" transform="matrix(0.992, -0.129, 0.129, 0.992, 828.662, 388.257)"/><rect class="f" width="0.531" height="4.908" transform="translate(828.175 393.355) rotate(-63.541)"/><path class="f" d="M839.857,393.723h-.284V387.5h3.554v5.244h-.284v-4.96h-2.987Z"/><path class="f" d="M841.436,393.723c0,.359-.409.65-.913.65s-.914-.291-.914-.65.409-.649.914-.649S841.436,393.365,841.436,393.723Z"/><path class="f" d="M844.718,392.746c0,.359-.409.65-.913.65s-.913-.291-.913-.65.408-.649.913-.649S844.718,392.388,844.718,392.746Z"/><path class="f" d="M849.924,402.513h-.284v-6.219h3.554v5.243h-.284v-4.96h-2.987Z"/><ellipse class="f" cx="0.913" cy="0.649" rx="0.913" ry="0.649" transform="translate(849.677 401.863)"/><path class="f" d="M854.786,401.535c0,.359-.409.65-.913.65s-.913-.291-.913-.65.408-.649.913-.649S854.786,401.177,854.786,401.535Z"/><path class="al" d="M235.551,407.639a15.572,15.572,0,0,0,1.493-3.913c.353-1.864,2.265-4.37,2.8-4.266s.5.662,0,1.926-.832,2.07-.251,1.946,1.97-3.313,3.027-2.423,1.1.829,1.784,1.491a3.2,3.2,0,0,1,.58,4.121c-1.14,1.967-6.034,4.68-6.034,4.68Z"/><path class="am" d="M200.734,400.495c2.323,1.243,9.622,5.964,13.687,10.6s4.893,5.964,6.967,4.805,11.53-9.94,15.1-8.78,5.143,4.39.415,10.188-14.429,11.762-19.781,11.43-18.374-11.182-19.535-15.489S200.734,400.495,200.734,400.495Z"/><path class="al" d="M211.59,370.945c1,1.367,2.208,5.063,3.577,6.648s2.333,2.578,1.8,3.261-2.426.559-2.084,1.926.622,2.081-.031,2.3-2.115-1.025-2.924-1.522-.933.373.28,1.74,1.835,1.8,1.4,2.578-.84,1.056-.933,1.522-.591,2.64-1.991,2.205-3.014-2.872-3.667-2.313-1.869,4.205-3.218,7.894c-1.451,3.968-3.483,13-3.483,13l-8.129-14.412,8.461-9.277-1-12.425Z"/><path class="ak" d="M210.273,365.044c2.632,1.025,4.479,5.55-.746,8.366s-7.134,3.81-6.3,5.963,1.991,1.243,1.908,3.231a10.271,10.271,0,0,1-7.466,8.531c-5.391,1.408-7.714.249-14.681-1.242s-9.738,1.81-15.594,2.485c-8.626.994-17.5-5.384-16.506-13.584.908-7.483,5.806-1.9,14.93-7.869s13.52,4.39,22.644,1.9C192.5,371.73,200.486,361.234,210.273,365.044Z"/><path class="al" d="M207.17,462.866s14.343,19.962,15.96,25.181-7.375,37.646-7.98,44.231,2.008,9.567,2.008,9.567-3.111,1.758-5.35.817-3.235-7.154-3.235-7.154.373-10.933,0-16.4a60.074,60.074,0,0,1,.871-16.9c1.244-5.84,3.484-9.07,0-12.922s-18.663-15.9-18.663-15.9l-6.69-9.567Z"/><path class="am" d="M196.5,396.816c2.323,2.109,3.733,6.62,4.106,20.038s-4.977,32.055,8.834,49.077a63.227,63.227,0,0,1-10.825,3.346c-34.737,7.582-43.1-3.218-51.841-22.5a21.953,21.953,0,0,0-5.135-6.936.479.479,0,0,1,.287-.822c2.282-.254,8.206-2.018,21.105-11.477C171.147,421.591,187.5,388.642,196.5,396.816Z"/><path class="al" d="M164.026,488.378c-4.6,0-22.017-9.9-31.224-20.086s-9.954-14.413-16.424-12.673l-.995-2.288s4.852-5.788,9.207-3.8c0,0,1,3.479,7.963,7.579s24.386,13.045,27.621,16.152S164.026,488.378,164.026,488.378Z"/><path class="ak" d="M125.446,451.1s-1.643-4.153-3.344-4.678-8.991,4.8-11.382,6.689-4.9,3.143-3.955,3.911,11.548-1.431,12.615-2.062,1.014-1.467.41-1.662-1.921.966-2.446.292S116.441,451.475,125.446,451.1Z"/><path class="ak" d="M180.375,461.322a.122.122,0,0,0,.113-.079c.124-.34,3.022-8.337,1.455-10.344a3.506,3.506,0,0,0-3.117-1.677c-2.034.228-4.23,2.819-6.527,7.7a.12.12,0,1,0,.217.1c2.26-4.8,4.392-7.348,6.337-7.566a3.285,3.285,0,0,1,2.9,1.586c1.486,1.9-1.461,10.031-1.491,10.113a.119.119,0,0,0,.072.154A.115.115,0,0,0,180.375,461.322Z"/><path class="w" d="M158.5,482.792l36.848,13.515,6.9-27.832-36.357-10.712Z"/><path class="af" d="M144.118,476.611l24.722,14.946,15.735-24.519-24.829-15.251Z"/><path class="f" d="M149.63,484.922l24.859,11.911,13.56-34.594-23.87-10.452Z"/><path class="al" d="M180.765,440.243c.062.4,2.115,3.79,2.924,6.492s.249,3.759-.373,3.386-.747-3.013-1.089-2.951-.591,3.448-.249,4.628-.746,2.05-2.426,1.181-2.924-3.013-2.893-3.728,1.68-5.28,1.027-7.33S180.765,440.243,180.765,440.243Z"/><path class="c" d="M195.177,397.513c1.214.59,4.645,4.225-1.908,9.443S176.6,418.138,176.017,419.38s3.317,14.91,4.644,18.306-.248,4.39-1.575,4.887-5.475,2.816-11.115-7.372-5.475-19.8,2.073-26.671S189.039,394.531,195.177,397.513Z"/><path class="ak" d="M208.407,535.053s-1.7,4.266-1.327,6.005,7.714,4.722,10.534,5.881,5.143,2.734,5.35,1.532-6.9-9.359-7.969-9.981-1.777-.165-1.653.456,1.784,1.2,1.452,1.988S213.135,542.715,208.407,535.053Z"/><rect class="af" width="0.617" height="5.701" transform="translate(217.408 387.305) rotate(-82.55)"/><rect class="af" width="5.7" height="0.617" transform="translate(217.437 384.353) rotate(-15.771)"/><path class="af" d="M216.536,388.925l-.336.518,4.782,3.1.336-.518Z"/><path class="ak" d="M339.09,374.01s7.956-1.446,4.979-8.958-7.442,1.125-16.292,3.776-9.977,15.346-4.506,19.684,10.437,3.375,10.468,3.174S339.09,374.01,339.09,374.01Z"/><path class="al" d="M326.328,394.633s6.316-.1,7.121-9.736,6.623,4.821,6.623,4.821-2.422,12.834-7.732,17.354S326.328,394.633,326.328,394.633Z"/><path class="al" d="M355.594,535.841l5.25,11.027,9.594.6-.724-3.194-3.5-1.928L361.628,531.2Z"/><path class="al" d="M273.107,526.622l-7,7.793,3.5,11.067,1.267-1.205V540.3l8.568-8.014Z"/><path class="am" d="M260.058,486.7,279.6,501.378l17.775-28.887-17.134-10.513Z"/><path class="af" d="M264.094,495.758l19.18,13.707,16.693-31.489-18.1-11.105Z"/><path class="w" d="M323.955,490.548s-22.609,36.945-45.1,43.695a.964.964,0,0,1-1-.3l-5.427-6.253a.96.96,0,0,1-.115-1.1c2.163-3.864,14.83-25.829,30.68-39.42C320.415,472.23,323.955,490.548,323.955,490.548Z"/><path class="ao" d="M342.621,457.62s4.706,24.166,12.973,30.435c0,0-22.608,15.669-46.765,8.76-4.133-1.183,13.758-37.618,13.758-37.618Z"/><path class="w" d="M335.862,455.358s27.93,65.6,27.4,78.5a.954.954,0,0,1-.527.808l-6.65,3.391a.968.968,0,0,1-.9-.013c-2.863-1.559-18.363-12.023-35.533-62.917Z"/><path class="al" d="M292.218,454.394s-2.537,4-1.836,7.675l5.776.952,1.6-8.075Z"/><path class="ak" d="M291.3,474.319a.122.122,0,0,0,.1-.052c.191-.277,4.649-6.824,3.73-10.5a2.819,2.819,0,0,0-1.48-1.9,3.017,3.017,0,0,0-2.52-.147c-3.508,1.285-6.308,8.044-6.425,8.331a.121.121,0,0,0,.223.092c.029-.07,2.878-6.949,6.285-8.2a2.786,2.786,0,0,1,2.326.134,2.583,2.583,0,0,1,1.357,1.741c.893,3.571-3.649,10.237-3.7,10.3a.122.122,0,0,0,.031.168A.124.124,0,0,0,291.3,474.319Z"/><rect class="al" width="2.945" height="1.438" rx="0.603" transform="translate(290.254 462.468) rotate(-76.449)"/><path class="al" d="M.6,0H2.341a.6.6,0,0,1,.6.6V.835a.6.6,0,0,1-.6.6H.6a.6.6,0,0,1-.6-.6V.6A.6.6,0,0,1,.6,0Z" transform="translate(291.627 462.925) rotate(-76.468)"/><rect class="al" width="2.945" height="1.438" rx="0.603" transform="matrix(0.233, -0.972, 0.972, 0.233, 293.038, 463.242)"/><path class="ak" d="M316.231,401.849s-28.157,25.1-24.84,52.554a.971.971,0,0,0,.5.735,18.319,18.319,0,0,0,5.994,1.827C302.232,457.607,316.231,401.849,316.231,401.849Z"/><path class="ak" d="M273.59,486.852s24.653,20.454,40.043,16.13a13.135,13.135,0,0,0,6.019-3.6c6.783-7.077,9.877-18.121,11.272-27.478l.015-.1A100.453,100.453,0,0,0,332,454.554s3.055-61.221-8.091-59.9-19.749,31.459-25.059,54.6S273.59,486.852,273.59,486.852Z"/><path class="am" d="M303.674,438.047,309.6,473.6l55.064-13.432-7.491-33.907Z"/><path class="af" d="M353.064,463,348.7,443.807l-.443-2.005-2.86-12.945-1.65.363,2.86,12.945.443,2.005,4.227,19.264Z"/><path class="af" d="M305.808,450.844l.474,2.842,54.2-12.474-.443-2.005Z"/><path class="af" d="M343.266,432.911c1.756-.774,3.763,8.219,3.763,8.219s-.8-8.668,1.839-9.225-1.286,10.1-1.286,10.1,5.811-4.409,6.806-2.546-7.791,3.757-7.791,3.757S341.51,433.685,343.266,432.911Z"/><path class="al" d="M338.92,456.97c.383.006,1.495,1.413,2.534,3.063.817,1.3,2.994,1.93,3.017,3,.03,1.4-2.655-1.045-3.781-.884s.281,2.41,2.454,2.812-.684,1.968-3.017,1.968-6.4-4.19-5.916-7.659S338.92,456.97,338.92,456.97Z"/><path class="ak" d="M337.069,459.857c2.053-.893,3.259-1.326,2.957-3.856s-6.215-24.1-5.853-45.073-10.655-16.914-12.431-15.064c-3.734,3.89-3.981,40.853,12.23,63.879a.9.9,0,0,0,.245.244C334.558,460.207,335.447,460.563,337.069,459.857Z"/><path class="ak" d="M313.633,502.982a13.135,13.135,0,0,0,6.019-3.6c6.783-7.077,9.877-18.121,11.272-27.478a23.828,23.828,0,0,1-18.875,18.96S318.865,499.014,313.633,502.982Z"/><path class="al" d="M341.471,373.167s5.072,4.138,5.313,5.7-1.448,1.748-1.026,3.013,1.943,2.049,1.509,3.133a2.663,2.663,0,0,1-.845,1.145s.78.033.766.4a2.785,2.785,0,0,0-.1,2.558c.506,1.241-3.107,4.023-7.583.6-1.526-1.166-3.836-1.927-5.2-4.618,0,0-2.537-3.2-.561-4.361,1.339-.783,1.224.883,2.3.678,1.534-.293-3.114-3.376-.761-5.559C336.4,374.814,341.471,373.167,341.471,373.167Z"/><path class="ak" d="M359.824,544.725s1.322,5.638,2.347,6.181,17.077.241,19.672-2.17-2.655-3.314-4.285-3.374a34.466,34.466,0,0,1-10.659-2.7c-3.62-1.747-1.892,2.34.944,2.942C371.074,546.29,364.47,548.1,359.824,544.725Z"/><path class="ak" d="M267.375,532.407s-5.431,3.434-4.4,6.568,9.172,15.787,12.189,16.149-2.341-8.293-2.6-11.51c-.271-3.434-1.388-5.342-2.142-3.886-.779,1.5-.694,4.519-1.418,2.561C268.237,540.216,267.375,532.407,267.375,532.407Z"/><rect class="af" width="7.117" height="0.77" transform="translate(349.331 385.265) rotate(-16.795)"/><path class="af" d="M348.069,382.621l.5.59,5.454-4.566-.5-.591Z"/><rect class="af" width="0.77" height="7.118" transform="translate(349.273 389.051) rotate(-81.233)"/><path class="w" d="M668.546,513.466l-28.177-3.212,4.471-34.27,25.249,1.73Z"/><path class="ao" d="M583.629,528.358s14.208,1.449,18.117.971-8.33-7.372-8.33-7.372Z"/><path class="ao" d="M611.625,530.548s12.823.22,15.794-.52-6.379-5.279-6.728-5.279S611.625,530.548,611.625,530.548Z"/><path class="al" d="M600.375,527.259s-.787,8.115,0,11.714-8.258,6.218-8.258,6.218l1.442-4.516s.918-12.5-1.442-16.361S600.375,527.259,600.375,527.259Z"/><path class="al" d="M617.349,527.455c0,.262,1.966,13.613,2.294,15.707s9.044,3.665,10.551,2.552-.065-2.552,0-2.748-4.391-2.291-4.784-3.927-.328-14.856-.328-14.856Z"/><path class="ak" d="M600.172,537.664s1.972,2.88.924,5.1-9.9,7.592-13.763,7.2,3.3-5.415,5.7-10.34c1.725-3.534,3.064.851,2.031,2.683C594.407,543.481,596.485,544.144,600.172,537.664Z"/><path class="ak" d="M619.165,539.988s-1.095,3.436,1.133,5.2,15.27,4.646,17.105,3.6-5.484-5.235-8.509-7.526-4.533-.589-2.7,1.636S622.245,543.064,619.165,539.988Z"/><path class="al" d="M639.588,412.4a6.026,6.026,0,0,1,.524-3.49c.874-2.138,1.136-4.232,1.748-4.145s-.35,3.752.349,3.01a21.934,21.934,0,0,0,3.19-6.064c.611-2.1.873,0,.873,0s.044-1.68.525-1.549.628,1.72.628,1.72.2-.968.513-.133-1.185,9.211-5.86,11.742S639.588,412.4,639.588,412.4Z"/><path class="ak" d="M614.888,406.207s6.481.837,16.093,18.568c0,0,3.582-13.158,7.514-13.245s12.418,2.983,2.478,23.822C634.563,448.79,615.224,436.224,614.888,406.207Z"/><path class="f" d="M589.692,443.224s-9.175,72.843-6.816,84.885a25.969,25.969,0,0,0,5.567.4c6.983-.618,7.656-.528,11.98.606,2.3.6,3.163.568,3.163-4.537s.393-58.9,1.966-58.9,1.525,62.565,4.236,64.529,8.418-1.087,16.233-.481c3.688.286,2.993-1.483,2.862-3.839s-8.651-69.195-8.913-78.773a13.407,13.407,0,0,0-8.782-12.327l-17.63,2.273Z"/><path class="ak" d="M612.35,382.319s1.656-.611,1.394-1.527-3.866-9.882-10.486-8.246c0,0-6.619-3.534-14.614,7.592s-7.93,14.594-2.1,21.335,18.284.458,18.284.458Z"/><path class="af" d="M600.4,401.931l-3.059,1.571,2.068,36.038s8.506,1.134,13.661,0-2.272-35.515-2.272-35.515l-3.845-2.094Z"/><path class="al" d="M612.718,382.123s.655,5.148,2.665,6.675-1.442,1.571-1.136,3.1-2.928.436-3.059.872,2.249,1.135,2.414,1.44-.928.611-.71,1.44-.393,1.876-2.272,1.483.131,9.25-4.631,10.21-6.291-4.974-6.291-4.974,2.359-6.108,2.271-8.333-.917-2.967-.917-2.967-2.053-1.7-1.573-3.578,2.185-.654,2.578-.872.306-2.269.306-2.269S612.368,382.69,612.718,382.123Z"/><path class="ak" d="M586.088,410.7s-3.343,17.866-1.114,27.159,1.573,8.312,4.653,9.032,7.143-.524,8.978-.982,2.949-5.563,2.294-9.293-2.2-31.116-1.493-34.178C599.406,402.439,589.758,405.2,586.088,410.7Z"/><path class="ak" d="M588.447,446.106c-.2,0-1.442.262-1.114,2.553s.393,2.29,1.9,2.094,3.407.354,5.9.079,4.194.117,4.587-2.042a12.836,12.836,0,0,0-.313-4.778Z"/><path class="ak" d="M610.1,403.647s2.594,7.839.693,24.2-.262,17.081.983,18,7.8.131,8.782,0,1.7-1.85,2.359-5.8S629.594,407.458,610.1,403.647Z"/><path class="af" d="M593.806,508.788l-22.046-.7,0-32.29h20.23Z"/><path class="w" d="M589.918,506.885l-22.092-.793,1.781-30.157,20.309-1.34Z"/><path class="ak" d="M576.239,477.715a.115.115,0,0,1-.115-.115v-5.387a3.677,3.677,0,0,1,7.355,0v5.365a.115.115,0,1,1-.229,0v-5.365a3.448,3.448,0,0,0-6.9,0V477.6A.116.116,0,0,1,576.239,477.715Z"/><path class="af" d="M582.612,485.421l.585.415-5.464,7.69-.585-.415Z"/><path class="af" d="M577.845,488.386a1.341,1.341,0,0,1,.189-2.655A1.358,1.358,0,0,1,579.443,487a1.343,1.343,0,0,1-1.272,1.407A1.362,1.362,0,0,1,577.845,488.386Zm.374-1.906a.6.6,0,1,0,.485.559A.6.6,0,0,0,578.219,486.48Z"/><path class="af" d="M582.267,493.075a1.34,1.34,0,0,1,.191-2.654,1.359,1.359,0,0,1,1.408,1.27,1.343,1.343,0,0,1-1.272,1.407A1.375,1.375,0,0,1,582.267,493.075Zm.375-1.9a.555.555,0,0,0-.147-.011.6.6,0,0,0-.417.2.593.593,0,0,0-.154.434.6.6,0,1,0,.718-.62Z"/><path class="al" d="M579.219,461.446c1.643-.169-1.9,5.661-1.72,7.265.173,1.5,3.022,2.376,4.208,1.86s0-4.256.912-3.714c.52.309-.327,3.422.392,3.209s2.322-5.406-.173-8.339S579.219,461.446,579.219,461.446Z"/><path class="ak" d="M587.278,409.212s-10.475,12.527-12.834,34.342,5.68,21.2,5.68,21.2,6.117,1.309,8.127-4.014S587.278,409.212,587.278,409.212Z"/><path class="ak" d="M611.582,444.47s-.721-.564-1.049,1.812.262,3.817,1.573,3.882,8.913.785,9.437-1.178.983-5.694-1.179-5.759S611.582,444.47,611.582,444.47Z"/><path class="ak" d="M680.027,376.6s-.518-.333-2.094-1.1c-.989-.485-3.185,2.847-6.156-.818-1.531-1.888-.2-7.231,3.31-8.541,4.118-1.536,8.283,1.043,11.6,1.636,6.947,1.244,10.592,4.758,9.427,9.56-.9,3.7.813,3.714-4.647,9.916s-5.025,7.256-5.025,6.884S680.027,376.6,680.027,376.6Z"/><path class="al" d="M678.166,375.5a.525.525,0,0,0-.773.079c-1.252,1.736-5.274,7.451-4.539,8.238.869.929,1.986,1.425,1.551,2.416s1.117,1.363,2.792.743.869,1.178-.558,1.549-1.757-.124-1.189,1.487-.61,3.1,1.375,3.346,4.095-1.735,4.467-.434,1.3,3.841,1.3,3.841,8.624,5.9,8.624-1.548c0-.31-2.419-5.094-2.357-8.185s-.435-7.862-3.227-9.473C683.034,376.057,680.109,377.192,678.166,375.5Z"/><path class="al" d="M687.248,381.151s.691-2.62,2.11-1.672c2.31,1.542-.593,4.864-.575,5.071S687.248,381.151,687.248,381.151Z"/><path class="am" d="M680.659,393.788s5.789.047,9.3-2.128c2.228-1.379,4.194,5.646,2.359,6.431s-10.857,3.736-12.255,1.255S679.855,393.8,680.659,393.788Z"/><rect class="af" width="34.56" height="24.896" transform="matrix(0.129, -0.992, 0.992, 0.129, 639.394, 511.236)"/><path class="ak" d="M651.774,479.771a.116.116,0,0,1-.054-.121c.066-.339,1.648-8.308,3.92-9.177a3.354,3.354,0,0,1,3.379.164c1.551,1.189,2.067,4.39,1.533,9.517a.115.115,0,0,1-.229-.024c.525-5.042.039-8.174-1.444-9.311a3.141,3.141,0,0,0-3.156-.131c-2.155.823-3.761,8.924-3.777,9.006a.116.116,0,0,1-.135.091A.135.135,0,0,1,651.774,479.771Z"/><path class="al" d="M656.278,464.562s-1.845,4.279-2.392,5.89,1.247,2.639,1.966,3.043,2.368,1.237,3.05.647.336-3.294.435-3.465.407.762.676.986c.465.386,1.068.407.905-1.075s-.411-4.348-.411-4.348Z"/><path class="am" d="M680.035,397.84s-10.747,2.807-13.556,17.659c-2.906,15.364-6.947,23.168-11.4,41.8-1.313,5.5.157,8.123,2.462,9.118,2.728,1.178,7.979-2.381,10.726-9.381,5.068-12.914,7.712-29.8,7.712-29.8Z"/><path class="al" d="M694.188,535.132c0,.7.291,5.776-.495,8.132s1.342.368,2.125,1.774c1.764,3.163,4.457-1.134,4.457-1.134s-.35-7.854,1.485-11.868S694.188,535.132,694.188,535.132Z"/><path class="ak" d="M694.42,542.507c-.617.025-2.01,3.753-4.107,5.149s-.48,2.53,2.709,2.53c2.279,0,7.3.01,8.063-1.173s-.836-6.418-.836-6.418-1.339,3.617-2.667,3.054S698.833,542.333,694.42,542.507Z"/><path class="al" d="M673.973,532.952s-1.7,5.1-1.18,7.854a26.041,26.041,0,0,0,1.18,4.385l-11.4,1.155s4.064-2.857,4.064-13.983S673.973,532.952,673.973,532.952Z"/><path class="ak" d="M673.231,542.779s1.965,4.964.742,5.488-16.079,1.755-17.739.746,7.577-5.06,8.328-5.407c.732-.338,2.566.667,1.459,1.585S668.076,546.442,673.231,542.779Z"/><path class="ak" d="M708.838,463.607s-2.737,59.834-6.666,72.7a1.944,1.944,0,0,1-1.867,1.358h-5.37a1.953,1.953,0,0,1-1.955-1.812c-.7-9.774-3.991-56.02-4.46-62.725L674.231,536.14a1.959,1.959,0,0,1-1.911,1.524h-5.254a1.954,1.954,0,0,1-1.956-2.081c.769-11.516,4.555-67.035,6.329-70.683C673.419,460.83,708.838,463.607,708.838,463.607Z"/><path class="af" d="M671.613,454.985l-1.524,13.438s33.681,4.294,41.546-1.78l-2.8-13.054Z"/><path class="am" d="M679.806,398.091a54.713,54.713,0,0,0-6.794,19.547c-1.923,12.042-1.65,33.682-2.835,38.743s9.893,6.632,17.723,7.156,21.637-1.92,22.511-6.109,0-32.463,0-32.463l-13.457-26.874-6.51-2.188Z"/><rect class="af" width="11.333" height="11.934" transform="translate(676.993 431.75)"/><rect class="ao" width="1.196" height="11.934" transform="translate(682.086 431.75)"/><rect class="ao" width="11.333" height="0.867" transform="translate(676.993 435.616)"/><path class="ao" d="M685.067,426.184c-1.117-.492-2.394,5.229-2.394,5.229s.507-5.514-1.17-5.868.818,6.425.818,6.425-3.7-2.8-4.329-1.619,4.956,2.389,4.956,2.389S686.184,426.677,685.067,426.184Z"/><path class="al" d="M690.444,441.547a17.655,17.655,0,0,1-4.806.48,18.386,18.386,0,0,0-5.024.262c-1.4.262,2.147.656,2.1.785-.153.393-2.621.436-4.02.087s-3.058-1.118-3.189-.755,2.228,2.367,3.452,2.716a12.743,12.743,0,0,0,5.7.592c2.665-.349,6.62-1.309,6.62-1.309Z"/><path class="c" d="M692.236,396.259s13.107-2.182,20.622,15.62,3.321,24.694-3.146,28.839-13.631,7.815-17.476,6.067-5.418-5.587-1.224-8.9,14.681-7.679,13.807-11.867S690.488,406.992,692.236,396.259Z"/><rect class="af" width="0.796" height="9.743" transform="translate(600.91 353.388)"/><rect class="af" width="9.745" height="0.795" transform="translate(606.379 363.666) rotate(-67.055)"/><rect class="af" width="0.795" height="9.745" transform="translate(591.895 355.002) rotate(-22.948)"/><ellipse class="b" cx="71.135" cy="7.714" rx="71.135" ry="7.714" transform="translate(254.689 543.421)"/><path class="b" d="M849.736,549.106c0,2.851-17.1,5.161-38.193,5.161s-38.193-2.31-38.193-5.161,17.1-5.161,38.193-5.161S849.736,546.256,849.736,549.106Z"/><rect class="c" width="350.387" height="3.859" transform="translate(248.978 267.71)"/></g></svg>