<svg xmlns="http://www.w3.org/2000/svg" width="53" height="48" viewBox="0 0 53 48">
  <g id="Group_19" data-name="Group 19" transform="translate(1 1)">
    <path id="Stroke_1" data-name="Stroke 1" d="M51,41a5,5,0,0,1-5,5H4.517C2.022,46,0,43.676,0,40.81V5.19C0,2.324,2.022,0,4.517,0H46.483C48.978,0,51,2.324,51,5.19V41Z" fill="none" stroke="#8f9bb3" stroke-miterlimit="10" stroke-width="2"/>
    <path id="Fill_3" data-name="Fill 3" d="M4,2A2,2,0,1,1,2,0,2,2,0,0,1,4,2" transform="translate(31 3)" fill="#8f9bb3"/>
    <path id="Fill_5" data-name="Fill 5" d="M4,2A2,2,0,1,1,2,0,2,2,0,0,1,4,2" transform="translate(37 3)" fill="#8f9bb3"/>
    <path id="Fill_7" data-name="Fill 7" d="M4,2A2,2,0,1,1,2,0,2,2,0,0,1,4,2" transform="translate(43 3)" fill="#8f9bb3"/>
    <path id="Stroke_15" data-name="Stroke 15" d="M0,1.085H50" transform="translate(1 8.915)" fill="none" stroke="#8f9bb3" stroke-miterlimit="10" stroke-width="2"/>
    <path id="Fill_14" data-name="Fill 14" d="M18.236,25.393H.574a.579.579,0,0,1,0-1.158H17.312l1.424-7.176a.076.076,0,0,1,0-.014c0-.016.007-.031.012-.046l0-.009,0-.009c0-.012.008-.024.013-.036l.005-.011.005-.011,0-.01a.162.162,0,0,1,.009-.018c0-.009.01-.018.015-.027l.014-.022c.007-.011.014-.021.022-.031l.005-.008.005-.008.028-.031.011-.012,1.24-1.25H.574a.58.58,0,0,1,0-1.159H21.283l4.059-4.093,4.6-4.634H.574a.579.579,0,0,1,0-1.158H31.087L35.359.17a.569.569,0,0,1,.812,0l6.066,6.116a.585.585,0,0,1,0,.82L37.5,11.868l-3.441,3.47-7.9,7.97-.383.386-.005.005-.036.033-.007.005-.007.005-.022.016-.009.006-.022.013a.165.165,0,0,1-.027.016l-.018.009-.009,0-.023.011-.035.013-.009,0-.01,0-.022.005-.022.005-.013,0C25.407,23.868,18.386,25.393,18.236,25.393Zm1.344-7-.58,2.9,2.1,2.1,2.9-.579-1.157-1.157-2.106-2.106Zm15.288-8h0l-4.963,4.962-3.987,3.987L24,21.261l1.132,1.132,7.846-7.846L36,11.525l-1.132-1.132Zm-2.192-2h0L22,19.069l1.325,1.324,1.885-1.885,3.916-3.917L34,9.717,32.675,8.393ZM21.806,15.452h0L20,17.26l1.132,1.133L32,7.526,30.867,6.393l-4.851,4.852-4.208,4.208Zm13.8-14.059h0L32,5l1.583,1.583L35.806,8.81l1.583,1.583L41,6.782,35.611,1.393Z" transform="translate(5 14.607)" fill="#2a2c39"/>
  </g>
</svg>
