<svg xmlns="http://www.w3.org/2000/svg" xmlns:xlink="http://www.w3.org/1999/xlink" width="210" height="210" viewBox="0 0 210 210">
    <defs>
        <filter id="prefix__a" width="144.6%" height="144.6%" x="-21.6%" y="-21.6%" filterUnits="objectBoundingBox">
            <feMorphology in="SourceAlpha" operator="dilate" radius=".25" result="shadowSpreadOuter1"/>
            <feOffset dx="1" dy="1" in="shadowSpreadOuter1" result="shadowOffsetOuter1"/>
            <feGaussianBlur in="shadowOffsetOuter1" result="shadowBlurOuter1" stdDeviation="10"/>
            <feComposite in="shadowBlurOuter1" in2="SourceAlpha" operator="out" result="shadowBlurOuter1"/>
            <feColorMatrix in="shadowBlurOuter1" values="0 0 0 0 0.392156863 0 0 0 0 0.482352941 0 0 0 0 0.556862745 0 0 0 0.190750656 0"/>
        </filter>
        <rect id="prefix__b" width="138" height="138" x="29" y="29" rx="30"/>
    </defs>
    <g fill="none" fill-rule="evenodd">
        <g transform="translate(6 7) rotate(-45 98 98)">
            <use fill="#000" filter="url(#prefix__a)" xlink:href="#prefix__b"/>
            <use fill="#F9FAFB" fill-opacity=".7" stroke="#335B7A" stroke-opacity=".298" stroke-width=".5" xlink:href="#prefix__b"/>
        </g>
        <g fill-rule="nonzero" transform="translate(6 7) translate(60 61)">
            <path fill="#B1BDC6" d="M68.304 24.768c-.732-.348-1.524-.576-2.352-.684-.156-1.992-.72-3.876-1.608-5.568-1.896-3.636-5.316-6.36-9.408-7.332-1.068-.252-2.184-.384-3.336-.384-.612 0-1.224.036-1.824.12-1.728.216-3.348.744-4.824 1.512C41.532 7.128 35.58 3.6 28.8 3.6c-10.608 0-19.2 8.592-19.2 19.2 0 .408.012.804.036 1.2H9.6c-4.644 0-8.4 3.756-8.4 8.4s3.756 8.4 8.4 8.4h55.2c4.644 0 8.4-3.756 8.4-8.4 0-3.396-2.004-6.312-4.896-7.632z"/>
            <path fill="#3D5A72" d="M31.56 48.564l4.248.612L34.8 61.2l2.4 2.4 2.4-2.4-1.008-12.024 4.248-.612c2.568-.36 4.956-1.56 6.792-3.396L54 40.8l5.004-5.004c.636-.636 1.5-.996 2.4-.996.936 0 1.788.384 2.4.996.612.612.996 1.464.996 2.4 0 .9-.36 1.764-.996 2.4l-.204.204-16.8 16.8v15.6H27.6V57.6L10.8 40.8l-.204-.204c-.636-.636-.996-1.5-.996-2.4 0-.936.384-1.788.996-2.4.612-.612 1.464-.996 2.4-.996.9 0 1.764.36 2.4.996L20.4 40.8l4.368 4.368c1.836 1.836 4.224 3.036 6.792 3.396z"/>
            <path fill="#FCD770" d="M35.808 49.176L36 49.2 37.2 49.2 38.4 49.2 38.592 49.176 39.6 61.2 37.2 63.6 34.8 61.2z"/>
            <circle cx="37.2" cy="40.8" r="8.4" fill="#F0D0B4"/>
            <path fill="#FCD770" d="M73.2 12v4.8l-2.88.792c-.204.636-.456 1.26-.768 1.848l1.476 2.592-2.724 2.736c-.732-.348-1.524-.576-2.352-.684-.156-1.992-.72-3.876-1.608-5.568h.012C65.376 17.448 66 15.996 66 14.4c0-3.312-2.688-6-6-6-2.136 0-4.008 1.116-5.064 2.784-1.068-.252-2.184-.384-3.336-.384-.612 0-1.224.036-1.824.12.18-.54.408-1.068.672-1.56l-1.476-2.592 3.396-3.396 2.592 1.476c.588-.312 1.212-.564 1.848-.768L57.6 1.2h4.8l.792 2.88c.636.204 1.26.456 1.848.768l2.592-1.476 3.396 3.396-1.476 2.592c.312.588.564 1.212.768 1.848L73.2 12z"/>
            <path fill="#000" d="M74.4 17.717v-6.633l-3.15-.861c-.103-.275-.218-.55-.343-.822l1.621-2.838-4.69-4.69L65 3.494c-.272-.124-.546-.24-.822-.343L63.317 0h-6.633l-.861 3.15c-.275.103-.55.218-.822.343l-2.838-1.621-4.69 4.69L49.094 9.4c-.068.147-.118.298-.18.448-1.218.213-2.41.555-3.555 1.059C41.52 5.56 35.409 2.4 28.8 2.4c-11.249 0-20.4 9.151-20.4 20.4l.002.083C3.673 23.476 0 27.513 0 32.4 0 37.693 4.307 42 9.6 42h.703L26.4 58.097V74.4H48V58.097L64.097 42h.703c5.293 0 9.6-4.307 9.6-9.6 0-3.268-1.644-6.155-4.145-7.89l2.273-2.273-1.621-2.838c.125-.272.24-.546.343-.822l3.15-.86zM45.6 57.103V72H28.8V57.103L11.442 39.745c-.408-.408-.642-.973-.642-1.551 0-1.21.984-2.194 2.194-2.194.577 0 1.143.234 1.551.642l9.377 9.377c2.006 2.006 4.657 3.331 7.468 3.734l3.122.447-.955 11.454 3.643 3.643 3.642-3.642-.955-11.463 3.123-.438c2.81-.403 5.462-1.728 7.468-3.734l9.377-9.377c.408-.409.973-.643 1.551-.643 1.21 0 2.194.984 2.194 2.194 0 .577-.234 1.143-.642 1.551L45.6 57.103zM27.683 42c.231 1.85.984 3.538 2.115 4.907-1.564-.532-3.007-1.414-4.18-2.585L23.298 42h4.386zm19.034 0h4.386l-2.323 2.323c-1.172 1.171-2.615 2.052-4.18 2.585 1.133-1.37 1.884-3.059 2.117-4.908zm-8.359 18.745L37.2 61.903l-1.158-1.158.862-10.352.177.001c.04 0 .08.006.119.006h.296l.862 10.345zM37.2 48c-3.97 0-7.2-3.23-7.2-7.2s3.23-7.2 7.2-7.2 7.2 3.23 7.2 7.2-3.23 7.2-7.2 7.2zM72 32.4c0 3.636-2.712 6.643-6.218 7.126.13-.429.218-.872.218-1.332 0-2.532-2.062-4.594-4.594-4.594-1.226 0-2.38.478-3.248 1.345L53.503 39.6h-6.786c-.594-4.728-4.63-8.4-9.517-8.4-4.886 0-8.923 3.672-9.517 8.4h-6.786l-4.655-4.655c-.868-.867-2.02-1.345-3.248-1.345-2.532 0-4.594 2.062-4.594 4.594 0 .46.088.902.218 1.33C5.112 39.044 2.4 36.036 2.4 32.4c0-3.97 3.23-7.2 7.2-7.2 2.35 0 4.561 1.153 5.909 3.084l1.969-1.374c-1.566-2.242-4.002-3.695-6.674-4.033-.002-.025-.004-.05-.004-.077 0-9.925 8.075-18 18-18 6.142 0 11.8 3.097 15.137 8.285l.593.921.972-.506c1.906-.995 3.958-1.5 6.098-1.5 6.391 0 11.844 4.65 12.98 10.81-5.192.12-9.38 4.371-9.38 9.59h2.4c0-3.97 3.23-7.2 7.2-7.2s7.2 3.23 7.2 7.2zm-7.613-16.081c-1.802-2.578-4.353-4.585-7.325-5.71C57.892 9.966 58.914 9.6 60 9.6c2.647 0 4.8 2.153 4.8 4.8 0 .67-.15 1.319-.413 1.919zm5.147 5.517l-1.526 1.527c-.317-.113-.64-.21-.97-.29-.212-1.549-.65-3.025-1.286-4.393.922-1.237 1.448-2.719 1.448-4.28 0-3.97-3.23-7.2-7.2-7.2-2.196 0-4.228.985-5.587 2.665-.89-.164-1.801-.255-2.731-.26l.14-.264-1.356-2.376 2.098-2.098 2.376 1.356.582-.31c.536-.284 1.09-.515 1.644-.686l.628-.193.723-2.634h2.967l.722 2.632.628.193c.555.171 1.108.402 1.644.686l.582.31 2.376-1.356 2.098 2.097-1.356 2.376.31.582c.284.537.516 1.09.686 1.644l.193.63 2.633.723v2.967l-2.632.722-.193.628c-.171.555-.402 1.108-.686 1.644l-.31.582 1.355 2.376z"/>
            <path fill="#000" d="M48.352 24.848L49.903 26.4 24.497 26.4 26.048 24.848 24.352 23.152 19.903 27.6 24.352 32.048 26.048 30.352 24.497 28.8 49.903 28.8 48.352 30.352 50.048 32.048 54.497 27.6 50.048 23.152zM34 8.088c-.843-.299-1.719-.526-2.602-.673l-.396 2.367c.746.125 1.486.317 2.198.568l.8-2.262zM28.8 7.2c-7.65 0-14.12 5.468-15.384 13.002l2.368.396C16.852 14.225 22.326 9.6 28.8 9.6V7.2z"/>
        </g>
    </g>
</svg>
