<svg xmlns="http://www.w3.org/2000/svg" xmlns:xlink="http://www.w3.org/1999/xlink" width="209" height="210" viewBox="0 0 209 210">
    <defs>
        <filter id="prefix__a" width="144.6%" height="144.6%" x="-21.6%" y="-21.6%" filterUnits="objectBoundingBox">
            <feMorphology in="SourceAlpha" operator="dilate" radius=".25" result="shadowSpreadOuter1"/>
            <feOffset dx="1" dy="1" in="shadowSpreadOuter1" result="shadowOffsetOuter1"/>
            <feGaussianBlur in="shadowOffsetOuter1" result="shadowBlurOuter1" stdDeviation="10"/>
            <feComposite in="shadowBlurOuter1" in2="SourceAlpha" operator="out" result="shadowBlurOuter1"/>
            <feColorMatrix in="shadowBlurOuter1" values="0 0 0 0 0.392156863 0 0 0 0 0.482352941 0 0 0 0 0.556862745 0 0 0 0.190750656 0"/>
        </filter>
        <rect id="prefix__b" width="138" height="138" x="29" y="29" rx="30"/>
    </defs>
    <g fill="none" fill-rule="evenodd">
        <g transform="translate(5.25 7) rotate(-45 98 98)">
            <use fill="#000" filter="url(#prefix__a)" xlink:href="#prefix__b"/>
            <use fill="#F9FAFB" fill-opacity=".7" stroke="#335B7A" stroke-opacity=".298" stroke-width=".5" xlink:href="#prefix__b"/>
        </g>
        <g fill-rule="nonzero">
            <g>
                <path fill="#3D5A72" d="M14.519 58.477l-1.175 1.777c-.89 1.342-2.393 2.147-4.003 2.146H7.104c-1.323.004-2.395 1.076-2.4 2.4v4.8h48v-4.8c-.004-1.324-1.076-2.396-2.4-2.4H48.04c-1.572 0-3.045-.77-3.942-2.061l-1.268-1.827c-8.725 5.197-19.598 5.184-28.31-.035zM33.504 7.625V2.4C33.5 1.076 32.428.004 31.104 0h-4.8c-1.323.004-2.395 1.076-2.4 2.4v5.225c3.175-.567 6.425-.567 9.6 0z" transform="translate(5.25 7) translate(67.75 62) translate(1.2 1.2)"/>
                <path fill="#3D5A72" d="M33.504 7.632v-.007c-3.175-.567-6.425-.567-9.6 0-5.576.979-10.715 3.654-14.715 7.66C3.176 21.295.27 29.742 1.312 38.181c1.041 8.438 5.914 15.925 13.207 20.295 8.712 5.22 19.585 5.232 28.31.035 7.314-4.357 12.209-11.847 13.262-20.296 1.054-8.449-1.85-16.91-7.87-22.932-4.001-4.005-9.14-6.68-14.717-7.66v.008zm14.924 15.781l.021-.013-.021.013c4.102 7.037 4.102 15.737 0 22.774l.021.013-.021-.013c-2.005 3.458-4.879 6.332-8.337 8.336l.013.022-.013-.022c-7.037 4.102-15.737 4.102-22.774 0l-.013.022.013-.022c-3.457-2.004-6.331-4.878-8.336-8.336l-.021.013.021-.013c-4.102-7.037-4.102-15.737 0-22.774L8.96 23.4l.021.013c2.005-3.458 4.879-6.332 8.336-8.336l-.013-.022.013.022c7.037-4.102 15.737-4.102 22.774 0l.013-.022-.013.022c3.458 2.004 6.332 4.878 8.337 8.336z" transform="translate(5.25 7) translate(67.75 62) translate(1.2 1.2)"/>
                <path fill="#B1BDC6" d="M32.304 34.8c0 1.988-1.611 3.6-3.6 3.6-1.988 0-3.6-1.612-3.6-3.6s1.612-3.6 3.6-3.6c1.989 0 3.6 1.612 3.6 3.6z" transform="translate(5.25 7) translate(67.75 62) translate(1.2 1.2)"/>
                <path fill="#3D5A72" d="M56.706 13.586c.937-.937.937-2.456 0-3.393l-3.394-3.395c-.937-.937-2.457-.937-3.394 0L48.22 8.496l3.395 3.394 3.393 3.394 1.698-1.698zM7.49 6.798c-.936-.937-2.456-.937-3.393 0L.703 10.193c-.937.937-.937 2.456 0 3.393L2.4 15.284l3.393-3.394 3.395-3.394L7.49 6.798z" transform="translate(5.25 7) translate(67.75 62) translate(1.2 1.2)"/>
            </g>
            <path fill="#000" d="M29.904 12c-13.255 0-24 10.745-24 24s10.745 24 24 24 24-10.745 24-24c-.015-13.249-10.75-23.985-24-24zm11.814 42.06l-1.775-3.072c-.212-.374-.609-.606-1.04-.607-.43 0-.829.229-1.043.603-.215.373-.212.833.005 1.204l1.771 3.07c-2.655 1.344-5.56 2.12-8.532 2.28V54c0-.663-.537-1.2-1.2-1.2-.662 0-1.2.537-1.2 1.2v3.54c-2.97-.16-5.877-.937-8.531-2.281l1.77-3.07c.327-.573.129-1.302-.443-1.632-.57-.33-1.301-.137-1.635.432l-1.775 3.073c-2.487-1.633-4.613-3.76-6.247-6.247l3.073-1.774c.375-.214.607-.61.607-1.041.001-.43-.229-.83-.602-1.044-.373-.214-.833-.212-1.205.006l-3.069 1.77c-1.345-2.655-2.121-5.56-2.28-8.532h3.537c.663 0 1.2-.537 1.2-1.2 0-.663-.537-1.2-1.2-1.2H8.365c.16-2.971.936-5.877 2.28-8.532l3.07 1.771c.372.218.831.22 1.205.006.373-.215.603-.613.602-1.044-.001-.43-.233-.827-.607-1.04l-3.073-1.775c1.633-2.488 3.76-4.614 6.247-6.247l1.775 3.073c.213.374.61.606 1.04.607.431 0 .829-.229 1.044-.603.215-.373.212-.833-.006-1.204l-1.77-3.07c2.655-1.344 5.561-2.12 8.532-2.28V18c0 .663.538 1.2 1.2 1.2.663 0 1.2-.537 1.2-1.2v-3.54c2.972.16 5.877.937 8.532 2.281l-1.771 3.07c-.217.372-.22.832-.005 1.205.214.374.613.604 1.043.603.431 0 .828-.233 1.04-.607l1.775-3.073c2.488 1.633 4.614 3.76 6.247 6.247l-3.073 1.775c-.374.213-.606.61-.606 1.04-.001.43.228.83.602 1.044.373.214.833.212 1.204-.006l3.07-1.77c1.344 2.654 2.121 5.56 2.28 8.531h-3.538c-.662 0-1.2.537-1.2 1.2 0 .663.538 1.2 1.2 1.2h3.539c-.159 2.971-.935 5.877-2.28 8.532l-3.07-1.771c-.574-.326-1.303-.128-1.633.443-.33.571-.137 1.301.432 1.635l3.073 1.775c-1.633 2.488-3.759 4.614-6.247 6.247z" transform="translate(5.25 7) translate(67.75 62)"/>
            <path fill="#000" d="M31.104 31.37V22.8c0-.663-.537-1.2-1.2-1.2-.662 0-1.2.537-1.2 1.2v8.57c-2.112.546-3.591 2.448-3.6 4.63.007.44.074.876.2 1.297l-5.055 3.078c-.374.22-.6.623-.593 1.057.008.433.249.829.63 1.034.382.207.845.19 1.211-.041l5.004-3.046c1.422 1.442 3.597 1.834 5.433.98 1.836-.855 2.937-2.77 2.751-4.787-.186-2.017-1.62-3.698-3.58-4.201zm-1.2 7.03c-1.325 0-2.4-1.075-2.4-2.4s1.075-2.4 2.4-2.4c1.326 0 2.4 1.075 2.4 2.4s-1.074 2.4-2.4 2.4z" transform="translate(5.25 7) translate(67.75 62)"/>
            <path fill="#000" d="M55.36 17.331c.469.47 1.228.47 1.697 0l1.698-1.695c1.406-1.406 1.406-3.686 0-5.091L55.36 7.15c-1.424-1.36-3.666-1.36-5.09 0l-1.697 1.698c-.469.468-.469 1.228 0 1.697l2.545 2.545-1.727 1.727c-3.788-3.495-8.446-5.907-13.487-6.984V3.6c0-1.988-1.611-3.6-3.6-3.6h-4.8c-1.988 0-3.6 1.612-3.6 3.6v4.233c-5.04 1.077-9.698 3.49-13.487 6.984L8.691 13.09l2.545-2.545c.469-.47.469-1.229 0-1.697L9.54 7.15c-1.424-1.36-3.667-1.36-5.091 0l-3.395 3.395c-1.406 1.405-1.406 3.684 0 5.09l1.698 1.696c.469.47 1.228.47 1.697 0l2.545-2.545 1.727 1.727c-5.723 6.205-8.43 14.61-7.404 22.99C2.343 47.88 6.998 55.384 14.05 60.024l-.508.766c-.666 1.006-1.793 1.61-3 1.609H8.304c-1.988 0-3.6 1.612-3.6 3.6v4.8c0 .663.538 1.2 1.2 1.2h48c.663 0 1.2-.537 1.2-1.2V66c0-1.988-1.611-3.6-3.6-3.6H49.24c-1.18 0-2.284-.578-2.957-1.547l-.559-.804c7.064-4.634 11.732-12.14 12.765-20.525 1.034-8.385-1.673-16.8-7.4-23.01l1.727-1.728 2.545 2.545zM3.6 14.786l-.848-.848c-.469-.468-.469-1.228 0-1.697l3.392-3.393c.469-.468 1.228-.468 1.696 0l.848.848-5.087 5.09zM26.305 3.6c0-.663.538-1.2 1.2-1.2h4.8c.663 0 1.2.537 1.2 1.2v3.833c-2.39-.31-4.81-.31-7.2 0V3.6zM44.31 62.222c1.122 1.615 2.963 2.578 4.929 2.578h2.265c.663 0 1.2.537 1.2 1.2v3.6h-45.6V66c0-.663.538-1.2 1.2-1.2h2.237c2.012.002 3.89-1.005 5-2.682l.562-.848c8.585 4.698 18.97 4.707 27.563.024l.644.928zm-14.406.178c-14.58 0-26.4-11.82-26.4-26.4 0-14.58 11.82-26.4 26.4-26.4 14.581 0 26.4 11.82 26.4 26.4-.016 14.573-11.826 26.384-26.4 26.4zM51.966 8.848c.475-.454 1.222-.454 1.697 0l3.394 3.392c.467.468.467 1.227 0 1.695l-.849.849-5.09-5.088.848-.848z" transform="translate(5.25 7) translate(67.75 62)"/>
        </g>
    </g>
</svg>
