<svg xmlns="http://www.w3.org/2000/svg" width="157.617" height="175" viewBox="0 0 157.617 175">
  <g id="Group_56" data-name="Group 56" transform="translate(-1198.192 -343)">
    <path id="Polygon_Copy_3" data-name="Polygon Copy 3" d="M91,0l78.808,43.75v87.5L91,175,12.192,131.25V43.75Z" transform="translate(1186 343)" fill="#333645"/>
    <path id="Shape" d="M97.936,72a23.135,23.135,0,0,1-9.974-43.973L84.444,15.951,61.289,52.9a3.719,3.719,0,0,1-3.168,1.756c-.077,0-.148,0-.217-.006l-12.34-.716a23.265,23.265,0,0,1-8,12.9,23.11,23.11,0,1,1-7.551-40.015l4.148-8.2-1.5-2.479a3.764,3.764,0,0,1-.415-.977h-.673a3.752,3.752,0,0,1,0-7.5h9.014A3.753,3.753,0,0,1,42.972,14.3l33.417-.485h.084a3.529,3.529,0,0,1,.452.031L80.9,7.5H71.123a3.752,3.752,0,0,1,0-7.5H86.558A3.751,3.751,0,0,1,89.4,6.192l5.749,19.733a22.84,22.84,0,0,1,2.789-.175,23.125,23.125,0,0,1,0,46.25ZM90.105,35.379a15.561,15.561,0,1,0,7.831-2.125c-.231,0-.458.008-.649.016l4.24,14.553a3.742,3.742,0,1,1-7.183,2.1ZM23.064,33.254A15.621,15.621,0,1,0,37.948,53.5l-15.1-.877a3.751,3.751,0,0,1-3.121-5.441l6.836-13.523A15.516,15.516,0,0,0,23.064,33.254Zm15.673-7.085-2.052,4.06A23.2,23.2,0,0,1,46,46.447l5.208.3Zm-5.5,10.886-4.248,8.4L38.376,46A15.689,15.689,0,0,0,33.233,37.056ZM72.2,21.381l-27.369.4,13.334,22Z" transform="translate(1217 395)" fill="#fff"/>
  </g>
</svg>
