<svg xmlns="http://www.w3.org/2000/svg" width="25" height="24" viewBox="0 0 25 24">
  <g id="mysql-plain_copy" data-name="mysql-plain copy" transform="translate(0)">
    <path id="Shape" d="M25,24h0a.625.625,0,0,1-.432-.271.673.673,0,0,0-.14-.147l-.069-.05c-.342-.247-.73-.527-1.084-.747a8.663,8.663,0,0,0-1.046-.526,9.507,9.507,0,0,1-1-.5c-.319-.191-.63-.422-.93-.645L20.141,21a4.223,4.223,0,0,1-.89-1.024,1.309,1.309,0,0,1-.106-.231.834.834,0,0,0-.164-.3c.031-.23.258-.291.478-.35a1.8,1.8,0,0,0,.218-.068,7.344,7.344,0,0,1,2.847-.462c.141,0,.289,0,.441.006-.033-.268-.563-.586-.914-.8-.1-.06-.187-.112-.247-.153l-.333-.232c-.443-.31-.9-.63-1.369-.907a4.529,4.529,0,0,0-.757-.309c-.148-.051-.288-.1-.4-.146-.143-.059-.341-.119-.55-.181a2.73,2.73,0,0,1-1.191-.54A10.667,10.667,0,0,1,16.061,13.2L16,13.072c-.169-.375-.362-.768-.55-1.147-.208-.422-.424-.858-.611-1.282-.073-.165-.131-.325-.187-.48a4.986,4.986,0,0,0-.276-.659,14.935,14.935,0,0,0-5.3-5.693A10.011,10.011,0,0,0,6.642,2.669a5.937,5.937,0,0,0-1.663-.2H4.631c-.169-.107-.32-.216-.467-.322-.119-.086-.232-.167-.345-.241a9.452,9.452,0,0,0-1.664-.827A2.662,2.662,0,0,0,1.313.869.4.4,0,0,0,1.072.93a.3.3,0,0,0-.232.228c-.128.19-.017.481.077.683a4.017,4.017,0,0,0,.61.89c.106.127.215.258.318.4l.118.16A7.136,7.136,0,0,1,2.7,4.421a12.094,12.094,0,0,1,.546,1.5,12.67,12.67,0,0,0,.5,1.388A5.949,5.949,0,0,0,4.36,8.367a2.113,2.113,0,0,0,.239.252,1.253,1.253,0,0,1,.38.507c.167.258-.122,1-.313,1.484-.048.122-.089.227-.113.3a7.062,7.062,0,0,0,.155,4.44l.046.109c.189.449.385.912.883,1.03l.017-.014a.044.044,0,0,1,.023-.012l.037-.012c.023-.18.042-.359.062-.533a7.013,7.013,0,0,1,.4-1.971,3,3,0,0,1,.493-.724,4.59,4.59,0,0,0,.32-.414.575.575,0,0,1,.2.387,1.433,1.433,0,0,0,.068.22l.125.286c.191.437.388.89.61,1.308a22.771,22.771,0,0,0,1.9,3.037,8.681,8.681,0,0,0,.889.992.962.962,0,0,0,.144.108.616.616,0,0,1,.242.242h-.043v.02a2.688,2.688,0,0,1-.7-.559,4.75,4.75,0,0,0-.473-.427,9.089,9.089,0,0,1-2.141-2.239c-.254-.5-.467-.945-.65-1.365V14.78a.293.293,0,0,0-.142.288.73.73,0,0,1-.02.167,6.28,6.28,0,0,0-.126.681c-.089.608-.173,1.182-.732,1.406a1.049,1.049,0,0,1-.39.078c-.715,0-1.222-.8-1.389-1.065a7.18,7.18,0,0,1-.5-5.578,4.368,4.368,0,0,0,.111-.456,2.075,2.075,0,0,1,.275-.8.628.628,0,0,0-.26-.4,1.133,1.133,0,0,1-.165-.167A7.853,7.853,0,0,1,3.2,7.912,12.493,12.493,0,0,1,2.531,6.28c-.071-.2-.145-.407-.22-.606a3.434,3.434,0,0,1-.115-.39A2.544,2.544,0,0,0,2.039,4.8a5.813,5.813,0,0,0-.662-1c-.065-.085-.129-.169-.189-.251s-.147-.188-.242-.3C.46,2.656-.275,1.765.105.854A1.335,1.335,0,0,1,1.45,0,6.393,6.393,0,0,1,4.283,1.044a2.735,2.735,0,0,1,.313.244,1.922,1.922,0,0,0,.46.325l1.276.076.277.063.008,0A6.805,6.805,0,0,1,8.5,2.372a16.938,16.938,0,0,1,6.575,6.223,7.67,7.67,0,0,1,.581,1.245c.084.213.172.433.269.652.48,1.078.948,2.048,1.391,2.884.074.141.143.288.208.43a4.148,4.148,0,0,0,.485.86.917.917,0,0,0,.42.216,1.877,1.877,0,0,1,.233.088c.218.108.454.209.681.306a8.216,8.216,0,0,1,1.088.528A25.175,25.175,0,0,1,23.2,17.854a4.553,4.553,0,0,1,.812.986v.152c-.147.056-.357.114-.561.169l-.212.059a5.673,5.673,0,0,1-.832.132,5.358,5.358,0,0,0-.83.134l-.2.055a6.648,6.648,0,0,1-.955.21l.041.038c.16.438.84.83,1.387,1.144.208.12.405.233.551.335a8.155,8.155,0,0,1,1.786,1.669l.519.493a.851.851,0,0,1,.094.2.655.655,0,0,0,.207.328V24ZM5.946,5.709h0l-.386-.8c-.085-.12-.188-.245-.288-.365s-.187-.227-.254-.322H4.979V4.193a2.8,2.8,0,0,1,.648-.076h.049a1.542,1.542,0,0,0,.194.147,1.025,1.025,0,0,1,.27.232.875.875,0,0,1,.081.155.593.593,0,0,0,.111.186.919.919,0,0,1-.348.835l-.037.035Z" fill="#00618a"/>
  </g>
</svg>
