<?xml version="1.0" encoding="UTF-8"?>
<svg xmlns="http://www.w3.org/2000/svg" xmlns:xlink="http://www.w3.org/1999/xlink" width="4pt" height="8pt" viewBox="0 0 4 8" version="1.1">
<g id="surface1">
<path style=" stroke:none;fill-rule:nonzero;fill:rgb(16.470588%,17.254902%,22.352941%);fill-opacity:1;" d="M 3.453125 1.816406 L 3.453125 6 C 3.453125 6.804688 2.804688 7.453125 2 7.453125 C 1.195312 7.453125 0.546875 6.804688 0.546875 6 L 0.546875 1.453125 C 0.546875 0.953125 0.953125 0.546875 1.453125 0.546875 C 1.957031 0.546875 2.363281 0.953125 2.363281 1.453125 L 2.363281 5.273438 C 2.359375 5.46875 2.195312 5.625 2 5.625 C 1.804688 5.625 1.640625 5.46875 1.636719 5.273438 L 1.636719 1.816406 L 1.089844 1.816406 L 1.089844 5.273438 C 1.089844 5.773438 1.496094 6.183594 2 6.183594 C 2.503906 6.183594 2.910156 5.773438 2.910156 5.273438 L 2.910156 1.453125 C 2.910156 0.652344 2.257812 0 1.453125 0 C 0.652344 0 0 0.652344 0 1.453125 L 0 6 C 0 7.105469 0.894531 8 2 8 C 3.105469 8 4 7.105469 4 6 L 4 1.816406 Z M 3.453125 1.816406 "/>
</g>
</svg>
