<?xml version="1.0" encoding="UTF-8"?>
<svg xmlns="http://www.w3.org/2000/svg" xmlns:xlink="http://www.w3.org/1999/xlink" width="11pt" height="22pt" viewBox="0 0 11 22" version="1.1">
<g id="surface1">
<path style=" stroke:none;fill-rule:nonzero;fill:rgb(16.470588%,17.254902%,22.352941%);fill-opacity:1;" d="M 9.5 5 L 9.5 16.5 C 9.5 18.710938 7.710938 20.5 5.5 20.5 C 3.289062 20.5 1.5 18.710938 1.5 16.5 L 1.5 4 C 1.5 2.621094 2.621094 1.5 4 1.5 C 5.382812 1.5 6.5 2.621094 6.5 4 L 6.5 14.5 C 6.484375 15.042969 6.042969 15.472656 5.5 15.472656 C 4.957031 15.472656 4.515625 15.042969 4.5 14.5 L 4.5 5 L 3 5 L 3 14.5 C 3 15.882812 4.121094 17 5.5 17 C 6.878906 17 8 15.882812 8 14.5 L 8 4 C 8 1.789062 6.210938 0 4 0 C 1.789062 0 0 1.789062 0 4 L 0 16.5 C 0 19.539062 2.460938 22 5.5 22 C 8.539062 22 11 19.539062 11 16.5 L 11 5 Z M 9.5 5 "/>
</g>
</svg>
