<svg xmlns="http://www.w3.org/2000/svg" width="25" height="17.969" viewBox="0 0 25 17.969">
  <path id="Shape" d="M14.231,17.969H11.318l1.743-8.314A17.7,17.7,0,0,1,11,6.253V7.511a5.558,5.558,0,0,1-5.5,5.6A5.557,5.557,0,0,1,0,7.511V0H2.85V7.511a2.653,2.653,0,1,0,5.3,0V0H11a23.717,23.717,0,0,0,2.8,6.222c.838-2.887,2.906-4.611,5.531-4.611a5.75,5.75,0,0,1,0,11.5A6.968,6.968,0,0,1,15.5,11.939l-1.264,6.029ZM19.585,4.621c-2.106,0-2.789,2-3.009,3.2l-.008.043-.241,1.124a5.219,5.219,0,0,0,3.258,1.283,2.824,2.824,0,1,0,0-5.648Z" transform="translate(0 0)" fill="#000"/>
</svg>
