<svg xmlns="http://www.w3.org/2000/svg" width="45" height="45" viewBox="0 0 45 45">
    <g fill="none" fill-rule="evenodd">
        <path fill="#173A56" d="M22.26 44.52c12.294 0 22.26-9.966 22.26-22.26C44.52 9.966 34.554 0 22.26 0 9.966 0 0 9.966 0 22.26c0 12.294 9.966 22.26 22.26 22.26z"/>
        <g fill="#FFF" fill-rule="nonzero" transform="translate(12 11)">
            <path d="M4.595 7.054l-.703.026c-.971.002-1.759.789-1.76 1.76v1.408c.001.972.789 1.76 1.76 1.76h.265c.049.51.143 1.013.283 1.505l.677-.193c-.159-.556-.255-1.129-.288-1.706l-.234-4.56zm-1.759 3.194V8.84c0-.582.473-1.055 1.056-1.056h.036l.18 3.52h-.216c-.583 0-1.055-.473-1.056-1.056zM14.925 16.813l-.535-.457c-.263.309-.553.593-.868.85-.5.42-1.057.767-1.655 1.031-.82.357-1.753.357-2.574 0-.597-.264-1.154-.611-1.655-1.032l-.578.27v1.165c0 .7-.113 1.394-.334 2.058-.061.184.039.383.224.445.035.011.073.017.11.017h7.04c.195 0 .352-.157.352-.352 0-.037-.006-.074-.018-.11-.22-.664-.333-1.359-.334-2.058v-1.008c.296-.25.572-.525.825-.819zm-7.394 3.643c.155-.593.233-1.203.233-1.816v-.46c.392.272.81.507 1.245.701 1 .443 2.142.443 3.142 0 .436-.194.853-.428 1.245-.7v.46c0 .612.079 1.222.233 1.815H7.531zM15.064 10.776l.185-.679c-.983-.266-2.019-.266-3.001 0l.185.68c.861-.234 1.77-.234 2.63 0zM8.95 13.794l-.26.653.092.037c.573.226 1.183.341 1.798.34.383 0 .765-.043 1.137-.13l-.162-.686c-.836.194-1.71.132-2.511-.177l-.093-.037zM15.748 8.23c-1.137-1.055-2.817-1.057-3.994-.004l.469.525c.915-.818 2.167-.82 3.046-.005l.479-.515zM5.413 8.23l.479.516c.878-.815 2.13-.813 3.046.005l.469-.525c-1.178-1.053-2.858-1.051-3.994.005zM10.228 8.84L10.932 8.84 10.932 12.712 10.228 12.712z"/>
            <circle cx="7.412" cy="10.248" r="1"/>
            <path d="M20.788 13.064H17.32l-3.47-1.04c-.149-.045-.309.012-.394.141l-.314.47c-.6.9-.6 2.071 0 2.97l.314.47c.085.13.245.187.393.143l1.292-.388 2.179-.654h3.468c.195 0 .352-.157.352-.352v-1.408c0-.194-.157-.352-.352-.352zm-3.872 1.499l-1.64.492-.022-.073c-.048-.16-.037-.332.03-.485.164-.364.164-.78 0-1.144-.023-.056-.037-.115-.04-.176l1.672.501v.885zm-3.188.652c-.442-.663-.442-1.526 0-2.189l.169-.253.652.195c-.034.23-.001.463.094.674.08.18.08.386 0 .566-.138.308-.16.654-.063.976l.022.073-.705.211-.17-.253zm6.708-.743H17.62v-.704h2.816v.704zM.372 16.76H3.85l.662.166c.028.007.056.01.085.01h2.746c.427 0 .774-.346.774-.774v-1.267c0-.428-.347-.774-.774-.775H4.596c-.032 0-.064.005-.095.014l-.657.184H.372c-.194 0-.352.158-.352.352v1.738c0 .195.158.352.352.352zm7.04-1.865v1.267c0 .039-.031.07-.07.07h-.986v-1.408h.986c.039 0 .07.032.07.07zm-6.688.127h3.168c.032 0 .064-.004.095-.013l.658-.185h1.007v1.408H4.64l-.662-.165c-.028-.007-.057-.01-.086-.01H.724v-1.035zM.372 6.728h1.433l4.432-.317c.348-.027.68-.162.949-.387h.93c.267 0 .511-.153.629-.393l1.893-.315c.17-.029.294-.175.294-.348v-.704c0-.172-.124-.318-.294-.347l-1.893-.315c-.021-.043-.047-.083-.076-.12.62-.181 1.264-.273 1.911-.274.954-.005 1.898.193 2.77.58.591.257 1.136.609 1.614 1.042.818.75 1.347 1.672 1.53 2.672.01.052-.18 4.36-.191 4.471l.965.035c.972 0 1.76-.788 1.76-1.76V8.84c0-.971-.788-1.758-1.76-1.76h-.016l.016-.352C17.305 3.05 14.353.038 10.675 0 8.517-.02 6.483 1.003 5.215 2.75L1.78 2.503H.372c-.194 0-.352.158-.352.352v3.52c0 .195.158.352.352.352zM13.41 3.05c-.314-.128-.637-.234-.966-.317l.702-1.404c.435.207.843.465 1.215.77l-.951.951zm-1.68-.46c-.265-.04-.53-.065-.797-.077V.763c.53.031 1.055.133 1.558.302l-.762 1.524zm-1.5-.077c-.267.012-.533.037-.797.076L8.67 1.065c.504-.17 1.028-.27 1.558-.302v1.75zm-1.512.22c-.329.083-.651.189-.965.317l-.957-.957c.374-.302.784-.558 1.22-.762l.702 1.402zM7.412 5.32V3.912h.704V5.32h-.704zm2.816-.65l-1.408.235v-.577l1.408.234v.108zm5.473-.1l.323-.324c.182.4.319.817.41 1.245-.213-.33-.458-.64-.733-.922zm2.623 4.27v1.408c0 .583-.473 1.056-1.056 1.056h-.216l.166-3.52h.05c.583.001 1.056.474 1.056 1.056zM15.676 3.6l-.495.494c-.339-.279-.704-.523-1.092-.729l.793-.792c.3.312.567.657.794 1.026zM6.279 2.572l.32.32c-.118-.037-.24-.06-.362-.07l-.173-.013c.069-.08.14-.16.215-.237zm-5.555.635h1.031l4.432.316c.189.014.37.082.521.196v1.793c-.151.114-.332.182-.521.196l-4.055.29V4.264h-.704v1.76H.724V3.208z"/>
        </g>
    </g>
</svg>
