<svg xmlns="http://www.w3.org/2000/svg" width="71.177" height="20.214" viewBox="0 0 71.177 20.214"><defs><style>.a{fill:#fff;}.b{fill:#ef4335;}</style></defs><g transform="translate(-21 -235.9)"><path class="a" d="M177,235.9h3.274v20.214H177Z" transform="translate(-137.494)"/><path class="a" d="M233.968,298.36a3.175,3.175,0,0,1-3.416,3.417c-1.993,0-2.278-1.851-2.278-2.847V291.1H225v7.687a6.011,6.011,0,0,0,1.708,4.555,5.153,5.153,0,0,0,3.844,1.424,4.97,4.97,0,0,0,3.416-1.139v1.139h3.274V291.1h-3.274Z" transform="translate(-179.8 -48.652)"/><path class="a" d="M339.894,249.1H336.62v4.982H334.2v3.132h2.42v10.534h3.274V257.214h2.42v-3.132h-2.42Z" transform="translate(-276.046 -11.634)"/><path class="a" d="M417.08,298.522a4.494,4.494,0,0,1-2.7,1,3.777,3.777,0,0,1-3.844-3.986,3.661,3.661,0,0,1,3.844-3.844,3.758,3.758,0,0,1,2.7,1l.427.427,2.278-2.135-.569-.427a7.3,7.3,0,0,0-4.84-1.851,6.975,6.975,0,1,0,0,13.951,7.3,7.3,0,0,0,4.84-1.851l.569-.427-2.278-2.278Z" transform="translate(-340.562 -46.536)"/><path class="a" d="M534.965,243.587a4.518,4.518,0,0,0-3.559-1.424,4.282,4.282,0,0,0-3.132,1.139v-7.4H525v20.214h3.274V248.57c0-3.132,2.135-3.416,2.989-3.416,1.993,0,1.851,1.851,1.851,2.847v7.972h3.274v-7.829A6.483,6.483,0,0,0,534.965,243.587Z" transform="translate(-444.211 0)"/><circle class="b" cx="2.278" cy="2.278" r="2.278" transform="translate(71.393 246.861)"/><path class="a" d="M34.951,256.394a6.675,6.675,0,0,1-4.7,1.851c-3.559,0-6.121-2.847-6.121-6.691s2.562-6.691,6.264-6.691a6.7,6.7,0,0,1,4.7,1.993l.427.427,2.135-2.135-.427-.427a9.587,9.587,0,0,0-6.833-2.847c-5.409-.142-9.4,4.128-9.4,9.68s3.986,9.822,9.253,9.822a9.349,9.349,0,0,0,6.833-2.847l.427-.427-2.135-2.135Z" transform="translate(0 -5.263)"/></g></svg>