<svg xmlns="http://www.w3.org/2000/svg" width="111.8" height="111.8" viewBox="0 0 111.8 111.8"><defs><style>.a{fill:#fff;stroke:#173a56;stroke-width:0.5px;stroke-dasharray:3.5;fill-rule:evenodd;}.b{fill:#173a56;}</style></defs><g transform="translate(0.25 0.25)"><path class="a" d="M55.65,111.3A55.65,55.65,0,1,0,0,55.65,55.65,55.65,0,0,0,55.65,111.3Z"/><g transform="translate(30.947 29)"><path class="b" d="M52.426,21.373A1.027,1.027,0,0,1,51.4,20.346V13.321a1.027,1.027,0,0,1,2.055,0v7.025A1.027,1.027,0,0,1,52.426,21.373Z" transform="translate(-15.179 -3.874)"/><circle class="b" cx="1.027" cy="1.027" r="1.027" transform="translate(36.214 5.114)"/><g transform="translate(1.053)"><path class="b" d="M47.032,10.793A10.785,10.785,0,0,0,29.688,2.224H3.792A3.743,3.743,0,0,0,.053,5.963V43.334a3.743,3.743,0,0,0,3.739,3.739h3.26v1.788A3.743,3.743,0,0,0,10.79,52.6H37.651a3.743,3.743,0,0,0,3.739-3.739V34.611a1.027,1.027,0,0,0-2.055,0V48.861a1.686,1.686,0,0,1-1.684,1.684H10.79a1.686,1.686,0,0,1-1.684-1.684V47.073H30.652a3.743,3.743,0,0,0,3.739-3.739V21.427a10.83,10.83,0,0,0,4.944-.293v4.189a1.027,1.027,0,1,0,2.055,0V20.276a10.8,10.8,0,0,0,5.643-9.483Zm-14.7,32.541a1.686,1.686,0,0,1-1.684,1.684H3.792a1.686,1.686,0,0,1-1.684-1.684V5.963A1.686,1.686,0,0,1,3.792,4.278H27.643a10.736,10.736,0,0,0-2.183,6.059H7.966a1.027,1.027,0,0,0-1.027,1.027V15.7a1.027,1.027,0,0,0,1.027,1.027H26.478a1.022,1.022,0,0,0,.621-.209,10.854,10.854,0,0,0,5.237,4.333ZM25.451,12.392v2.284H8.993V12.392Zm10.791,7.139a8.738,8.738,0,1,1,8.736-8.738A8.747,8.747,0,0,1,36.242,19.531Z" transform="translate(-0.053)"/><path class="b" d="M58.436,44.284a1.027,1.027,0,1,1,1-.794,1.037,1.037,0,0,1-1,.794Z" transform="translate(-18.127 -13.307)"/></g><g transform="translate(7.939 20.304)"><path class="b" d="M19.6,2.15H1.084a1.027,1.027,0,1,1,0-2.055H19.6a1.027,1.027,0,1,1,0,2.055Z" transform="translate(-0.057 -0.095)"/><path class="b" d="M19.6,9.264H1.084a1.027,1.027,0,1,1,0-2.055H19.6a1.027,1.027,0,1,1,0,2.055Z" transform="translate(-0.057 -2.337)"/><path class="b" d="M19.6,16.379H1.084a1.027,1.027,0,1,1,0-2.055H19.6a1.027,1.027,0,0,1,0,2.055Z" transform="translate(-0.057 -4.579)"/><path class="b" d="M19.6,23.493H1.084a1.027,1.027,0,1,1,0-2.055H19.6a1.027,1.027,0,0,1,0,2.055Z" transform="translate(-0.057 -6.82)"/></g></g></g></svg>