<svg xmlns="http://www.w3.org/2000/svg" width="111.8" height="111.8" viewBox="0 0 111.8 111.8"><defs><style>.a{fill:#fff;stroke:#173a56;stroke-width:0.5px;stroke-dasharray:3.5;fill-rule:evenodd;}.b{fill:#173a56;}</style></defs><g transform="translate(0.25 0.25)"><path class="a" d="M55.65,111.3A55.65,55.65,0,1,0,0,55.65,55.65,55.65,0,0,0,55.65,111.3Z"/><g transform="translate(34.167 34.336)"><path class="b" d="M69.447,15.36a2.886,2.886,0,1,0,2.886,2.886A2.889,2.889,0,0,0,69.447,15.36Zm0,4.33a1.443,1.443,0,1,1,1.443-1.443A1.445,1.445,0,0,1,69.447,19.69Z" transform="translate(-29.036 -6.701)"/><path class="b" d="M2.886,57.6a2.886,2.886,0,1,0,2.886,2.886A2.889,2.889,0,0,0,2.886,57.6Zm0,4.33A1.443,1.443,0,1,1,4.33,60.486,1.445,1.445,0,0,1,2.886,61.93Z" transform="translate(0 -25.127)"/><path class="b" d="M63.58,14.6l-6.225-3.005a.721.721,0,1,0-.627,1.3L62.953,15.9a.722.722,0,0,0,.627-1.3Z" transform="translate(-24.569 -5.025)"/><path class="b" d="M55.366,66.56a2.886,2.886,0,1,0,2.886,2.887A2.889,2.889,0,0,0,55.366,66.56Zm0,4.33a1.443,1.443,0,1,1,1.443-1.443A1.445,1.445,0,0,1,55.366,70.89Z" transform="translate(-22.894 -29.036)"/><path class="b" d="M49.5,65.8l-6.225-3.005a.722.722,0,1,0-.627,1.3L48.873,67.1a.72.72,0,0,0,.963-.336A.722.722,0,0,0,49.5,65.8Z" transform="translate(-18.426 -27.36)"/><path class="b" d="M36.166,34.56a2.886,2.886,0,1,0,2.886,2.886A2.889,2.889,0,0,0,36.166,34.56Zm0,4.33a1.443,1.443,0,1,1,1.443-1.443A1.445,1.445,0,0,1,36.166,38.89Z" transform="translate(-14.518 -15.076)"/><path class="b" d="M31.547,33.32l-4.782-3.727a.722.722,0,0,0-.888,1.139l4.782,3.727a.722.722,0,1,0,.888-1.139Z" transform="translate(-11.168 -12.843)"/><path class="b" d="M55.3,33.28a7.938,7.938,0,1,0,7.938,7.938A7.947,7.947,0,0,0,55.3,33.28Zm0,14.432a6.495,6.495,0,1,1,6.495-6.495A6.5,6.5,0,0,1,55.3,47.712Z" transform="translate(-20.66 -14.518)"/><path class="b" d="M59.206,38.4a2.886,2.886,0,1,0,2.886,2.886A2.889,2.889,0,0,0,59.206,38.4Zm0,4.33a1.443,1.443,0,1,1,1.443-1.443A1.445,1.445,0,0,1,59.206,42.73Z" transform="translate(-24.569 -16.752)"/><path class="b" d="M60.183,51.2H56a2.209,2.209,0,0,0-2.236,2.176v1.9a.722.722,0,0,0,.36.625,7.9,7.9,0,0,0,7.939,0,.721.721,0,0,0,.36-.624v-1.9A2.209,2.209,0,0,0,60.183,51.2Zm.793,3.648a6.543,6.543,0,0,1-5.773,0V53.376A.766.766,0,0,1,56,52.643h4.187a.766.766,0,0,1,.793.733v1.471Z" transform="translate(-23.452 -22.335)"/><path class="b" d="M24.578,48.64a7.938,7.938,0,1,0,7.938,7.938A7.947,7.947,0,0,0,24.578,48.64Zm0,14.432a6.495,6.495,0,1,1,6.495-6.495A6.5,6.5,0,0,1,24.578,63.072Z" transform="translate(-7.259 -21.219)"/><path class="b" d="M28.486,53.76a2.886,2.886,0,1,0,2.886,2.886A2.889,2.889,0,0,0,28.486,53.76Zm0,4.33a1.443,1.443,0,1,1,1.443-1.443A1.445,1.445,0,0,1,28.486,58.09Z" transform="translate(-11.168 -23.452)"/><path class="b" d="M29.463,66.56H25.276a2.209,2.209,0,0,0-2.236,2.176v1.9a.722.722,0,0,0,.36.625,7.9,7.9,0,0,0,7.939,0,.721.721,0,0,0,.36-.624v-1.9A2.209,2.209,0,0,0,29.463,66.56Zm.793,3.648a6.543,6.543,0,0,1-5.773,0V68.736A.766.766,0,0,1,25.276,68h4.187a.766.766,0,0,1,.793.733v1.471Z" transform="translate(-10.051 -29.036)"/><path class="b" d="M7.938,16.64a7.938,7.938,0,1,0,7.938,7.938A7.947,7.947,0,0,0,7.938,16.64Zm0,14.432a6.495,6.495,0,1,1,6.494-6.495A6.5,6.5,0,0,1,7.938,31.072Z" transform="translate(0 -7.259)"/><path class="b" d="M11.847,21.76a2.886,2.886,0,1,0,2.886,2.886A2.889,2.889,0,0,0,11.847,21.76Zm0,4.33a1.443,1.443,0,1,1,1.443-1.443A1.445,1.445,0,0,1,11.847,26.09Z" transform="translate(-3.909 -9.493)"/><path class="b" d="M12.823,34.56H8.636A2.209,2.209,0,0,0,6.4,36.736v1.9a.722.722,0,0,0,.36.625,7.9,7.9,0,0,0,7.939,0,.721.721,0,0,0,.36-.624v-1.9A2.209,2.209,0,0,0,12.823,34.56Zm.793,3.648a6.543,6.543,0,0,1-5.773,0V36.736A.766.766,0,0,1,8.636,36h4.187a.766.766,0,0,1,.793.733v1.471Z" transform="translate(-2.792 -15.076)"/><path class="b" d="M38.658,0A7.938,7.938,0,1,0,46.6,7.938,7.947,7.947,0,0,0,38.658,0Zm0,14.432a6.495,6.495,0,1,1,6.495-6.494A6.5,6.5,0,0,1,38.658,14.432Z" transform="translate(-13.401 0)"/><path class="b" d="M42.567,5.12a2.886,2.886,0,1,0,2.886,2.887A2.889,2.889,0,0,0,42.567,5.12Zm0,4.33A1.443,1.443,0,1,1,44.01,8.006,1.445,1.445,0,0,1,42.567,9.45Z" transform="translate(-17.31 -2.234)"/><path class="b" d="M43.543,17.92H39.356A2.209,2.209,0,0,0,37.12,20.1V22a.722.722,0,0,0,.36.625,7.9,7.9,0,0,0,7.939,0,.721.721,0,0,0,.36-.624V20.1A2.209,2.209,0,0,0,43.543,17.92Zm.793,3.648a6.543,6.543,0,0,1-5.773,0V20.1a.766.766,0,0,1,.793-.733h4.187a.766.766,0,0,1,.793.733v1.471Z" transform="translate(-16.193 -7.817)"/><path class="b" d="M28.122,13.052a.723.723,0,0,0-1.017-.079l-5,4.279a.721.721,0,1,0,.938,1.1l5-4.279A.721.721,0,0,0,28.122,13.052Z" transform="translate(-9.532 -5.584)"/><path class="b" d="M56.829,29.1,52.5,23.33a.721.721,0,0,0-1.155.865l4.33,5.773a.721.721,0,0,0,1.155-.865Z" transform="translate(-22.335 -10.052)"/><path class="b" d="M46.555,51.37a.722.722,0,0,0-1.01-.144l-4.031,3.023A.721.721,0,0,0,42.38,55.4l4.031-3.023A.721.721,0,0,0,46.555,51.37Z" transform="translate(-17.984 -22.283)"/><path class="b" d="M13.453,61.44H8.4a.722.722,0,1,0,0,1.443h5.051a.722.722,0,1,0,0-1.443Z" transform="translate(-3.35 -26.803)"/><path class="b" d="M11.846,0a2.886,2.886,0,1,0,2.886,2.886A2.889,2.889,0,0,0,11.846,0Zm0,4.33A1.443,1.443,0,1,1,13.29,2.886,1.445,1.445,0,0,1,11.846,4.33Z" transform="translate(-3.909)"/><path class="b" d="M13.522,7.68A.721.721,0,0,0,12.8,8.4v5.051a.722.722,0,1,0,1.443,0V8.4A.721.721,0,0,0,13.522,7.68Z" transform="translate(-5.584 -3.35)"/></g></g></svg>