<svg xmlns="http://www.w3.org/2000/svg" width="111.8" height="111.8" viewBox="0 0 111.8 111.8"><defs><style>.a{fill:#fff;stroke:#173a56;stroke-width:0.5px;stroke-dasharray:3.5;fill-rule:evenodd;}.b{fill:#173a56;}</style></defs><g transform="translate(-0.75 -0.75)"><path class="a" d="M55.65,111.3A55.65,55.65,0,1,0,0,55.65,55.65,55.65,0,0,0,55.65,111.3Z" transform="translate(1 1)"/><g transform="translate(31.654 30.801)"><path class="b" d="M38.666,7.258a2.458,2.458,0,1,0-2.458,2.458A2.461,2.461,0,0,0,38.666,7.258Zm-3.277,0a.819.819,0,1,1,.819.819A.82.82,0,0,1,35.389,7.258Z" transform="translate(-10.659 -1.523)"/><path class="b" d="M6.179,48.328a2.459,2.459,0,1,0,3.358.9A2.463,2.463,0,0,0,6.179,48.328Zm1.639,2.839a.819.819,0,1,1,.3-1.119A.819.819,0,0,1,7.818,51.167Z" transform="translate(-1.524 -15.226)"/><path class="b" d="M66.237,48.328a2.459,2.459,0,0,0-2.458,4.259h0a2.458,2.458,0,0,0,2.457-4.259Zm-.519,2.539a.819.819,0,1,1-.3-1.119A.818.818,0,0,1,65.719,50.867Z" transform="translate(-19.796 -15.226)"/><path class="b" d="M48.081,30.264a5.73,5.73,0,0,0-7.576,1.7l-5.944-2.973v-7.18l9.08-4.541a4.057,4.057,0,0,0,2.15,1.436,4.1,4.1,0,1,0-2.9-5.017,4.05,4.05,0,0,0,.015,2.115l-8.347,4.175V14.748H26.368V11.405a5.735,5.735,0,1,0-1.639,0v3.343H16.536v5.228L8.188,15.8a4.083,4.083,0,0,0-5-5.011,4.1,4.1,0,1,0,4.27,6.477l9.081,4.54v7.18L10.592,31.96a5.725,5.725,0,1,0,.735,1.464l5.209-2.6v5.23h8.193v6.637a4.1,4.1,0,1,0,1.639,0V36.051h8.193v-5.23l5.208,2.6a5.736,5.736,0,1,0,8.312-3.161Zm-3.6-16.152a2.458,2.458,0,1,1,.246,1.865A2.444,2.444,0,0,1,44.477,14.112ZM21.452,5.735a4.1,4.1,0,1,1,4.1,4.1,4.1,4.1,0,0,1-4.1-4.1ZM6.374,15.977a2.456,2.456,0,1,1,.246-1.865A2.46,2.46,0,0,1,6.374,15.977Zm1.558,22.8a4.1,4.1,0,1,1,1.5-5.6A4.1,4.1,0,0,1,7.932,38.779ZM28.007,46.7a2.458,2.458,0,1,1-2.458-2.458A2.461,2.461,0,0,1,28.007,46.7Zm4.916-12.29H18.175V16.387H32.923Zm15.839,2.867a4.1,4.1,0,1,1-1.5-5.6A4.1,4.1,0,0,1,48.761,37.279Z" transform="translate(0)"/><path class="b" d="M40.421,36H35.5v1.639H32.227v1.639H28.95v4.916H40.421Zm-9.832,4.916h1.639v1.639H30.589Zm3.277,1.639V39.277H35.5v3.277Zm4.916,0H37.143V37.639h1.639Z" transform="translate(-9.137 -11.42)"/><path class="b" d="M28.95,26.4h1.639v1.639H28.95Z" transform="translate(-9.137 -8.374)"/><path class="b" d="M33.75,26.4h8.193v1.639H33.75Z" transform="translate(-10.659 -8.374)"/><path class="b" d="M28.95,31.2H40.421v1.639H28.95Z" transform="translate(-9.137 -9.897)"/></g></g></svg>