<svg xmlns="http://www.w3.org/2000/svg" width="111.8" height="111.8" viewBox="0 0 111.8 111.8"><defs><style>.a{fill:#fff;stroke:#173a56;stroke-width:0.5px;stroke-dasharray:3.5;fill-rule:evenodd;}.b{fill:#173a56;}</style></defs><g transform="translate(0.25 0.25)"><path class="a" d="M55.65,111.3A55.65,55.65,0,1,0,0,55.65,55.65,55.65,0,0,0,55.65,111.3Z"/><g transform="translate(33.605 34.148)"><path class="b" d="M42.457,17.655H37.044a.846.846,0,0,0-.846.846v4.271a.846.846,0,0,0,1.692,0V19.347h3.721V41.611H37.89v-12.5a.846.846,0,1,0-1.692,0v12.5H34.507V24.1a.846.846,0,0,0-.846-.846H28.248a.846.846,0,0,0-.846.846V41.611H25.711V30.024a.846.846,0,0,0-.846-.846H19.452a.846.846,0,0,0-.846.846V41.611H16.915V34.877a.846.846,0,0,0-.846-.846H10.656a.846.846,0,0,0-.846.846v6.734H2.537a.847.847,0,0,1-.846-.846V2.537a.847.847,0,0,1,.846-.846H24.356V7.274a2.54,2.54,0,0,0,2.537,2.537h5.582v10.4a.846.846,0,1,0,1.692,0V8.965a.846.846,0,0,0-.248-.6L25.8.248A.846.846,0,0,0,25.2,0H2.537A2.54,2.54,0,0,0,0,2.537V40.765A2.54,2.54,0,0,0,2.537,43.3h39.92a.846.846,0,0,0,.846-.846V18.5A.846.846,0,0,0,42.457,17.655ZM26.047,2.888,31.279,8.12H26.893a.847.847,0,0,1-.846-.846ZM15.224,41.611H11.5V35.723h3.721Zm8.8,0H20.3V30.87H24.02Zm8.8,0H29.094V24.95h3.721Z"/><path class="b" d="M35.765,23.9a.845.845,0,1,0,.248.6A.849.849,0,0,0,35.765,23.9Z" transform="translate(1.877 1.293)"/><path class="b" d="M12.077,4.389a.846.846,0,0,0-.846.846V6.756a7.779,7.779,0,1,0,8.579,8.579h1.521a.846.846,0,0,0,.846-.846A10.112,10.112,0,0,0,12.077,4.389Zm0,16.188A6.088,6.088,0,0,1,11.231,8.46v6.029a.846.846,0,0,0,.846.846h6.029A6.1,6.1,0,0,1,12.077,20.576Zm.846-6.933h0V6.122a8.425,8.425,0,0,1,7.521,7.521Z" transform="translate(0.235 0.24)"/><path class="b" d="M21.33,23.6H5.176a.846.846,0,0,0,0,1.692H21.33a.846.846,0,0,0,0-1.692Z" transform="translate(0.237 1.29)"/><path class="b" d="M10.589,27.465H5.176a.846.846,0,0,0,0,1.692h5.413a.846.846,0,0,0,0-1.692Z" transform="translate(0.237 1.502)"/><path class="b" d="M14.922,27.713a.845.845,0,1,0,.248.6A.853.853,0,0,0,14.922,27.713Z" transform="translate(0.737 1.502)"/></g></g></svg>