<svg xmlns="http://www.w3.org/2000/svg" xmlns:xlink="http://www.w3.org/1999/xlink" width="1468.001" height="429" viewBox="0 0 1468.001 429"><defs><style>.a{fill:#fff;stroke:#707070;}.b{fill:#bcd0e5;}.b,.d{opacity:0.1;}.c{clip-path:url(#a);}.d{fill:#647b8e;}.e{fill:#173a56;}.f{clip-path:url(#b);}.g{clip-path:url(#c);}.h,.i{stroke:none;}.i{fill:rgba(228,228,228,0.1);}</style><clipPath id="a"><rect class="a" width="275" height="336" transform="translate(1165 3057)"/></clipPath><clipPath id="b"><rect class="a" width="172" height="177" transform="translate(-0.237 3353)"/></clipPath><clipPath id="c"><rect class="a" width="54" height="36" transform="translate(465 3057)"/></clipPath></defs><g transform="translate(0.001 10)"><g class="b" transform="translate(18)"><path class="h" d="M0,0H1440V409H0Z"/><path class="i" d="M 0 0 L 0 409 L 1440 409 L 1440 0 L 0 0 M -10 -10 L 0 -10 L 1440 -10 L 1450 -10 L 1450 0 L 1450 409 L 1450 419 L 1440 419 L 0 419 L -10 419 L -10 409 L -10 0 L -10 -10 Z"/></g><g class="c" transform="translate(18 -3057)"><path class="d" d="M-415.581,223.857c13.112,19.691,29.384,38.6,47.4,55.99.816.807,1.67,1.623,2.52,2.43,2.567,2.434,5.215,4.873,7.863,7.217,4.566,4.189,9.268,8.242,14.051,12.128,2.52,2.135,5.121,4.232,7.688,6.278,29.807,23.577,61.667,44.2,93.063,59.744,9.733,4.873,19.471,9.224,29.08,12.982,50.145,19.862,96.821,24.517,129.024,4.826a77,77,0,0,0,25.971-26.43q1.666-2.761,3.331-5.509c10.289-17.214,20.116-34.505,28.743-51.89,2.05-4.057,3.968-8.067,5.847-12.128C10.308,222.234,22.228,154.163-22.146,87.2-39.4,61.157-67.721,40.872-101.713,26.519a280.369,280.369,0,0,0-30.328-10.847c-5.168-1.623-10.374-3.032-15.713-4.309Q-157.818,8.8-168.211,6.875c-5.3-1.021-10.592-1.917-15.93-2.69q-3.331-.442-6.663-.9A403.58,403.58,0,0,0-238.428.047C-240.517,0-242.61,0-244.664,0c-9.609.047-19.129.427-28.525,1.2-2.52.171-5.04.384-7.559.679C-328.711,6.538-372.7,20.285-402.6,43.093a117.238,117.238,0,0,0-17.468,16.228c-.944,1.068-1.841,2.135-2.691,3.241-.3.342-.559.683-.854,1.029a114.424,114.424,0,0,0-14.867,24c-19.005,41.381-7.9,87.028,18.583,129.561C-418.485,219.416-417.08,221.641-415.581,223.857Z" transform="matrix(-0.899, 0.438, -0.438, -0.899, 1325.383, 3436.301)"/><path class="e" d="M-416.076,220.437c12.911,19.39,28.935,38.015,46.678,55.135.8.795,1.644,1.6,2.481,2.393,2.528,2.4,5.135,4.8,7.743,7.107,4.5,4.125,9.126,8.116,13.837,11.943,2.481,2.1,5.043,4.167,7.57,6.182,29.351,23.217,60.725,43.528,91.641,58.831,9.585,4.8,19.174,9.083,28.636,12.784,49.378,19.558,95.342,24.142,127.052,4.752a75.827,75.827,0,0,0,25.575-26.026q1.64-2.719,3.28-5.425c10.131-16.951,19.809-33.978,28.3-51.1,2.019-3.995,3.907-7.944,5.758-11.943,30.827-66.232,42.565-133.263-1.131-199.2C-45.643,60.223-73.531,40.248-107,26.114a276.086,276.086,0,0,0-29.864-10.681c-5.089-1.6-10.215-2.986-15.473-4.243q-9.911-2.523-20.145-4.42c-5.219-1.005-10.43-1.888-15.687-2.649q-3.28-.435-6.561-.883A397.414,397.414,0,0,0-241.63.046C-243.687,0-245.747,0-247.77,0c-9.463.046-18.837.421-28.089,1.182-2.481.168-4.963.378-7.444.669-47.229,4.588-90.548,18.124-119.987,40.584a115.446,115.446,0,0,0-17.2,15.98c-.929,1.051-1.813,2.1-2.65,3.192-.294.336-.551.673-.841,1.013a112.674,112.674,0,0,0-14.64,23.633c-18.715,40.748-7.776,85.7,18.3,127.582C-418.936,216.064-417.552,218.255-416.076,220.437Z" transform="translate(1428.029 2821.154) rotate(-65)"/><path class="d" d="M-441.768,43.035A66.049,66.049,0,0,0-432.655,53.8c.157.155.321.312.484.467.493.468,1,.937,1.512,1.387.878.805,1.782,1.584,2.7,2.332.484.41.984.814,1.478,1.207a103.061,103.061,0,0,0,17.891,11.485c1.871.937,3.743,1.773,5.591,2.5,9.64,3.818,18.613,4.713,24.8.928A14.8,14.8,0,0,0-373.2,69.02l.64-1.059c1.978-3.309,3.867-6.633,5.526-9.976.394-.78.763-1.551,1.124-2.332,6.018-12.93,8.31-26.016-.221-38.889-3.317-5.007-8.761-8.907-15.3-11.666a53.9,53.9,0,0,0-5.83-2.085c-.993-.312-1.994-.583-3.021-.828q-1.935-.493-3.933-.863c-1.019-.2-2.036-.369-3.063-.517l-1.281-.172a77.586,77.586,0,0,0-9.156-.623c-.4-.009-.8-.009-1.2-.009-1.847.009-3.677.082-5.484.231-.484.033-.969.074-1.453.131-9.22.9-17.677,3.538-23.425,7.923a22.538,22.538,0,0,0-3.358,3.12c-.182.205-.354.41-.517.623-.057.066-.108.131-.164.2a22,22,0,0,0-2.858,4.614c-3.654,7.955-1.518,16.73,3.572,24.907C-442.326,42.181-442.056,42.609-441.768,43.035Z" transform="translate(1641.02 3240.65) rotate(-2)"/></g><g class="f" transform="translate(0.236 -3121)"><path class="d" d="M11.373,78.528A120.522,120.522,0,0,0,28,98.169c.286.283.586.569.884.852.9.854,1.829,1.709,2.758,2.532,1.6,1.47,3.251,2.891,4.929,4.254.884.749,1.8,1.485,2.7,2.2a188.059,188.059,0,0,0,32.646,20.958c3.414,1.709,6.83,3.236,10.2,4.554,17.59,6.967,33.964,8.6,45.261,1.693a27.013,27.013,0,0,0,9.111-9.271q.584-.968,1.169-1.932c3.609-6.039,7.057-12.1,10.083-18.2.719-1.423,1.392-2.83,2.051-4.254,10.982-23.594,15.163-47.473-.4-70.963C143.335,21.454,133.4,14.338,121.476,9.3A98.353,98.353,0,0,0,110.837,5.5c-1.813-.569-3.639-1.064-5.512-1.512q-3.531-.9-7.176-1.574c-1.859-.358-3.715-.673-5.588-.944q-1.168-.155-2.337-.315A141.574,141.574,0,0,0,73.517.016C72.784,0,72.05,0,71.329,0c-3.371.016-6.71.15-10.006.421-.884.06-1.768.135-2.652.238C41.846,2.294,26.415,7.116,15.927,15.117A41.123,41.123,0,0,0,9.8,20.809c-.331.375-.646.749-.944,1.137-.1.12-.2.24-.3.361a40.14,40.14,0,0,0-5.215,8.419C-3.326,45.243.57,61.255,9.859,76.176,10.354,76.97,10.847,77.75,11.373,78.528Z" transform="matrix(-0.766, 0.643, -0.643, -0.766, 157.707, 3482.927)"/></g><g class="g" transform="translate(18 -3057)"><path class="d" d="M-445.541,16.978a26.055,26.055,0,0,0,3.6,4.246c.062.061.127.123.191.184.195.185.4.37.6.547.346.318.7.625,1.066.92.191.162.388.321.583.476a40.657,40.657,0,0,0,7.058,4.531c.738.37,1.477.7,2.205.985,3.8,1.506,7.343,1.859,9.785.366a5.84,5.84,0,0,0,1.97-2l.253-.418c.78-1.306,1.526-2.617,2.18-3.935.155-.308.3-.612.443-.92,2.374-5.1,3.278-10.264-.087-15.342a13.266,13.266,0,0,0-6.034-4.6,21.261,21.261,0,0,0-2.3-.823c-.392-.123-.787-.23-1.192-.327q-.763-.194-1.552-.34c-.4-.077-.8-.145-1.208-.2l-.505-.068A30.607,30.607,0,0,0-432.106,0c-.158,0-.317,0-.473,0-.729,0-1.451.032-2.163.091-.191.013-.382.029-.573.051a18.452,18.452,0,0,0-9.241,3.126A8.893,8.893,0,0,0-445.881,4.5c-.072.081-.14.162-.2.246-.023.026-.042.052-.065.078a8.677,8.677,0,0,0-1.128,1.82c-1.441,3.138-.6,6.6,1.409,9.826C-445.762,16.641-445.655,16.81-445.541,16.978Z" transform="translate(165.008 2780.27) rotate(-137)"/></g></g></svg>