<svg xmlns="http://www.w3.org/2000/svg" width="35.56" height="34.413" viewBox="0 0 35.56 34.413"><defs><style>.a{fill:#3d5a72;}</style></defs><g transform="translate(0 -0.005)"><g transform="translate(0 0.005)"><path class="a" d="M2.868,30.977H17.78V29.83H2.868a1.721,1.721,0,0,1-1.721-1.721V2.873A1.721,1.721,0,0,1,2.868,1.152H28.1a1.72,1.72,0,0,1,1.721,1.721V16.064h1.147V2.873A2.871,2.871,0,0,0,28.1.005H2.868A2.871,2.871,0,0,0,0,2.873V28.109A2.872,2.872,0,0,0,2.868,30.977Z" transform="translate(0 -0.005)"/><path class="a" d="M2.618,2.624H3.765V3.771H2.618Z" transform="translate(-0.324 -0.329)"/><path class="a" d="M5.236,2.624H6.384V3.771H5.236Z" transform="translate(-0.648 -0.329)"/><path class="a" d="M7.855,2.624H9V3.771H7.855Z" transform="translate(-0.972 -0.329)"/><path class="a" d="M2.618,5.242H29V6.389H2.618Z" transform="translate(-0.324 -0.653)"/><path class="a" d="M8.519,8.052,7.063,9.509a2.877,2.877,0,1,0,.811.811L9.33,8.863ZM5.483,13.619a1.72,1.72,0,1,1,0-3.441,1.69,1.69,0,0,1,.737.172L5.078,11.492l.811.811,1.143-1.142A1.689,1.689,0,0,1,7.2,11.9,1.72,1.72,0,0,1,5.483,13.619Z" transform="translate(-0.322 -1.001)"/><path class="a" d="M11.127,10.478h9.75v1.147h-9.75Z" transform="translate(-1.377 -1.301)"/><path class="a" d="M11.127,13.1h4.015v1.147H11.127Z" transform="translate(-1.377 -1.625)"/><path class="a" d="M17.018,13.1h8.03v1.147h-8.03Z" transform="translate(-2.106 -1.625)"/><path class="a" d="M23.564,10.478H29.3v1.147H23.564Z" transform="translate(-2.916 -1.301)"/><path class="a" d="M8.519,15.906,7.063,17.363a2.877,2.877,0,1,0,.811.811L9.33,16.717ZM5.483,21.474a1.721,1.721,0,0,1,0-3.441,1.691,1.691,0,0,1,.737.172L5.078,19.347l.811.811,1.143-1.142a1.69,1.69,0,0,1,.172.737A1.721,1.721,0,0,1,5.483,21.474Z" transform="translate(-0.322 -1.973)"/><path class="a" d="M11.127,18.333h9.75V19.48h-9.75Z" transform="translate(-1.377 -2.273)"/><path class="a" d="M11.127,20.951h4.015V22.1H11.127Z" transform="translate(-1.377 -2.598)"/><path class="a" d="M17.018,20.951h4.588V22.1H17.018Z" transform="translate(-2.106 -2.598)"/><path class="a" d="M23.564,18.333h2.294V19.48H23.564Z" transform="translate(-2.916 -2.273)"/><path class="a" d="M8.519,23.761,7.063,25.218a2.877,2.877,0,1,0,.811.811L9.33,24.572ZM5.483,29.328a1.721,1.721,0,0,1,0-3.441,1.688,1.688,0,0,1,.737.172L5.078,27.2l.811.811,1.143-1.142a1.691,1.691,0,0,1,.172.737A1.721,1.721,0,0,1,5.483,29.328Z" transform="translate(-0.322 -2.945)"/><path class="a" d="M11.127,26.188h7.456v1.147H11.127Z" transform="translate(-1.377 -3.246)"/><path class="a" d="M11.127,28.806h4.015v1.147H11.127Z" transform="translate(-1.377 -3.57)"/><path class="a" d="M17.018,28.806h2.294v1.147H17.018Z" transform="translate(-2.106 -3.57)"/><path class="a" d="M29.549,36.849a8.6,8.6,0,1,0-8.6-8.6A8.6,8.6,0,0,0,29.549,36.849Zm0-16.06a7.456,7.456,0,1,1-7.456,7.456A7.456,7.456,0,0,1,29.549,20.789Z" transform="translate(-2.592 -2.436)"/><path class="a" d="M26.627,29.153l-1.027.513,1.147,2.294a.573.573,0,0,0,.421.31.647.647,0,0,0,.089.007.575.575,0,0,0,.406-.168l6.882-6.883-.811-.811-6.32,6.32Z" transform="translate(-3.168 -3.026)"/></g></g></svg>