<svg xmlns="http://www.w3.org/2000/svg" width="241.506" height="278.867" viewBox="0 0 241.506 278.867"><defs><style>.a{fill:#329eff;stroke:rgba(246,247,251,0.1);stroke-width:25px;}.a,.b{stroke-miterlimit:10;}.b{fill:none;stroke:#fff;stroke-width:2px;}.c{fill:#fff;}</style></defs><g transform="translate(12.5 14.434)"><path class="a" d="M125,0,233.253,62.5v125L125,250,16.747,187.5V62.5Z" transform="translate(-16.747)"/><g transform="translate(70.264 89)"><path class="b" d="M80,67a5,5,0,0,1-5,5H7.085C3.172,72,0,68.363,0,63.876V8.124C0,3.637,3.172,0,7.085,0h65.83C76.828,0,80,3.637,80,8.124V67Z"/><path class="c" d="M6,3A3,3,0,1,1,3,0,3,3,0,0,1,6,3" transform="translate(49 5)"/><path class="c" d="M3,6A3,3,0,1,1,6,3,3,3,0,0,1,3,6Z" transform="translate(58 5)"/><path class="c" d="M6,3A3,3,0,1,1,3,0,3,3,0,0,1,6,3" transform="translate(68 5)"/><path class="b" d="M0,1.627H78" transform="translate(2 14)"/><path class="c" d="M28.813,40H.907a.912.912,0,0,1,0-1.824H27.353L29.6,26.87s0-.008,0-.02.012-.049.019-.073a.254.254,0,0,1,.01-.028c.006-.019.013-.038.02-.057l.01-.022.007-.014.021-.044.013-.021.013-.021.01-.017.01-.017c.007-.011.015-.022.023-.033l.012-.016.011-.014.007-.009c.012-.015.025-.029.042-.048l.019-.021,1.959-1.969H.907a.913.913,0,0,1,0-1.825h32.72l6.413-6.448,7.261-7.3H.907a.913.913,0,0,1,0-1.825H49.117L55.867.267a.9.9,0,0,1,1.283,0L66.734,9.9a.917.917,0,0,1,0,1.291l-7.486,7.5L53.812,24.16,41.323,36.715l-.606.608,0,0,0,0c-.019.018-.037.035-.057.051l-.012.009-.012.009-.005,0-.043.032-.032.02-.043.025a.471.471,0,0,1-.043.021.275.275,0,0,1-.037.017c-.018.008-.036.014-.054.021l-.015.005-.015,0c-.023.007-.046.013-.07.018l-.01,0-.01,0C40.141,37.6,29.053,40,28.813,40Zm2.122-11.026-.915,4.561,3.325,3.315,4.575-.913-1.829-1.823L32.764,30.8Zm24.156-12.6h0L47.25,24.188l-6.3,6.28L37.92,33.491l1.789,1.784,12.4-12.361,4.774-4.759-1.789-1.783Zm-3.463-3.151h0L34.76,30.038l2.092,2.086,2.977-2.968,6.188-6.17,7.7-7.679-2.092-2.086Zm-2.857-3.15h0l-7.665,7.641-6.65,6.63L31.6,27.19l1.789,1.784,17.17-17.12-1.788-1.783Zm7.494-7.877h0L50.559,7.883l2.5,2.494,3.511,3.5,2.5,2.495,5.705-5.689L56.265,2.194Z" transform="translate(8 23)"/></g></g></svg>