<svg xmlns="http://www.w3.org/2000/svg" width="241.506" height="278.867" viewBox="0 0 241.506 278.867"><defs><style>.a{fill:#6e56c5;stroke:rgba(246,247,251,0.1);stroke-miterlimit:10;stroke-width:25px;}.b{fill:#fff;}</style></defs><g transform="translate(-530.247 -312.566)"><path class="a" d="M125,0,233.253,62.5v125L125,250,16.747,187.5V62.5Z" transform="translate(526 327)"/><g transform="translate(684 488) rotate(180)"><path class="b" d="M10.211,70.993,1.005,61.788a3.443,3.443,0,0,1,0-4.863L23.627,34.3l-20.5-20.5A7.548,7.548,0,1,1,13.8,3.131l20.5,20.5L36.334,21.6a1.111,1.111,0,0,1,1.571,1.572L35.873,25.2,46.8,36.125l2.183-2.183-2.6-2.6a1.111,1.111,0,0,1,1.571-1.571l2.6,2.6,2.581-2.58-5.919-5.919A1.111,1.111,0,1,1,48.787,22.3l5.919,5.919,2.58-2.581-2.6-2.6a1.111,1.111,0,0,1,1.571-1.571l2.6,2.6,2.58-2.581-2.6-2.6a1.111,1.111,0,0,1,1.571-1.571l2.6,2.6,2.581-2.581-5.918-5.918a1.111,1.111,0,1,1,1.571-1.571l5.918,5.918L69.422,13.5a1.216,1.216,0,0,0,0-1.72L60.217,2.577a1.218,1.218,0,0,0-1.72,0L41.166,19.908a1.111,1.111,0,0,1-1.571-1.571L56.926,1.005a3.444,3.444,0,0,1,4.864,0l9.205,9.205a3.443,3.443,0,0,1,0,4.863L48.37,37.7l16.6,16.6a1.125,1.125,0,0,1,.249.382L70.438,68.1a1.8,1.8,0,0,1-1.68,2.456,1.783,1.783,0,0,1-.652-.122L54.679,65.221a1.12,1.12,0,0,1-.383-.249L42.948,53.626a1.111,1.111,0,1,1,1.572-1.571l10.561,10.56,2.98-2.98L23,24.578a1.111,1.111,0,0,1,1.571-1.572L36.3,34.727c.012.01.023.02.034.031l6.635,6.635c.011.011.02.022.03.033L59.633,58.063l2.98-2.98L46.121,38.592a.979.979,0,0,1-.217-.217L33.518,25.988l0,0L21.761,14.232l-2.98,2.981,1.842,1.842a1.111,1.111,0,0,1-1.571,1.571l-1.843-1.842-2.98,2.98L38.308,45.841A1.112,1.112,0,0,1,38.5,46a1.071,1.071,0,0,1,.154.193l2.224,2.224a1.111,1.111,0,1,1-1.571,1.571l-1.612-1.611L15.074,70.993a3.44,3.44,0,0,1-4.864,0Z"/></g></g></svg>