<svg xmlns="http://www.w3.org/2000/svg" width="241.506" height="278.867" viewBox="0 0 241.506 278.867"><defs><style>.a{fill:#d55a76;stroke:rgba(246,247,251,0.1);stroke-width:25px;}.a,.b,.d{stroke-miterlimit:10;}.b,.d{fill:none;stroke:#fff;stroke-width:2px;}.c{fill:#fff;}.d{stroke-linecap:square;}</style></defs><g transform="translate(-850.247 -312.566)"><path class="a" d="M125,0,233.253,62.5v125L125,250,16.747,187.5V62.5Z" transform="translate(846 327)"/><g transform="translate(928 502) rotate(-90)"><path class="b" d="M37.5,76C58.211,76,75,58.987,75,38S58.211,0,37.5,0,0,17.013,0,38" transform="translate(15.5 0.5)"/><path class="b" d="M22.5,45A22.5,22.5,0,1,0,0,22.5" transform="translate(30 16)"/><circle class="c" cx="9" cy="9" r="9" transform="translate(43 30)"/><g transform="translate(37.196 39.535) rotate(45)"><path class="c" d="M11.667,0,23.333,33.571H0Z" transform="translate(0.959 0.133)"/><rect class="c" width="6.667" height="23.5" transform="translate(8.117 27.969)"/></g><path class="d" d="M.3.625H11.616" transform="translate(87 38)"/><path class="d" d="M.3.625H11.616" transform="translate(6 38)"/></g></g></svg>