<svg xmlns="http://www.w3.org/2000/svg" width="241.506" height="278.867" viewBox="0 0 241.506 278.867"><defs><style>.a{fill:#ffc27b;stroke:rgba(246,247,251,0.1);stroke-width:25px;}.a,.b,.c{stroke-miterlimit:10;}.b,.c{fill:none;stroke:#fff;}.b{stroke-width:2px;}.c{stroke-width:4px;}</style></defs><g transform="translate(-1169.247 -312.566)"><path class="a" d="M125,0,233.253,62.5v125L125,250,16.747,187.5V62.5Z" transform="translate(1165 327)"/><g transform="translate(1251 411)"><path class="b" d="M6.219,0A9.964,9.964,0,0,0,8.437,6.5,8.52,8.52,0,0,0,4.371,13C1.7,14.545,0,17.166,0,21.236,0,28.637,5.6,38,12.5,38S25,28.637,25,21.236c0-4.13-1.747-6.775-4.49-8.306A8.522,8.522,0,0,0,16.454,6.5,9.957,9.957,0,0,0,18.673,0" transform="translate(24 16.5)"/><path class="b" d="M0,1H6" transform="translate(18 39.5)"/><path class="b" d="M0,1H6" transform="translate(49 39.5)"/><path class="b" d="M6,13A17,17,0,0,1,0,0" transform="translate(18 22.5)"/><path class="b" d="M6,0A17.005,17.005,0,0,1,0,13" transform="translate(49 22.5)"/><path class="b" d="M8,0C3.184,1.7,0,4.647,0,8" transform="translate(19 47.5)"/><path class="b" d="M8,8C8,4.649,4.816,1.7,0,0" transform="translate(46 47.5)"/><path class="b" d="M62,30.5C62,47.344,48.12,61,31,61S0,47.344,0,30.5,13.88,0,31,0,62,13.655,62,30.5Z" transform="translate(6 7.5)"/><path class="c" d="M74,37A37,37,0,1,1,37,0,37,37,0,0,1,74,37Z" transform="translate(0 0.5)"/><path class="c" d="M0,0,16,16" transform="translate(60 65.5)"/><path class="b" d="M6,3A3,3,0,1,0,3,6,3,3,0,0,0,6,3Z" transform="translate(33 26.5)"/></g></g></svg>