<svg xmlns="http://www.w3.org/2000/svg" xmlns:xlink="http://www.w3.org/1999/xlink" width="81" height="72" viewBox="0 0 81 72"><defs><style>.a{fill:url(#a);}</style><linearGradient id="a" x1="0.5" x2="0.5" y2="1" gradientUnits="objectBoundingBox"><stop offset="0" stop-color="#d24f45"/><stop offset="1" stop-color="#ed4b49"/></linearGradient></defs><path class="a" d="M77,10H14a9.026,9.026,0,0,0-9,9V64a9.026,9.026,0,0,0,9,9H32v5.4H25.7a1.8,1.8,0,1,0,0,3.6H65.3a1.8,1.8,0,1,0,0-3.6H59V73H77a9.026,9.026,0,0,0,9-9V19A9.026,9.026,0,0,0,77,10ZM55.4,78.4H35.6V73H55.4Zm21.6-9H14A5.416,5.416,0,0,1,8.6,64H82.4A5.416,5.416,0,0,1,77,69.4Zm5.4-9H8.6V19A5.416,5.416,0,0,1,14,13.6H77A5.416,5.416,0,0,1,82.4,19ZM75.92,31.78l-29.7-13.5a2.231,2.231,0,0,0-1.53,0l-29.7,13.5a1.755,1.755,0,0,0,0,3.24L28.4,41.14V53.2A1.805,1.805,0,0,0,30.2,55H60.8a1.805,1.805,0,0,0,1.8-1.8V41.14L68,38.71V45.1a1.8,1.8,0,1,0,3.6,0V37l4.32-1.98a1.755,1.755,0,0,0,0-3.24ZM59,51.4H32v-9H59Zm0-12.6H32L20.12,33.4,45.5,21.88,70.88,33.4Z" transform="translate(-5 -10)"/></svg>