<svg xmlns="http://www.w3.org/2000/svg" xmlns:xlink="http://www.w3.org/1999/xlink" width="53.76" height="76.8" viewBox="0 0 53.76 76.8"><defs><style>.a{fill:url(#a);}</style><linearGradient id="a" y1="16.044" x2="0" y2="-26.209" gradientUnits="objectBoundingBox"><stop offset="0" stop-color="#d24f45"/><stop offset="1" stop-color="#ed4b49"/></linearGradient></defs><rect class="a" width="2.56" height="28.16" transform="translate(21.76 1.28)"/><path class="a" d="M50.676,34.094,38.312,19.168l-2,1.6L48.676,35.693a11.553,11.553,0,0,1,2.524,7.2V74.24H32.474A12.007,12.007,0,0,1,20.48,62.246V57.6H17.92v4.646A14.571,14.571,0,0,0,32.474,76.8H52.48a1.279,1.279,0,0,0,1.28-1.28V42.894A14.133,14.133,0,0,0,50.676,34.094Z"/><rect class="a" width="2.56" height="11.36" transform="translate(21.76 46.24)"/><path class="a" d="M32,0H6.4A6.407,6.407,0,0,0,0,6.4V52.48a6.407,6.407,0,0,0,6.4,6.4H27.774V56.32H6.4a3.845,3.845,0,0,1-3.84-3.84V6.4A3.845,3.845,0,0,1,6.4,2.56H32A3.845,3.845,0,0,1,35.84,6.4V43.52H38.4V6.4A6.407,6.407,0,0,0,32,0Z"/><path class="a" d="M18.875,30.186a3.341,3.341,0,0,1,2.35,1.052l17.2,18.278,1.865-1.755-17.2-18.28a5.887,5.887,0,0,0-4.14-1.855,5.812,5.812,0,0,0-4.224,1.6c-.014.014-.117.111-.129.125a5.909,5.909,0,0,0-.339,8.015L25.28,50.389v3.96a17.126,17.126,0,0,0,11.071,15.97l.9-2.4A14.556,14.556,0,0,1,27.84,54.349V49.92a1.285,1.285,0,0,0-.3-.828L16.213,35.72a3.379,3.379,0,0,1,.256-4.616A3.425,3.425,0,0,1,18.875,30.186Z"/><rect class="a" width="2.56" height="32" transform="translate(28.16 2.56)"/><rect class="a" width="2.56" height="16.64" transform="translate(6.4 6.4)"/><rect class="a" width="2.56" height="10.24" transform="translate(12.8 6.4)"/><path class="a" d="M15.36,42.24H7.68A1.28,1.28,0,0,0,6.4,43.52V51.2a1.28,1.28,0,0,0,1.28,1.28h7.68a1.28,1.28,0,0,0,1.28-1.28V43.52A1.28,1.28,0,0,0,15.36,42.24Zm-1.28,7.68H8.96V44.8h5.12Z"/></svg>