<svg xmlns="http://www.w3.org/2000/svg" width="20" height="19.167" viewBox="0 0 20 19.167">
  <path id="Fill_51_Copy" data-name="Fill 51 Copy" d="M10,0A9.914,9.914,0,0,0,0,9.826a9.844,9.844,0,0,0,6.839,9.323c.5.09.683-.213.683-.474,0-.233-.009-.851-.014-1.671-2.782.594-3.368-1.317-3.368-1.317A2.615,2.615,0,0,0,3.029,14.25c-.908-.609.069-.6.069-.6a2.1,2.1,0,0,1,1.532,1.013,2.151,2.151,0,0,0,2.91.816,2.087,2.087,0,0,1,.635-1.313c-2.22-.248-4.555-1.091-4.555-4.856A3.761,3.761,0,0,1,4.649,6.676a3.473,3.473,0,0,1,.1-2.6s.839-.264,2.75,1.007a9.628,9.628,0,0,1,5.007,0c1.909-1.272,2.747-1.007,2.747-1.007a3.474,3.474,0,0,1,.1,2.6,3.755,3.755,0,0,1,1.028,2.637c0,3.775-2.338,4.605-4.566,4.849a2.325,2.325,0,0,1,.678,1.819c0,1.314-.012,2.374-.012,2.7,0,.263.18.569.688.473A9.847,9.847,0,0,0,20,9.826,9.915,9.915,0,0,0,10,0" fill="#000"/>
</svg>
