<svg xmlns="http://www.w3.org/2000/svg" width="104.824" height="30" viewBox="0 0 104.824 30">
  <g id="logo_gauzy" opacity="0.5">
    <path id="Fill-1" d="M15.89,15.524H14.524a18.366,18.366,0,0,0-2.82.141V10.634a24.4,24.4,0,0,0,3.73.171h2.278c1.453,0,2.507-.029,3.761-.143a26.824,26.824,0,0,0-.2,3.866v3.185a28.917,28.917,0,0,0,.2,4.235,14.159,14.159,0,0,1-3.616,1.792,19.073,19.073,0,0,1-6.039.966c-3.616,0-6.435-.994-8.458-3.043C1.2,19.5,0,16.12,0,12.224,0,4.748,4.527,0,11.7,0c3.559,0,6.266,1.109,8.145,3.385a8.261,8.261,0,0,1,1.681,3.1L15.719,7.82a3.591,3.591,0,0,0-1.282-2.048,4.4,4.4,0,0,0-2.875-.882c-3.647,0-5.639,2.645-5.639,7.421,0,2.643.6,4.69,1.737,5.942a5.351,5.351,0,0,0,4.1,1.534,8.547,8.547,0,0,0,4.13-1.022Z" transform="translate(0 0.353)" fill="#fff"/>
    <path id="Fill-3" d="M6.271,17.294A6.79,6.79,0,0,1,1.514,15.81,4.836,4.836,0,0,1,0,12.141,4.531,4.531,0,0,1,2.009,8.2a11.681,11.681,0,0,1,5.72-1.754c1.054-.105,1.855-.134,3.878-.189V5.639c0-1.306-.806-1.889-2.614-1.889-1.765,0-2.694.565-3.106,1.889L.633,4.8A5.791,5.791,0,0,1,2.944,1.538,10.673,10.673,0,0,1,9.131,0,12.161,12.161,0,0,1,14.22.945c1.75.939,2.53,2.437,2.53,4.856v7.285a30.771,30.771,0,0,0,.192,3.831H11.606V15.675A8.111,8.111,0,0,1,6.271,17.294Zm5.335-7.581a16.723,16.723,0,0,0-4.757.538,2.018,2.018,0,0,0-1.595,1.782c0,.977.822,1.538,2.254,1.538a5.2,5.2,0,0,0,3.109-1.027,2.708,2.708,0,0,0,.989-2.077V9.714Z" transform="translate(25.765 7.765)" fill="#fff"/>
    <path id="Fill-5" d="M11.612,0h5.682a15.845,15.845,0,0,0-.22,3.018v8.369a26.225,26.225,0,0,0,.22,4.064H11.832V14.285a7.139,7.139,0,0,1,.027-.731,7.559,7.559,0,0,1-5.71,2.328,6.1,6.1,0,0,1-4.364-1.515A5.8,5.8,0,0,1,.22,9.816v-6.8A18.084,18.084,0,0,0,0,0H5.709a16.214,16.214,0,0,0-.22,3.018V8.57A3.062,3.062,0,0,0,5.929,10.6a2.164,2.164,0,0,0,1.784.757,4.472,4.472,0,0,0,4.118-2.179V3.018A23.872,23.872,0,0,0,11.612,0" transform="translate(45.882 0.706)" fill="#fff"/>
    <path id="Fill-7" d="M13.959.109V4.019c-1.025,1.086-1.806,1.9-2.29,2.471l-4.5,5.24c-.215.244-.3.352-.512.569a7.425,7.425,0,0,1,.809-.027H10.4a34.972,34.972,0,0,0,4.068-.19v4.86a33.376,33.376,0,0,0-4.1-.19H3.638c-2.156,0-2.775,0-3.638.083V12.706c1.051-1.031,1.725-1.764,2.291-2.415L6.656,5.132a6.969,6.969,0,0,1,.512-.57H4.581a35,35,0,0,0-4.068.189V0A36.536,36.536,0,0,0,4.581.192h5.686A36.412,36.412,0,0,0,13.959.109" transform="translate(67.765 7.765)" fill="#fff"/>
    <path id="Fill-9" d="M6.754,15.207,1.641,3.665C.466.93.355.684,0,0H5.933A18.206,18.206,0,0,0,7,3.528L9.517,9.847l2.432-6.209A16.417,16.417,0,0,0,13.125,0h5.933c-.684,1.423-.684,1.423-1.642,3.665L11.156,18.136c-1.093,2.571-3.063,3.747-6.179,3.747a16.391,16.391,0,0,1-3.745-.466l.6-4.348a4.172,4.172,0,0,0,2.133.6,2.32,2.32,0,0,0,2.213-1.286Z" transform="translate(85.412 8.118)" fill="#fff"/>
    <path id="Fill-12" d="M13.765,6.706H0A6.8,6.8,0,0,1,6.882,0a6.8,6.8,0,0,1,6.883,6.706" transform="translate(48.353 18.353)" fill="#fff"/>
    <path id="TM" d="M4.683,4.589H4.1V0h.747L6.286,3.744,7.72,0h.751V4.587H7.892V2.8L7.946.873,6.506,4.588H6.062L4.625.882,4.683,2.8V4.588Zm-2.7,0H1.408V.5H0V0H3.393V.5H1.983v4.09Z" transform="translate(96.353)" fill="#a9a9a9"/>
  </g>
</svg>
