<svg xmlns="http://www.w3.org/2000/svg" width="45" height="45" viewBox="0 0 45 45">
    <g fill="none" fill-rule="evenodd">
        <path fill="#173A56" d="M22.26 44.52c12.294 0 22.26-9.966 22.26-22.26C44.52 9.966 34.554 0 22.26 0 9.966 0 0 9.966 0 22.26c0 12.294 9.966 22.26 22.26 22.26z"/>
        <g fill="#FFF" fill-rule="nonzero">
            <path d="M10.04 14.107l-.106.042.3.749.106-.043c1.085-.434 2.435-.434 3.52 0l.106.043.3-.75-.107-.042c-1.273-.51-2.845-.509-4.118 0zM11.697 8.072L12.503 8.072 12.503 12.507 11.697 12.507z" transform="translate(10 10)"/>
            <path d="M23.39.008v7.4c0 .13-.021.258-.062.382l-1.918 5.752-2.991 4.683c-.093.146-.243.247-.414.277-.36.056-.697-.19-.753-.55-.022-.138.001-.28.066-.405.701-1.273 1.99-3.637 1.99-3.637.016-.027.027-.057.036-.087l.326-1.195 1.282-4.03-.769-.245-1.285 4.04h.003c-.001.006-.006.01-.007.015-.103.378-.492.6-.87.497-.026-.007-.052-.015-.077-.026-.317-.126-.498-.461-.431-.796l.625-3.125c.005-.026.007-.053.007-.08v-1.18c-.004-1.72.679-3.37 1.898-4.582.076-.076.118-.178.118-.285V.008h-.806v2.658c-.28.295-.534.613-.76.95C16.37.027 11.655-1.076 8.067 1.15c-1 .621-1.844 1.465-2.465 2.465-.227-.336-.481-.654-.76-.949V.008h-.807v2.823c0 .107.043.21.118.285 1.22 1.212 1.903 2.862 1.898 4.582v1.18c0 .027.003.054.008.08l.625 3.125c.067.335-.115.67-.432.797-.363.145-.775-.032-.92-.395-.01-.025-.02-.05-.026-.077l-.008-.015h.003l-1.285-4.04-.768.245 1.282 4.03.326 1.195c.008.03.02.06.035.087 0 0 1.29 2.364 1.99 3.637.156.282.08.63-.202.84-.139.104-.314.146-.485.115-.17-.03-.32-.13-.413-.277L2.79 13.542.873 7.79C.83 7.667.81 7.537.81 7.407V.008H.004v7.4c0 .216.035.431.104.637l1.933 5.8c.01.031.025.061.043.09l3.018 4.724c.215.335.558.565.95.637.082.015.166.022.25.022.319-.002.628-.107.881-.3.016-.013.029-.027.044-.04.03.033.056.069.086.1.232.256.485.491.755.706v1.53c0 .8-.13 1.596-.383 2.356-.07.211.045.44.256.51.041.013.084.02.127.02h8.064c.223 0 .403-.18.403-.403 0-.043-.007-.086-.02-.127-.253-.76-.382-1.556-.383-2.357v-1.53c.27-.212.521-.447.753-.701.031-.034.059-.07.09-.105.021.018.039.038.062.056.631.473 1.527.345 2-.286.022-.028.042-.058.061-.088l3.019-4.725c.018-.028.032-.058.042-.09l1.934-5.8c.068-.205.103-.42.103-.637V.008h-.806zm-5.355 4.598c-.105-.129-.213-.248-.323-.366l.2-.2c.074.12.145.243.213.369-.033.064-.06.131-.09.197zm-.593-1.236l-.308.307c-.3-.265-.623-.505-.962-.719l.445-.446c.3.262.575.549.825.858zm-8.677-.816l-.538-.538c.395-.272.817-.503 1.26-.687l.393.786c-.383.116-.756.263-1.115.44zm1.92-.632l-.426-.852c.47-.13.952-.208 1.438-.236V1.8c-.34.018-.677.059-1.011.123zM12.504.829c.488.027.971.107 1.442.237l-.43.856c-.334-.064-.672-.105-1.012-.123v-.97zm2.21.502c.444.182.868.41 1.264.682l-.542.542c-.36-.177-.732-.324-1.115-.44l.393-.784zM7.588 2.518l.44.44c-.34.213-.661.454-.962.72l-.303-.304c.153-.192.316-.377.489-.552.108-.108.223-.205.336-.304zm-1.3 1.522l.2.2c-.11.118-.219.238-.323.366-.03-.065-.057-.132-.09-.196.068-.126.138-.25.213-.37zm9.305 19.354H8.607c.178-.68.267-1.379.268-2.08v-.968c.198.115.401.219.61.312 1.665.74 3.566.74 5.23 0 .21-.093.413-.197.61-.311v.967c0 .701.09 1.4.268 2.08zm.695-4.854c-.529.59-1.176 1.06-1.9 1.38-1.457.645-3.118.645-4.575 0-.725-.32-1.374-.792-1.903-1.383-.074-.081-.142-.166-.211-.25.12-.375.08-.784-.11-1.129-.582-1.057-1.571-2.869-1.888-3.45.82.16 1.616-.375 1.776-1.196.038-.194.037-.394-.001-.587l-.273-1.366c.356.035.715.059 1.075.059.629 0 1.256-.054 1.876-.16l-.14-.795c-.983.167-1.987.19-2.978.066l-.177-.89v-.696c.91-.486 2.01-.604 3.126-.321l.198-.782c-1.172-.297-2.335-.213-3.345.22-.035-.602-.144-1.197-.325-1.772.201-.289.425-.561.668-.815l.071-.073c.021-.021.041-.042.082-.078.458-.446.977-.824 1.542-1.123.529-.285 1.094-.496 1.68-.628 1.017-.237 2.076-.237 3.093.001.585.132 1.15.343 1.677.628.567.3 1.088.68 1.547 1.129.054.05.104.1.16.16.238.249.457.516.654.8-.181.574-.29 1.169-.325 1.77-1.01-.432-2.173-.515-3.345-.219l.198.782c1.117-.283 2.217-.165 3.127.321v.696l-.186.928c-.857.074-1.72.04-2.568-.104l-.138.794c.612.106 1.232.159 1.853.158.23 0 .46-.009.688-.023l-.266 1.333c-.164.82.368 1.618 1.188 1.782.194.039.393.04.587.002-.317.58-1.306 2.392-1.889 3.45-.19.344-.23.752-.107 1.126-.071.085-.14.171-.216.255z" transform="translate(10 10)"/>
        </g>
    </g>
</svg>
