<svg xmlns="http://www.w3.org/2000/svg" width="44.52" height="44.52" viewBox="0 0 44.52 44.52">
  <g id="Group_3" data-name="Group 3" transform="translate(-1 1)">
    <circle id="Oval_Copy_10" data-name="Oval Copy 10" cx="22.26" cy="22.26" r="22.26" transform="translate(1 -1)" fill="#173a56"/>
    <path id="Shape" d="M22.227,24.438V22.253l-2.164-1.306a9.374,9.374,0,0,1-6.594,2.562,9.379,9.379,0,0,1-6.6-2.562L4.711,22.253v2.185a.866.866,0,0,1-.905.82.866.866,0,0,1-.906-.82V21.813a.8.8,0,0,1,.4-.681l2.459-1.485a10.039,10.039,0,0,1-1.48-3.228l-.8.726a.987.987,0,0,1-1.046.154L.5,16.425a.786.786,0,0,1-.4-1.1.952.952,0,0,1,1.215-.367l1.349.61,1.271-1.15c-.042-.44-.065-.89-.065-1.351a7.934,7.934,0,0,1,.344-2.308l-2.119.479A.934.934,0,0,1,1.013,10.7L.047,8.077A.8.8,0,0,1,.62,7.04a.929.929,0,0,1,1.146.518l.7,1.9,2.589-.586A8.807,8.807,0,0,1,6.313,7.27a.945.945,0,0,1,.513-.258,5.839,5.839,0,0,1,1.814-3.4L6.917,1.275A.773.773,0,0,1,7.168.138.965.965,0,0,1,8.424.366l1.641,2.227a7.288,7.288,0,0,1,6.808,0L18.514.366A.964.964,0,0,1,19.77.138a.773.773,0,0,1,.251,1.137L18.3,3.614a5.839,5.839,0,0,1,1.814,3.4.939.939,0,0,1,.513.259,8.762,8.762,0,0,1,1.257,1.6l2.589.586.7-1.9a.93.93,0,0,1,1.146-.518.8.8,0,0,1,.572,1.037L25.925,10.7a.934.934,0,0,1-1.079.535l-2.119-.479a7.934,7.934,0,0,1,.344,2.308c0,.461-.023.911-.065,1.351l1.271,1.15,1.349-.61a.952.952,0,0,1,1.215.367.786.786,0,0,1-.406,1.1L24.5,17.3a.987.987,0,0,1-1.046-.154l-.8-.726a10.039,10.039,0,0,1-1.48,3.228l2.459,1.485a.8.8,0,0,1,.4.681v2.625a.91.91,0,0,1-1.811,0Z" transform="translate(9.603 7.676)" fill="#fff"/>
  </g>
</svg>
