<svg xmlns="http://www.w3.org/2000/svg" width="49.707" height="52.707" viewBox="0 0 49.707 52.707">
  <g id="Group_23" data-name="Group 23" transform="translate(1 1)">
    <path id="Stroke_1" data-name="Stroke 1" d="M3.98,0A6.241,6.241,0,0,0,5.4,4.1a5.374,5.374,0,0,0-2.6,4.11,5.534,5.534,0,0,0-2.8,5.2C0,18.087,3.582,24,8,24s8-5.913,8-10.588a5.534,5.534,0,0,0-2.873-5.246,5.376,5.376,0,0,0-2.6-4.063A6.237,6.237,0,0,0,11.95,0" transform="translate(15 10)" fill="none" stroke="#2a2c39" stroke-miterlimit="10" stroke-width="1"/>
    <path id="Stroke_3" data-name="Stroke 3" d="M0,.5H4" transform="translate(11 25)" fill="none" stroke="#2a2c39" stroke-miterlimit="10" stroke-width="1"/>
    <path id="Stroke_5" data-name="Stroke 5" d="M0,.5H4" transform="translate(31 25)" fill="none" stroke="#2a2c39" stroke-miterlimit="10" stroke-width="1"/>
    <path id="Stroke_7" data-name="Stroke 7" d="M4,8A10.157,10.157,0,0,1,0,0" transform="translate(11 14)" fill="none" stroke="#2a2c39" stroke-miterlimit="10" stroke-width="1"/>
    <path id="Stroke_9" data-name="Stroke 9" d="M4,0A10.157,10.157,0,0,1,0,8" transform="translate(31 14)" fill="none" stroke="#2a2c39" stroke-miterlimit="10" stroke-width="1"/>
    <path id="Stroke_11" data-name="Stroke 11" d="M5,0C1.99,1.062,0,2.9,0,5" transform="translate(12 30)" fill="none" stroke="#2a2c39" stroke-miterlimit="10" stroke-width="1"/>
    <path id="Stroke_13" data-name="Stroke 13" d="M5,5C5,2.905,3.01,1.063,0,0" transform="translate(29 30)" fill="none" stroke="#2a2c39" stroke-miterlimit="10" stroke-width="1"/>
    <path id="Stroke_15" data-name="Stroke 15" d="M39,19.5A19.5,19.5,0,1,1,19.5,0,19.5,19.5,0,0,1,39,19.5Z" transform="translate(4 4)" fill="none" stroke="#2a2c39" stroke-miterlimit="10" stroke-width="1"/>
    <path id="Stroke_17" data-name="Stroke 17" d="M47,23.5A23.5,23.5,0,1,1,23.5,0,23.5,23.5,0,0,1,47,23.5Z" fill="none" stroke="#8f9bb3" stroke-miterlimit="10" stroke-width="2"/>
    <path id="Stroke_19" data-name="Stroke 19" d="M0,0,10,10" transform="translate(38 41)" fill="none" stroke="#8f9bb3" stroke-miterlimit="10" stroke-width="2"/>
    <path id="Stroke_21" data-name="Stroke 21" d="M4,2A2,2,0,1,0,2,4,2,2,0,0,0,4,2Z" transform="translate(21 16)" fill="none" stroke="#2a2c39" stroke-miterlimit="10" stroke-width="1"/>
  </g>
</svg>
