<svg xmlns="http://www.w3.org/2000/svg" width="37" height="33" viewBox="0 0 37 33"><defs><style>.a{fill:#3d5a72;}</style></defs><path class="a" d="M37.889,10H9.111A4.13,4.13,0,0,0,5,14.125V34.75a4.13,4.13,0,0,0,4.111,4.125h8.222V41.35H14.456a.825.825,0,0,0,0,1.65H32.544a.825.825,0,0,0,0-1.65H29.667V38.875h8.222A4.13,4.13,0,0,0,42,34.75V14.125A4.13,4.13,0,0,0,37.889,10ZM28.022,41.35H18.978V38.875h9.044Zm9.867-4.125H9.111A2.478,2.478,0,0,1,6.644,34.75H40.356A2.478,2.478,0,0,1,37.889,37.225ZM40.356,33.1H6.644V14.125A2.478,2.478,0,0,1,9.111,11.65H37.889a2.478,2.478,0,0,1,2.467,2.475ZM37.4,19.983,23.829,13.8a1.016,1.016,0,0,0-.7,0L9.563,19.983a.805.805,0,0,0,0,1.485l6.126,2.805V29.8a.826.826,0,0,0,.822.825H30.489a.826.826,0,0,0,.822-.825V24.272l2.467-1.114v2.929a.822.822,0,1,0,1.644,0V22.375l1.973-.907a.805.805,0,0,0,0-1.485Zm-7.729,8.992H17.333V24.85H29.667Zm0-5.775H17.333l-5.427-2.475L23.5,15.445l11.593,5.28Z" transform="translate(-5 -10)"/></svg>