<svg xmlns="http://www.w3.org/2000/svg" xmlns:xlink="http://www.w3.org/1999/xlink" width="96" height="96" viewBox="0 0 96 96"><defs><style>.a{fill:url(#a);}.b{fill:#fff;}</style><linearGradient id="a" x1="0.091" y1="0.265" x2="0.973" y2="0.721" gradientUnits="objectBoundingBox"><stop offset="0" stop-color="#647b8e"/><stop offset="1" stop-color="#173a56"/></linearGradient></defs><g transform="translate(-621.5 -347.5)"><circle class="a" cx="48" cy="48" r="48" transform="translate(621.5 347.5)"/><g transform="translate(640.959 385.194)"><g transform="translate(0 0)"><g transform="translate(0)"><g transform="translate(0)"><path class="b" d="M9.742,8.429l1.16,3.117A9.729,9.729,0,0,1,5.637,13.01C1.856,13.01,0,10.649,0,7.508A7.255,7.255,0,0,1,7.353,0c3.108,0,4.732,1.794,4.732,4.25a8.383,8.383,0,0,1-.742,3.235H4.129c-.023,1.157.765,2.031,2.343,2.031A6.839,6.839,0,0,0,9.742,8.429Zm-1.206-3.4a2.041,2.041,0,0,0,.116-.614c0-.685-.534-1.181-1.508-1.181A2.6,2.6,0,0,0,4.616,5.029Zm6.332,2.408.417-2.479c.116-.59.093-1.039-.417-1.039a2.841,2.841,0,0,0-1.137.26L14.219.59A7.779,7.779,0,0,1,17.1.118c1.995,0,3.224.968,2.737,3.731l-.51,2.881c-.209,1.346.093,2.054,1,2.054,1.322,0,2.157-1.039,2.157-4.061a18.389,18.389,0,0,0-.6-4.392H26.49A25.905,25.905,0,0,1,26.838,4.3c0,5.525-2.505,8.618-7.121,8.618C15.8,12.916,14.289,10.814,14.869,7.438Zm23.544.992,1.16,3.117a9.728,9.728,0,0,1-5.265,1.464c-3.781,0-5.637-2.361-5.637-5.5A7.255,7.255,0,0,1,36.023,0c3.108,0,4.732,1.794,4.732,4.25a8.383,8.383,0,0,1-.742,3.235H32.8c-.023,1.157.765,2.031,2.343,2.031A6.838,6.838,0,0,0,38.412,8.429Zm-1.206-3.4a2.042,2.042,0,0,0,.116-.614c0-.685-.534-1.181-1.508-1.181a2.6,2.6,0,0,0-2.528,1.794Zm5.753,7.65,1.322-7.721c.093-.59.093-1.039-.418-1.039a3.687,3.687,0,0,0-1.16.26L43.214.59a8.758,8.758,0,0,1,2.9-.472c1.392,0,2.413.519,2.714,1.771A3.515,3.515,0,0,1,51.912.118a4.229,4.229,0,0,1,2.041.5L52.724,4.77a5.1,5.1,0,0,0-2.2-.5,2.229,2.229,0,0,0-2.111,1.96L47.3,12.679Z" transform="translate(0)"/><g transform="translate(51.608 7.491)"><path class="b" d="M2.737,0A2.76,2.76,0,1,1,0,2.76,2.748,2.748,0,0,1,2.737,0Zm0,.368A2.392,2.392,0,1,0,5.109,2.76,2.382,2.382,0,0,0,2.737.368ZM1.992,1.2l.878,0a.974.974,0,0,1,.7.234.735.735,0,0,1,.2.633.841.841,0,0,1-.2.487A1.089,1.089,0,0,1,3.1,2.87l.453,1.243,0,.026h-.4L2.741,2.949H2.068l-.2,1.191H1.485Zm.323.319L2.122,2.632l.553,0a.768.768,0,0,0,.487-.155.6.6,0,0,0,.233-.413.478.478,0,0,0-.1-.4.533.533,0,0,0-.4-.152Z"/></g><g transform="translate(0 16.462)"><g transform="translate(0 0.146)"><rect class="b" width="5.312" height="0.765"/><ellipse class="b" cx="0.569" cy="0.574" rx="0.569" ry="0.574" transform="translate(0 3.061)"/><ellipse class="b" cx="0.569" cy="0.574" rx="0.569" ry="0.574" transform="translate(4.174 3.061)"/><rect class="b" width="3.794" height="0.765" transform="translate(0 1.53)"/></g><path class="b" d="M18.28,4.052a1.392,1.392,0,0,0,.673-.158,1.112,1.112,0,0,0,.452-.446,1.363,1.363,0,0,0,.16-.673h0v-1.5A1.351,1.351,0,0,0,19.405.6a1.112,1.112,0,0,0-.452-.446A1.392,1.392,0,0,0,18.28,0a1.375,1.375,0,0,0-.67.158A1.116,1.116,0,0,0,17.16.6a1.351,1.351,0,0,0-.16.667h0v1.5a1.363,1.363,0,0,0,.16.673,1.116,1.116,0,0,0,.45.446A1.376,1.376,0,0,0,18.28,4.052Zm0-.684a.463.463,0,0,1-.364-.155.586.586,0,0,1-.138-.4h0V1.249a.594.594,0,0,1,.138-.41A.463.463,0,0,1,18.28.684a.469.469,0,0,1,.37.155.594.594,0,0,1,.138.41h0v1.56a.586.586,0,0,1-.138.4A.469.469,0,0,1,18.28,3.368ZM21.659,4a.063.063,0,0,0,.047-.02.066.066,0,0,0,.019-.048h0V2.464a.025.025,0,0,1,.028-.028h.6a1.161,1.161,0,0,0,.587-.147,1.006,1.006,0,0,0,.4-.415,1.314,1.314,0,0,0,.141-.619,1.378,1.378,0,0,0-.141-.633,1.031,1.031,0,0,0-.4-.43A1.127,1.127,0,0,0,22.348.04H21.013a.063.063,0,0,0-.047.02.066.066,0,0,0-.019.048h0V3.933a.066.066,0,0,0,.019.048.063.063,0,0,0,.047.02h.645Zm.563-2.2h-.469a.025.025,0,0,1-.028-.028h0V.757a.025.025,0,0,1,.028-.028h.469a.437.437,0,0,1,.345.147.577.577,0,0,1,.13.4.557.557,0,0,1-.13.387.441.441,0,0,1-.345.144ZM27.056,4a.063.063,0,0,0,.047-.02.066.066,0,0,0,.019-.048h0V3.385a.066.066,0,0,0-.019-.048.063.063,0,0,0-.047-.02H25.578a.025.025,0,0,1-.028-.028h0v-.91a.025.025,0,0,1,.028-.028H26.5a.063.063,0,0,0,.047-.02.066.066,0,0,0,.019-.048h0V1.735a.066.066,0,0,0-.019-.048.063.063,0,0,0-.047-.02h-.921a.025.025,0,0,1-.028-.028h0V.757a.025.025,0,0,1,.028-.028h1.478A.063.063,0,0,0,27.1.709a.066.066,0,0,0,.019-.048h0V.113A.066.066,0,0,0,27.1.065a.063.063,0,0,0-.047-.02H24.839a.063.063,0,0,0-.047.02.066.066,0,0,0-.019.048h0v3.82a.066.066,0,0,0,.019.048.063.063,0,0,0,.047.02h2.218Zm2.121,0a.063.063,0,0,0,.047-.02.066.066,0,0,0,.019-.048h0l-.006-2.277q0-.023.011-.023c.007,0,.015.006.022.017h0l1.054,2.3A.078.078,0,0,0,30.4,4h.673a.063.063,0,0,0,.047-.02.066.066,0,0,0,.019-.048h0V.113a.066.066,0,0,0-.019-.048.063.063,0,0,0-.047-.02h-.64a.063.063,0,0,0-.047.02.066.066,0,0,0-.019.048h0V2.391c0,.015,0,.023-.011.023s-.015-.006-.022-.017h0L29.282.1a.078.078,0,0,0-.077-.051h-.667a.063.063,0,0,0-.047.02.066.066,0,0,0-.019.048h0v3.82a.066.066,0,0,0,.019.048.063.063,0,0,0,.047.02h.64Zm6.107,0a.063.063,0,0,0,.047-.02.066.066,0,0,0,.019-.048h0V2.464a.025.025,0,0,1,.028-.028h.6a1.161,1.161,0,0,0,.587-.147,1,1,0,0,0,.4-.415,1.314,1.314,0,0,0,.141-.619,1.378,1.378,0,0,0-.141-.633,1.031,1.031,0,0,0-.4-.43A1.127,1.127,0,0,0,35.974.04H34.639a.063.063,0,0,0-.047.02.066.066,0,0,0-.019.048h0V3.933a.066.066,0,0,0,.019.048.063.063,0,0,0,.047.02h.645Zm.563-2.2h-.469a.025.025,0,0,1-.028-.028h0V.757a.025.025,0,0,1,.028-.028h.469a.437.437,0,0,1,.345.147.577.577,0,0,1,.13.4.557.557,0,0,1-.13.387.441.441,0,0,1-.345.144ZM40.682,4a.063.063,0,0,0,.047-.02.066.066,0,0,0,.019-.048h0V3.385a.066.066,0,0,0-.019-.048.063.063,0,0,0-.047-.02H39.2a.025.025,0,0,1-.028-.028h0V.113a.066.066,0,0,0-.019-.048.063.063,0,0,0-.047-.02h-.645a.063.063,0,0,0-.047.02A.066.066,0,0,0,38.4.113h0v3.82a.066.066,0,0,0,.019.048.063.063,0,0,0,.047.02h2.218Zm1.994,0a.07.07,0,0,0,.072-.057h0l.127-.554a.026.026,0,0,1,.028-.023h1.032a.026.026,0,0,1,.028.023h0l.127.554A.073.073,0,0,0,44.166,4h.673Q44.9,4,44.9,3.95h0l-.005-.023L43.9.1a.073.073,0,0,0-.077-.057h-.8A.073.073,0,0,0,42.947.1h0l-.993,3.826Q41.937,4,42.009,4h.667Zm1.1-1.249h-.728a.036.036,0,0,1-.022-.008.021.021,0,0,1-.005-.025h0l.37-1.639q.006-.023.017-.023c.007,0,.013.008.017.023h0l.381,1.639a.021.021,0,0,1-.005.025.036.036,0,0,1-.022.008ZM47.252,4a.063.063,0,0,0,.047-.02.066.066,0,0,0,.019-.048h0V.763a.025.025,0,0,1,.028-.028h.838a.063.063,0,0,0,.047-.02.066.066,0,0,0,.019-.048h0V.113a.066.066,0,0,0-.019-.048.063.063,0,0,0-.047-.02H45.7a.063.063,0,0,0-.047.02.066.066,0,0,0-.019.048h0V.667a.066.066,0,0,0,.019.048.063.063,0,0,0,.047.02h.811a.025.025,0,0,1,.028.028h0v3.17a.066.066,0,0,0,.019.048.063.063,0,0,0,.047.02h.645Zm3.026,0a.063.063,0,0,0,.047-.02.066.066,0,0,0,.019-.048h0V2.379a.025.025,0,0,1,.028-.028h.916a.063.063,0,0,0,.047-.02.066.066,0,0,0,.019-.048h0V1.735a.066.066,0,0,0-.019-.048.063.063,0,0,0-.047-.02h-.916a.025.025,0,0,1-.028-.028h0V.757a.025.025,0,0,1,.028-.028h1.473a.063.063,0,0,0,.047-.02.066.066,0,0,0,.019-.048h0V.113a.066.066,0,0,0-.019-.048.063.063,0,0,0-.047-.02H49.632a.063.063,0,0,0-.047.02.066.066,0,0,0-.019.048h0v3.82a.066.066,0,0,0,.019.048.063.063,0,0,0,.047.02h.645Zm4.079.051a1.39,1.39,0,0,0,.673-.158,1.112,1.112,0,0,0,.452-.446,1.363,1.363,0,0,0,.16-.673h0v-1.5A1.351,1.351,0,0,0,55.483.6,1.112,1.112,0,0,0,55.03.158,1.39,1.39,0,0,0,54.357,0a1.376,1.376,0,0,0-.67.158,1.116,1.116,0,0,0-.45.446,1.352,1.352,0,0,0-.16.667h0v1.5a1.364,1.364,0,0,0,.16.673,1.116,1.116,0,0,0,.45.446A1.376,1.376,0,0,0,54.357,4.052Zm0-.684a.463.463,0,0,1-.364-.155.586.586,0,0,1-.138-.4h0V1.249a.594.594,0,0,1,.138-.41.463.463,0,0,1,.364-.155.47.47,0,0,1,.37.155.6.6,0,0,1,.138.41h0v1.56a.586.586,0,0,1-.138.4A.47.47,0,0,1,54.357,3.368Zm3.4.633a.062.062,0,0,0,.047-.02.066.066,0,0,0,.019-.048h0V2.391a.025.025,0,0,1,.027-.028h.348c.011,0,.02.008.028.023h0l.557,1.56A.073.073,0,0,0,58.856,4h.673q.061,0,.061-.051a.065.065,0,0,0-.005-.028h0L58.955,2.3a.027.027,0,0,1,.017-.04.958.958,0,0,0,.436-.4,1.225,1.225,0,0,0,.154-.627,1.354,1.354,0,0,0-.138-.622,1.012,1.012,0,0,0-.392-.421,1.119,1.119,0,0,0-.579-.15H57.107a.062.062,0,0,0-.047.02.066.066,0,0,0-.019.048h0v3.82a.066.066,0,0,0,.019.048.062.062,0,0,0,.047.02h.645Zm.574-2.249h-.48a.025.025,0,0,1-.027-.028h0V.757a.025.025,0,0,1,.027-.028h.48a.428.428,0,0,1,.331.138.537.537,0,0,1,.127.376.528.528,0,0,1-.127.37.428.428,0,0,1-.331.138ZM61.617,4a.062.062,0,0,0,.047-.02.066.066,0,0,0,.019-.048h0V1.424c0-.015,0-.024.011-.025s.014,0,.022.014h0l.507.859a.079.079,0,0,0,.077.045h.127a.079.079,0,0,0,.077-.045h0l.507-.859c.007-.011.015-.016.022-.014s.011.01.011.025h0V3.933a.067.067,0,0,0,.019.048.064.064,0,0,0,.047.02h.646a.062.062,0,0,0,.047-.02.066.066,0,0,0,.019-.048h0V.113A.066.066,0,0,0,63.8.065a.062.062,0,0,0-.047-.02h-.64A.079.079,0,0,0,63.04.09h0L62.384,1.2c-.011.023-.022.023-.033,0h0L61.688.09a.078.078,0,0,0-.077-.045h-.64a.064.064,0,0,0-.047.02.067.067,0,0,0-.019.048h0v3.82a.067.067,0,0,0,.019.048.064.064,0,0,0,.047.02h.645Z" transform="translate(-9.346)"/></g></g></g></g></g></g></svg>