<svg xmlns="http://www.w3.org/2000/svg" xmlns:xlink="http://www.w3.org/1999/xlink" width="96" height="96" viewBox="0 0 96 96"><defs><style>.a{fill:#fff;}.b{fill:url(#a);}.c{clip-path:url(#b);}</style><linearGradient id="a" x1="0.956" y1="0.701" x2="-0.206" y2="-0.151" gradientUnits="objectBoundingBox"><stop offset="0" stop-color="#140c8e"/><stop offset="1" stop-color="#bcd0e5"/></linearGradient><clipPath id="b"><rect class="a" width="57.081" height="21.585" transform="translate(0 0)"/></clipPath></defs><g transform="translate(-1035.5 -347.5)"><circle class="b" cx="48" cy="48" r="48" transform="translate(1035.5 347.5)"/><g class="c" transform="translate(1054.959 384.4)"><g transform="translate(0 2.518)"><g transform="translate(0 0)"><g transform="translate(0 0)"><g transform="translate(0 0)"><path class="a" d="M8.647,13.35H7.9a9.954,9.954,0,0,0-1.535.077V10.679a13.221,13.221,0,0,0,2.03.093h1.24c.791,0,1.364-.016,2.046-.078a14.717,14.717,0,0,0-.109,2.112v1.74a15.865,15.865,0,0,0,.109,2.314,7.691,7.691,0,0,1-1.968.979,10.339,10.339,0,0,1-3.286.528,6.153,6.153,0,0,1-4.6-1.663A7.232,7.232,0,0,1,0,11.548C0,7.463,2.463,4.868,6.369,4.868A5.393,5.393,0,0,1,10.8,6.718a4.518,4.518,0,0,1,.915,1.693l-3.162.731a1.963,1.963,0,0,0-.7-1.119A2.386,2.386,0,0,0,6.292,7.54c-1.985,0-3.069,1.445-3.069,4.055a4.8,4.8,0,0,0,.945,3.246A2.905,2.905,0,0,0,6.4,15.68a4.636,4.636,0,0,0,2.248-.559Z" transform="translate(0 -4.676)"/><path class="a" d="M360.255,112.823v-.412a9.023,9.023,0,0,0-2.589.294,1.1,1.1,0,0,0-.868.974c0,.53.449.84,1.227.84a2.8,2.8,0,0,0,1.692-.561,1.477,1.477,0,0,0,.538-1.135m0-2.3v-.338c0-.707-.434-1.032-1.422-1.032-.957,0-1.466.31-1.69,1.032l-2.859-.457a3.17,3.17,0,0,1,1.258-1.784,5.807,5.807,0,0,1,3.367-.84,6.573,6.573,0,0,1,2.769.516,2.654,2.654,0,0,1,1.377,2.654v3.98a16.965,16.965,0,0,0,.1,2.093h-2.9v-.678a4.391,4.391,0,0,1-2.9.885,3.7,3.7,0,0,1-2.589-.811,2.633,2.633,0,0,1-.824-2,2.466,2.466,0,0,1,1.093-2.152,6.293,6.293,0,0,1,3.112-.958c.584-.059,1.032-.074,2.11-.1" transform="translate(-339.919 -102.861)"/><path class="a" d="M636.621,9.737h3.092a8.692,8.692,0,0,0-.119,1.649v4.573a14.387,14.387,0,0,0,.119,2.22h-2.972v-.637a3.952,3.952,0,0,1,.015-.4,4.1,4.1,0,0,1-3.107,1.272,3.31,3.31,0,0,1-2.375-.828,3.176,3.176,0,0,1-.852-2.487V11.386a9.92,9.92,0,0,0-.119-1.649h3.107a8.9,8.9,0,0,0-.119,1.649v3.034a1.678,1.678,0,0,0,.239,1.111,1.175,1.175,0,0,0,.971.414,2.431,2.431,0,0,0,2.241-1.191V11.386a13.091,13.091,0,0,0-.12-1.649" transform="translate(-605.335 -9.351)"/><path class="a" d="M938.5,107.163V109.3c-.558.593-.983,1.038-1.246,1.35l-2.45,2.863c-.117.133-.161.192-.278.311a4.019,4.019,0,0,1,.44-.015h1.6a18.956,18.956,0,0,0,2.214-.1v2.656a18.088,18.088,0,0,0-2.229-.1h-3.666c-1.173,0-1.51,0-1.98.045v-2.255c.572-.563.939-.964,1.247-1.319l2.375-2.819a3.783,3.783,0,0,1,.278-.312H933.4a18.961,18.961,0,0,0-2.214.1v-2.6a19.8,19.8,0,0,0,2.214.1H936.5a19.732,19.732,0,0,0,2.009-.045" transform="translate(-894.033 -102.861)"/><path class="a" d="M1177.008,120.281l-2.782-6.307c-.64-1.494-.7-1.629-.893-2h3.229a9.993,9.993,0,0,0,.581,1.928l1.369,3.453,1.324-3.393a9.01,9.01,0,0,0,.64-1.988h3.229c-.372.777-.372.777-.894,2l-3.407,7.907a3.244,3.244,0,0,1-3.363,2.047,8.886,8.886,0,0,1-2.038-.254l.327-2.376a2.263,2.263,0,0,0,1.161.328,1.262,1.262,0,0,0,1.2-.7Z" transform="translate(-1126.854 -107.537)"/><path class="a" d="M671.732,256.819h-7.49a3.746,3.746,0,0,1,7.49,0" transform="translate(-637.93 -243.127)"/><path class="a" d="M1325.483.272h-.768V2.507h-.313V.272h-.766V0h1.847Zm.793-.272.781,2.046L1327.838,0h.408V2.507h-.315V1.531l.03-1.054-.784,2.03h-.241l-.782-2.025.031,1.049v.976h-.315V0Z" transform="translate(-1271.205)"/></g></g></g></g></g></g></svg>