<svg xmlns="http://www.w3.org/2000/svg" xmlns:xlink="http://www.w3.org/1999/xlink" width="899.044" height="839.934" viewBox="0 0 899.044 839.934"><defs><style>.a{fill:rgba(188,208,229,0.15);}.af,.ao,.ap,.b,.k{fill:#438be3;}.b,.bo,.bx{opacity:0.2;}.c{fill:#008cdb;}.d{fill:#6cb6e0;}.e{fill:#d4e8ff;}.f{fill:#d39700;}.g{fill:#ffc113;}.h{fill:#ffcb48;}.i{fill:#044ca4;}.j{fill:#1d65bd;}.l{fill:#b81834;}.m{fill:#d1314d;}.n{fill:#f75773;}.o,.p{fill:#1b005d;}.p{opacity:0.9;}.q{fill:#140044;}.r{fill:#d4dbdf;}.s{fill:url(#a);}.t{fill:#95c4df;}.u{fill:#c3cdd4;}.v{fill:#dde7ee;}.w{opacity:0.1;}.x{fill:#91d1f2;}.y{fill:#70bce0;}.z{fill:#b1d5e9;}.aa{fill:#889aa5;}.ab{fill:#2666b5;}.ac{fill:#d1ecf9;}.ad{fill:#f050a6;}.ae{fill:#ff942c;}.af,.ag{opacity:0.5;}.ag{fill:#586770;}.ah{fill:url(#b);}.ai{fill:#82bcff;}.aj{fill:#ea4a66;}.ak{fill:url(#c);}.al{fill:url(#d);}.am{fill:#2a72ca;}.an{fill:url(#e);}.ao,.ce{opacity:0.3;}.ap,.bw,.cf{opacity:0.4;}.aq{fill:#bad1de;}.ar{fill:#e84a5a;}.as,.ce{fill:#1ed6fe;}.at{fill:#77bfff;}.au{fill:#ff7e8e;}.av{fill:#000508;}.aw{fill:#09172e;}.ax{fill:#051c38;}.ay{fill:#0d2440;}.az{fill:#0a2240;}.ba{fill:#cc9a75;}.bb{fill:#ffcda8;}.bc{fill:#d9a782;}.bd{fill:#e8f5ff;}.be{fill:#132d4d;}.bf{fill:#e6f6ff;}.bg{fill:#dbe8f5;}.bh{fill:#452212;}.bi{fill:#1b385c;}.bj{fill:#b00052;}.bk{fill:#fdfdfd;}.bl{fill:#e2e9ed;}.bm{fill:#f09d4a;}.bn{fill:#ffea5e;}.bp{fill:#0080ff;}.bq{opacity:0.71;}.br{fill:#559fc9;}.bs{opacity:0.61;}.bt{fill:url(#f);}.bu{opacity:0.8;fill:url(#g);}.bv{opacity:0.6;fill:url(#h);}.bw{fill:url(#i);}.bx{fill:url(#j);}.by{opacity:0.57;}.bz,.ca,.cb,.cc,.cd,.cg{opacity:0.7;}.bz{fill:url(#k);}.ca{fill:url(#l);}.cb{fill:url(#m);}.cc{fill:url(#n);}.cd{fill:url(#o);}.cf,.cg{fill:#22adca;}</style><linearGradient id="a" x1="6.575" y1="0.057" x2="7.518" y2="1.461" gradientUnits="objectBoundingBox"><stop offset="0" stop-color="#2580d3"/><stop offset="1" stop-color="#0a208f"/></linearGradient><linearGradient id="b" x1="-0.001" y1="0.498" x2="1.35" y2="0.498" gradientUnits="objectBoundingBox"><stop offset="0" stop-color="#008cdb"/><stop offset="1" stop-color="#82bcff"/></linearGradient><linearGradient id="c" x1="0.001" y1="0.497" x2="1.347" y2="0.497" xlink:href="#b"/><linearGradient id="d" x1="-0.001" y1="0.499" x2="1.35" y2="0.499" xlink:href="#b"/><linearGradient id="e" x1="0.001" y1="0.498" x2="1.347" y2="0.498" xlink:href="#b"/><linearGradient id="f" x1="0.439" y1="-5.504" x2="0.612" y2="12.05" gradientUnits="objectBoundingBox"><stop offset="0.04" stop-color="#d9ff42"/><stop offset="0.25" stop-color="#6de69c"/><stop offset="0.46" stop-color="#00ccf6"/><stop offset="0.49" stop-color="#03c5f3"/><stop offset="0.73" stop-color="#1887d7"/><stop offset="0.91" stop-color="#2660c6"/><stop offset="1" stop-color="#2b51bf"/></linearGradient><linearGradient id="g" x1="0.42" y1="-7.284" x2="0.595" y2="10.271" xlink:href="#f"/><linearGradient id="h" x1="0.403" y1="-9.079" x2="0.576" y2="8.475" xlink:href="#f"/><linearGradient id="i" x1="0.386" y1="-10.875" x2="0.559" y2="6.68" xlink:href="#f"/><linearGradient id="j" x1="0.367" y1="-12.655" x2="0.542" y2="4.899" xlink:href="#f"/><linearGradient id="k" x1="-5741.9" y1="0.996" x2="-5741.9" y2="-0.065" gradientUnits="objectBoundingBox"><stop offset="0"/><stop offset="1" stop-color="#48d8f5"/></linearGradient><linearGradient id="l" x1="-2784.319" y1="0.997" x2="-2784.319" y2="-0.065" xlink:href="#k"/><linearGradient id="m" x1="-3165.421" y1="0.997" x2="-3165.421" y2="-0.064" xlink:href="#k"/><linearGradient id="n" x1="-2894.064" y1="0.997" x2="-2894.064" y2="-0.065" xlink:href="#k"/><linearGradient id="o" x1="-4800.22" y1="0.996" x2="-4800.22" y2="-0.064" xlink:href="#k"/></defs><g transform="translate(-540.956)"><path class="a" d="M367.9,839.934c243.026,0,535.1-214.2,535.1-460.24S728.364,0,485.338,0,174.235,222.5,45.3,445.5c-88.843,153.654-21.615,281.9,79.975,355.369C171.119,834.019,292.338,839.934,367.9,839.934Z" transform="translate(537)"/><g transform="translate(171.392 186.671)"><g transform="translate(507.698 76.3)"><g transform="translate(372.509 81.315)"><path class="b" d="M777.04,231.4h16l20.44,11.849L793.036,255.1h-16L756.6,243.249Z" transform="translate(-756.6 -82.989)"/><path class="c" d="M781.2,203.449v70.8L801.64,262.4V191.6Z" transform="translate(-744.764 -102.139)"/><path class="d" d="M767.4,262.4l20.44,11.849v-70.8L767.4,191.6Z" transform="translate(-751.404 -102.139)"/><path class="e" d="M767.4,195.449,787.84,207.3l20.44-11.849L787.84,183.6Z" transform="translate(-751.404 -105.988)"/><path class="f" d="M781.2,150.9v77.76l20.44-11.849V139.2Z" transform="translate(-744.764 -127.351)"/><path class="g" d="M767.4,216.812l20.44,11.849V150.9L767.4,139.2Z" transform="translate(-751.404 -127.351)"/><path class="h" d="M767.4,143.049l20.44,11.7,20.44-11.7L787.84,131.2Z" transform="translate(-751.404 -131.2)"/><g transform="translate(26.957 27.994)"><path class="b" d="M795.24,241.9h16l20.44,11.849L811.236,265.6h-16L774.8,253.749Z" transform="translate(-774.8 -105.93)"/><path class="c" d="M799.4,184.4V298.894l20.44-11.849V172.7Z" transform="translate(-762.964 -139.226)"/><path class="d" d="M785.6,287.045l20.44,11.849V184.4L785.6,172.7Z" transform="translate(-769.604 -139.226)"/><path class="e" d="M785.6,176.549l20.44,11.7,20.44-11.7L806.04,164.7Z" transform="translate(-769.604 -143.075)"/><path class="i" d="M799.4,169.8v43.842l20.44-11.849V158.1Z" transform="translate(-762.964 -146.251)"/><path class="j" d="M785.6,201.794l20.44,11.849V169.8L785.6,158.1Z" transform="translate(-769.604 -146.251)"/><path class="k" d="M785.6,161.949l20.44,11.7,20.44-11.7L806.04,150.1Z" transform="translate(-769.604 -150.1)"/></g><g transform="translate(53.766 86.944)"><path class="b" d="M813.34,252.4h16l20.44,11.849L829.336,276.1h-16L792.9,264.249Z" transform="translate(-792.9 -159.828)"/><path class="c" d="M817.5,209.749v92.572l20.44-11.849V197.9Z" transform="translate(-781.064 -186.051)"/><path class="d" d="M803.7,290.472l20.44,11.849V209.749L803.7,197.9Z" transform="translate(-787.704 -186.051)"/><path class="l" d="M817.5,209.749v14.515l20.44-11.849V197.9Z" transform="translate(-781.064 -186.051)"/><path class="m" d="M803.7,212.415l20.44,11.849V209.749L803.7,197.9Z" transform="translate(-787.704 -186.051)"/><path class="n" d="M803.7,201.749,824.14,213.6l20.44-11.849L824.14,189.9Z" transform="translate(-787.704 -189.9)"/></g><g transform="translate(80.723 137.451)"><path class="b" d="M831.54,263h16l20.44,11.7-20.44,11.849h-16L811.1,274.7Z" transform="translate(-811.1 -205.235)"/><path class="c" d="M835.7,243.7v57.765l20.44-11.849V232Z" transform="translate(-799.264 -220.151)"/><path class="d" d="M821.9,289.617l20.44,11.849V243.7L821.9,232Z" transform="translate(-805.904 -220.151)"/><path class="e" d="M821.9,235.849l20.44,11.7,20.44-11.7L842.34,224Z" transform="translate(-805.904 -224)"/></g><g transform="translate(107.532 170.48)"><path class="b" d="M849.64,273.5h16l20.44,11.7-20.44,11.849h-16L829.2,285.2Z" transform="translate(-829.2 -233.213)"/><path class="c" d="M853.8,266v40.287l20.44-11.849V254.3Z" transform="translate(-817.364 -242.451)"/><path class="d" d="M840,294.439l20.44,11.849V266L840,254.3Z" transform="translate(-824.004 -242.451)"/><path class="e" d="M840,258.149l20.44,11.7,20.44-11.7L860.44,246.3Z" transform="translate(-824.004 -246.3)"/></g></g><path class="o" d="M640.886,182.4,545.5,359.249l33.474,19.4L674.36,201.8Z" transform="translate(-485.662 -25.25)"/><path class="p" d="M673.886,192.176,609.9,182.4l33.474,19.4,63.986,9.627Z" transform="translate(-454.676 -25.25)"/><path class="o" d="M751.449,88.2,653.1,237.5l33.474,19.255,98.348-149.3Z" transform="translate(-433.89 -70.574)"/><path class="o" d="M760.154,76.3,701.5,103.553l62.653,33.326Z" transform="translate(-410.602 -76.3)"/><path class="q" d="M714.238,106.1l2.37-3.407-15.108-8,1.481,5.48Z" transform="translate(-410.602 -67.447)"/><path class="p" d="M538.574,355.714,598.413,321.2l-33.474-19.4L505.1,336.459Z" transform="translate(-505.1 32.199)"/><path class="q" d="M538.574,344.455v6.517l-33.474-19.4V325.2Z" transform="translate(-505.1 43.458)"/><path class="q" d="M845.259,81.928,843.777,76.3l4,60.579-13.33-7.11L746.91,262.481l-63.986-9.627L587.539,429.7,527.7,464.213v6.517l61.319-35.548,95.386-176.849,63.986,9.776L835.927,135.25l13.33,7.11Z" transform="translate(-494.226 -76.3)"/><g transform="translate(156.241 86.3)"><path class="r" d="M819.5,140.394c0-2.962-2.074-4.3-4.74-2.666L619.84,250.3a10.516,10.516,0,0,0-4.74,8.146v152.41c0,2.962,2.074,4.3,4.74,2.666L814.759,300.951a10.516,10.516,0,0,0,4.74-8.146Z" transform="translate(-608.414 -133.382)"/><path class="s" d="M819.5,277.755V140.6L615.1,258.5V395.8Z" transform="translate(-608.414 -131.662)"/><path class="t" d="M617.272,412.036V259.626a10.517,10.517,0,0,1,4.74-8.146L816.931,138.912a3.407,3.407,0,0,1,3.259-.3h0l-6.517-3.7a3.258,3.258,0,0,0-3.407.3L615.346,247.776a10.516,10.516,0,0,0-4.74,8.146v152.41a3.259,3.259,0,0,0,1.481,3.11l6.517,3.7h0A3.407,3.407,0,0,1,617.272,412.036Z" transform="translate(-610.586 -134.566)"/><path class="t" d="M763.149,312.226l-36.288-16.293A39.547,39.547,0,0,1,709.384,278.9L668.8,302.3a51.1,51.1,0,0,0,12.294,20.144s22.365,17.33,28.142,21.18a12.59,12.59,0,0,0,12.146.592l41.768-25.031s2.37-1.185,2.814-2.814v-.592C766.408,313.559,763.149,312.226,763.149,312.226Z" transform="translate(-582.576 -65.119)"/><path class="u" d="M764.3,311.585l-41.768,25.031a12.59,12.59,0,0,1-12.145-.592c-5.925-4-28.142-21.18-28.142-21.18A51.1,51.1,0,0,1,669.955,294.7l-3.555,2.074c2.37,7.85,7.554,15.552,16.441,21.921,25.031,18.07,27.846,19.4,27.846,19.4s4.3,3.7,12,0S764.6,313.214,764.6,313.214s2.814-1.481,2.814-2.962V308.03C767.414,310.1,764.3,311.585,764.3,311.585Z" transform="translate(-583.731 -57.517)"/><path class="v" d="M709.384,278.8,668.8,302.2a49.319,49.319,0,0,0,9.331,16.885l44.435-25.624A39.991,39.991,0,0,1,709.384,278.8Z" transform="translate(-582.576 -65.167)"/></g><g transform="translate(336.073 230.023)"><path class="w" d="M815.389,266.5l-13.775,8-13.775-8L732,298.789l77.612,44.879h27.549L893,311.379Z" transform="translate(-732 -214.808)"/><path class="e" d="M884.052,276.331,828.212,308.62,750.6,263.889,806.439,231.6Z" transform="translate(-723.051 -231.6)"/><path class="x" d="M858.839,313.2,803,345.485v-51.4L858.839,261.8Z" transform="translate(-697.838 -217.069)"/><path class="y" d="M828.212,298.131v51.4L750.6,304.648V253.4Z" transform="translate(-723.051 -221.111)"/><path class="w" d="M828.212,321.031,750.6,276.3v4.3l74.5,43.25L879.756,292.3l.444-3.7Z" transform="translate(-723.051 -210.093)"/><path class="w" d="M750.6,258.085V264.9l72.576,41.917,4-4.443Z" transform="translate(-723.051 -219.427)"/><path class="e" d="M752.236,258.085V256.9l-5.036,2.962,77.612,44.731,4-2.222Z" transform="translate(-724.687 -219.427)"/><path class="z" d="M884.052,281.39l-55.839,32.289L750.6,268.8l77.612,44.435Z" transform="translate(-723.051 -213.701)"/><path class="z" d="M884.052,295.89l-55.839,32.289L750.6,283.3l77.612,44.286Z" transform="translate(-723.051 -206.725)"/><path class="e" d="M828.79,319.046,753.4,275.5l-4,2.222,77.612,44.731L883,290.312l-2.222-1.333Z" transform="translate(-723.628 -210.478)"/><g transform="translate(40.435 7.258)"><path class="aa" d="M762.2,263.972l44.583,25.772,44.583-25.772L806.783,238.2Zm49.026-23.106-4.443,2.518-4.443-2.518,4.443-2.518Zm-8.887,20.588-4.443-2.518,4.443-2.518,4.443,2.518Zm4.443-2.518,4.443,2.518-4.443,2.518-4.443-2.518Zm-4.443,2.518-4.443,2.518-4.443-2.518,4.443-2.518Zm0,0,4.443,2.518-4.443,2.518-4.443-2.518Zm0,5.184-4.443,2.518-4.443-2.518,4.443-2.518Zm0,0,4.443,2.518-4.443,2.518-4.443-2.518Zm0,0,4.443-2.518,4.443,2.518-4.443,2.518Zm8.887,0,4.444,2.518-4.444,2.518-4.443-2.518Zm0,0,4.444-2.518,4.443,2.518-4.443,2.518Zm0,0-4.443-2.518,4.443-2.518,4.444,2.518Zm0-5.184,4.444-2.518,4.443,2.518-4.443,2.518Zm0,0-4.443-2.518,4.443-2.518,4.444,2.518Zm-4.443-2.518-4.443-2.518,4.443-2.518,4.443,2.518Zm-4.443-2.518L797.9,253.9l4.443-2.518,4.443,2.518Zm0,0-4.443,2.518-4.443-2.518L797.9,253.9Zm-4.443,2.518-4.443,2.518-4.444-2.518,4.444-2.518Zm-4.443,2.518-4.444,2.518-4.443-2.518,4.443-2.518Zm0,0,4.443,2.518-4.443,2.518-4.444-2.518Zm0,5.184-4.444,2.518-4.443-2.518,4.443-2.518Zm0,0,4.443,2.518-4.443,2.518-4.444-2.518Zm4.443,2.518,4.443,2.518-4.443,2.518-4.443-2.518Zm4.443,2.518,4.443,2.518-4.443,2.518-4.443-2.518Zm0,0,4.443-2.518,4.443,2.518-4.443,2.518Zm8.887,0,4.444,2.518-4.444,2.518-4.443-2.518Zm0,0,4.444-2.518,4.443,2.518-4.443,2.518Zm4.444-2.518,4.443-2.518,4.443,2.518-4.443,2.518Zm4.443-2.518,4.443-2.518L829,266.638l-4.443,2.518Zm0,0-4.443-2.518,4.443-2.518,4.443,2.518Zm0-5.184,4.443-2.518L829,261.454l-4.443,2.518Zm0,0-4.443-2.518,4.443-2.518,4.443,2.518Zm-4.443-2.518-4.444-2.518,4.444-2.518,4.443,2.518Zm-4.444-2.518-4.443-2.518,4.443-2.518,4.444,2.518Zm-4.443-2.518-4.443-2.518,4.443-2.518,4.443,2.518Zm-4.443-2.518-4.443-2.518,4.443-2.518,4.443,2.518Zm0,0L797.9,253.9l-4.443-2.518,4.443-2.518ZM797.9,253.9l-4.443,2.518-4.444-2.518,4.444-2.518Zm-4.443,2.518-4.444,2.518-4.443-2.518,4.443-2.518Zm-4.444,2.518-4.443,2.518-4.443-2.518,4.443-2.518Zm-4.443,2.518-4.443,2.518-4.443-2.518,4.443-2.518Zm0,0,4.443,2.518-4.443,2.518-4.443-2.518Zm0,5.184-4.443,2.518-4.443-2.518,4.443-2.518Zm0,0,4.443,2.518-4.443,2.518-4.443-2.518Zm4.443,2.518,4.444,2.518-4.444,2.518-4.443-2.518Zm4.444,2.518,4.443,2.518-4.443,2.518-4.444-2.518Zm4.443,2.518,4.443,2.518-4.443,2.518-4.443-2.518Zm4.443,2.518,4.443,2.518-4.443,2.518-4.443-2.518Zm0,0,4.443-2.518,4.443,2.518-4.443,2.518Zm8.887,0,4.444,2.518-4.444,2.518-4.443-2.518Zm0,0,4.444-2.518,4.443,2.518-4.443,2.518Zm4.444-2.518,4.443-2.518,4.443,2.518-4.443,2.518Zm4.443-2.518,4.443-2.518L829,271.674l-4.443,2.518Zm4.443-2.518L829,266.638l4.444,2.518L829,271.674ZM829,266.638l4.444-2.518,4.443,2.518-4.443,2.518Zm0,0-4.443-2.518L829,261.6l4.444,2.518Zm0-5.184,4.444-2.518,4.443,2.518-4.443,2.518Zm0,0-4.443-2.518L829,256.418l4.444,2.518Zm-4.443-2.518-4.443-2.518,4.443-2.518L829,256.418Zm-4.443-2.518L815.67,253.9l4.443-2.518,4.443,2.518ZM815.67,253.9l-4.444-2.518,4.444-2.518,4.443,2.518Zm-4.444-2.518-4.443-2.518,4.443-2.518,4.444,2.518Zm-4.443-2.518-4.443-2.518,4.443-2.518,4.443,2.518Zm-4.443-2.518-4.443-2.518,4.443-2.518,4.443,2.518Zm0,0-4.443,2.518-4.443-2.518,4.443-2.518Zm-4.443,2.518-4.443,2.518-4.444-2.518,4.444-2.518Zm-4.443,2.518-4.444,2.518-4.443-2.518,4.443-2.518Zm-4.444,2.518-4.443,2.518-4.443-2.518,4.443-2.518Zm-4.443,2.518-4.443,2.518-4.443-2.518,4.443-2.518Zm-4.443,2.518-4.443,2.518-4.444-2.518,4.444-2.518Zm-4.443,2.518-4.444,2.518-4.443-2.518,4.443-2.518Zm0,0,4.443,2.518-4.443,2.518-4.444-2.518Zm0,5.184-4.444,2.518-4.443-2.518,4.443-2.518Zm0,0,4.443,2.518-4.443,2.518-4.444-2.518Zm4.443,2.518,4.443,2.518-4.443,2.518-4.443-2.518Zm4.443,2.518,4.443,2.518-4.443,2.518-4.443-2.518Zm4.443,2.518,4.444,2.518-4.444,2.518-4.443-2.518Zm4.444,2.518,4.443,2.518-4.443,2.518-4.444-2.518Zm4.443,2.518,4.443,2.518-4.443,2.518-4.443-2.518Zm4.443,2.518,4.443,2.518-4.443,2.518-4.443-2.518Zm0,0,4.443-2.518,4.443,2.518-4.443,2.518Zm8.887,0,4.444,2.518-4.444,2.518-4.443-2.518Zm0,0,4.444-2.518,4.443,2.518-4.443,2.518Zm4.444-2.518,4.443-2.518,4.443,2.518-4.443,2.518Zm4.443-2.518,4.443-2.518L829,276.71l-4.443,2.518Zm4.443-2.518L829,271.674l4.444,2.518L829,276.71ZM829,271.674l4.444-2.518,4.443,2.518-4.443,2.518Zm4.444-2.518,4.443-2.518,4.444,2.518-4.444,2.518Zm4.443-2.518,4.444-2.518,4.443,2.518-4.443,2.518Zm0,0-4.443-2.518,4.443-2.518,4.444,2.518Zm0-5.184,4.444-2.518,4.443,2.518-4.443,2.518Zm0,0-4.443-2.518,4.443-2.518,4.444,2.518Zm-4.443-2.518L829,256.418l4.444-2.518,4.443,2.518ZM829,256.418l-4.443-2.518L829,251.382l4.444,2.518Zm-4.443-2.518-4.443-2.518,4.443-2.518L829,251.382Zm-4.443-2.518-4.443-2.518,4.443-2.518,4.443,2.518Zm-4.443-2.518-4.444-2.518,4.444-2.518,4.443,2.518Zm-4.444-2.518-4.443-2.518,4.443-2.518,4.444,2.518Zm-44.583,15.4,4.443,2.518-4.443,2.518-4.443-2.518Zm35.7,25.624,4.443-2.518,4.443,2.518-4.443,2.518Zm44.435-20.588-4.443-2.518,4.443-2.518,4.443,2.518Z" transform="translate(-757.905 -235.682)"/><path class="b" d="M794.513,288.778l-6.813-4,2.666-3.555V276.04l6.665-1.333,2.222-3.851V265.82l7.258-1.037,4.443-2.518,1.481-4.3-4.443-7.7L798.957,239.9,839.1,263.154Z" transform="translate(-745.635 -234.864)"/><path class="ab" d="M787.8,284.927l-.3-.148,2.666-3.555V276.04l6.813-1.333,2.222-3.851v-5.184l7.258-1.037,4.443-2.37,1.333-4.3-4.443-7.7-8.887-10.22.444-.148,8.887,10.22,4.443,7.85-1.333,4.443-4.74,2.518-7.11.889V271l-2.222,3.851-6.665,1.333v5.036Z" transform="translate(-745.732 -234.864)"/><g transform="translate(52.127 4.374)"><path class="ac" d="M796.425,239.658a1.629,1.629,0,0,0-1.481,0,.444.444,0,0,0,0,.889,1.629,1.629,0,0,0,1.481,0,.444.444,0,0,0,0-.889Z" transform="translate(-794.491 -239.44)"/><path class="ab" d="M796.577,240.707a1.925,1.925,0,0,1-1.777,0,.592.592,0,0,1,0-1.037,1.926,1.926,0,0,1,1.777,0,.592.592,0,0,1,0,1.037Zm-1.481-.889a.3.3,0,1,0,0,.592,1.333,1.333,0,0,0,1.185,0,.3.3,0,1,0,0-.592,1.334,1.334,0,0,0-1.037,0Z" transform="translate(-794.494 -239.453)"/></g><g transform="translate(61.014 14.594)"><path class="ac" d="M802.425,246.658a1.629,1.629,0,0,0-1.481,0,.444.444,0,0,0,0,.889,1.629,1.629,0,0,0,1.481,0,.444.444,0,1,0,0-.889Z" transform="translate(-800.491 -246.292)"/><path class="ab" d="M802.577,247.607a1.926,1.926,0,0,1-1.778,0,.592.592,0,0,1,0-1.037,1.925,1.925,0,0,1,1.777,0,.592.592,0,0,1,0,1.037Zm-1.481-.889a.3.3,0,1,0,0,.592,1.333,1.333,0,0,0,1.185,0,.3.3,0,1,0,0-.592,1.333,1.333,0,0,0-1.037,0Z" transform="translate(-800.494 -246.353)"/></g><g transform="translate(65.605 22.296)"><path class="ac" d="M805.525,251.858a1.63,1.63,0,0,0-1.481,0,.444.444,0,1,0,0,.889,1.629,1.629,0,0,0,1.481,0,.444.444,0,0,0,0-.889Z" transform="translate(-803.59 -251.492)"/><path class="ab" d="M805.677,252.807a1.925,1.925,0,0,1-1.777,0,.592.592,0,0,1,0-1.037,1.925,1.925,0,0,1,1.777,0,.592.592,0,0,1,0,1.037Zm-1.481-.889a.3.3,0,1,0,0,.592,1.333,1.333,0,0,0,1.185,0,.3.3,0,1,0,0-.592,1.333,1.333,0,0,0-1.185.148Z" transform="translate(-803.594 -251.553)"/></g><g transform="translate(64.124 26.74)"><path class="ac" d="M804.526,254.758a1.629,1.629,0,0,0-1.481,0,.444.444,0,0,0,0,.889,1.63,1.63,0,0,0,1.481,0,.444.444,0,0,0,0-.889Z" transform="translate(-802.591 -254.54)"/><path class="ab" d="M804.677,255.807a1.926,1.926,0,0,1-1.778,0,.592.592,0,0,1,0-1.037,1.925,1.925,0,0,1,1.778,0,.593.593,0,0,1,0,1.037Zm-1.481-.889a.3.3,0,1,0,0,.592,1.333,1.333,0,0,0,1.185,0,.3.3,0,0,0,0-.592,1.333,1.333,0,0,0-1.185,0Z" transform="translate(-802.594 -254.553)"/></g><g transform="translate(59.533 29.109)"><path class="ac" d="M801.425,256.458a1.63,1.63,0,0,0-1.481,0,.444.444,0,0,0,0,.889,1.63,1.63,0,0,0,1.481,0,.444.444,0,0,0,0-.889Z" transform="translate(-799.491 -256.092)"/><path class="ab" d="M801.577,257.407a1.926,1.926,0,0,1-1.777,0,.592.592,0,0,1,0-1.037,1.926,1.926,0,0,1,1.777,0,.593.593,0,0,1,0,1.037Zm-1.481-.889a.3.3,0,1,0,0,.592,1.333,1.333,0,0,0,1.185,0,.3.3,0,1,0,0-.592,1.333,1.333,0,0,0-1.037.148Z" transform="translate(-799.494 -256.153)"/></g><g transform="translate(52.423 30.146)"><path class="ac" d="M796.625,257.158a1.629,1.629,0,0,0-1.481,0,.444.444,0,0,0,0,.889,1.629,1.629,0,0,0,1.481,0,.444.444,0,1,0,0-.889Z" transform="translate(-794.691 -256.792)"/><path class="ab" d="M796.777,258.107a1.925,1.925,0,0,1-1.777,0,.592.592,0,0,1,0-1.037,1.925,1.925,0,0,1,1.777,0,.592.592,0,0,1,0,1.037Zm-1.481-.889a.3.3,0,0,0,0,.592,1.333,1.333,0,0,0,1.185,0,.3.3,0,1,0,0-.592,1.332,1.332,0,0,0-1.185.148Z" transform="translate(-794.694 -256.853)"/></g><g transform="translate(52.423 35.33)"><path class="ac" d="M796.626,260.658a1.629,1.629,0,0,0-1.481,0,.444.444,0,0,0,0,.889,1.629,1.629,0,0,0,1.481,0,.444.444,0,0,0,0-.889Z" transform="translate(-794.691 -260.292)"/><path class="ab" d="M796.777,261.607a1.925,1.925,0,0,1-1.777,0,.592.592,0,0,1,0-1.037,1.925,1.925,0,0,1,1.777,0,.592.592,0,0,1,0,1.037Zm-1.481-.889a.3.3,0,0,0,0,.592,1.333,1.333,0,0,0,1.185,0,.3.3,0,1,0,0-.592,1.333,1.333,0,0,0-1.185,0Z" transform="translate(-794.694 -260.353)"/></g><g transform="translate(50.053 39.181)"><path class="ac" d="M795.125,263.258a1.629,1.629,0,0,0-1.481,0,.444.444,0,0,0,0,.889,1.63,1.63,0,0,0,1.481,0,.444.444,0,1,0,0-.889Z" transform="translate(-793.042 -262.892)"/><path class="ab" d="M795.177,264.207a1.926,1.926,0,0,1-1.778,0,.592.592,0,0,1,0-1.037,1.925,1.925,0,0,1,1.777,0,.592.592,0,0,1,0,1.037Zm-1.481-.889a.3.3,0,1,0,0,.592,1.333,1.333,0,0,0,1.185,0,.3.3,0,1,0,0-.592,1.333,1.333,0,0,0-1.037,0Z" transform="translate(-793.094 -262.953)"/></g><g transform="translate(43.536 40.514)"><path class="ac" d="M790.626,264.158a1.629,1.629,0,0,0-1.481,0,.444.444,0,1,0,0,.889,1.629,1.629,0,0,0,1.481,0,.444.444,0,0,0,0-.889Z" transform="translate(-788.69 -263.792)"/><path class="ab" d="M790.777,265.107a1.926,1.926,0,0,1-1.777,0,.592.592,0,0,1,0-1.037,1.925,1.925,0,0,1,1.777,0,.592.592,0,0,1,0,1.037Zm-1.481-.889a.3.3,0,0,0,0,.593,1.333,1.333,0,0,0,1.185,0,.3.3,0,0,0,0-.592,1.333,1.333,0,0,0-1.185,0Z" transform="translate(-788.693 -263.853)"/></g><g transform="translate(43.388 45.55)"><path class="ac" d="M790.526,267.558a1.629,1.629,0,0,0-1.481,0,.444.444,0,1,0,0,.889,1.629,1.629,0,0,0,1.481,0,.444.444,0,1,0,0-.889Z" transform="translate(-788.59 -267.192)"/><path class="ab" d="M790.677,268.507a1.926,1.926,0,0,1-1.778,0,.592.592,0,0,1,0-1.037,1.925,1.925,0,0,1,1.778,0,.592.592,0,0,1,0,1.037Zm-1.481-.889a.3.3,0,1,0,0,.592,1.333,1.333,0,0,0,1.185,0,.3.3,0,1,0,0-.592,1.333,1.333,0,0,0-1.185,0Z" transform="translate(-788.594 -267.253)"/></g><g transform="translate(40.722 49.253)"><path class="ac" d="M788.726,270.058a1.629,1.629,0,0,0-1.481,0,.444.444,0,0,0,0,.889,1.629,1.629,0,0,0,1.481,0,.444.444,0,1,0,0-.889Z" transform="translate(-786.791 -269.692)"/><path class="ab" d="M788.877,271.007a1.925,1.925,0,0,1-1.777,0,.592.592,0,0,1,0-1.037,1.926,1.926,0,0,1,1.778,0,.592.592,0,0,1,0,1.037Zm-1.481-.889a.3.3,0,0,0,0,.592,1.333,1.333,0,0,0,1.185,0,.3.3,0,0,0,0-.592A1.333,1.333,0,0,0,787.4,270.119Z" transform="translate(-786.794 -269.753)"/></g><g transform="translate(45.471 25.681)"><path class="ad" d="M794.3,254.078l-3.7,2.074a.592.592,0,0,0,0,1.185l1.037.592a2.369,2.369,0,0,0,2.074,0l1.185-.592,1.629.889-.444-1.629,1.333-.741a.592.592,0,1,0,0-1.185l-1.037-.592A2.37,2.37,0,0,0,794.3,254.078Z" transform="translate(-790 -253.839)"/><path class="ac" d="M794.7,254.548l-3.407,1.926-.3-.148,3.407-1.926Z" transform="translate(-789.519 -253.569)"/><path class="ac" d="M795,254.748l-3.407,1.926-.3-.148,3.555-1.925Z" transform="translate(-789.374 -253.472)"/><path class="ac" d="M793.922,255.448,792,256.633l-.3-.148,2.074-1.185Z" transform="translate(-789.182 -253.136)"/></g><g transform="translate(66.059 28.734)"><path class="ab" d="M807.6,260.047l3.7-2.074a.592.592,0,1,0,0-1.185l-1.037-.592a2.369,2.369,0,0,0-2.074,0l-1.185.592-1.629-.889.444,1.629-1.333.741a.592.592,0,1,0,0,1.185l1.037.592A2.37,2.37,0,0,0,807.6,260.047Z" transform="translate(-803.9 -255.9)"/><path class="ac" d="M808.5,256.748l-3.407,1.925-.3-.148,3.555-1.925Z" transform="translate(-803.467 -255.563)"/><path class="ac" d="M808.9,256.948l-3.555,1.926-.148-.148,3.407-1.926Z" transform="translate(-803.274 -255.467)"/><path class="ac" d="M807.87,257.648l-2.074,1.185-.3-.148,2.074-1.185Z" transform="translate(-803.13 -255.13)"/></g><g transform="translate(36.584 35.901)"><path class="ae" d="M788.3,260.978l-3.7,2.074a.592.592,0,1,0,0,1.185l1.037.592a2.37,2.37,0,0,0,2.074,0l1.185-.592,1.629.889-.444-1.629,1.333-.741a.592.592,0,1,0,0-1.185l-1.037-.592A2.369,2.369,0,0,0,788.3,260.978Z" transform="translate(-784 -260.739)"/><path class="ac" d="M788.6,261.448l-3.407,1.926h-.3l3.555-2.074Z" transform="translate(-783.567 -260.469)"/><path class="ac" d="M789,261.648l-3.555,1.926H785.3l3.407-2.074Z" transform="translate(-783.375 -260.372)"/><path class="ac" d="M787.97,262.448l-2.074,1.037h-.3l2.074-1.185Z" transform="translate(-783.23 -259.988)"/></g><path class="af" d="M789.78,239.6,764.6,254.115l.593.444L790.52,239.9Z" transform="translate(-756.75 -235.008)"/><path class="af" d="M803.883,236.5,759.3,262.272l.592.444,44.731-25.772Z" transform="translate(-759.3 -236.5)"/><path class="ab" d="M848.583,262.3,804,288.072l.148.148,44.731-25.772Z" transform="translate(-737.793 -224.086)"/><path class="ag" d="M814.37,266.4,796.3,276.916l.3.148,18.07-10.516Z" transform="translate(-741.497 -222.114)"/><path class="ag" d="M831.54,257,811.1,268.7l.3.3,20.44-11.849Z" transform="translate(-734.376 -226.636)"/><path class="ag" d="M816.04,266.9,795.6,278.749l.148.148,20.588-11.849Z" transform="translate(-741.834 -221.873)"/><path class="ag" d="M832.488,257.4,811.9,269.249l.3.3,20.44-11.849Z" transform="translate(-733.991 -226.444)"/><path class="ag" d="M816.84,267.4,796.4,279.249l.3.148,20.44-11.849Z" transform="translate(-741.449 -221.632)"/><path class="ag" d="M833.24,257.9,812.8,269.749l.148.3L833.536,258.2Z" transform="translate(-733.558 -226.203)"/><path class="ag" d="M817.788,267.9,797.2,279.749l.3.148,20.588-11.849Z" transform="translate(-741.064 -221.392)"/><path class="ag" d="M834.04,258.4,813.6,270.249l.3.3,20.44-11.849Z" transform="translate(-733.174 -225.963)"/><path class="ag" d="M809.949,271.7,798.1,278.661l.3.148L810.245,272Z" transform="translate(-740.631 -219.563)"/><path class="ag" d="M834.988,258.9,814.4,270.749l.3.148,20.588-11.7Z" transform="translate(-732.789 -225.722)"/><path class="ag" d="M818.67,268.8,800.6,279.316l.3.148,18.07-10.368Z" transform="translate(-739.429 -220.959)"/><path class="ag" d="M826.557,263,815.3,269.517l.3.148,11.257-6.517Z" transform="translate(-732.356 -223.75)"/><path class="ag" d="M820.24,269.3,799.8,281.149l.3.3,20.44-11.849Z" transform="translate(-739.813 -220.718)"/><path class="ag" d="M836.063,259.9,817.4,270.564l.3.3,18.663-10.812Z" transform="translate(-731.345 -225.241)"/><path class="ag" d="M821.188,269.8,800.6,281.649l.3.148,20.44-11.7Z" transform="translate(-739.429 -220.478)"/><path class="ag" d="M837.44,260.4,817,272.249l.3.148,20.44-11.849Z" transform="translate(-731.538 -225.001)"/><path class="ag" d="M821.94,270.3,801.5,282.149l.148.148,20.588-11.849Z" transform="translate(-738.995 -220.237)"/><path class="ag" d="M838.388,260.9,817.8,272.6l.3.3,20.44-11.849Z" transform="translate(-731.153 -224.76)"/></g></g><g transform="translate(417.314 362.415)"><path class="b" d="M845.133,336.676c13.33,7.7,13.33,20.144,0,27.846s-34.955,7.7-48.285,0-13.33-20.144,0-27.846S831.8,328.975,845.133,336.676Z" transform="translate(-786.85 -316.214)"/><path class="ah" d="M845.736,330.2c-12.886-7.406-33.622-7.406-46.508,0-6.369,3.7-9.627,8.591-9.627,13.478v9.479c0,4.888,3.258,9.776,9.627,13.478,12.886,7.406,33.622,7.406,46.508,0,6.369-3.7,9.627-8.591,9.627-13.478v-9.479C855.363,338.647,852.1,333.907,845.736,330.2Z" transform="translate(-785.527 -319.222)"/><path class="ai" d="M845.748,330.222c12.886,7.406,12.886,19.4,0,26.809s-33.622,7.406-46.508,0-12.886-19.4,0-26.809S832.862,322.669,845.748,330.222Z" transform="translate(-785.539 -319.24)"/><g transform="translate(5.782)"><path class="t" d="M843.4,330.491a34.062,34.062,0,0,0-7.7-3.259c-15.108-4.443-33.474-1.037-41.028,7.7s-3.407,15.256,5.777,20.588a35.7,35.7,0,0,0,7.7,3.259c15.108,4.443,33.474,1.037,41.028-7.7S852.883,335.971,843.4,330.491Zm-6.961,20.884c-8,4.592-20.884,4.592-29.03,0s-8-12.145-.148-16.737,20.884-4.591,29.03,0,8,12.145,0,16.737Z" transform="translate(-790.753 -318.916)"/><g transform="translate(3.772)"><path class="m" d="M828.51,324.5v6.369l-7.109,4.147.148-6.369Z" transform="translate(-779.78 -319.294)"/><path class="aj" d="M842.03,326.191l-7.11,4.147c-8-4.592-21.032-4.592-29.031,0a14.812,14.812,0,0,0-3.7,2.962l-8.887-2.666c7.554-8.739,25.92-12.146,41.028-7.7a34.218,34.218,0,0,1,7.7,3.259Z" transform="translate(-793.3 -320.985)"/><path class="l" d="M832.133,328.419v6.369c-8-4.592-21.032-4.592-29.031,0a14.815,14.815,0,0,0-3.7,2.962v-6.369a14.813,14.813,0,0,1,3.7-2.962C811.1,323.827,823.987,323.827,832.133,328.419Z" transform="translate(-790.365 -319.065)"/><path class="m" d="M802.335,330.166l-.148,6.369-8.887-2.666V327.5Z" transform="translate(-793.3 -317.85)"/></g></g><path class="b" d="M831.86,332.837c8.146,4.74,8.146,12.294,0,17.033s-21.329,4.74-29.475,0-8.146-12.294,0-17.033S823.713,328.245,831.86,332.837Z" transform="translate(-782.315 -316.966)"/><path class="ak" d="M832.9,331.319c-8-4.592-21.032-4.592-29.031,0-4,2.37-6.073,5.332-6.073,8.443v2.074c0,2.962,2.074,6.073,6.073,8.443,8,4.592,21.032,4.592,29.031,0,4-2.37,6.073-5.332,6.073-8.443v-2.074C838.828,336.651,836.9,333.54,832.9,331.319Z" transform="translate(-781.581 -317.67)"/><path class="r" d="M832.879,331.337c8,4.592,8,12.145,0,16.737s-21.032,4.592-29.03,0-8-12.145,0-16.737S824.881,326.6,832.879,331.337Z" transform="translate(-781.557 -317.688)"/></g><g transform="translate(479.078 328.038)"><path class="b" d="M886.833,313.477c13.33,7.7,13.33,20.144,0,27.846s-34.955,7.7-48.286,0-13.33-20.144,0-27.846S873.355,305.775,886.833,313.477Z" transform="translate(-828.55 -293)"/><path class="al" d="M887.336,306.9c-12.886-7.406-33.622-7.406-46.508,0-6.369,3.7-9.628,8.591-9.628,13.478v9.479c0,4.888,3.259,9.776,9.628,13.478,12.886,7.406,33.622,7.406,46.508,0,6.369-3.7,9.628-8.591,9.628-13.478v-9.479C896.963,315.495,893.7,310.607,887.336,306.9Z" transform="translate(-827.275 -296.055)"/><path class="ai" d="M887.348,306.9c12.886,7.406,12.886,19.4,0,26.809s-33.622,7.406-46.508,0-12.886-19.4,0-26.809S874.462,299.5,887.348,306.9Z" transform="translate(-827.287 -296.055)"/><path class="am" d="M870.21,301.3v6.221l-7.11,4.147V305.3Z" transform="translate(-811.926 -296.079)"/><path class="j" d="M839.5,319.782v-6.369c0-2.962,1.926-6.073,5.925-8.294,8-4.592,20.884-4.592,29.031,0v6.369c-8-4.592-21.032-4.592-29.031,0C841.426,313.857,839.5,316.82,839.5,319.782Z" transform="translate(-823.281 -295.898)"/><path class="b" d="M873.46,309.655c8.147,4.74,8.147,12.293,0,17.033s-21.329,4.74-29.475,0-8.146-12.294,0-17.033S865.313,304.915,873.46,309.655Z" transform="translate(-824.063 -293.769)"/><path class="an" d="M874.5,308.019c-8-4.592-21.032-4.592-29.031,0-4,2.37-6.073,5.332-6.073,8.443v2.074c0,2.962,2.074,6.073,6.073,8.443,8,4.592,21.032,4.592,29.031,0,4-2.37,6.073-5.332,6.073-8.443v-2.074C880.428,313.351,878.5,310.24,874.5,308.019Z" transform="translate(-823.33 -294.503)"/><path class="r" d="M874.479,308.019c8,4.592,8,12.145,0,16.737s-21.032,4.592-29.031,0-8-12.145,0-16.737S866.481,303.427,874.479,308.019Z" transform="translate(-823.306 -294.503)"/><path class="j" d="M832.7,315.969V309.6c0,4.592,2.962,9.183,9.035,12.59v6.369C835.662,325.152,832.7,320.561,832.7,315.969Z" transform="translate(-826.553 -292.085)"/><path class="k" d="M884.83,303l-7.109,4.147c-8-4.592-21.032-4.592-29.031,0s-8,12.145.148,16.737l-7.109,4.147c-12-6.961-12-18.07-.148-25.031S872.833,296.035,884.83,303Z" transform="translate(-826.547 -297.775)"/><path class="am" d="M845.91,315.4v6.221l-7.11,4.147V319.4Z" transform="translate(-823.618 -289.295)"/></g><g transform="translate(51.84 380.349)"><g transform="translate(19.255 0)"><path class="ai" d="M580.649,337.2a2.814,2.814,0,0,0-1.777-2.962,9.478,9.478,0,0,0-8.591,0l-15.4,9.035a2.962,2.962,0,0,0-1.777,2.518h0v3.851a2.962,2.962,0,0,0,1.777,2.518,9.48,9.48,0,0,0,8.591,0l15.4-9.035a2.962,2.962,0,0,0,1.777-2.518v-3.851A2.079,2.079,0,0,1,580.649,337.2Zm-8,1.481a6.369,6.369,0,0,1,4,0,6.369,6.369,0,0,1-4,0Z" transform="translate(-553.1 -333.039)"/><path class="ao" d="M578.872,338.118l-15.4,9.035a9.479,9.479,0,0,1-8.591,0,2.962,2.962,0,0,1-1.777-2.518v3.851A2.962,2.962,0,0,0,554.877,351a9.479,9.479,0,0,0,8.591,0l15.4-9.035a2.962,2.962,0,0,0,1.777-2.518V335.6a2.963,2.963,0,0,1-1.777,2.518Z" transform="translate(-553.1 -331.887)"/><path class="ai" d="M597.469,336.954a2.814,2.814,0,0,0-1.777-2.814,9.331,9.331,0,0,0-8.591,0l-25.624,14.811a2.962,2.962,0,0,0-1.777,2.518h0v3.851a2.963,2.963,0,0,0,1.777,2.518,9.331,9.331,0,0,0,8.591,0l25.624-14.811a2.962,2.962,0,0,0,1.777-2.518v-3.555Zm-8.146,1.629a6.516,6.516,0,0,1,4.3,0A6.517,6.517,0,0,1,589.323,338.584Z" transform="translate(-549.924 -333.093)"/><path class="ao" d="M595.692,337.918l-25.624,14.811a9.332,9.332,0,0,1-8.591,0,2.962,2.962,0,0,1-1.777-2.518v3.851a2.963,2.963,0,0,0,1.777,2.518,9.331,9.331,0,0,0,8.591,0l25.624-14.812a2.962,2.962,0,0,0,1.777-2.518V335.4a2.963,2.963,0,0,1-1.777,2.518Z" transform="translate(-549.924 -331.983)"/><path class="ai" d="M612.76,337.454a2.814,2.814,0,0,0-1.778-2.814,9.331,9.331,0,0,0-8.591,0l-34.215,19.847a2.962,2.962,0,0,0-1.777,2.518h0v3.851a2.962,2.962,0,0,0,1.777,2.518,9.331,9.331,0,0,0,8.591,0l34.215-19.847a2.962,2.962,0,0,0,1.777-2.518Zm-8.146,1.629a6.517,6.517,0,0,1,4.3,0,6.517,6.517,0,0,1-4.3-.148Z" transform="translate(-546.701 -332.852)"/><path class="ao" d="M571.775,334.719a6.22,6.22,0,0,0-5.628,0,1.777,1.777,0,0,0,0,3.259l.74.3a6.369,6.369,0,0,1,4,0l.889-.3a1.777,1.777,0,0,0,0-3.259Z" transform="translate(-547.336 -332.634)"/><path class="ao" d="M585.275,334.619a6.221,6.221,0,0,0-5.628,0,1.777,1.777,0,0,0,0,3.259l.74.3a6.517,6.517,0,0,1,4.3,0l.741-.3a1.777,1.777,0,0,0-.148-3.259Z" transform="translate(-540.84 -332.683)"/><path class="ao" d="M611.131,338.37l-34.363,19.847a9.48,9.48,0,0,1-8.591,0A2.962,2.962,0,0,1,566.4,355.7v4a2.962,2.962,0,0,0,1.777,2.518,9.331,9.331,0,0,0,8.591,0l34.215-19.847a2.962,2.962,0,0,0,1.777-2.518V336A2.962,2.962,0,0,1,611.131,338.37Z" transform="translate(-546.701 -331.694)"/><g transform="translate(29.623 16.441)"><path class="ai" d="M602.131,348.054a2.814,2.814,0,0,0-1.777-2.814,9.331,9.331,0,0,0-8.591,0l-16.885,9.776a2.963,2.963,0,0,0-1.777,2.518h0v3.851a2.962,2.962,0,0,0,1.777,2.518,9.48,9.48,0,0,0,8.591,0l16.885-9.776a2.962,2.962,0,0,0,1.777-2.518v-3.555Zm-8.146,1.481a6.518,6.518,0,0,1,4.3,0,6.518,6.518,0,0,1-4.3.148Z" transform="translate(-573.1 -344.193)"/><path class="ao" d="M600.353,349.018l-16.885,9.776a9.332,9.332,0,0,1-8.591,0,2.962,2.962,0,0,1-1.777-2.518v3.851a2.962,2.962,0,0,0,1.777,2.518,9.479,9.479,0,0,0,8.591,0l16.885-9.776a2.962,2.962,0,0,0,1.777-2.518V346.5a2.962,2.962,0,0,1-1.777,2.518Z" transform="translate(-573.1 -343.083)"/><path class="ao" d="M592.675,345.719a6.22,6.22,0,0,0-5.628,0,1.777,1.777,0,0,0,0,3.258l.74.3a6.517,6.517,0,0,1,4.3,0l.74-.3a1.777,1.777,0,0,0-.148-3.259Z" transform="translate(-566.903 -343.783)"/></g><path class="ao" d="M597.775,335.019a6.221,6.221,0,0,0-5.628,0,1.777,1.777,0,0,0,0,3.258l.74.3a6.516,6.516,0,0,1,4.3,0l.74-.3a1.777,1.777,0,0,0-.148-3.259Z" transform="translate(-534.826 -332.49)"/></g><path class="ai" d="M582.936,369.665,546.5,348.633l2.074-1.333,36.436,21.032Z" transform="translate(-537.021 -326.257)"/><path class="ai" d="M591.782,378.527,543.2,350.533l2.222-1.333L594,377.342Z" transform="translate(-538.608 -325.343)"/><path class="ai" d="M563.058,365.663,540.1,352.333,542.174,351l23.106,13.33Z" transform="translate(-540.1 -324.477)"/></g><g transform="translate(213.582 109.753)"><path class="ap" d="M649.3,352.429l142.487-82.352V150.4L649.3,232.752Z" transform="translate(-649.3 -150.4)"/><path class="e" d="M652.6,354.529l142.635-82.352V152.5L652.6,234.852Z" transform="translate(-647.712 -149.39)"/><g transform="translate(8.295 10.961)"><g transform="translate(3.999)"><path class="aq" d="M786.856,232.148,657.7,306.8v-.3L786.856,232Z" transform="translate(-657.552 -122.099)"/><path class="aq" d="M786.856,219.9,657.7,294.4v-.3l129.156-74.5Z" transform="translate(-657.552 -128.065)"/><path class="aq" d="M786.856,207.448,657.7,282.1v-.3l129.156-74.5Z" transform="translate(-657.552 -133.983)"/><path class="aq" d="M786.856,195.2,657.7,269.7v-.3l129.156-74.5Z" transform="translate(-657.552 -139.949)"/><path class="aq" d="M786.856,182.9,657.7,257.4v-.3l129.156-74.5Z" transform="translate(-657.552 -145.867)"/><path class="aq" d="M786.856,170.5,657.7,245v-.3l129.156-74.5Z" transform="translate(-657.552 -151.834)"/><path class="aq" d="M786.856,158.2,657.7,232.7v-.3l129.156-74.5Z" transform="translate(-657.552 -157.752)"/><path class="aq" d="M657.9,317.557l-.3.148V208.248l.3-.148Z" transform="translate(-657.6 -133.598)"/><path class="aq" d="M667.6,311.957l-.3.148V202.648l.3-.148Z" transform="translate(-652.933 -136.293)"/><path class="aq" d="M677.148,306.357l-.148.148V197.048l.148-.148Z" transform="translate(-648.266 -138.987)"/><path class="aq" d="M686.848,300.757l-.148.148V191.448l.148-.148Z" transform="translate(-643.598 -141.681)"/><path class="aq" d="M696.6,295.109l-.148.148L696.3,185.8h.3Z" transform="translate(-638.979 -144.328)"/><path class="aq" d="M706.3,289.509l-.3.148V180.348l.3-.148Z" transform="translate(-634.312 -147.022)"/><path class="aq" d="M716,283.909l-.3.148V174.748l.3-.148Z" transform="translate(-629.645 -149.717)"/><path class="aq" d="M725.7,278.309l-.3.148V169.148l.3-.148Z" transform="translate(-624.978 -152.411)"/><path class="aq" d="M735.4,272.709l-.3.148V163.548l.3-.148Z" transform="translate(-620.311 -155.106)"/><path class="aq" d="M744.948,267.257H744.8V157.948l.148-.148Z" transform="translate(-615.644 -157.8)"/></g><path class="ar" d="M773.84,170.949a7.406,7.406,0,0,0-3.407,5.776,2.815,2.815,0,0,0,.444,1.777l-9.479,15.4a2.37,2.37,0,0,0-2.222.3,7.554,7.554,0,0,0-3.259,5.184l-7.554,4.443c-.3-1.777-1.629-2.37-3.258-1.481a7.406,7.406,0,0,0-3.407,5.776,3.533,3.533,0,0,0,.148.741l-8.443,9.183a2.074,2.074,0,0,0-2.814-.148,6.664,6.664,0,0,0-2.074,2.074l-8.887-1.481a5.171,5.171,0,0,0,0-.741c0-2.074-1.481-2.962-3.407-1.926a7.406,7.406,0,0,0-3.407,5.777,2.37,2.37,0,0,0,.889,2.074l-9.331,29.031a2.222,2.222,0,0,0-2.518.148,7.555,7.555,0,0,0-3.11,4.3l-7.7,2.666c0-2.074-1.481-2.814-3.407-1.777a7.406,7.406,0,0,0-3.407,5.776,3.411,3.411,0,0,0,.148,1.037l-9.035,11.109a2.37,2.37,0,0,0-2.37.148,7.406,7.406,0,0,0-3.407,5.776,3.112,3.112,0,0,0,.3,1.481l-9.183,12.145a2.518,2.518,0,0,0-2.074.3,7.406,7.406,0,0,0-3.406,5.776c0,2.074,1.481,2.962,3.406,1.925a7.406,7.406,0,0,0,3.407-5.776,2.961,2.961,0,0,0-.3-1.481l9.183-12a2.518,2.518,0,0,0,2.222-.3,7.406,7.406,0,0,0,3.407-5.777,3.405,3.405,0,0,0-.148-1.037l9.035-10.96a2.222,2.222,0,0,0,2.518-.148,7.406,7.406,0,0,0,3.11-4.147l7.7-2.666c.148,1.926,1.629,2.666,3.258,1.629a7.406,7.406,0,0,0,3.407-5.777,3.084,3.084,0,0,0,0-.444l9.776-30.215,1.333-.444a7.111,7.111,0,0,0,2.666-3.11l8.591,1.333a5.923,5.923,0,0,0-.3,1.777c0,2.074,1.481,2.962,3.407,1.925a7.406,7.406,0,0,0,3.406-5.776,4.442,4.442,0,0,0,0-.592l8.591-9.183a2.222,2.222,0,0,0,2.666,0,7.554,7.554,0,0,0,3.11-4.592l7.85-4.592c.444,1.333,1.629,1.777,3.11.889a7.406,7.406,0,0,0,3.407-5.776,3.257,3.257,0,0,0-.3-1.333l9.628-15.7a2.814,2.814,0,0,0,1.777-.444,7.406,7.406,0,0,0,3.407-5.777C777.1,170.652,775.617,169.912,773.84,170.949ZM658.9,301.734c-1.037.592-1.926.148-1.926-1.037a4.148,4.148,0,0,1,1.926-3.259c1.037-.592,1.925-.148,1.925,1.037a4.147,4.147,0,0,1-2.074,3.259Zm14.367-19.551c-1.037.592-1.926.148-1.926-1.037a4.147,4.147,0,0,1,1.926-3.259c1.037-.592,1.925-.148,1.925,1.037a4.147,4.147,0,0,1-2.074,3.11Zm14.663-18.07c-1.037.592-1.925.148-1.925-1.037a4.148,4.148,0,0,1,1.925-3.259c1.037-.592,1.925-.148,1.925,1.037a4.148,4.148,0,0,1-2.222,3.11ZM702,258.929c-1.037.592-1.925.148-1.925-1.037A4.148,4.148,0,0,1,702,254.634c1.037-.592,1.926-.148,1.926,1.037a4.147,4.147,0,0,1-2.074,3.259Zm14.367-36.881c-1.037.592-1.926.148-1.926-1.037a4.147,4.147,0,0,1,1.926-3.258c1.037-.592,1.925-.148,1.925,1.037a4.147,4.147,0,0,1-2.222,3.259Zm14.367,1.926c-1.037.592-1.925.148-1.925-1.037a4.147,4.147,0,0,1,1.925-3.259c1.037-.592,1.925-.148,1.925,1.037a4.147,4.147,0,0,1-2.222,3.259Zm14.515-15.552c-1.037.592-1.926.148-1.926-1.037a4.147,4.147,0,0,1,1.926-3.258c1.037-.593,1.925-.148,1.925,1.037a4.147,4.147,0,0,1-2.222,3.259Zm14.219-8.146c-1.037.592-1.925.148-1.925-1.037a4.147,4.147,0,0,1,1.925-3.259c1.037-.592,1.926-.148,1.926,1.037a4.148,4.148,0,0,1-2.222,3.258Zm14.663-23.254c-1.037.592-1.925.148-1.925-1.037a4.148,4.148,0,0,1,1.925-3.258c1.037-.593,1.925-.148,1.925,1.037a4.147,4.147,0,0,1-2.222,3.258Z" transform="translate(-654.756 -151.694)"/><path class="as" d="M773.792,189.982a7.406,7.406,0,0,0-2.962,3.7l-8.294,1.185a5.17,5.17,0,0,0,0-.741c0-2.074-1.481-2.962-3.407-1.926a7.406,7.406,0,0,0-3.407,5.776h0l-8.443,8.294a2.222,2.222,0,0,0-2.518.148,7.406,7.406,0,0,0-3.11,4.3l-9.035-8.146a7.11,7.11,0,0,0,1.185-3.7c0-2.074-1.481-2.962-3.407-1.926a7.406,7.406,0,0,0-3.407,5.776,2.37,2.37,0,0,0,.889,2.074l-11.849,37.029-.889.3a7.406,7.406,0,0,0-3.407,5.776,2.814,2.814,0,0,0,.593,1.777l-8,11.4a2.222,2.222,0,0,0-2.518.148,7.11,7.11,0,0,0-2.666,2.962L690.552,263a5.781,5.781,0,0,0,.3-1.629c0-2.074-1.481-2.962-3.407-1.925a7.406,7.406,0,0,0-3.406,5.776,3.254,3.254,0,0,0,.3,1.333l-8.739,11.4a2.221,2.221,0,0,0-2.518,0,7.406,7.406,0,0,0-3.407,5.776,3.549,3.549,0,0,0,.148.889l-8,8.887c-.444-1.333-1.629-1.629-3.11-.741a7.406,7.406,0,0,0-3.407,5.777c0,2.074,1.481,2.962,3.407,1.926a7.554,7.554,0,0,0,3.259-5.184l8.442-9.479a2.222,2.222,0,0,0,2.518-.148,7.406,7.406,0,0,0,3.407-5.777,3.415,3.415,0,0,0-.148-.889l8.887-11.7a2.37,2.37,0,0,0,2.222-.3,6.812,6.812,0,0,0,2.222-2.37l8.887,1.185a5.335,5.335,0,0,0-.148.889c0,2.074,1.481,2.962,3.406,1.926a7.406,7.406,0,0,0,3.407-5.777,3.561,3.561,0,0,0-.148-.889l8.443-12a2.814,2.814,0,0,0,1.777-.444,7.405,7.405,0,0,0,3.407-5.776,2.222,2.222,0,0,0-1.185-2.222l11.849-36.881,1.185-.444.741-.592,10.22,9.331c.444,1.185,1.629,1.629,3.11.741a7.406,7.406,0,0,0,3.407-5.777,3.547,3.547,0,0,0-.148-.889l8.146-8c.592.889,1.629,1.037,2.962.3a7.258,7.258,0,0,0,2.666-3.259l8.591-1.333h0c0,2.074,1.481,2.962,3.407,1.926a7.406,7.406,0,0,0,3.407-5.776C777.05,189.686,775.569,188.8,773.792,189.982ZM659,299.291c-1.037.592-1.925.148-1.925-1.037A4.147,4.147,0,0,1,659,295c1.037-.592,1.925-.148,1.925,1.037A4.147,4.147,0,0,1,659,299.291Zm14.367-14.811c-1.037.593-1.925.148-1.925-1.037a4.148,4.148,0,0,1,1.926-3.259c1.037-.592,1.925-.148,1.925,1.037A4.147,4.147,0,0,1,673.37,284.479Zm14.367-18.663c-1.037.592-1.925.148-1.925-1.037a4.147,4.147,0,0,1,1.925-3.259c1.037-.592,1.926-.148,1.926,1.037a4.147,4.147,0,0,1-2.074,3.259Zm14.367,1.777c-1.037.592-1.926.148-1.926-1.037A4.148,4.148,0,0,1,702.1,263.3c1.037-.592,1.925-.148,1.925,1.037a4.147,4.147,0,0,1-2.074,3.259Zm13.479-19.107c-1.037.592-1.925.148-1.925-1.037a4.147,4.147,0,0,1,1.925-3.259c1.037-.592,1.925-.148,1.925,1.037a4.147,4.147,0,0,1-2.074,3.259Zm15.108-49.767c1.037-.592,1.926-.148,1.926,1.037a4.148,4.148,0,0,1-1.037,2.37l-2.222,1.037a1.185,1.185,0,0,1-.592-1.185,4.147,4.147,0,0,1,1.777-3.11ZM744.91,212.5c-1.037.592-1.925.148-1.925-1.037a4.147,4.147,0,0,1,1.925-3.258c1.037-.592,1.925-.148,1.925,1.037a4.147,4.147,0,0,1-2.074,3.407Zm14.367-14.367c-1.037.592-1.925.148-1.925-1.037a4.147,4.147,0,0,1,1.925-3.259c1.037-.592,1.925-.148,1.925,1.037a4.147,4.147,0,0,1-2.073,3.407Zm14.664-2.37c-1.037.592-1.926.148-1.926-1.037a4.147,4.147,0,0,1,1.926-3.259c1.037-.592,1.925-.148,1.925,1.037a4.148,4.148,0,0,1-2.074,3.407Z" transform="translate(-654.708 -142.585)"/><path class="k" d="M773.984,211.985a6.814,6.814,0,0,0-2.37,2.518l-9.331-2.962a6.07,6.07,0,0,0,.444-2.074c0-2.074-1.481-2.962-3.407-1.925a7.406,7.406,0,0,0-3.407,5.776,3.569,3.569,0,0,0,0,.592l-8,8.887a2.163,2.163,0,0,0-2.814-.3,7.111,7.111,0,0,0-2.518,2.814l-8.591-.444a5.206,5.206,0,0,0,0-.741c0-2.074-1.481-2.962-3.407-1.926a7.406,7.406,0,0,0-3.407,5.776,2.222,2.222,0,0,0,1.333,2.37l-10.072,21.773a2.222,2.222,0,0,0-2.37.148,7.407,7.407,0,0,0-3.407,5.776h0l-8.146,8a2.074,2.074,0,0,0-2.814-.148,7.406,7.406,0,0,0-3.407,5.777,3.109,3.109,0,0,0,.3,1.333l-8.739,14.071a2.222,2.222,0,0,0-2.666,0,7.11,7.11,0,0,0-2.666,2.962h-8.443V289.6c0-.148-1.481-2.962-3.407-1.926a7.555,7.555,0,0,0-3.259,4.74l-7.85,2.962c-.148-1.777-1.629-2.518-3.259-1.481a7.406,7.406,0,0,0-3.407,5.776c0,2.074,1.481,2.962,3.407,1.926a7.554,7.554,0,0,0,3.11-4.444l7.85-2.962c.3,1.629,1.629,2.222,3.258,1.185a7.257,7.257,0,0,0,2.814-3.407h8.294a5.048,5.048,0,0,0-.148.889c0,2.074,1.481,2.962,3.407,1.925A7.406,7.406,0,0,0,690.3,289a3.7,3.7,0,0,0-.148-.741l8.887-14.367a2.518,2.518,0,0,0,2.222-.3,7.406,7.406,0,0,0,3.407-5.777,3.991,3.991,0,0,0,0-.592l7.85-7.85c.593.889,1.629,1.185,2.962.444a7.406,7.406,0,0,0,3.407-5.776,3.555,3.555,0,0,0-.148-.889L729.4,230.2l.592-.3a7.109,7.109,0,0,0,2.666-3.11l8.591.444a5.189,5.189,0,0,0-.148,1.037c0,2.074,1.481,2.962,3.407,1.926a7.406,7.406,0,0,0,3.407-5.776v-.3l8.146-8.887a2.074,2.074,0,0,0,2.666,0,6.516,6.516,0,0,0,1.925-1.926l9.479,2.962a5.625,5.625,0,0,0-.148,1.333c0,2.074,1.481,2.962,3.407,1.925a7.406,7.406,0,0,0,3.407-5.776C777.243,211.688,775.762,210.948,773.984,211.985Zm-114.937,87.98c-1.037.592-1.925.148-1.925-1.037a4.148,4.148,0,0,1,1.926-3.259c1.037-.592,1.925-.148,1.925,1.037a4.147,4.147,0,0,1-2.074,3.259Zm14.367-6.221c-1.037.592-1.926.148-1.926-1.037a4.147,4.147,0,0,1,1.926-3.259c1.037-.592,1.925-.148,1.925,1.037a4.147,4.147,0,0,1-2.074,3.259Zm14.367-.444c-1.037.592-1.925.148-1.925-1.037A4.147,4.147,0,0,1,687.781,289c1.037-.592,1.926-.148,1.926,1.037a4.147,4.147,0,0,1-2.074,3.259Zm14.367-21.329c-1.037.592-1.925.148-1.925-1.037a4.147,4.147,0,0,1,1.925-3.258c1.037-.592,1.925-.148,1.925,1.037A4.147,4.147,0,0,1,702,272.119ZM716.368,258.2c-1.037.592-1.926.148-1.926-1.037a4.147,4.147,0,0,1,1.926-3.259c1.037-.592,1.925-.148,1.925,1.037a4.147,4.147,0,0,1-2.222,3.407Zm14.515-30.067c-1.037.592-1.926.148-1.926-1.037a4.147,4.147,0,0,1,1.926-3.259c1.037-.592,1.925-.148,1.925,1.037a4.147,4.147,0,0,1-2.222,3.407Zm14.515.3c-1.037.592-1.926.148-1.926-1.037a4.147,4.147,0,0,1,1.926-3.259c1.037-.592,1.925-.148,1.925,1.037a4.148,4.148,0,0,1-2.222,3.407Zm14.219-15.108c-1.037.592-1.925.148-1.925-1.037a4.147,4.147,0,0,1,1.925-3.259c1.037-.592,1.926-.148,1.926,1.037a4.147,4.147,0,0,1-2.222,3.555Zm14.663,4.443c-1.037.592-1.925.148-1.925-1.037a4.147,4.147,0,0,1,1.926-3.259c1.037-.592,1.925-.148,1.925,1.037a4.147,4.147,0,0,1-2.222,3.555Z" transform="translate(-654.9 -134.076)"/></g></g><g transform="translate(174.924 194.919)"><path class="ap" d="M656.378,326.1,623.2,345.351V227.007L656.378,207.9Z" transform="translate(-623.2 -207.9)"/><path class="e" d="M660.478,328.5,627.3,347.751V229.407L660.478,210.3Z" transform="translate(-621.227 -206.745)"/><path class="at" d="M648.066,272c-4.147,2.37-3.555-3.7-7.258-1.481s-2.962,8-7.258,10.516a3.555,3.555,0,0,1-3.851-.444v32.141l26.513-15.256V252C652.065,254.37,652.214,269.626,648.066,272Z" transform="translate(-620.073 -186.681)"/><path class="k" d="M629.6,283.536a9.774,9.774,0,0,1,3.851-5.184c3.555-2.074,2.962,3.11,7.258.444s3.11-7.406,6.813-9.479,3.11.889,5.184-.148,3.555-6.369,3.555-6.369v29.475L629.6,307.531Z" transform="translate(-620.121 -181.485)"/><path class="au" d="M653.695,218.108c-2.37,1.333-3.11,9.479-5.776,10.96s-1.333-2.666-4.74-.592-2.37,4-4.74,5.332-1.777-3.11-5.184-1.185-3.555,7.7-3.555,7.7v30.808l26.216-15.108v-36.14S655.916,216.775,653.695,218.108Z" transform="translate(-620.073 -203.148)"/><path class="ar" d="M629.7,268.427V242.062s1.185-4.3,6.813-7.7,5.036,1.777,9.035-.592,3.7-6.517,10.368-10.368v29.771Z" transform="translate(-620.073 -200.442)"/><path class="k" d="M642.19,294.836l-12.59,7.258v-5.036l12.59-7.258Z" transform="translate(-620.121 -168.494)"/><path class="at" d="M651.738,289.288,639,296.545v-4.888l12.738-7.258Z" transform="translate(-615.598 -171.092)"/><path class="ar" d="M642.19,255.636l-12.59,7.258v-5.036l12.59-7.258Z" transform="translate(-620.121 -187.355)"/><path class="au" d="M651.738,250.236,639,257.494v-5.036l12.738-7.258Z" transform="translate(-615.598 -189.953)"/></g><g transform="translate(219.659 198.132)"><g transform="translate(109.907 89.507)"><path class="av" d="M751.518,338.518c-6.813.148-7.406,3.11-13.182,4.443s-10.072-.148-10.516-2.074c-.592,2.222,3.259,4.74,10.516,2.962s6.369-4,12.293-4.443v.741s7.406,0,9.924-2.074v-1.333l-.3-.741a17.626,17.626,0,0,1-8.739,2.518Z" transform="translate(-727.534 -238.985)"/><g transform="translate(21.46 89.182)"><path class="aw" d="M747.877,333.213a14.367,14.367,0,0,1-.741,5.924c-1.185,3.11-5.036,10.22-5.036,13.182s1.333,5.184,4,5.48,8.591-1.777,10.812-6.961.3-6.517,1.481-8.739a17.626,17.626,0,0,0,1.777-10.22C759.281,328.621,747.877,333.213,747.877,333.213Z" transform="translate(-742.094 -330.711)"/><g transform="translate(0 6.204)"><path class="av" d="M756.913,345.892c-2.222,5.184-8.591,7.11-10.812,6.961s-3.851-2.37-4-5.184a4,4,0,0,0,0,.444c.148,2.962,1.333,5.184,4,5.48s8.591-1.777,10.812-6.961A11.847,11.847,0,0,0,758.1,341.3,12.441,12.441,0,0,1,756.913,345.892Z" transform="translate(-742.096 -331.821)"/><path class="av" d="M753.25,340.232a4,4,0,0,0-.444,2.222v.444l1.777-5.48V334.9a19.4,19.4,0,0,1-1.333,5.332Z" transform="translate(-736.951 -334.9)"/></g></g><path class="aw" d="M759.293,330.992,745.37,330.4h-.3a8.442,8.442,0,0,1-4.147,4.443c-2.962,1.185-10.516,4.3-12.738,7.258s2.074,5.628,10.22,3.7c5.777-1.333,6.369-4.3,13.182-4.443s8.294-1.777,9.183-2.666Z" transform="translate(-727.607 -241.679)"/><path class="ax" d="M737.351,314.2c-.741-10.368-3.851-36.733-3.851-36.733l11.7-2.37,8,35.4,4.74,51.84-17.774-1.185S738.536,330.5,737.351,314.2Z" transform="translate(-724.772 -268.287)"/><path class="ay" d="M761.919,326.784l3.11-51.544-23.7-4.74s-.593,25.476,1.185,43.1c1.333,13.182,3.407,53.173,3.407,53.173s-.889,5.332,4.592,5.925,11.4-8.146,11.257-13.479-.148-8.887-.3-18.663a131.064,131.064,0,0,1,.444-13.775Z" transform="translate(-721.05 -270.5)"/></g><g transform="translate(8.882 89.507)"><path class="av" d="M675.835,338.518c6.813.148,7.406,3.11,13.182,4.443s10.072-.148,10.516-2.074c.593,2.222-3.259,4.74-10.516,2.962s-6.369-4-12.294-4.443v.741s-7.406,0-9.924-2.074v-1.333l.3-.741a17.626,17.626,0,0,0,8.739,2.518Z" transform="translate(-655.84 -238.985)"/><g transform="translate(4.303 89.182)"><path class="aw" d="M674.739,333.213a14.215,14.215,0,0,0,.74,5.925c1.185,3.11,5.036,10.22,5.036,13.182s-1.333,5.184-4,5.48-8.591-1.777-10.812-6.961-.3-6.517-1.481-8.739a17.625,17.625,0,0,1-1.777-10.22C663.334,328.621,674.739,333.213,674.739,333.213Z" transform="translate(-662.305 -330.711)"/><g transform="translate(0.585 6.204)"><path class="av" d="M664.985,345.892c2.222,5.184,8.591,7.11,10.812,6.961s3.851-2.37,4-5.184a3.966,3.966,0,0,1,0,.444c-.148,2.962-1.333,5.184-4,5.48s-8.591-1.777-10.812-6.961A11.847,11.847,0,0,1,663.8,341.3a12.438,12.438,0,0,0,1.185,4.592Z" transform="translate(-662.171 -331.821)"/><path class="av" d="M664.033,340.232a4,4,0,0,1,.444,2.222v.444l-1.777-5.48V334.9A19.4,19.4,0,0,0,664.033,340.232Z" transform="translate(-662.7 -334.9)"/></g></g><path class="aw" d="M668.181,330.992,682.1,330.4h.3a8.442,8.442,0,0,0,4.147,4.443c2.962,1.185,10.516,4.3,12.738,7.258s-2.074,5.628-10.22,3.7c-5.777-1.333-6.369-4.3-13.182-4.443s-8.294-1.777-9.183-2.666Z" transform="translate(-655.888 -241.679)"/><path class="ax" d="M687.288,314.2c.741-10.368,3.851-36.733,3.851-36.733l-11.7-2.37-7.85,35.4L666.7,362.34l17.774-1.185S686.1,330.5,687.288,314.2Z" transform="translate(-655.888 -268.287)"/><path class="ay" d="M662.51,326.784,659.4,275.24l23.7-4.74s.592,25.476-1.185,43.1c-1.333,13.182-3.407,53.173-3.407,53.173s.889,5.332-4.591,5.925-11.4-8.146-11.257-13.479.148-8.887.3-18.663a131.728,131.728,0,0,0-.445-13.775Z" transform="translate(-659.4 -270.5)"/></g><path class="az" d="M679.54,230.441c.3-1.481,4,10.516,4,16.145v46.36S677.467,242.882,679.54,230.441Z" transform="translate(-641.035 -200.328)"/><g transform="translate(67.24 68.804)"><path class="ba" d="M711.313,257l3.851.741,1.629,5.776s-4.147,6.073-7.406,7.11-4.888-9.776-4.888-9.776Z" transform="translate(-696.058 -256.292)"/><path class="bb" d="M701.91,258.839c.592-.148,4.74-2.666,6.517-1.777a5.481,5.481,0,0,1,2.518,2.814s4.888,4.3,5.036,5.332-1.333,3.7-2.814,5.036a5.777,5.777,0,0,1-6.813.3,43.977,43.977,0,0,0-7.554-3.11v-8.591Z" transform="translate(-698.8 -256.354)"/><g transform="translate(2.37 1.152)"><path class="bc" d="M711.212,264.522c-.889-1.333-5.036-1.925-7.258-2.222a10.516,10.516,0,0,0-3.555,3.407,31.531,31.531,0,0,1,5.036,2.222,5.776,5.776,0,0,0,6.813-.3h.148A14.367,14.367,0,0,0,711.212,264.522Z" transform="translate(-700.4 -254.894)"/><path class="bc" d="M709.832,263.077l1.185-.741-2.962-2.666a6.074,6.074,0,0,0-1.777-2.37,31.4,31.4,0,0,1-1.777,6.073,10.222,10.222,0,0,0,5.332-.3Z" transform="translate(-698.427 -257.3)"/></g><path class="bb" d="M709.814,261.673l-1.481,1.185c-.889.592-2.518,1.333-3.258.592s.444-4.3,1.629-5.48,4.3-2.074,5.925-.889,2.37,3.555,1.185,4.3A9.184,9.184,0,0,1,709.814,261.673Z" transform="translate(-695.892 -256.522)"/><path class="bb" d="M700.7,265.4c.592-.889,3.11-3.258,5.184-2.666s5.628,2.222,5.48,3.851,0,3.407-4.443,2.222S700.555,265.841,700.7,265.4Z" transform="translate(-697.889 -253.58)"/></g><path class="bd" d="M712.046,257s-.889,0-.741.148,1.629,8.443,1.185,10.22l3.259-.741S713.823,259.222,712.046,257Z" transform="translate(-625.551 -187.488)"/><path class="az" d="M750.158,232l-3.851-.3s-9.628,13.182-13.627,20.44a34.216,34.216,0,0,1-8.443,10.516L711.5,269.173s2.962,6.073,2.518,11.109c0,0,19.4-6.961,20.884-8.294s17.478-18.811,17.478-18.811Z" transform="translate(-625.45 -199.661)"/><path class="az" d="M734.718,276.761c.3-5.48.3-19.847.3-26.957s-.3-14.812,1.629-17.626,9.776-2.37,9.776-2.37l-4.443,9.924c-1.333,2.074-2.074,9.479-2.666,13.182s2.666,19.107,2.666,19.107l4.443,33.474c-4.147,11.849-14.219-2.074-14.219-2.074C733.681,298.237,734.422,282.241,734.718,276.761Z" transform="translate(-615.49 -200.584)"/><path class="be" d="M764.044,231.9s10.516,9.331,11.4,15.108-5.332,17.922-7.258,22.81-3.11,13.034-2.074,16,2.222,15.848,1.333,25.624a38.8,38.8,0,0,1-14.219,2.962c-6.665-.3-13.923-8.739-14.367-16.737s0-26.364,0-26.364,4.147-16.589,8.591-23.995S764.044,231.9,764.044,231.9Z" transform="translate(-612.378 -199.565)"/><path class="az" d="M684.328,276.2c-.3-5.48-.593-20.292-.593-27.253s0-15.256-1.925-18.218-7.11-1.629-7.11-1.629l4.443,9.924c1.333,2.074,2.074,9.479,2.666,13.182s-2.666,19.107-2.666,19.107L674.7,304.784c4.147,11.849,14.219-2.074,14.219-2.074a222.729,222.729,0,0,1-4.592-26.513Z" transform="translate(-643.156 -201.058)"/><path class="be" d="M664.148,231.2s-9.628,10.22-10.516,16,4.444,17.033,6.369,21.921,3.11,13.034,2.074,16-2.222,15.848-1.333,25.624a38.8,38.8,0,0,0,14.219,2.962c6.665-.3,13.923-8.739,14.367-16.737s0-26.364,0-26.364-4.147-16.589-8.591-23.995S664.148,231.2,664.148,231.2Z" transform="translate(-653.34 -199.902)"/><path class="az" d="M653.5,244.5a40.136,40.136,0,0,0,2.37,9.035c3.259,2.222,14.515,9.924,20.292,15.848s9.183,22.069,9.035,32.289a18.959,18.959,0,0,0,4-10.368c.3-8,0-26.364,0-26.364l-.444-1.629-7.7-3.407Z" transform="translate(-653.356 -193.503)"/><path class="bc" d="M672.353,227.277l-8.887-1.777s0,4.888-1.333,6.961,10.812,11.257,16,9.331,1.925-11.257,1.925-11.257Z" transform="translate(-649.251 -202.644)"/><path class="bc" d="M750.23,227.877l8.887-1.777s0,4.888,1.333,6.961-10.812,11.257-16,9.331-1.925-11.257-1.925-11.257Z" transform="translate(-611.007 -202.356)"/><path class="bf" d="M761.656,231.892s-11.7,4.888-14.515,3.11a12,12,0,0,1-3.851-3.7s-9.331,10.812-3.7,39.4c1.037-3.7,6.665-22.365,14.812-29.623S761.656,231.892,761.656,231.892Z" transform="translate(-612.804 -199.854)"/><path class="bg" d="M662.609,231.892s11.7,4.888,14.515,3.11a12.146,12.146,0,0,0,3.851-3.7s9.331,10.812,3.7,39.4c-1.037-3.7-6.665-22.365-14.811-29.623S662.609,231.892,662.609,231.892Z" transform="translate(-648.987 -199.854)"/><path class="bd" d="M697.1,258.1h2.814v9.183l-2.222-.444Z" transform="translate(-632.378 -186.959)"/><path class="l" d="M671.3,238.728l3.555,1.925a75.981,75.981,0,0,1,5.036,24.735l.889,4.443,1.333-5.776s2.518-10.664-5.332-23.995v-4.888l-3.851-2.074Z" transform="translate(-644.792 -198.988)"/><path class="bd" d="M675.51,229.9h-2.518l-.592,4.74,4.3,3.11Z" transform="translate(-644.263 -200.527)"/><path class="bc" d="M685.873,221.333a6.513,6.513,0,0,1,0,2.666c-.3.741-.74,1.926-.444,2.37s2.962,3.7,2.962,4.443a1.05,1.05,0,0,1-1.185,1.037h-.889v1.333a2.224,2.224,0,0,1-.3,1.037,3.11,3.11,0,0,0-.593,1.926,2.814,2.814,0,0,1-1.629,3.11c-1.629.592-6.221.148-10.961-1.629a30.513,30.513,0,0,1-8.739-5.184,14.954,14.954,0,0,0-1.481-3.555c-.889-1.481-4.592-9.183,1.629-15.108S684.54,210.817,685.873,221.333Z" transform="translate(-649.885 -209.734)"/><path class="bc" d="M669.106,229.92a6.666,6.666,0,0,1-3.259-3.407c-.148-1.037,1.185-4.443,1.185-4.443L665.7,219.7l-4,4.443.3.444a14.96,14.96,0,0,1,1.481,3.555,30.512,30.512,0,0,0,8.739,5.184l.74.3a11.256,11.256,0,0,1-2.518-4.888S670.439,230.512,669.106,229.92Z" transform="translate(-649.411 -205.435)"/><path class="bh" d="M685.262,216.04c0,.889.148,3.407-1.333,4s-5.184.444-6.517,1.185-.148,2.074-1.333,3.259-.148,4.3-1.185,5.184-4.591-.741-4.591-.741-3.11-.889-3.555,1.037a4.888,4.888,0,0,1-2.37,2.962l-2.666-4.443c-.889-1.481-4.3-10.368,2.962-16S685.262,212.337,685.262,216.04Z" transform="translate(-650.164 -210.069)"/><path class="bi" d="M662.618,229.1s21.477,15.108,23.55,42.361c0,0-5.628-14.071-11.7-20.44v-5.48H670.32L660.1,232.21Z" transform="translate(-650.181 -200.912)"/><path class="bd" d="M661.8,231.162l1.037-2.962a44.433,44.433,0,0,0,14.664,7.406l-1.185,6.813Z" transform="translate(-649.363 -201.345)"/><path class="bi" d="M684.4,245.441l-3.11-2.518,1.185-4A62.054,62.054,0,0,0,675.962,229l-2.962.3,1.037,1.481s10.812,15.256,5.776,41.176C679.961,271.805,684.553,257.29,684.4,245.441Z" transform="translate(-643.974 -200.96)"/><path class="bj" d="M748.737,239.328l-3.555,1.926a76.131,76.131,0,0,0-5.036,24.735l-.889,4.443-1.333-5.777s-2.518-10.664,5.332-23.995v-4.888l3.851-2.074Z" transform="translate(-612.92 -198.699)"/><path class="bk" d="M742.285,230.6H744.8l.592,4.74-4.3,3.11Z" transform="translate(-611.208 -200.191)"/><path class="bi" d="M762.35,229.8s-21.477,15.108-23.55,42.361c0,0,5.628-14.071,11.7-20.44v-5.48h4.147l10.22-13.33Z" transform="translate(-612.314 -200.575)"/><path class="bk" d="M759.8,231.762l-1.037-2.962a44.434,44.434,0,0,1-14.663,7.406l1.185,6.813Z" transform="translate(-609.764 -201.057)"/><path class="bi" d="M735.8,246.141l3.11-2.518-1.185-4a62.207,62.207,0,0,1,6.517-9.924l2.962.3-1.037,1.481s-10.812,15.256-5.777,41.176C740.248,272.357,735.508,257.99,735.8,246.141Z" transform="translate(-613.762 -200.624)"/><path class="bh" d="M682.96,226.547a5.925,5.925,0,0,0-2.37.889c-.889.741-.592,2.518-2.666,2.37a8.443,8.443,0,0,1-6.517-6.665L668,222.4s2.074,9.479,6.665,11.257c1.629.592,6.813,1.777,7.7.3a4.3,4.3,0,0,0-.148-3.555l-1.185-.3a10.808,10.808,0,0,0,1.925-1.481A3.407,3.407,0,0,0,682.96,226.547Z" transform="translate(-646.38 -204.136)"/><path class="bi" d="M719.606,267.541a73.021,73.021,0,0,1,0,9.924l-30.956-3.11c-5.036-.444-23.995-12.442-26.364-15.108s-10.516-8-8.591-14.96,7.7-8.887,13.33-2.666,23.4,21.18,23.4,21.18Z" transform="translate(-653.403 -196.696)"/><path class="az" d="M663.6,271.341l12.738-.741.3,7.258-.889-6.221Z" transform="translate(-648.497 -180.945)"/><path class="bc" d="M739.518,221.933a6.517,6.517,0,0,0,0,2.666c.3.741.74,1.926.444,2.37s-2.962,3.7-2.962,4.443a1.05,1.05,0,0,0,1.185,1.037h.889v1.333a2.22,2.22,0,0,0,.3,1.037,3.11,3.11,0,0,1,.592,1.925,2.814,2.814,0,0,0,1.629,3.11c1.629.592,6.221.148,10.961-1.629a30.511,30.511,0,0,0,8.739-5.184,14.951,14.951,0,0,1,1.481-3.555c.889-1.481,4.591-9.183-1.629-15.108S740.851,211.417,739.518,221.933Z" transform="translate(-613.18 -209.445)"/><path class="bc" d="M750.951,230.62a6.665,6.665,0,0,0,3.259-3.407c.148-1.037-1.185-4.443-1.185-4.443l1.333-2.37,4,4.443-.3.444a14.96,14.96,0,0,0-1.481,3.555,30.517,30.517,0,0,1-8.739,5.184l-.741.3a11.109,11.109,0,0,0,2.518-4.888S749.618,231.212,750.951,230.62Z" transform="translate(-608.321 -205.098)"/><path class="bh" d="M739.3,216.63c0,.889-.148,3.407,1.333,4s5.184.444,6.517,1.185.148,2.074,1.333,3.259.148,4.3,1.185,5.184,4.592-.741,4.592-.741,3.11-.889,3.555,1.037a4.887,4.887,0,0,0,2.37,2.962l2.666-4.443c.889-1.481,4.3-10.368-2.962-16S739.3,213.075,739.3,216.63Z" transform="translate(-612.075 -209.771)"/><path class="az" d="M768.726,246.681l-5.332-1.481a16.589,16.589,0,0,0-8.146,12.145c-1.185,7.554-1.481,36.584-4.147,50.507a43.249,43.249,0,0,0,10.072-2.814c.889-9.776-.3-22.662-1.333-25.624s.148-11.109,2.074-16S767.1,252.606,768.726,246.681Z" transform="translate(-606.396 -193.166)"/><g transform="translate(145.269 42.359)"><path class="bl" d="M757.1,283.8v1.037l8.294,3.259V286.91Z" transform="translate(-748.778 -216.952)"/><path class="bb" d="M759.655,284.5a9.481,9.481,0,0,0-3.851,2.814c-1.481,1.925-5.48,7.7-4,7.85s3.851-3.259,4.74-3.555,2.222,1.185,2.074,2.666-2.37,4.3-3.258,4.888-2.37,1.185-1.925,1.777,2.666.148,4.443,0a10.071,10.071,0,0,0,5.776-3.555,19.846,19.846,0,0,0,2.222-4.888c.148-.592.3-3.407.444-5.48Z" transform="translate(-751.482 -216.616)"/><path class="bc" d="M760.325,292.981c-.444,0-1.185,1.185-2.222,2.074l-3.7,2.666h1.777a10.072,10.072,0,0,0,5.776-3.555,13.766,13.766,0,0,0,1.333-2.666,29.626,29.626,0,0,1-2.962,1.481Z" transform="translate(-750.077 -213.248)"/><path class="be" d="M755.8,252.342c0-3.7,1.333-10.961,3.7-12.738s9.035-1.926,9.924,7.85-.3,26.661-.889,33.03-2.222,28.438-2.222,28.438l-9.183-3.555s-.148-16.145,0-20.736S755.8,255.9,755.8,252.342Z" transform="translate(-749.404 -238.668)"/></g><path class="be" d="M736.532,256.98a41.028,41.028,0,0,0,7.405-13.182,84.867,84.867,0,0,0,2.962-12h-.592s-9.628,13.182-13.627,20.44a34.216,34.216,0,0,1-8.443,10.516L711.5,269.273a31.547,31.547,0,0,1,2.074,6.221c6.221-2.37,14.515-8.887,15.4-9.776s1.777-1.777,2.962-.444,3.555.444,3.555-2.666S735.347,258.016,736.532,256.98Z" transform="translate(-625.45 -199.613)"/></g><g transform="translate(140.524 376.064)"><path class="b" d="M652.376,371.98c10.516,6.073,10.516,16,0,22.069s-27.7,6.073-38.214,0-10.516-16,0-22.069S641.86,365.907,652.376,371.98Z" transform="translate(-596.944 -312.289)"/><path class="b" d="M646.076,355.08c10.516,6.073,10.516,16,0,22.069s-27.7,6.073-38.214,0-10.516-16,0-22.069S635.412,349.007,646.076,355.08Z" transform="translate(-599.975 -320.421)"/><g transform="translate(9.22 29.327)"><path class="bm" d="M646.635,354c-9.183-5.332-24.291-5.332-33.474,0-4.592,2.666-6.961,6.221-6.961,9.627v4.592c0,3.555,2.37,6.961,6.961,9.628,9.183,5.332,24.291,5.332,33.474,0,4.591-2.666,6.961-6.221,6.961-9.628v-4.592C653.6,360.22,651.227,356.665,646.635,354Z" transform="translate(-606.2 -350)"/><path class="bn" d="M646.611,354c9.183,5.332,9.183,14.071,0,19.4s-24.291,5.332-33.474,0-9.183-14.071,0-19.4S637.428,348.667,646.611,354Z" transform="translate(-606.176 -350)"/><path class="bm" d="M614.749,356.76c7.554-4.444,19.847-4.444,27.549,0,3.407,1.925,5.332,4.443,5.628,7.109.444-3.11-1.481-6.369-5.628-8.887-7.554-4.443-19.848-4.443-27.549,0-4.147,2.37-6.073,5.628-5.628,8.887C609.565,361.2,611.342,358.685,614.749,356.76Z" transform="translate(-604.825 -349.206)"/></g><g transform="translate(13.664 21.921)"><path class="bm" d="M649.635,349c-9.183-5.332-24.291-5.332-33.474,0-4.591,2.666-6.961,6.221-6.961,9.627v4.592c0,3.555,2.37,6.961,6.961,9.628,9.183,5.332,24.291,5.332,33.474,0,4.592-2.666,6.961-6.221,6.961-9.628v-4.592C656.6,355.22,654.227,351.665,649.635,349Z" transform="translate(-609.2 -345)"/><path class="bn" d="M649.611,349c9.183,5.332,9.183,14.071,0,19.4s-24.291,5.332-33.474,0-9.183-14.071,0-19.4S640.428,343.667,649.611,349Z" transform="translate(-609.176 -345)"/><path class="bm" d="M617.749,351.76c7.554-4.443,19.847-4.443,27.549,0,3.407,1.926,5.332,4.443,5.628,7.11.444-3.11-1.481-6.369-5.628-8.887-7.554-4.443-19.847-4.443-27.549,0-4.147,2.37-6.073,5.628-5.628,8.887C612.565,356.2,614.342,353.685,617.749,351.76Z" transform="translate(-607.825 -344.206)"/></g><g transform="translate(9.22 12.59)"><path class="bm" d="M646.635,342.7c-9.183-5.332-24.291-5.332-33.474,0-4.592,2.666-6.961,6.221-6.961,9.628v4.592c0,3.555,2.37,6.961,6.961,9.628,9.183,5.332,24.291,5.332,33.474,0,4.591-2.666,6.961-6.221,6.961-9.628v-4.592C653.6,348.772,651.227,345.365,646.635,342.7Z" transform="translate(-606.2 -338.7)"/><path class="bn" d="M646.611,342.7c9.183,5.332,9.183,14.071,0,19.4s-24.291,5.332-33.474,0-9.183-14.071,0-19.4S637.428,337.367,646.611,342.7Z" transform="translate(-606.176 -338.7)"/><path class="bm" d="M614.749,345.46c7.554-4.443,19.847-4.443,27.549,0,3.407,1.926,5.332,4.443,5.628,7.11.444-3.11-1.481-6.369-5.628-8.887-7.554-4.443-19.848-4.443-27.549,0-4.147,2.37-6.073,5.628-5.628,8.887C609.565,349.9,611.342,347.385,614.749,345.46Z" transform="translate(-604.825 -337.906)"/></g><g transform="translate(13.664 0)"><path class="bm" d="M649.635,334.2c-9.183-5.332-24.291-5.332-33.474,0-4.591,2.666-6.961,6.221-6.961,9.628v4.592c0,3.555,2.37,6.961,6.961,9.627,9.183,5.332,24.291,5.332,33.474,0,4.592-2.666,6.961-6.221,6.961-9.627v-4.592C656.6,340.42,654.227,336.865,649.635,334.2Z" transform="translate(-609.2 -330.2)"/><path class="bn" d="M649.611,334.2c9.183,5.332,9.183,14.071,0,19.4s-24.291,5.332-33.474,0-9.183-14.071,0-19.4S640.428,328.867,649.611,334.2Z" transform="translate(-609.176 -330.2)"/><path class="bm" d="M617.749,336.96c7.554-4.443,19.847-4.443,27.549,0,3.407,1.926,5.332,4.443,5.628,7.11.444-3.11-1.481-6.369-5.628-8.887-7.554-4.443-19.847-4.443-27.549,0-4.147,2.37-6.073,5.628-5.628,8.887C612.565,341.4,614.342,338.885,617.749,336.96Z" transform="translate(-607.825 -329.406)"/></g><g transform="translate(52.914 37.917)"><path class="bm" d="M676.135,359.8c-9.183-5.332-24.291-5.332-33.474,0-4.592,2.666-6.961,6.221-6.961,9.627v4.592c0,3.555,2.37,6.961,6.961,9.627,9.183,5.332,24.291,5.332,33.474,0,4.592-2.666,6.961-6.221,6.961-9.627v-4.592C683.1,365.872,680.727,362.465,676.135,359.8Z" transform="translate(-635.7 -355.8)"/><path class="bn" d="M676.111,359.8c9.183,5.332,9.183,14.071,0,19.4s-24.291,5.332-33.474,0-9.183-14.071,0-19.4S666.78,354.467,676.111,359.8Z" transform="translate(-635.676 -355.8)"/><path class="bm" d="M644.249,362.46c7.554-4.443,19.847-4.443,27.549,0,3.407,1.925,5.332,4.444,5.628,7.11.444-3.11-1.481-6.369-5.628-8.887-7.554-4.443-19.847-4.443-27.549,0-4.147,2.37-6.073,5.628-5.628,8.887C638.917,367.052,640.842,364.534,644.249,362.46Z" transform="translate(-634.325 -355.054)"/></g><g transform="translate(53.951 29.327)"><path class="bm" d="M676.836,354c-9.183-5.332-24.291-5.332-33.474,0-4.592,2.666-6.961,6.221-6.961,9.627v4.592c0,3.555,2.37,6.961,6.961,9.628,9.183,5.332,24.291,5.332,33.474,0,4.591-2.666,6.961-6.221,6.961-9.628v-4.592C683.8,360.22,681.427,356.665,676.836,354Z" transform="translate(-636.4 -350)"/><path class="bn" d="M676.811,354c9.183,5.332,9.183,14.071,0,19.4s-24.291,5.332-33.474,0-9.183-14.071,0-19.4S667.628,348.667,676.811,354Z" transform="translate(-636.376 -350)"/><path class="bm" d="M644.949,356.76c7.554-4.444,19.848-4.444,27.549,0,3.406,1.925,5.332,4.443,5.628,7.109.444-3.11-1.481-6.369-5.628-8.887-7.554-4.443-19.848-4.443-27.549,0-4.147,2.37-6.073,5.628-5.628,8.887C639.765,361.2,641.542,358.685,644.949,356.76Z" transform="translate(-635.025 -349.206)"/></g><g transform="translate(53.951 22.217)"><path class="bm" d="M676.836,349.2c-9.183-5.332-24.291-5.332-33.474,0-4.592,2.666-6.961,6.221-6.961,9.628v4.592c0,3.555,2.37,6.961,6.961,9.627,9.183,5.332,24.291,5.332,33.474,0,4.591-2.666,6.961-6.221,6.961-9.627v-4.592C683.8,355.42,681.427,351.865,676.836,349.2Z" transform="translate(-636.4 -345.2)"/><path class="bn" d="M676.811,349.2c9.183,5.332,9.183,14.071,0,19.4s-24.291,5.332-33.474,0-9.183-14.071,0-19.4S667.628,343.867,676.811,349.2Z" transform="translate(-636.376 -345.2)"/><path class="bm" d="M644.949,351.96c7.554-4.443,19.848-4.443,27.549,0,3.406,1.925,5.332,4.443,5.628,7.11.444-3.11-1.481-6.369-5.628-8.887-7.554-4.444-19.848-4.444-27.549,0-4.147,2.37-6.073,5.628-5.628,8.887C639.765,356.4,641.542,353.885,644.949,351.96Z" transform="translate(-635.025 -344.406)"/></g><g transform="translate(16.033 53.766)"><path class="bm" d="M651.235,370.5c-9.183-5.332-24.291-5.332-33.474,0-4.592,2.666-6.961,6.221-6.961,9.627v4.592c0,3.555,2.37,6.961,6.961,9.628,9.183,5.332,24.291,5.332,33.474,0,4.591-2.666,6.961-6.221,6.961-9.628v-4.592C658.2,376.72,655.827,373.165,651.235,370.5Z" transform="translate(-610.8 -366.5)"/><path class="bn" d="M651.211,370.5c9.183,5.332,9.183,14.071,0,19.4s-24.291,5.332-33.474,0-9.183-14.071,0-19.4S641.88,365.167,651.211,370.5Z" transform="translate(-610.776 -366.5)"/><path class="bm" d="M619.349,373.26c7.554-4.443,19.847-4.443,27.549,0,3.407,1.926,5.332,4.443,5.628,7.109.444-3.11-1.481-6.369-5.628-8.887-7.554-4.443-19.847-4.443-27.549,0-4.147,2.37-6.073,5.628-5.628,8.887C614.017,377.7,615.942,375.186,619.349,373.26Z" transform="translate(-609.425 -365.706)"/></g></g><g transform="translate(292.379 419.974)"><g class="bo" transform="translate(6.339 15.256)"><path class="k" d="M762.353,385.038a1.777,1.777,0,0,1,0,3.259l-24.291,14.219a6.221,6.221,0,0,1-5.628,0L707.847,388.3a1.777,1.777,0,0,1,0-3.258l24.439-14.219a6.221,6.221,0,0,1,5.628,0Z" transform="translate(-706.78 -370.146)"/></g><path class="bp" d="M737.307,408.084a7.11,7.11,0,0,1-3.555-.889l-29.771-17.181a2.407,2.407,0,0,1,0-4.443L733.6,368.389a7.554,7.554,0,0,1,7.11,0l29.771,17.181a2.666,2.666,0,0,1,1.481,2.222,2.518,2.518,0,0,1-1.481,2.222L740.862,407.2a7.109,7.109,0,0,1-3.555.889Zm-.3-39.991a6.518,6.518,0,0,0-3.258.741l-29.623,17.181a2.074,2.074,0,0,0-1.333,1.777,2.222,2.222,0,0,0,1.333,1.777L733.9,406.751a7.257,7.257,0,0,0,6.517,0l29.623-17.181a2.074,2.074,0,0,0,1.185-1.777,2.222,2.222,0,0,0-1.333-1.777l-29.623-17.033a6.665,6.665,0,0,0-3.259-.741Z" transform="translate(-702.5 -356.163)"/><path class="c" d="M762.539,372.629,738.1,386.848a6.221,6.221,0,0,1-5.628,0l-24.587-14.219A1.925,1.925,0,0,1,706.7,371v5.628a1.926,1.926,0,0,0,1.185,1.629l24.587,14.219a6.221,6.221,0,0,0,5.628,0l24.439-14.219a1.926,1.926,0,0,0,1.185-1.629V371a1.925,1.925,0,0,1-1.185,1.629Z" transform="translate(-700.479 -354.479)"/><path class="e" d="M762.4,374.738a1.777,1.777,0,0,1,0,3.259l-24.439,14.219a6.221,6.221,0,0,1-5.628,0L707.747,378a1.777,1.777,0,0,1,0-3.258l24.439-14.219a6.22,6.22,0,0,1,5.628,0Z" transform="translate(-700.489 -359.846)"/></g><g class="bq" transform="translate(25.772 213.582)"><path class="c" d="M562.243,246.447l-4.74-2.814-3.7-1.333,4.74,2.814Z" transform="translate(-507.44 -210.011)"/><path class="c" d="M548.44,260.714,543.7,257.9l2.222,3.407,4.888,2.814Z" transform="translate(-512.3 -202.505)"/><path class="c" d="M564.183,238.066l-4.74-2.666-4.443.741,4.74,2.814Z" transform="translate(-506.863 -213.331)"/><path class="br" d="M543.34,264.014,538.6,261.2l.741,4.888,4.74,2.814Z" transform="translate(-514.753 -200.917)"/><path class="c" d="M563.928,231.314,559.04,228.5l-4.74,2.814,4.888,2.814Z" transform="translate(-507.199 -216.651)"/><path class="br" d="M538.728,265.214l-4.74-2.814-.889,5.776,4.74,2.814Z" transform="translate(-517.4 -200.34)"/><path class="c" d="M561.331,226.214l-4.888-2.814L552,227.992l4.888,2.814Z" transform="translate(-508.306 -219.105)"/><path class="c" d="M556.2,233.214l-4.888-2.814c2.814,1.629,4.591,5.184,4.591,10.072,0,10.072-6.961,22.217-15.7,27.253l4.888,2.814c8.739-5.036,15.7-17.181,15.7-27.253C560.788,238.4,559.011,234.843,556.2,233.214Z" transform="translate(-513.984 -215.737)"/><path class="c" d="M532.7,256.737l4.888,2.814c2.814,1.629,6.813,1.481,11.257-1.037l-4.888-2.814C539.513,258.07,535.514,258.366,532.7,256.737Z" transform="translate(-517.592 -203.564)"/><path class="br" d="M535.158,264.014,530.27,261.2l-2.37,6.073,4.888,2.814Z" transform="translate(-519.902 -200.917)"/><path class="c" d="M533.288,263.114,528.4,260.3l1.629,1.333,4.888,2.814Z" transform="translate(-519.661 -201.35)"/><path class="c" d="M558.254,224.651l-4.888-2.814L550.7,220.8l4.74,2.814Z" transform="translate(-508.932 -220.356)"/><path class="br" d="M556.594,223.614l-4.74-2.814-3.555,5.628,4.74,2.814Z" transform="translate(-510.086 -220.356)"/><path class="c" d="M553.809,227.414l-4.888-2.814H546.7l4.888,2.814Z" transform="translate(-510.856 -218.527)"/><path class="br" d="M532.742,260.714l-4.888-2.814-3.555,5.628,4.74,2.814Z" transform="translate(-521.634 -202.505)"/><path class="c" d="M529.04,264.514,524.3,261.7l1.777,2.518,4.74,2.814Z" transform="translate(-521.634 -200.677)"/><path class="c" d="M530.988,259.214,526.1,256.4a15.987,15.987,0,0,0,.889,2.222l4.888,2.814A15.993,15.993,0,0,1,530.988,259.214Z" transform="translate(-520.768 -203.227)"/><path class="c" d="M553.395,223.314l-4.888-2.814-3.407.592,4.888,2.814Z" transform="translate(-511.626 -220.5)"/><path class="br" d="M550.71,223.714l-4.888-2.814-2.222,6.073,4.74,2.814Z" transform="translate(-512.348 -220.308)"/><path class="c" d="M549.206,227.814,544.318,225l-2.518.889,4.888,2.814Z" transform="translate(-513.214 -218.335)"/><path class="c" d="M530.288,254.714,525.4,251.9v1.481l4.888,2.814A4.968,4.968,0,0,0,530.288,254.714Z" transform="translate(-521.105 -205.392)"/><path class="c" d="M530.388,253.714,525.5,250.9v1.481l4.888,2.814A4.966,4.966,0,0,1,530.388,253.714Z" transform="translate(-521.057 -205.873)"/><path class="br" d="M531.831,255.714l-4.888-2.814-4.443,4.3,4.888,2.814Z" transform="translate(-522.5 -204.911)"/><path class="c" d="M527.388,258.614,522.5,255.8l.593,3.7,4.888,2.814Z" transform="translate(-522.5 -203.515)"/><path class="c" d="M544.106,230.414l-4.888-2.814-2.518,1.926,4.888,2.814Z" transform="translate(-515.668 -217.084)"/><path class="br" d="M543.98,226.514l-4.74-2.814-.741,5.776,4.74,2.814Z" transform="translate(-514.802 -218.96)"/><path class="c" d="M547.294,225.114l-4.74-2.814L539,224.374l4.74,2.814Z" transform="translate(-514.561 -219.634)"/><path class="c" d="M531.777,247.314l-4.888-2.814c-.3,1.037-.593,2.222-.889,3.259l4.888,2.814C531.184,249.536,531.48,248.351,531.777,247.314Z" transform="translate(-520.816 -208.952)"/><path class="c" d="M539.109,234.914l-4.888-2.814L532,234.766l4.888,2.814Z" transform="translate(-517.929 -214.919)"/><path class="c" d="M534.817,240.814,529.929,238l-1.629,3.11,4.888,2.814Z" transform="translate(-519.709 -212.08)"/><path class="c" d="M527.98,251.314l-4.888-2.814-.593,4.443,4.888,2.666Z" transform="translate(-522.5 -207.028)"/><path class="br" d="M532.528,249.514,527.64,246.7l-4.74,2.666,4.888,2.814Z" transform="translate(-522.308 -207.894)"/><path class="c" d="M541.146,229.414l-4.888-2.814L533,229.859l4.74,2.814Z" transform="translate(-517.448 -217.565)"/><path class="br" d="M537.74,231.614,533,228.8l.889,4.888,4.74,2.814Z" transform="translate(-517.448 -216.506)"/><path class="c" d="M530.865,243.314l-4.888-2.814-1.777,4.592,4.888,2.814Z" transform="translate(-521.682 -210.877)"/><path class="c" d="M534.583,242.914l-4.74-2.814-4.443.592,4.888,2.814Z" transform="translate(-521.105 -211.069)"/><path class="c" d="M538.143,237.2l-4.888-2.814L529.7,232.9l4.74,2.814Z" transform="translate(-519.036 -214.534)"/><path class="br" d="M532.688,238.614,527.8,235.8l2.518,3.258,4.74,2.814Z" transform="translate(-519.95 -213.138)"/><path class="c" d="M535.354,235.714l-4.74-2.814-2.814,4.3,4.888,2.814Z" transform="translate(-519.95 -214.534)"/><path class="ai" d="M530.243,270.389l-4.443,4.3.592,3.7,4.74-2.814a15.985,15.985,0,0,0,.889,2.222l-3.7,5.48,1.777,2.518,4.444-4.443,1.629,1.333-2.37,6.073,2.814,1.037,3.555-5.628h2.222l-.889,5.776,3.407-.592,2.222-6.073,2.518-.889.741,4.888,3.555-2.074.741-5.776L557.2,277.5l2.37,3.407,3.407-3.407-.889-4.74,2.222-2.666,3.555,1.481,2.666-4.147-2.37-3.259,1.629-3.11,4.443-.592,1.777-4.592-3.7-1.333c.3-1.037.593-2.222.889-3.259l4.74-2.666.593-4.443-4.444.741v-2.962l4.444-4.3-.593-3.7-4.74,2.814a15.987,15.987,0,0,0-.889-2.222l3.7-5.48-1.777-2.518-4.443,4.443-1.629-1.333,2.37-6.073-2.814-1.037-3.555,5.628H561.94l.889-5.776-3.407.592-2.222,6.073-2.518.889-.741-4.888-3.555,2.074-.741,5.777-2.518,1.926-2.37-3.407-3.407,3.407.889,4.74-2.222,2.666-3.555-1.481-2.666,4.3,2.37,3.259-1.629,3.11-4.444.592-1.777,4.592,3.7,1.333c-.3,1.037-.592,2.222-.889,3.258l-4.74,2.666-.592,4.443,4.443-.741v2.814Zm6.073-4.888c0-10.072,6.961-22.217,15.7-27.253s15.848-1.037,15.848,9.035-6.961,22.217-15.7,27.253-15.848.889-16-9.183Z" transform="translate(-520.912 -219.586)"/></g><g class="bq" transform="translate(33.474 150.337)"><path class="c" d="M561.191,199l-4.888-2.666L552.6,195l4.888,2.814Z" transform="translate(-515.719 -169.524)"/><path class="c" d="M550.94,208.766,546.2,206.1l2.962,2.518,4.888,2.814Z" transform="translate(-518.799 -164.183)"/><path class="br" d="M545.14,212.914,540.4,210.1l.741,5.036,4.74,2.814Z" transform="translate(-521.589 -162.259)"/><path class="c" d="M562.779,189.366l-4.888-2.666-4.592,1.777,4.74,2.814Z" transform="translate(-515.383 -173.518)"/><path class="br" d="M540.417,213.314l-4.888-2.814-1.629,6.221,4.74,2.814Z" transform="translate(-524.717 -162.066)"/><path class="c" d="M560.083,182.814,555.2,180l-4.3,4.592,4.74,2.814Z" transform="translate(-516.537 -176.741)"/><path class="c" d="M555.282,189.314l-4.888-2.814c2.074,1.185,3.407,3.851,3.555,7.7,0,7.554-5.332,16.737-11.849,20.588l4.888,2.814c6.665-3.851,11.849-13.034,11.849-20.588C558.837,193.165,557.5,190.5,555.282,189.314Z" transform="translate(-520.771 -173.614)"/><path class="c" d="M536.3,206.489l4.888,2.814c2.222,1.333,5.184,1.037,8.443-.889l-4.888-2.814C541.484,207.526,538.522,207.674,536.3,206.489Z" transform="translate(-523.562 -164.424)"/><path class="c" d="M533.941,210.044l4.888,2.814-.741-.444L533.2,209.6Z" transform="translate(-525.054 -162.499)"/><path class="c" d="M555.813,185.9l-4.888-2.814L549,182.2l4.888,2.814Z" transform="translate(-517.451 -175.683)"/><path class="c" d="M533.888,213.714,529,210.9l1.777,2.518,4.888,2.814Z" transform="translate(-527.075 -161.874)"/><path class="br" d="M537.591,209.914,532.7,207.1l-3.7,5.628,4.888,2.814Z" transform="translate(-527.075 -163.702)"/><path class="br" d="M553.95,180.614l-4.888-2.814-2.962,5.925,4.888,2.814Z" transform="translate(-518.847 -177.8)"/><path class="c" d="M556.1,180.91,551.21,178.1l-3.11-.3,4.888,2.814Z" transform="translate(-517.885 -177.8)"/><path class="c" d="M535.688,207.614,530.8,204.8a21.49,21.49,0,0,0,1.037,3.407l4.888,2.814A21.464,21.464,0,0,1,535.688,207.614Z" transform="translate(-526.208 -164.809)"/><path class="c" d="M552.143,184.614l-4.888-2.814-3.555,1.037,4.888,2.814Z" transform="translate(-520.002 -175.875)"/><path class="c" d="M546.243,187.214l-4.888-2.814-3.555,3.259,4.888,2.814Z" transform="translate(-522.84 -174.624)"/><path class="c" d="M536.576,200.514l-4.888-2.814c-.3,1.481-.592,3.11-.889,4.592l4.888,2.814C535.984,203.625,536.28,202,536.576,200.514Z" transform="translate(-526.208 -168.225)"/><path class="c" d="M532.44,206.014,527.7,203.2v4.147l4.74,2.814Z" transform="translate(-527.7 -165.579)"/><path class="br" d="M537.179,203.614l-4.74-2.814-4.74,3.555,4.74,2.814Z" transform="translate(-527.7 -166.734)"/><path class="br" d="M545.78,183.314l-4.74-2.814-.741,5.776,4.74,2.814Z" transform="translate(-521.638 -176.501)"/><path class="c" d="M549.243,181.914l-4.888-2.814-3.555,2.074,4.74,2.814Z" transform="translate(-521.397 -177.174)"/><path class="c" d="M540.606,193.014l-4.888-2.814c-.889,1.481-1.777,2.962-2.518,4.443l4.888,2.814C538.828,196.125,539.717,194.643,540.606,193.014Z" transform="translate(-525.054 -171.834)"/><path class="c" d="M539.531,196.114l-4.888-2.814-4.443.592,4.74,2.814Z" transform="translate(-526.497 -170.342)"/><path class="c" d="M535.517,196.514l-4.74-2.814L529,198.292l4.74,2.814Z" transform="translate(-527.075 -170.15)"/><path class="c" d="M541.65,187.714l-4.74-2.814-3.11,3.851,4.74,2.814Z" transform="translate(-524.765 -174.384)"/><path class="ai" d="M535.592,219.691a21.465,21.465,0,0,0,1.037,3.407l-3.7,5.628,1.777,2.518,4.443-4.443a13.034,13.034,0,0,0,2.666,1.333l-1.777,6.221,3.11.3,2.962-5.925,3.555-1.037.741,5.036,3.555-2.074.741-5.777,3.555-3.259,3.11,2.518,3.11-3.851-1.629-4.147c.889-1.481,1.777-2.962,2.518-4.443l4.444-.592,1.777-4.592-3.7-1.333c.3-1.481.592-3.11.889-4.592l4.74-3.555v-4.147l-4.591,1.777a21.326,21.326,0,0,0-1.037-3.407l3.7-5.628-1.777-2.518-4.444,4.443a13.329,13.329,0,0,0-2.666-1.333L564.474,180l-3.11-.3-2.962,5.925-3.555,1.037-.741-5.036-3.555,2.074-.74,5.776-3.555,3.259-3.11-2.518-3.11,3.851,1.629,4.147c-.889,1.481-1.777,2.962-2.518,4.443l-4.443.592-1.777,4.592,3.7,1.333c-.3,1.481-.592,3.11-.889,4.592L531,217.321v4.147Zm4.74-5.628c0-7.554,5.332-16.737,11.849-20.588s12-.741,12,6.813-5.332,16.737-11.849,20.588-12,.741-12.145-6.813Z" transform="translate(-526.112 -176.886)"/><path class="br" d="M538.54,190.314,533.8,187.5l1.629,4.147,4.888,2.666Z" transform="translate(-524.765 -173.133)"/></g><g class="bq" transform="translate(73.465 181.145)"><path class="c" d="M567.088,221.314,562.2,218.5l.741,4.74,4.888,2.814Z" transform="translate(-551.091 -189.025)"/><path class="c" d="M579.431,206.414l-4.888-2.814-4.443,1.777,4.888,2.814Z" transform="translate(-547.29 -196.194)"/><path class="c" d="M561.1,215.244l4.888,2.814a4.147,4.147,0,0,0,4.147-.444l-4.888-2.814a4.147,4.147,0,0,1-4.147.444Z" transform="translate(-551.621 -190.805)"/><path class="c" d="M572.835,208.414l-4.888-2.814a4,4,0,0,1,1.629,3.7,12.738,12.738,0,0,1-5.777,10.072l4.888,2.814a12.738,12.738,0,0,0,5.777-10.072,4,4,0,0,0-1.629-3.7Z" transform="translate(-550.322 -195.232)"/><path class="c" d="M576.906,202.9l-4.74-2.814L569.5,198.6l4.888,2.814Z" transform="translate(-547.579 -198.6)"/><path class="br" d="M564.054,220.114l-4.888-2.814-2.666,5.628,4.888,2.814Z" transform="translate(-553.834 -189.602)"/><path class="br" d="M575.543,201.414l-4.888-2.814-3.555,5.184,4.74,2.814Z" transform="translate(-548.734 -198.6)"/><path class="c" d="M562.488,218.714,557.6,215.9a6.665,6.665,0,0,0,.889,2.074l4.888,2.814A6.668,6.668,0,0,1,562.488,218.714Z" transform="translate(-553.305 -190.276)"/><path class="c" d="M572.609,204.914l-4.888-2.814-2.222.3,4.888,2.814Z" transform="translate(-549.504 -196.916)"/><path class="c" d="M563.376,212.714l-4.888-2.814a20.3,20.3,0,0,0-.889,3.11l4.888,2.814a20.288,20.288,0,0,1,.889-3.11Z" transform="translate(-553.305 -193.163)"/><path class="c" d="M567.71,207.014l-4.888-2.814-2.222,2.37,4.888,2.814Z" transform="translate(-551.861 -195.906)"/><path class="c" d="M559.44,217.114,554.7,214.3v4.147l4.74,2.814Z" transform="translate(-554.7 -191.046)"/><path class="br" d="M563.883,214.814,559.143,212l-4.443,3.407,4.74,2.814Z" transform="translate(-554.7 -192.153)"/><path class="c" d="M570.994,201.766l-4.74-2.666-3.555,1.925,4.74,2.814Z" transform="translate(-550.851 -198.359)"/><path class="br" d="M567.68,203.214l-4.74-2.814-.741,5.628,4.74,2.814Z" transform="translate(-551.091 -197.734)"/><path class="c" d="M561.388,210.914,556.5,208.1l2.666,2.666,4.74,2.814Z" transform="translate(-553.834 -194.029)"/><path class="c" d="M566.643,208.9l-4.74-2.814-3.7-.889,4.74,2.666Z" transform="translate(-553.016 -195.424)"/><path class="ai" d="M562.344,226.124a6.665,6.665,0,0,0,.889,2.074l-2.666,5.776,2.518,1.481,3.7-5.184,2.222-.3.741,4.74,3.555-2.074.741-5.48,2.222-2.37,3.7.889,2.518-4.3-2.666-2.666a20.288,20.288,0,0,0,.889-3.11l4.443-3.407v-4.147l-4.443,1.777a6.669,6.669,0,0,0-.889-2.074l2.666-5.777-2.518-1.481-3.7,5.184-2.222.3-.741-4.74-3.555,2.074-.741,5.48-2.222,2.37-3.7-.889-2.518,4.3,2.666,2.666a20.294,20.294,0,0,0-.889,3.11l-4.444,3.407V227.9Zm3.407-4.888a12.738,12.738,0,0,1,5.777-10.072c3.258-1.777,5.776-.3,5.776,3.259a12.738,12.738,0,0,1-5.776,10.072C568.416,226.42,565.75,224.939,565.75,221.236Z" transform="translate(-553.16 -197.686)"/><path class="c" d="M563.758,207.866l-4.74-2.666-2.518,4.3,4.888,2.814Z" transform="translate(-553.834 -195.424)"/></g><g class="bs" transform="translate(472.601 70.844)"><path class="bt" d="M824.211,126.9a8.442,8.442,0,0,0,3.851,6.665,2.37,2.37,0,0,0,3.851-2.222,8.443,8.443,0,0,0-3.851-6.665,2.37,2.37,0,0,0-3.851,2.222Z" transform="translate(-824.177 -124.13)"/><path class="bu" d="M824.211,138.9a8.443,8.443,0,0,0,3.851,6.665,2.37,2.37,0,0,0,3.851-2.222,8.443,8.443,0,0,0-3.851-6.665,2.37,2.37,0,0,0-3.851,2.222Z" transform="translate(-824.177 -118.357)"/><path class="bv" d="M824.211,151a8.442,8.442,0,0,0,3.851,6.665,2.37,2.37,0,0,0,3.851-2.222,8.443,8.443,0,0,0-3.851-6.665A2.37,2.37,0,0,0,824.211,151Z" transform="translate(-824.177 -112.535)"/><path class="bw" d="M824.211,163.1a8.443,8.443,0,0,0,3.851,6.665,2.37,2.37,0,0,0,3.851-2.222,8.443,8.443,0,0,0-3.851-6.665,2.37,2.37,0,0,0-3.851,2.222Z" transform="translate(-824.177 -106.713)"/><path class="bx" d="M824.211,175.1a8.442,8.442,0,0,0,3.851,6.665,2.37,2.37,0,0,0,3.851-2.222,8.443,8.443,0,0,0-3.851-6.665,2.37,2.37,0,0,0-3.851,2.222Z" transform="translate(-824.177 -100.939)"/></g></g><g class="by" transform="translate(499.7 118.365)"><path class="bz" d="M865.741,180.1a.741.741,0,0,1,.74.741v85.018H865V180.841A.741.741,0,0,1,865.741,180.1Z" transform="translate(-323.936 -68.421)"/><path class="ca" d="M501.033,200.2a1.333,1.333,0,0,1,1.333,1.333v146.93H499.7V201.385a1.333,1.333,0,0,1,1.333-1.185Z" transform="translate(-499.7 -58.75)"/><path class="cb" d="M844.033,156.3c.741,0,1.333.3,1.333.741v76.724H842.7V157.041C842.7,156.6,843.292,156.3,844.033,156.3Z" transform="translate(-334.665 -79.873)"/><path class="cc" d="M599.833,277.8c.741,0,1.333.3,1.333.741v79.242H598.5V278.541C598.5,278.1,599.093,277.8,599.833,277.8Z" transform="translate(-452.162 -21.413)"/><path class="cd" d="M874.889,227.5a.889.889,0,0,1,.889.889v96.719H874V228.389a.889.889,0,0,1,.889-.889Z" transform="translate(-319.605 -45.615)"/><g transform="translate(388.358 7.85)"><path class="ce" d="M761.9,115.925A5.925,5.925,0,1,0,767.825,110,5.925,5.925,0,0,0,761.9,115.925Z" transform="translate(-761.9 -110)"/><path class="ce" d="M763.3,115.251a3.851,3.851,0,1,0,3.851-3.851,3.851,3.851,0,0,0-3.851,3.851Z" transform="translate(-761.227 -109.326)"/><path class="as" d="M764.1,114.818a2.518,2.518,0,1,0,2.518-2.518A2.518,2.518,0,0,0,764.1,114.818Z" transform="translate(-760.842 -108.893)"/></g><g transform="translate(54.21 266.163)"><path class="ce" d="M536.3,287.066a2.666,2.666,0,1,0,2.666-2.666,2.666,2.666,0,0,0-2.666,2.666Z" transform="translate(-536.3 -284.4)"/><path class="ce" d="M536.9,286.777A1.777,1.777,0,1,0,538.677,285,1.777,1.777,0,0,0,536.9,286.777Z" transform="translate(-536.011 -284.111)"/><path class="as" d="M537.3,286.585a1.185,1.185,0,1,0,1.185-1.185,1.185,1.185,0,0,0-1.185,1.185Z" transform="translate(-535.819 -283.919)"/></g><g transform="translate(381.989 99.089)"><path class="ce" d="M757.6,174.266a2.666,2.666,0,1,0,2.666-2.666A2.666,2.666,0,0,0,757.6,174.266Z" transform="translate(-757.6 -171.6)"/><path class="ce" d="M758.3,173.977a1.777,1.777,0,1,0,1.777-1.777A1.777,1.777,0,0,0,758.3,173.977Z" transform="translate(-757.263 -171.311)"/><path class="as" d="M758.7,173.785a1.185,1.185,0,1,0,1.185-1.185,1.185,1.185,0,0,0-1.185,1.185Z" transform="translate(-757.071 -171.119)"/></g><g class="bs" transform="translate(222.913 9.047)"><path class="cf" d="M685.155,113.933s-5.332-2.962-12.442,1.185S662.049,132.892,650.2,139.7V155.85l34.955-20.144Z" transform="translate(-650.2 -109.798)"/><path class="cg" d="M650.2,138.049c6.813-3.851,10.812-9.924,14.367-15.256s5.036-7.554,8.146-9.331c6.961-4,12.294-1.185,12.294-1.185l.3-.444s-5.48-2.962-12.59,1.185c-3.11,1.777-5.628,5.48-8.294,9.628s-7.554,11.257-14.071,14.96Z" transform="translate(-650.2 -110.808)"/></g><g transform="translate(554.395 264.959)"><path class="cf" d="M876.518,288c-1.333-.741-2.518-.148-2.518,1.481V300a5.628,5.628,0,0,0,2.518,4.443c1.333.741,2.518.148,2.518-1.481V292.3A5.629,5.629,0,0,0,876.518,288Z" transform="translate(-874 -281.614)"/><path class="cg" d="M877.959,291.618c0,1.037-.741,1.481-1.629,1.037a3.7,3.7,0,0,1-1.629-2.962c0-1.037.741-1.481,1.629-1.037A3.7,3.7,0,0,1,877.959,291.618Z" transform="translate(-873.663 -281.231)"/><path class="cf" d="M880.518,285.6c-1.333-.741-2.518-.148-2.518,1.481v17.478A5.628,5.628,0,0,0,880.518,309c1.333.741,2.518.148,2.518-1.481V290.046A5.628,5.628,0,0,0,880.518,285.6Z" transform="translate(-872.075 -282.769)"/><path class="cg" d="M881.859,289.118c0,1.037-.741,1.481-1.629,1.037a3.7,3.7,0,0,1-1.629-2.962c0-1.037.74-1.481,1.629-1.037A3.7,3.7,0,0,1,881.859,289.118Z" transform="translate(-871.787 -282.434)"/><path class="cf" d="M884.418,283.9c-1.333-.741-2.518-.148-2.518,1.481v23.55a5.628,5.628,0,0,0,2.518,4.443c1.333.741,2.518.148,2.518-1.481V288.2A5.629,5.629,0,0,0,884.418,283.9Z" transform="translate(-870.199 -283.587)"/><path class="cg" d="M885.759,287.418c0,1.037-.741,1.481-1.629,1.037a3.7,3.7,0,0,1-1.629-2.962c0-1.037.741-1.481,1.629-1.037A3.7,3.7,0,0,1,885.759,287.418Z" transform="translate(-869.91 -283.252)"/><path class="cf" d="M888.318,294.2c-1.333-.741-2.518-.148-2.518,1.481v11.553a5.628,5.628,0,0,0,2.518,4.443c1.333.741,2.518.148,2.518-1.481V298.5a5.628,5.628,0,0,0-2.518-4.3Z" transform="translate(-868.322 -278.631)"/><path class="cg" d="M889.759,297.718c0,1.037-.74,1.481-1.629,1.037a3.7,3.7,0,0,1-1.629-2.962c0-1.037.741-1.481,1.629-1.037a3.7,3.7,0,0,1,1.629,2.962Z" transform="translate(-867.986 -278.296)"/></g><g transform="translate(106.643 76.47)"><path class="cg" d="M575.7,184.2l17.329-10.072V172.8L575.7,182.872Z" transform="translate(-569.776 -148.404)"/><path class="cg" d="M571.7,189.363l23.254-13.479V174.7L571.7,188.178Z" transform="translate(-571.7 -147.489)"/><path class="cg" d="M580,183.954l10.961-6.369V176.4L580,182.769Z" transform="translate(-567.706 -146.671)"/><path class="cg" d="M599.4,180.95a14.515,14.515,0,0,0,6.221-11.109,5.035,5.035,0,0,0-1.333-3.851l5.48-8.591c1.925,1.629,3.11,4.443,3.11,8.294,0,8.591-5.925,19.107-13.478,23.55Z" transform="translate(-558.372 -155.813)"/><path class="cf" d="M607.16,166.21a4.592,4.592,0,0,0-4.591.444,13.478,13.478,0,0,0-4.74,5.184l-5.628-2.074a28.735,28.735,0,0,1,10.368-11.553c4-2.37,7.554-2.37,10.072-.741Z" transform="translate(-561.836 -156.329)"/><path class="cf" d="M598.294,168.126a12.442,12.442,0,0,0-1.185,5.036c0,4,2.666,5.628,6.073,4V185.6c-7.406,4-13.182.3-13.182-8.146a26.657,26.657,0,0,1,2.814-11.257Z" transform="translate(-562.895 -151.579)"/></g><g transform="translate(144.56 3.001)"><path class="cg" d="M627.3,110.39c0,1.333.889,1.777,1.925,1.185a4.443,4.443,0,0,0,1.926-3.407c0-1.333-.889-1.777-1.926-1.185a4.444,4.444,0,0,0-1.925,3.407Z" transform="translate(-582.865 -106.726)"/><path class="cg" d="M627.3,114.49c0,1.333.889,1.777,1.925,1.185a4.443,4.443,0,0,0,1.926-3.407c0-1.333-.889-1.777-1.926-1.185a4.444,4.444,0,0,0-1.925,3.407Z" transform="translate(-582.865 -104.753)"/><path class="cg" d="M627.3,118.49c0,1.333.889,1.777,1.925,1.185a4.443,4.443,0,0,0,1.926-3.407c0-1.333-.889-1.777-1.926-1.185a4.444,4.444,0,0,0-1.925,3.407Z" transform="translate(-582.865 -102.829)"/><path class="cg" d="M627.3,122.59c0,1.333.889,1.777,1.925,1.185a4.443,4.443,0,0,0,1.926-3.407c0-1.333-.889-1.777-1.926-1.185a4.444,4.444,0,0,0-1.925,3.407Z" transform="translate(-582.865 -100.856)"/><path class="cg" d="M627.3,126.59c0,1.333.889,1.777,1.925,1.185a4.443,4.443,0,0,0,1.926-3.407c0-1.333-.889-1.777-1.926-1.185a4.444,4.444,0,0,0-1.925,3.407Z" transform="translate(-582.865 -98.932)"/><path class="cg" d="M627.3,130.59c0,1.333.889,1.777,1.925,1.185a4.443,4.443,0,0,0,1.926-3.407c0-1.333-.889-1.777-1.926-1.185a4.444,4.444,0,0,0-1.925,3.407Z" transform="translate(-582.865 -97.007)"/><path class="cf" d="M597.3,134.715a4.444,4.444,0,0,1,1.925-3.407L636.7,109.684c1.037-.592,1.925-.148,1.925,1.185a4.444,4.444,0,0,1-1.925,3.407L599.225,135.9C598.189,136.492,597.3,136.048,597.3,134.715Z" transform="translate(-597.3 -105.427)"/><path class="cg" d="M608.4,129.336a4.443,4.443,0,0,1,1.925-3.407l21.032-12.145c1.037-.592,1.925-.148,1.925,1.185a4.443,4.443,0,0,1-1.925,3.407l-21.032,12.145C609.289,131.113,608.4,130.521,608.4,129.336Z" transform="translate(-591.959 -103.454)"/><path class="cf" d="M605.3,136a4.444,4.444,0,0,1,1.926-3.407l25.624-14.812c1.037-.592,1.925-.148,1.925,1.185a4.3,4.3,0,0,1-1.925,3.407l-25.624,14.812C606.189,137.779,605.3,137.335,605.3,136Z" transform="translate(-593.451 -101.53)"/><path class="cg" d="M612,134.325a4.443,4.443,0,0,1,1.925-3.407l15.7-9.035c1.037-.592,1.925-.148,1.925,1.185a4.444,4.444,0,0,1-1.925,3.407l-15.7,9.035C612.889,136.1,612,135.658,612,134.325Z" transform="translate(-590.227 -99.557)"/><path class="cf" d="M600.6,148.2a4.443,4.443,0,0,1,1.926-3.407l32.585-18.811c1.037-.592,1.925-.148,1.925,1.185a4.3,4.3,0,0,1-1.925,3.407l-32.585,18.811C601.489,149.978,600.6,149.386,600.6,148.2Z" transform="translate(-595.712 -97.584)"/><path class="cf" d="M604.7,148.794a4.444,4.444,0,0,1,1.925-3.407l26.513-15.4c1.037-.592,1.925-.148,1.925,1.185a4.3,4.3,0,0,1-1.925,3.407l-26.513,15.256C605.589,150.572,604.7,149.979,604.7,148.794Z" transform="translate(-593.74 -95.66)"/></g><g transform="translate(59.394 44.879)"><path class="cf" d="M554.612,160.328c4.147-2.074,8-15.256,9.775-16.293s2.962.741,6.221-1.333,6.961-7.7,6.961-7.7l.3,29.919L539.8,186.84V161.513C549.131,153.366,550.464,162.253,554.612,160.328Z" transform="translate(-539.8 -135)"/><path class="cg" d="M550.761,159.291c1.333.741,2.37,1.481,3.851.889s4.74-6.517,6.665-10.812,2.222-5.036,3.11-5.628a3.259,3.259,0,0,1,2.222-.3,5.629,5.629,0,0,0,4-.889c3.258-1.925,6.813-7.406,6.813-7.554h.3a33.029,33.029,0,0,1-6.369,7.258v26.216H571.2v-25.92l-.592.444a6.073,6.073,0,0,1-4.147.889,3.11,3.11,0,0,0-2.073.3,3.851,3.851,0,0,0-.889,1.333v27.846h-.148v-27.7l-1.777,3.7c-1.925,4.3-4.147,9.627-6.813,11.109h-.593V178.4h-.148V160.772a4.147,4.147,0,0,1-3.555-1.037,6.665,6.665,0,0,0-4.443-1.481v24.883h0V158.4a12,12,0,0,0-6.221,3.407v-.444C545.725,156.032,548.539,157.81,550.761,159.291Z" transform="translate(-539.8 -135)"/></g><path class="ce" d="M577.24,161.07a2.37,2.37,0,1,1-2.37-2.37,2.37,2.37,0,0,1,2.37,2.37Z" transform="translate(-464.672 -78.718)"/><path class="ce" d="M587.34,136.07a2.37,2.37,0,1,1-2.37-2.37A2.37,2.37,0,0,1,587.34,136.07Z" transform="translate(-459.813 -90.747)"/><circle class="ce" cx="2.37" cy="2.37" r="2.37" transform="translate(248.093 54.803)"/><path class="ce" d="M697.24,107.07a2.37,2.37,0,1,1-2.37-2.37,2.37,2.37,0,0,1,2.37,2.37Z" transform="translate(-406.934 -104.7)"/><path class="ce" d="M669.725,152.662a2.962,2.962,0,1,1-2.962-2.962A2.962,2.962,0,0,1,669.725,152.662Z" transform="translate(-420.743 -83.048)"/><circle class="ce" cx="3.703" cy="3.703" r="3.703" transform="translate(99.237 88.721)"/></g></g></g></svg>