<svg xmlns="http://www.w3.org/2000/svg" width="32" height="32" viewBox="0 0 32 32">
    <path fill="#9DA6B2" d="M16.4 0C7.785 0 .8 6.985.8 15.6c0 8.616 6.985 15.6 15.6 15.6 8.615 0 15.6-6.984 15.6-15.6C32 6.985 25.015 0 16.4 0zm4.37 27.484c-.09-1.22-.19-2.733-.196-3.345-.04-.47-.09-1.665-1.225-2.429 4.506-.377 6.65-2.867 6.804-6.158.129-1.874-.616-3.521-1.94-4.851.068-1.423-.042-3.109-.134-3.85-1.016-.292-3.385.959-4.047 1.494-1.396-.542-4.814-.732-6.89 0C11.669 7.31 9.993 6.67 9.08 6.85c-.844 1.869-.302 3.635-.137 3.846-1.086.992-2.601 2.214-2.19 4.773.66 3.753 3.3 5.777 7.552 6.273-.907.185-1.06.862-1.136 1.155-2.855 1.178-3.671-.727-4.032-1.224-1.198-1.483-2.274-1.053-2.34-1.03-.064.024-.113.118-.106.163.06.32.713.644.745.67.884.66 1.212 1.85 1.413 2.19 1.269 2.085 4.217 1.22 4.246 1.237.002.183-.02 1.717-.038 2.912C7.68 26.345 3.725 21.44 3.725 15.6c0-7 5.674-12.675 12.675-12.675 7 0 12.675 5.674 12.675 12.675 0 5.463-3.461 10.103-8.305 11.884z"/>
</svg>
