<svg xmlns="http://www.w3.org/2000/svg" width="32" height="32" viewBox="0 0 32 32">
    <g fill="#9DA6B2">
        <path d="M30.712 30.72v-.001h.008V19.452c0-5.512-1.187-9.757-7.63-9.757-3.098 0-5.176 1.7-6.025 3.311h-.09V10.21h-6.11v20.51h6.363V20.563c0-2.674.506-5.26 3.818-5.26 3.262 0 3.311 3.052 3.311 5.432v9.985h6.355zM.507 10.211L6.876 10.211 6.876 30.72.507 30.72zM3.689 0C1.652 0 0 1.652 0 3.689c0 2.036 1.652 3.723 3.689 3.723 2.036 0 3.689-1.687 3.689-3.723C7.377 1.652 5.724 0 3.689 0z" transform="translate(.6 .6)"/>
    </g>
</svg>
