<svg xmlns="http://www.w3.org/2000/svg" width="159.2" height="159.2" viewBox="0 0 159.2 159.2"><defs><style>.a{fill:#fff;stroke:#173a56;stroke-miterlimit:10;stroke-width:0.2px;stroke-dasharray:5;}.b{fill:#173a56;}</style></defs><g transform="translate(0.1 0.1)"><circle class="a" cx="79.5" cy="79.5" r="79.5"/><g transform="translate(42 42)"><path class="b" d="M63.333,13.419V6.333A6.341,6.341,0,0,0,57,0H6.333A6.341,6.341,0,0,0,0,6.333V34.2a6.321,6.321,0,0,0,5.68,6.268l4.761,12.36a6.335,6.335,0,0,0,8.187,3.633L48.361,45.007a18.311,18.311,0,0,0,1.578,16.258l.728,1.164v12.3A1.266,1.266,0,0,0,51.933,76h22.8A1.266,1.266,0,0,0,76,74.733V32.922a16.577,16.577,0,0,0-4.853-11.676Zm0,7.575,3.844,9.98A3.8,3.8,0,0,1,65,35.885l-2.2.849a6.336,6.336,0,0,0,.535-2.533ZM2.533,34.2V6.333a3.8,3.8,0,0,1,3.8-3.8H57a3.8,3.8,0,0,1,3.8,3.8v8.051h-.011l.011.029V34.2a3.843,3.843,0,0,1-.086.656l-11.6-11.6A6.758,6.758,0,0,0,39.358,32.6L44.3,38H6.333A3.8,3.8,0,0,1,2.533,34.2Zm16.227,6.333L9.753,44,8.421,40.533ZM17.717,54.1a3.8,3.8,0,0,1-4.912-2.18L10.668,46.36l15.12-5.827v-.008H46.626l1.646,1.795Zm55.75,19.37H53.2V63.333H73.467Zm0-12.667H52.636l-.549-.878A15.8,15.8,0,0,1,51.766,43.7a1.266,1.266,0,0,0-.166-1.484L41.22,30.891a4.224,4.224,0,0,1,6.1-5.843L67.5,45.229,69.3,43.438l-4.687-4.687,1.3-.507a6.334,6.334,0,0,0,3.631-8.183L65.253,18.929l4.1,4.112a14.028,14.028,0,0,1,4.111,9.882Z"/><path class="b" d="M14.061,17.354a3.293,3.293,0,0,0,3.293-3.293V7.981a3.293,3.293,0,0,0-3.293-3.293H7.981A3.293,3.293,0,0,0,4.688,7.981v6.08a3.293,3.293,0,0,0,3.293,3.293Zm-6.84-3.293V12.288H9.754V9.754H7.221V7.981a.76.76,0,0,1,.76-.76h6.08a.76.76,0,0,1,.76.76V9.754H12.288v2.533h2.533v1.773a.76.76,0,0,1-.76.76H7.981A.76.76,0,0,1,7.221,14.061Z" transform="translate(0.379 0.379)"/><path class="b" d="M5.859,19.922h5.067v2.533H5.859Z" transform="translate(0.474 1.611)"/><path class="b" d="M5.859,26.953h5.067v2.533H5.859Z" transform="translate(0.474 2.18)"/><path class="b" d="M26.953,26.953H32.02v2.533H26.953Z" transform="translate(2.18 2.18)"/><path class="b" d="M12.891,19.922h5.067v2.533H12.891Z" transform="translate(1.043 1.611)"/><path class="b" d="M19.922,19.922h5.067v2.533H19.922Z" transform="translate(1.611 1.611)"/><path class="b" d="M26.953,19.922H32.02v2.533H26.953Z" transform="translate(2.18 1.611)"/><path class="b" d="M49.219,5.859h2.533v3.8H49.219Z" transform="translate(3.981 0.474)"/><path class="b" d="M44.531,5.859h2.533v3.8H44.531Z" transform="translate(3.602 0.474)"/><path class="b" d="M39.844,5.859h2.533v3.8H39.844Z" transform="translate(3.223 0.474)"/><path class="b" d="M35.156,5.859H37.69v3.8H35.156Z" transform="translate(2.844 0.474)"/><path class="b" d="M51.563,60.938H54.1v2.533H51.563Z" transform="translate(4.171 4.929)"/></g></g></svg>