<svg xmlns="http://www.w3.org/2000/svg" width="159.2" height="159.2" viewBox="0 0 159.2 159.2"><defs><style>.a{fill:#fff;stroke:#173a56;stroke-miterlimit:10;stroke-width:0.2px;stroke-dasharray:5;}.b{fill:#173a56;}</style></defs><g transform="translate(-0.4 -0.4)"><circle class="a" cx="79.5" cy="79.5" r="79.5" transform="translate(0.5 0.5)"/><g transform="translate(42 42)"><g transform="translate(0 0)"><g transform="translate(0 0)"><path class="b" d="M376.183,0h-5.156a1.113,1.113,0,1,0,0,2.227h5.156a.387.387,0,0,1,.386.386v18.38h-5.788a2.462,2.462,0,0,0-2.459,2.459V23.6a2.473,2.473,0,0,0,.733,1.751,2.636,2.636,0,1,1-3.741,0,2.484,2.484,0,0,0,.736-1.754v-.143a2.462,2.462,0,0,0-2.459-2.459H357.8V15.2a.233.233,0,0,1,.232-.232h.143a.279.279,0,0,1,.186.091,4.862,4.862,0,1,0-.005-6.9.271.271,0,0,1-.181.086h-.144a.233.233,0,0,1-.232-.232V2.227h8.023a1.113,1.113,0,0,0,0-2.227H356.69a1.113,1.113,0,0,0-1.113,1.113v6.9a2.462,2.462,0,0,0,2.459,2.459h.144a2.473,2.473,0,0,0,1.751-.733,2.636,2.636,0,1,1,0,3.741,2.484,2.484,0,0,0-1.754-.736h-.143a2.462,2.462,0,0,0-2.459,2.459v6.9a1.113,1.113,0,0,0,1.113,1.113h6.9a.233.233,0,0,1,.232.232v.143a.28.28,0,0,1-.091.187,4.862,4.862,0,0,0,2.9,8.254,4.863,4.863,0,0,0,5.411-4.832,4.831,4.831,0,0,0-1.414-3.427.271.271,0,0,1-.086-.181v-.144a.233.233,0,0,1,.232-.232h6.9a1.113,1.113,0,0,0,1.113-1.113V2.613A2.616,2.616,0,0,0,376.183,0Z" transform="translate(-302.796 0)"/><path class="b" d="M326.934,355.577h-6.9a2.462,2.462,0,0,0-2.459,2.459v.144a2.473,2.473,0,0,0,.733,1.751,2.636,2.636,0,1,1-3.741,0,2.484,2.484,0,0,0,.736-1.754v-.143a2.462,2.462,0,0,0-2.459-2.459h-6.9a1.113,1.113,0,0,0-1.113,1.113v6.9a.233.233,0,0,1-.232.232h-.143a.28.28,0,0,1-.187-.091,4.862,4.862,0,1,0,.005,6.9.271.271,0,0,1,.181-.086h.377v7.134a1.113,1.113,0,0,0,1.113,1.113h19.493a2.616,2.616,0,0,0,2.613-2.613V356.69A1.114,1.114,0,0,0,326.934,355.577Zm-1.113,20.606a.387.387,0,0,1-.386.386h-18.38v-7.134a1.113,1.113,0,0,0-1.113-1.113h-1.49a2.473,2.473,0,0,0-1.751.733,2.636,2.636,0,1,1,0-3.74,2.484,2.484,0,0,0,1.754.736h.143a2.462,2.462,0,0,0,2.459-2.459V357.8h5.788a.233.233,0,0,1,.232.232v.143a.279.279,0,0,1-.091.186,4.862,4.862,0,1,0,6.9-.005.271.271,0,0,1-.086-.181v-.144a.233.233,0,0,1,.232-.232h5.788Z" transform="translate(-252.047 -302.796)"/><path class="b" d="M22.106,304.828H15.2a.233.233,0,0,1-.232-.232v-.143a.28.28,0,0,1,.091-.187,4.862,4.862,0,1,0-6.9.005.271.271,0,0,1,.086.181v.144a.233.233,0,0,1-.232.232h-6.9A1.113,1.113,0,0,0,0,305.941v19.493a2.616,2.616,0,0,0,2.613,2.613H5.086a1.113,1.113,0,0,0,0-2.227H2.613a.387.387,0,0,1-.386-.386v-18.38H8.015a2.462,2.462,0,0,0,2.459-2.459v-.144A2.473,2.473,0,0,0,9.74,302.7a2.636,2.636,0,1,1,3.74,0,2.484,2.484,0,0,0-.736,1.754v.143a2.462,2.462,0,0,0,2.459,2.459h5.788v5.787a.233.233,0,0,1-.233.233h-.143a.28.28,0,0,1-.187-.091,4.862,4.862,0,1,0,.005,6.9.271.271,0,0,1,.181-.086h.143a.233.233,0,0,1,.233.233v5.787H10.285a1.113,1.113,0,0,0,0,2.227H22.106a1.113,1.113,0,0,0,1.113-1.113v-6.9a2.462,2.462,0,0,0-2.46-2.46h-.143a2.473,2.473,0,0,0-1.751.733,2.636,2.636,0,1,1,0-3.741,2.484,2.484,0,0,0,1.754.736h.143a2.462,2.462,0,0,0,2.46-2.46v-6.9A1.113,1.113,0,0,0,22.106,304.828Z" transform="translate(0 -252.047)"/><path class="b" d="M1.113,23.219h6.9a2.462,2.462,0,0,0,2.459-2.459v-.144a2.473,2.473,0,0,0-.733-1.751,2.636,2.636,0,1,1,3.741,0,2.484,2.484,0,0,0-.736,1.754v.143A2.462,2.462,0,0,0,15.2,23.219h6.9a1.113,1.113,0,0,0,1.113-1.113V15.2a.233.233,0,0,1,.232-.232h.143a.28.28,0,0,1,.187.091,4.862,4.862,0,1,0-.005-6.9.271.271,0,0,1-.181.086h-.144a.233.233,0,0,1-.232-.232v-6.9A1.113,1.113,0,0,0,22.106,0H2.613A2.616,2.616,0,0,0,0,2.613V22.106a1.113,1.113,0,0,0,1.113,1.113ZM2.227,2.613a.387.387,0,0,1,.386-.386h18.38V8.015a2.462,2.462,0,0,0,2.459,2.459H23.6a2.473,2.473,0,0,0,1.751-.733,2.636,2.636,0,1,1,0,3.74,2.484,2.484,0,0,0-1.754-.736h-.143A2.462,2.462,0,0,0,20.992,15.2v5.788H15.2a.233.233,0,0,1-.232-.232v-.143a.28.28,0,0,1,.091-.186,4.862,4.862,0,1,0-6.9.005.271.271,0,0,1,.086.181v.144a.233.233,0,0,1-.232.232H2.227Z" transform="translate(0 0)"/><path class="b" d="M232.4,73.949h.891a1.113,1.113,0,1,0,0-2.227H232.4a1.113,1.113,0,0,0,0,2.227Z" transform="translate(-196.955 -61.076)"/><path class="b" d="M271.956,73.949h2.214a1.113,1.113,0,0,0,0-2.227h-2.214a1.113,1.113,0,0,0,0,2.227Z" transform="translate(-230.64 -61.076)"/><path class="b" d="M320.426,73.949h.891a1.113,1.113,0,0,0,0-2.227h-.891a1.113,1.113,0,0,0,0,2.227Z" transform="translate(-271.915 -61.076)"/><path class="b" d="M426.391,234.4a1.113,1.113,0,0,0,1.113-1.113V232.4a1.113,1.113,0,1,0-2.227,0v.891A1.113,1.113,0,0,0,426.391,234.4Z" transform="translate(-362.151 -196.955)"/><path class="b" d="M425.278,274.17a1.113,1.113,0,0,0,2.227,0v-2.214a1.113,1.113,0,0,0-2.227,0Z" transform="translate(-362.151 -230.64)"/><path class="b" d="M425.278,321.317a1.113,1.113,0,0,0,2.227,0v-.891a1.113,1.113,0,0,0-2.227,0Z" transform="translate(-362.151 -271.915)"/><path class="b" d="M261.717,425.278h-.891a1.113,1.113,0,0,0,0,2.227h.891a1.113,1.113,0,0,0,0-2.227Z" transform="translate(-221.162 -362.151)"/><path class="b" d="M214.57,425.278h-2.214a1.113,1.113,0,1,0,0,2.227h2.214a1.113,1.113,0,1,0,0-2.227Z" transform="translate(-179.887 -362.151)"/><path class="b" d="M173.691,425.278H172.8a1.113,1.113,0,1,0,0,2.227h.891a1.113,1.113,0,0,0,0-2.227Z" transform="translate(-146.202 -362.151)"/><path class="b" d="M72.835,259.713a1.113,1.113,0,0,0-1.113,1.113v.891a1.113,1.113,0,0,0,2.227,0v-.891A1.113,1.113,0,0,0,72.835,259.713Z" transform="translate(-61.076 -221.162)"/><path class="b" d="M73.949,212.356a1.113,1.113,0,1,0-2.227,0v2.214a1.113,1.113,0,0,0,2.227,0Z" transform="translate(-61.076 -179.887)"/><path class="b" d="M73.949,172.8a1.113,1.113,0,0,0-2.227,0v.891a1.113,1.113,0,0,0,2.227,0Z" transform="translate(-61.076 -146.202)"/><path class="b" d="M166.865,163.674l2.347,1.355a2.7,2.7,0,0,0,3.687-.988l2.221-3.846a2.7,2.7,0,0,0-.988-3.687l-2.346-1.354a.471.471,0,0,1-.221-.468,13.329,13.329,0,0,0,0-3.061.471.471,0,0,1,.221-.468l2.346-1.354a2.7,2.7,0,0,0,.988-3.687l-2.221-3.846a2.7,2.7,0,0,0-3.687-.988l-2.347,1.355a.474.474,0,0,1-.519-.043,13.172,13.172,0,0,0-2.635-1.525.49.49,0,0,1-.305-.442v-2.7a2.7,2.7,0,0,0-2.7-2.7h-4.441a2.7,2.7,0,0,0-2.7,2.7v2.7a.49.49,0,0,1-.305.442,13.165,13.165,0,0,0-2.636,1.525.474.474,0,0,1-.519.043l-2.347-1.355a2.7,2.7,0,0,0-3.687.988l-2.221,3.846a2.7,2.7,0,0,0,.988,3.687l2.346,1.354a.471.471,0,0,1,.221.468,13.327,13.327,0,0,0,0,3.061.471.471,0,0,1-.221.468l-2.346,1.354a2.7,2.7,0,0,0-.988,3.687l2.221,3.846a2.7,2.7,0,0,0,3.687.988l2.347-1.355a.474.474,0,0,1,.519.043,13.172,13.172,0,0,0,2.635,1.525.49.49,0,0,1,.305.442v2.7a2.7,2.7,0,0,0,2.7,2.7h4.441a2.7,2.7,0,0,0,2.7-2.7v-2.7a.49.49,0,0,1,.305-.442,13.166,13.166,0,0,0,2.636-1.525.474.474,0,0,1,.519-.043Zm-4.039-.476a2.714,2.714,0,0,0-1.648,2.486v2.7a.473.473,0,0,1-.473.473h-4.441a.473.473,0,0,1-.473-.473v-2.7a2.715,2.715,0,0,0-1.648-2.486,10.94,10.94,0,0,1-2.189-1.266,2.723,2.723,0,0,0-1.628-.543,2.665,2.665,0,0,0-1.334.357l-2.347,1.355a.473.473,0,0,1-.646-.173l-2.221-3.846a.473.473,0,0,1,.173-.646l2.346-1.354a2.7,2.7,0,0,0,1.32-2.652,11.1,11.1,0,0,1,0-2.548,2.7,2.7,0,0,0-1.32-2.652l-2.346-1.355a.473.473,0,0,1-.173-.646L146,143.382a.473.473,0,0,1,.646-.173l2.347,1.355a2.7,2.7,0,0,0,2.963-.186,10.94,10.94,0,0,1,2.189-1.266,2.714,2.714,0,0,0,1.648-2.486v-2.7a.473.473,0,0,1,.473-.473h4.441a.473.473,0,0,1,.473.473v2.7a2.715,2.715,0,0,0,1.648,2.486,10.94,10.94,0,0,1,2.189,1.266,2.7,2.7,0,0,0,2.963.186l2.347-1.355a.473.473,0,0,1,.646.173l2.221,3.846a.473.473,0,0,1-.173.646l-2.346,1.354a2.7,2.7,0,0,0-1.32,2.652,11.1,11.1,0,0,1,0,2.548,2.7,2.7,0,0,0,1.32,2.652l2.346,1.354a.473.473,0,0,1,.173.646l-2.221,3.846a.473.473,0,0,1-.646.173l-2.347-1.355a2.7,2.7,0,0,0-2.963.186A10.952,10.952,0,0,1,162.826,163.2Z" transform="translate(-120.485 -115.155)"/><path class="b" d="M232.991,228.98A4.011,4.011,0,1,0,237,232.991a4.015,4.015,0,0,0-4.011-4.011Zm0,5.8a1.784,1.784,0,1,1,1.784-1.784,1.786,1.786,0,0,1-1.784,1.784Z" transform="translate(-194.991 -194.991)"/><path class="b" d="M206.6,197.992a8.611,8.611,0,1,0,8.611,8.611A8.62,8.62,0,0,0,206.6,197.992Zm0,14.995a6.384,6.384,0,1,1,6.384-6.384A6.391,6.391,0,0,1,206.6,212.987Z" transform="translate(-168.603 -168.603)"/></g></g></g></g></svg>