<svg xmlns="http://www.w3.org/2000/svg" width="159" height="159" viewBox="0 0 159 159"><defs><style>.a{fill:#fff;}.b{fill:#173a56;fill-rule:evenodd;}</style></defs><circle class="a" cx="79.5" cy="79.5" r="79.5"/><g transform="translate(45 42)"><g transform="translate(18.958 21.332)"><path class="b" d="M16.289,32.088a15.8,15.8,0,1,1,15.8-15.8A15.816,15.816,0,0,1,16.289,32.088Zm0-30.019a14.22,14.22,0,1,0,14.22,14.22,14.235,14.235,0,0,0-14.22-14.22Z" transform="translate(-0.49 -0.49)"/></g><g transform="translate(24.186 29.253)"><path class="b" d="M8.238,18.029a.785.785,0,0,1-.559-.232L1.534,11.652A3.16,3.16,0,1,1,6,7.183L8.238,9.418,16.058,1.6a3.16,3.16,0,0,1,4.468,4.47L8.8,17.8a.789.789,0,0,1-.558.231ZM3.769,7.838a1.581,1.581,0,0,0-1.117,2.7l5.586,5.586L19.409,4.95a1.58,1.58,0,1,0-2.235-2.235L8.8,11.094a.79.79,0,0,1-1.117,0L4.885,8.3a1.569,1.569,0,0,0-1.116-.463Z" transform="translate(-0.61 -0.672)"/></g><g transform="translate(31.597 64.779)"><path class="b" d="M3.941,7.808A3.16,3.16,0,1,1,7.1,4.649a3.163,3.163,0,0,1-3.16,3.16Zm0-4.74a1.58,1.58,0,1,0,1.581,1.58A1.582,1.582,0,0,0,3.941,3.068Z" transform="translate(-0.781 -1.489)"/></g><g transform="translate(18.168 5.531)"><path class="b" d="M30.293,57.795H3.829A3.361,3.361,0,0,1,.472,54.438V3.484A3.361,3.361,0,0,1,3.829.127h6.912a.79.79,0,0,1,.79.79A2.372,2.372,0,0,0,13.9,3.287h6.32A2.373,2.373,0,0,0,22.592.917a.79.79,0,0,1,.79-.79h6.912A3.361,3.361,0,0,1,33.65,3.484V22.246a.79.79,0,0,1-1.58,0V3.484a1.779,1.779,0,0,0-1.777-1.777h-6.2a3.957,3.957,0,0,1-3.871,3.16H13.9a3.957,3.957,0,0,1-3.871-3.16h-6.2A1.78,1.78,0,0,0,2.052,3.484V54.438a1.78,1.78,0,0,0,1.777,1.777H30.293a1.78,1.78,0,0,0,1.777-1.777v-14a.788.788,0,0,1,.232-.559l.027-.027a.79.79,0,0,1,1.322.764V54.437a3.361,3.361,0,0,1-3.358,3.358Z" transform="translate(-0.472 -0.127)"/></g><g transform="translate(13.376)"><path class="b" d="M35.91,74.258H7.524A7.17,7.17,0,0,1,.362,67.1V7.163A7.171,7.171,0,0,1,7.524,0H35.91a7.171,7.171,0,0,1,7.162,7.163V10.29l.02,17.359.022,18.169v0L43.072,67.1a7.17,7.17,0,0,1-7.162,7.161ZM7.524,1.582A5.589,5.589,0,0,0,1.941,7.165V67.1a5.589,5.589,0,0,0,5.583,5.583H35.91A5.589,5.589,0,0,0,41.492,67.1l.044-21.277-.023-18.167-.02-17.36V7.165A5.588,5.588,0,0,0,35.91,1.582H7.524Z" transform="translate(-0.362 0)"/></g><g transform="translate(60.037 0.792)"><path class="b" d="M5.384,7.917a3.949,3.949,0,1,1,3.95-3.949A3.954,3.954,0,0,1,5.384,7.917Zm0-6.319A2.369,2.369,0,1,0,7.754,3.968,2.373,2.373,0,0,0,5.384,1.6Z" transform="translate(-1.434 -0.018)"/></g><g transform="translate(0 45.031)"><path class="b" d="M5.584,12.094a5.529,5.529,0,1,1,5.53-5.529A5.535,5.535,0,0,1,5.584,12.094Zm0-9.48a3.949,3.949,0,1,0,3.95,3.949A3.953,3.953,0,0,0,5.584,2.614Z" transform="translate(-0.054 -1.035)"/></g><g transform="translate(60.037 51.35)"><path class="b" d="M6.174,10.66a4.74,4.74,0,1,1,4.74-4.74A4.745,4.745,0,0,1,6.174,10.66Zm0-7.9a3.16,3.16,0,1,0,3.16,3.16,3.163,3.163,0,0,0-3.16-3.16Z" transform="translate(-1.434 -1.18)"/></g><g transform="translate(49.768 26.861)"><path class="b" d="M1.988,20.393a.789.789,0,0,1-.79-.79V1.407a.79.79,0,0,1,1.58,0V19.6A.79.79,0,0,1,1.988,20.393Z" transform="translate(-1.198 -0.617)"/></g></g></svg>