<svg xmlns="http://www.w3.org/2000/svg" width="159.2" height="159.2" viewBox="0 0 159.2 159.2"><defs><style>.a{fill:#fff;stroke:#173a56;stroke-miterlimit:10;stroke-width:0.2px;stroke-dasharray:5;}.b{fill:#173a56;}</style></defs><g transform="translate(0.1 0.1)"><circle class="a" cx="79.5" cy="79.5" r="79.5"/><g transform="translate(42 50)"><path class="b" d="M73.769,15.468h-11.9a2.311,2.311,0,0,0-2.38,2.231v2.528H46.4a2.311,2.311,0,0,0-2.38,2.231V47.593H2.38a.263.263,0,0,1-.148-.148V42.685H41.644V40.454H2.231V2.231c0-.041.107,0,.148,0H66.63c.041,0,0-.041,0,0V12.94h2.231V2.231A2.183,2.183,0,0,0,66.63,0H2.38A2.311,2.311,0,0,0,0,2.231V47.444a2.437,2.437,0,0,0,2.38,2.38H27.366v7.287H22.607v2.231H46.4V57.111H41.5V49.824h2.528V52.2a2.437,2.437,0,0,0,2.38,2.38H66.63a2.311,2.311,0,0,0,2.231-2.38V43.875h4.908A2.311,2.311,0,0,0,76,41.5V17.7A2.183,2.183,0,0,0,73.769,15.468Zm-34.5,41.644H29.6V49.824h9.667ZM61.871,17.7h11.9c.041,0,0-.041,0,0v2.528H61.722V17.7C61.722,17.658,61.83,17.7,61.871,17.7Zm-.148,4.759H73.769V36.884H61.722ZM66.63,52.352H46.4a.265.265,0,0,1-.148-.148v-2.38H66.63V52.2C66.63,52.245,66.671,52.352,66.63,52.352Zm0-4.759H46.255V22.458c0-.041.108,0,.148,0H59.491V41.5a2.437,2.437,0,0,0,2.38,2.38H66.63Zm7.139-5.949h-11.9a.265.265,0,0,1-.148-.148v-2.38H73.769V41.5C73.769,41.536,73.81,41.644,73.769,41.644Z"/><path class="b" d="M28.568,35.71h2.381v2.232H28.568Z" transform="translate(-0.012 -0.016)"/><path class="b" d="M33.329,35.71H35.71v2.232H33.329Z" transform="translate(-0.014 -0.016)"/><path class="b" d="M38.09,35.71h2.381v2.232H38.09Z" transform="translate(-0.017 -0.016)"/><path class="b" d="M6.993,10.564V6.993h3.719V4.761H4.761v5.8Z" transform="translate(-3.029 -4.564)"/><path class="b" d="M47.613,28.419h2.232V26.038h2.529V23.806H47.613Z" transform="translate(-0.021 -0.011)"/><path class="b" d="M63.087,23.806v4.613h2.232V26.038h2.529V23.806Z" transform="translate(5.229 -0.011)"/></g></g></svg>