<svg id="Group_15" data-name="Group 15" xmlns="http://www.w3.org/2000/svg" width="80" height="39" viewBox="0 0 80 39">
  <g id="Group_51" data-name="Group 51">
    <g id="Rectangle" fill="none" stroke="#2d3545" stroke-miterlimit="10" stroke-width="2">
      <rect width="80" height="39" rx="19.5" stroke="none"/>
      <rect x="1" y="1" width="78" height="37" rx="18.5" fill="none"/>
    </g>
    <rect id="Rectangle-2" data-name="Rectangle" width="39" height="39" rx="19.5" fill="#9ba4b7"/>
    
  </g>
  <g id="sunny-day" transform="translate(44 6)">
    <path id="Path" d="M.92,0A.92.92,0,0,0,0,.92V3.537a.92.92,0,0,0,1.841,0V.92A.92.92,0,0,0,.92,0Z" transform="translate(12.565 22.516)" fill="#9ba4b7"/>
    <path id="Path-2" data-name="Path" d="M.92,4.458a.92.92,0,0,0,.92-.92V.92A.92.92,0,0,0,0,.92V3.538A.92.92,0,0,0,.92,4.458Z" transform="translate(12.565 0)" fill="#9ba4b7"/>
    <path id="Path-3" data-name="Path" d="M2.121.269.27,2.12a.92.92,0,0,0,1.3,1.3l1.851-1.85a.92.92,0,1,0-1.3-1.3Z" transform="translate(3.68 19.601)" fill="#9ba4b7"/>
    <path id="Path-4" data-name="Path" d="M.92,3.691a.918.918,0,0,0,.651-.27l1.851-1.85a.92.92,0,1,0-1.3-1.3L.27,2.12A.92.92,0,0,0,.92,3.691Z" transform="translate(19.601 3.681)" fill="#9ba4b7"/>
    <path id="Path-5" data-name="Path" d="M4.458.92A.92.92,0,0,0,3.537,0H.92a.92.92,0,0,0,0,1.841H3.537A.92.92,0,0,0,4.458.92Z" transform="translate(0 12.567)" fill="#9ba4b7"/>
    <path id="Path-6" data-name="Path" d="M3.539,0H.92a.92.92,0,0,0,0,1.841H3.539A.92.92,0,0,0,3.539,0Z" transform="translate(22.515 12.567)" fill="#9ba4b7"/>
    <path id="Path-7" data-name="Path" d="M2.12,3.422a.92.92,0,0,0,1.3-1.3L1.571.27a.92.92,0,0,0-1.3,1.3Z" transform="translate(3.681 3.681)" fill="#9ba4b7"/>
    <path id="Path-8" data-name="Path" d="M1.571.27a.92.92,0,0,0-1.3,1.3l1.85,1.85a.92.92,0,1,0,1.3-1.3Z" transform="translate(19.601 19.601)" fill="#9ba4b7"/>
    <path id="Shape-2" data-name="Shape" d="M7.164,14.329a7.164,7.164,0,1,1,7.165-7.165A7.173,7.173,0,0,1,7.164,14.329Zm0-12.488a5.324,5.324,0,1,0,5.324,5.323A5.33,5.33,0,0,0,7.164,1.841Z" transform="translate(6.322 6.323)" fill="#9ba4b7"/>
  </g>
</svg>
