<svg xmlns="http://www.w3.org/2000/svg" width="76.8" height="76.8" viewBox="0 0 76.8 76.8"><defs><style>.a{fill:#23255f;}</style></defs><path class="a" d="M71.68,15.36a5.12,5.12,0,1,0,5.12,5.12A5.125,5.125,0,0,0,71.68,15.36Zm0,7.68a2.56,2.56,0,1,1,2.56-2.56A2.563,2.563,0,0,1,71.68,23.04Z"/><path class="a" d="M5.12,57.6a5.12,5.12,0,1,0,5.12,5.12A5.125,5.125,0,0,0,5.12,57.6Zm0,7.68a2.56,2.56,0,1,1,2.56-2.56A2.563,2.563,0,0,1,5.12,65.28Z"/><path class="a" d="M69.2,16.978,58.156,11.647a1.28,1.28,0,1,0-1.112,2.305l11.042,5.331A1.28,1.28,0,0,0,69.2,16.978Z"/><path class="a" d="M57.6,66.56a5.12,5.12,0,1,0,5.12,5.12A5.125,5.125,0,0,0,57.6,66.56Zm0,7.68a2.56,2.56,0,1,1,2.56-2.56A2.563,2.563,0,0,1,57.6,74.24Z"/><path class="a" d="M55.118,68.178,44.076,62.847a1.28,1.28,0,1,0-1.112,2.305l11.043,5.331a1.28,1.28,0,0,0,1.112-2.305Z"/><path class="a" d="M38.4,34.56a5.12,5.12,0,1,0,5.12,5.12A5.125,5.125,0,0,0,38.4,34.56Zm0,7.68a2.56,2.56,0,1,1,2.56-2.56A2.563,2.563,0,0,1,38.4,42.24Z"/><path class="a" d="M36.15,36.321,27.667,29.71a1.28,1.28,0,0,0-1.574,2.02l8.482,6.611a1.281,1.281,0,1,0,1.574-2.02Z"/><path class="a" d="M61.44,33.28A14.08,14.08,0,1,0,75.52,47.36,14.1,14.1,0,0,0,61.44,33.28Zm0,25.6A11.52,11.52,0,1,1,72.96,47.36,11.532,11.532,0,0,1,61.44,58.88Z"/><path class="a" d="M61.44,38.4a5.12,5.12,0,1,0,5.12,5.12A5.125,5.125,0,0,0,61.44,38.4Zm0,7.68A2.56,2.56,0,1,1,64,43.52,2.563,2.563,0,0,1,61.44,46.08Z"/><path class="a" d="M65.153,51.2H57.727a3.919,3.919,0,0,0-3.967,3.859v3.374a1.281,1.281,0,0,0,.639,1.109,14.009,14.009,0,0,0,14.083,0,1.279,1.279,0,0,0,.639-1.107V55.061A3.919,3.919,0,0,0,65.153,51.2Zm1.407,6.47a11.606,11.606,0,0,1-10.24,0v-2.61a1.359,1.359,0,0,1,1.407-1.3h7.426a1.359,1.359,0,0,1,1.407,1.3v2.61Z"/><path class="a" d="M30.72,48.64A14.08,14.08,0,1,0,44.8,62.72,14.1,14.1,0,0,0,30.72,48.64Zm0,25.6A11.52,11.52,0,1,1,42.24,62.72,11.532,11.532,0,0,1,30.72,74.24Z"/><path class="a" d="M30.72,53.76a5.12,5.12,0,1,0,5.12,5.12A5.125,5.125,0,0,0,30.72,53.76Zm0,7.68a2.56,2.56,0,1,1,2.56-2.56A2.563,2.563,0,0,1,30.72,61.44Z"/><path class="a" d="M34.433,66.56H27.007a3.919,3.919,0,0,0-3.967,3.859v3.374a1.281,1.281,0,0,0,.639,1.108,14.008,14.008,0,0,0,14.083,0,1.279,1.279,0,0,0,.639-1.107V70.421A3.919,3.919,0,0,0,34.433,66.56Zm1.407,6.47a11.606,11.606,0,0,1-10.24,0v-2.61a1.358,1.358,0,0,1,1.407-1.3h7.427a1.358,1.358,0,0,1,1.407,1.3v2.61Z"/><path class="a" d="M14.08,16.64A14.08,14.08,0,1,0,28.16,30.72,14.1,14.1,0,0,0,14.08,16.64Zm0,25.6A11.52,11.52,0,1,1,25.6,30.72,11.532,11.532,0,0,1,14.08,42.24Z"/><path class="a" d="M14.08,21.76a5.12,5.12,0,1,0,5.12,5.12A5.125,5.125,0,0,0,14.08,21.76Zm0,7.68a2.56,2.56,0,1,1,2.56-2.56A2.563,2.563,0,0,1,14.08,29.44Z"/><path class="a" d="M17.793,34.56H10.367A3.919,3.919,0,0,0,6.4,38.419v3.374A1.281,1.281,0,0,0,7.039,42.9a14.009,14.009,0,0,0,14.083,0,1.279,1.279,0,0,0,.639-1.107V38.421A3.919,3.919,0,0,0,17.793,34.56ZM19.2,41.03a11.607,11.607,0,0,1-10.24,0v-2.61a1.358,1.358,0,0,1,1.407-1.3h7.427a1.359,1.359,0,0,1,1.407,1.3v2.61Z"/><path class="a" d="M44.8,0A14.08,14.08,0,1,0,58.88,14.08,14.1,14.1,0,0,0,44.8,0Zm0,25.6A11.52,11.52,0,1,1,56.32,14.08,11.532,11.532,0,0,1,44.8,25.6Z"/><path class="a" d="M44.8,5.12a5.12,5.12,0,1,0,5.12,5.12A5.125,5.125,0,0,0,44.8,5.12Zm0,7.68a2.56,2.56,0,1,1,2.56-2.56A2.563,2.563,0,0,1,44.8,12.8Z"/><path class="a" d="M48.513,17.92H41.087a3.919,3.919,0,0,0-3.967,3.859v3.374a1.281,1.281,0,0,0,.639,1.108,14.009,14.009,0,0,0,14.083,0,1.279,1.279,0,0,0,.639-1.107V21.781A3.919,3.919,0,0,0,48.513,17.92Zm1.407,6.47a11.606,11.606,0,0,1-10.24,0v-2.61a1.358,1.358,0,0,1,1.407-1.3h7.426a1.358,1.358,0,0,1,1.407,1.3v2.61Z"/><path class="a" d="M32.974,13.247a1.282,1.282,0,0,0-1.8-.139L22.3,20.7a1.28,1.28,0,1,0,1.664,1.944l8.87-7.59A1.279,1.279,0,0,0,32.974,13.247Z"/><path class="a" d="M61.184,33.793,53.5,23.553a1.28,1.28,0,0,0-2.048,1.535l7.68,10.24a1.28,1.28,0,0,0,2.048-1.535Z"/><path class="a" d="M50.679,51.593a1.28,1.28,0,0,0-1.792-.256L41.737,56.7a1.279,1.279,0,0,0,1.536,2.047l7.15-5.362A1.279,1.279,0,0,0,50.679,51.593Z"/><path class="a" d="M17.92,61.44H8.96a1.28,1.28,0,0,0,0,2.56h8.96a1.28,1.28,0,0,0,0-2.56Z"/><path class="a" d="M14.08,0A5.12,5.12,0,1,0,19.2,5.12,5.125,5.125,0,0,0,14.08,0Zm0,7.68a2.56,2.56,0,1,1,2.56-2.56A2.563,2.563,0,0,1,14.08,7.68Z"/><path class="a" d="M14.08,7.68A1.28,1.28,0,0,0,12.8,8.96v8.96a1.28,1.28,0,1,0,2.56,0V8.96A1.28,1.28,0,0,0,14.08,7.68Z"/></svg>