<svg xmlns="http://www.w3.org/2000/svg" width="66.292" height="76.95" viewBox="0 0 66.292 76.95"><defs><style>.a{fill:#23255f;}</style></defs><g transform="translate(-0.075)"><path class="a" d="M64.865,0H1.578a1.5,1.5,0,0,0-1.5,1.5V56.726a1.5,1.5,0,0,0,1.5,1.5h30.14v5.914a6.512,6.512,0,0,0-4.812,4.812H1.578a1.5,1.5,0,0,0,0,3.006H26.907a6.491,6.491,0,0,0,12.629,0H64.865a1.5,1.5,0,0,0,0-3.006H39.536a6.512,6.512,0,0,0-4.812-4.812V58.229h30.14a1.5,1.5,0,0,0,1.5-1.5V1.5A1.5,1.5,0,0,0,64.865,0ZM36.708,70.458a3.486,3.486,0,0,1-6.973,0h0a3.486,3.486,0,0,1,6.973,0ZM3.081,3.006H63.362v7.361H3.081ZM63.362,55.223H3.081V13.373H63.362Z"/><path class="a" d="M46.083,5.183H43.847a1.5,1.5,0,1,0,0,3.006h2.236a1.5,1.5,0,0,0,0-3.006Z"/><path class="a" d="M53.067,5.183H50.832a1.5,1.5,0,0,0,0,3.006h2.236a1.5,1.5,0,1,0,0-3.006Z"/><path class="a" d="M60.392,5.183H58.157a1.5,1.5,0,1,0,0,3.006h2.236a1.5,1.5,0,0,0,0-3.006Z"/><path class="a" d="M9.218,48.848H27.21a1.5,1.5,0,0,0,0-3.006H10.721V40.4h45v5.438H39.233a1.5,1.5,0,1,0,0,3.006H57.225a1.5,1.5,0,0,0,1.5-1.5V38.9a1.5,1.5,0,0,0-1.5-1.5h-22.5V29.487h22.5a1.5,1.5,0,0,0,1.5-1.5V19.541a1.5,1.5,0,0,0-1.5-1.5H9.218a1.5,1.5,0,0,0-1.5,1.5v8.443a1.5,1.5,0,0,0,1.5,1.5h22.5V37.4H9.218a1.5,1.5,0,0,0-1.5,1.5v8.443A1.5,1.5,0,0,0,9.218,48.848Zm1.5-27.8h45v5.438h-45Z"/><path class="a" d="M33.221,45.842a1.5,1.5,0,1,0,1.5,1.5A1.506,1.506,0,0,0,33.221,45.842Z"/></g></svg>