<svg xmlns="http://www.w3.org/2000/svg" width="68.057" height="68.058" viewBox="0 0 68.057 68.058"><defs><style>.a{fill:#23255f;}</style></defs><path class="a" d="M66.728,27.748H58.221a1.329,1.329,0,0,0-1.329,1.329V35.79a1.329,1.329,0,0,0,2.658,0V30.406H65.4V65.4H59.55V45.759a1.329,1.329,0,1,0-2.658,0V65.4H54.233V37.883A1.329,1.329,0,0,0,52.9,36.554H44.4a1.329,1.329,0,0,0-1.329,1.329V65.4H40.409V47.188a1.329,1.329,0,0,0-1.329-1.329H30.573a1.329,1.329,0,0,0-1.329,1.329V65.4H26.585V54.815a1.329,1.329,0,0,0-1.329-1.329H16.748a1.329,1.329,0,0,0-1.329,1.329V65.4H3.988A1.331,1.331,0,0,1,2.658,64.07V3.988A1.331,1.331,0,0,1,3.988,2.658H38.279v8.773a3.992,3.992,0,0,0,3.988,3.988H51.04V31.769a1.329,1.329,0,1,0,2.658,0V14.09a1.33,1.33,0,0,0-.389-.94L40.548.389A1.329,1.329,0,0,0,39.608,0H3.988A3.992,3.992,0,0,0,0,3.988V64.07a3.992,3.992,0,0,0,3.988,3.988h62.74a1.329,1.329,0,0,0,1.329-1.329V29.077A1.329,1.329,0,0,0,66.728,27.748ZM40.937,4.538l8.223,8.223H42.267a1.331,1.331,0,0,1-1.329-1.329ZM23.926,65.4H18.078V56.144h5.849Zm13.824,0H31.9V48.517h5.849Zm13.824,0H45.726V39.213h5.849Z"/><path class="a" d="M36.59,24.037a1.329,1.329,0,1,0,.389.94A1.334,1.334,0,0,0,36.59,24.037Z" transform="translate(22.57 15.551)"/><path class="a" d="M16.524,4.389a1.329,1.329,0,0,0-1.329,1.329V8.109A12.226,12.226,0,1,0,28.678,21.592h2.391A1.329,1.329,0,0,0,32.4,20.263,15.892,15.892,0,0,0,16.524,4.389Zm0,25.441a9.568,9.568,0,0,1-1.329-19.042v9.475a1.329,1.329,0,0,0,1.329,1.329H26A9.582,9.582,0,0,1,16.524,29.83Zm1.329-10.9h0V7.114a13.241,13.241,0,0,1,11.82,11.82Z" transform="translate(2.827 2.886)"/><path class="a" d="M31.048,23.6H5.66a1.329,1.329,0,0,0,0,2.658H31.048a1.329,1.329,0,0,0,0-2.658Z" transform="translate(2.848 15.517)"/><path class="a" d="M14.167,27.465H5.66a1.329,1.329,0,1,0,0,2.658h8.507a1.329,1.329,0,1,0,0-2.658Z" transform="translate(2.848 18.062)"/><path class="a" d="M15.747,27.854a1.329,1.329,0,1,0,.389.94A1.34,1.34,0,0,0,15.747,27.854Z" transform="translate(8.864 18.062)"/></svg>