<svg xmlns="http://www.w3.org/2000/svg" width="856.602" height="449.764" viewBox="0 0 856.602 449.764"><defs><style>.a{fill:#aed8ff;}.b{fill:#94ccff;}.c{fill:#cf2b2a;}.d{fill:#031d3f;}.e{fill:#06397d;}.f{fill:#fff;}.g{fill:#031c3d;}.h{fill:#e6eff7;}.i{fill:#911f1e;}.j{fill:#38a0ff;}.k{fill:#0b74d6;}.l{fill:#e6e7e8;}.m{fill:#d1d3d4;}.n{fill:#bcbec0;}.o{fill:#ffcd89;}.p{fill:#042959;}.q{mix-blend-mode:multiply;}.q,.z{isolation:isolate;}.r{fill:#e4e9f4;}.s{fill:#b7c8f4;}.t{fill:#063f8c;}.u{fill:#064eab;}.v{fill:#facb66;}.w{fill:#04244f;}.x{fill:#be1f1e;}.y{opacity:0.5;}.z{mix-blend-mode:screen;}</style></defs><g transform="translate(-94.308 -85.811)"><g transform="translate(94.308 85.811)"><path class="a" d="M903.311,259.406s73.219-94.257-9.059-139.537-159.742,12.343-218.522,18.6C626.079,143.759,599.278,109,485.236,88.851c-104.912-18.539-178.371,53.788-178.371,53.788S190,63.448,123.753,130.821s0,147.024,0,147.024S77.279,429.134,128.7,469.385s117.4-8.216,210.484-3.845,150.692,88.31,333.75,64.9c139.163-17.8,168.762-88.507,168.762-88.507S932.576,481,949.376,383.67C960.943,316.666,903.311,259.406,903.311,259.406Z" transform="translate(-94.308 -85.811)"/><g transform="translate(11.15 290.867)"><path class="b" d="M636.446,720.841c-163.888,6.584-345.936-41.7-519.586-7.23,2.31,22.522,9.042,42.1,23.239,53.217,51.419,40.251,117.4-8.217,210.484-3.846s150.692,88.311,333.75,64.9c139.164-17.8,168.761-88.507,168.761-88.507s90.883,39.065,107.683-58.261c.4-2.344.716-4.674.957-6.992C885.167,691.431,775.8,715.242,636.446,720.841Z" transform="translate(-116.86 -674.12)"/></g><g transform="translate(180.223 396.403)"><path class="b" d="M522.451,888.144c30.694,2.3,72.543,13.831,61.725,37.839S465.387,944.34,459.3,914.442C453.765,887.283,498.574,886.354,522.451,888.144Z" transform="translate(-458.828 -887.578)"/></g></g><g transform="translate(175.615 455.384)"><path class="c" d="M264.5,833.44c-2.63-.424-5.469.21-5.724,1.87-.542,3.542,10.48,3.9,10.527.941C269.329,834.789,266.548,833.77,264.5,833.44Z" transform="translate(-258.76 -833.312)"/></g><g transform="translate(190.009 450.753)"><path class="d" d="M294.916,823.954c3.365-.117,8.591.9,7.817,4.212s-13.581,4.2-14.708.337S292.3,824.044,294.916,823.954Z" transform="translate(-287.872 -823.945)"/></g><g transform="translate(415.386 459.117)"><path class="d" d="M747.476,840.866c1.794-.062,4.579.483,4.166,2.245s-7.239,2.238-7.839.18S746.081,840.915,747.476,840.866Z" transform="translate(-743.721 -840.862)"/></g><g transform="translate(578.752 511.313)"><path class="e" d="M1079.53,946.434c-2.663-.028-5.377,1.022-5.382,2.7-.009,3.583,10.944,2.3,10.55-.637C1084.5,947.05,1081.6,946.456,1079.53,946.434Z" transform="translate(-1074.148 -946.434)"/></g><g transform="translate(686.214 470.349)"><path class="c" d="M1297.537,863.581c2.843-.011,7.225.986,6.486,3.756s-11.568,3.192-12.419-.1S1295.326,863.59,1297.537,863.581Z" transform="translate(-1291.5 -863.581)"/></g><g transform="translate(645.149 486.577)"><path class="d" d="M1220.859,896.4c5.847-.023,14.86,2.028,13.34,7.726s-23.792,6.565-25.542-.2S1216.312,896.421,1220.859,896.4Z" transform="translate(-1208.443 -896.403)"/></g><g transform="translate(804.391 143.369)"><g transform="translate(0.066 0.042)"><path class="f" d="M1546.979,205.967a30.063,30.063,0,0,0-8.56,7.31,41.256,41.256,0,0,0-6.655,15.2,45.961,45.961,0,0,0,2.342,27.418,33.25,33.25,0,0,0,27.737,20.762,43.437,43.437,0,0,0,33.15-11.239c10.9-10.034,14.458-25.366,10.092-39.462-3.215-10.378-10.416-18.162-20.836-21.472-6.324-2.009-13.044-2.2-19.626-2.162-6.121.038-12.2.646-17.643,3.648a1.335,1.335,0,0,0,1.3,2.331c4.868-2.686,10.26-3.244,15.734-3.306,5.368-.06,10.864-.018,16.128,1.15,9.612,2.133,17.066,7.777,21.019,16.853,5.571,12.789,3.647,28.159-5.937,38.432-14.526,15.57-43.488,18.542-55.914-1.2a42.259,42.259,0,0,1-.409-42.779c2.346-4.069,5.467-6.677,9.38-9.148,1.445-.913.158-3.251-1.3-2.331Z" transform="translate(-1530.66 -202.314)"/></g><g transform="translate(36.459 0)"><path class="f" d="M1604.587,203.49q-.807,35.83.383,71.656c.055,1.71,2.722,1.774,2.667.054q-1.149-35.821-.383-71.656a1.335,1.335,0,0,0-2.667-.054Z" transform="translate(-1604.269 -202.228)"/></g><g transform="translate(0 34.302)"><path class="f" d="M1531.774,275c12.494-1.147,25.018-.681,37.537-.3q18.079.543,36.157,1.1a1.335,1.335,0,0,0,.055-2.667q-18.079-.54-36.157-1.1c-12.519-.376-25.042-.842-37.537.3-1.69.155-1.764,2.824-.054,2.667Z" transform="translate(-1530.526 -271.608)"/></g><g transform="translate(13.772 1.022)"><path class="f" d="M1572.618,204.676c-4.925,4.813-9.4,9.677-11.659,16.316a51.487,51.487,0,0,0-2.276,21.828,52.9,52.9,0,0,0,18,34.21c1.286,1.12,3.222-.719,1.925-1.848a50.52,50.52,0,0,1-17.155-31.468,49.5,49.5,0,0,1,1.684-20.781c2.064-6.741,6.391-11.51,11.326-16.333,1.229-1.2-.617-3.127-1.848-1.925Z" transform="translate(-1558.381 -204.296)"/></g><g transform="translate(45.103 0.683)"><path class="f" d="M1625.191,275.284a23.523,23.523,0,0,0,10.242-12.434,59.744,59.744,0,0,0,3.157-21.011c-.365-13.807-7.4-26.048-14.31-37.582-.88-1.469-3.217-.179-2.331,1.3,6.258,10.445,12.811,21.492,13.847,33.9a58.968,58.968,0,0,1-1.763,18.725c-1.593,6.439-4.482,11.207-10.142,14.771-1.447.911-.159,3.249,1.3,2.331Z" transform="translate(-1621.752 -203.609)"/></g><g transform="translate(8.317 9.487)"><path class="f" d="M1547.582,223.321c2.409,3.487,6.668,4.483,10.551,5.622a64.088,64.088,0,0,0,16.073,2.554,62.982,62.982,0,0,0,31.322-7.36c1.518-.8.222-3.135-1.3-2.331a60.107,60.107,0,0,1-27.7,7.05,60.788,60.788,0,0,1-14.312-1.594c-3.7-.867-10.021-1.935-12.3-5.24-.967-1.4-3.309-.117-2.331,1.3Z" transform="translate(-1547.347 -221.418)"/></g><g transform="translate(6.092 47.64)"><path class="f" d="M1544.8,310.474a66.643,66.643,0,0,1,30.379-9.094c9.823-.459,21.974.006,30.016,6.317,1.351,1.06,2.729-1.228,1.393-2.276-8.36-6.559-21.142-7.194-31.355-6.709a69.665,69.665,0,0,0-31.732,9.43,1.335,1.335,0,0,0,1.3,2.331Z" transform="translate(-1542.848 -298.586)"/></g></g><g transform="translate(247.71 176.68)"><path class="f" d="M557.155,411.887a84.143,84.143,0,0,0-12.431-9.458q2.642-2.017,5.107-4.279c11.886-10.9,17.91-25.908,17.91-44.609,0-22.95-7.848-41-23.324-53.644-14.635-11.957-34.633-18.02-59.441-18.02h-80.4V541.708h79.657c28.958,0,51.918-6.57,68.243-19.525,17.3-13.727,26.069-32.365,26.069-55.395C578.547,443.372,571.351,424.9,557.155,411.887Zm-86.094-83.2c25.967,0,34.426,4.819,36.856,6.889,3.047,2.595,7.1,7.387,7.1,19,0,9.218-3.04,15.384-9.859,19.992-8.262,5.585-21.127,8.417-38.237,8.417H457.6v-54.3ZM457.6,430.09h19.379c17.753,0,30.732,3.429,37.535,9.917s10.117,14.963,10.117,25.892c0,9.259-2.858,15.77-9,20.492-7.131,5.486-18,8.348-32.141,8.51H457.6Z" transform="translate(-404.579 -275.809)"/><path class="f" d="M875.47,461.4c6.684-5.147,13.569-10.505,20.461-15.922,7.1-5.575,14.136-11.458,20.927-17.488a149.7,149.7,0,0,0,19.59-21.064A107.78,107.78,0,0,0,950.9,381.422a84.309,84.309,0,0,0,5.722-31.274c0-12.972-2.164-24.66-6.432-34.744a70.639,70.639,0,0,0-18.46-25.924,75.823,75.823,0,0,0-27.423-15.166,108,108,0,0,0-32.375-4.711c-14.72,0-28.024,2.159-39.542,6.414A105.81,105.81,0,0,0,801.81,293.34l-10.77,8.836,32.15,39.181,10.817-9.425a44.579,44.579,0,0,1,7.665-5.35,61.722,61.722,0,0,1,9.226-4.162,59.183,59.183,0,0,1,9.513-2.517,52.628,52.628,0,0,1,9-.828c12.489,0,21.275,2.534,26.114,7.529,4.96,5.122,7.476,13.84,7.476,25.912a38.057,38.057,0,0,1-3.484,16.566,68.821,68.821,0,0,1-10.6,16,133.991,133.991,0,0,1-16.352,15.606c-6.7,5.426-13.567,10.865-20.412,16.169-7.1,5.5-14.2,11.22-21.079,17A153.877,153.877,0,0,0,811.212,453.8a101.059,101.059,0,0,0-14.753,24.035,75.244,75.244,0,0,0-5.962,30.114V535.5H953.364V486.031H850.439a68.607,68.607,0,0,1,8.543-10.268A171.378,171.378,0,0,1,875.47,461.4Z" transform="translate(-599.695 -269.603)"/><path class="f" d="M1317.313,411.887a84.14,84.14,0,0,0-12.431-9.458q2.642-2.017,5.107-4.279c11.885-10.9,17.91-25.908,17.91-44.609,0-22.95-7.848-41-23.324-53.644-14.635-11.957-34.633-18.02-59.441-18.02h-80.4V541.708h79.657c28.958,0,51.918-6.57,68.243-19.525,17.3-13.727,26.069-32.365,26.069-55.395C1338.706,443.372,1331.509,424.9,1317.313,411.887Zm-86.094-83.2c25.967,0,34.426,4.819,36.857,6.889,3.047,2.595,7.1,7.387,7.1,19,0,9.218-3.04,15.384-9.86,19.992-8.262,5.585-21.126,8.417-38.237,8.417h-9.314v-54.3Zm-13.458,101.4h19.38c17.752,0,30.732,3.429,37.535,9.917s10.117,14.963,10.117,25.892c0,9.259-2.859,15.77-9,20.492-7.132,5.486-18,8.348-32.141,8.51h-25.893Z" transform="translate(-788.906 -275.809)"/></g><g transform="translate(350.816 149.433)"><g transform="translate(0 18.534)"><ellipse class="g" cx="23.992" cy="42.467" rx="23.992" ry="42.467" transform="translate(0 17.841) rotate(-21.827)"/></g><g transform="translate(22.474 25.377)"><path class="g" d="M664.492,265.822s-5.887,1.99-5.912,2,.41,1.65.41,1.65l7.273-2.029Z" transform="translate(-658.579 -265.822)"/></g><g transform="translate(51.253 103.964)"><path class="g" d="M723.656,425.863l-5.069,1.578-1.8-1.511s3.2-1.125,3.321-1.156,3.295.737,3.295.737Z" transform="translate(-716.788 -424.772)"/></g><g transform="translate(5.073 16.827)"><g transform="translate(0 0)"><ellipse class="h" cx="24.031" cy="42.535" rx="24.031" ry="42.535" transform="matrix(0.928, -0.372, 0.372, 0.928, 0, 17.87)"/></g></g><g transform="translate(23.789 31.446)"><path class="e" d="M680.566,339.79c-5.939-5.068-11.191-12.8-14.787-21.784-3.732-9.318-5.267-19.172-4.213-27.036.867-6.462,3.361-10.969,6.848-12.365a6.964,6.964,0,0,1,.9-.29c3.6-.9,8.491,1,13.411,5.2,5.938,5.067,11.19,12.8,14.787,21.785,3.732,9.317,5.267,19.171,4.213,27.035-.867,6.462-3.361,10.968-6.848,12.365a6.934,6.934,0,0,1-.9.29C690.373,345.882,685.485,343.988,680.566,339.79Zm11.827-1.3c.9-.376,2.073-2.312,2.708-7.049.906-6.758-.477-15.382-3.793-23.663-3.2-7.994-7.791-14.808-12.921-19.186-4.245-3.622-6.965-3.914-7.49-3.786-.5.224-2.073,2.312-2.708,7.049-.906,6.757.477,15.382,3.793,23.663,3.2,7.994,7.79,14.807,12.922,19.187C689.148,338.329,691.493,338.868,692.393,338.492Z" transform="translate(-661.24 -278.097)"/></g><g transform="translate(38.864 53.803)"><path class="e" d="M702.122,345.233a1.255,1.255,0,0,0,.169-.054c.823-.33,1.488-1.682,1.736-3.528a21.076,21.076,0,0,0-6.491-16.659c-1.724-1.471-3.09-1.809-3.793-1.634a1.331,1.331,0,0,0-.169.054c-.823.33-1.488,1.682-1.736,3.528a21.077,21.077,0,0,0,6.491,16.659c1.724,1.471,3.09,1.809,3.793,1.634Z" transform="translate(-691.73 -323.316)"/></g><g transform="translate(57.434)"><path class="g" d="M734.985,214.494s-3.975,12.243-5.695,15.981c0,0,3.788,7.873,4.676,9.933l5.027-16.449S736.835,217.146,734.985,214.494Z" transform="translate(-729.29 -214.494)"/></g><g transform="translate(62.11 5.621)"><path class="g" d="M744.492,243.961l-5.745,2.194,5.027-16.449,7.652-3.844Z" transform="translate(-738.747 -225.863)"/></g><g transform="translate(44.787 7.59)"><path class="c" d="M704.986,287.85a1.022,1.022,0,0,0,.635-.472c9.761-16.393,21.688-55.811,21.808-56.207a1.028,1.028,0,1,0-1.968-.593c-.119.394-11.974,39.572-21.606,55.748a1.028,1.028,0,0,0,1.131,1.523Z" transform="translate(-703.71 -229.846)"/></g></g><path class="g" d="M192.957,194.366a87.12,87.12,0,0,0-7.429-11.816c-5.362-7.584-10.867-15.169-16.677-22.417a77.7,77.7,0,0,0-7.839-8.593c-2.246-2.072-4.756-4.878-8.058-3.883-8.21,2.474-9.07,11.028-7.234,18.16l0,.012c.972-1.064,1.918-2.07,2.6-2.786a13.073,13.073,0,0,1,.6-8.013c1.437-3.126,4.955-5.179,7.822-2.809a59.958,59.958,0,0,1,7.226,7.2c3.945,4.6,7.452,9.566,11.056,14.428,3.948,5.327,7.99,10.607,11.56,16.2,1.883,2.95,5.129,6.631,2.752,10.009a11.677,11.677,0,0,1-3.316,3.5c-2.265,1.334-4,.428-5.586-1.314-4.465-4.912-8.225-10.934-12.011-16.383-3.62-5.211-7.581-10.52-10.549-16.136-.805-1.523-2.714-5.475-1.7-7.257,1.053-1.842,5.365,2.955,6.355,4.015,4.548,4.867,7.768,10.839,11.479,16.327,1.2,1.772,3.937-.114,2.735-1.892-4.453-6.586-8.3-13.844-14.326-19.183-3.014-2.67-8.748-5.432-9.59.651-.917,6.621,4.7,13.177,8.036,18.24,5.187,7.871,10.757,15.458,16.435,22.98,1.648,2.184,3.371,4.067,6.332,4.008,3.619-.073,6.253-2.615,8.224-5.394C193.8,199.486,194.47,197.471,192.957,194.366Z" transform="translate(-25.585 -31.164)"/><g transform="translate(737.123 257.97)"><g transform="translate(0 17.676)"><g transform="translate(0.687)"><path class="h" d="M1395.858,476.079l5.611,41.6,74.561-8.626-4.1-39.278S1406.609,473.474,1395.858,476.079Z" transform="translate(-1395.858 -469.772)"/></g><g transform="translate(0 1.767)"><path class="g" d="M1433.953,495.682c-1.692.127-7.948-2.23-24.533-8.849-6.154-2.455-11.965-4.775-14.293-5.528a.949.949,0,0,1,.583-1.806c2.39.773,7.962,3,14.414,5.572,8.675,3.463,21.741,8.677,23.56,8.734.731-.3,4.378-2.476,8.232-4.774,9.974-5.947,25.046-14.933,29.44-15.674a.949.949,0,1,1,.316,1.871c-4.043.682-19.53,9.916-28.784,15.433-5.919,3.529-8.049,4.782-8.711,4.982A1.064,1.064,0,0,1,1433.953,495.682Z" transform="translate(-1394.469 -473.346)"/></g><g transform="translate(4.368 18.797)"><path class="g" d="M1404.324,530.571a.949.949,0,0,1-.733-1.626c.749-.729,18.4-17.888,23.8-21.025a.949.949,0,0,1,.953,1.641c-5.2,3.021-23.252,20.567-23.434,20.744A.945.945,0,0,1,1404.324,530.571Z" transform="translate(-1403.304 -507.791)"/></g><g transform="translate(50.681 15.117)"><path class="g" d="M1526.044,514.132a.942.942,0,0,1-.6-.158c-.614-.412-6.078-2.628-10.9-4.583-6.775-2.748-14.454-5.863-17.068-7.256a.949.949,0,1,1,.893-1.675c2.526,1.347,10.156,4.442,16.889,7.172,6.683,2.711,10.5,4.269,11.241,4.766a.949.949,0,0,1-.458,1.734Z" transform="translate(-1496.976 -500.348)"/></g></g><g transform="translate(36.662 0)"><path class="i" d="M1494.053,442.162c2.123,6.2,3.122,15.7-9.44,18.776-12.054,2.955-23.434-14.9-9.769-24.067C1485.256,429.888,1492.4,437.336,1494.053,442.162Z" transform="translate(-1468.621 -434.021)"/></g><g transform="translate(45.455 6.2)"><path class="f" d="M1488.216,449.519c.65-.431,3.265-2.009,4.056-1.631,1.284.614-.315,2.609-.8,3.165a11.349,11.349,0,0,1-1.957,1.786c-.534.381-.236,1.415.484,1.149,1.381-.509,2.966-1.243,4.274-.386a3.383,3.383,0,0,1,.919,4.092c-1.214,2.9-5.472,2.831-7.838,1.591-.716-.375-1.352.71-.634,1.086,3.439,1.8,8.749,1.225,9.928-3.016a5.114,5.114,0,0,0-1.326-4.748c-1.606-1.46-3.952-.459-5.657.17q.243.574.484,1.149c1.617-1.155,5.159-4.307,3.672-6.657-1.143-1.807-4.963.316-6.242,1.165-.672.445-.042,1.535.634,1.086Z" transform="translate(-1486.407 -446.56)"/></g></g><g transform="translate(195.261 335.679)"><path class="j" d="M360.963,700.6c-9.078,4.154-22.554,5.663-39.576-1.414-5.23-2.174-17.518-9.869-17.518-17.861a6.268,6.268,0,0,1,5.268-6.285s-16.775-15.726-8.2-25.914a8.363,8.363,0,0,1,9.905-2.408s-24.176-41.859-1.856-53.708c25.691-13.639,45.526,54.256,45.526,54.256s-3.846-20.624,5.086-21.653S395.981,663.569,360.963,700.6Z" transform="translate(-298.497 -591.196)"/><g transform="translate(18.57 15.773)"><path class="f" d="M363.5,716.165c2.246-27.646-5.084-51.472-11.628-66.592-7.091-16.384-14.827-26.377-14.9-26.476l-.917.715c.077.1,7.737,10,14.769,26.257,6.484,14.991,13.746,38.61,11.521,66Z" transform="translate(-336.056 -623.098)"/></g><g transform="translate(8.959 64.925)"><path class="f" d="M353.267,751.857l.318-1.118c-13.5-3.841-35.888-27.983-36.112-28.226l-.854.788C317.544,724.3,339.451,747.928,353.267,751.857Z" transform="translate(-316.618 -722.513)"/></g><g transform="translate(22.1 97.614)"><path class="f" d="M365.616,795.8c.4.014.8.022,1.206.022v-1.162c-11.324-.011-22.975-5.967-23.091-6.027l-.534,1.033C343.311,789.722,354.4,795.4,365.616,795.8Z" transform="translate(-343.196 -788.63)"/></g><g transform="translate(45.824 45.065)"><path class="f" d="M391.373,736.825c8.611-1.444,14.924-5.465,18.764-11.952,4.984-8.418,4.838-19.546,3.839-27.4a83.4,83.4,0,0,0-3.38-15.13l-1.1.383c.089.258,8.876,25.953-.363,41.555-3.658,6.177-9.7,10.01-17.955,11.395Z" transform="translate(-391.181 -682.345)"/></g><g transform="translate(28.439 49.025)"><path class="k" d="M371.959,753.293c5.6,1.348,11.434.208,20.219-10.275,2.891-3.449,7.795-12.663,1.361-17.953s-8.019,6.21-8.019,6.21-2.83-45.97-21.506-40.463c-19.768,5.829,3.336,41.479,3.336,41.479s-4.766-3.674-7.544-.726C356.545,735.026,357.626,749.841,371.959,753.293Z" transform="translate(-356.017 -690.353)"/><g transform="translate(10.35 9.746)"><path class="f" d="M392.251,757.643c-.005-.213-.69-21.611-14.063-47.578l-1.236.636c13.228,25.688,13.9,46.767,13.909,46.977Z" transform="translate(-376.952 -710.065)"/></g><g transform="translate(24.328 43.987)"><path class="f" d="M409.42,787.354c5.538-3.964,6.237-7.609,6.268-7.789l-1.369-.243c-.008.046-.961,4.644-9.095,8.988l.656,1.226A31.929,31.929,0,0,0,409.42,787.354Z" transform="translate(-405.224 -779.322)"/></g><g transform="translate(7.26 45.928)"><path class="f" d="M388.373,792.969l-.276-1.362c-10.723,2.172-16.1-8.252-16.154-8.358l-1.242.625C370.759,783.988,376.622,795.349,388.373,792.969Z" transform="translate(-370.701 -783.248)"/></g></g><g transform="translate(41.392 98.36)"><g transform="translate(0)"><path class="l" d="M422.919,799.807c-4.149-4.364-7.472-9.422-13.888-9.65s-19.414,1.819-21.5,4.438-10.012,12.118-1.369,15.568S434.31,811.792,422.919,799.807Z" transform="translate(-382.216 -790.139)"/></g><g transform="translate(0 6.364)"><path class="m" d="M394.512,807.125c6.725,1.4,9.773,2.655,15.87,3.113s9.563-5.882,9.531-7.225c.991,1.087,1.973,2.217,3.006,3.3,11.392,11.985-28.109,13.805-36.753,10.355-5.062-2.02-4.439-6.115-2.637-9.688h0C385.539,806.075,387.786,805.72,394.512,807.125Z" transform="translate(-382.216 -803.012)"/></g></g></g><g transform="translate(790.172 307.326)"><path class="j" d="M1558.291,663.542s19.353.313,17.3-7.059c-2.125-7.648-16.337-3.137-16.337-3.137s37.363-12.725,32.175-23.793c-4.089-8.722-21.921-3.241-21.921-3.241s67.643-50.983,33.153-83.9c-36.687-35.013-70.034,47.443-62.551,65.985,0,0-18.98-34.9-34.809-25.241-11.887,7.251,8.172,50.168,30.485,70.228Z" transform="translate(-1501.767 -533.849)"/><g transform="translate(46.858 23.12)"><path class="f" d="M1597.64,682.93l.8-.078c-2.13-21.8,8.94-47.976,18.6-66.1a284.827,284.827,0,0,1,21.729-34.494l-.643-.49a285.64,285.64,0,0,0-21.794,34.593,194.6,194.6,0,0,0-14.115,32.757C1598.232,661.83,1596.69,673.205,1597.64,682.93Z" transform="translate(-1596.959 -581.198)"/><path class="f" d="M1596.855,682.792l-.04-.407c-.955-9.781.593-21.211,4.6-33.972a195,195,0,0,1,14.144-32.827,286.834,286.834,0,0,1,21.829-34.648l.248-.325,1.293.985-.248.325a285.345,285.345,0,0,0-21.694,34.439c-9.635,18.072-20.675,44.169-18.555,65.865l.04.407Zm13.586-55.124a174.091,174.091,0,0,0-8.245,20.99,103.272,103.272,0,0,0-4.571,21.923C1598.889,656.116,1604.369,640.786,1610.441,627.668Z" transform="translate(-1596.541 -580.612)"/></g><g transform="translate(55.607 52.419)"><path class="f" d="M1615.729,668.784c15.18-7.956,26.35-27.185,26.462-27.378l-.7-.4c-.11.191-11.166,19.219-26.135,27.065Z" transform="translate(-1614.802 -640.444)"/><path class="f" d="M1614.992,668.764l-.755-1.44.362-.19c14.736-7.724,25.862-26.716,25.97-26.906l.2-.356,1.412.811-.2.355c-.112.194-11.385,19.549-26.626,27.537Z" transform="translate(-1614.237 -639.872)"/></g><g transform="translate(45.04 46.811)"><path class="f" d="M1597.048,686.791l.71-.387c-5.74-10.537-2.786-25.277.7-35.788a122.61,122.61,0,0,1,9.076-20.549l-.7-.407a123.63,123.63,0,0,0-9.145,20.7A74.712,74.712,0,0,0,1593.784,669C1593.348,676.028,1594.446,682.015,1597.048,686.791Z" transform="translate(-1593.282 -629.101)"/><path class="f" d="M1596.467,686.775l-.2-.359c-2.639-4.845-3.754-10.906-3.313-18.014a75.117,75.117,0,0,1,3.931-18.74,124.116,124.116,0,0,1,9.18-20.779l.206-.354,1.406.82-.208.353a123.318,123.318,0,0,0-9.041,20.472c-3.464,10.434-6.4,25.056-.733,35.464l.2.359Zm-1.148-28.551a63.469,63.469,0,0,0-1.545,10.228,38.8,38.8,0,0,0,.686,10.637C1593.024,672.415,1593.781,664.975,1595.319,658.223Z" transform="translate(-1592.864 -628.529)"/></g><g transform="translate(24.412 81.144)"><path class="f" d="M1574.676,737.275l.418-.692c-9.334-5.647-14.873-15.575-17.876-22.91a73.168,73.168,0,0,1-4.334-14.759l-.8.123a73.994,73.994,0,0,0,4.378,14.925C1559.512,721.415,1565.147,731.51,1574.676,737.275Z" transform="translate(-1551.619 -698.448)"/><path class="f" d="M1574.338,737.36l-.35-.212c-9.624-5.823-15.307-16-18.38-23.508a74.308,74.308,0,0,1-4.4-15.018l-.062-.4,1.606-.247.063.4a72.965,72.965,0,0,0,4.308,14.667c2.98,7.277,8.472,17.125,17.71,22.715l.349.211Z" transform="translate(-1551.143 -697.971)"/></g><g transform="translate(20.494 103.142)"><path class="m" d="M1552.292,745.99c-13.972,8.406-11.9,23.552,6.837,27.834s31.37-8.608,27.08-16.138S1569.209,735.812,1552.292,745.99Z" transform="translate(-1543.218 -742.464)"/></g><g transform="translate(20.495 115.642)"><path class="n" d="M1584.473,767.748c.291,4.412-.548,8.5-4.519,8.894-8.914.884-6.606-2.9-17.038-1.136s-18.685-4.546-19.212-6.768c-2.166,7.306,2.915,15.011,15.426,17.87,18.735,4.283,31.37-8.608,27.08-16.138C1585.734,769.633,1585.152,768.711,1584.473,767.748Z" transform="translate(-1543.219 -767.748)"/></g></g><g transform="translate(569.958 226.111)"><g transform="translate(33.25 221.684)"><path class="o" d="M1124.146,817.963l-.533,6.88,4.349,1.2-.04-8.037Z" transform="translate(-1123.613 -817.963)"/></g><g transform="translate(16.509 226.959)"><path class="g" d="M1110.8,828.633a5.287,5.287,0,0,1,.993,5.722,12.968,12.968,0,0,1-4.694,1.95l-.328-.828a16.816,16.816,0,0,0-2.219,1.423c-.973.767-12.648,3.03-14.792-1.227,0,0-.19-1.48,2.134-2.279s10.726-2.229,14.564-4.494A6.764,6.764,0,0,0,1110.8,828.633Z" transform="translate(-1089.751 -828.633)"/></g><g transform="translate(54.341 221.684)"><path class="o" d="M1166.8,817.963l-.533,6.88,4.349,1.2-.04-8.037Z" transform="translate(-1166.271 -817.963)"/></g><g transform="translate(37.599 226.959)"><path class="g" d="M1153.453,828.633a5.288,5.288,0,0,1,.994,5.722,12.969,12.969,0,0,1-4.694,1.95l-.328-.828a16.849,16.849,0,0,0-2.22,1.423c-.973.767-12.648,3.03-14.791-1.227,0,0-.19-1.48,2.134-2.279s10.726-2.229,14.564-4.494A6.763,6.763,0,0,0,1153.453,828.633Z" transform="translate(-1132.409 -828.633)"/></g><g transform="translate(19.665 93.215)"><path class="p" d="M1137.418,558.121s-5.167,52.875-5.167,76.013,5.167,53.62,5.167,53.62c-3.24,1.026-6.93.843-10.869,0a353.535,353.535,0,0,1-8.618-61.148q-.073-1.543-.13-3.1c-.487-13.429,0-27.467,2.3-40.511l-8.753.7s-6.466,62.364,6.651,104.057a12.348,12.348,0,0,1-10.359,0s-21.99-67.619-5.173-129.633Z" transform="translate(-1096.136 -558.121)"/></g><g transform="translate(2.78 25.034)"><path class="o" d="M1069.52,445.1s-.26-4.332,3.221-5.07,6.061-2.693,5.017-3.68-5.242,1.051-6.186.965c0,0-.3-6.945,5.125-2.083,1.65,1.477,3.963.171-1.339-4.248-2-1.663-5.368.875-5.447.727s1.84-7.236,2.411-9.7-2.112-2.777-2.819,1.535c-.609,3.714-1.862,7.457-2.074,6.6s.593-5.268.62-7-2.115-1.559-2.5.861-.5,6.415-.59,7.133a43.674,43.674,0,0,1-.779-4.782c-.126-1.8-2.021-1.659-2.188.145s1.543,9,3.586,11.3l-.209,7.255Z" transform="translate(-1061.983 -420.217)"/></g><g transform="translate(39.722 32.23)"><path class="o" d="M1140.817,443.434a13.561,13.561,0,0,1-4.114,11.314l4.2,4.114,10.935-4.555s-2.645-9.4,1.176-17.19S1140.817,443.434,1140.817,443.434Z" transform="translate(-1136.703 -434.771)"/></g><g class="q" transform="translate(43.449 36.009)"><path class="o" d="M1154.763,451.36a23.806,23.806,0,0,1,1.435-8.944l-7.063,1.117c-2.457,1.961-4.506,3.766-4.506,3.766a13.8,13.8,0,0,1-.387,5.081C1145.923,453.1,1149.189,453.6,1154.763,451.36Z" transform="translate(-1144.242 -442.416)"/></g><g transform="translate(35.151)"><path class="g" d="M1130.874,386.854s-8.983-10.519,2.183-15.881,15.648,6.318,19.909,9.4,10.26,4.114,10.946,11.314-13.585,17.375-15.1,19.677c0,0,3.4-7.09,3.448-10.665.015-1.064-1.375-3.278-4.31-4.212C1146.869,396.146,1133.254,390.808,1130.874,386.854Z" transform="translate(-1127.458 -369.584)"/></g><g transform="translate(35.151 6.805)"><path class="o" d="M1135.7,388.343s-8.669,8.081-8.228,18.072c0,0,1.827,1.106,2.863.665,0,0-1.394,12.412,7.863,13.587s18.806-10.285,20.129-17.631-9.991-12.636-9.991-12.636l-11.9-7.053Z" transform="translate(-1127.458 -383.347)"/></g><g transform="translate(41.645 5.812)"><path class="g" d="M1140.921,385.028a25.361,25.361,0,0,0,18.617,20.522s-5.345,5.605-4.089,11.76l4.972-5.765,4.612-5.88,1.326-10.441s-7.167-5.815-7.936-6.161-8.55-3.8-8.781-3.977-5.13-3.4-5.13-3.4l-3.92-.346Z" transform="translate(-1140.592 -381.339)"/></g><g transform="translate(54.106 27.591)"><path class="o" d="M1167.846,426.726a4.2,4.2,0,0,1,4.324-1.1c3.3,1.234.288,8.243-4.324,7.9S1167.846,426.726,1167.846,426.726Z" transform="translate(-1165.797 -425.389)"/></g><g transform="translate(32.082 51.303)"><path class="r" d="M1131.358,473.35a18.6,18.6,0,0,0,12.55,0l.665,3.035-8.6,21.425-9.775,15.362-4.946-12.22,1.119-16.639,4.682-8.955Z" transform="translate(-1121.25 -473.35)"/></g><g transform="translate(0 47.58)"><path class="r" d="M1120.078,485.83c1.394,6.858-.88,32.8-3.973,37.03,0,0-12.2,9.648-36.594.979-1.894-6.224-1.985-13.907-.177-23.128,0,0-8.806,14.263-18.062,11.765s-3.095-41.3-.3-45.705c0,0,3.82-2.645,8.228.882,0,0-6.171,29.238-1.322,29.238s9.276-18.053,17.2-23.118c7.114-4.547,11.836-4.158,11.836-4.158l-5.4,17.726,3.836,16.6,10.579-23.656,5.174-10.746Z" transform="translate(-1056.361 -465.819)"/></g><g transform="translate(41.723 95.464)"><path class="o" d="M1161.728,565.769s-1.746,3.321-3.853.454-4.952-4.413-5.421-3.055,3.118,4.342,3.428,5.238c0,0-7.467.913-11.7,1.591s-1.946,3.026,2.609,2.121c3.271-.65,4.228-.263,4.126-.13s-6.3,1.535-8.775,2.03-1.66,3.068,2.561,1.935c3.635-.975,7.1-1.809,6.4-1.261s-5.092,2.073-6.682,2.763-.549,2.57,1.814,1.922,6.057-2.486,6.749-2.7a36.882,36.882,0,0,1-3.49,2.245c-1.592.858-.678,2.525,1.034,1.934s7.015-4.386,8.266-7.194l5.346-6.313Z" transform="translate(-1140.75 -562.669)"/></g><g transform="translate(54.74 51.303)"><path class="r" d="M1167.078,473.35s13.822,3.174,20.515,6.015,20.436,12.222,15.547,27.573c-5.7,17.909-31.081,21.609-31.081,21.609l.085-6.945s19.973-6.908,17.894-21.594c-1.367-9.652-19.439-9.737-19.439-9.737l-2.855-13.887Z" transform="translate(-1167.078 -473.35)"/></g><g transform="translate(37.389 48.58)"><path class="s" d="M1131.985,470.919l5.081-3.077s-.2,2.666,1.9,3.377a27.57,27.57,0,0,1-4.647,3.825A13.3,13.3,0,0,1,1131.985,470.919Z" transform="translate(-1131.985 -467.842)"/></g><g transform="translate(44.316 48.58)"><path class="s" d="M1155.926,467.842a13.9,13.9,0,0,1-9.878,3.377,16.414,16.414,0,0,0,.688,5.382s8.739-1.976,11.615-5.619Z" transform="translate(-1145.995 -467.842)"/></g></g><g transform="translate(430.491 226.535)"><g transform="translate(57.772 221.024)"><path class="o" d="M894.891,817.486l.526,6.793-4.294,1.183.039-7.935Z" transform="translate(-891.124 -817.486)"/></g><g transform="translate(56.436 226.233)"><path class="g" d="M889.8,828.021a5.22,5.22,0,0,0-.981,5.649,12.8,12.8,0,0,0,4.635,1.925l.324-.817a16.681,16.681,0,0,1,2.192,1.405c.96.757,12.487,2.991,14.6-1.211,0,0,.187-1.462-2.107-2.251s-10.59-2.2-14.379-4.436A6.679,6.679,0,0,1,889.8,828.021Z" transform="translate(-888.421 -828.021)"/></g><g transform="translate(36.95 221.024)"><path class="o" d="M852.776,817.486l.526,6.793-4.294,1.183.039-7.935Z" transform="translate(-849.008 -817.486)"/></g><g transform="translate(35.613 226.233)"><path class="g" d="M847.688,828.021a5.22,5.22,0,0,0-.98,5.649,12.8,12.8,0,0,0,4.634,1.925l.324-.817a16.643,16.643,0,0,1,2.192,1.405c.96.757,12.487,2.991,14.6-1.211,0,0,.187-1.462-2.107-2.251s-10.59-2.2-14.38-4.436A6.678,6.678,0,0,1,847.688,828.021Z" transform="translate(-846.306 -828.021)"/></g><g transform="translate(34.72 95.279)"><path class="p" d="M845.342,563.409s4.259,50.856,4.259,73.7-5.1,52.939-5.1,52.939c3.2,1.013,6.842.832,10.73,0a349.022,349.022,0,0,0,8.508-60.372q.073-1.524.128-3.059c.481-13.258,0-27.117-2.274-40l8.641.692s6.384,61.572-6.566,102.735a12.193,12.193,0,0,0,10.228,0s22.97-65.67,6.367-126.9Z" transform="translate(-844.5 -563.152)"/></g><g transform="translate(18.096 104.877)"><path class="o" d="M810.876,589.218c.777-1,1.241-5.938,1.241-5.938l2.477-.714a30.427,30.427,0,0,0,.347,7.588l-2.807.967Z" transform="translate(-810.876 -582.566)"/></g><g transform="translate(99.523 68.621)"><path class="o" d="M980.326,509.235c-.437,1.347-4.756,5.286-4.756,5.286l.9,2.731a33.921,33.921,0,0,1,7.209-4.451l-.875-3.194Z" transform="translate(-975.57 -509.235)"/></g><g transform="translate(48.652 34.09)"><path class="o" d="M884.525,443.33s-.009,8.58,1.645,11.406-1.013,5.581-1.184,5.9-7.649-1.012-7.65-1.464-2.374-7.106-2.374-7.106,1.31-2.883-1.954-10.348C870.363,435.668,884.525,443.33,884.525,443.33Z" transform="translate(-872.679 -439.391)"/></g><g class="q" transform="translate(48.652 34.09)"><path class="o" d="M884.679,447.341c-.156-2.216-.154-4.011-.154-4.011s-14.162-7.662-11.517-1.613c.432.987.781,1.891,1.066,2.721A14.535,14.535,0,0,0,884.679,447.341Z" transform="translate(-872.679 -439.391)"/></g><g transform="translate(40.677 9.588)"><path class="o" d="M880.66,392.321s3.634,4.844,4.441,14.848l-2.473.7s1.024,9.924-4.626,11.813-12.23.48-15.2-6.323a93.316,93.316,0,0,0-6.254-11.894s5.993-7.384,6.256-7.547,9.5-4.083,9.5-4.083Z" transform="translate(-856.548 -389.833)"/></g><g transform="translate(37.135)"><path class="g" d="M865.258,383.742s14.214,9.711,18.452-5.189-14.357-5.124-18.552-3-14.217-.281-15.641,12.32,9,12.421,11.309,19.329c0,0,2.285-.927-.3-7.212-3.311-8.054-.795-2.444-.795-2.444S866.272,390.537,865.258,383.742Z" transform="translate(-849.384 -370.441)"/></g><g transform="translate(15.758 46.165)"><path class="e" d="M892.566,487.783s3.677,1.212,2.96,5.8c0,0-2.23,4.823-10.6,10.574-23.918,16.44-19.985-19.2-20.1-15.337s-.963,30.938-.963,30.938-15.1,8.481-39.976,3.361c0,0,4.93-27.64,5.733-37.717a51.989,51.989,0,0,0-4.993,7.532c-8.864,15.611-11.895,33.643-11.895,33.643s-2.68,1.35-4.546.723c0,0-5.7-15.166,1.972-37.434,4.859-14.1,21.27-23.892,28.567-23.407l2.722-2.647,7.183,9.492,4.6-.663-1.652-8.514s6.705.97,10.892,1.889c5.874,1.289,9.5,29.716,16.009,28.27C883.8,493.107,892.566,487.783,892.566,487.783Z" transform="translate(-806.147 -463.815)"/></g><g transform="translate(56.131 88.575)"><path class="r" d="M890.127,550.791a1.161,1.161,0,1,0-1.2,1.124A1.161,1.161,0,0,0,890.127,550.791Z" transform="translate(-887.806 -549.594)"/></g><g transform="translate(55.3 96.636)"><path class="r" d="M888.445,567.094a1.161,1.161,0,1,0-1.2,1.124A1.161,1.161,0,0,0,888.445,567.094Z" transform="translate(-886.124 -565.897)"/></g><g transform="translate(44.863 23.773)"><path class="o" d="M868.913,420.178s-2.184-3.055-3.542-.86,1.456,8.494,3.7,5.467Z" transform="translate(-865.014 -418.525)"/></g><g transform="translate(0 117.703)"><g transform="translate(13.069)"><path class="p" d="M816.632,617.043l-15.337.78a.559.559,0,0,1-.577-.664l1.469-7.606a.558.558,0,0,1,.52-.452l11.634-.592a.559.559,0,0,1,.564.4l2.233,7.418A.559.559,0,0,1,816.632,617.043Zm-13.28-1.007,11.054-.563a.558.558,0,0,0,.506-.719l-1.236-4.1a.558.558,0,0,0-.563-.4l-9.005.458a.559.559,0,0,0-.52.452l-.813,4.208A.559.559,0,0,0,803.352,616.036Z" transform="translate(-800.708 -608.509)"/></g><g transform="translate(0 3.939)"><path class="t" d="M814.756,616.478l-38.722,1.97a1.855,1.855,0,0,0-1.758,1.946l1.192,23.417a1.855,1.855,0,0,0,1.947,1.758l38.722-1.97a1.855,1.855,0,0,0,1.758-1.946L816.7,618.236A1.855,1.855,0,0,0,814.756,616.478Z" transform="translate(-774.274 -616.475)"/></g><g transform="translate(0.005 3.944)"><path class="u" d="M814.665,616.487l-38.53,1.96a1.951,1.951,0,0,0-1.849,2.047l.36,7.07a3.886,3.886,0,0,0,4.078,3.683l34.664-1.763a3.887,3.887,0,0,0,3.684-4.079l-.359-7.07A1.951,1.951,0,0,0,814.665,616.487Z" transform="translate(-774.284 -616.485)"/></g><g transform="translate(19.136 16.06)"><g transform="translate(0 0)"><rect class="v" width="5.124" height="3.276" rx="1.638" transform="translate(0 0.26) rotate(-2.912)"/></g></g></g><g transform="translate(15.889 110.987)"><path class="o" d="M812.769,595.591c1.164,1.323.873,1.744,1.633,2.564,1.3,1.4,3.639,2.641,3.6,3.452s-1.379.451-2.17.142c-1.116-.436-1.635-1.2-1.876-1s.079,1.96.384,3.361c.316,1.454-1,2.356-1.453.8-.313-1.07-.626-1.277-.736-1.313a5.346,5.346,0,0,0,.054,1.648c.169,1.4-1.48,1.58-1.524.059,0,0-.141-1.616-.416-1.566-.38.069-.239.859-.315,1.376-.257,1.761-1.938,1.843-1.667-.5.042-.371.288-1.182.089-1.142s-.358.075-.591.71c-.515,1.407-1.936,1.411-1.137-.536.328-.8.39-.87.373-1.376s-.264-4.781,1.225-6.565C809.2,594.559,812.079,594.807,812.769,595.591Z" transform="translate(-806.41 -594.923)"/></g><g transform="translate(45.999 46.165)"><g transform="translate(0 1.801)"><path class="w" d="M871.308,476.29l-3.033,2.1s9.066,19.637,13.97,23.79l-1.064-15.388L879.1,474.6l-6.427-7.14-3.027.846-2.335,7.863Z" transform="translate(-867.313 -467.457)"/></g><g transform="translate(14.931 0.915)"><path class="w" d="M901.024,465.666s4.483,3.985,5.389,8.056l-2.857,1.2,2.806.432s-5.121,20.83-8.849,25.918c0,0,1.317-24.346.774-27.632a11.767,11.767,0,0,1,.952-6.336Z" transform="translate(-897.513 -465.666)"/></g><g transform="translate(10.698 9.204)"><path class="r" d="M888.951,484.07s3.6,21.016,4.233,25.68c0,0,2.056-16.323,2.341-25.476l-3.034-1.843Z" transform="translate(-888.951 -482.432)"/></g><g transform="translate(2.335)"><path class="s" d="M874.758,463.815s7.13,6.188,9.181,9.2c0,0-1.114,5.2-1.5,5.271s-8.861-7.889-10.4-11.829A26.564,26.564,0,0,1,874.758,463.815Z" transform="translate(-872.036 -463.815)"/></g><g transform="translate(14.238 0.253)"><path class="s" d="M897.066,464.389s1.037-.347,3.249.6c0,0,1.277,4.746-1.076,13.572a56.213,56.213,0,0,1-3.128-5.282C896.16,472.921,896.933,467.138,897.066,464.389Z" transform="translate(-896.111 -464.327)"/></g></g><g transform="translate(104.12 57.37)"><path class="o" d="M984.99,495.922c.9-2.079,1.555-1.969,2.1-3.3.924-2.282,1.089-5.68,2.052-6.083s1.278,1.36,1.35,2.449c.1,1.538-.51,2.563-.139,2.731s2-.572,3.593-1.5c1.473-.856,2.859.325,1.571,1.164-.937.611-.7.818-.331.655,1.922-.842,3.495.717,1.006,1.926-.913.444-.54.538.1.344,2.191-.661,3.651.757.814,1.845-.954.365-.526.6.044.43,1.593-.462,2.332.812.138,1.729,0,0-.636.276-1.216.573s-5.591,3.005-8.482,2.244C985.736,500.64,984.454,497.154,984.99,495.922Z" transform="translate(-984.867 -486.478)"/></g></g><g transform="translate(159.395 293.376)"><path class="f" d="M247.643,519.519a5.575,5.575,0,0,0-6.078-7.372,8.378,8.378,0,0,0-6.679,8.434c.188,3.566,3.764,6.946,7.4,5.188,1.8-.87,3.145-2.746,4.286-4.321a26.4,26.4,0,0,0,3.176-5.966l-2.394-.66c-.381,2.126-.853,4.258-1.126,6.4-.2,1.537-.13,3.327,1.088,4.457a3.561,3.561,0,0,0,4.13.324c1.589-.894,2.38-2.682,3.011-4.306,1.326-3.412,1.725-7.594-.241-10.852-1.812-3-5.16-4.455-8.507-4.947-3.718-.547-7.767-.352-11.086,1.552-3.245,1.86-6.7,4.528-7.816,8.227-1.121,3.726-1.3,8.32.471,11.864,1.613,3.223,4.8,5.266,8.1,6.447,8.72,3.116,19.333,1.253,25.064-6.374.96-1.278-1.195-2.517-2.144-1.253-3.952,5.26-10.727,7.116-17.051,6.413-5.854-.651-12.249-3.465-12.736-10.1-.217-2.956.132-6.825,2.209-9.106a17.883,17.883,0,0,1,7.319-4.927c4.707-1.389,12.774-.676,14.63,4.753,1,2.934.191,6.788-1.446,9.368-.464.731-1.768,1.993-2.466.718a3.867,3.867,0,0,1-.064-2.088c.262-1.978.7-3.95,1.052-5.914a1.242,1.242,0,0,0-2.394-.66,23.224,23.224,0,0,1-4.069,6.807c-.749.861-1.647,2.032-2.878,2.1a2.912,2.912,0,0,1-2.721-1.867c-1.054-2.434.449-5.33,2.587-6.615,2.718-1.634,6.1.247,4.979,3.61-.5,1.52,1.892,2.172,2.394.66Z" transform="translate(-225.952 -505.634)"/></g><g transform="translate(310.74 397.35)"><g transform="translate(0 30.867)"><path class="x" d="M586.176,789.7l-3.909-11.337-46.159,15.914a6,6,0,0,0-3.714,7.623h0a6,6,0,0,0,7.623,3.715l34.759-11.984.027.077,11.323-3.9-.027-.077Z" transform="translate(-532.065 -778.364)"/></g><g class="y" transform="translate(51.96 3.671)"><path class="m" d="M669.628,770.992a24.392,24.392,0,1,0-9.634,1.288A24.326,24.326,0,0,0,669.628,770.992Z" transform="translate(-637.159 -723.358)"/></g><g transform="translate(48.288)"><path class="x" d="M631.278,753.269a28.153,28.153,0,1,0,17.44-35.792A28.153,28.153,0,0,0,631.278,753.269Zm8.394,7.184a24.583,24.583,0,1,1,7.5,5.647A24.326,24.326,0,0,1,639.672,760.453Z" transform="translate(-629.733 -715.932)"/></g><g class="z" transform="translate(54.933 7.797)"><path class="f" d="M645.1,754.1a1.449,1.449,0,0,0,.975-1.412,18.737,18.737,0,0,1,5.431-13.7,18.453,18.453,0,0,1,7.132-4.462,1.448,1.448,0,0,0-.944-2.739,21.557,21.557,0,0,0-14.514,20.986,1.45,1.45,0,0,0,1.92,1.327Z" transform="translate(-643.172 -731.702)"/></g><g class="z" transform="translate(56.035 33.337)"><path class="f" d="M649.389,790.462a1.464,1.464,0,0,0,.309-.149,1.448,1.448,0,0,0,.441-2,18.732,18.732,0,0,1-1.919-3.976,1.448,1.448,0,1,0-2.739.944,21.662,21.662,0,0,0,2.216,4.591A1.45,1.45,0,0,0,649.389,790.462Z" transform="translate(-645.401 -783.359)"/></g></g><g transform="translate(704.093 162.963)"><path class="k" d="M1338.152,290.857c3.411-.089,44.446-13.492,45.226-13.884,0,0-9.278-34.027-10.349-35.113,0,0-44.9,10.776-45.353,11.423S1338.152,290.857,1338.152,290.857Z" transform="translate(-1327.663 -241.86)"/><g transform="translate(14.968 18.707)"><path class="f" d="M1363.246,298.419c1.548,1.83,19.081-16.431,18.707-17.177s-23.29-1.688-23.96-1.526S1362.794,297.885,1363.246,298.419Z" transform="translate(-1357.936 -279.697)"/></g></g><g transform="translate(563.942 91.732)"><circle class="x" cx="24.242" cy="24.242" r="24.242" transform="translate(0 34.284) rotate(-45)"/><g transform="translate(20.086 34.938)"><path class="f" d="M1084.818,188.216c.124-.915,1.934-15.84,13.382-19.762l6.865.884s14.153,8.128,14.53,13.107-5.357,8.548-5.357,8.548-18.132,5.71-18.676,5.507-9.755-5.031-10.188-5.782A7.979,7.979,0,0,1,1084.818,188.216Z" transform="translate(-1084.818 -168.454)"/></g><g transform="translate(26.001 20.004)"><path class="f" d="M1098.7,141.159c.972-1.517,7.46-5.592,13.254-.219,5.912,5.483,2.175,15.843-5.617,15.186C1100.368,155.623,1093.317,149.56,1098.7,141.159Z" transform="translate(-1096.781 -138.248)"/></g><g transform="translate(8.7 7.315)"><path class="j" d="M1089.5,112.585c-16.409-.161-31.532,10.255-26.848,37.981s25.915,39.838,25.915,39.838,24.361-22.1,25.194-41.934S1105.91,112.746,1089.5,112.585Zm-2.326,48.839c-15.244-.12-20.646-11.62-20.19-24.294.3-8.407,4.118-16.5,17.607-19.613,2.055-.475,20.653-1.576,24.166,16.295S1102.42,161.544,1087.176,161.424Z" transform="translate(-1061.789 -112.583)"/></g></g><g transform="translate(194.128 201.171)"><path class="f" d="M348.914,352.414s-8.019-12.292-9.23-18.711-.672-14.578-4.06-14.563-8.718,5.977-8.377,11.521,3.935,13.331,1.165,13.066-25.1-8.215-27.283-6.913-4.562,6.375-1.13,8.337c0,0-6.355,5.266-1.547,10.414,0,0-4.917,4.758-.21,9.443,0,0-5.152,6.117,8.614,10.806s33.767,9.32,33.767,9.32Z" transform="translate(-296.204 -319.139)"/><g transform="translate(40.484 25.12)"><path class="x" d="M398.931,425.549l-20.844-8.51,11.933-47.094s18.537,6.15,21.248,6.917C411.268,376.863,403.457,416.608,398.931,425.549Z" transform="translate(-378.087 -369.946)"/></g><g transform="translate(55.009 30.679)"><path class="f" d="M408.509,429.088l-1.044-.439c12.338-29.358,13.9-47.28,13.914-47.458l1.129.09C422.493,381.461,420.925,399.543,408.509,429.088Z" transform="translate(-407.465 -381.191)"/></g></g></g></svg>