<svg xmlns="http://www.w3.org/2000/svg" width="518.267" height="596.723" viewBox="0 0 518.267 596.723">
  <g id="Group_35" data-name="Group 35" transform="translate(-1342.733 -3260)">
    <path id="Oval_Copy_2" data-name="Oval Copy 2" d="M-126.574,241.225c-122.631,12.2-224.56-122.572-182.976-187.547,42.314-66.114,200-73.572,274.432-8.843S-10.855,229.717-126.574,241.225Z" transform="translate(1728 3260)" fill="#fff"/>
    <path id="Oval_Copy_3" data-name="Oval Copy 3" d="M-100.705,192c-76.18,0-204.142-60.732-166.524-119.434S-94.024-30.767-27.85,26.7-24.526,192-100.705,192Z" transform="matrix(-0.999, 0.035, -0.035, -0.999, 1349.434, 3692.445)" fill="#fff"/>
    <path id="Oval_Copy_4" data-name="Oval Copy 4" d="M100.705,192c76.18,0,204.142-60.732,166.524-119.434S94.024-30.767,27.85,26.7,24.526,192,100.705,192Z" transform="matrix(-0.999, -0.035, 0.035, -0.999, 1756.566, 3856.723)" fill="#fff"/>
    <path id="Stroke_1" data-name="Stroke 1" d="M3.98,0A6.241,6.241,0,0,0,5.4,4.1a5.374,5.374,0,0,0-2.6,4.11,5.534,5.534,0,0,0-2.8,5.2C0,18.087,3.582,24,8,24s8-5.913,8-10.588a5.534,5.534,0,0,0-2.873-5.246,5.376,5.376,0,0,0-2.6-4.063A6.237,6.237,0,0,0,11.95,0" transform="translate(1399 3560)" fill="none" stroke="#2a2c39" stroke-miterlimit="10" stroke-width="1"/>
    <path id="Stroke_3" data-name="Stroke 3" d="M0,.5H4" transform="translate(1395 3575)" fill="none" stroke="#2a2c39" stroke-miterlimit="10" stroke-width="1"/>
    <path id="Stroke_5" data-name="Stroke 5" d="M0,.5H4" transform="translate(1415 3575)" fill="none" stroke="#2a2c39" stroke-miterlimit="10" stroke-width="1"/>
    <path id="Stroke_7" data-name="Stroke 7" d="M4,8A10.157,10.157,0,0,1,0,0" transform="translate(1395 3564)" fill="none" stroke="#2a2c39" stroke-miterlimit="10" stroke-width="1"/>
    <path id="Stroke_9" data-name="Stroke 9" d="M4,0A10.157,10.157,0,0,1,0,8" transform="translate(1415 3564)" fill="none" stroke="#2a2c39" stroke-miterlimit="10" stroke-width="1"/>
    <path id="Stroke_11" data-name="Stroke 11" d="M5,0C1.99,1.062,0,2.9,0,5" transform="translate(1396 3580)" fill="none" stroke="#2a2c39" stroke-miterlimit="10" stroke-width="1"/>
    <path id="Stroke_13" data-name="Stroke 13" d="M5,5C5,2.905,3.01,1.063,0,0" transform="translate(1413 3580)" fill="none" stroke="#2a2c39" stroke-miterlimit="10" stroke-width="1"/>
    <path id="Stroke_15" data-name="Stroke 15" d="M39,19.5A19.5,19.5,0,1,1,19.5,0,19.5,19.5,0,0,1,39,19.5Z" transform="translate(1388 3554)" fill="none" stroke="#2a2c39" stroke-miterlimit="10" stroke-width="1"/>
    <path id="Stroke_17" data-name="Stroke 17" d="M47,23.5A23.5,23.5,0,1,1,23.5,0,23.5,23.5,0,0,1,47,23.5Z" transform="translate(1384 3550)" fill="none" stroke="#8f9bb3" stroke-miterlimit="10" stroke-width="2"/>
    <path id="Stroke_19" data-name="Stroke 19" d="M0,0,10,10" transform="translate(1422 3591)" fill="none" stroke="#8f9bb3" stroke-miterlimit="10" stroke-width="2"/>
    <path id="Oval" d="M22.5,45A22.5,22.5,0,1,0,0,22.5" transform="translate(1443 3357) rotate(-90)" fill="none" stroke="#8f9bb3" stroke-miterlimit="10" stroke-width="2"/>
    <path id="Oval-2" data-name="Oval" d="M13.5,27A13.5,13.5,0,1,0,0,13.5" transform="translate(1452 3348.5) rotate(-90)" fill="none" stroke="#8f9bb3" stroke-miterlimit="10" stroke-width="2"/>
    <circle id="Oval-3" data-name="Oval" cx="5.5" cy="5.5" r="5.5" transform="translate(1460 3340.5) rotate(-90)" fill="#2a2c39"/>
    <path id="Triangle" d="M7,0l7,20H0Z" transform="translate(1466.382 3343.81) rotate(-45)" fill="#2a2c39"/>
    <path id="Line_13" data-name="Line 13" d="M.175.313h6.6" transform="translate(1465 3362.5) rotate(-90)" fill="none" stroke="#8f9bb3" stroke-linecap="square" stroke-miterlimit="10" stroke-width="2"/>
    <text id="Testing_Automation" data-name="Testing Automation" transform="translate(1459 3586)" fill="#2a2c39" font-size="16" font-family="Roboto-Regular, Roboto"><tspan x="0" y="17">Testing </tspan><tspan x="0" y="41">Automation</tspan></text>
    <text id="QA" transform="translate(1459 3548)" fill="#dd0d3d" font-size="20" font-family="Roboto-Bold, Roboto" font-weight="700"><tspan x="0" y="21">QA</tspan></text>
    <text id="Data_entry_Copy_Wrtt" data-name="Data entry Copy Wrtt" transform="translate(1613 3756)" fill="#2a2c39" font-size="16" font-family="Roboto-Regular, Roboto"><tspan x="0" y="17">Data entry</tspan><tspan x="0" y="41">Copy Wrtting</tspan><tspan font-family="Roboto-Regular"><tspan x="0" y="65"></tspan></tspan></text>
    <text id="Content" transform="translate(1613 3718)" fill="#dd0d3d" font-size="20" font-family="Roboto-Bold, Roboto" font-weight="700"><tspan x="0" y="21">CONTENT</tspan></text>
    <text id="SEO_audit_optimiza" data-name="SEO audit &amp; optimiza" transform="translate(1522 3347)" fill="#2a2c39" font-size="15" font-family="Roboto-Regular, Roboto"><tspan x="0" y="16">SEO audit &amp; optimization</tspan><tspan x="0" y="40">Email marketing</tspan><tspan x="0" y="64">Google ads</tspan><tspan x="0" y="88">Social media marketing</tspan><tspan font-family="Roboto-Regular"><tspan x="0" y="112"></tspan></tspan></text>
    <text id="Marketing" transform="translate(1522 3305)" fill="#dd0d3d" font-size="20" font-family="Roboto-Bold, Roboto" font-weight="700"><tspan x="0" y="21">MARKETING</tspan></text>
    <path id="Stroke_1-2" data-name="Stroke 1" d="M51,41a5,5,0,0,1-5,5H4.517C2.022,46,0,43.676,0,40.81V5.19C0,2.324,2.022,0,4.517,0H46.483C48.978,0,51,2.324,51,5.19V41Z" transform="translate(1536 3722)" fill="none" stroke="#8f9bb3" stroke-miterlimit="10" stroke-width="2"/>
    <path id="Fill_3" data-name="Fill 3" d="M4,2A2,2,0,1,1,2,0,2,2,0,0,1,4,2" transform="translate(1567 3725)" fill="#8f9bb3"/>
    <path id="Fill_5" data-name="Fill 5" d="M4,2A2,2,0,1,1,2,0,2,2,0,0,1,4,2" transform="translate(1573 3725)" fill="#8f9bb3"/>
    <path id="Fill_7" data-name="Fill 7" d="M4,2A2,2,0,1,1,2,0,2,2,0,0,1,4,2" transform="translate(1579 3725)" fill="#8f9bb3"/>
    <path id="Fill_14" data-name="Fill 14" d="M18.236,25.393H.574a.579.579,0,0,1,0-1.158H17.312l1.424-7.176a.076.076,0,0,1,0-.014c0-.016.007-.031.012-.046l0-.009,0-.009c0-.012.008-.024.013-.036l.005-.011.005-.011,0-.01a.162.162,0,0,1,.009-.018c0-.009.01-.018.015-.027l.014-.022c.007-.011.014-.021.022-.031l.005-.008.005-.008.028-.031.011-.012,1.24-1.25H.574a.58.58,0,0,1,0-1.159H21.283l4.059-4.093,4.6-4.634H.574a.579.579,0,0,1,0-1.158H31.087L35.359.17a.569.569,0,0,1,.812,0l6.066,6.116a.585.585,0,0,1,0,.82L37.5,11.868l-3.441,3.47-7.9,7.97-.383.386-.005.005-.036.033-.007.005-.007.005-.022.016-.009.006-.022.013a.165.165,0,0,1-.027.016l-.018.009-.009,0-.023.011-.035.013-.009,0-.01,0-.022.005-.022.005-.013,0C25.407,23.868,18.386,25.393,18.236,25.393Zm1.344-7-.58,2.9,2.1,2.1,2.9-.579-1.157-1.157-2.106-2.106Zm15.288-8h0l-4.963,4.962-3.987,3.987L24,21.261l1.132,1.132,7.846-7.846L36,11.525l-1.132-1.132Zm-2.192-2h0L22,19.069l1.325,1.324,1.885-1.885,3.916-3.917L34,9.717,32.675,8.393ZM21.806,15.452h0L20,17.26l1.132,1.133L32,7.526,30.867,6.393l-4.851,4.852-4.208,4.208Zm13.8-14.059h0L32,5l1.583,1.583L35.806,8.81l1.583,1.583L41,6.782,35.611,1.393Z" transform="translate(1541 3736.607)" fill="#2a2c39"/>
  </g>
</svg>
