<svg xmlns="http://www.w3.org/2000/svg" xmlns:xlink="http://www.w3.org/1999/xlink" width="210" height="210" viewBox="0 0 210 210">
    <defs>
        <filter id="prefix__a" width="144.6%" height="144.6%" x="-21.6%" y="-21.6%" filterUnits="objectBoundingBox">
            <feMorphology in="SourceAlpha" operator="dilate" radius=".25" result="shadowSpreadOuter1"/>
            <feOffset dx="1" dy="1" in="shadowSpreadOuter1" result="shadowOffsetOuter1"/>
            <feGaussianBlur in="shadowOffsetOuter1" result="shadowBlurOuter1" stdDeviation="10"/>
            <feComposite in="shadowBlurOuter1" in2="SourceAlpha" operator="out" result="shadowBlurOuter1"/>
            <feColorMatrix in="shadowBlurOuter1" values="0 0 0 0 0.392156863 0 0 0 0 0.482352941 0 0 0 0 0.556862745 0 0 0 0.190750656 0"/>
        </filter>
        <rect id="prefix__b" width="138" height="138" x="29" y="29" rx="30"/>
    </defs>
    <g fill="none" fill-rule="evenodd">
        <g transform="translate(5.75 7) rotate(-45 98 98)">
            <use fill="#000" filter="url(#prefix__a)" xlink:href="#prefix__b"/>
            <use fill="#F9FAFB" fill-opacity=".7" stroke="#335B7A" stroke-opacity=".298" stroke-width=".5" xlink:href="#prefix__b"/>
        </g>
        <g fill-rule="nonzero">
            <path fill="#F1B986" d="M73.778 23.562c-1.527 0-3.006.204-4.414.582l1.98 5.414c.783-.174 1.597-.268 2.434-.268 6.21 0 11.243 5.034 11.243 11.243 0 6.21-5.034 11.244-11.243 11.244-6.21 0-11.243-5.035-11.243-11.244 0-4.376 2.503-8.165 6.152-10.023L66.71 25.1c-5.843 2.682-9.902 8.583-9.902 15.433 0 9.373 7.598 16.971 16.97 16.971 9.374 0 16.972-7.598 16.972-16.971 0-9.373-7.598-16.97-16.972-16.97zM18.381 23.562c-9.373 0-16.97 7.598-16.97 16.971 0 9.373 7.597 16.971 16.97 16.971 9.373 0 16.971-7.598 16.971-16.971 0-9.373-7.598-16.97-16.97-16.97zm0 28.215c-6.21 0-11.243-5.034-11.243-11.243 0-6.21 5.034-11.244 11.243-11.244 6.21 0 11.244 5.034 11.244 11.244 0 6.209-5.034 11.243-11.244 11.243z" transform="translate(5.75 7) translate(51.25 69)"/>
            <path fill="#173A56" d="M4.326 40.533c0-8.881 6.823-16.168 15.513-16.907-.48-.041-.966-.064-1.458-.064-9.373 0-16.97 7.598-16.97 16.971 0 9.373 7.597 16.971 16.97 16.971.492 0 .977-.022 1.458-.063-8.69-.739-15.513-8.026-15.513-16.908z" transform="translate(5.75 7) translate(51.25 69)"/>
            <path fill="#647B8E" d="M60.047 5.743c-.093.146-.148.317-.148.501v1.889c0 .517.423.94.94.94h4.78c.517 0 .94-.423.94-.94V6.244c0-.184-.055-.355-.148-.5h-6.364z" transform="translate(5.75 7) translate(51.25 69)"/>
            <path fill="#F1B986" d="M77.385 40.533c0 1.992-1.615 3.606-3.607 3.606-1.991 0-3.606-1.614-3.606-3.606 0-1.991 1.615-3.606 3.606-3.606 1.992 0 3.607 1.615 3.607 3.606z" transform="translate(5.75 7) translate(51.25 69)"/>
            <path fill="#FFF" d="M51.475 40.533c0 3.398-2.755 6.152-6.152 6.152-3.398 0-6.152-2.754-6.152-6.152 0-3.397 2.754-6.152 6.152-6.152 3.397 0 6.152 2.755 6.152 6.152z" transform="translate(5.75 7) translate(51.25 69)"/>
            <path fill="#3D5A72" d="M42.24 40.533c0-2.867 1.962-5.277 4.618-5.959-.491-.125-1.005-.193-1.535-.193-3.398 0-6.152 2.755-6.152 6.152 0 3.398 2.754 6.152 6.152 6.152.53 0 1.044-.067 1.535-.193-2.656-.681-4.618-3.09-4.618-5.959z" transform="translate(5.75 7) translate(51.25 69)"/>
            <path fill="#647B8E" d="M49.778 53.807c0 .516-.424.94-.941.94h-7.03c-.516 0-.94-.424-.94-.94v-1.514c0-.517.424-.94.94-.94h7.03c.517 0 .94.423.94.94v1.514zM33.254 10.622c-.09.145-.145.314-.145.496v1.888c0 .517.424.94.941.94h4.78c.517 0 .94-.423.94-.94v-1.888c0-.182-.055-.351-.145-.496h-6.37zM68.32 3.862c0 1.035-.847 1.881-1.881 1.881h-6.421c-1.034 0-1.88-.846-1.88-1.88V3.38c0-1.034.846-1.88 1.88-1.88h6.421c1.034 0 1.88.846 1.88 1.88v.481z" transform="translate(5.75 7) translate(51.25 69)"/>
            <path fill="#3D5A72" d="M62.067 3.862v-.48c0-1.035.847-1.882 1.88-1.882h-3.929c-1.034 0-1.88.847-1.88 1.881v.481c0 1.035.846 1.881 1.88 1.881h3.93c-1.034 0-1.881-.846-1.881-1.88z" transform="translate(5.75 7) translate(51.25 69)"/>
            <path fill="#F1B986" d="M21.987 40.533c0 1.992-1.614 3.606-3.606 3.606-1.991 0-3.606-1.614-3.606-3.606 0-1.991 1.615-3.606 3.606-3.606 1.992 0 3.606 1.615 3.606 3.606z" transform="translate(5.75 7) translate(51.25 69)"/>
            <path fill="#3D5A72" d="M17.802 40.533c0-1.45.858-2.697 2.093-3.27-.46-.213-.973-.336-1.514-.336-1.991 0-3.606 1.615-3.606 3.606 0 1.992 1.615 3.606 3.606 3.606.541 0 1.053-.122 1.514-.336-1.235-.572-2.093-1.82-2.093-3.27z" transform="translate(5.75 7) translate(51.25 69)"/>
            <path fill="#647B8E" d="M45.018 8.741c0 1.035-.846 1.881-1.88 1.881H31.411c-1.034 0-1.88-.846-1.88-1.88v-1.33c0-1.035.846-1.88 1.88-1.88h11.725c1.035 0 1.88.845 1.88 1.88v1.33z" transform="translate(5.75 7) translate(51.25 69)"/>
            <path fill="#3D5A72" d="M33.479 8.741V7.412c0-1.035.846-1.88 1.88-1.88h-3.946c-1.034 0-1.881.845-1.881 1.88v1.33c0 1.034.847 1.88 1.88 1.88h3.947c-1.034 0-1.88-.846-1.88-1.88z" transform="translate(5.75 7) translate(51.25 69)"/>
            <path fill="#000" d="M73.778 22.152c-1.696 0-3.339.232-4.9.664L64.37 10.484h1.25c1.295 0 2.35-1.055 2.35-2.351v-1.36c.704-.371 1.255-.99 1.542-1.74h4.058c1.581 0 2.868 1.286 2.868 2.867 0 1.58-1.287 2.868-2.868 2.868h-3.949c-.779 0-1.41.631-1.41 1.41 0 .78.631 1.41 1.41 1.41h3.95c3.136 0 5.688-2.551 5.688-5.688 0-3.137-2.552-5.689-5.689-5.689h-4.058C69.038.973 67.842.09 66.439.09h-6.421c-1.815 0-3.291 1.477-3.291 3.291v.481c0 1.262.715 2.36 1.76 2.912v1.359c0 1.296 1.055 2.35 2.352 2.35h.527l2.968 8.12H50.97c-.779 0-1.41.631-1.41 1.41 0 .78.631 1.41 1.41 1.41h9.015L49.113 33.995c-1.115-.649-2.41-1.023-3.79-1.023-.287 0-.57.018-.85.05L40.53 21.423h5.927c.78 0 1.41-.632 1.41-1.411s-.63-1.41-1.41-1.41H39.57l-1.104-3.246h.363c1.297 0 2.352-1.055 2.352-2.351v-.973h1.956c1.815 0 3.292-1.477 3.292-3.292V7.412c0-1.815-1.477-3.292-3.292-3.292h-3.076c-.779 0-1.41.632-1.41 1.411 0 .78.631 1.411 1.41 1.411h3.076c.255 0 .47.215.47.47v1.33c0 .254-.215.47-.47.47H31.412c-.254 0-.47-.216-.47-.47v-1.33c0-.255.216-.47.47-.47h3.947c.78 0 1.41-.631 1.41-1.41 0-.78-.63-1.412-1.41-1.412h-3.946c-1.815 0-3.292 1.477-3.292 3.292v1.33c0 1.814 1.477 3.291 3.292 3.291h.286v.973c0 1.296 1.054 2.351 2.35 2.351h1.437l1.473 4.331-6.717 6.814c-3.204-2.712-7.344-4.35-11.86-4.35C8.245 22.152 0 30.397 0 40.533c0 10.136 8.246 18.382 18.381 18.382 9.661 0 17.606-7.492 18.328-16.97h1.185c.575 3.04 2.977 5.44 6.018 6.017v1.98h-2.104c-1.296 0-2.35 1.054-2.35 2.35v1.514c0 1.297 1.054 2.351 2.35 2.351h7.029c1.297 0 2.351-1.054 2.351-2.351v-1.513c0-1.297-1.054-2.351-2.351-2.351h-2.104v-1.98c3.498-.663 6.152-3.741 6.152-7.429 0-1.772-.614-3.402-1.638-4.693l12.467-14.416h1.651l.86 2.352c-6.38 2.887-10.829 9.312-10.829 16.757 0 4.55 1.676 8.916 4.717 12.295.522.579 1.413.625 1.993.104.578-.521.625-1.413.104-1.992-2.574-2.86-3.992-6.555-3.992-10.407 0-6.229 3.68-11.612 8.98-14.096L68.2 29.18c-4.187 2.065-7.075 6.378-7.075 11.354 0 6.978 5.676 12.654 12.653 12.654s12.654-5.676 12.654-12.654c0-6.977-5.677-12.653-12.654-12.653-1.006 0-1.984.121-2.923.344l-1.004-2.748c1.255-.327 2.57-.503 3.927-.503 8.58 0 15.56 6.98 15.56 15.56s-6.98 15.56-15.56 15.56c-2.888 0-5.706-.796-8.15-2.302-.663-.408-1.532-.202-1.941.46-.409.664-.202 1.533.461 1.942 2.89 1.78 6.22 2.722 9.63 2.722 10.136 0 18.381-8.246 18.381-18.382 0-10.136-8.245-18.381-18.38-18.381zM34.52 12.535v-.502h3.84v.502h-3.84zm-3.566 26.588c-.274-2.463-1.257-4.713-2.741-6.544l2.049-2.078c2.007 2.374 3.318 5.353 3.613 8.622h-2.92zm-10.377 1.41c0 1.21-.985 2.196-2.196 2.196-1.21 0-2.196-.985-2.196-2.196 0-1.21.985-2.195 2.196-2.195 1.21 0 2.196.985 2.196 2.195zm2.192-2.43l3.45-3.5c.981 1.295 1.65 2.84 1.893 4.52h-4.917c-.105-.358-.249-.7-.426-1.02zm-2.006-1.984c-.306-.165-.632-.298-.971-.398v-4.918c1.637.236 3.145.878 4.419 1.818l-3.448 3.498zm-3.792-.399c-.35.102-.682.24-.996.412l-3.474-3.474c1.284-.962 2.811-1.615 4.47-1.855v4.917zm-6.465-1.067l3.474 3.474c-.171.314-.31.647-.412.996H8.65c.24-1.66.894-3.186 1.855-4.47zm3.062 7.291c.102.349.24.682.412.996l-3.474 3.474c-.962-1.285-1.615-2.811-1.855-4.47h4.917zm2.407 2.99c.314.172.647.31.996.413v4.917c-1.659-.24-3.186-.893-4.47-1.855l3.474-3.474zm3.817.41c.348-.102.682-.24.994-.41l3.476 3.475c-1.285.96-2.811 1.615-4.47 1.854v-4.92zm6.465 1.07l-3.478-3.478c.172-.313.314-.643.416-.992h4.917c-.24 1.659-.893 3.185-1.855 4.47zm-7.876 9.68c-8.58 0-15.56-6.98-15.56-15.56s6.98-15.56 15.56-15.56c3.746 0 7.187 1.33 9.875 3.543L26.204 30.6c-2.155-1.7-4.871-2.72-7.823-2.72-6.977 0-12.653 5.678-12.653 12.655 0 6.977 5.676 12.653 12.653 12.653 6.5 0 11.87-4.927 12.573-11.243h2.92c-.715 7.92-7.389 14.15-15.493 14.15zm19.515-16.971H36.71c-.309-4.054-1.939-7.743-4.458-10.64l5.724-5.807 3.803 11.18c-1.99 1.06-3.449 2.984-3.882 5.267zm10.47 13.64v.573h-6.088v-.573h6.089zm-1.633-7.703v-3.896c0-.78-.631-1.411-1.41-1.411-.78 0-1.41.632-1.41 1.41v3.897c-1.929-.601-3.331-2.404-3.331-4.527 0-2.614 2.127-4.741 4.74-4.741 2.615 0 4.742 2.128 4.742 4.741 0 2.123-1.403 3.926-3.33 4.527zM60.018 4.333c-.254 0-.47-.216-.47-.47V3.38c0-.255.216-.47.47-.47h6.421c.255 0 .47.215.47.47v.481c0 .255-.215.47-.47.47h-6.421zm1.291 3.33v-.51h3.84v.51h-3.84zm4.594 26.99l3.474 3.475c-.171.313-.31.646-.412.995H64.05c.24-1.66.892-3.186 1.854-4.47zm-1.855 7.291h4.917c.102.349.24.682.412.996l-3.474 3.474c-.962-1.285-1.615-2.811-1.855-4.47zm11.14 8.32v-4.917c.35-.102.683-.24.996-.412l3.475 3.474c-1.284.962-2.811 1.615-4.47 1.855zm6.466-3.85l-3.474-3.475c.171-.313.31-.646.412-.995h4.916c-.239 1.659-.893 3.185-1.854 4.47zm1.854-7.291h-4.916c-.102-.35-.24-.682-.412-.995l3.474-3.475c.961 1.284 1.615 2.81 1.854 4.47zm-8.32-8.32c1.66.24 3.187.894 4.471 1.855l-3.475 3.474c-.313-.171-.646-.31-.995-.412v-4.917zm-2.82 0v1.558l-.536-1.466c.176-.036.356-.066.536-.092zm1.41 7.535c1.211 0 2.196.985 2.196 2.195s-.985 2.196-2.196 2.196c-1.21 0-2.195-.985-2.195-2.196 0-1.21.984-2.195 2.195-2.195zm-2.405 6.597c.313.171.646.31.995.412v4.917c-1.659-.24-3.186-.893-4.47-1.855l3.475-3.474zm-.993-9.795l-2.482-2.482c.404-.302.831-.572 1.279-.81l1.203 3.292z" transform="translate(5.75 7) translate(51.25 69)"/>
        </g>
    </g>
</svg>
