<svg xmlns="http://www.w3.org/2000/svg" xmlns:xlink="http://www.w3.org/1999/xlink" width="210" height="210" viewBox="0 0 210 210">
    <defs>
        <filter id="prefix__a" width="144.6%" height="144.6%" x="-21.6%" y="-21.6%" filterUnits="objectBoundingBox">
            <feMorphology in="SourceAlpha" operator="dilate" radius=".25" result="shadowSpreadOuter1"/>
            <feOffset dx="1" dy="1" in="shadowSpreadOuter1" result="shadowOffsetOuter1"/>
            <feGaussianBlur in="shadowOffsetOuter1" result="shadowBlurOuter1" stdDeviation="10"/>
            <feComposite in="shadowBlurOuter1" in2="SourceAlpha" operator="out" result="shadowBlurOuter1"/>
            <feColorMatrix in="shadowBlurOuter1" values="0 0 0 0 0.392156863 0 0 0 0 0.482352941 0 0 0 0 0.556862745 0 0 0 0.190750656 0"/>
        </filter>
        <rect id="prefix__b" width="138" height="138" x="29" y="29" rx="30"/>
    </defs>
    <g fill="none" fill-rule="evenodd">
        <g transform="translate(6 7) rotate(-45 98 98)">
            <use fill="#000" filter="url(#prefix__a)" xlink:href="#prefix__b"/>
            <use fill="#F9FAFB" fill-opacity=".7" stroke="#335B7A" stroke-opacity=".298" stroke-width=".5" xlink:href="#prefix__b"/>
        </g>
        <g fill-rule="nonzero">
            <g>
                <path fill="#F1D0A5" d="M6.4 5.35v10.803c0 1.768-1.433 3.2-3.2 3.2-1.767 0-3.2-1.432-3.2-3.2V5.35c0-1.753 1.421-3.174 3.174-3.174h.052c1.753 0 3.174 1.42 3.174 3.174zM12.8 3.2v10.828c0 .844-.337 1.653-.935 2.249-.598.595-1.408.929-2.252.926h-.026c-.844.003-1.654-.33-2.252-.926-.598-.596-.934-1.405-.935-2.249V3.2c0-.844.337-1.653.935-2.249C7.933.356 8.743.022 9.587.025h.026c.844-.003 1.654.33 2.252.926.598.596.934 1.405.935 2.249z" transform="translate(6 7) translate(60 71) translate(21.76 2.33)"/>
                <path fill="#F1B986" d="M25.6 4.3V10.1h-.013L22.81 7.296c-.962-.981-2.53-1.016-3.533-.077l-.077-.09V4.3c-.003-.845.33-1.657.924-2.257.596-.6 1.405-.94 2.25-.943h.052c.845.004 1.654.343 2.25.943.595.6.927 1.412.924 2.257z" transform="translate(6 7) translate(60 71) translate(21.76 2.33)"/>
                <path fill="#F1D0A5" d="M32.614 20.684l-1.574 2.688-.691 1.178-6.95 11.853c-.237.39-.361.837-.359 1.293V49.33c-.003.451-.368.816-.82.819H5.927c-.214.001-.42-.084-.57-.235-.152-.152-.237-.357-.236-.571v-11.52c-.046-.928-.342-1.826-.858-2.599L2.79 32.678c-1.06-1.833-1.583-3.926-1.51-6.042V24.55h15.373c.174-.314.366-.617.576-.909 1.698-2.436 4.156-4.241 6.989-5.133 0 0-.96-.972-2.893-2.918-.563-.576-1.216-1.229-1.959-1.971-.062-.063-.118-.131-.166-.205-.007 0-.013-.006-.013-.013-1.403-1.833-1.366-4.39.09-6.182 1.003-.939 2.571-.904 3.533.077l2.777 2.803 2.79 2.816 2.663 2.675 1.1 1.114c1.056 1.06 1.251 2.703.474 3.98z" transform="translate(6 7) translate(60 71) translate(21.76 2.33)"/>
            </g>
            <path fill="#F1B986" d="M53.9 19.034l-1.1-1.114-2.662-2.675-2.79-2.816-2.778-2.803c-.962-.981-2.53-1.016-3.533-.077-.064.065-.109.147-.168.217l2.638 2.663 2.79 2.816 2.663 2.675 1.1 1.114c1.056 1.06 1.251 2.703.474 3.98l-1.574 2.688-.691 1.178-6.95 11.853c-.237.39-.361.837-.359 1.293V51.66c-.003.451-.368.816-.82.819h3.84c.452-.003.817-.368.82-.82V40.027c-.002-.456.122-.904.358-1.293l6.95-11.853.692-1.178 1.574-2.688c.777-1.277.582-2.92-.473-3.98z" transform="translate(6 7) translate(60 71)"/>
            <path fill="#607D8B" d="M38.413 26.88c-.545.92-.99 1.893-1.331 2.906" transform="translate(6 7) translate(60 71)"/>
            <path fill="#173A56" d="M60.16 17.92v8.96h-8.051l.691-1.178 1.574-2.688c.777-1.277.582-2.92-.473-3.98L52.8 17.92h7.36z" transform="translate(6 7) translate(60 71)"/>
            <path fill="#F1D0A5" d="M40.947 15.731c0 .007.006.013.013.013v1.331c-.384 1.452-1.699 2.461-3.2 2.458-.846 0-1.66-.331-2.266-.922-.599-.596-.935-1.407-.934-2.253V4.48c-.003-.845.33-1.657.924-2.257.596-.6 1.405-.94 2.25-.943h.052c.845.003 1.654.342 2.25.943.595.6.927 1.412.924 2.257v4.98l.077.089c-1.456 1.792-1.493 4.349-.09 6.182z" transform="translate(6 7) translate(60 71)"/>
            <path fill="#173A56" d="M45.978 20.838c-2.833.892-5.291 2.697-6.99 5.133-.209.292-.401.595-.575.909H16.69v-8.96h5.069v.563c0 1.768 1.433 3.2 3.2 3.2 1.767 0 3.2-1.432 3.2-3.2v-2.125c0 .844.337 1.653.935 2.249.598.595 1.408.929 2.252.926h.026c.844.003 1.654-.33 2.252-.926.598-.596.934-1.405.935-2.249-.001.846.335 1.657.934 2.253.607.591 1.42.922 2.266.922 1.501.003 2.816-1.006 3.2-2.458v-1.331c.048.074.104.142.166.205.743.742 1.396 1.395 1.959 1.971 1.933 1.946 2.893 2.918 2.893 2.918z" transform="translate(6 7) translate(60 71)"/>
            <path fill="#3D5A72" d="M16.691 5.12v34.56c0 2.12-1.719 3.84-3.84 3.84-2.12 0-3.84-1.72-3.84-3.84V5.12c0-2.12 1.72-3.84 3.84-3.84 2.121 0 3.84 1.72 3.84 3.84z" transform="translate(6 7) translate(60 71)"/>
            <path fill="#647B8E" d="M9.011 12.8V32c0 2.12-1.719 3.84-3.84 3.84-2.12 0-3.84-1.72-3.84-3.84V12.8c0-2.12 1.72-3.84 3.84-3.84 2.121 0 3.84 1.72 3.84 3.84zM75.52 12.8V32c0 2.12-1.72 3.84-3.84 3.84s-3.84-1.72-3.84-3.84V12.8c0-2.12 1.72-3.84 3.84-3.84s3.84 1.72 3.84 3.84z" transform="translate(6 7) translate(60 71)"/>
            <path fill="#3D5A72" d="M67.84 5.12v34.56c0 2.12-1.72 3.84-3.84 3.84s-3.84-1.72-3.84-3.84V5.12c0-2.12 1.72-3.84 3.84-3.84S67.84 3 67.84 5.12z" transform="translate(6 7) translate(60 71)"/>
            <path fill="#000" d="M71.68 7.68c-.901.005-1.785.251-2.56.712V5.12C69.12 2.292 66.828 0 64 0c-2.828 0-5.12 2.292-5.12 5.12v11.52h-5.55l-4.69-4.728V6.628c0-1.192-.475-2.335-1.32-3.176-.845-.84-1.99-1.31-3.182-1.304-.789.005-1.562.222-2.238.628C41.27 1.25 39.85.192 38.208.026c-1.644-.166-3.246.586-4.168 1.957-1.104-.84-2.535-1.117-3.873-.75-1.338.365-2.429 1.333-2.952 2.617-.69-.408-1.476-.625-2.278-.628-2.461.002-4.456 1.997-4.457 4.458v8.96h-2.509V5.12c0-2.828-2.292-5.12-5.12-5.12-2.827 0-5.12 2.292-5.12 5.12v3.272c-.775-.461-1.658-.707-2.56-.712-2.827 0-5.12 2.292-5.12 5.12V32c0 2.828 2.293 5.12 5.12 5.12.902-.005 1.785-.251 2.56-.712v3.272c0 2.828 2.293 5.12 5.12 5.12 2.828 0 5.12-2.292 5.12-5.12V28.16h3.789v.806c-.083 2.342.5 4.659 1.682 6.682l1.486 2.57c.392.574.624 1.242.672 1.936v11.52c.001 1.151.935 2.085 2.086 2.086h16.295c1.159-.001 2.098-.94 2.099-2.1V40.027c0-.227.063-.448.183-.64l6.578-11.226h6.039v11.52c0 2.828 2.292 5.12 5.12 5.12 2.828 0 5.12-2.292 5.12-5.12v-3.272c.775.461 1.659.707 2.56.712 2.828 0 5.12-2.292 5.12-5.12V12.8c0-2.828-2.292-5.12-5.12-5.12zM44.182 4.708c1.053.008 1.902.866 1.898 1.92V9.33l-.605-.61c-.733-.726-1.722-1.134-2.754-1.134h-.013c-.157.005-.313.02-.468.046V6.628c0-.513.205-1.005.57-1.366.365-.36.859-.56 1.372-.554zM35.84 4.48c0-1.06.86-1.92 1.92-1.92s1.92.86 1.92 1.92v4.736c-1.367 2.101-1.367 4.81 0 6.912v.774c-.29.812-1.059 1.352-1.92 1.35-.507.005-.995-.193-1.355-.549-.36-.356-.564-.842-.565-1.348V4.48zm-6.4 1.055c0-1.06.86-1.92 1.92-1.92s1.92.86 1.92 1.92v10.817c0 1.05-.851 1.9-1.9 1.902h-.04c-1.049-.001-1.9-.852-1.9-1.902V5.535zm-6.4 2.145c0-1.06.86-1.92 1.92-1.92s1.92.86 1.92 1.92v10.804c0 1.06-.86 1.92-1.92 1.92s-1.92-.86-1.92-1.92V7.68zM5.171 34.56c-1.414 0-2.56-1.146-2.56-2.56V12.8c0-1.414 1.146-2.56 2.56-2.56 1.414 0 2.56 1.146 2.56 2.56V32c0 1.414-1.146 2.56-2.56 2.56zm10.24 5.12c0 1.414-1.146 2.56-2.56 2.56-1.414 0-2.56-1.146-2.56-2.56V5.12c0-1.414 1.146-2.56 2.56-2.56 1.414 0 2.56 1.146 2.56 2.56v34.56zm2.56-20.48h2.582c.352 2.163 2.216 3.753 4.407 3.76 1.814-.001 3.447-1.096 4.138-2.773.678.406 1.452.622 2.242.627h.038c1.198 0 2.346-.484 3.182-1.343.014.016.024.034.04.049.84.833 1.977 1.299 3.16 1.294 1.675-.004 3.215-.916 4.024-2.382.128.128.27.271.393.397l1.52 1.536c-2.295 1.108-4.272 2.781-5.742 4.864-.09.128-.16.256-.245.384H17.971V19.2zm26.096 18.865c-.36.59-.55 1.269-.547 1.96V51.2H28.16V40.154c-.035-1.154-.39-2.275-1.024-3.239l-1.498-2.583c-.938-1.628-1.395-3.488-1.318-5.366v-.806h12.032c-.169.397-.34.795-.483 1.212-.228.67.13 1.397.8 1.625.67.228 1.397-.13 1.625-.8.316-.936.73-1.837 1.235-2.687.154-.277.325-.543.512-.798 1.529-2.178 3.723-3.802 6.253-4.628.445-.112.797-.454.92-.896.125-.442.003-.917-.32-1.244 0 0-.961-.976-2.889-2.915-.541-.554-1.166-1.177-1.871-1.885l-.101-.103c-.038-.057-.081-.11-.128-.16-.955-1.328-.936-3.122.046-4.43.196-.213.479-.324.768-.3.35-.001.688.137.938.383l9.335 9.4c.65.645.766 1.655.28 2.431l-9.205 15.7zM54.342 25.6l1.128-1.92c.824-1.37.867-3.071.111-4.48h3.299v6.4h-4.538zM66.56 39.68c0 1.414-1.146 2.56-2.56 2.56-1.414 0-2.56-1.146-2.56-2.56V5.12c0-1.414 1.146-2.56 2.56-2.56 1.414 0 2.56 1.146 2.56 2.56v34.56zM74.24 32c0 1.414-1.146 2.56-2.56 2.56-1.414 0-2.56-1.146-2.56-2.56V12.8c0-1.414 1.146-2.56 2.56-2.56 1.414 0 2.56 1.146 2.56 2.56V32z" transform="translate(6 7) translate(60 71)"/>
        </g>
    </g>
</svg>
