<svg id="man" xmlns="http://www.w3.org/2000/svg" width="66" height="92" viewBox="0 0 66 92">
  <path id="Shape" d="M64.558,92H22.983a1.461,1.461,0,0,1,0-2.921h2.865L18.417,62.2l-6.874,2.9c-.031.013-.063.025-.1.037-.35.122-8.563,3.117-8.563,13.631V89.078h8.264V78.237a1.441,1.441,0,1,1,2.883,0V89.078h4.441a1.461,1.461,0,0,1,0,2.921H1.442A1.453,1.453,0,0,1,0,90.538V78.772A17.357,17.357,0,0,1,5.225,65.789a15.972,15.972,0,0,1,5.246-3.4l8.253-3.485a1.351,1.351,0,0,1,.243-.076L25,54.8V52.453a15.252,15.252,0,0,1-8.219-11.6,6.81,6.81,0,0,1-4.473-2.206,7,7,0,0,1,.059-9.5v-8.8A20.242,20.242,0,0,1,32.45,0H34A20.243,20.243,0,0,1,54.09,20.352v8.9a7.006,7.006,0,0,1-.036,9.4,6.809,6.809,0,0,1-4.473,2.206,15.254,15.254,0,0,1-8.218,11.6V54.96a1.553,1.553,0,0,1,.173.1l5.786,3.869,8.208,3.466a14.4,14.4,0,0,1,2.821,1.468C61.208,65.738,66,70.173,66,78.772V90.536A1.454,1.454,0,0,1,64.558,92ZM53.41,76.776a1.453,1.453,0,0,1,1.442,1.461V89.078h8.265V78.772c0-6.856-3.444-10.56-6.333-12.46a11.656,11.656,0,0,0-2.235-1.173c-.029-.01-.063-.023-.091-.034l-6.53-2.757-7.39,26.731H51.97V78.237A1.453,1.453,0,0,1,53.41,76.776Zm-21.922-.553L29.442,89.078H36.92L34.873,76.224Zm7.16-4.179-1.063,2.868L39,83.808l2.875-10.4a1.419,1.419,0,0,1-1.539-.107l-1.689-1.259ZM24.542,73.526l2.827,10.227,1.4-8.809L27.556,72l-1.748,1.3a1.431,1.431,0,0,1-.854.284,1.416,1.416,0,0,1-.346-.042l-.037-.011Zm8.531-5.638L29.946,70.22,31.22,73.3H35.1l1.132-3.056Zm8.29-9.445v.076a1.552,1.552,0,0,1-.013.185,1.465,1.465,0,0,1-.391,1.2L35.266,65.9l5.386,4.017,4.343-9.043ZM25,58.3,21.152,60.87l4.342,9.043,5.429-4.048-5.488-5.416a1.467,1.467,0,0,1-.367-1.486A1.48,1.48,0,0,1,25,58.519Zm2.884-4.743v4.964a1.448,1.448,0,0,1-.023.245l5.254,5.185L38.48,58.3V53.555a14.912,14.912,0,0,1-3.821.5H31.7A14.86,14.86,0,0,1,27.882,53.555ZM39.3,20.291c-6.258,6.637-15.916,7.913-19.778,8.153V38.79A12.277,12.277,0,0,0,31.7,51.133h2.956A12.277,12.277,0,0,0,46.84,38.79V28.133c-4.117-1.439-6.374-5.059-7.541-7.842Zm10.424,9.674v7.929a4.036,4.036,0,0,0,0-7.929Zm-33.086,0a4.036,4.036,0,0,0,0,7.929ZM39.834,15.9a1.428,1.428,0,0,1,.289.03,1.454,1.454,0,0,1,1.117,1.109,15.622,15.622,0,0,0,1.57,3.824A9.393,9.393,0,0,0,48.6,25.61l.011,0,.027.007c.031.008.06.016.091.026l.051.02c.027.01.054.02.08.031l.059.029.009,0c.019.009.038.019.056.03s.042.025.063.038l.01.006.046.029c.021.015.041.031.061.047s.033.026.049.04.038.033.056.051.032.03.047.045l.028.031.018.021.047.056c.013.016.025.033.037.05s.031.043.045.066a.519.519,0,0,1,.029.048l.012.02.031.055c.008.016.015.031.022.047s.025.054.036.081.014.036.02.055.018.05.025.076.012.045.017.068.011.045.015.068.009.055.012.083.006.039.007.058c0,.035,0,.067,0,.1a.121.121,0,0,1,0,.018,6.751,6.751,0,0,1,1.485.328V20.352A17.338,17.338,0,0,0,34,2.921H32.449a17.336,17.336,0,0,0-17.2,17.429v6.957a6.7,6.7,0,0,1,1.39-.294c0-.011,0-.022,0-.033s0-.02,0-.03,0-.023,0-.034,0-.023,0-.034c0-.027.008-.054.013-.08,0-.009,0-.017,0-.026s0-.026.006-.039.008-.033.012-.049l.008-.03.006-.022c0-.013.007-.026.011-.039s.012-.034.018-.051l.009-.025.008-.022c0-.013.009-.025.014-.037a.523.523,0,0,1,.022-.048l.01-.021c.009-.02.018-.04.028-.059l.025-.041.013-.021.017-.029.017-.029.04-.054.017-.023c.009-.012.018-.025.028-.036s.019-.022.029-.033l.015-.016.016-.018c.011-.013.022-.025.034-.037l.027-.025.019-.017.022-.02.035-.032.028-.021.017-.012c.022-.017.043-.034.067-.05l.036-.022.01-.006.016-.01.057-.035.027-.013.022-.01.031-.015.046-.022.04-.015.024-.009.025-.01.043-.016c.019-.006.039-.011.059-.015l.018,0,.016,0,.045-.012c.03-.006.061-.01.091-.014h.006l.022,0,.023,0c.052,0,.1-.007.148-.007h.006a34.888,34.888,0,0,0,7.972-1.166c3.921-1.04,9.291-3.255,12.609-7.9A1.439,1.439,0,0,1,39.834,15.9Z" fill="#fff"/>
</svg>
