<svg xmlns="http://www.w3.org/2000/svg" width="25" height="25" viewBox="0 0 25 25">
  <g id="ionic-original_copy_2" data-name="ionic-original copy 2" transform="translate(0 0)">
    <circle id="Oval" cx="5" cy="5" r="5" transform="translate(8 8)" fill="#4e8ef7"/>
    <path id="Shape" d="M12.5,25h0a12.5,12.5,0,1,1,0-25,12.4,12.4,0,0,1,7.509,2.512,1.753,1.753,0,0,1,2.473,2.472A12.5,12.5,0,0,1,12.5,25ZM12.5.417a12.076,12.076,0,0,0,0,24.153h.01a12.076,12.076,0,0,0,9.667-19.3,1.752,1.752,0,0,1-2.443-2.443A11.988,11.988,0,0,0,12.5.417Z" fill="#4e8ef7"/>
  </g>
</svg>
