<svg xmlns="http://www.w3.org/2000/svg" xmlns:xlink="http://www.w3.org/1999/xlink" width="67.738" height="116.978" viewBox="0 0 67.738 116.978">
  <defs>
    <clipPath id="clip-path">
      <path id="Clip_2" data-name="Clip 2" d="M0,0H67.738V116.977H0Z" transform="translate(0 0.023)" fill="none"/>
    </clipPath>
  </defs>
  <g id="Group_10" data-name="Group 10" transform="translate(0 -0.022)">
    <g id="Group_3" data-name="Group 3">
      <path id="Clip_2-2" data-name="Clip 2" d="M0,0H67.738V116.977H0Z" transform="translate(0 0.023)" fill="none"/>
      <g id="Group_3-2" data-name="Group 3" clip-path="url(#clip-path)">
        <path id="Fill_1" data-name="Fill 1" d="M19.711,116.977h0a33.685,33.685,0,0,1-3.448-.186,10.72,10.72,0,0,1,3.724-4.573h0a.1.1,0,0,1-.008-.018c-.106-.257-.394-.972-.779-2.06a77.016,77.016,0,0,1-2.615-9.284c-.308-1.635-.492-3.363-.592-4.525-.086-1.013-.12-1.683-.12-1.687l.072.036-.072-.037.01-.192a1.084,1.084,0,0,1-.4-.848H15.42a.738.738,0,0,1-.135-.009A7.752,7.752,0,0,1,12.8,92.411c-.01-.006-1.037-.655-1.094-1.418-3.477-.951-6.291-3.024-7.528-5.545a5.907,5.907,0,0,1-.216-4.977,18.135,18.135,0,0,1,7.964-8.486l-.021-.009c-.283-.14-.55-.273-.822-.422C3.738,67.506.008,59.833,0,48.748c-.007-10.26,4.6-17.914,13.318-22.135a38.153,38.153,0,0,1,15.615-3.455H29c.183,0,.313,0,.389.006.051,0,.2-.006.427-.006h.022a38.512,38.512,0,0,1,15.071,3.184c9.075,4.151,13.875,11.885,13.883,22.365a39.256,39.256,0,0,1-.743,7.893,4.654,4.654,0,0,1,1.908-.334c.265,0,.549.013.844.039.471-3.024,1.151-7.92,1.715-14.067.123-1.333.243-2.78.357-4.3.114-1.537.218-3.15.31-4.794.156-2.8.265-5.676.326-8.536.046-2.141.064-4.169.057-6.2-.016-3.577-.11-7.1-.279-10.472C63.155,5.25,62.975,2.58,62.752,0a10.193,10.193,0,0,1,3.2,2.479,12.718,12.718,0,0,1,1.24,1.676,241.145,241.145,0,0,1,.243,26.425c0,.061-.006.121-.009.181v.005c0,.058-.006.117-.009.176-.135,2.927-.323,5.9-.559,8.851-.608,7.563-1.435,13.624-2.021,17.376,2.144.739,3.107,1.726,2.864,2.934-.207,1.027-1.175,1.548-2.877,1.548-.226,0-.468-.009-.718-.028-.112.676-.309,1.785-.61,3.223v.005c.65.282.652,1.121.438,1.812l0,.011,0,.011,0,.005a2.379,2.379,0,0,1-.213.513,2.248,2.248,0,0,1,.124,2.669h0l0,0a1.235,1.235,0,0,1,.131.187,1.21,1.21,0,0,1,.155.365,2.518,2.518,0,0,1,.04,1.1c-.086.518-.769.89-1.783.969-.115.009-.237.013-.364.013-.155,0-.32-.006-.49-.019-.019.061-.038.122-.056.183s-.045.148-.068.222c-.332,1.044-.679,2.046-1.031,2.979-.166.44-.309.806-.45,1.151-.023.055-.045.111-.067.167s-.056.141-.085.211a.753.753,0,0,1-.047.09c-.011.02-.023.039-.033.06a5.989,5.989,0,0,1-2-1.35,19.69,19.69,0,0,1-4.83,3.728,13.936,13.936,0,0,1-6.622,1.713,14.238,14.238,0,0,1-2.889-.3c-.017.4-.019.788,0,1.144,0,.038.128,3.821.463,8.874a.949.949,0,0,1,.489,1.088,2.561,2.561,0,0,1-.256,2.178v.008c-.009.174-.045.81-.119,1.679-.1,1.172-.282,2.909-.585,4.525a78.072,78.072,0,0,1-2.6,9.288c-.462,1.309-.774,2.048-.787,2.079a10.68,10.68,0,0,1,3.733,4.568,33.649,33.649,0,0,1-3.488.191c-4.771,0-6.992-1.187-7.014-1.2,0-.078-.2-7.849-3.143-13.964l-.026-.053c-.018-.036-.035-.071-.052-.106-.027.053-.053.107-.077.159-2.928,6.112-3.121,13.89-3.123,13.968C26.669,115.819,24.421,116.977,19.711,116.977ZM16.538,79.654l-.026.04c-.049.019-4.828,1.923-5.528,3.641a.94.94,0,0,0,.052.893A4.885,4.885,0,0,0,12.5,85.486c.2.125.41.253.694.416a6.479,6.479,0,0,1,2.781-.867,2.086,2.086,0,0,1,.379.032l.018-.36v-.015C16.4,84.115,16.508,81.161,16.538,79.654ZM57.384,59.215a22.12,22.12,0,0,1-3.734,7.329,20.456,20.456,0,0,1-9.734,6.67,10.724,10.724,0,0,0,1.075.382,9.851,9.851,0,0,0,2.736.391c3.108,0,6.277-1.48,9.419-4.4a4.2,4.2,0,0,1,.895-2.857,14.287,14.287,0,0,1,.289-1.483c0-.019.011-.038.017-.058s.012-.038.017-.058a2.973,2.973,0,0,1,1.232-1.817c.086-.422.156-.775.208-1.049.155-.817.241-1.336.264-1.476A5.728,5.728,0,0,1,57.384,59.215Zm-27.99-16-.276,0c-1.065.007-2.166.014-3.234.049-1.206.028-2.386.09-3.4.145-2.073.118-4.158.3-6.027.531-2.051.249-3.551.519-4.262.658-.35.06-.649.126-.89.179-.116.025-.216.048-.3.065l-.423.1a6.444,6.444,0,0,0,.008,12.5l.423.1c.087.017.186.039.3.063.242.053.543.119.9.179.707.137,2.2.4,4.263.652,1.863.226,3.947.408,6.027.525,1.133.059,2.245.114,3.4.139,1.1.034,2.228.039,3.323.044h.368c1.1-.008,2.23-.017,3.328-.055,1.146-.03,2.289-.08,3.4-.147,2.067-.119,4.15-.3,6.026-.533,2.038-.245,3.545-.514,4.262-.652.366-.061.676-.129.925-.184l.269-.058.423-.1a6.44,6.44,0,0,0-.008-12.5l-.425-.1c-.095-.018-.2-.042-.331-.069-.234-.051-.526-.114-.861-.17-.881-.168-2.335-.416-4.264-.646-1.849-.223-3.933-.4-6.026-.522-1.119-.066-2.262-.114-3.4-.143-1.093-.036-2.223-.043-3.315-.051ZM64.018,55.13c-.039.268-.08.539-.122.815C63.937,55.678,63.977,55.408,64.018,55.13Zm.319-2.253h0c-.094.691-.191,1.375-.3,2.091.089-.6.184-1.265.3-2.091Zm1.552-14.838h0c-.105,1.408-.218,2.788-.336,4.1.126-1.384.237-2.724.339-4.094Zm.567-10.687c-.025.762-.046,1.339-.067,1.871a.014.014,0,0,0,0,.006c.017-.435.031-.886.045-1.322V27.9Q66.447,27.625,66.456,27.352Z" transform="translate(0 0.023)" fill="#633ba1"/>
      </g>
    </g>
    <path id="Fill_4" data-name="Fill 4" d="M11.94,1.64A7.337,7.337,0,0,0,11.13,1.1,7.823,7.823,0,0,0,10.082.572a7.319,7.319,0,0,0-1.26-.4A6.559,6.559,0,0,0,7.4,0,6.379,6.379,0,0,0,5.909.142,7.314,7.314,0,0,0,4.484.6a8.646,8.646,0,0,0-1.261.695A9.377,9.377,0,0,0,1.357,2.978,9.8,9.8,0,0,0,.327,4.428c-.11.187-.186.341-.242.45L0,5.055,1.385,6l.083-.1c.061-.069.153-.173.27-.3A12.7,12.7,0,0,1,2.775,4.579c.22-.2.476-.392.739-.6a8.484,8.484,0,0,1,.862-.557,5.983,5.983,0,0,1,.958-.454,5.644,5.644,0,0,1,1.015-.3c.173-.027.346-.06.52-.07a3.551,3.551,0,0,1,.519-.033,7.14,7.14,0,0,1,1.024.071,9.037,9.037,0,0,1,.967.215A4.015,4.015,0,0,1,9.828,3c.144.053.289.088.422.151.268.111.519.209.736.317s.414.187.569.274c.315.165.5.252.5.252L13,2.553s-.169-.166-.476-.442a6.41,6.41,0,0,0-.584-.47" transform="translate(34 49)" fill="#1d2328"/>
    <path id="Fill_6" data-name="Fill 6" d="M12.673,4.425a10.04,10.04,0,0,0-1.032-1.45A9.435,9.435,0,0,0,9.77,1.288,8.571,8.571,0,0,0,8.51.594,7.383,7.383,0,0,0,7.085.14,6.335,6.335,0,0,0,5.6,0,6.546,6.546,0,0,0,4.174.171,7.422,7.422,0,0,0,2.912.578,7.719,7.719,0,0,0,1.869,1.1a7.637,7.637,0,0,0-.813.546,6.516,6.516,0,0,0-.583.471C.167,2.4,0,2.564,0,2.564L.941,4.012s.189-.088.5-.254c.155-.087.352-.172.569-.275s.468-.208.734-.319c.134-.062.278-.1.422-.151a4.1,4.1,0,0,1,.449-.145,9.006,9.006,0,0,1,.968-.216,6.981,6.981,0,0,1,1.022-.072,3.4,3.4,0,0,1,.52.032c.175.01.346.043.521.069a5.7,5.7,0,0,1,1.017.3,6.026,6.026,0,0,1,.957.452,8.476,8.476,0,0,1,.862.557c.264.2.52.394.74.595A12.754,12.754,0,0,1,11.262,5.6c.117.129.208.232.271.3s.085.1.085.1L13,5.052s-.031-.06-.088-.176-.131-.264-.239-.451" transform="translate(12 49)" fill="#1d2328"/>
    <path id="Fill_8" data-name="Fill 8" d="M23.5,16H23.32c-1.088,0-2.212-.01-3.3-.045-1.14-.023-2.246-.079-3.372-.139-2.06-.117-4.127-.3-5.978-.526-1.523-.185-3.025-.417-4.228-.653-.353-.061-.654-.128-.9-.182-.108-.024-.2-.045-.288-.062-.273-.063-.419-.1-.419-.1A6.455,6.455,0,0,1,.158,6.58a6.472,6.472,0,0,1,1.7-3.152A6.2,6.2,0,0,1,4.83,1.735l.419-.1c.085-.017.183-.039.293-.064.24-.054.539-.121.89-.182.709-.139,2.2-.41,4.227-.66C12.526.5,14.593.314,16.637.2,17.7.137,18.849.078,20.008.051,21.047.016,22.119.009,23.156,0l.332,0h.1c1.113.008,2.264.016,3.378.051C28.1.082,29.238.13,30.34.2c2.063.118,4.13.3,5.977.525,2.03.245,3.521.511,4.229.648.337.058.629.122.864.173.122.027.227.05.318.068l.421.1a6.45,6.45,0,0,1,4.7,7.7,6.472,6.472,0,0,1-1.7,3.167,6.2,6.2,0,0,1-2.987,1.7l-.419.1-.257.056c-.25.056-.56.125-.928.187-.877.171-2.322.423-4.227.653-1.856.231-3.923.416-5.976.535-1.091.067-2.225.117-3.371.148-1.09.039-2.217.048-3.306.056ZM11.79,9.01h.086a3.281,3.281,0,0,1,.5.031,3.973,3.973,0,0,1,.4.051l.1.017a5.491,5.491,0,0,1,.986.291,5.774,5.774,0,0,1,.927.444,8.069,8.069,0,0,1,.835.545l.106.083c.22.17.427.331.61.5a12.116,12.116,0,0,1,1.006,1l.112.125.005.006.146.163c.051.064.081.1.081.1l1.339-.929-.029-.059-.056-.114c-.062-.128-.134-.27-.232-.442a9.758,9.758,0,0,0-1-1.421,9.224,9.224,0,0,0-1.813-1.654,8.178,8.178,0,0,0-1.22-.679,7.012,7.012,0,0,0-1.381-.445,6.242,6.242,0,0,0-1.278-.137l-.163,0a6.353,6.353,0,0,0-1.381.165,7.143,7.143,0,0,0-1.222.4,7.37,7.37,0,0,0-1.011.517l-.006,0a7.387,7.387,0,0,0-.782.531,6.111,6.111,0,0,0-.564.462c-.288.263-.453.428-.46.435l.912,1.418s.195-.092.488-.248c.108-.061.239-.123.378-.188L8.391,9.9c.162-.082.341-.157.532-.237l.18-.076a2.3,2.3,0,0,1,.247-.092c.053-.018.108-.036.163-.056L9.6,9.4a2.976,2.976,0,0,1,.346-.11,8.614,8.614,0,0,1,.937-.211A7.176,7.176,0,0,1,11.79,9.01ZM34.96,6.468a6.186,6.186,0,0,0-1.279.139,6.957,6.957,0,0,0-1.38.446,8.252,8.252,0,0,0-1.222.682A9.182,9.182,0,0,0,29.27,9.391a9.635,9.635,0,0,0-1,1.424c-.09.154-.158.289-.208.388l-.027.053-.083.174,1.342.927.046-.056.034-.041.261-.3a12.66,12.66,0,0,1,1.005-1c.186-.171.395-.334.616-.506l.1-.077a8.142,8.142,0,0,1,.835-.547,5.881,5.881,0,0,1,.927-.445,5.412,5.412,0,0,1,.984-.291l.1-.016a3.859,3.859,0,0,1,.4-.053,3.259,3.259,0,0,1,.5-.031h.1a6.96,6.96,0,0,1,.895.07,8.583,8.583,0,0,1,.937.211,2.81,2.81,0,0,1,.34.107l.1.034c.053.02.108.038.16.055a2.077,2.077,0,0,1,.249.093l.146.061c.2.085.4.165.567.25l.185.088c.134.063.261.123.365.182.3.161.486.247.488.247l.912-1.419s-.176-.174-.462-.434a5.966,5.966,0,0,0-.565-.462,7.178,7.178,0,0,0-.786-.533,7.34,7.34,0,0,0-1.014-.515,7.045,7.045,0,0,0-1.22-.4,6.236,6.236,0,0,0-1.381-.163Z" transform="translate(6 43)" fill="#fc9"/>
  </g>
</svg>
