<svg id="nodejs-plain_copy_3" data-name="nodejs-plain copy 3" xmlns="http://www.w3.org/2000/svg" width="23" height="25" viewBox="0 0 23 25">
  <path id="Shape" d="M11.615,25a2.059,2.059,0,0,1-1-.257l-3.181-1.81c-.194-.1-.289-.193-.283-.262s.1-.107.195-.138A6.436,6.436,0,0,0,8.784,21.9a.188.188,0,0,1,.09-.022.294.294,0,0,1,.141.04l2.433,1.4a.305.305,0,0,0,.141.035.27.27,0,0,0,.135-.035l9.487-5.288c.075-.041.073-.119.07-.2,0-.015,0-.031,0-.047V7.208c0-.013,0-.025,0-.037,0-.086,0-.168-.077-.215l-9.45-5.283a.319.319,0,0,0-.151-.036.327.327,0,0,0-.153.036L1.911,6.958a.343.343,0,0,0-.191.25V17.782a.273.273,0,0,0,.145.244l2.605,1.45a2.306,2.306,0,0,0,.987.257A1.156,1.156,0,0,0,6.664,18.55V8.111c0-.144.3-.366.456-.366H8.328a.079.079,0,0,1,.064.025c.034.04.02.121.006.207a.919.919,0,0,0-.016.135V18.55c0,1.844-.967,2.859-2.722,2.859a3.918,3.918,0,0,1-2.094-.573L1.045,19.454A1.977,1.977,0,0,1,0,17.782V7.208A1.962,1.962,0,0,1,1.036,5.54L10.6.246A2.086,2.086,0,0,1,11.592,0a2.062,2.062,0,0,1,.99.246L22.071,5.54A1.865,1.865,0,0,1,23,7.208V17.782a1.871,1.871,0,0,1-.93,1.671l-9.453,5.289A2.066,2.066,0,0,1,11.615,25Zm2.943-7.315c-4.167,0-5.042-1.856-5.042-3.414a.325.325,0,0,1,.275-.324h1.231c.133,0,.251.15.274.285.187,1.215.762,1.874,3.262,1.874,2,0,2.86-.437,2.86-1.461,0-.589-.241-1.029-3.361-1.322-2.6-.248-4.217-.8-4.217-2.807,0-1.848,1.62-2.951,4.334-2.951,3.051,0,4.561,1.018,4.753,3.2a.258.258,0,0,1-.072.2.29.29,0,0,1-.2.082H17.418a.27.27,0,0,1-.267-.205c-.3-1.267-1.019-1.673-2.975-1.673-2.191,0-2.444.732-2.444,1.282,0,.663.3.857,3.259,1.233,2.925.372,4.316.9,4.316,2.871S17.576,17.685,14.558,17.685Z" fill="#83cd29"/>
</svg>
