<svg xmlns="http://www.w3.org/2000/svg" width="856" height="484.987" viewBox="0 0 856 484.987"><defs><style>.a{fill:#bcd0e5;}.b{opacity:0.45;}.c{fill:#8b9caa;}.d{fill:#cf2b2a;}.e{fill:#031d3f;}.f{fill:#06397d;}.g,.h{fill:#fff;}.h{font-size:426px;font-family:FranklinGothic-Heavy, Franklin Gothic;font-weight:800;letter-spacing:-0.034em;}.i{fill:#031c3d;}.j{fill:#e6eff7;}.k{fill:#911f1e;}.l{fill:#38a0ff;}.m{fill:#0b74d6;}.n{fill:#e6e7e8;}.o{fill:#d1d3d4;}.p{fill:#bcbec0;}.q{fill:#ffcd89;}.r{fill:#042959;}.s{mix-blend-mode:multiply;}.ab,.s{isolation:isolate;}.t{fill:#e4e9f4;}.u{fill:#b7c8f4;}.v{fill:#063f8c;}.w{fill:#064eab;}.x{fill:#facb66;}.y{fill:#04244f;}.z{fill:#be1f1e;}.aa{opacity:0.5;}.ab{mix-blend-mode:screen;}.ac{fill:#3d5a72;}</style></defs><g transform="translate(-94.308 3.732)"><g transform="translate(94.308 31.808)"><path class="a" d="M902.742,241.675s73.168-94.191-9.053-139.439-159.63,12.335-218.369,18.59c-49.615,5.283-76.4-29.448-190.36-49.587-104.838-18.526-178.245,53.75-178.245,53.75S189.937,45.855,123.733,113.18s0,146.921,0,146.921-46.442,151.182,4.941,191.405,117.317-8.21,210.336-3.842S489.6,535.912,672.525,512.515c139.066-17.786,168.643-88.444,168.643-88.444s90.818,39.038,107.608-58.22C960.334,298.895,902.742,241.675,902.742,241.675Z" transform="translate(-94.308 -68.202)"/><g class="b" transform="translate(11.142 290.662)"><path class="c" d="M636.08,703.2c-163.773,6.58-345.692-41.666-519.22-7.225,2.308,22.507,9.035,42.073,23.223,53.179,51.383,40.223,117.317-8.211,210.336-3.843s150.586,88.249,333.515,64.852C823,792.376,852.577,721.718,852.577,721.718S943.4,760.756,960.185,663.5c.4-2.342.716-4.671.956-6.987C884.627,673.81,775.341,697.6,636.08,703.2Z" transform="translate(-116.86 -656.511)"/></g><g transform="translate(180.096 396.124)"><path class="c" d="M522.406,870.534c30.672,2.3,72.492,13.821,61.681,37.813s-118.7,18.344-124.791-11.533C453.768,869.674,498.546,868.746,522.406,870.534Z" transform="translate(-458.828 -869.969)"/></g></g><g transform="translate(175.558 401.121)"><path class="d" d="M264.5,815.831c-2.628-.424-5.465.209-5.72,1.869-.542,3.54,10.472,3.9,10.52.94C269.322,817.179,266.542,816.161,264.5,815.831Z" transform="translate(-258.76 -815.703)"/></g><g transform="translate(189.941 396.493)"><path class="e" d="M294.912,806.345c3.363-.117,8.585.9,7.811,4.209s-13.571,4.2-14.7.337S292.3,806.435,294.912,806.345Z" transform="translate(-287.872 -806.336)"/></g><g transform="translate(415.16 404.851)"><path class="e" d="M747.474,823.257c1.792-.062,4.576.482,4.163,2.244s-7.233,2.237-7.834.179S746.079,823.306,747.474,823.257Z" transform="translate(-743.722 -823.253)"/></g><g transform="translate(578.411 457.01)"><path class="f" d="M1079.526,928.825c-2.661-.028-5.373,1.021-5.378,2.7-.009,3.58,10.937,2.3,10.542-.637C1084.5,929.441,1081.6,928.847,1079.526,928.825Z" transform="translate(-1074.148 -928.825)"/></g><g transform="translate(685.797 416.076)"><path class="d" d="M1297.533,845.972c2.841-.011,7.22.986,6.482,3.754s-11.56,3.19-12.41-.1S1295.324,845.98,1297.533,845.972Z" transform="translate(-1291.5 -845.972)"/></g><g transform="translate(644.762 432.292)"><path class="e" d="M1220.85,878.794c5.843-.023,14.849,2.027,13.331,7.721s-23.774,6.56-25.524-.2S1216.306,878.812,1220.85,878.794Z" transform="translate(-1208.443 -878.794)"/></g><g transform="translate(140.397 -3.732)"><g transform="translate(0)"><path class="g" d="M1546.967,188.355a30.046,30.046,0,0,0-8.554,7.305,41.232,41.232,0,0,0-6.651,15.185,45.929,45.929,0,0,0,2.34,27.4,33.228,33.228,0,0,0,27.718,20.747,43.405,43.405,0,0,0,33.126-11.231c10.9-10.027,14.448-25.348,10.085-39.434-3.213-10.371-10.408-18.149-20.821-21.457-6.32-2.007-13.035-2.2-19.612-2.16-6.116.038-12.191.645-17.63,3.646a1.334,1.334,0,0,0,1.3,2.329c4.865-2.684,10.252-3.242,15.723-3.3,5.365-.06,10.857-.018,16.117,1.15,9.605,2.132,17.054,7.771,21,16.841,5.567,12.78,3.645,28.139-5.933,38.4-14.516,15.56-43.458,18.529-55.875-1.2a42.23,42.23,0,0,1-.409-42.749c2.344-4.067,5.463-6.672,9.373-9.141,1.444-.913.158-3.249-1.3-2.329Z" transform="translate(-867.099 -91.605)"/><text class="h" transform="translate(380.999 390)"><tspan x="-381.147" y="0">B2C</tspan></text></g><g transform="translate(699.928 93.058)"><path class="g" d="M1604.587,185.88q-.807,35.805.383,71.605c.055,1.708,2.72,1.773,2.666.054q-1.149-35.8-.383-71.605a1.334,1.334,0,0,0-2.666-.054Z" transform="translate(-1604.269 -184.619)"/></g><g transform="translate(663.494 127.336)"><g transform="translate(0)"><path class="g" d="M1531.774,257.389c12.485-1.146,25-.68,37.511-.3q18.066.542,36.132,1.1a1.334,1.334,0,0,0,.054-2.665q-18.066-.54-36.132-1.1c-12.51-.375-25.025-.841-37.511.3-1.689.155-1.763,2.822-.054,2.665Z" transform="translate(-1530.526 -253.999)"/></g></g><g transform="translate(677.256 94.079)"><g transform="translate(0)"><path class="g" d="M1572.608,187.067c-4.922,4.809-9.39,9.67-11.651,16.3a51.447,51.447,0,0,0-2.274,21.812,52.859,52.859,0,0,0,17.989,34.186c1.286,1.119,3.219-.718,1.923-1.846a50.485,50.485,0,0,1-17.143-31.446,49.47,49.47,0,0,1,1.683-20.767c2.062-6.736,6.386-11.5,11.319-16.321,1.228-1.2-.617-3.125-1.846-1.923Z" transform="translate(-1558.381 -186.687)"/></g></g><g transform="translate(708.566 93.74)"><g transform="translate(0)"><path class="g" d="M1625.188,257.624a23.5,23.5,0,0,0,10.234-12.426,59.7,59.7,0,0,0,3.155-21c-.365-13.8-7.4-26.03-14.3-37.555-.88-1.468-3.214-.179-2.329,1.3,6.253,10.438,12.8,21.476,13.837,33.877a58.928,58.928,0,0,1-1.762,18.712c-1.591,6.434-4.479,11.2-10.135,14.76-1.446.91-.159,3.246,1.3,2.329Z" transform="translate(-1621.752 -186)"/></g></g><g transform="translate(671.805 102.538)"><path class="g" d="M1547.582,205.711c2.407,3.485,6.663,4.48,10.544,5.618a64.02,64.02,0,0,0,16.062,2.551,62.933,62.933,0,0,0,31.3-7.355c1.517-.8.221-3.132-1.3-2.329a60.064,60.064,0,0,1-27.681,7.045,60.743,60.743,0,0,1-14.3-1.593c-3.694-.866-10.014-1.933-12.3-5.237-.966-1.4-3.306-.117-2.329,1.3Z" transform="translate(-1547.348 -203.809)"/></g><g transform="translate(669.582 140.664)"><path class="g" d="M1544.8,292.856a66.6,66.6,0,0,1,30.358-9.087c9.816-.458,21.958.006,30,6.313,1.35,1.059,2.727-1.227,1.392-2.274-8.354-6.555-21.127-7.189-31.333-6.7a69.617,69.617,0,0,0-31.71,9.424,1.334,1.334,0,0,0,1.3,2.329Z" transform="translate(-1542.848 -280.977)"/></g></g><g transform="translate(325.13 73.45) rotate(-9)"><g transform="translate(0 18.521)"><ellipse class="i" cx="23.975" cy="42.437" rx="23.975" ry="42.437" transform="translate(0 17.828) rotate(-21.827)"/></g><g transform="translate(22.458 25.359)"><path class="i" d="M664.488,248.213s-5.883,1.988-5.908,2,.41,1.648.41,1.648l7.268-2.027Z" transform="translate(-658.579 -248.213)"/></g><g transform="translate(51.217 103.891)"><path class="i" d="M723.651,408.253l-5.065,1.577-1.8-1.51s3.194-1.124,3.319-1.156,3.292.737,3.292.737Z" transform="translate(-716.788 -407.163)"/></g><g transform="translate(5.07 16.815)"><ellipse class="j" cx="24.014" cy="42.506" rx="24.014" ry="42.506" transform="matrix(0.928, -0.372, 0.372, 0.928, 0, 17.857)"/></g><g transform="translate(23.773 31.424)"><path class="f" d="M680.553,322.137c-5.935-5.065-11.184-12.8-14.777-21.769-3.73-9.311-5.264-19.158-4.21-27.017.866-6.458,3.359-10.961,6.843-12.356a6.954,6.954,0,0,1,.9-.29c3.6-.895,8.485,1,13.4,5.193,5.934,5.064,11.182,12.8,14.776,21.769,3.73,9.311,5.264,19.158,4.21,27.016-.866,6.457-3.359,10.96-6.843,12.356a6.93,6.93,0,0,1-.9.29C690.352,328.225,685.468,326.332,680.553,322.137Zm11.818-1.3c.9-.376,2.072-2.311,2.706-7.044.905-6.753-.477-15.371-3.79-23.646-3.2-7.988-7.785-14.8-12.912-19.173-4.242-3.62-6.96-3.911-7.485-3.783-.5.224-2.071,2.311-2.706,7.044-.906,6.752.476,15.371,3.791,23.646,3.2,7.988,7.784,14.8,12.912,19.173C689.128,320.677,691.471,321.217,692.371,320.841Z" transform="translate(-661.24 -260.488)"/></g><g transform="translate(38.836 53.765)"><path class="f" d="M702.115,327.609a1.325,1.325,0,0,0,.169-.054c.823-.33,1.487-1.68,1.735-3.526a21.06,21.06,0,0,0-6.486-16.647c-1.723-1.47-3.088-1.808-3.79-1.633a1.325,1.325,0,0,0-.169.054c-.823.33-1.487,1.68-1.735,3.526a21.06,21.06,0,0,0,6.486,16.647c1.723,1.47,3.088,1.808,3.79,1.633Z" transform="translate(-691.73 -305.707)"/></g><g transform="translate(57.394)"><path class="i" d="M734.981,196.885s-3.972,12.234-5.69,15.97c0,0,3.786,7.868,4.672,9.926l5.023-16.437S736.83,199.535,734.981,196.885Z" transform="translate(-729.291 -196.885)"/></g><g transform="translate(62.066 5.617)"><path class="i" d="M744.488,226.34l-5.741,2.192,5.023-16.437,7.646-3.841Z" transform="translate(-738.747 -208.254)"/></g><g transform="translate(44.756 7.585)"><path class="d" d="M704.986,270.2a1.022,1.022,0,0,0,.634-.471c9.754-16.381,21.673-55.772,21.792-56.168a1.027,1.027,0,1,0-1.967-.592c-.119.393-11.966,39.544-21.591,55.709a1.027,1.027,0,0,0,1.131,1.522Z" transform="translate(-703.71 -212.237)"/></g></g><path class="i" d="M192.923,176.724a87.056,87.056,0,0,0-7.424-11.808c-5.359-7.579-10.859-15.158-16.666-22.4A77.65,77.65,0,0,0,161,133.928c-2.245-2.071-4.752-4.875-8.053-3.88-8.2,2.472-9.064,11.021-7.229,18.147l0,.012c.971-1.063,1.917-2.068,2.6-2.784a13.064,13.064,0,0,1,.6-8.007c1.436-3.123,4.952-5.175,7.817-2.807a59.918,59.918,0,0,1,7.221,7.2C167.9,146.4,171.4,151.364,175,156.223c3.945,5.324,7.985,10.6,11.552,16.188,1.882,2.948,5.125,6.626,2.75,10a11.668,11.668,0,0,1-3.314,3.5c-2.263,1.333-4,.427-5.582-1.313-4.461-4.909-8.219-10.926-12-16.372-3.618-5.207-7.575-10.513-10.542-16.125-.8-1.522-2.712-5.471-1.694-7.252,1.052-1.841,5.361,2.953,6.351,4.012,4.545,4.864,7.763,10.831,11.471,16.316,1.2,1.771,3.934-.114,2.733-1.89-4.45-6.581-8.293-13.834-14.315-19.169-3.012-2.668-8.742-5.428-9.583.65-.916,6.617,4.7,13.167,8.031,18.228,5.184,7.865,10.749,15.447,16.423,22.964,1.648,2.182,3.369,4.064,6.328,4.005,3.617-.073,6.248-2.614,8.218-5.39C193.766,181.841,194.435,179.826,192.923,176.724Z" transform="translate(-25.603 -67.579)"/><g transform="translate(752.511 216.693)"><g transform="translate(0 10.738)"><g transform="translate(0.417)"><path class="j" d="M1395.858,455.995l3.409,25.27,45.3-5.24-2.489-23.861S1402.389,454.412,1395.858,455.995Z" transform="translate(-1395.858 -452.163)"/></g><g transform="translate(0 1.073)"><path class="i" d="M1418.455,469.306c-1.028.077-4.828-1.355-14.9-5.376-3.738-1.492-7.269-2.9-8.683-3.358a.576.576,0,1,1,.354-1.1c1.452.469,4.837,1.82,8.756,3.385,5.27,2.1,13.208,5.271,14.313,5.306.444-.183,2.66-1.5,5-2.9,6.059-3.613,15.216-9.072,17.885-9.522a.576.576,0,1,1,.192,1.137c-2.456.414-11.865,6.024-17.486,9.375a57.137,57.137,0,0,1-5.292,3.027A.645.645,0,0,1,1418.455,469.306Z" transform="translate(-1394.469 -455.737)"/></g><g transform="translate(2.653 11.419)"><path class="i" d="M1403.923,504.021a.576.576,0,0,1-.445-.988c.455-.443,11.178-10.867,14.461-12.772a.576.576,0,1,1,.579,1c-3.161,1.835-14.126,12.495-14.236,12.6A.576.576,0,0,1,1403.923,504.021Z" transform="translate(-1403.304 -490.182)"/></g><g transform="translate(30.788 9.183)"><path class="i" d="M1514.635,491.112a.572.572,0,0,1-.364-.1c-.373-.25-3.692-1.6-6.62-2.784-4.116-1.669-8.781-3.562-10.369-4.408a.576.576,0,1,1,.542-1.017c1.534.818,6.17,2.7,10.26,4.357,4.06,1.647,6.379,2.594,6.829,2.9a.576.576,0,0,1-.278,1.053Z" transform="translate(-1496.976 -482.739)"/></g></g><g transform="translate(22.272)"><path class="k" d="M1484.071,421.358c1.29,3.769,1.9,9.536-5.734,11.406-7.323,1.795-14.236-9.052-5.935-14.621C1478.727,413.9,1483.068,418.426,1484.071,421.358Z" transform="translate(-1468.621 -416.412)"/></g><g transform="translate(27.614 3.766)"><path class="g" d="M1487.506,430.749c.4-.262,1.983-1.22,2.464-.991.78.373-.191,1.585-.484,1.923a6.911,6.911,0,0,1-1.189,1.085c-.324.232-.143.859.294.7.839-.309,1.8-.755,2.6-.235a2.055,2.055,0,0,1,.558,2.486c-.737,1.761-3.324,1.72-4.761.967-.435-.228-.822.431-.385.66,2.089,1.094,5.315.744,6.031-1.832a3.106,3.106,0,0,0-.806-2.885c-.975-.887-2.4-.279-3.437.1l.294.7c.982-.7,3.134-2.616,2.231-4.044-.694-1.1-3.015.192-3.792.708-.408.27-.026.932.385.66Z" transform="translate(-1486.407 -428.951)"/></g></g><g transform="translate(195.19 281.5)"><path class="l" d="M360.92,682.911c-9.072,4.152-22.538,5.659-39.548-1.412-5.226-2.173-17.5-9.862-17.5-17.849a6.264,6.264,0,0,1,5.264-6.281s-16.764-15.715-8.2-25.9a8.357,8.357,0,0,1,9.9-2.407s-24.159-41.83-1.854-53.671c25.673-13.63,45.494,54.218,45.494,54.218s-3.843-20.61,5.083-21.638S395.913,645.909,360.92,682.911Z" transform="translate(-298.497 -573.587)"/><g transform="translate(18.557 15.762)"><path class="g" d="M363.485,698.491c2.245-27.627-5.08-51.436-11.619-66.545a133.354,133.354,0,0,0-14.894-26.457l-.915.715c.077.1,7.731,9.992,14.758,26.238,6.48,14.981,13.736,38.583,11.513,65.955Z" transform="translate(-336.057 -605.489)"/></g><g transform="translate(8.953 64.879)"><path class="g" d="M353.241,734.228l.318-1.118c-13.494-3.838-35.863-27.963-36.087-28.206l-.854.787C317.543,706.695,339.435,730.3,353.241,734.228Z" transform="translate(-316.618 -704.904)"/></g><g transform="translate(22.084 97.545)"><path class="g" d="M365.6,778.183c.4.014.8.022,1.205.022v-1.162c-11.317-.011-22.959-5.962-23.075-6.023l-.534,1.032C343.311,772.112,354.4,777.783,365.6,778.183Z" transform="translate(-343.196 -771.021)"/></g><g transform="translate(45.792 45.033)"><path class="g" d="M391.373,719.177c8.6-1.443,14.913-5.461,18.751-11.944,4.981-8.412,4.835-19.532,3.836-27.379a83.413,83.413,0,0,0-3.377-15.119l-1.1.382c.089.258,8.87,25.935-.363,41.526-3.655,6.172-9.692,10-17.942,11.387Z" transform="translate(-391.181 -664.736)"/></g><g transform="translate(28.419 48.99)"><path class="m" d="M371.948,735.64c5.6,1.347,11.426.208,20.2-10.268,2.889-3.447,7.789-12.654,1.36-17.94s-8.013,6.205-8.013,6.205S382.671,667.7,364.009,673.2c-19.754,5.825,3.333,41.45,3.333,41.45s-4.763-3.671-7.538-.725C356.545,717.385,357.625,732.19,371.948,735.64Z" transform="translate(-356.017 -672.745)"/><g transform="translate(10.343 9.739)"><path class="g" d="M392.24,740c-.005-.213-.69-21.6-14.053-47.545l-1.235.636c13.219,25.67,13.894,46.734,13.9,46.943Z" transform="translate(-376.952 -692.456)"/></g><g transform="translate(24.311 43.956)"><path class="g" d="M409.417,769.739c5.534-3.961,6.233-7.6,6.264-7.783l-1.368-.243c-.008.046-.96,4.641-9.088,8.982l.655,1.225A31.889,31.889,0,0,0,409.417,769.739Z" transform="translate(-405.224 -761.713)"/></g><g transform="translate(7.255 45.896)"><path class="g" d="M388.361,775.353l-.276-1.362c-10.715,2.171-16.09-8.246-16.143-8.352l-1.242.625C370.759,766.378,376.617,777.732,388.361,775.353Z" transform="translate(-370.701 -765.639)"/></g></g><g transform="translate(41.363 98.291)"><g transform="translate(0)"><path class="n" d="M422.89,782.192c-4.146-4.361-7.466-9.415-13.878-9.644s-19.4,1.818-21.481,4.435-10.005,12.109-1.368,15.557S434.274,794.168,422.89,782.192Z" transform="translate(-382.216 -772.53)"/></g><g transform="translate(0 6.36)"><path class="o" d="M394.5,789.513c6.721,1.4,9.767,2.654,15.859,3.111s9.556-5.878,9.524-7.22c.991,1.086,1.972,2.215,3,3.3,11.384,11.977-28.089,13.8-36.727,10.348-5.058-2.019-4.436-6.111-2.635-9.681h0C385.536,788.464,387.782,788.109,394.5,789.513Z" transform="translate(-382.216 -785.403)"/></g></g></g><g transform="translate(789.682 253.167)"><g transform="translate(0)"><path class="l" d="M1558.252,645.841s19.34.313,17.292-7.054c-2.124-7.643-16.326-3.134-16.326-3.134s37.337-12.717,32.152-23.776c-4.086-8.716-21.906-3.239-21.906-3.239s67.6-50.947,33.13-83.84c-36.662-34.989-69.986,47.41-62.507,65.938,0,0-18.968-34.872-34.785-25.223-11.878,7.246,8.166,50.133,30.464,70.178Z" transform="translate(-1501.767 -516.24)"/></g><g transform="translate(46.825 23.104)"><path class="g" d="M1597.641,665.25l.8-.078c-2.128-21.783,8.934-47.942,18.588-66.05a284.713,284.713,0,0,1,21.714-34.47l-.642-.49a285.432,285.432,0,0,0-21.779,34.569,194.455,194.455,0,0,0-14.105,32.734C1598.232,644.165,1596.691,655.532,1597.641,665.25Z" transform="translate(-1596.96 -563.589)"/><path class="g" d="M1596.855,665.11l-.039-.406c-.955-9.774.592-21.2,4.6-33.948a194.857,194.857,0,0,1,14.134-32.8,286.705,286.705,0,0,1,21.814-34.625l.248-.325,1.292.985-.248.325a285.136,285.136,0,0,0-21.678,34.415c-9.628,18.06-20.66,44.138-18.542,65.818l.04.407Zm13.577-55.085a173.936,173.936,0,0,0-8.24,20.975,103.2,103.2,0,0,0-4.568,21.908C1598.887,638.454,1604.364,623.135,1610.432,610.026Z" transform="translate(-1596.542 -563.003)"/></g><g transform="translate(55.568 52.382)"><path class="g" d="M1615.729,651.155c15.17-7.95,26.332-27.166,26.443-27.359l-.7-.4c-.11.191-11.158,19.206-26.117,27.046Z" transform="translate(-1614.802 -622.835)"/><path class="g" d="M1614.991,651.135l-.754-1.439.362-.19c14.726-7.719,25.844-26.7,25.952-26.887l.2-.356,1.412.81-.2.355c-.112.194-11.377,19.535-26.607,27.517Z" transform="translate(-1614.237 -622.263)"/></g><g transform="translate(45.008 46.778)"><path class="g" d="M1597.046,669.142l.709-.386c-5.737-10.529-2.784-25.259.7-35.763a122.559,122.559,0,0,1,9.07-20.535l-.7-.407a123.532,123.532,0,0,0-9.139,20.687,74.641,74.641,0,0,0-3.908,18.624C1593.348,658.387,1594.446,664.369,1597.046,669.142Z" transform="translate(-1593.283 -611.492)"/><path class="g" d="M1596.465,669.125l-.2-.359c-2.637-4.842-3.751-10.9-3.311-18a75.057,75.057,0,0,1,3.928-18.727,124.039,124.039,0,0,1,9.173-20.764l.206-.353,1.405.819-.208.353a123.242,123.242,0,0,0-9.034,20.457c-3.462,10.427-6.4,25.038-.732,35.438l.2.359Zm-1.147-28.531a63.443,63.443,0,0,0-1.543,10.221,38.767,38.767,0,0,0,.685,10.63C1593.024,654.775,1593.78,647.34,1595.318,640.593Z" transform="translate(-1592.864 -610.92)"/></g><g transform="translate(24.395 81.087)"><path class="g" d="M1574.66,719.638l.418-.691c-9.328-5.643-14.863-15.564-17.864-22.894a73.138,73.138,0,0,1-4.331-14.749l-.8.122a73.954,73.954,0,0,0,4.375,14.914C1559.507,703.79,1565.138,713.878,1574.66,719.638Z" transform="translate(-1551.62 -680.839)"/><path class="g" d="M1574.322,719.723l-.35-.211c-9.617-5.819-15.3-15.987-18.367-23.492a74.241,74.241,0,0,1-4.4-15.008l-.062-.4,1.6-.247.063.4a72.922,72.922,0,0,0,4.3,14.656c2.978,7.272,8.466,17.113,17.7,22.7l.349.211Z" transform="translate(-1551.143 -680.362)"/></g><g transform="translate(20.48 103.069)"><path class="o" d="M1552.286,728.379c-13.962,8.4-11.89,23.535,6.832,27.815s31.348-8.6,27.061-16.127S1569.191,718.208,1552.286,728.379Z" transform="translate(-1543.218 -724.855)"/></g><g transform="translate(20.48 115.561)"><path class="p" d="M1584.444,750.139c.291,4.409-.547,8.494-4.516,8.888-8.907.883-6.6-2.893-17.026-1.135s-18.672-4.543-19.2-6.764c-2.164,7.3,2.913,15,15.415,17.858,18.722,4.28,31.348-8.6,27.061-16.127C1585.7,752.022,1585.123,751.1,1584.444,750.139Z" transform="translate(-1543.219 -750.139)"/></g></g><g transform="translate(569.624 172.01)"><g transform="translate(33.227 221.528)"><path class="q" d="M1124.146,800.354l-.533,6.875,4.346,1.2-.04-8.031Z" transform="translate(-1123.613 -800.354)"/></g><g transform="translate(16.497 226.8)"><path class="i" d="M1110.781,811.024a5.283,5.283,0,0,1,.993,5.718,12.96,12.96,0,0,1-4.691,1.949l-.328-.827a16.814,16.814,0,0,0-2.218,1.422c-.972.766-12.639,3.028-14.781-1.226,0,0-.19-1.479,2.133-2.277s10.718-2.227,14.554-4.491A6.758,6.758,0,0,0,1110.781,811.024Z" transform="translate(-1089.751 -811.024)"/></g><g transform="translate(54.302 221.528)"><path class="q" d="M1166.8,800.354l-.533,6.875,4.346,1.2-.04-8.031Z" transform="translate(-1166.271 -800.354)"/></g><g transform="translate(37.573 226.8)"><path class="i" d="M1153.438,811.024a5.285,5.285,0,0,1,.993,5.718,12.959,12.959,0,0,1-4.691,1.949l-.328-.827a16.847,16.847,0,0,0-2.218,1.422c-.972.766-12.639,3.028-14.781-1.226,0,0-.19-1.479,2.132-2.277s10.719-2.227,14.554-4.491A6.759,6.759,0,0,0,1153.438,811.024Z" transform="translate(-1132.409 -811.024)"/></g><g transform="translate(19.651 93.15)"><path class="r" d="M1137.389,540.512s-5.164,52.838-5.164,75.96,5.164,53.582,5.164,53.582c-3.237,1.025-6.925.842-10.861,0a353.251,353.251,0,0,1-8.612-61.105q-.073-1.542-.129-3.1c-.487-13.419,0-27.447,2.3-40.482l-8.746.7s-6.462,62.32,6.646,103.984a12.339,12.339,0,0,1-10.352,0s-21.975-67.572-5.169-129.542Z" transform="translate(-1096.136 -540.512)"/></g><g transform="translate(2.778 25.016)"><path class="q" d="M1069.515,427.473s-.26-4.329,3.218-5.066,6.058-2.691,5.014-3.678-5.238,1.05-6.181.964c0,0-.3-6.94,5.122-2.081,1.649,1.476,3.96.17-1.339-4.245-1.994-1.662-5.364.874-5.443.726s1.839-7.231,2.41-9.692-2.11-2.775-2.817,1.534c-.609,3.711-1.861,7.452-2.073,6.592s.592-5.264.619-7-2.113-1.558-2.5.861-.5,6.41-.589,7.127a43.532,43.532,0,0,1-.778-4.778c-.126-1.8-2.02-1.658-2.187.145s1.542,9,3.583,11.293l-.209,7.25Z" transform="translate(-1061.983 -402.608)"/></g><g transform="translate(39.694 32.207)"><path class="q" d="M1140.814,425.819a13.552,13.552,0,0,1-4.111,11.306l4.2,4.111,10.928-4.551s-2.643-9.4,1.175-17.178S1140.814,425.819,1140.814,425.819Z" transform="translate(-1136.703 -417.162)"/></g><g class="s" transform="translate(43.419 35.984)"><path class="q" d="M1154.756,433.745a23.779,23.779,0,0,1,1.434-8.938l-7.058,1.116c-2.455,1.96-4.5,3.763-4.5,3.763a13.8,13.8,0,0,1-.386,5.077C1145.922,435.479,1149.186,435.985,1154.756,433.745Z" transform="translate(-1144.242 -424.807)"/></g><g transform="translate(35.126)"><path class="i" d="M1130.872,369.233s-8.977-10.511,2.182-15.87,15.637,6.314,19.9,9.4,10.253,4.111,10.938,11.306-13.576,17.362-15.093,19.663c0,0,3.4-7.085,3.445-10.657.015-1.063-1.373-3.276-4.307-4.209C1146.855,378.518,1133.25,373.184,1130.872,369.233Z" transform="translate(-1127.458 -351.975)"/></g><g transform="translate(35.126 6.8)"><path class="q" d="M1135.7,370.73s-8.663,8.075-8.222,18.059c0,0,1.826,1.1,2.861.664,0,0-1.393,12.4,7.857,13.578s18.793-10.277,20.115-17.619-9.984-12.627-9.984-12.627l-11.893-7.048Z" transform="translate(-1127.458 -365.738)"/></g><g transform="translate(41.616 5.808)"><path class="i" d="M1140.921,367.417a25.345,25.345,0,0,0,18.6,20.507s-5.341,5.6-4.086,11.751l4.969-5.761,4.608-5.875,1.325-10.434s-7.163-5.811-7.931-6.157-8.544-3.8-8.775-3.974-5.127-3.4-5.127-3.4l-3.917-.346Z" transform="translate(-1140.592 -363.73)"/></g><g transform="translate(54.068 27.571)"><path class="q" d="M1167.845,409.116a4.192,4.192,0,0,1,4.321-1.095c3.3,1.233.288,8.238-4.321,7.892S1167.845,409.116,1167.845,409.116Z" transform="translate(-1165.797 -407.78)"/></g><g transform="translate(32.059 51.267)"><path class="t" d="M1131.351,455.741a18.59,18.59,0,0,0,12.541,0l.665,3.032-8.6,21.41-9.768,15.352-4.943-12.212,1.119-16.627,4.678-8.949Z" transform="translate(-1121.25 -455.741)"/></g><g transform="translate(0 47.547)"><path class="t" d="M1120.033,468.207c1.393,6.854-.88,32.775-3.97,37,0,0-12.2,9.641-36.569.978-1.893-6.219-1.983-13.9-.177-23.111,0,0-8.8,14.253-18.05,11.757s-3.093-41.269-.3-45.673c0,0,3.817-2.643,8.222.881,0,0-6.166,29.218-1.321,29.218s9.269-18.041,17.188-23.1c7.109-4.544,11.827-4.155,11.827-4.155l-5.393,17.714,3.833,16.591,10.571-23.638,5.17-10.738Z" transform="translate(-1056.361 -448.21)"/></g><g transform="translate(41.694 95.397)"><path class="q" d="M1161.713,548.158s-1.745,3.319-3.85.454-4.948-4.41-5.417-3.052,3.116,4.339,3.425,5.235c0,0-7.461.912-11.691,1.59s-1.945,3.024,2.607,2.119c3.269-.649,4.225-.262,4.123-.129s-6.291,1.534-8.769,2.029-1.659,3.066,2.558,1.934c3.632-.975,7.093-1.807,6.4-1.26s-5.088,2.072-6.677,2.761-.549,2.568,1.813,1.92,6.052-2.484,6.745-2.7a36.791,36.791,0,0,1-3.487,2.243c-1.59.858-.678,2.523,1.033,1.932s7.01-4.383,8.26-7.189l5.342-6.309Z" transform="translate(-1140.75 -545.06)"/></g><g transform="translate(54.701 51.267)"><path class="t" d="M1167.078,455.741s13.813,3.171,20.5,6.011,20.421,12.214,15.536,27.554c-5.7,17.9-31.059,21.594-31.059,21.594l.084-6.94s19.959-6.9,17.881-21.579c-1.365-9.646-19.426-9.73-19.426-9.73l-2.853-13.877Z" transform="translate(-1167.078 -455.741)"/></g><g transform="translate(37.363 48.546)"><path class="u" d="M1131.985,453.308l5.077-3.075s-.2,2.664,1.9,3.375a27.553,27.553,0,0,1-4.644,3.823A13.294,13.294,0,0,1,1131.985,453.308Z" transform="translate(-1131.985 -450.233)"/></g><g transform="translate(44.285 48.546)"><path class="u" d="M1155.919,450.233a13.89,13.89,0,0,1-9.871,3.375,16.417,16.417,0,0,0,.688,5.378s8.733-1.974,11.607-5.616Z" transform="translate(-1145.995 -450.233)"/></g></g><g transform="translate(430.255 172.433)"><g transform="translate(57.731 220.869)"><path class="q" d="M894.889,799.877l.526,6.788-4.291,1.182.039-7.929Z" transform="translate(-891.124 -799.877)"/></g><g transform="translate(56.396 226.074)"><path class="i" d="M889.8,810.412a5.217,5.217,0,0,0-.98,5.645,12.792,12.792,0,0,0,4.631,1.924l.324-.817a16.669,16.669,0,0,1,2.19,1.4c.959.756,12.478,2.989,14.593-1.21,0,0,.187-1.46-2.106-2.249s-10.582-2.2-14.369-4.434A6.673,6.673,0,0,1,889.8,810.412Z" transform="translate(-888.421 -810.412)"/></g><g transform="translate(36.924 220.869)"><path class="q" d="M852.773,799.877l.526,6.788-4.291,1.182.039-7.929Z" transform="translate(-849.008 -799.877)"/></g><g transform="translate(35.588 226.074)"><path class="i" d="M847.687,810.412a5.216,5.216,0,0,0-.98,5.645,12.793,12.793,0,0,0,4.631,1.924l.324-.817a16.645,16.645,0,0,1,2.19,1.4c.959.756,12.479,2.989,14.594-1.21,0,0,.187-1.46-2.106-2.249s-10.582-2.2-14.369-4.434A6.673,6.673,0,0,1,847.687,810.412Z" transform="translate(-846.306 -810.412)"/></g><g transform="translate(34.696 95.212)"><path class="r" d="M845.341,545.8s4.256,50.82,4.256,73.649-5.1,52.9-5.1,52.9c3.2,1.012,6.837.832,10.723,0a348.774,348.774,0,0,0,8.5-60.329q.073-1.523.128-3.057c.481-13.248,0-27.1-2.272-39.968l8.635.691s6.38,61.529-6.561,102.663a12.184,12.184,0,0,0,10.221,0s22.954-65.624,6.362-126.806Z" transform="translate(-844.5 -545.543)"/></g><g transform="translate(18.084 104.803)"><path class="q" d="M810.876,571.6c.776-1,1.24-5.934,1.24-5.934l2.475-.713a30.387,30.387,0,0,0,.347,7.583l-2.806.966Z" transform="translate(-810.876 -564.957)"/></g><g transform="translate(99.453 68.573)"><path class="q" d="M980.322,491.626c-.437,1.346-4.752,5.282-4.752,5.282l.9,2.729a33.9,33.9,0,0,1,7.2-4.448L982.8,492Z" transform="translate(-975.57 -491.626)"/></g><g transform="translate(48.618 34.066)"><path class="q" d="M884.517,425.718s-.009,8.574,1.644,11.4-1.012,5.577-1.183,5.895-7.644-1.011-7.644-1.463-2.372-7.1-2.372-7.1,1.309-2.881-1.953-10.34C870.364,418.061,884.517,425.718,884.517,425.718Z" transform="translate(-872.679 -421.782)"/></g><g class="s" transform="translate(48.618 34.066)"><path class="q" d="M884.671,429.727c-.156-2.215-.154-4.008-.154-4.008s-14.152-7.657-11.509-1.612c.431.986.78,1.889,1.065,2.719A14.525,14.525,0,0,0,884.671,429.727Z" transform="translate(-872.679 -421.782)"/></g><g transform="translate(40.649 9.581)"><path class="q" d="M880.644,374.711s3.631,4.841,4.438,14.838l-2.471.7s1.024,9.917-4.622,11.8-12.222.479-15.19-6.318a93.24,93.24,0,0,0-6.249-11.885s5.989-7.378,6.252-7.542,9.5-4.08,9.5-4.08Z" transform="translate(-856.548 -372.224)"/></g><g transform="translate(37.109)"><path class="i" d="M865.247,366.123s14.2,9.7,18.439-5.186-14.347-5.12-18.539-2.995-14.207-.281-15.63,12.311,8.99,12.412,11.3,19.315c0,0,2.283-.926-.3-7.207-3.308-8.049-.794-2.442-.794-2.442S866.261,372.914,865.247,366.123Z" transform="translate(-849.384 -352.832)"/></g><g transform="translate(15.748 46.133)"><path class="f" d="M892.506,470.157s3.674,1.211,2.958,5.8c0,0-2.229,4.819-10.59,10.567-23.9,16.429-19.971-19.19-20.091-15.325s-.962,30.916-.962,30.916-15.092,8.475-39.948,3.358c0,0,4.927-27.621,5.729-37.69a52.01,52.01,0,0,0-4.989,7.527c-8.858,15.6-11.886,33.62-11.886,33.62s-2.678,1.349-4.542.723c0,0-5.7-15.155,1.971-37.408,4.856-14.09,21.255-23.876,28.546-23.391l2.72-2.645,7.178,9.486,4.6-.663-1.651-8.508s6.7.969,10.885,1.888c5.87,1.289,9.493,29.7,16,28.25C883.746,475.478,892.506,470.157,892.506,470.157Z" transform="translate(-806.148 -446.206)"/></g><g transform="translate(56.092 88.513)"><path class="t" d="M890.125,533.181a1.16,1.16,0,1,0-1.2,1.123A1.16,1.16,0,0,0,890.125,533.181Z" transform="translate(-887.806 -531.985)"/></g><g transform="translate(55.261 96.568)"><path class="t" d="M888.443,549.484a1.16,1.16,0,1,0-1.2,1.123A1.16,1.16,0,0,0,888.443,549.484Z" transform="translate(-886.124 -548.288)"/></g><g transform="translate(44.832 23.757)"><path class="q" d="M868.91,402.568s-2.182-3.052-3.54-.859,1.454,8.488,3.7,5.463Z" transform="translate(-865.015 -400.916)"/></g><g transform="translate(0 117.621)"><g transform="translate(13.06)"><path class="r" d="M816.621,599.428l-15.326.78a.558.558,0,0,1-.577-.664l1.468-7.6a.559.559,0,0,1,.52-.452l11.626-.591a.559.559,0,0,1,.563.4l2.232,7.412A.559.559,0,0,1,816.621,599.428Zm-13.271-1.006,11.046-.562a.558.558,0,0,0,.506-.718l-1.235-4.1a.558.558,0,0,0-.563-.4l-9,.457a.559.559,0,0,0-.52.452l-.812,4.205A.558.558,0,0,0,803.35,598.422Z" transform="translate(-800.708 -590.9)"/></g><g transform="translate(0 3.936)"><path class="v" d="M814.728,598.869l-38.695,1.969a1.853,1.853,0,0,0-1.757,1.945l1.191,23.4a1.853,1.853,0,0,0,1.945,1.757l38.695-1.968a1.854,1.854,0,0,0,1.757-1.945l-1.191-23.4A1.853,1.853,0,0,0,814.728,598.869Z" transform="translate(-774.274 -598.866)"/></g><g transform="translate(0.005 3.941)"><path class="w" d="M814.637,598.878l-38.5,1.959a1.949,1.949,0,0,0-1.848,2.046l.36,7.065a3.883,3.883,0,0,0,4.076,3.681l34.639-1.762a3.884,3.884,0,0,0,3.681-4.076l-.359-7.065A1.949,1.949,0,0,0,814.637,598.878Z" transform="translate(-774.284 -598.876)"/></g><g transform="translate(19.122 16.049)"><rect class="x" width="5.12" height="3.273" rx="1.637" transform="translate(0 0.26) rotate(-2.912)"/></g></g><g transform="translate(15.878 110.908)"><path class="q" d="M812.765,577.982c1.164,1.322.872,1.743,1.632,2.562,1.3,1.4,3.636,2.639,3.6,3.449s-1.378.451-2.168.142c-1.115-.436-1.634-1.2-1.875-1s.079,1.959.383,3.358c.316,1.453-1,2.354-1.452.8-.313-1.07-.626-1.276-.736-1.312a5.343,5.343,0,0,0,.054,1.647c.169,1.4-1.479,1.579-1.523.059,0,0-.141-1.615-.415-1.565-.38.069-.239.859-.315,1.375-.257,1.759-1.936,1.841-1.666-.5.042-.371.288-1.182.088-1.141s-.358.075-.59.71c-.515,1.406-1.934,1.41-1.136-.536.328-.8.39-.87.373-1.375s-.265-4.778,1.224-6.561C809.2,576.95,812.075,577.2,812.765,577.982Z" transform="translate(-806.411 -577.314)"/></g><g transform="translate(45.967 46.133)"><g transform="translate(0 1.799)"><path class="y" d="M871.305,458.675l-3.031,2.1s9.06,19.623,13.96,23.773l-1.063-15.377-2.077-12.185-6.422-7.135-3.025.845-2.333,7.858Z" transform="translate(-867.313 -449.848)"/></g><g transform="translate(14.921 0.915)"><path class="y" d="M901.022,448.057s4.48,3.982,5.385,8.051l-2.855,1.2,2.8.431s-5.117,20.815-8.843,25.9c0,0,1.316-24.329.773-27.612a11.76,11.76,0,0,1,.951-6.332Z" transform="translate(-897.513 -448.057)"/></g><g transform="translate(10.691 9.198)"><path class="t" d="M888.951,466.46s3.6,21,4.23,25.662c0,0,2.055-16.312,2.339-25.458l-3.032-1.841Z" transform="translate(-888.951 -464.823)"/></g><g transform="translate(2.333)"><path class="u" d="M874.756,446.206s7.126,6.184,9.175,9.2c0,0-1.113,5.194-1.5,5.268s-8.855-7.884-10.393-11.821A26.547,26.547,0,0,1,874.756,446.206Z" transform="translate(-872.036 -446.206)"/></g><g transform="translate(14.228 0.253)"><path class="u" d="M897.066,446.78s1.036-.347,3.247.6c0,0,1.276,4.742-1.075,13.562a56.165,56.165,0,0,1-3.126-5.279C896.16,455.306,896.933,449.527,897.066,446.78Z" transform="translate(-896.111 -446.718)"/></g></g><g transform="translate(104.047 57.33)"><path class="q" d="M984.991,478.306c.9-2.077,1.554-1.967,2.093-3.3.923-2.28,1.089-5.676,2.05-6.078s1.277,1.359,1.349,2.448c.1,1.537-.509,2.561-.139,2.728s2-.571,3.59-1.5c1.472-.856,2.857.325,1.57,1.163-.936.61-.7.818-.331.654,1.92-.841,3.493.716,1.005,1.925-.913.444-.54.538.1.343,2.19-.661,3.649.757.814,1.844-.953.365-.525.595.044.43,1.592-.461,2.33.812.138,1.728,0,0-.636.276-1.215.572s-5.587,3-8.476,2.243C985.735,483.022,984.454,479.537,984.991,478.306Z" transform="translate(-984.868 -468.869)"/></g></g><g transform="translate(290.588 342.128)"><g transform="translate(0 30.845)"><path class="z" d="M586.138,772.084l-3.906-11.329-46.126,15.9a5.992,5.992,0,0,0-3.712,7.617h0a5.992,5.992,0,0,0,7.618,3.712l34.735-11.975.027.077,11.315-3.9-.027-.077Z" transform="translate(-532.065 -760.755)"/></g><g class="aa" transform="translate(51.923 3.669)"><path class="o" d="M669.6,753.35a24.376,24.376,0,1,0-9.627,1.287A24.311,24.311,0,0,0,669.6,753.35Z" transform="translate(-637.159 -705.749)"/></g><g transform="translate(48.254)"><path class="z" d="M631.277,735.634A28.133,28.133,0,1,0,648.7,699.867,28.134,28.134,0,0,0,631.277,735.634Zm8.388,7.179a24.566,24.566,0,1,1,7.493,5.643A24.31,24.31,0,0,1,639.665,742.813Z" transform="translate(-629.733 -698.323)"/></g><g class="ab" transform="translate(54.894 7.792)"><path class="g" d="M645.1,736.47a1.447,1.447,0,0,0,.974-1.411,18.724,18.724,0,0,1,5.427-13.691,18.44,18.44,0,0,1,7.127-4.458,1.447,1.447,0,1,0-.944-2.737,21.542,21.542,0,0,0-14.5,20.972,1.449,1.449,0,0,0,1.919,1.326Z" transform="translate(-643.172 -714.093)"/></g><g class="ab" transform="translate(55.996 33.313)"><path class="g" d="M649.386,772.848a1.45,1.45,0,0,0,.749-2.148,18.715,18.715,0,0,1-1.917-3.973,1.447,1.447,0,1,0-2.737.943,21.617,21.617,0,0,0,2.215,4.588A1.448,1.448,0,0,0,649.386,772.848Z" transform="translate(-645.401 -765.75)"/></g></g><g transform="translate(159.349 239.227)"><path class="ac" d="M247.628,501.9a5.571,5.571,0,0,0-6.074-7.366,8.373,8.373,0,0,0-6.674,8.428c.188,3.563,3.761,6.942,7.393,5.185,1.8-.869,3.143-2.744,4.283-4.318a26.383,26.383,0,0,0,3.174-5.961l-2.392-.66c-.381,2.125-.852,4.255-1.125,6.4-.2,1.536-.129,3.325,1.087,4.453a3.559,3.559,0,0,0,4.127.324c1.588-.894,2.378-2.68,3.009-4.3,1.325-3.41,1.723-7.588-.241-10.844-1.81-3-5.157-4.452-8.5-4.944-3.716-.546-7.762-.351-11.078,1.551-3.243,1.859-6.7,4.525-7.811,8.221-1.121,3.724-1.3,8.314.471,11.856,1.612,3.221,4.8,5.262,8.1,6.442,8.714,3.114,19.32,1.252,25.047-6.37.959-1.277-1.194-2.515-2.142-1.252-3.949,5.256-10.72,7.111-17.039,6.408-5.85-.65-12.24-3.462-12.727-10.089-.216-2.954.132-6.821,2.207-9.1a17.871,17.871,0,0,1,7.314-4.924c4.7-1.388,12.765-.676,14.619,4.749,1,2.932.191,6.784-1.445,9.362-.463.731-1.767,1.992-2.464.717a3.865,3.865,0,0,1-.064-2.086c.261-1.977.7-3.947,1.051-5.91a1.242,1.242,0,0,0-2.392-.66,23.213,23.213,0,0,1-4.067,6.8c-.748.861-1.646,2.031-2.876,2.1a2.91,2.91,0,0,1-2.719-1.866c-1.053-2.432.449-5.326,2.585-6.611,2.716-1.633,6.091.247,4.975,3.607-.5,1.519,1.891,2.17,2.392.66Z" transform="translate(-225.952 -488.025)"/></g><g transform="translate(691.664 128.906)"><g transform="translate(0)"><path class="m" d="M1338.145,273.213c3.409-.088,44.415-13.482,45.194-13.874,0,0-9.271-34-10.342-35.088,0,0-44.873,10.769-45.321,11.415S1338.145,273.213,1338.145,273.213Z" transform="translate(-1327.663 -224.251)"/></g><g transform="translate(14.957 18.694)"><path class="g" d="M1363.242,280.8c1.547,1.829,19.068-16.419,18.693-17.165s-23.274-1.687-23.943-1.525S1362.791,280.263,1363.242,280.8Z" transform="translate(-1357.936 -262.089)"/></g></g><g transform="translate(615.623 32.189)"><g transform="translate(0)"><circle class="z" cx="19.974" cy="19.974" r="19.974" transform="translate(0 28.248) rotate(-45)"/></g><g transform="translate(16.55 28.787)"><path class="g" d="M1084.818,167.128c.1-.754,1.594-13.052,11.026-16.283l5.657.729s11.661,6.7,11.971,10.8-4.414,7.043-4.414,7.043-14.939,4.7-15.388,4.537-8.038-4.145-8.395-4.764A6.574,6.574,0,0,1,1084.818,167.128Z" transform="translate(-1084.818 -150.845)"/></g><g transform="translate(21.423 16.482)"><path class="g" d="M1098.359,123.038a7.65,7.65,0,0,1,10.92-.18c4.871,4.517,1.793,13.054-4.628,12.512C1099.737,134.954,1093.927,129.959,1098.359,123.038Z" transform="translate(-1096.781 -120.639)"/></g><g transform="translate(7.169 6.027)"><path class="l" d="M1084.623,94.976c-13.52-.133-25.981,8.45-22.122,31.294a48.625,48.625,0,0,0,21.353,32.824s20.072-18.21,20.758-34.551S1098.143,95.109,1084.623,94.976Zm-1.916,40.241c-12.56-.1-17.011-9.574-16.636-20.017.249-6.927,3.393-13.595,14.507-16.16,1.693-.391,17.017-1.3,19.911,13.426S1095.267,135.315,1082.707,135.216Z" transform="translate(-1061.789 -94.974)"/></g></g><g transform="translate(119.101 142.955)"><path class="g" d="M321.624,317.577s-3.867-5.928-4.451-9.024-.324-7.031-1.958-7.023-4.2,2.882-4.04,5.556,1.9,6.429.562,6.3-12.1-3.962-13.157-3.334-2.2,3.075-.545,4.021c0,0-3.065,2.54-.746,5.022,0,0-2.371,2.294-.1,4.554,0,0-2.485,2.95,4.154,5.211s16.285,4.495,16.285,4.495Z" transform="translate(-296.204 -301.53)"/><g transform="translate(19.524 12.114)"><path class="z" d="M388.14,379.153l-10.053-4.1,5.755-22.712s8.94,2.966,10.247,3.336C394.089,355.673,390.322,374.841,388.14,379.153Z" transform="translate(-378.087 -352.337)"/></g><g transform="translate(26.529 14.796)"><path class="g" d="M407.969,386.681l-.5-.212c5.95-14.158,6.7-22.8,6.71-22.887l.544.044C414.713,363.712,413.956,372.432,407.969,386.681Z" transform="translate(-407.465 -363.582)"/></g></g></g></svg>