<svg xmlns="http://www.w3.org/2000/svg" xmlns:xlink="http://www.w3.org/1999/xlink" width="852.741" height="441.441" viewBox="0 0 852.741 441.441"><defs><style>.a,.t,.y{isolation:isolate;}.b,.w{fill:#fff;}.b{opacity:0.2;}.c{opacity:0.14;}.d{fill:url(#a);}.e{fill:url(#b);}.f{fill:url(#c);}.g{fill:#f8b500;}.h{fill:#f89900;}.i{fill:#393e46;}.j{fill:#2c2e36;}.k{fill:#fff8eb;}.l{fill:#fc3c3c;}.m{fill:#00adb5;}.n{fill:#939598;}.o{fill:#a7a9ac;}.p{fill:#808285;}.q{fill:#fff4e0;}.r{fill:#30333b;}.s{fill:#545d69;}.t{mix-blend-mode:screen;}.u{fill:#17191c;}.v{fill:#d1d3d4;opacity:0.27;}.x{fill:#f7d5a0;}.y{mix-blend-mode:multiply;}.z{fill:#e6e7e8;}.aa{fill:#008f96;}.ab{fill:#de3535;}</style><linearGradient id="a" x1="0.5" y1="-11.553" x2="0.5" y2="1.36" gradientUnits="objectBoundingBox"><stop offset="0" stop-color="#e6e7e8"/><stop offset="1" stop-color="#d8d8d9"/></linearGradient><linearGradient id="b" x1="0.5" y1="-11.257" x2="0.5" y2="2.158" xlink:href="#a"/><linearGradient id="c" x1="0.5" y1="0.15" x2="0.5" y2="13.459" xlink:href="#a"/></defs><g transform="translate(-114.066 -109.397)"><g transform="translate(114.066 109.397)"><g class="a" transform="translate(0 11.411)"><path class="b" d="M935.7,391.87s77.279-206.251-33.9-250.238c-88.819-35.139-165.969,50.337-228.971,41.338-25.63-3.661-49.414-38.181-97.885-43.553C498.894,130.988,460.863,185.9,395.921,171.5c-78.026-17.3-144.367-49.162-212.432,1.4C86.631,244.852,163.495,409.62,163.495,409.62s-78.537,47.226-37.618,97.032c64.916,79.014,223.576,9.641,301.4,2.434s80.965,62.129,234.61,38.2,141.105-68.16,224.7-57.029C970.926,501.488,991.241,423.673,935.7,391.87Z" transform="translate(-114.066 -133.11)"/></g><g class="c" transform="translate(283.694 407.822)"><path class="d" d="M701.283,929.819c29.661-8.034,58.712-.039,63.546,15.467S727,963.208,696.284,957.329C675.2,953.294,678.092,936.1,701.283,929.819Z" transform="translate(-682.05 -926.649)"/></g><g class="c" transform="translate(726.091 383.71)"><path class="e" d="M1576.292,877.77c9.68-3.386,20.323.082,24.131,12.3s-8.953,20.353-19.968,18.6C1563.756,906,1558.424,884.02,1576.292,877.77Z" transform="translate(-1565.17 -876.543)"/></g><g class="c" transform="translate(280.975)"><path class="f" d="M691.21,112.369c13.874-5.262,30.774-3.958,39.328,7.328s-8.9,21.844-25.966,22.3C678.691,142.689,665.6,122.081,691.21,112.369Z" transform="translate(-677.357 -109.397)"/></g></g><g transform="translate(794.33 113.694)"><g transform="translate(18.625)"><path class="g" d="M1596.058,174.7c-2.189-26.5-11.676-60.12-46.188-56.03-56.128,6.651-38.654,83.171-38.654,83.171h2.647l7.942,5.552s-5.295-78.959,30.835-77.37c20.859.917,28.534,25.8,31.3,46.674Z" transform="translate(-1508.643 -118.327)"/></g><g transform="translate(0 77.528)"><g transform="translate(20.12)"><path class="h" d="M1523.148,279.437h-11.4c.567,3.744,1.078,5.983,1.078,5.983h2.648l2.549,1.782h5.221l0,0C1523.184,285.228,1523.131,282.572,1523.148,279.437Z" transform="translate(-1511.749 -279.437)"/></g><g transform="translate(0 1.647)"><path class="g" d="M1469.938,379.385l5.849-94.261,117.54-2.264,10.236,96.525Z" transform="translate(-1469.938 -282.86)"/></g><g transform="translate(48.869 19.422)"><g transform="translate(1.773)"><circle class="i" cx="13.155" cy="13.155" r="13.155"/></g><g transform="translate(0 18.85)"><path class="i" d="M1582.814,361.452l-11.323,34.488h32.71l-13.51-36.971h-7.877Z" transform="translate(-1571.492 -358.969)"/></g><g transform="translate(9.805 0.434)"><path class="j" d="M1600.35,320.7a13.157,13.157,0,1,0,9.8,12.721A13.158,13.158,0,0,0,1600.35,320.7Z" transform="translate(-1591.868 -320.7)"/></g><g transform="translate(12.592 18.85)"><path class="j" d="M1602.886,363.464l-5.227,32.475h20.118l-13.51-36.971Z" transform="translate(-1597.659 -358.969)"/></g></g><g transform="translate(0 1.647)"><path class="h" d="M1586.441,282.86s14.03,74.134-30.178,83.8-85.547.169-85.547.169l-.778,12.552h133.624l-10.236-96.525Z" transform="translate(-1469.938 -282.86)"/></g></g></g><g transform="translate(260.741 353.408)"><path class="k" d="M431.037,639.518s-18.294-3.324-22.645,6.121,16.338,14.052,16.338,14.052-16.19,3.811-9.549,12.508,34.84.178,48.188-8.95,29.665-28.157,20.215-35.182S462.1,639.551,462.1,639.551s7.55-21.577-15.609-39.333C424.725,583.533,408.588,615.631,431.037,639.518Z" transform="translate(-407.791 -595.599)"/><g transform="translate(29.92 16.679)"><path class="i" d="M488.329,701.526a281.38,281.38,0,0,0-18.362-70.463l1.825-.8a283.668,283.668,0,0,1,18.517,71.021Z" transform="translate(-469.967 -630.259)"/></g><g transform="translate(16.076 51.465)"><path class="i" d="M465.5,710.527c-14.427,0-23.879-6.029-24.3-6.306l1.087-1.674a47.189,47.189,0,0,0,26.7,5.863l.139,1.989Q467.267,710.53,465.5,710.527Z" transform="translate(-441.197 -702.548)"/></g><g transform="translate(45.094 46.11)"><path class="i" d="M502.534,712.045l-1.035-1.7c14.87-9.025,19.916-18.823,19.965-18.921l1.784.893C523.039,692.731,517.939,702.695,502.534,712.045Z" transform="translate(-501.499 -691.419)"/></g></g><g transform="translate(723.387 250.227)"><path class="l" d="M1345.84,491.933s-8.54-7.117-11.554-.754,2.009,46.551,24.783,46.551,58.607-34.83,50.57-42.2-20.429.67-20.429.67,47.556-43.537,32.485-52.914-32.82,12.726-32.82,12.726,38.848-57.937,25.787-68.654-40.188,21.1-44.542,46.216c0,0-3.014-20.094-15.74-15.74S1337.3,467.318,1345.84,491.933Z" transform="translate(-1333.494 -385.225)"/><g transform="translate(21.568 16.389)"><path class="i" d="M1379.149,591.306a296.255,296.255,0,0,1,3.569-73.532,257.974,257.974,0,0,1,15.721-53.924c12.041-28.854,25.275-44.413,25.407-44.567l1.512,1.3c-.13.152-13.2,15.529-25.115,44.122-11,26.383-23.239,69.738-19.1,126.456Z" transform="translate(-1378.314 -419.282)"/></g><g transform="translate(25.501 72.054)"><path class="i" d="M1388.022,582.62l-1.535-1.274c18.182-21.888,45.439-46.144,45.712-46.386l1.324,1.492C1433.251,536.693,1406.106,560.852,1388.022,582.62Z" transform="translate(-1386.487 -534.96)"/></g><g transform="translate(23.446 120.804)"><path class="i" d="M1382.588,656.785l-.372-1.96c16.817-3.195,33.013-18.406,33.174-18.559l1.374,1.448C1416.087,638.356,1399.989,653.48,1382.588,656.785Z" transform="translate(-1382.216 -636.267)"/></g><g transform="translate(8.353 122.622)"><path class="i" d="M1365.189,663.388c-11.394-7.921-14.224-22.363-14.338-22.974l1.96-.369c.026.142,2.806,14.259,13.517,21.705Z" transform="translate(-1350.851 -640.045)"/></g><g transform="translate(21.094 48.863)"><path class="i" d="M1384.262,543.573c-9.342-17.392-6.583-55.206-6.461-56.807l1.989.152c-.029.386-2.837,38.833,6.23,55.712Z" transform="translate(-1377.329 -486.766)"/></g></g><g transform="translate(188.108 186.737)"><g transform="translate(19.415)"><path class="g" d="M308.278,304.7c1.4-19.652,8.135-44.639,33.739-41.9,41.639,4.447,29.348,61.286,29.348,61.286l-1.961.023-5.837,4.181s3.247-58.541-23.505-57.055c-15.446.858-20.919,19.36-22.786,34.846Z" transform="translate(-308.278 -262.588)"/></g><g transform="translate(0 57.05)"><g transform="translate(74.797)"><path class="h" d="M423.374,381.241l8.445-.1c-.388,2.779-.747,4.442-.747,4.442l-1.961.023-1.873,1.342-3.867.045,0,0C423.4,385.532,423.414,383.564,423.374,381.241Z" transform="translate(-423.367 -381.144)"/></g><g transform="translate(0 2.104)"><path class="g" d="M366.927,455.97l-5.139-69.782-87.1-.672-6.758,71.6Z" transform="translate(-267.932 -385.515)"/></g><g transform="translate(36.853 11.632)"><g transform="translate(0 0)"><circle class="i" cx="9.747" cy="9.747" r="9.747" transform="matrix(0.417, -0.909, 0.909, 0.417, 0, 17.717)"/></g><g transform="translate(0.958 17.064)"><path class="i" d="M355.626,442.615l-9.121,25.3,24.225.7-9.217-27.668-5.833-.168Z" transform="translate(-346.505 -440.777)"/></g><g transform="translate(9.134 3.574)"><path class="j" d="M370.045,412.744a9.748,9.748,0,0,0,.439,18.556,9.748,9.748,0,0,0-.439-18.556Z" transform="translate(-363.496 -412.744)"/></g><g transform="translate(10.283 17.232)"><path class="j" d="M370.448,444.426l-4.564,23.939,14.9.429-9.217-27.668Z" transform="translate(-365.884 -441.126)"/></g></g><g transform="translate(0 2.748)"><path class="h" d="M361.787,386.882l-3.529-.027c.634,7.96.249,52.881-26.884,59.961-41.077,10.718-62.787,4.039-62.787,4.039l-.656,6.953,98.995-1.143Z" transform="translate(-267.932 -386.855)"/></g></g></g><g transform="translate(758.592 328.656)"><path class="m" d="M1426.487,571.624s.032-11.992-10.707-4.664-36.141,54.6-5.5,73.082c29.03,17.507,71.815-27.426,64.834-34.923-6.285-6.749-20.061-1.044-20.061-1.044s23.1-19.606,15.559-27.98-20.709,6.05-20.709,6.05,24.867-30.284,14.548-36.582S1435.9,558.912,1426.487,571.624Z" transform="translate(-1395.671 -544.349)"/><g transform="translate(8.901 21.101)"><path class="i" d="M1416.148,688.051l-1.979-.248a204.794,204.794,0,0,1,23.885-72.427c9.469-17.153,18.149-27.078,18.235-27.176l1.5,1.319c-.086.1-8.648,9.9-18.017,26.876A202.788,202.788,0,0,0,1416.148,688.051Z" transform="translate(-1414.169 -588.2)"/></g><g transform="translate(24.821 46.278)"><path class="i" d="M1447.878,661.226l-.627-1.894c17.015-5.63,33.166-18.682,33.327-18.813l1.26,1.547C1481.673,642.2,1465.237,655.482,1447.878,661.226Z" transform="translate(-1447.251 -640.519)"/></g><g transform="translate(18.847 71.581)"><path class="i" d="M1435.017,705.151l-.181-1.987c20.655-1.878,39.626-9.98,39.816-10.062l.79,1.832C1475.25,695.016,1456,703.242,1435.017,705.151Z" transform="translate(-1434.836 -693.102)"/></g><g transform="translate(12.036 41.315)"><path class="i" d="M1424.247,678.318c-8.915-23.653,1.69-47.87,1.8-48.112l1.821.814c-.1.234-10.371,23.727-1.752,46.594Z" transform="translate(-1420.683 -630.206)"/></g></g><g transform="translate(295.12 153.657)"><g transform="translate(0 0)"><g transform="translate(0 269.89)"><path class="n" d="M461.424,789.369s2.244,10.819,11.848,14.02,451.858.457,461-2.744,8.49-11.276,8.49-11.276l-98.13-24.4-167.389-2.744Z" transform="translate(-461.424 -762.228)"/></g><g transform="translate(57.991)"><path class="n" d="M581.935,205.489l3.117,228.433L948.015,440.1l-4.249-238.723Z" transform="translate(-581.935 -201.373)"/></g><g transform="translate(0 232.549)"><path class="o" d="M461.424,749.112l61.109-64.482L885.5,690.8l57.272,58.309Z" transform="translate(-461.424 -684.63)"/></g><g transform="translate(69.931 11.947)"><path class="i" d="M606.747,229.858v206.72l340.722,4.574V226.2Z" transform="translate(-606.747 -226.199)"/></g><g transform="translate(55.986 247.622)"><g transform="translate(171.81 1.793)"><path class="p" d="M956.488,729.135l-.919-9.341L934.8,719.68l.9,9.422Z" transform="translate(-934.804 -719.68)"/></g><g transform="translate(132.597 1.34)"><path class="p" d="M885.007,728.534l.493-9.449-28.632-.348-3.552,9.485Z" transform="translate(-853.316 -718.736)"/></g><g transform="translate(93.717 0.894)"><path class="p" d="M801.449,727.741l4.107-9.578-28.994-.352-4.042,9.7Z" transform="translate(-772.521 -717.81)"/></g><g transform="translate(199.24 2.127)"><path class="p" d="M1016.869,730.465l-3.069-9.826-21.995-.267,1.922,9.787Z" transform="translate(-991.806 -720.372)"/></g><g transform="translate(230.731 2.893)"><path class="p" d="M1088.309,731.368l-6-9.15-25.06-.254,3.437,9.188Z" transform="translate(-1057.248 -721.965)"/></g><g transform="translate(58.699 0.479)"><path class="p" d="M727.093,727.007l5.717-9.717-28.154-.342-4.906,9.845Z" transform="translate(-699.75 -716.948)"/></g><g transform="translate(265.623 3.447)"><path class="p" d="M1167.647,731.966l-9.952-8.85h-27.938l7.763,8.563Z" transform="translate(-1129.757 -723.116)"/></g><g transform="translate(13.132)"><path class="p" d="M616.1,715.953l-11.047,9.968,33.69.264,8.524-9.853Z" transform="translate(-605.057 -715.953)"/></g><g transform="translate(305.792 3.447)"><path class="p" d="M1255.848,732.265,1245.6,723.44l-32.374-.324,7.914,8.773Z" transform="translate(-1213.23 -723.116)"/></g><g transform="translate(88.126 13.47)"><path class="p" d="M765.3,743.944,760.9,754.5l28.7.373,4.537-10.581Z" transform="translate(-760.901 -743.944)"/></g><g transform="translate(127.736 13.932)"><path class="p" d="M846.833,744.9l-3.619,10.463,34.133.584.557-10.677Z" transform="translate(-843.214 -744.904)"/></g><g transform="translate(234.777 15.172)"><path class="p" d="M1065.656,747.481l4.136,10.818,34.385.376-8.994-11.193Z" transform="translate(-1065.656 -747.481)"/></g><g transform="translate(202 15.172)"><path class="p" d="M997.543,747.481l2.818,10.364,25.388.32-5.064-10.684Z" transform="translate(-997.543 -747.481)"/></g><g transform="translate(0 12.5)"><path class="p" d="M588.758,741.929l-10.99,10.378,35.482.461,9.032-10.44Z" transform="translate(-577.768 -741.929)"/></g><g transform="translate(275.632 15.658)"><path class="p" d="M1150.556,748.491l12.181,10.9,30.086.2-12.79-10.933Z" transform="translate(-1150.556 -748.491)"/></g><g transform="translate(317.805 16.188)"><path class="p" d="M1284.065,760.875l-12.746-10.953-33.123-.329,11.327,11Z" transform="translate(-1238.195 -749.592)"/></g><g transform="translate(173.017 14.427)"><path class="p" d="M937.313,745.934l1.024,10.709,22.738.134-1.056-10.731Z" transform="translate(-937.313 -745.934)"/></g><g transform="translate(52.106 13.051)"><path class="p" d="M691.282,743.074l-5.234,10.5,26.08.339,6.189-10.52Z" transform="translate(-686.048 -743.074)"/></g></g></g><g transform="translate(150.172 30.007)"><rect class="l" width="112.046" height="5.398"/><g transform="translate(11.195 10.819)"><path class="q" d="M796.759,286.213v5.915l92.613,1.439.915-4.855Z" transform="translate(-796.759 -286.213)"/></g><g transform="translate(11.195 20.824)"><path class="m" d="M796.759,307v4.727h74.619l-1.26-3.6Z" transform="translate(-796.759 -307.004)"/></g><g transform="translate(11.195 29.294)"><path class="q" d="M796.759,324.606v3.667l114.414.722-.295-3.273Z" transform="translate(-796.759 -324.606)"/></g><g transform="translate(11.195 37.282)"><path class="h" d="M796.759,341.2v4.1l62.383.9v-4.522Z" transform="translate(-796.759 -341.204)"/></g><g transform="translate(2.685 45.705)"><path class="h" d="M779.075,358.708v4.5l138.29,1.62v-5.218Z" transform="translate(-779.075 -358.708)"/></g></g><g transform="translate(150.172 93.991)"><rect class="l" width="112.046" height="5.398"/><g transform="translate(11.195 10.819)"><path class="m" d="M796.759,419.178v5.915l92.613,1.44.915-4.855Z" transform="translate(-796.759 -419.178)"/></g><g transform="translate(11.195 20.824)"><path class="q" d="M796.759,439.969V444.7h74.619l-1.26-3.6Z" transform="translate(-796.759 -439.969)"/></g><g transform="translate(11.195 29.294)"><path class="l" d="M796.759,457.57v3.667l114.414.722-.295-3.273Z" transform="translate(-796.759 -457.57)"/></g><g transform="translate(11.195 37.282)"><path class="m" d="M796.759,474.169v4.1l62.383.9v-4.522Z" transform="translate(-796.759 -474.169)"/></g><g transform="translate(2.685 45.705)"><path class="q" d="M779.075,491.673v4.5l138.29,1.619v-5.218Z" transform="translate(-779.075 -491.673)"/></g></g><g transform="translate(150.172 157.017)"><rect class="q" width="112.046" height="5.398"/><g transform="translate(11.195 10.819)"><path class="l" d="M796.759,550.152v5.915l92.613,1.439.915-4.855Z" transform="translate(-796.759 -550.152)"/></g><g transform="translate(11.195 20.824)"><path class="m" d="M796.759,570.943v4.727h74.619l-1.26-3.6Z" transform="translate(-796.759 -570.943)"/></g><g transform="translate(11.195 29.294)"><path class="h" d="M796.759,588.544v3.667l114.414.722-.295-3.273Z" transform="translate(-796.759 -588.544)"/></g><g transform="translate(11.195 37.282)"><path class="q" d="M796.759,605.143v4.1l62.383.9v-4.521Z" transform="translate(-796.759 -605.143)"/></g><g transform="translate(2.685 45.705)"><path class="m" d="M779.075,622.646v4.5l138.29,1.62v-5.218Z" transform="translate(-779.075 -622.646)"/></g></g><g transform="translate(69.931 14.901)"><path class="r" d="M672.352,232.339l4.825,208.37-70.43-.945V233.043Z" transform="translate(-606.747 -232.339)"/></g><g transform="translate(81.941 29.939)"><g transform="translate(0.397)"><rect class="s" width="37.603" height="4.576"/></g><g transform="translate(5.293 7.463)"><path class="s" d="M642.7,279.1v5.014l31.081,1.22.307-4.115Z" transform="translate(-642.704 -279.098)"/></g><g transform="translate(0 15.944)"><path class="s" d="M631.7,296.724v4.007h38.242l-.646-3.051Z" transform="translate(-631.704 -296.724)"/></g><g transform="translate(0 23.125)"><path class="s" d="M631.7,311.645v3.108l38.4.612-.1-2.774Z" transform="translate(-631.704 -311.645)"/></g><g transform="translate(12.25 29.896)"><path class="s" d="M657.162,325.716V329.2l23.205.763v-3.833Z" transform="translate(-657.162 -325.716)"/></g><g transform="translate(0 35.928)"><path class="s" d="M631.7,338.252v3.814l46.411,1.373v-4.424Z" transform="translate(-631.704 -338.252)"/></g></g><g transform="translate(81.941 84.253)"><g transform="translate(0.397)"><rect class="s" width="37.603" height="4.576"/></g><g transform="translate(6.612 7.463)"><path class="s" d="M645.445,391.966v5.014l31.081,1.22.307-4.115Z" transform="translate(-645.445 -391.966)"/></g><g transform="translate(0 15.944)"><path class="s" d="M631.7,409.592V413.6h38.242l-.646-3.051Z" transform="translate(-631.704 -409.592)"/></g><g transform="translate(0 23.125)"><path class="s" d="M631.7,424.513v3.108l38.4.612-.1-2.774Z" transform="translate(-631.704 -424.513)"/></g><g transform="translate(6.612 29.896)"><path class="s" d="M645.445,438.585v3.479l23.205.763v-3.833Z" transform="translate(-645.445 -438.585)"/></g><g transform="translate(0 35.928)"><path class="s" d="M631.7,451.12v3.814l46.411,1.373v-4.424Z" transform="translate(-631.704 -451.12)"/></g></g><g class="t" transform="translate(101.14 12.16)"><path class="u" d="M869.352,227.629,671.6,437.227l134.846,1.81,154.81-212.395Z" transform="translate(-671.601 -226.643)"/></g></g><ellipse class="v" cx="58.796" cy="5.39" rx="58.796" ry="5.39" transform="translate(810.362 439.916)"/><ellipse class="v" cx="39.787" cy="5.021" rx="39.787" ry="5.021" transform="translate(197.818 445.857)"/><g transform="translate(607.058 122.597)"><g transform="translate(0 0)"><path class="g" d="M1156.768,137.052c29.693-1.9,81.242,7.9,91.143,39.364,15.035,47.776-96.178,72.2-136.6,33.287C1075.7,175.421,1114.633,139.741,1156.768,137.052Z" transform="translate(-1097.358 -136.827)"/><g transform="translate(0 49.729)"><path class="g" d="M1097.359,296.577c13.276-16.085,20.52-34.851,21.476-56.409l41.975,13.285C1143.385,273.689,1123.04,289.331,1097.359,296.577Z" transform="translate(-1097.359 -240.168)"/></g></g><g transform="translate(23.437 19.091)"><g transform="translate(15.604)"><path class="w" d="M1188.819,176.5c-6.082,0-10.329,4.748-10.329,11.547,0,6.589,4.125,11.191,10.033,11.191,5.142,0,10.33-3.58,10.33-11.577C1198.852,181.088,1194.727,176.5,1188.819,176.5Zm5.229,11.28c0,3.622-1.663,7.277-5.377,7.277-3.674,0-5.347-3.664-5.347-7.069,0-3.371,1.408-7.307,5.376-7.307C1192.375,180.68,1194.048,184.36,1194.048,187.779Z" transform="translate(-1178.49 -176.499)"/></g><g transform="translate(38.138 0.178)"><path class="w" d="M1237.618,178.8c-1.422-1.28-3.543-1.929-6.3-1.929a31.33,31.33,0,0,0-5.129.4l-.866.144V199.1h4.656v-7.864c.349.021.7.026,1.042.026a9.247,9.247,0,0,0,6.86-2.511,6.9,6.9,0,0,0,1.837-5A6.413,6.413,0,0,0,1237.618,178.8Zm-2.561,5.076c0,2.677-2.165,3.239-3.982,3.239-.419,0-.785-.015-1.1-.046v-6.019c.365-.034.835-.057,1.4-.057C1233.817,180.991,1235.057,181.96,1235.057,183.874Z" transform="translate(-1225.318 -176.869)"/></g><g transform="translate(54.231 0.326)"><path class="w" d="M1263.416,189.88h7.779v-4.211h-7.779v-4.251h8.224v-4.24h-12.88v22.085h13.326v-4.24h-8.67Z" transform="translate(-1258.76 -177.177)"/></g><g transform="translate(69.136 0.326)"><path class="w" d="M1302.321,186.587c0,1.274.01,2.472.041,3.648-.461-.8-.954-1.614-1.483-2.451l-6.719-10.606h-4.427v22.085h4.507v-9.587c0-1.466-.011-2.751-.036-3.94.516.893,1.094,1.849,1.744,2.886l6.658,10.641h4.224V177.177h-4.508Z" transform="translate(-1289.733 -177.177)"/></g><g transform="translate(0 24.362)"><path class="w" d="M1154.658,236.191c-2.82-1.092-3.316-1.8-3.316-2.894,0-.905.716-1.962,2.734-1.962a6.9,6.9,0,0,1,3.3.824l1.083.59,1.382-4.088-.745-.422a9.987,9.987,0,0,0-4.935-1.115c-4.351,0-7.509,2.721-7.509,6.47,0,3.048,1.954,5.222,5.949,6.638,2.612,1,3.107,1.833,3.107,3.011,0,1.489-1.178,2.378-3.15,2.378a8.137,8.137,0,0,1-4.089-1.152l-1.147-.706-1.263,4.192.639.426a11.363,11.363,0,0,0,5.682,1.451c5.557,0,8.043-3.413,8.043-6.8C1160.427,238.967,1157.51,237.293,1154.658,236.191Z" transform="translate(-1146.063 -227.125)"/></g><g transform="translate(15.822 24.362)"><path class="w" d="M1189.272,227.125c-6.082,0-10.33,4.749-10.33,11.547,0,6.589,4.126,11.191,10.033,11.191,5.142,0,10.33-3.58,10.33-11.577C1199.3,231.715,1195.179,227.125,1189.272,227.125Zm5.228,11.28c0,3.622-1.662,7.277-5.376,7.277-3.674,0-5.347-3.665-5.347-7.069,0-3.371,1.408-7.307,5.377-7.307C1192.827,231.306,1194.5,234.986,1194.5,238.405Z" transform="translate(-1178.942 -227.125)"/></g><g transform="translate(38.03 24.689)"><path class="w" d="M1237.237,240.687c0,5.348-2.885,5.348-3.833,5.348-3,0-3.625-2.908-3.625-5.348V227.8h-4.686v12.824c0,6.093,3,9.588,8.222,9.588,5.47,0,8.607-3.538,8.607-9.707V227.8h-4.686Z" transform="translate(-1225.093 -227.804)"/></g><g transform="translate(57.27 24.54)"><path class="w" d="M1278.614,242.969a7.3,7.3,0,0,0-1.9-3.747,6.129,6.129,0,0,0,2.763-5.256,5.969,5.969,0,0,0-1.915-4.569c-1.453-1.315-3.453-1.9-6.486-1.9a27.92,27.92,0,0,0-5.166.436l-.829.169v21.627h4.657v-8.669h1.378c1.642.065,2.469.53,3.017,3.082a23.192,23.192,0,0,0,1.451,5.071l.3.517h5.005l-.823-1.528A35.986,35.986,0,0,1,1278.614,242.969Zm-3.8-8.707c0,1.731-1.3,2.764-3.477,2.764h-1.605v-5.4a14.38,14.38,0,0,1,1.51-.073C1274.815,231.6,1274.815,233.6,1274.815,234.262Z" transform="translate(-1265.076 -227.496)"/></g><g transform="translate(72.738 24.362)"><path class="w" d="M1308.8,231.365a8.252,8.252,0,0,1,3.585.728l1.1.533,1.212-4.1-.756-.395a11.446,11.446,0,0,0-5.23-1.009c-6.764,0-11.488,4.749-11.488,11.547,0,6.78,4.288,11.161,10.924,11.161a13.794,13.794,0,0,0,5.749-1.06l.751-.376-1.065-4.084-1.136.552a9.428,9.428,0,0,1-3.763.727c-4.228,0-6.654-2.555-6.654-7.01C1302.024,234.064,1304.557,231.365,1308.8,231.365Z" transform="translate(-1297.22 -227.125)"/></g><g transform="translate(91.74 24.689)"><path class="w" d="M1341.363,245.648v-5.142h7.779V236.3h-7.779v-4.251h8.224V227.8h-12.881v22.085h13.326v-4.24Z" transform="translate(-1336.706 -227.804)"/></g></g></g><g transform="translate(587.173 334.914)"><g transform="translate(0)"><g transform="translate(25.516 31.038)"><path class="q" d="M1115.9,630.7s6.722-5.5,13.764-7.187a28.06,28.06,0,0,1,13.082.074l7.448-1.766s13.537,2.841,19.878,9.156l.01,13.942s-1.288,11.87-1.474,12.07-6.1,3.442-6.1,3.442l-2.367,7.8-.67,3.688-1.4,10.4-16.288.412-21.965-6.106-6.409-25.2Z" transform="translate(-1113.407 -621.816)"/></g><g transform="translate(2.804 85.303)"><path class="l" d="M1093.667,738.157c-.263-.162-13.02-6.792-21.818-1.578s-4.673,16.967-4.673,16.967l14.371,1.732s18.577-.311,19.675-.74,5.961-10.035,5.961-10.035l-10.426-6.2Z" transform="translate(-1066.209 -734.583)"/></g><g transform="translate(18.522 101.89)"><path class="x" d="M1107.441,769.629a27.632,27.632,0,0,1-8.567-.577l.33,8.79,7.763-.292Z" transform="translate(-1098.874 -769.052)"/></g><g transform="translate(0 94.791)"><path class="g" d="M1063.457,754.591s-6.573,7.25-.5,16.788l18.135-1.26s-2.341-2.951-1.08-8.482C1080.016,761.636,1070.805,752.58,1063.457,754.591Z" transform="translate(-1060.383 -754.299)"/></g><g transform="translate(0 94.793)"><path class="w" d="M1068.132,754.587c-2.989,2.341-6.484,7.338-3.163,16.654l-2.008.14c-6.077-9.538.5-16.788.5-16.788A9.706,9.706,0,0,1,1068.132,754.587Z" transform="translate(-1060.383 -754.304)"/></g><g transform="translate(41.509 26.839)"><path class="x" d="M1166.732,616.6a4.755,4.755,0,0,1,1.758,4.6c-.621,2.85-5.957,12.431-12.45,14.046,0,0-12.034-9.056-8.865-17.057s7.852-4.193,7.852-4.193Z" transform="translate(-1146.643 -613.09)"/></g><g class="y" transform="translate(41.962 26.839)"><path class="x" d="M1147.663,618.188c3.168-8,7.852-4.193,7.852-4.193l11.706,2.6a4.722,4.722,0,0,1,.709.693h0s-1.426,9.114-10.724,10.132C1148.8,628.34,1147.173,619.426,1147.663,618.188Z" transform="translate(-1147.584 -613.09)"/></g><g transform="translate(39.937 9.163)"><path class="x" d="M1165.84,579.048s7.63,22.928-9.9,26.072-11.6-26.034-11.6-26.034l13.347-2.729Z" transform="translate(-1143.375 -576.356)"/></g><g transform="translate(36.356 21.289)"><path class="x" d="M1140.275,603.046a3.255,3.255,0,0,0-3.648-1.32c-2.284.771,1.514,10.651,5.056,9.148S1140.275,603.046,1140.275,603.046Z" transform="translate(-1135.934 -601.556)"/></g><g transform="translate(31.605)"><path class="u" d="M1155.246,570.729s-7.023,12.279-20.853,8.569-6.27-12.26-6.27-12.26,1.4,1.789,2.55,1.746,6.624-12.928,18.849-11.332,8.472,5.464,8.472,5.464,2.544-.7,4.807,2.518,2.406,12.432-2.3,15.025l-2.021-2.158A24.279,24.279,0,0,0,1155.246,570.729Z" transform="translate(-1126.061 -557.315)"/></g><g transform="translate(60.961 20.24)"><path class="x" d="M1189.314,601.068a3.255,3.255,0,0,1,3.538-1.589c2.335.6-.71,10.735-4.354,9.5S1189.314,601.068,1189.314,601.068Z" transform="translate(-1187.066 -599.375)"/></g><g transform="translate(23.917 86.107)"><path class="l" d="M1110.312,751.761s-.7,6.365.363,9.667c0,0,43.057,3.692,60.267-2.266s19.58-13.5,13.2-19.129S1153.115,732.761,1110.312,751.761Z" transform="translate(-1110.084 -736.254)"/></g><g transform="translate(71.395 102.689)"><path class="x" d="M1218.6,770.712s-7.454,8.628-9.848,8.912l9.407-.372,3.126-1.751.334-4.114Z" transform="translate(-1208.749 -770.712)"/></g><g transform="translate(80.803 94.272)"><path class="g" d="M1244.722,753.368s7.1,6.736,1.756,16.7l-18.179.105s2.113-3.119.44-8.54C1228.739,761.637,1237.244,751.915,1244.722,753.368Z" transform="translate(-1228.299 -753.22)"/></g><g transform="translate(92.564 94.273)"><path class="w" d="M1252.74,753.715c3.156,2.11,7.017,6.83,4.405,16.37l2.013-.012c5.343-9.967-1.755-16.7-1.755-16.7A9.712,9.712,0,0,0,1252.74,753.715Z" transform="translate(-1252.74 -753.223)"/></g><g transform="translate(84.549 102.869)"><path class="w" d="M1237.171,778.255a11.225,11.225,0,0,0-.628-7.169l-.46.23a10.9,10.9,0,0,1,.592,6.807Z" transform="translate(-1236.083 -771.086)"/></g><g transform="translate(86.785 101.582)"><path class="w" d="M1242.473,776.8c.047-.194,1.113-4.79-1.316-8.383l-.425.288c2.3,3.4,1.253,7.93,1.242,7.976Z" transform="translate(-1240.731 -768.412)"/></g><g transform="translate(16.926 102.55)"><path class="w" d="M1096.2,777.548l.5-.137c-1.28-4.6-.193-6.721-.181-6.742l-.451-.245C1096.017,770.515,1094.862,772.718,1096.2,777.548Z" transform="translate(-1095.557 -770.424)"/></g><g transform="translate(14.014 101.431)"><path class="w" d="M1090.117,776.426l.484-.171c-1.777-5.007,1.069-7.754,1.1-7.781l-.352-.375C1091.316,768.129,1088.229,771.106,1090.117,776.426Z" transform="translate(-1089.506 -768.099)"/></g></g><g transform="translate(58.556 40.194)"><path class="q" d="M1205.7,640.842s15.466,17.658,19.042,35.323c3.607,17.82-28.722,21.861-41.417,18.2l-1.255-8.387s17.111-7.726,16.824-11.032a21.613,21.613,0,0,0-.759-4.653S1193.2,654.925,1205.7,640.842Z" transform="translate(-1182.067 -640.842)"/></g><g transform="translate(3.57 39.918)"><path class="q" d="M1092.246,640.269s-27.7,25.245-24.124,37.919c3.243,11.485,30.13,18.772,38.4,17.525l0-6.642s-17.852-9.921-16.789-14.235a10.532,10.532,0,0,1,2.411-4.406S1100.781,645.864,1092.246,640.269Z" transform="translate(-1067.803 -640.269)"/></g><g transform="translate(18.386 54.562)"><g transform="translate(8.707 41.095)"><path class="n" d="M1116.685,756.1v.954l12.792-.044v-.9Z" transform="translate(-1116.685 -756.099)"/></g><g transform="translate(43.047 41.119)"><path class="n" d="M1188.047,756.148v.955l12.792-.044v-.9Z" transform="translate(-1188.047 -756.148)"/></g><g transform="translate(0.853 41.858)"><path class="o" d="M1100.91,760.491l63.219.044,0-2.851-63.766.219Z" transform="translate(-1100.364 -757.684)"/></g><path class="z" d="M1100.254,711.811l61.629.042,1.357-40.889-64.648-.265Z" transform="translate(-1098.591 -670.7)"/><g transform="translate(27.797 14.734)"><path class="w" d="M1160.3,701.367c3.653-.344,7.847,1.09,7.955,6.587s-11.081,7.4-11.8,1.154S1159.076,701.483,1160.3,701.367Z" transform="translate(-1156.356 -701.319)"/></g></g></g><g transform="translate(309.604 313.004)"><g transform="translate(59.714 15.903)"><path class="l" d="M629.085,569.547c5.983,1.556,20.081,2.789,28.925-9.5,4.713-6.552,11.639-24.725,11.639-24.725l5.717,1.294s-.613,25.255-10.1,38.122S630.6,592.794,630.6,592.794l-.907-19.529Z" transform="translate(-629.085 -535.318)"/></g><g transform="translate(0 129.792)"><path class="x" d="M523.907,772.968s2.59,3.768-.505,5.212-9.9,5.159-9.595,3.3,2.889-2.889,2.889-2.889-10.008,4.127-9.9,2.786,2.682-2.166,2.682-2.166-4.058,1.651-4.454.825,3.835-1.857,3.835-1.857-2.992.825-2.786,0,4.533-1.651,4.533-1.651-2.47.516-1.747-.412,10.469-3.345,10.469-3.345l3.46-.783Z" transform="translate(-504.994 -771.99)"/></g><g transform="translate(100.063)"><path class="x" d="M714.2,518.411s-1.891-3.965-1.051-5.891a9.5,9.5,0,0,1,3.04-3.393s1.307-7.12,3.1-6.85-.756,6.85-.756,6.85a2.047,2.047,0,0,1,1.548-.172c.825.263.619,1.385.619,1.385a.779.779,0,0,1,1.169-.4c.86.447,0,1.857,0,1.857a.873.873,0,0,1,1.479.206c.722,1.066-.842,3.226-1.779,4.347a22.257,22.257,0,0,1-3.747,2.878Z" transform="translate(-712.934 -502.27)"/></g><g transform="translate(14.085 12.235)"><g transform="translate(63 154.707)"><path class="x" d="M673.091,863.593a49.277,49.277,0,0,1,1.337-14.4l-9.244,5.365a16.749,16.749,0,0,1,.735,8.8l3.887,4.933,3.09-2.035Z" transform="translate(-665.184 -849.191)"/></g><g transform="translate(29.868 168.348)"><path class="x" d="M602.855,888.836a102.01,102.01,0,0,1,2.218-10.778l-6.809-.521a60.975,60.975,0,0,1-1.931,8.3l2.526,7.4,3.628-2.031Z" transform="translate(-596.333 -877.537)"/></g><g transform="translate(36.432 98.791)"><path class="aa" d="M619.505,749.649c.336.307,16.524,2.131,17.036,3.155s-1.654,31.134.189,43.007l5.015,3.787,4.811-3.071s7.984-40.839,10.44-51.791-35.889-11.744-35.889-11.744l-11.133,4.052L611.449,743Z" transform="translate(-609.974 -732.992)"/></g><g transform="translate(13.05 91.285)"><path class="m" d="M588.185,728.3c2.815,5.374,18.884,18.526,19.14,21.238s-19.243,47.39-19.14,50.972l-7.779-2.661-1.843-3.276s4.3-29.249,9.519-37.859c0,0-20.149-8.415-24.414-16.5s-1.788-20.579,1.18-22.822l23.848,5.535Z" transform="translate(-561.384 -717.393)"/></g><g transform="translate(61.714 153.882)"><path class="m" d="M662.511,847.476a24.038,24.038,0,0,0,14,1.638l-1.228,10.593a27.477,27.477,0,0,1-12.276-1.546Z" transform="translate(-662.511 -847.476)"/></g><g transform="translate(24.99 176.653)"><path class="i" d="M586.195,898.714a13.183,13.183,0,0,1,4.878-3.919s4.568,2.571,6.522,2.994a23.527,23.527,0,0,0,1.838,8.473c1.913,4.692,5.931,13.514,5.534,14.02a4.016,4.016,0,0,1-2.7,1.51A46.85,46.85,0,0,1,586.195,898.714Z" transform="translate(-586.195 -894.795)"/></g><g transform="translate(24.99 179.153)"><path class="l" d="M587.456,899.992c3.59,10.043,12.56,21.069,16.375,23.972a3.793,3.793,0,0,1-1.56.525,46.85,46.85,0,0,1-16.076-23.078A12.276,12.276,0,0,1,587.456,899.992Z" transform="translate(-586.195 -899.992)"/></g><g transform="translate(60.75 168.869)"><path class="i" d="M660.509,884.119a13.184,13.184,0,0,1,2.985-5.5s5.207.605,7.172.241a23.527,23.527,0,0,0,4.97,7.1c3.579,3.588,10.695,10.171,10.524,10.791a4.019,4.019,0,0,1-1.9,2.435A46.847,46.847,0,0,1,660.509,884.119Z" transform="translate(-660.509 -878.619)"/></g><g transform="translate(60.75 172.574)"><path class="l" d="M661.124,886.319c7.194,7.874,19.728,14.576,24.368,15.778a3.784,3.784,0,0,1-1.236,1.086,46.847,46.847,0,0,1-23.748-15.07A12.278,12.278,0,0,1,661.124,886.319Z" transform="translate(-660.509 -886.319)"/></g><g transform="translate(19.149 97.719)"><path class="w" d="M587.938,799.513h-.024a.2.2,0,0,1-.179-.227c.827-6.93,10.467-35.5,11.324-38.032-14.528-6.5-20.52-14.359-22.988-19.82-2.695-5.963-1.916-10.317-1.882-10.5a.2.2,0,0,1,.239-.163.2.2,0,0,1,.163.239c-.033.174-2.953,17.608,24.805,29.945l.171.076-.06.177c-.1.309-10.509,30.952-11.366,38.125A.2.2,0,0,1,587.938,799.513Z" transform="translate(-574.059 -730.765)"/></g><g transform="translate(30.469 21.999)"><path class="x" d="M599.152,577.915s.955,6.482-1.57,11.873c0,0,2.184,13.852,13.1,18.083l4.981-7.916-3.544-13.179-6.9-2.856-3.207-4.958,1.3-4.117-3.96-1.433Z" transform="translate(-597.582 -573.411)"/></g><g class="y" transform="translate(31.135 24.445)"><path class="x" d="M598.966,590.753c2.957,2.653,8.085,4.567,14.829,3.819l.268-.228-.123-.436-1.1-4.5-6.9-2.857-.593-.917-2.614-4.041h0l.068-.214.213-.676-2.86-2.214-.287,2.058A24.812,24.812,0,0,1,598.966,590.753Z" transform="translate(-598.966 -578.494)"/></g><g transform="translate(12.796 37.898)"><path class="l" d="M593.689,606.45s4.493,2.388,7.495,4.026c0,0-1.857,52.73-3.1,56.868q-18.115,8.957-36.2-1.072l5.317-29.685L561.4,616.959l-.546-5.323a71.879,71.879,0,0,1,17.673-4.708s8.393,15.353,13.033,15.626Z" transform="translate(-560.856 -606.45)"/></g><g transform="translate(29.193 11.893)"><path class="x" d="M613.642,552.449c2.137.25,5.015,11.311,3.162,15.384l-2.028-.064s1.783,5.345-.708,7.64-16.052,5.633-19.139-4.712l.122-4.328,1.854-3.1S606.885,551.658,613.642,552.449Z" transform="translate(-594.93 -552.411)"/></g><g transform="translate(16.965)"><path class="u" d="M581.962,551.517c.064-.139,6.48,2.009,18.5-11.254,0,0,4.875,3.28,5.809,6.2,0,0,2.054-7.69-10.279-16.033s-20.586,4.876-20.281,7.243c0,0-3.381-1.416-5.208,1.334s-2.868,18.27,13.543,25.39C584.049,564.392,579.943,555.9,581.962,551.517Z" transform="translate(-569.52 -527.695)"/></g><g transform="translate(27.256 22.773)"><path class="x" d="M594.824,577.15s-1.249-2.405-3.033-2.1-.955,8.778,3.23,7.884S594.824,577.15,594.824,577.15Z" transform="translate(-590.906 -575.02)"/></g><g transform="translate(28.721 160.74)"><path class="m" d="M593.949,871.621s2.729,4.435,11.805,5.322l2.8-7.677a35.85,35.85,0,0,1-13.238-7.54Z" transform="translate(-593.949 -861.727)"/></g><g transform="translate(33.377 48.745)"><path class="w" d="M604.8,631.251a1.243,1.243,0,0,1-1.13-.827,1.151,1.151,0,0,1,.6-1.318.61.61,0,0,1,.355-.114c.44,0,.8.454.947.876a1.036,1.036,0,0,1-.239,1.2A.839.839,0,0,1,604.8,631.251Zm-.179-1.85a.206.206,0,0,0-.121.041c-.381.267-.533.564-.44.859.124.394.724.682,1.014.45.268-.215.151-.628.108-.749C605.064,629.671,604.812,629.4,604.619,629.4Z" transform="translate(-603.624 -628.992)"/></g><g transform="translate(37.915 53.487)"><path class="w" d="M614.229,641.105a1.243,1.243,0,0,1-1.13-.827,1.149,1.149,0,0,1,.6-1.317.61.61,0,0,1,.355-.115c.44,0,.8.454.948.876a1.035,1.035,0,0,1-.239,1.2A.838.838,0,0,1,614.229,641.105Zm-.179-1.85a.2.2,0,0,0-.12.041c-.381.267-.534.564-.44.859.124.394.724.683,1.014.45.268-.215.151-.628.108-.749C614.495,639.525,614.243,639.255,614.05,639.255Z" transform="translate(-613.055 -638.846)"/></g><g transform="translate(0 43.084)"><path class="l" d="M547.061,617.227c-4.45,3.079-12,46.226-12.552,52.087s0,23.169,0,23.169l6.154.263s16.414-39.254,15.578-54.093C556.24,638.653,554.4,622.2,547.061,617.227Z" transform="translate(-534.264 -617.227)"/></g></g><path class="ab" d="M563.828,700.938a155.164,155.164,0,0,0,6.708-28.048s1.541,12.117-3.551,29.638C565.854,702.014,564.785,701.488,563.828,700.938Z" transform="translate(-535.516 -590.786)"/></g></g></svg>