<svg xmlns="http://www.w3.org/2000/svg" width="60" height="57" viewBox="0 0 60 57">
    <path fill="#FFF" d="M30.2 0C13.867 0 .6 13.131.6 29.297c0 12.524 7.958 23.242 19.143 27.426.67.24 1.403-.1 1.65-.756l6.394-16.679c.13-.323.12-.681-.025-.995-.14-.318-.407-.562-.74-.676-3.403-1.274-5.83-4.494-5.83-8.32 0-4.94 4.016-8.916 9.008-8.916 4.992 0 9.009 3.975 9.009 8.916 0 3.826-2.428 7.046-5.832 8.32-.332.114-.598.358-.739.676-.146.314-.156.672-.025.995l6.395 16.68c.246.656.98.994 1.649.755C51.842 52.54 59.8 41.821 59.8 29.297 59.8 13.131 46.533 0 30.2 0zm0 2.548c14.94 0 27.026 11.961 27.026 26.75 0 10.98-6.782 20.275-16.328 24.4l-5.47-14.29c3.746-1.9 6.355-5.668 6.355-10.11 0-6.315-5.204-11.465-11.583-11.465-6.38 0-11.583 5.15-11.583 11.464 0 4.443 2.61 8.21 6.355 10.11l-5.47 14.291c-9.546-4.125-16.328-13.42-16.328-24.4 0-14.789 12.085-26.75 27.026-26.75z"/>
</svg>
