<svg xmlns="http://www.w3.org/2000/svg" width="35.525" height="35.525" viewBox="0 0 35.525 35.525"><defs><style>.a{fill:#3d5a72;}</style></defs><path class="a" d="M29.6,6.273V2.96A2.964,2.964,0,0,0,26.644,0H2.96A2.964,2.964,0,0,0,0,2.96V15.986a2.955,2.955,0,0,0,2.655,2.93l2.226,5.777a2.961,2.961,0,0,0,3.827,1.7l13.9-5.354a8.559,8.559,0,0,0,.737,7.6l.34.544v5.752a.592.592,0,0,0,.592.592H34.933a.592.592,0,0,0,.592-.592V15.389a7.749,7.749,0,0,0-2.268-5.458Zm0,3.541,1.8,4.665a1.776,1.776,0,0,1-1.02,2.3l-1.027.4a2.962,2.962,0,0,0,.25-1.184ZM1.184,15.986V2.96A1.777,1.777,0,0,1,2.96,1.184H26.644A1.777,1.777,0,0,1,28.42,2.96V6.724h-.005l.005.013v9.249a1.8,1.8,0,0,1-.04.307l-5.424-5.424A3.159,3.159,0,0,0,18.4,15.237l2.312,2.525H2.96A1.777,1.777,0,0,1,1.184,15.986Zm7.585,2.96-4.21,1.621-.623-1.621Zm-.488,6.34a1.776,1.776,0,0,1-2.3-1.019l-1-2.6,7.068-2.724v0h9.74l.77.839Zm26.06,9.054H24.868V29.6h9.473Zm0-5.921H24.6l-.257-.41a7.383,7.383,0,0,1-.15-7.583.592.592,0,0,0-.078-.694L19.268,14.44a1.975,1.975,0,0,1,2.851-2.731l9.435,9.433.837-.837L30.2,18.114l.608-.237a2.961,2.961,0,0,0,1.7-3.825l-2-5.2L32.42,10.77a6.557,6.557,0,0,1,1.922,4.619Z"/><path class="a" d="M9.069,10.608a1.539,1.539,0,0,0,1.539-1.539V6.227A1.539,1.539,0,0,0,9.069,4.688H6.227A1.539,1.539,0,0,0,4.688,6.227V9.069a1.539,1.539,0,0,0,1.539,1.539Zm-3.2-1.539V8.24H7.056V7.056H5.872V6.227a.355.355,0,0,1,.355-.355H9.069a.355.355,0,0,1,.355.355v.829H8.24V8.24H9.424v.829a.355.355,0,0,1-.355.355H6.227A.355.355,0,0,1,5.872,9.069Z" transform="translate(-2.319 -2.319)"/><path class="a" d="M5.859,19.922H8.228v1.184H5.859Z" transform="translate(-2.899 -9.856)"/><path class="a" d="M5.859,26.953H8.228v1.184H5.859Z" transform="translate(-2.899 -13.335)"/><path class="a" d="M26.953,26.953h2.368v1.184H26.953Z" transform="translate(-13.335 -13.335)"/><path class="a" d="M12.891,19.922h2.368v1.184H12.891Z" transform="translate(-6.378 -9.856)"/><path class="a" d="M19.922,19.922H22.29v1.184H19.922Z" transform="translate(-9.856 -9.856)"/><path class="a" d="M26.953,19.922h2.368v1.184H26.953Z" transform="translate(-13.335 -9.856)"/><path class="a" d="M49.219,5.859H50.4V7.636H49.219Z" transform="translate(-24.351 -2.899)"/><path class="a" d="M44.531,5.859h1.184V7.636H44.531Z" transform="translate(-22.032 -2.899)"/><path class="a" d="M39.844,5.859h1.184V7.636H39.844Z" transform="translate(-19.713 -2.899)"/><path class="a" d="M35.156,5.859H36.34V7.636H35.156Z" transform="translate(-17.394 -2.899)"/><path class="a" d="M51.563,60.938h1.184v1.184H51.563Z" transform="translate(-25.511 -30.149)"/></svg>