<svg xmlns="http://www.w3.org/2000/svg" width="159.2" height="159.2" viewBox="0 0 159.2 159.2"><defs><style>.a{fill:#fff;stroke:#173a56;stroke-width:0.2px;stroke-dasharray:5;}.b{fill:#3d5a72;}</style></defs><g transform="translate(-640.4 -393.4)"><path class="a" d="M79.5,0A79.5,79.5,0,1,1,0,79.5,79.5,79.5,0,0,1,79.5,0Z" transform="translate(640.5 393.5)"/><g transform="translate(683.85 436.914)"><path class="b" d="M63.718,23.585h-5.2V13.35a6.647,6.647,0,0,0-1.838-4.581L53.318,5.252C50.466,2.314,50.106,1.483,48.407.659A6.646,6.646,0,0,0,45.53,0H20.981A6.639,6.639,0,0,0,14.35,6.631V42.39h-1.4a3.823,3.823,0,0,0-2.715,6.517A3.812,3.812,0,0,0,9.127,51.6a3.925,3.925,0,0,0,.075.757A9.643,9.643,0,0,0,10.58,71.584l18.864-.007a3.823,3.823,0,0,0,2.715-6.517,3.8,3.8,0,0,0,1.105-2.5H34.7v.767a8.841,8.841,0,0,0,8.831,8.831H63.718a8.841,8.841,0,0,0,8.831-8.831V32.416A8.841,8.841,0,0,0,63.718,23.585ZM54.694,9.975s0,0,0,0h0a.031.031,0,0,0,.006.007h0a.024.024,0,0,0,.008.008l0,.006s0,0,0,0,0,0,0,0,0,0,.006.006H49.05v-6C53.5,8.714,54.506,9.775,54.694,9.975ZM12.952,44.657H29.444a1.559,1.559,0,1,1,0,3.117H12.952a1.559,1.559,0,1,1,0-3.117Zm0,5.384H29.444a1.559,1.559,0,1,1,0,3.117H18.053a9.232,9.232,0,0,0-1.435-.519,9.555,9.555,0,0,0-2.267-.333c-.222-.006-.445,0-.667.006H11.568a1.532,1.532,0,0,1-.174-.713A1.561,1.561,0,0,1,12.952,50.041ZM31,56.983a1.56,1.56,0,0,1-1.559,1.559H23.1a9.535,9.535,0,0,0-1.924-3.117h8.267A1.561,1.561,0,0,1,31,56.983ZM7.437,54.949a9.78,9.78,0,0,0-1.785,2.29H4.332A7.486,7.486,0,0,1,7.437,54.949ZM3.126,59.363H4.777a9.785,9.785,0,0,0-.309,1.7H2.724A7.448,7.448,0,0,1,3.126,59.363Zm.183,5.618a7.441,7.441,0,0,1-.533-1.794H4.507a8.554,8.554,0,0,0,.405,1.794Zm1.414,2.125c.7,0,1.1,0,1.194,0a9.571,9.571,0,0,0,1.525,1.845A7.488,7.488,0,0,1,4.723,67.107Zm9.671,2.353a7.519,7.519,0,1,1,4.763-13.051A7.513,7.513,0,0,1,14.394,69.46Zm15.05-.15H20.3a9.71,9.71,0,0,0,2.436-3.117h6.713a1.559,1.559,0,1,1,0,3.117Zm1.546-6.753a1.559,1.559,0,0,1-1.546,1.369H23.513a9.738,9.738,0,0,0,.137-3.117h5.794A1.56,1.56,0,0,1,30.99,62.557ZM34.7,60.29H32.653a3.761,3.761,0,0,0-.495-.615,3.817,3.817,0,0,0,0-5.384,3.817,3.817,0,0,0,0-5.384,3.829,3.829,0,0,0-2.715-6.517H16.617V6.631a4.369,4.369,0,0,1,4.364-4.364h25.8v8.879a1.133,1.133,0,0,0,1.133,1.133h8.2c.237.918.091.615.135,11.305H43.53A8.841,8.841,0,0,0,34.7,32.416Zm35.725,3.034a6.713,6.713,0,0,1-6.706,6.706H43.531a6.714,6.714,0,0,1-6.706-6.706V32.416a6.714,6.714,0,0,1,6.706-6.706H63.718a6.713,6.713,0,0,1,6.706,6.706V63.324Z" transform="translate(-0.549)"/><g transform="translate(39.489 28.121)"><path class="b" d="M304.362,199.538H284.325a3.568,3.568,0,0,0-3.568,3.568v3.889a3.568,3.568,0,0,0,3.568,3.568h3.855a1.063,1.063,0,1,0,0-2.125h-3.855a1.447,1.447,0,0,1-1.442-1.442v-3.889a1.447,1.447,0,0,1,1.442-1.442h20.037a1.444,1.444,0,0,1,1.442,1.442v3.889a1.444,1.444,0,0,1-1.442,1.442h-11.6a1.063,1.063,0,1,0,0,2.125h11.6a3.571,3.571,0,0,0,3.568-3.568v-3.889A3.572,3.572,0,0,0,304.362,199.538Z" transform="translate(-280.757 -199.538)"/></g><g transform="translate(39.489 50.512)"><path class="b" d="M286.613,358.428h-3.631a2.227,2.227,0,0,0-2.224,2.224v3.63a2.227,2.227,0,0,0,2.224,2.224h3.631a2.226,2.226,0,0,0,2.224-2.224v-3.63A2.226,2.226,0,0,0,286.613,358.428Zm.1,5.854a.1.1,0,0,1-.1.1h-3.631a.1.1,0,0,1-.1-.1v-3.63a.1.1,0,0,1,.1-.1h3.631a.1.1,0,0,1,.1.1Z" transform="translate(-280.757 -358.428)"/></g><g transform="translate(58.697 41.02)"><path class="b" d="M422.91,291.068h-3.63a2.226,2.226,0,0,0-2.224,2.224v3.63a2.226,2.226,0,0,0,2.224,2.224h3.63a2.226,2.226,0,0,0,2.224-2.224v-3.63A2.226,2.226,0,0,0,422.91,291.068Zm.1,5.854a.1.1,0,0,1-.1.1h-3.63a.1.1,0,0,1-.1-.1c.044-3.592-.092-3.729.1-3.729h3.63a.1.1,0,0,1,.1.1Z" transform="translate(-417.056 -291.068)"/></g><g transform="translate(39.489 41.02)"><path class="b" d="M286.613,291.068h-3.631a2.227,2.227,0,0,0-2.224,2.224v3.63a2.227,2.227,0,0,0,2.224,2.224h3.631a2.226,2.226,0,0,0,2.224-2.224v-3.63A2.226,2.226,0,0,0,286.613,291.068Zm.1,5.854a.1.1,0,0,1-.1.1h-3.631a.1.1,0,0,1-.1-.1v-3.63a.1.1,0,0,1,.1-.1h3.631a.1.1,0,0,1,.1.1Z" transform="translate(-280.757 -291.068)"/></g><g transform="translate(39.485 59.541)"><path class="b" d="M288.255,423.241a2.223,2.223,0,0,0-1.665-.749h-3.631a2.218,2.218,0,0,0-1.663.749,3.039,3.039,0,0,0-.561,2.267v2.838a2.227,2.227,0,0,0,2.224,2.224h3.631a2.226,2.226,0,0,0,2.224-2.224v-2.838A3.065,3.065,0,0,0,288.255,423.241Zm-1.665,5.2c-3.587-.044-3.731.092-3.731-.1,0-3.844-.043-3.729.1-3.729h3.631c.174,0,.067.242.1.891A15.112,15.112,0,0,1,286.59,428.445Z" transform="translate(-280.73 -422.491)"/></g><g transform="translate(58.697 50.512)"><path class="b" d="M422.346,358.428h-2.5a2.792,2.792,0,0,0-2.788,2.788V372.49a3.048,3.048,0,0,0,3.043,3.045h1.992a3.047,3.047,0,0,0,3.043-3.045V361.216A2.791,2.791,0,0,0,422.346,358.428Zm-.255,14.982H420.1a.92.92,0,0,1-.918-.92V361.216a.664.664,0,0,1,.663-.663h2.5a.664.664,0,0,1,.663.663V372.49h0A.919.919,0,0,1,422.091,373.41Z" transform="translate(-417.055 -358.428)"/></g><g transform="translate(22.852 23.576)"><path class="b" d="M167.208,174.58c-1.3-.476-2.232-.82-2.232-2.02,0-1.094.727-1.649,2.159-1.649,1.521,0,1.931.67,2.466.67a1.02,1.02,0,0,0,.906-1.047c0-.885-1.444-1.324-2.735-1.44v-.8a1.007,1.007,0,1,0-2.014,0v.925a3.293,3.293,0,0,0-2.735,3.445c0,2.473,1.821,3.157,3.284,3.708,1.433.538,2.564.964,2.564,2.6,0,1.351-.75,2.036-2.23,2.036-2.166,0-2.186-1.462-3.012-1.462a1.062,1.062,0,0,0-.924,1.047c0,.837,1.247,1.938,3.052,2.224v.771a1.007,1.007,0,1,0,2.014,0V182.8a3.638,3.638,0,0,0,3.052-3.929C170.825,175.909,168.82,175.172,167.208,174.58Z" transform="translate(-162.707 -167.288)"/></g><g transform="translate(49.032 59.541)"><path class="b" d="M355.875,423.115a2.215,2.215,0,0,0-1.542-.623H350.7a2.223,2.223,0,0,0-1.665.749,3.051,3.051,0,0,0-.56,2.267v2.838a2.226,2.226,0,0,0,2.224,2.224h3.631a2.226,2.226,0,0,0,2.223-2.224v-3.631A2.216,2.216,0,0,0,355.875,423.115Zm-1.542,5.33c-3.587-.044-3.731.092-3.731-.1v-3.631a.1.1,0,0,1,.1-.1h3.631a.1.1,0,0,1,.1.1C354.389,428.31,354.522,428.445,354.333,428.445Z" transform="translate(-348.474 -422.491)"/></g><g transform="translate(49.036 41.02)"><path class="b" d="M354.355,291.068h-3.631a2.226,2.226,0,0,0-2.224,2.224v3.63a2.226,2.226,0,0,0,2.224,2.224h3.631a2.19,2.19,0,0,0,.809-.153,2.227,2.227,0,0,0,1.414-2.071v-3.63A2.227,2.227,0,0,0,354.355,291.068Zm0,5.954h-3.631a.1.1,0,0,1-.1-.1v-3.63c0-.191.132-.057,3.731-.1a.1.1,0,0,1,.1.1v3.63h0A.1.1,0,0,1,354.355,297.022Z" transform="translate(-348.499 -291.068)"/></g><g transform="translate(49.036 50.512)"><path class="b" d="M355.164,358.581a2.19,2.19,0,0,0-.809-.153h-3.631a2.226,2.226,0,0,0-2.224,2.224v3.63a2.226,2.226,0,0,0,2.224,2.224h3.631a2.226,2.226,0,0,0,2.223-2.224v-3.63A2.227,2.227,0,0,0,355.164,358.581Zm-.711,5.7a.1.1,0,0,1-.1.1h-3.631a.1.1,0,0,1-.1-.1v-3.63a.1.1,0,0,1,.1-.1h3.631a.1.1,0,0,1,.1.1Z" transform="translate(-348.499 -358.428)"/></g><g transform="translate(45.026 14.521)"><path class="b" d="M323.779,103.041H321.11a1.063,1.063,0,1,0,0,2.125h2.669a1.063,1.063,0,1,0,0-2.125Z" transform="translate(-320.047 -103.041)"/></g><g transform="translate(21.931 14.521)"><path class="b" d="M176.077,103.041H157.233a1.063,1.063,0,0,0,0,2.125h18.844a1.063,1.063,0,1,0,0-2.125Z" transform="translate(-156.17 -103.041)"/></g><g transform="translate(21.931 19.797)"><path class="b" d="M160.61,140.472h-3.378a1.063,1.063,0,0,0,0,2.125h3.378a1.063,1.063,0,0,0,0-2.125Z" transform="translate(-156.17 -140.472)"/></g><g transform="translate(29.559 19.797)"><path class="b" d="M229.5,140.472H211.362a1.063,1.063,0,1,0,0,2.125H229.5a1.063,1.063,0,0,0,0-2.125Z" transform="translate(-210.299 -140.472)"/></g><g transform="translate(10.613 56.279)"><path class="b" d="M78.168,402.985c0-.267.1-.344.19-.395a1.826,1.826,0,0,1,1.541.1,1.215,1.215,0,0,0,.575.175c1.048,0,1.877-1.947-.627-2.378v-.067a1.077,1.077,0,1,0-2.154,0v.2a2.416,2.416,0,0,0-1.643,2.42c0,1.812,1.317,2.307,2.278,2.668.917.345,1.234.5,1.234,1.119,0,.39-.105.751-.867.751-1.111,0-.978-.878-1.809-.878a1.11,1.11,0,0,0-1.027,1.1c0,.736.766,1.435,1.833,1.718v.081a1.077,1.077,0,1,0,2.154,0V409.5a2.662,2.662,0,0,0,1.833-2.727C81.681,403.543,78.168,404.028,78.168,402.985Z" transform="translate(-75.861 -399.347)"/></g></g></g></svg>