<svg xmlns="http://www.w3.org/2000/svg" width="159.2" height="159.2" viewBox="0 0 159.2 159.2"><defs><style>.a{fill:#fff;stroke:#173a56;stroke-width:0.2px;stroke-dasharray:5;}.b{fill:#3d5a72;}</style></defs><g transform="translate(-1023.4 -393.4)"><path class="a" d="M79.5,0A79.5,79.5,0,1,1,0,79.5,79.5,79.5,0,0,1,79.5,0Z" transform="translate(1023.5 393.5)"/><g transform="translate(1067 437)"><g transform="translate(0 0)"><g transform="translate(0 0)"><path class="b" d="M375.1,0h-4.885a1.055,1.055,0,1,0,0,2.109H375.1a.366.366,0,0,1,.366.366V19.888h-5.483a2.332,2.332,0,0,0-2.33,2.33v.136a2.343,2.343,0,0,0,.695,1.659,2.5,2.5,0,1,1-3.544,0,2.354,2.354,0,0,0,.7-1.662v-.136a2.332,2.332,0,0,0-2.33-2.33h-5.483V14.4a.22.22,0,0,1,.22-.22h.136a.265.265,0,0,1,.177.086,4.606,4.606,0,1,0,0-6.538.257.257,0,0,1-.171.081h-.136a.22.22,0,0,1-.22-.22V2.109h7.6a1.055,1.055,0,0,0,0-2.109h-8.655a1.055,1.055,0,0,0-1.055,1.055V7.593a2.332,2.332,0,0,0,2.33,2.33h.136a2.343,2.343,0,0,0,1.659-.695,2.5,2.5,0,1,1,0,3.544,2.353,2.353,0,0,0-1.662-.7h-.136a2.332,2.332,0,0,0-2.33,2.33v6.538A1.055,1.055,0,0,0,356.632,22h6.538a.22.22,0,0,1,.22.22v.136a.265.265,0,0,1-.086.177,4.606,4.606,0,0,0,2.751,7.82,4.607,4.607,0,0,0,5.126-4.577,4.577,4.577,0,0,0-1.339-3.247.257.257,0,0,1-.081-.171v-.136a.22.22,0,0,1,.22-.22h6.538a1.055,1.055,0,0,0,1.055-1.055V2.475A2.478,2.478,0,0,0,375.1,0Z" transform="translate(-305.574 0)"/><path class="b" d="M325.3,355.577h-6.538a2.332,2.332,0,0,0-2.33,2.33v.136a2.343,2.343,0,0,0,.695,1.659,2.5,2.5,0,1,1-3.544,0,2.353,2.353,0,0,0,.7-1.662v-.136a2.332,2.332,0,0,0-2.33-2.33h-6.538a1.055,1.055,0,0,0-1.055,1.055v6.538a.22.22,0,0,1-.22.22h-.136a.265.265,0,0,1-.177-.086,4.606,4.606,0,1,0,0,6.538.257.257,0,0,1,.171-.081h.357v6.758a1.055,1.055,0,0,0,1.055,1.055h18.467a2.478,2.478,0,0,0,2.475-2.475V356.632A1.055,1.055,0,0,0,325.3,355.577ZM324.25,375.1a.366.366,0,0,1-.366.366H306.472v-6.758a1.055,1.055,0,0,0-1.055-1.055h-1.411a2.343,2.343,0,0,0-1.659.695,2.5,2.5,0,1,1,0-3.544,2.354,2.354,0,0,0,1.662.7h.136a2.332,2.332,0,0,0,2.33-2.33v-5.483h5.483a.22.22,0,0,1,.22.22v.136a.265.265,0,0,1-.086.177,4.606,4.606,0,1,0,6.538,0,.257.257,0,0,1-.081-.171v-.136a.22.22,0,0,1,.22-.22h5.484Z" transform="translate(-254.36 -305.574)"/><path class="b" d="M20.942,304.362H14.4a.22.22,0,0,1-.22-.22v-.136a.265.265,0,0,1,.086-.177,4.606,4.606,0,1,0-6.538,0,.257.257,0,0,1,.081.171v.136a.22.22,0,0,1-.22.22H1.055A1.055,1.055,0,0,0,0,305.417v18.467a2.478,2.478,0,0,0,2.475,2.475H4.819a1.055,1.055,0,0,0,0-2.109H2.475a.366.366,0,0,1-.366-.366V306.471H7.593a2.332,2.332,0,0,0,2.33-2.33v-.136a2.343,2.343,0,0,0-.695-1.659,2.5,2.5,0,1,1,3.544,0,2.354,2.354,0,0,0-.7,1.662v.136a2.332,2.332,0,0,0,2.33,2.33h5.483v5.483a.221.221,0,0,1-.221.221h-.135a.265.265,0,0,1-.177-.086,4.606,4.606,0,1,0,0,6.538.257.257,0,0,1,.171-.081h.136a.221.221,0,0,1,.221.221v5.483H9.743a1.055,1.055,0,0,0,0,2.109h11.2A1.055,1.055,0,0,0,22,325.3v-6.538a2.333,2.333,0,0,0-2.33-2.33h-.136a2.343,2.343,0,0,0-1.659.695,2.5,2.5,0,1,1,0-3.544,2.353,2.353,0,0,0,1.662.7h.135a2.333,2.333,0,0,0,2.33-2.33v-6.538A1.055,1.055,0,0,0,20.942,304.362Z" transform="translate(0 -254.359)"/><path class="b" d="M1.055,22H7.593a2.332,2.332,0,0,0,2.33-2.33v-.136a2.343,2.343,0,0,0-.695-1.659,2.5,2.5,0,1,1,3.544,0,2.353,2.353,0,0,0-.7,1.662v.136A2.332,2.332,0,0,0,14.4,22h6.538A1.055,1.055,0,0,0,22,20.942V14.4a.22.22,0,0,1,.22-.22h.136a.265.265,0,0,1,.177.086,4.606,4.606,0,1,0,0-6.538.257.257,0,0,1-.171.081h-.136a.22.22,0,0,1-.22-.22V1.055A1.055,1.055,0,0,0,20.942,0H2.475A2.478,2.478,0,0,0,0,2.475V20.942A1.055,1.055,0,0,0,1.055,22ZM2.109,2.475a.366.366,0,0,1,.366-.366H19.888V7.593a2.332,2.332,0,0,0,2.33,2.33h.136a2.343,2.343,0,0,0,1.659-.695,2.5,2.5,0,1,1,0,3.544,2.354,2.354,0,0,0-1.662-.7h-.136a2.332,2.332,0,0,0-2.33,2.33v5.483H14.4a.22.22,0,0,1-.22-.22v-.136a.265.265,0,0,1,.086-.177,4.606,4.606,0,1,0-6.538,0,.257.257,0,0,1,.081.171v.136a.22.22,0,0,1-.22.22H2.109Z" transform="translate(0 0)"/><path class="b" d="M232.342,73.831h.844a1.055,1.055,0,0,0,0-2.109h-.844a1.055,1.055,0,1,0,0,2.109Z" transform="translate(-198.762 -61.636)"/><path class="b" d="M271.9,73.831h2.1a1.055,1.055,0,0,0,0-2.109h-2.1a1.055,1.055,0,0,0,0,2.109Z" transform="translate(-232.756 -61.636)"/><path class="b" d="M320.368,73.831h.844a1.055,1.055,0,0,0,0-2.109h-.844a1.055,1.055,0,0,0,0,2.109Z" transform="translate(-274.41 -61.636)"/><path class="b" d="M426.333,234.24a1.055,1.055,0,0,0,1.055-1.055v-.844a1.055,1.055,0,0,0-2.109,0v.844A1.055,1.055,0,0,0,426.333,234.24Z" transform="translate(-365.473 -198.762)"/><path class="b" d="M425.278,273.995a1.055,1.055,0,0,0,2.109,0v-2.1a1.055,1.055,0,0,0-2.109,0Z" transform="translate(-365.473 -232.756)"/><path class="b" d="M425.278,321.211a1.055,1.055,0,0,0,2.109,0v-.844a1.055,1.055,0,0,0-2.109,0Z" transform="translate(-365.473 -274.41)"/><path class="b" d="M261.611,425.278h-.844a1.055,1.055,0,0,0,0,2.109h.844a1.055,1.055,0,0,0,0-2.109Z" transform="translate(-223.191 -365.473)"/><path class="b" d="M214.395,425.278h-2.1a1.055,1.055,0,1,0,0,2.109h2.1a1.055,1.055,0,0,0,0-2.109Z" transform="translate(-181.537 -365.473)"/><path class="b" d="M173.585,425.278h-.844a1.055,1.055,0,0,0,0,2.109h.844a1.055,1.055,0,1,0,0-2.109Z" transform="translate(-147.544 -365.473)"/><path class="b" d="M72.777,259.713a1.055,1.055,0,0,0-1.055,1.055v.844a1.055,1.055,0,0,0,2.109,0v-.844A1.055,1.055,0,0,0,72.777,259.713Z" transform="translate(-61.636 -223.191)"/><path class="b" d="M73.831,212.3a1.055,1.055,0,0,0-2.109,0v2.1a1.055,1.055,0,0,0,2.109,0Z" transform="translate(-61.636 -181.537)"/><path class="b" d="M73.831,172.742a1.055,1.055,0,0,0-2.109,0v.844a1.055,1.055,0,0,0,2.109,0Z" transform="translate(-61.636 -147.544)"/><path class="b" d="M165.529,162.177l2.224,1.284a2.557,2.557,0,0,0,3.493-.936l2.1-3.644a2.557,2.557,0,0,0-.936-3.493l-2.223-1.283a.446.446,0,0,1-.21-.443,12.627,12.627,0,0,0,0-2.9.447.447,0,0,1,.21-.443l2.223-1.283a2.557,2.557,0,0,0,.936-3.493l-2.1-3.644a2.557,2.557,0,0,0-3.493-.936l-2.224,1.284a.449.449,0,0,1-.492-.041,12.478,12.478,0,0,0-2.5-1.444.464.464,0,0,1-.289-.419v-2.556a2.56,2.56,0,0,0-2.557-2.557h-4.207a2.56,2.56,0,0,0-2.557,2.557v2.556a.464.464,0,0,1-.289.419,12.472,12.472,0,0,0-2.5,1.444.449.449,0,0,1-.492.04l-2.224-1.284a2.557,2.557,0,0,0-3.493.936l-2.1,3.644a2.557,2.557,0,0,0,.936,3.493l2.223,1.283a.446.446,0,0,1,.21.443,12.625,12.625,0,0,0,0,2.9.447.447,0,0,1-.21.443l-2.223,1.283a2.557,2.557,0,0,0-.936,3.493l2.1,3.644a2.557,2.557,0,0,0,3.493.936l2.224-1.284a.449.449,0,0,1,.492.041,12.478,12.478,0,0,0,2.5,1.444.464.464,0,0,1,.289.419v2.556a2.56,2.56,0,0,0,2.557,2.557h4.208a2.56,2.56,0,0,0,2.557-2.557v-2.556a.464.464,0,0,1,.289-.419,12.473,12.473,0,0,0,2.5-1.444.449.449,0,0,1,.492-.04Zm-3.826-.451a2.571,2.571,0,0,0-1.561,2.355v2.556a.448.448,0,0,1-.448.448h-4.208a.449.449,0,0,1-.448-.448v-2.556a2.572,2.572,0,0,0-1.561-2.355,10.365,10.365,0,0,1-2.074-1.2,2.58,2.58,0,0,0-1.543-.514,2.525,2.525,0,0,0-1.264.338l-2.224,1.284a.448.448,0,0,1-.612-.164l-2.1-3.644a.448.448,0,0,1,.164-.612l2.223-1.283a2.554,2.554,0,0,0,1.25-2.513,10.521,10.521,0,0,1,0-2.414,2.554,2.554,0,0,0-1.25-2.513l-2.223-1.283a.448.448,0,0,1-.164-.612l2.1-3.644a.448.448,0,0,1,.612-.164l2.224,1.284a2.556,2.556,0,0,0,2.807-.176,10.364,10.364,0,0,1,2.074-1.2,2.571,2.571,0,0,0,1.561-2.355v-2.556a.448.448,0,0,1,.448-.448h4.207a.448.448,0,0,1,.448.448v2.556A2.572,2.572,0,0,0,161.7,142.7a10.364,10.364,0,0,1,2.074,1.2,2.555,2.555,0,0,0,2.807.176l2.224-1.284a.448.448,0,0,1,.612.164l2.1,3.644a.448.448,0,0,1-.164.612l-2.223,1.283a2.554,2.554,0,0,0-1.25,2.513,10.521,10.521,0,0,1,0,2.414,2.554,2.554,0,0,0,1.25,2.513l2.223,1.283a.448.448,0,0,1,.164.612l-2.1,3.644a.448.448,0,0,1-.612.164l-2.224-1.284a2.556,2.556,0,0,0-2.807.176A10.376,10.376,0,0,1,161.7,161.726Z" transform="translate(-121.59 -116.212)"/><path class="b" d="M232.78,228.98a3.8,3.8,0,1,0,3.8,3.8,3.8,3.8,0,0,0-3.8-3.8Zm0,5.49a1.69,1.69,0,1,1,1.69-1.69,1.692,1.692,0,0,1-1.69,1.69Z" transform="translate(-196.78 -196.78)"/><path class="b" d="M206.149,197.992a8.157,8.157,0,1,0,8.157,8.157A8.167,8.167,0,0,0,206.149,197.992Zm0,14.205a6.048,6.048,0,1,1,6.048-6.048A6.055,6.055,0,0,1,206.149,212.2Z" transform="translate(-170.149 -170.149)"/></g></g></g></g></svg>