<svg xmlns="http://www.w3.org/2000/svg" width="66.251" height="60.184" viewBox="0 0 66.251 60.184"><g transform="translate(-927.874 -1230)"><path d="M31.635-17.769a12,12,0,0,0,20.731,0L73.473-53.954A12,12,0,0,0,63.108-72H20.892A12,12,0,0,0,10.527-53.954Z" transform="translate(919 1302)" fill="#2a2c39"/><path d="M18.444,6.922A.554.554,0,0,1,19,7.479v4.134a.554.554,0,0,1-.556.557H12.373a.205.205,0,0,0-.232.232v6.039a.554.554,0,0,1-.556.557H7.415a.554.554,0,0,1-.556-.557V12.4a.205.205,0,0,0-.232-.232H.556a.536.536,0,0,1-.394-.163A.538.538,0,0,1,0,11.614V7.479a.538.538,0,0,1,.162-.395.536.536,0,0,1,.394-.163H6.627a.205.205,0,0,0,.232-.232V.557A.538.538,0,0,1,7.021.163.536.536,0,0,1,7.415,0h4.171a.536.536,0,0,1,.394.163.538.538,0,0,1,.162.395V6.689a.205.205,0,0,0,.232.232Z" transform="translate(950 1246)" fill="#fff"/></g></svg>