<svg xmlns="http://www.w3.org/2000/svg" width="25.989" height="25.989" viewBox="0 0 25.989 25.989"><g transform="translate(-29.182 -35.206)"><path d="M17.894,7.958a.407.407,0,0,1,.46.46v1.748a.407.407,0,0,1-.46.46H10.718a.163.163,0,0,0-.184.184v7.13a.407.407,0,0,1-.46.46H8.28a.407.407,0,0,1-.46-.46V10.81a.163.163,0,0,0-.184-.184H.46a.407.407,0,0,1-.46-.46V8.418a.407.407,0,0,1,.46-.46H7.636a.163.163,0,0,0,.184-.184V.46A.407.407,0,0,1,8.28,0h1.794a.407.407,0,0,1,.46.46V7.774a.163.163,0,0,0,.184.184Z" transform="translate(42.193 35.205) rotate(45)" fill="#8f9bb3"/></g></svg>