<svg xmlns="http://www.w3.org/2000/svg" xmlns:xlink="http://www.w3.org/1999/xlink" width="1360.22" height="1302.793" viewBox="0 0 1360.22 1302.793"><defs><style>.a{fill:#fff;}.b{fill:url(#a);}.c{fill:#3d5a72;}.d{fill:#eac5b0;}.e{opacity:0.12;mix-blend-mode:multiply;isolation:isolate;}.f{fill:#145566;}.g{fill:#dec9ad;}.h{fill:#1a3151;}.i{fill:#a0a1a3;}.j{fill:#eac1a4;}.k{fill:#ebb044;}.l{fill:#132235;}.m{fill:#b5d6ca;}.n{fill:#aa6755;}.o{fill:#dbdbdb;}.p{fill:#1a6f82;}.q{clip-path:url(#b);}.r{fill:#5c5955;}.s{fill:#f4f1ef;}.t{fill:#3ababa;}.u{fill:#2b2a2a;opacity:0.1;}.v{fill:#ffd559;}</style><radialGradient id="a" cx="0.5" cy="0.5" r="0.5" gradientUnits="objectBoundingBox"><stop offset="0" stop-color="#bcd0e5"/><stop offset="1" stop-color="#fff"/></radialGradient><clipPath id="b"><circle class="a" cx="45.203" cy="45.203" r="45.203" transform="translate(0 84.753) rotate(-69.63)"/></clipPath></defs><g transform="translate(158.296 329.796)"><path class="b" d="M479.076-34.773C755.219-34.773,1000,182.444,1000,407.5S879.215,871.024,603.073,871.024c-36.757,0-77.227-52.566-209.48-86.843S239.7,757.7,171.951,722.8C45.27,657.536-53.121,569.715-53.121,454.6c0-39.048,4.423-91.663,16.571-145.226,14.652-64.6,40.642-130.523,83.76-174.851,53.55-55.053,147.927-52.757,228.6-72.647C355.414,42.246,363.874-35.2,479.076-34.773Z" transform="matrix(0.875, -0.485, 0.485, 0.875, -94.977, 185.428)"/><g transform="translate(146.456 535.084)"><path class="c" d="M446.794,670.222c-17.424-1.58-35-1.853-53.324.624-6.721.908-13.3,2.906-20.038,3.712-42.676,5.106-85.663-3.623-128.322-7.063-20.827-1.68-42.731-.243-61.97,8.521-10.282,4.684-33.349,11.022-36.028,23.135-7.529,34.038,51.9,36.756,71.4,37.556,53.931,2.214,111.458-.9,164.281,9.888,19.147,3.909,43.821,8.119,63.217,3.819,24.864-5.512,44.278-12.649,70.218-12.9,25.652-.252,51.261,1.622,76.835,3.372,50.406,3.447,102.066,6.958,151.352-6.765,10.323-2.874,32.843-9,37.307-20.19,8.658-21.709-37.824-33.676-50.059-34.582-55.785-4.13-110.357-8.16-166.072-4.8-17.3,1.042-35.188,6.4-52.163,5.047C491.136,677.817,469.123,672.247,446.794,670.222Z" transform="translate(-146.456 -666.881)"/></g><g transform="translate(154.327 57.357)"><g transform="translate(188.16)"><g transform="translate(10.089)"><path class="d" d="M511.173,57.4c-12.467-.652-27.914,6.566-31.327,17.466-4.057-10.674-23.335-16.734-35.741-15.327-32.739,3.711-42.737,41.226-28.075,65.806,7.892,13.228,19.006,24.668,31.063,34.877,10.1,8.549,36.02,26.542,36.1,26.477.079.061,24.88-19.47,34.448-28.615,11.427-10.92,21.837-23.012,28.924-36.7C559.729,95.961,544.074,59.119,511.173,57.4Z" transform="translate(-409.441 -57.357)"/><g class="e" transform="translate(51.173 49.864)"><path d="M553.666,137.961a180,180,0,0,1-27.111,28.4c-9.709,8.125-21.157,15.3-33.913,17.962a44.306,44.306,0,0,1-17.911.151c10.713,7.89,22.341,15.936,22.392,15.892.079.061,24.88-19.471,34.448-28.615,11.427-10.92,21.837-23.012,28.924-36.7a41.748,41.748,0,0,0,4.315-14.076A131.547,131.547,0,0,1,553.666,137.961Z" transform="translate(-474.732 -120.977)"/></g></g><path class="a" d="M585.137,150.575a6.809,6.809,0,0,0-13.609.5v.008l-3.513,29.363a25.256,25.256,0,0,1-10.071,17.314l-20.5,15.143,13.377-21.833a6.181,6.181,0,0,0,.6-.987l.007-.01h0a6.254,6.254,0,0,0-9.886-7.316l0,0-19.729,19.372a42.594,42.594,0,0,0-12.728,31.882l.465,13.3a16.324,16.324,0,0,0,28.112,10.7l41.052-36.481a24.565,24.565,0,0,0,8.234-19.221l-1.808-51.737Z" transform="translate(-420.892 -76.098)"/><path class="a" d="M396.572,157.766a6.81,6.81,0,0,1,13.612-.448v.008l5.554,29.046a25.256,25.256,0,0,0,11.256,16.57L448.5,216.617l-14.869-20.847a6.224,6.224,0,0,1-.672-.942l-.007-.009,0,0a6.254,6.254,0,0,1,9.35-7.988l0,0,21.033,17.948a42.6,42.6,0,0,1,14.922,30.917l.465,13.3a16.325,16.325,0,0,1-27.3,12.634l-43.5-33.526a24.565,24.565,0,0,1-9.555-18.6l-1.808-51.737Z" transform="translate(-396.569 -77.55)"/></g><g transform="translate(0 83.363)"><path class="d" d="M233.693,164.93c-10.788,2.754-22.065,12.9-22.135,22.939-6.233-7.876-24.228-7.853-34.428-3.39-26.917,11.779-25.671,45.885-6.787,62.615,10.163,9,22.606,15.654,35.531,21.023,10.824,4.495,37.583,12.721,37.63,12.646.084.031,16.124-22.914,21.893-33.117,6.89-12.182,12.61-25.078,15.086-38.429C285.082,184.413,262.162,157.663,233.693,164.93Z" transform="translate(-156.498 -163.718)"/></g><g transform="translate(340.367 235.891)"><path class="f" d="M680.1,360.9s-37,18.1-48.138,11.347c-1.414-.857-34.405-13.922-34.405-13.922l-6.794,7.575,37.888,25.861,12.594,2.137,31.813-9.118Z" transform="translate(-590.766 -358.326)"/></g><g transform="translate(447.321 241.762)"><path class="f" d="M734.185,365.817s21.384,35.209,34.4,35.532c1.653.041,36.478,6.847,36.478,6.847L806.7,418.24l-45.853,1.323-11.756-5L727.227,389.72Z" transform="translate(-727.227 -365.817)"/></g><g transform="translate(384.522 189.251)"><g transform="translate(0 47.605)"><path class="f" d="M712.169,361.817q.237.088.473.179c7.5,2.9,13.406,15.969,16.792,23.648,8.741,19.823,12.583,40.49,13.315,62.413.394,11.8.277,23.63-.076,35.444-.1,3.264-2.872,32.489-1.424,33.184-14.855-7.131-29.958-13.863-45.764-17.919s-32.429-5.368-48.381-1.616c4.785-37.1,11.748-74.85,21.826-110.707,1.205-4.289,2.008-8.86,3.8-12.926,2.062-4.682,5.168-6.07,9.091-8.843a25.546,25.546,0,0,1,4.175-2.569C693.784,358.606,704.27,358.907,712.169,361.817Z" transform="translate(-647.103 -359.557)"/></g><g transform="translate(51.11 154.344)"><path class="g" d="M749.319,507.962l-16.88,69.068-.285,50.887-8.255,1.8L720.583,582.4l-8.27-86.654Z" transform="translate(-712.313 -495.745)"/><g transform="translate(10.159 133.599)"><path class="h" d="M726.6,668l-1.325,5.164,1.19,10.124h6.693l2.479-14.642-.782-2.446Z" transform="translate(-725.275 -666.201)"/></g></g><g transform="translate(19.172 156.236)"><g transform="translate(2.598)"><path class="g" d="M676.268,500.981l-1.389,59.656L683,644.874l8.154.582,2.784-77.244,16.472-70.053Z" transform="translate(-674.879 -498.159)"/></g><g transform="translate(0 145.307)"><path class="h" d="M682.536,683.554l-10.971,5.852.881,5.128,19.4-2.413-.947-7.38Z" transform="translate(-671.565 -683.554)"/></g></g><g transform="translate(15.387 160.186)"><path class="i" d="M672.131,509.772l-5.4,68.931,5.711,47.256,22.082-1.292,3.835-53.745,9.44-58.6-1.5-9.119-31.827.526Z" transform="translate(-666.735 -503.199)"/></g><g transform="translate(52.708 156.778)"><path class="i" d="M716.029,572.675l2.687,49.43,19.194-1.021-.479-46.882,11.994-58.9-2.793-16.453-32.281,2.07Z" transform="translate(-714.352 -498.85)"/></g><g transform="translate(9.442 46.386)"><path class="a" d="M659.15,479.628c19.764,2.981,52.648,5.222,72.413,8.2,1-35.727-2.6-76.977-11.282-111.534-1.575-6.267-3.9-13.032-9.382-16.215-5.877-3.411-18.326-2.923-21.9,3.731-5.223,9.735-6.229,25.219-8.546,36.046C675.211,424.357,662.381,454.777,659.15,479.628Z" transform="translate(-659.15 -358.003)"/></g><g transform="translate(26.15)"><g transform="translate(11.699 12.58)"><path class="j" d="M697.66,323.019c5.214-13.924,22.769-8.329,25.914,4.219,2.072,8.266-4.555,18.835-12.869,20.873q.241,3.065.22,6.142l-6.674-.691c-.688-.071-1.487-.214-1.807-.828a2.13,2.13,0,0,1-.1-1.234q.246-2.1.492-4.21c-.16-.076-.319-.155-.478-.24-3.946-2.1-6.306-6.492-6.83-10.929S696.093,327.2,697.66,323.019Z" transform="translate(-695.395 -314.87)"/></g><g transform="translate(0 7.163)"><path class="h" d="M695.61,325.751c-2.973,3.969-2.406,9.444-1.872,14.141.474,4.165.266,6.733-4.31,6.291-2.579-.25-7.17-.642-8.661-3.176-1.128-1.919,1.194-5.912,2.536-7.36,1.024-1.1,2.809-1.245,3.8-2.376a4.861,4.861,0,0,0,.849-1.646,25.251,25.251,0,0,0,1.388-7.453,25.591,25.591,0,0,1,.343-5.145c.582-2.428,3.168-4.624,4.768-6.5,2.976-3.492,10.459-7.015,14.162-2.263a7.331,7.331,0,0,1,1.2,3.877,6.091,6.091,0,0,1-.119,2.437c-1,3.111-4,2.692-6.443,3.516A16.355,16.355,0,0,0,695.61,325.751Z" transform="translate(-680.468 -307.959)"/></g><g transform="translate(21.72)"><path class="h" d="M723.856,331.992c-.553,2.253-2.517,4.309-1.924,6.552a10.086,10.086,0,0,0,1.557,2.662,8.207,8.207,0,0,1,.336,8.076l13.349,3.88a4.165,4.165,0,0,0,2.059.237c1.456-.331,2.087-2.013,2.48-3.453.772-2.838,1.539-5.9.531-8.659-.467-1.281-1.292-2.409-1.755-3.692-2.227-6.168,4.4-13.492,1.07-19.142-1.486-2.521-4.477-3.667-6.689-5.584-3.857-3.34-5.253-8.955-9.318-12.04-7.679-5.823-19.58,1.941-17.017,11.363C710.624,319.876,726.084,322.919,723.856,331.992Z" transform="translate(-708.179 -298.82)"/></g></g><g transform="translate(37.601 50.932)"><path class="f" d="M721.986,363.8s6.452,88.7-7.289,106.213-19.619,24.118-19.619,24.118L751.571,517.6S750.1,388.247,721.986,363.8Z" transform="translate(-695.078 -363.803)"/></g></g><g transform="translate(110.521 237.471)"><path class="a" d="M384.715,360.342s-33.411,24.1-45.526,19.325c-1.539-.606-36.264-7.9-36.264-7.9l-5.415,8.615,41.716,19.081L352,399.434l29.813-14.367Z" transform="translate(-297.51 -360.342)"/></g><g transform="translate(22.28 173.651)"><g transform="translate(72.18 32.668)"><path class="h" d="M282.928,320.6s5.149,2.575,6.055,16.13,4.072,21.87,4.072,21.87-4.04,3.061-7.774,1.753-5.055-1.44-5.026-7.036-3.236-31.517-3.236-31.517Z" transform="translate(-277.018 -320.595)"/></g><g transform="translate(68.305 30.187)"><path class="h" d="M272.074,326.766A13.583,13.583,0,0,1,284,335.74a11.971,11.971,0,0,0-6.823-18.31,13.842,13.842,0,0,0-4.718,9.34Z" transform="translate(-272.074 -317.43)"/></g><g transform="translate(0 18.254)"><path class="k" d="M246.764,359.684l-35.665.158L215.829,304l-11.183-1.791-19.721,64.089,16.245,15.044,40.594,5.549Z" transform="translate(-184.925 -302.206)"/></g><g transform="translate(33.85 69.474)"><g transform="translate(12.361 97.017)"><g transform="translate(0 143.551)"><path class="h" d="M244.479,679.307l-.593,4.815,8.622,6.207,5.2-4.119-4.015-5.511-8.622-6.207Z" transform="translate(-243.885 -674.492)"/></g><g transform="translate(0.302)"><path class="h" d="M247.988,492.17l-1.8,14.623,12.031,50.638-13.948,80.648,8.9,3.291L278.55,562.89l4.254-22.9.921-48.653Z" transform="translate(-244.271 -491.338)"/></g></g><g transform="translate(40.692 102.388)"><path class="h" d="M324.37,511.486,302.55,646.657l-8.578-.187.346-86.941-14.286-61.339Z" transform="translate(-280.033 -498.191)"/><g transform="translate(13.907 147.209)"><path class="h" d="M297.882,686.012l-.106,4.87,9.17,5.072,4.744-4.769-4.532-4.971Z" transform="translate(-297.776 -686.012)"/></g></g><path class="k" d="M239.316,468.259c7.426-43.47,5.8-75.28,6.328-83.993a18.214,18.214,0,0,1,6.6-13.11c2.634-.542,4.954-2.221,7.617-2.846,18.011-4.228,27.475,10,33.851,25.252A439.98,439.98,0,0,1,313.275,451.5c4.55,17.332,9.107,34.819,10.784,52.74.691,7.395,1.25,14.4-6.7,17.487-12.674,4.912-26.787,4.492-40.091,5.866-15.281,1.578-30.573,2.642-45.928,2.962C223.321,530.721,231.889,511.729,239.316,468.259Z" transform="translate(-228.114 -367.556)"/></g><g transform="translate(19.354)"><path class="j" d="M213.877,297.913l-4.259-8.5,5.893-10.5,6.153,2.041-1.432,10.373,2.5,2.912-1.565,4.719Z" transform="translate(-209.618 -278.915)"/></g><g transform="translate(74.294 69.522)"><path class="k" d="M279.716,367.617l17.09,3.423,34.338,34.695,40.828-.638,2.014,12.631-47.84,7.351-38.723-26.017Z" transform="translate(-279.716 -367.617)"/></g><g transform="translate(57.835 68.664)"><path class="a" d="M279.384,368.383l2.149,46.445-22.818-44.6L265.7,367.9l4.986-1.378Z" transform="translate(-258.716 -366.522)"/></g><g transform="translate(166.937 105.65)"><path class="j" d="M397.917,418.214l7.606-4.5,9.583,2.618-.112,5.162-16.127,2.68Z" transform="translate(-397.917 -413.713)"/></g><g transform="translate(55.209 36.662)"><path class="j" d="M280.074,332.943c-5.63-13-22.04-6.835-24.42,5.258-1.354,6.877,2.047,18.953,10.286,19.245.39,1.176,1.054,3.395,2.152,3.991,1.191.647,4.134-.889,5.3-1.45a1.935,1.935,0,0,0,.846-.636,3.626,3.626,0,0,0-.1-2.142,11.564,11.564,0,0,0,2.639-1.169c3.648-2.184,5.678-6.481,5.96-10.729S281.766,336.85,280.074,332.943Z" transform="translate(-255.366 -325.692)"/></g><g transform="translate(40.007 25.812)"><path class="h" d="M269.04,316.261s3.3,7-5.652,11.164-13.4,12.91-10.024,20.318,11.624,11.568,8.4,14.444-17.185,3.875-17.185,3.875-14.364-25.569-5.992-39.926S262.827,307.773,269.04,316.261Z" transform="translate(-235.969 -311.849)"/></g></g><g transform="translate(229.64 154.289)"><g transform="translate(50.986 21.122)"><path class="l" d="M634.732,681.024l.762,5.844-10.925,7.369-6.606-5.081,5.081-6.606,10.925-7.369Z" transform="translate(-536.906 -366.36)"/><g transform="translate(50.373 135.313)"><path class="h" d="M626.633,631.193l-8.576-74.53,9.994-83.473-2.316-17.748L580.4,453.805l-1.582,28.9,7.75,74.135,28.779,78.187Z" transform="translate(-578.814 -453.805)"/></g><g transform="translate(18.705 136.411)"><path class="h" d="M538.41,462.524l.022,75.227,15.324,96.813,10.9-.129,5.823-89.567,13.853-89.662Z" transform="translate(-538.41 -455.206)"/><path class="l" d="M567.006,688.12l-11.716,6.033-5.963-5.823,5.823-5.963,11.786-.14Z" transform="translate(-540.77 -504.294)"/></g><g transform="translate(0 52.334)"><path class="m" d="M618.872,464.753c-.11-3.26-.3-5.98-.324-6.951-.25-8.745-1.046-17.469-2.157-26.15-1-7.778-2.27-27.093-3.615-34.823-1.112-6.383-4.973-22.312-7.752-28.229-6.911-14.714-4.787-16.079-35.034-20.4-13.257-1.892-16.374,6.374-27.191,15.891-1.067.939-1,6.516-1.242,7.994-.432,2.6-.894,5.2-1.426,7.784-.418,2.032-.879,4.058-1.4,6.071h0s-9.018,41.409-15.016,50.211-18.4,21.116,2.4,28.581a74.253,74.253,0,0,0,11.231,2.909s17-1.921,25.74-1.872a148.535,148.535,0,0,1,24.057,2.2,51.76,51.76,0,0,1,15.44,4.615c4.521,2.351,7.789,5.816,12.377,8.252a2.393,2.393,0,0,0,1.4.4C619,480.864,619.1,471.614,618.872,464.753Z" transform="translate(-514.544 -347.933)"/></g><g transform="translate(13.424)"><path class="n" d="M581.511,343.574c1.528.751,5.129,1.014,8.883-.464a1.963,1.963,0,0,0,1.253-1.842,50.8,50.8,0,0,0-.562-6.818c2.816-1,6.069-2.488,6.555-5.435a8.415,8.415,0,0,0-.172-2.8L595.46,314.72a10.263,10.263,0,0,0-1.2-3.823c-1.268-1.99-3.724-2.857-6.051-3.257-5.936-1.019-12.4.279-16.994,4.174a9.193,9.193,0,0,0-2.865,3.792c-.828,2.329-.2,4.895.432,7.284q.875,3.308,1.75,6.617c.671,2.536,1.639,5.42,4.086,6.367,1.3.5,2.831.353,4.008,1.1C580.7,338.286,580.428,341.368,581.511,343.574Z" transform="translate(-539.517 -286.815)"/><path class="h" d="M539.346,299.767a24.966,24.966,0,0,0-1.919-2.742c-1.525-1.873-3.4-3.478-4.631-5.558s-1.665-4.9-.2-6.822a7.485,7.485,0,0,1,3.978-2.3,28.946,28.946,0,0,1,15.224-.31c4.743,1.2,8.991,3.189,13.76,1.4,4.482-1.684,7.722-1.007,12.412.657,5.076,1.8,11.885,2.214,16.481,4.761a13.54,13.54,0,0,1,4.649,4.567,20.41,20.41,0,0,1,.1,21.581A29.214,29.214,0,0,1,596.028,319c-2.388,2.6-5.244,5.809-8.534,6.777-.084-2.945,2.581-12.235.315-14.644-3.6-3.822-11.708-2.471-16.158-1.521-4.855,1.038-9.176,4.486-13.99,5.229-3.463.535-7.888-1.155-10.838-2.94C543.184,309.7,541.479,303.256,539.346,299.767Z" transform="translate(-531.672 -281.161)"/></g></g><g transform="translate(0 75.121)"><path class="n" d="M458.873,369.152l-9.382-6.016,2.4-4.122,7.337,2.7.229-2.475,7.4,6.126-1.913,4.621Z" transform="translate(-449.491 -351.995)"/><path class="m" d="M550.545,350.058l-48.853,20.136-30.876-6.769-3,5.908L496,390l38.789-4.691Z" transform="translate(-453.453 -350.058)"/></g><g transform="translate(120.879)"><path class="n" d="M675.786,267.086l.989-12.223-5.206-.65-2.531,8.221-2.319-1.45.428,10.563,5.32,1.406Z" transform="translate(-617.341 -254.212)"/><path class="m" d="M603.719,346.7l31.655-31.315,18.151-39.055,7.175,1.309-6.841,47.217-32.39,46.188Z" transform="translate(-603.719 -258.994)"/></g></g><g transform="translate(159.546 168.322)"><g transform="translate(22.343 167.207)"><path class="o" d="M400.223,687.978l-.254,5.117,9.98,5.624,5.371-4.863-4.863-5.371-9.98-5.624Z" transform="translate(-391.033 -528.139)"/><path class="f" d="M389.338,490.03l-.77,15.541,17.383,68.37L397.3,643.617l10.049,2.533,27.73-83.748.454-25.187-7.025-51.762Z" transform="translate(-388.567 -485.453)"/><g transform="translate(36.774 1.454)"><path class="f" d="M475.883,488.819l7.853,64.925L480.643,638.9l-9.419,1.029-14.4-76.689-21.339-75.93Z" transform="translate(-435.487 -487.308)"/><path class="o" d="M481.552,685.381l10.742,3.98,4.537-5.649-5.649-4.537L481,680.288Z" transform="translate(-445.328 -528.796)"/></g></g><g transform="translate(9.437 67.873)"><path class="a" d="M465.961,450.2c-9.739-19.74-13.654-41.4-18.777-62.7-1.514-6.284-3.085-12.7-6.593-18.134-4.028-6.235-9.581-9.022-15.728-10.086-7.824-1.354-16.611.082-24.441.752-4.71,14.812-7.813,6.418-13.348,20.941-1.148,3.01-4.373,29.073-5.582,32.06h0s-12.709,40.062-8.558,71.719c.042.314.076.618.113.926.826.139,1.618.281,2.358.43a158.933,158.933,0,0,0,33.566,3.23,130.862,130.862,0,0,0,29.683-3.8c13.278-3.311,29.054-2,39.9-10.772C475.356,468.288,469.158,456.673,465.961,450.2Z" transform="translate(-372.101 -358.715)"/></g><g transform="translate(63.265)"><path class="n" d="M496.46,283.277l-.43-11.137-4.768-.024-1.395,7.692-2.25-1.058,1.528,9.485,4.953.694Z" transform="translate(-450.906 -272.116)"/><path class="a" d="M440.778,344.256,469.2,322.729l9.817-30.047,6.616.405,3.528,34.777L458.9,371.022Z" transform="translate(-440.778 -276.563)"/></g><g transform="translate(0 22.9)"><path class="n" d="M400.072,324.531c3.973-12.56,22.162-17.16,26.6-2.684,1.333,4.35,2.163,8.972,1.357,13.45s-3.478,8.8-7.618,10.686l-.071.031q.267,1.735.535,3.471a.787.787,0,0,1-.821,1.086l-4.142.675a4.565,4.565,0,0,1-2.061.02c-1.452-.444-2.076-2.168-2.159-3.684-.02-.362-.022-.729-.021-1.1C403.443,343.79,397.474,332.741,400.072,324.531Z" transform="translate(-368.579 -303.829)"/><path class="h" d="M429.1,301.406c3.373-.179,5.9,3.315,8.81,5.3,2.42,1.651,5.279,2.3,7.816,3.717s4.906,4.1,4.673,7.161c2.814-1.142,5.855-2.3,8.8-1.434s5.4,4.717,3.923,7.56c-1.323,2.547-4.837,2.844-6.234,5.341-2.209,3.951,2.1,10.822-1.514,13.239-.868.582-1.981.636-2.838,1.238-1.064.747-1.517,2.162-2.077,3.4-2.537,5.631-8.764,8.876-14.484,7.549a15.447,15.447,0,0,1-6.893-9.9c-1.1-4.958,1.638-6.394,2.5-10.869a19.784,19.784,0,0,0-2.876-14.4c-1.785-2.686-4.476-5.11-7.506-5.692-1.232-.237-.939.838-2.246-.257a6.256,6.256,0,0,1-1.332-2.873C421.228,308.118,424.664,301.643,429.1,301.406Z" transform="translate(-372.508 -301.348)"/><path class="h" d="M380.824,304.195c-1.761.315-3.618.068-5.321.63-2.558.844-2.651,3.407-3.555,5.555-1,2.378-2.433,5.562-4.23,7.316-1.3,1.264-3,1.892-4.52,2.818a5.862,5.862,0,0,0-3.124,4.281c-.143,1.814.92,3.554.927,5.38-.039,2.717-.636,4.052-.066,6.886a8.4,8.4,0,0,0,1.607,4.084c1.285,1.412,3.29,1.577,5.077,1.449s3.651-.443,5.33.3c3.642,1.622,2.579,5.36,3.279,8.644,1.064,5,6.422,8.362,10.891,7.045,3.788-1.118,6.3-5.155,6.534-9.354.116-2.1-.533-4.133-.394-6.235.133-2.028,1.538-4.72-.142-6.5a14.514,14.514,0,0,1-1.321-1.176,2.982,2.982,0,0,1-.491-1.383,5.836,5.836,0,0,1,1.415-4.681c.795-.853,1.873-1.428,2.412-2.5.618-1.224.365-2.748.414-4.16a8.424,8.424,0,0,1,5.244-7.612,22.5,22.5,0,0,0,5.427-2.2c.267-.177,4.285-3.1,4.313-2.384a7.5,7.5,0,0,0-1.3-3.452,14.756,14.756,0,0,0-3.819-4.581c-5.157-3.664-6.114,3.626-10.4,2.249-1.035-.332-1.738-1.376-2.635-2.045-1.692-1.262-3.935-1.081-5.85-.437S382.808,303.84,380.824,304.195Z" transform="translate(-360.06 -301.334)"/></g></g><g transform="translate(129.648 345.946)"><g transform="translate(19.543 40.531)"><path class="p" d="M346.848,587.369l108.768,42.022L574.822,589.58,473.685,550.456Z" transform="translate(-346.848 -550.456)"/></g><g transform="translate(111.604 25.784)"><circle class="a" cx="45.203" cy="45.203" r="45.203" transform="translate(0 84.753) rotate(-69.63)"/><g class="q"><g transform="translate(15.977 19.096)"><g transform="translate(56.613 0.056)"><path class="r" d="M571.845,567.839l1.052-.785a36.957,36.957,0,0,0-15.5-10.975l-.473,1.225A36.236,36.236,0,0,1,571.845,567.839Z" transform="translate(-556.923 -556.078)"/></g><g transform="translate(11.511)"><path class="r" d="M500.427,567.712a36.353,36.353,0,0,1,14.961-10.48l-.468-1.227a36.96,36.96,0,0,0-15.542,10.917Z" transform="translate(-499.378 -556.006)"/></g><g transform="translate(74.269 37.861)"><path class="r" d="M580.407,629.592c3.087-3.286,5.526-8.527,7.248-15.576a71.5,71.5,0,0,0,1.664-9.59l-1.308-.114c-.014.168-1.547,16.916-8.56,24.381Z" transform="translate(-579.45 -604.312)"/></g><g transform="translate(0 37.708)"><path class="r" d="M493.508,629.425l.96-.9c-6.99-7.5-8.455-24.244-8.469-24.413l-1.309.109a71.678,71.678,0,0,0,1.628,9.6C488.015,620.878,490.434,626.128,493.508,629.425Z" transform="translate(-484.691 -604.117)"/></g><g transform="translate(31.528 78.088)"><path class="r" d="M534.625,658.12a49.514,49.514,0,0,0,10.842-1.175l-.313-1.275c-.1.026-10.591,2.533-19.887-.033l-.35,1.266A37.087,37.087,0,0,0,534.625,658.12Z" transform="translate(-524.917 -655.637)"/></g></g><g transform="translate(42.731 41.173)"><path class="h" d="M534.222,584.173l15.353,11.2-5.906,18.062-19-.036-5.838-18.084Z" transform="translate(-518.827 -584.173)"/></g><g transform="translate(42.792 2.128)"><path class="h" d="M534.257,563.617l-15.353-11.2,5.906-18.062,19,.036,5.839,18.084Z" transform="translate(-518.904 -534.357)"/></g><g transform="translate(64.758 65.665)"><g transform="translate(1.578 14.555)"><path class="h" d="M555.071,633.992l19,.268,5.617,18.154-15.53,10.952L548.944,651.98Z" transform="translate(-548.944 -633.992)"/></g><rect class="h" width="1.313" height="20.365" transform="translate(0 0.585) rotate(-26.463)"/></g><g transform="translate(69.193 28.428)"><g transform="translate(13.82)"><path class="h" d="M570.221,588l4.341-18.5,18.937-1.588,7.362,17.519-14.387,12.416Z" transform="translate(-570.221 -567.911)"/></g><g transform="translate(0 17.169)"><rect class="h" width="20.365" height="1.313" transform="translate(0 8.105) rotate(-23.452)"/></g></g><g transform="translate(18.862 65.871)"><g transform="translate(0 14.53)"><path class="h" d="M513.059,634.223l-19,.2-5.685,18.133,15.489,11.01,15.257-11.328Z" transform="translate(-488.372 -634.223)"/></g><g transform="translate(22.128)"><rect class="h" width="20.365" height="1.313" transform="matrix(0.449, -0.894, 0.894, 0.449, 0, 18.198)"/></g></g><g transform="translate(2.293 28.7)"><path class="h" d="M497.9,588.091l-4.544-18.452-18.953-1.38-7.169,17.6,14.522,12.257Z" transform="translate(-467.233 -568.259)"/><g transform="translate(25.263 16.966)"><rect class="h" width="1.313" height="20.365" transform="translate(0 1.21) rotate(-67.179)"/></g></g><g transform="translate(57.466 21.892)"><rect class="h" width="21.452" height="1.313" transform="translate(0 21.452) rotate(-89.894)"/></g></g></g><path class="p" d="M455.407,729.665,346.663,674.636l.145-77.2,108.726,42.032Z" transform="translate(-327.265 -520.085)"/><path class="f" d="M485.408,730.292l119.23-52.448.145-77.505L485.535,640.1Z" transform="translate(-357.266 -520.712)"/><g transform="translate(41.329)"><path class="m" d="M471.571,571.553A10.149,10.149,0,0,0,465,584.312h0a10.15,10.15,0,0,0,12.76,6.575l14.011-4.482a10.149,10.149,0,0,0,6.575-12.759h0a10.149,10.149,0,0,0-12.76-6.575Z" transform="translate(-394.076 -513.413)"/><path class="m" d="M487.5,614.341a12.3,12.3,0,0,0-16.574,5.3h0a12.305,12.305,0,0,0,5.3,16.574l15.852,8.168a12.305,12.305,0,0,0,16.574-5.3h0a12.3,12.3,0,0,0-5.3-16.574Z" transform="translate(-395.167 -523.443)"/><path class="m" d="M423.547,634.077a12.3,12.3,0,0,1,16.574-5.3h0a12.3,12.3,0,0,1,5.3,16.574L437.254,661.2a12.305,12.305,0,0,1-16.574,5.3h0a12.3,12.3,0,0,1-5.3-16.574Z" transform="translate(-383.156 -526.564)"/><path class="m" d="M396.356,595.612a10.149,10.149,0,0,0-6.575,12.759h0a10.15,10.15,0,0,0,12.76,6.575l14.011-4.482a10.149,10.149,0,0,0,6.575-12.759h0a10.15,10.15,0,0,0-12.76-6.575Z" transform="translate(-377.812 -518.616)"/><path class="m" d="M422.615,619.77a28.218,28.218,0,0,0,35.474,18.28h0a28.218,28.218,0,0,0,18.281-35.474l-3.141-9.821a28.219,28.219,0,0,0-35.475-18.28h0a28.219,28.219,0,0,0-18.28,35.474Z" transform="translate(-384.046 -514.827)"/><circle class="m" cx="30.471" cy="30.471" r="30.471" transform="translate(6.494 35.577) rotate(-33.591)"/><ellipse class="s" cx="25.847" cy="14.33" rx="25.847" ry="14.33" transform="translate(24.669 53.701) rotate(-17.738)"/><circle class="m" cx="14.239" cy="14.239" r="14.239" transform="translate(48.088 25.315) rotate(-62.738)"/><circle class="m" cx="14.239" cy="14.239" r="14.239" transform="matrix(0.458, -0.889, 0.889, 0.458, 0, 40.697)"/><g transform="translate(30.178 32.063)"><path class="h" d="M449.077,543.719A3.116,3.116,0,1,0,451.1,539.8,3.116,3.116,0,0,0,449.077,543.719Z" transform="translate(-420.885 -539.653)"/><circle class="h" cx="3.116" cy="3.116" r="3.116" transform="translate(0 8.971)"/></g><path class="h" d="M430.437,569.177a1.766,1.766,0,0,1,2.378-.761,9.359,9.359,0,0,0,5.447.973l-2.242-7.01c-3.9-1.242-4.618-4.029-4.618-4.029a2.809,2.809,0,0,1,1.684-3.507l4.315-1.38a2.809,2.809,0,0,1,3.405,1.879l.007.023c.091.261.9,2.833-1.43,5.937l2.242,7.012a9.362,9.362,0,0,0,3.871-3.954,1.765,1.765,0,1,1,3.138,1.617,12.96,12.96,0,0,1-17.437,5.577A1.764,1.764,0,0,1,430.437,569.177Z" transform="translate(-386.666 -510.551)"/><g transform="translate(12.571 11.819)"><path class="a" d="M461.4,515.006a7.647,7.647,0,0,1,2.384,10.548l-12.932-8.164A7.646,7.646,0,0,1,461.4,515.006Z" transform="translate(-403.693 -513.824)"/><path class="a" d="M391.255,537.338a7.647,7.647,0,0,1,9.973-4.18l-5.794,14.153A7.646,7.646,0,0,1,391.255,537.338Z" transform="translate(-390.683 -517.881)"/></g></g><path class="p" d="M485.57,640.1l21.2,36.411L622.505,630.82l-17.788-30.482Z" transform="translate(-357.301 -520.712)"/><path class="f" d="M321.913,621.7l103.289,49.1,24.981-31.324-108.84-42.032Z" transform="translate(-321.913 -520.084)"/></g><g transform="translate(446.877 72.162)"><path class="d" d="M820.446,152.573c-11.032-1.5-25.295,3.66-29.133,12.942-2.816-9.641-19.5-16.382-30.631-16.077-29.371.8-41.031,32.877-29.818,55.476,6.035,12.163,15.067,23,25.028,32.833,8.342,8.233,30.05,25.911,30.122,25.859.066.06,23.552-15.178,32.732-22.464,10.963-8.7,21.109-18.5,28.419-29.945C860.748,189.937,849.559,156.535,820.446,152.573Z" transform="translate(-726.661 -149.427)"/></g><g transform="translate(481.065 169.595)"><g transform="translate(5.078)"><path class="n" d="M783.328,292.379l-6.569-6.869L779.3,273.74l6.481.141,1.682,10.335,3.246,2.048-.108,4.97Z" transform="translate(-776.759 -273.74)"/></g><g transform="translate(37.363 19.598)"><g transform="translate(9.811 22.172)"><path class="n" d="M843.088,364.678l9.762-.443a48.687,48.687,0,0,0-.11-7.783c.03.314,5.232-2.441,5.693-3.065,1.323-1.8,1.472-4.808,2.02-6.942,1.166-4.546,2.262-9.665-.147-13.692-2.495-4.172-7.878-5.591-12.737-5.71-6.1-.147-12.91,1.644-16.037,6.884-2.825,4.734.763,11.7,1.794,16.7.508,2.465,1.281,5.276,3.573,6.313,1.217.55,2.692.488,3.78,1.263C842.594,359.572,842.169,362.508,843.088,364.678Z" transform="translate(-830.468 -327.034)"/></g><path class="h" d="M819.194,318.788l-1.107-10.115a8.74,8.74,0,0,1,.133-3.745c.67-1.985,2.682-3.228,4.7-3.779s4.15-.575,6.195-1.03c2.183-.484,4.3-1.462,6.538-1.368,4.248.179,7.507,4.114,11.707,4.777,5.816.918,11.149-1.756,14.672,5.08.647,1.256.828,2.7,1.4,3.995.738,1.669,2.078,2.985,3.126,4.479,4.609,6.57,3.141,16.555-2.419,22.141-2.7,2.708-3.8,5.155-7.517,6.029,1.7-3.468-.578-17.265-5.248-18.805-1.237-.408-4.946,1.111-6.314,1.314a36.306,36.306,0,0,0-8.83,2.127,44.081,44.081,0,0,1-13.407,3.364,1.7,1.7,0,0,1-2.249-1.835Q819.885,325.1,819.194,318.788Z" transform="translate(-817.951 -298.745)"/></g><g transform="translate(0 75.576)"><g transform="translate(46.023 82.502)"><g transform="translate(50.784 164.53)"><path class="h" d="M908.961,690.847l1.319,5.5-9.671,8.133-6.814-4.176,4.176-6.814,9.671-8.133Z" transform="translate(-893.794 -685.352)"/></g><path class="f" d="M872.4,475.43,876.4,492.12l-4.894,77.661L895.1,643.547l-10.377,4.8-47.147-85.126-5.631-27.211L829,478.461Z" transform="translate(-829 -475.43)"/></g><g transform="translate(23.648 82.667)"><path class="f" d="M801.152,482.218l-.7,72.134,13.767,92.979,10.452-.02,6.44-85.828,14.142-85.843Z" transform="translate(-800.453 -475.64)"/><g transform="translate(7.213 170.428)"><path class="h" d="M826.6,693.086l.011,5.651-11.292,5.672-5.662-5.641,5.641-5.662Z" transform="translate(-809.656 -693.086)"/></g></g><path class="t" d="M872.174,473.064c.156,6.581-.034,15.45-2.561,15.78a2.294,2.294,0,0,1-1.343-.4c-4.377-2.379-7.476-5.733-11.789-8.031a49.643,49.643,0,0,0-14.76-4.573,142.518,142.518,0,0,0-23.048-2.335,182.171,182.171,0,0,0-18.209.948c-5.027.428-9.7,1.927-14.826,1.582a32.928,32.928,0,0,1-14.918-4.7.884.884,0,0,1-.407-.4.9.9,0,0,1,.069-.615c1.067-2.941,1.832-5.852,3.775-8.289,2.169-2.722,3.709-6.178,5.275-9.274a148.671,148.671,0,0,0,8.613-20.088c3.442-9.342,7.378-18.443,10.7-27.815,2.306-6.5,4.408-13.109,7.541-19.27,2.454-4.823,6.831-11.872,12.114-14a16.44,16.44,0,0,1,5.69-.849l17.542-.537a14.188,14.188,0,0,1,6.294.76c2.915,1.31,4.566,4.366,6.011,7.216a139.979,139.979,0,0,1,12.948,40.791c1.217,7.425,2.344,14.866,3.224,22.334.982,8.335,1.662,16.708,1.818,25.095C871.947,467.327,872.1,469.937,872.174,473.064Z" transform="translate(-770.28 -370.167)"/></g><g transform="translate(0 15.258)"><path class="t" d="M803.716,378.06,770.281,350.8l8.277-57.522,12.785-.074-1.827,49.865,29.583,14.4Z" transform="translate(-770.281 -293.208)"/></g></g><g transform="translate(411.602 261.31)"><circle class="k" cx="49.488" cy="49.488" r="49.488" transform="matrix(0.566, -0.824, 0.824, 0.566, 0, 81.58)"/><path class="u" d="M756.659,409.767a53.945,53.945,0,1,0,51.813,56A53.945,53.945,0,0,0,756.659,409.767Zm-3.832,98.754a44.884,44.884,0,1,1,46.59-43.11A44.884,44.884,0,0,1,752.827,508.521Z" transform="translate(-685.756 -394.859)"/><path class="v" d="M755.347,402.71a59.478,59.478,0,1,0,57.128,61.74A59.478,59.478,0,0,0,755.347,402.71Zm-4.225,108.885a49.488,49.488,0,1,1,51.369-47.532A49.488,49.488,0,0,1,751.123,511.595Z" transform="translate(-684.229 -393.332)"/><g transform="translate(51.283 32.719)"><g transform="translate(0 8.24)"><path class="v" d="M747.883,485.083c-.587-.448-.658-1.336-.763-2.141a3.147,3.147,0,0,1,3.086-3.688c3.037-.227,6.028,2.206,8.713,3.634a17.144,17.144,0,0,0,7.389,1.942,10.841,10.841,0,0,0,7.1-1.812,6.843,6.843,0,0,0,2.889-5.472q.158-3.513-1.9-5.092t-7.208-1.811l-2.267-.1q-8.408-.377-12.661-4.087t-3.953-10.389q.294-6.53,4.763-9.948t12.26-3.068a21.055,21.055,0,0,1,6.425,1.354c4.505,1.681,11.908,5.717,10.1,10.191-2.061,5.1-9.72-2.765-12.482-4.1a14.647,14.647,0,0,0-5.763-1.325,9.211,9.211,0,0,0-6.337,1.773,6.608,6.608,0,0,0-2.6,5.113,4.679,4.679,0,0,0,2.232,4.562q2.372,1.445,10.4,2,8.562.632,12.37,4.148t3.494,10.492a13.815,13.815,0,0,1-4.849,10.489q-4.549,3.81-11.968,3.478a29.738,29.738,0,0,1-5.21-.754C757.589,489.667,751.93,488.172,747.883,485.083Z" transform="translate(-747.085 -443.017)"/></g><path class="v" d="M768.1,500.61l-.062,0a3.364,3.364,0,0,1-2.931-3.714l2.736-60.952a3.362,3.362,0,0,1,3.251-3.436l.063,0a3.364,3.364,0,0,1,2.931,3.714l-2.735,60.951A3.363,3.363,0,0,1,768.1,500.61Z" transform="translate(-750.98 -432.503)"/></g></g><g transform="translate(528.027 245.963)"><g transform="translate(0 59.574)"><path class="n" d="M846.011,447.187l-4.766,1.907-4.132-1.848-.836.677.791,1.063-3.869-.552-2.7,1.658-.3,4.21,2.431,3.62,4.211-.148,4.248-2.658,6.636-2.327Z" transform="translate(-830.199 -447.187)"/></g><g transform="translate(10.306)"><path class="t" d="M843.348,429.5l26.734-16.931-5.44-41.39,28.2,22.021-4.317,36.626-41.544,9Z" transform="translate(-843.348 -371.178)"/></g></g></g></g></svg>