<svg xmlns="http://www.w3.org/2000/svg" xmlns:xlink="http://www.w3.org/1999/xlink" width="76.8" height="62.371" viewBox="0 0 76.8 62.371"><defs><style>.a{fill:url(#a);}</style><linearGradient id="a" x1="1" y1="0.5" x2="0" y2="0.5" gradientUnits="objectBoundingBox"><stop offset="0" stop-color="#d24f45"/><stop offset="1" stop-color="#ed4b49"/></linearGradient></defs><g transform="translate(-0.5 -0.014)"><path class="a" d="M72.068.014H4.732A4.738,4.738,0,0,0,0,4.747V57.653a4.738,4.738,0,0,0,4.732,4.732H72.068A4.738,4.738,0,0,0,76.8,57.653V4.747A4.737,4.737,0,0,0,72.068.014ZM74.55,57.653a2.485,2.485,0,0,1-2.482,2.482H4.732A2.485,2.485,0,0,1,2.25,57.653V11.884H58.841a1.125,1.125,0,1,0,0-2.25H2.25V4.747A2.485,2.485,0,0,1,4.732,2.264H72.068A2.485,2.485,0,0,1,74.55,4.747V9.634h-10.9a1.125,1.125,0,1,0,0,2.25h10.9Z" transform="translate(0.5)"/><path class="a" d="M5.947,4.824H5.935a1.131,1.131,0,1,0,.012,0Z" transform="translate(0.5)"/><path class="a" d="M15.566,4.824h-.012a1.131,1.131,0,1,0,.012,0Z" transform="translate(0.5)"/><path class="a" d="M10.756,4.824h-.012a1.131,1.131,0,1,0,.012,0Z" transform="translate(0.5)"/><path class="a" d="M58.841,4.824H20.364a1.125,1.125,0,0,0,0,2.25H58.841a1.125,1.125,0,0,0,0-2.25Z" transform="translate(0.5)"/><path class="a" d="M70.865,4.824H63.651a1.125,1.125,0,0,0,0,2.25h7.215a1.125,1.125,0,0,0,0-2.25Z" transform="translate(0.5)"/><path class="a" d="M38.4,19.253a8.339,8.339,0,1,0,8.34,8.34A8.349,8.349,0,0,0,38.4,19.253Zm0,14.429a6.089,6.089,0,1,1,6.09-6.089A6.1,6.1,0,0,1,38.4,33.682Z" transform="translate(0.5)"/><path class="a" d="M17.959,19.253a8.339,8.339,0,1,0,8.34,8.34A8.349,8.349,0,0,0,17.959,19.253Zm0,14.429a6.089,6.089,0,1,1,6.09-6.089A6.1,6.1,0,0,1,17.959,33.682Z" transform="translate(0.5)"/><path class="a" d="M58.841,19.253a8.339,8.339,0,1,0,8.34,8.34A8.349,8.349,0,0,0,58.841,19.253Zm0,14.429a6.089,6.089,0,1,1,6.09-6.089A6.1,6.1,0,0,1,58.841,33.682Z" transform="translate(0.5)"/><path class="a" d="M21.159,25.594a1.125,1.125,0,0,0-1.591,0l-2.211,2.211L16.35,26.8a1.125,1.125,0,0,0-1.591,1.591l1.8,1.8a1.125,1.125,0,0,0,1.591,0l3.006-3.006A1.125,1.125,0,0,0,21.159,25.594Z" transform="translate(0.5)"/><path class="a" d="M41.6,25.594a1.125,1.125,0,0,0-1.591,0L37.8,27.805,36.791,26.8A1.125,1.125,0,0,0,35.2,28.388l1.8,1.8a1.125,1.125,0,0,0,1.591,0L41.6,27.185A1.125,1.125,0,0,0,41.6,25.594Z" transform="translate(0.5)"/><path class="a" d="M62.042,25.594a1.125,1.125,0,0,0-1.591,0L58.24,27.805,57.232,26.8a1.125,1.125,0,1,0-1.591,1.591l1.8,1.8a1.125,1.125,0,0,0,1.591,0l3.006-3.006A1.125,1.125,0,0,0,62.042,25.594Z" transform="translate(0.5)"/><path class="a" d="M25.174,40.9H10.744a1.125,1.125,0,1,0,0,2.25H25.174a1.125,1.125,0,0,0,0-2.25Z" transform="translate(0.5)"/><path class="a" d="M25.174,50.516H10.744a1.125,1.125,0,1,0,0,2.25H25.174a1.125,1.125,0,1,0,0-2.25Z" transform="translate(0.5)"/><path class="a" d="M45.615,40.9H31.186a1.125,1.125,0,0,0,0,2.25H45.615a1.125,1.125,0,0,0,0-2.25Z" transform="translate(0.5)"/><path class="a" d="M45.615,50.516H31.186a1.125,1.125,0,1,0,0,2.25H45.615a1.125,1.125,0,0,0,0-2.25Z" transform="translate(0.5)"/><path class="a" d="M45.615,45.706h-2.4a1.125,1.125,0,0,0,0,2.25h2.4a1.125,1.125,0,0,0,0-2.25Z" transform="translate(0.5)"/><path class="a" d="M38.4,45.706H31.185a1.125,1.125,0,0,0,0,2.25H38.4a1.125,1.125,0,0,0,0-2.25Z" transform="translate(0.5)"/><path class="a" d="M25.174,45.706h-2.4a1.125,1.125,0,0,0,0,2.25h2.4a1.125,1.125,0,0,0,0-2.25Z" transform="translate(0.5)"/><path class="a" d="M17.959,45.706H10.744a1.125,1.125,0,1,0,0,2.25h7.215a1.125,1.125,0,0,0,0-2.25Z" transform="translate(0.5)"/><path class="a" d="M66.056,45.706h-2.4a1.125,1.125,0,0,0,0,2.25h2.4a1.125,1.125,0,0,0,0-2.25Z" transform="translate(0.5)"/><path class="a" d="M58.841,45.706H51.626a1.125,1.125,0,0,0,0,2.25h7.215a1.125,1.125,0,0,0,0-2.25Z" transform="translate(0.5)"/><path class="a" d="M66.056,40.9H51.626a1.125,1.125,0,0,0,0,2.25H66.056a1.125,1.125,0,0,0,0-2.25Z" transform="translate(0.5)"/><path class="a" d="M66.056,50.516H51.626a1.125,1.125,0,0,0,0,2.25H66.056a1.125,1.125,0,0,0,0-2.25Z" transform="translate(0.5)"/></g></svg>