<svg xmlns="http://www.w3.org/2000/svg" xmlns:xlink="http://www.w3.org/1999/xlink" width="76.032" height="59.368" viewBox="0 0 76.032 59.368"><defs><style>.a{fill:url(#a);}</style><linearGradient id="a" y1="16.044" x2="0" y2="-26.209" gradientUnits="objectBoundingBox"><stop offset="0" stop-color="#d24f45"/><stop offset="1" stop-color="#ed4b49"/></linearGradient></defs><path class="a" d="M73.8,15.474H61.9a2.312,2.312,0,0,0-2.381,2.232v2.529H46.423a2.312,2.312,0,0,0-2.381,2.232V47.613H2.381a.263.263,0,0,1-.148-.149V42.7H41.661V40.471H2.232V2.232c0-.041.107,0,.148,0H66.658c.041,0,0-.041,0,0V12.945H68.89V2.232A2.184,2.184,0,0,0,66.658,0H2.381A2.312,2.312,0,0,0,0,2.232V47.464a2.438,2.438,0,0,0,2.381,2.381h25v7.29H22.616v2.232H46.423V57.135h-4.91v-7.29h2.529v2.381a2.438,2.438,0,0,0,2.381,2.381H66.658a2.312,2.312,0,0,0,2.232-2.381V43.893H73.8a2.312,2.312,0,0,0,2.232-2.381V17.706A2.184,2.184,0,0,0,73.8,15.474ZM39.281,57.135H29.61v-7.29h9.671ZM61.9,17.706H73.8c.041,0,0-.041,0,0v2.529H61.748V17.706C61.748,17.665,61.856,17.706,61.9,17.706Zm-.149,4.761H73.8V36.9H61.748Zm4.91,29.906H46.423a.265.265,0,0,1-.149-.148V49.845H66.658v2.381C66.658,52.267,66.7,52.374,66.658,52.374Zm0-4.761H46.274V22.468c0-.041.108,0,.149,0H59.516V41.513A2.438,2.438,0,0,0,61.9,43.893h4.761ZM73.8,41.661H61.9a.265.265,0,0,1-.149-.149V39.132H73.8v2.381C73.8,41.554,73.841,41.661,73.8,41.661Z"/><path class="a" d="M28.568,35.71h2.381v2.232H28.568Z"/><path class="a" d="M33.329,35.71H35.71v2.232H33.329Z"/><path class="a" d="M38.09,35.71h2.381v2.232H38.09Z"/><path class="a" d="M6.993,10.564V6.993h3.719V4.761H4.761v5.8Z"/><path class="a" d="M47.613,28.419h2.232V26.038h2.529V23.806H47.613Z"/><path class="a" d="M63.087,23.806v4.613h2.232V26.038h2.529V23.806Z"/></svg>