<svg xmlns="http://www.w3.org/2000/svg" xmlns:xlink="http://www.w3.org/1999/xlink" width="74.4" height="74.4" viewBox="0 0 74.4 74.4"><defs><style>.a{fill:url(#a);}</style><linearGradient id="a" y1="16.044" x2="0" y2="-26.209" gradientUnits="objectBoundingBox"><stop offset="0" stop-color="#d24f45"/><stop offset="1" stop-color="#ed4b49"/></linearGradient></defs><path class="a" d="M16.8,4.8H24V7.2H16.8Z"/><path class="a" d="M20.4,62.4A3.6,3.6,0,1,0,24,66,3.6,3.6,0,0,0,20.4,62.4Zm0,4.8A1.2,1.2,0,1,1,21.6,66,1.2,1.2,0,0,1,20.4,67.2Z"/><path class="a" d="M16.945,21.248a6.993,6.993,0,0,0-9.89,0l-.206.206A7.042,7.042,0,0,0,4.8,26.4a8.631,8.631,0,0,0,1.619,5.051l4.6,6.446a1.2,1.2,0,0,0,1.952,0l4.6-6.446A8.623,8.623,0,0,0,19.2,26.4a7.042,7.042,0,0,0-2.048-4.945Zm-1.318,8.808L12,35.135,8.371,30.056A6.253,6.253,0,0,1,7.2,26.4a4.629,4.629,0,0,1,1.345-3.248l.206-.206a4.595,4.595,0,0,1,6.5,0l.206.206A4.629,4.629,0,0,1,16.8,26.4a6.245,6.245,0,0,1-1.172,3.656Z"/><path class="a" d="M72.352,55.055l-.206-.206a6.993,6.993,0,0,0-9.89,0l-.206.206A7.042,7.042,0,0,0,60,60a8.631,8.631,0,0,0,1.619,5.051l4.6,6.446a1.2,1.2,0,0,0,1.952,0l4.6-6.446A8.623,8.623,0,0,0,74.4,60a7.042,7.042,0,0,0-2.048-4.945Zm-1.524,8.6L67.2,68.735l-3.629-5.078A6.253,6.253,0,0,1,62.4,60a4.629,4.629,0,0,1,1.345-3.248l.206-.206a4.595,4.595,0,0,1,6.5,0l.206.206A4.629,4.629,0,0,1,72,60,6.245,6.245,0,0,1,70.828,63.656Z"/><path class="a" d="M10.8,40.8h2.4v2.4H10.8Z"/><path class="a" d="M10.8,45.6h2.4V48H10.8Z"/><path class="a" d="M10.8,50.4h2.4v2.4H10.8Z"/><path class="a" d="M15.6,50.4H18v2.4H15.6Z"/><path class="a" d="M20.4,50.4h2.4v2.4H20.4Z"/><path class="a" d="M25.2,50.4h2.4v2.4H25.2Z"/><path class="a" d="M30,50.4h2.4v2.4H30Z"/><path class="a" d="M34.8,50.4h2.4v2.4H34.8Z"/><path class="a" d="M42,50.4h2.4v2.4H42Z"/><path class="a" d="M46.8,50.4h2.4v2.4H46.8Z"/><path class="a" d="M46.8,55.2h2.4v2.4H46.8Z"/><path class="a" d="M46.8,60h2.4v2.4H46.8Z"/><path class="a" d="M46.8,64.8h2.4v2.4H46.8Z"/><path class="a" d="M46.8,69.6h2.4V72H46.8Z"/><path class="a" d="M51.6,69.6H54V72H51.6Z"/><path class="a" d="M56.4,69.6h2.4V72H56.4Z"/><path class="a" d="M61.2,69.6h2.4V72H61.2Z"/><path class="a" d="M70.8,19.2a12,12,0,0,0-23.758-2.4H40.8V7.2A7.207,7.207,0,0,0,33.6,0H7.2A7.207,7.207,0,0,0,0,7.2v60a7.207,7.207,0,0,0,7.2,7.2H33.6a7.207,7.207,0,0,0,7.2-7.2V45.6H54a1.2,1.2,0,0,0,1.2-1.2V30.647A12,12,0,0,0,70.8,19.2Zm-33.6,0H42v7.9l-1.552-1.552a1.2,1.2,0,0,0-1.7,0L37.2,27.1ZM7.2,2.4H33.6a4.8,4.8,0,0,1,4.8,4.8V9.6H2.4V7.2A4.8,4.8,0,0,1,7.2,2.4ZM33.6,72H7.2a4.8,4.8,0,0,1-4.8-4.8V60h36v7.2A4.8,4.8,0,0,1,33.6,72Zm4.8-14.4H2.4V12h36v4.8H25.2A1.2,1.2,0,0,0,24,18V44.4a1.2,1.2,0,0,0,1.2,1.2H38.4Zm-12-14.4V40.8H52.8v2.4Zm26.4-4.8H26.4V19.2h8.4V30a1.2,1.2,0,0,0,2.048.848L39.6,28.1l2.752,2.752a1.2,1.2,0,0,0,.848.352,1.185,1.185,0,0,0,.46-.091A1.2,1.2,0,0,0,44.4,30V19.2h2.4a12,12,0,0,0,6,10.376Zm6-9.6a9.6,9.6,0,1,1,9.6-9.6A9.611,9.611,0,0,1,58.8,28.8Z"/><path class="a" d="M56.4,21.1l-1.552-1.552-1.7,1.7,2.4,2.4a1.2,1.2,0,0,0,1.7,0l7.2-7.2-1.7-1.7Z"/></svg>