<svg xmlns="http://www.w3.org/2000/svg" xmlns:xlink="http://www.w3.org/1999/xlink" width="80.178" height="80.178" viewBox="0 0 80.178 80.178"><defs><style>.a{fill:url(#a);}</style><linearGradient id="a" x1="0.5" y1="0.934" x2="0.5" y2="-0.224" gradientUnits="objectBoundingBox"><stop offset="0" stop-color="#d24f45"/><stop offset="1" stop-color="#ed4b49"/></linearGradient></defs><g transform="translate(-0.4 -0.4)"><g transform="translate(0.4 0.4)"><g transform="translate(0 0)"><g transform="translate(0 0)"><path class="a" d="M60.49,11.764a4.274,4.274,0,0,0-.24-.363,5.208,5.208,0,0,0-7.268-1.2L38.042,20.869H22.434a1.336,1.336,0,0,1,0-2.673H31.12A4.682,4.682,0,0,0,35.8,13.519c0-.015,0-.138,0-.151a4.693,4.693,0,0,0-4.781-4.526H13.629A6.706,6.706,0,0,0,9.4,10.393L2.87,15.832a1.341,1.341,0,0,0-.481,1.028V32.9a1.336,1.336,0,0,0,1.336,1.336H36.881a9.376,9.376,0,0,0,5.955-2.15L59.036,18.7A5.252,5.252,0,0,0,60.49,11.764Zm-3.08,4.813L41.133,30.022a6.7,6.7,0,0,1-4.254,1.537H5.062V17.486l6.055-5.041a4.02,4.02,0,0,1,2.524-.931H31.056a2.042,2.042,0,0,1,2.069,2.006,2.007,2.007,0,0,1-2,2H22.434a4.009,4.009,0,1,0,0,8.018H38.469a1.353,1.353,0,0,0,.779-.248l15.29-10.919a2.536,2.536,0,0,1,3.548.593c.04.055.076.111.111.168A2.6,2.6,0,0,1,57.411,16.577Z" transform="translate(10.974 40.602)"/><path class="a" d="M14.659,9.8H0v2.673H13.323V32.514H0v2.672H14.659A1.336,1.336,0,0,0,16,33.85V11.133A1.336,1.336,0,0,0,14.659,9.8Z" transform="translate(0 44.992)"/><path class="a" d="M4.487,11.947A4.009,4.009,0,1,0,8.5,15.956,4.014,4.014,0,0,0,4.487,11.947Zm0,5.345a1.336,1.336,0,1,1,1.336-1.336A1.337,1.337,0,0,1,4.487,17.292Z" transform="translate(2.195 54.869)"/><path class="a" d="M78.842,7.407H1.336A1.336,1.336,0,0,0,0,8.743,9.365,9.365,0,0,0,9.354,18.1h61.47a9.366,9.366,0,0,0,9.355-9.354A1.335,1.335,0,0,0,78.842,7.407Zm-8.018,8.018H9.354A6.692,6.692,0,0,1,2.807,10.08H77.371A6.692,6.692,0,0,1,70.825,15.425Z" transform="translate(0 34.019)"/><path class="a" d="M35.7,1.195A34.784,34.784,0,0,0,.956,35.939v1.336a1.336,1.336,0,0,0,1.336,1.336H69.107a1.335,1.335,0,0,0,1.336-1.336V35.939A34.783,34.783,0,0,0,35.7,1.195ZM3.628,35.939a32.071,32.071,0,1,1,64.143,0Z" transform="translate(4.389 5.487)"/><path class="a" d="M5.352,3.92A29.872,29.872,0,0,0,2.778,7.262L5.005,8.739A27.305,27.305,0,0,1,7.349,5.695Z" transform="translate(12.758 18.005)"/><path class="a" d="M23.689,2.15a29.293,29.293,0,0,0-20.118,7.98L5.4,12.078A26.626,26.626,0,0,1,23.69,4.823Z" transform="translate(16.4 9.876)"/><rect class="a" width="8.018" height="5.593" transform="translate(36.08)"/><rect class="a" width="5.593" height="6.682" transform="translate(38.753 1.336)"/></g></g></g></g></svg>