<svg id="typescript-plain_copy_3" data-name="typescript-plain copy 3" xmlns="http://www.w3.org/2000/svg" width="23" height="24" viewBox="0 0 23 24">
  <path id="plain" d="M23,24H0V0H23V24Zm-7.528-5.278-.661.4-.847.507a1.735,1.735,0,0,0-.212.14,4.253,4.253,0,0,0,.6.925,4.2,4.2,0,0,0,2.335,1.257,6.752,6.752,0,0,0,1.751.02,3.1,3.1,0,0,0,2.545-1.9,3.6,3.6,0,0,0-.267-2.926c-.439-.7-1.143-1.181-2.789-1.921-.894-.4-1.18-.6-1.332-.933a.912.912,0,0,1-.1-.449.936.936,0,0,1,.255-.684,1.052,1.052,0,0,1,.767-.279c.039,0,.08,0,.121,0a1.288,1.288,0,0,1,1.08.678c.088.138.174.237.2.237l.005,0c.583-.377,1.6-1.091,1.6-1.123a3.965,3.965,0,0,0-.553-.768,2.823,2.823,0,0,0-1.438-.864,5.96,5.96,0,0,0-1.033-.092,5.6,5.6,0,0,0-.713.046,2.847,2.847,0,0,0-2.359,2.28,4.979,4.979,0,0,0,.041,1.535,3.222,3.222,0,0,0,.631,1.2,5.644,5.644,0,0,0,2.165,1.39c1.027.468,1.4.693,1.58.96a1.075,1.075,0,0,1-.127,1.328,1.688,1.688,0,0,1-1.151.389,2.3,2.3,0,0,1-1.087-.27,3.136,3.136,0,0,1-.872-.871ZM8.024,11.056c-1.418,0-2.941.005-2.96.02a9.894,9.894,0,0,0-.025.991v.96H8.032v8.878h2.118V13.029h2.986v-.983l-.011-.989h-5.1Z" fill="#007acc"/>
</svg>
