<svg xmlns="http://www.w3.org/2000/svg" xmlns:xlink="http://www.w3.org/1999/xlink" width="76.8" height="74.1" viewBox="0 0 76.8 74.1"><defs><style>.a{fill:url(#a);}</style><linearGradient id="a" y1="16.044" x2="0" y2="-26.209" gradientUnits="objectBoundingBox"><stop offset="0" stop-color="#d24f45"/><stop offset="1" stop-color="#ed4b49"/></linearGradient></defs><path class="a" d="M45.178,27.85A17.385,17.385,0,0,0,27.823,10.475a17.18,17.18,0,0,0-10.463,3.51,1.125,1.125,0,1,0,1.359,1.793,14.947,14.947,0,0,1,9.1-3.053A15.119,15.119,0,0,1,39.156,37.835a11.669,11.669,0,0,0-5.178-7.392,7.975,7.975,0,1,0-12.31,0,11.666,11.666,0,0,0-5.181,7.392A15.118,15.118,0,0,1,15.3,19.384a1.125,1.125,0,1,0-1.864-1.26,17.363,17.363,0,1,0,31.74,9.726ZM27.823,19.641A5.732,5.732,0,1,1,22.1,25.373a5.735,5.735,0,0,1,5.725-5.732ZM18.492,39.735a9.392,9.392,0,0,1,4.928-7.712,7.947,7.947,0,0,0,8.806,0,9.394,9.394,0,0,1,4.924,7.712,15.067,15.067,0,0,1-18.658,0Z"/><path class="a" d="M73.94,45.7h-.932a19.885,19.885,0,0,0-1.92-4.635l.663-.664a2.869,2.869,0,0,0,0-4.042L68.32,32.924a2.864,2.864,0,0,0-4.041,0l-.662.663a19.862,19.862,0,0,0-4.629-1.921v-.934a2.862,2.862,0,0,0-2.855-2.862h-.486V24.9a3.237,3.237,0,0,0-3.234-3.232H51.1a23.864,23.864,0,0,0-2.453-5.915l.937-.938a3.242,3.242,0,0,0,0-4.57L45.41,6.068a3.238,3.238,0,0,0-4.568,0L39.907,7A23.844,23.844,0,0,0,34,4.551V3.232A3.234,3.234,0,0,0,30.77,0h-5.9a3.234,3.234,0,0,0-3.23,3.232V4.551A23.923,23.923,0,0,0,15.736,7L14.8,6.067a3.237,3.237,0,0,0-4.568,0L6.059,10.245a3.242,3.242,0,0,0,0,4.568L7,15.75a23.866,23.866,0,0,0-2.449,5.914H3.23A3.234,3.234,0,0,0,0,24.9v5.9a3.234,3.234,0,0,0,3.23,3.232H4.549A23.784,23.784,0,0,0,7,39.946l-.936.937a3.237,3.237,0,0,0,0,4.57l4.173,4.177a3.236,3.236,0,0,0,4.566,0l.936-.937a23.809,23.809,0,0,0,5.907,2.454v1.318a3.236,3.236,0,0,0,3.23,3.236h5.9a3.211,3.211,0,0,0,.843-.116,2.846,2.846,0,0,0,1.857.69H34.4a19.9,19.9,0,0,0,1.919,4.633l-.665.664a2.877,2.877,0,0,0,0,4.044l3.434,3.437a2.872,2.872,0,0,0,4.044,0l.658-.661a19.854,19.854,0,0,0,4.627,1.92v.934a2.862,2.862,0,0,0,2.86,2.857h4.851a2.86,2.86,0,0,0,2.856-2.857v-.934a19.846,19.846,0,0,0,4.628-1.921l.662.663a2.864,2.864,0,0,0,4.041,0l3.434-3.437a2.877,2.877,0,0,0,0-4.045l-.661-.66a19.9,19.9,0,0,0,1.919-4.633h.932a2.864,2.864,0,0,0,2.86-2.862V48.557A2.862,2.862,0,0,0,73.94,45.7ZM32.628,49.166a1.125,1.125,0,0,0-.879,1.1v2.2a.987.987,0,0,1-.409.8l-.06.04a.967.967,0,0,1-.51.146h-5.9a.984.984,0,0,1-.98-.986v-2.2a1.125,1.125,0,0,0-.878-1.1,21.607,21.607,0,0,1-6.847-2.845,1.125,1.125,0,0,0-1.4.155l-1.561,1.562a.982.982,0,0,1-1.384,0L7.653,43.863a1,1,0,0,1,0-1.389l1.56-1.562a1.125,1.125,0,0,0,.154-1.4A21.566,21.566,0,0,1,6.53,32.661a1.125,1.125,0,0,0-1.1-.879H3.23a.994.994,0,0,1-.98-.982V24.9a.994.994,0,0,1,.98-.982h2.2a1.125,1.125,0,0,0,1.1-.879,21.643,21.643,0,0,1,2.838-6.855,1.125,1.125,0,0,0-.155-1.4L7.653,13.222a1,1,0,0,1,0-1.389L11.822,7.66a.983.983,0,0,1,1.387,0l1.56,1.562a1.125,1.125,0,0,0,1.4.155,21.71,21.71,0,0,1,6.849-2.845,1.125,1.125,0,0,0,.876-1.1v-2.2a.994.994,0,0,1,.98-.982h5.9a.994.994,0,0,1,.98.982v2.2a1.125,1.125,0,0,0,.877,1.1,21.625,21.625,0,0,1,6.848,2.844,1.125,1.125,0,0,0,1.4-.154l1.561-1.562a.988.988,0,0,1,1.384,0l4.169,4.173a1,1,0,0,1,0,1.391l-1.56,1.562a1.125,1.125,0,0,0-.155,1.4,21.65,21.65,0,0,1,2.842,6.855,1.125,1.125,0,0,0,1.1.879h2.2a.984.984,0,0,1,.984.982v5.9a.984.984,0,0,1-.984.982h-2.2a1.125,1.125,0,0,0-1.1.879,21.566,21.566,0,0,1-2.841,6.853,1.125,1.125,0,0,0,.154,1.4l1.561,1.562a1,1,0,0,1,0,1.389l-4.171,4.175a.988.988,0,0,1-1.385,0l-1.56-1.562a1.125,1.125,0,0,0-1.4-.154A21.51,21.51,0,0,1,32.628,49.166ZM74.55,53.413a.619.619,0,0,1-.61.611H72.129a1.125,1.125,0,0,0-1.1.878,17.668,17.668,0,0,1-2.311,5.579,1.125,1.125,0,0,0,.156,1.4l1.28,1.277a.619.619,0,0,1,0,.868L66.728,67.46a.614.614,0,0,1-.857,0l-1.284-1.285a1.125,1.125,0,0,0-1.4-.155,17.637,17.637,0,0,1-5.573,2.313,1.125,1.125,0,0,0-.878,1.1v1.813a.607.607,0,0,1-.605.607H51.281a.609.609,0,0,1-.61-.607V69.429a1.125,1.125,0,0,0-.878-1.1,17.636,17.636,0,0,1-5.573-2.313,1.125,1.125,0,0,0-1.4.157l-1.276,1.282a.615.615,0,0,1-.864,0l-3.429-3.432a.619.619,0,0,1,0-.867l1.284-1.281a1.125,1.125,0,0,0,.156-1.4A17.668,17.668,0,0,1,36.379,54.9a1.125,1.125,0,0,0-1.1-.878H33.6a3.219,3.219,0,0,0,.4-1.561V51.147a23.732,23.732,0,0,0,5.907-2.454l.935.936a3.233,3.233,0,0,0,.52.421c-.024.317-.037.628-.037.938a12.38,12.38,0,1,0,24.76,0,1.125,1.125,0,0,0-2.25,0,10.13,10.13,0,1,1-20.26,0c0-.149,0-.3.012-.452a3.194,3.194,0,0,0,1.823-.907l4.171-4.175a3.236,3.236,0,0,0,.49-3.933,10.129,10.129,0,0,1,12.586,4.713,1.125,1.125,0,0,0,1.986-1.056,12.38,12.38,0,0,0-15.8-5.587A23.778,23.778,0,0,0,51.1,34.032h1.315A3.237,3.237,0,0,0,55.646,30.8v-.68h.486a.617.617,0,0,1,.606.612v1.813a1.125,1.125,0,0,0,.878,1.1,17.632,17.632,0,0,1,5.573,2.313,1.125,1.125,0,0,0,1.4-.155l1.284-1.285a.614.614,0,0,1,.857,0l3.429,3.432a.621.621,0,0,1,0,.864L68.875,40.1a1.125,1.125,0,0,0-.155,1.4,17.679,17.679,0,0,1,2.311,5.579,1.125,1.125,0,0,0,1.1.878H73.94a.617.617,0,0,1,.61.607v4.856Z"/></svg>