<svg id="Group_5" data-name="Group 5" xmlns="http://www.w3.org/2000/svg" width="112.976" height="37.769" viewBox="0 0 112.976 37.769">
  <g id="Group_2" data-name="Group 2" opacity="0.5">
    <path id="ever_copy_4" data-name="ever copy 4" d="M59.476,22.368a9.878,9.878,0,0,1-7.344-2.7A9.5,9.5,0,0,1,49.7,12.909a13.031,13.031,0,0,1,3.584-9.164A12.617,12.617,0,0,1,62.451,0a8.724,8.724,0,0,1,6.123,2.07,6.978,6.978,0,0,1,2.081,5.237,14.284,14.284,0,0,1-1.286,5.561H56.862a3.218,3.218,0,0,0,.877,2.382,4.338,4.338,0,0,0,3.184,1.109,11.969,11.969,0,0,0,5.671-1.867L68.6,19.85A17.029,17.029,0,0,1,59.476,22.368ZM62.089,5.561a4.507,4.507,0,0,0-4.383,3.085h6.8a3.461,3.461,0,0,0,.2-1.055C64.7,6.339,63.7,5.561,62.089,5.561ZM9.772,22.368a9.878,9.878,0,0,1-7.344-2.7A9.5,9.5,0,0,1,0,12.909,13.031,13.031,0,0,1,3.584,3.745,12.617,12.617,0,0,1,12.748,0,8.724,8.724,0,0,1,18.87,2.07a6.978,6.978,0,0,1,2.081,5.237,14.284,14.284,0,0,1-1.287,5.561H7.158a3.22,3.22,0,0,0,.878,2.383,4.339,4.339,0,0,0,3.183,1.109,11.967,11.967,0,0,0,5.67-1.867L18.9,19.85A17.027,17.027,0,0,1,9.772,22.368ZM12.386,5.561A4.507,4.507,0,0,0,8,8.646h6.8A3.461,3.461,0,0,0,15,7.591C15,6.339,14,5.561,12.386,5.561ZM34.181,22.2c-3.315,0-5.716-.855-7.136-2.542-1.353-1.608-1.78-3.921-1.268-6.876L26.5,8.525c.158-.8.129-1.272-.091-1.54a.765.765,0,0,0-.633-.246,4.949,4.949,0,0,0-1.971.447l.845-6.17A13.751,13.751,0,0,1,29.637.2a4.976,4.976,0,0,1,4,1.446c.89,1.062,1.14,2.733.742,4.968L33.5,11.569c-.228,1.457-.106,2.437.373,3a1.693,1.693,0,0,0,1.356.534,2.949,2.949,0,0,0,2.729-1.543,11.006,11.006,0,0,0,1.01-5.439A31.507,31.507,0,0,0,37.922.568h8a44.136,44.136,0,0,1,.6,6.82C46.526,16.943,42.142,22.2,34.181,22.2ZM82,21.8h-7.52L76.767,8.525a2.13,2.13,0,0,0-.114-1.557.752.752,0,0,0-.61-.23,6.4,6.4,0,0,0-2.011.447l.885-6.17A15.2,15.2,0,0,1,79.944.2a5.856,5.856,0,0,1,3.061.715,3.6,3.6,0,0,1,1.643,2.329A6.087,6.087,0,0,1,90,.2a7.367,7.367,0,0,1,3.539.852L91.4,8.2a8.879,8.879,0,0,0-3.82-.852c-2.44,0-3.34,2.111-3.659,3.37L82,21.8Z" fill="#fff"/>
    <g id="Group_4_Copy_2" data-name="Group 4 Copy 2" transform="translate(89.469 12.878)">
      <path id="Combined_Shape" data-name="Combined Shape" d="M0,4.745A4.745,4.745,0,1,1,4.745,9.49,4.75,4.75,0,0,1,0,4.745Zm.633,0A4.112,4.112,0,1,0,4.745.633,4.117,4.117,0,0,0,.633,4.745Zm2.6,2.373H2.574l.879-5.06,1.522,0a1.7,1.7,0,0,1,1.213.4,1.266,1.266,0,0,1,.351,1.087,1.458,1.458,0,0,1-.346.838,1.9,1.9,0,0,1-.818.545l.786,2.138,0,.044H5.462L4.753,5.071H3.586L3.231,7.117h0Zm.449-2.594.959,0a1.345,1.345,0,0,0,.844-.266,1.044,1.044,0,0,0,.4-.711.821.821,0,0,0-.174-.68.932.932,0,0,0-.689-.261l-1.011,0Z" fill="#fff"/>
    </g>
  </g>
  <g id="Group_4" data-name="Group 4" transform="translate(0 29.429)">
    <g id="Group_3" data-name="Group 3" transform="translate(0 0.277)">
      <rect id="Rectangle" width="10.13" height="1.447" fill="#d0bc30"/>
      <circle id="Oval" cx="1.085" cy="1.085" r="1.085" transform="translate(0 5.788)" fill="#d0bc30"/>
      <circle id="Oval-2" data-name="Oval" cx="1.085" cy="1.085" r="1.085" transform="translate(7.959 5.788)" fill="#d0bc30"/>
      <rect id="Rectangle_Copy" data-name="Rectangle Copy" width="7.236" height="1.447" transform="translate(0 2.894)" fill="#d0bc30"/>
    </g>
    
    <path id="OPENPLATFORM" d="M78.779,8.34a2.969,2.969,0,0,1-1.414-.326,2.336,2.336,0,0,1-.948-.919,2.762,2.762,0,0,1-.337-1.384V2.617a2.738,2.738,0,0,1,.337-1.373,2.34,2.34,0,0,1,.948-.919A2.979,2.979,0,0,1,78.779,0,3.011,3.011,0,0,1,80.2.326a2.332,2.332,0,0,1,.954.919,2.746,2.746,0,0,1,.337,1.373V5.711A2.77,2.77,0,0,1,81.152,7.1a2.328,2.328,0,0,1-.954.919A3,3,0,0,1,78.779,8.34Zm0-6.933a.991.991,0,0,0-.768.319,1.209,1.209,0,0,0-.291.843V5.782a1.192,1.192,0,0,0,.291.832.991.991,0,0,0,.768.319,1.007,1.007,0,0,0,.779-.319,1.2,1.2,0,0,0,.291-.832V2.57a1.212,1.212,0,0,0-.291-.843A1.007,1.007,0,0,0,78.779,1.408ZM2.7,8.34a2.969,2.969,0,0,1-1.414-.326A2.335,2.335,0,0,1,.337,7.1,2.762,2.762,0,0,1,0,5.711V2.617A2.738,2.738,0,0,1,.337,1.245,2.339,2.339,0,0,1,1.285.326,2.979,2.979,0,0,1,2.7,0,3.011,3.011,0,0,1,4.118.326a2.331,2.331,0,0,1,.953.919,2.738,2.738,0,0,1,.338,1.373V5.711A2.762,2.762,0,0,1,5.071,7.1a2.327,2.327,0,0,1-.953.919A3,3,0,0,1,2.7,8.34Zm0-6.933a.991.991,0,0,0-.768.319,1.209,1.209,0,0,0-.292.843V5.782a1.192,1.192,0,0,0,.292.832.991.991,0,0,0,.768.319,1.007,1.007,0,0,0,.779-.319,1.2,1.2,0,0,0,.291-.832V2.57a1.212,1.212,0,0,0-.291-.843A1.007,1.007,0,0,0,2.7,1.408ZM98.6,8.236H97.241A.138.138,0,0,1,97.1,8.1V2.931c0-.031-.008-.049-.023-.052h-.007c-.014,0-.027.01-.04.03l-1.07,1.768a.166.166,0,0,1-.163.093h-.267a.164.164,0,0,1-.163-.093L94.3,2.908c-.014-.02-.027-.03-.04-.03h-.007c-.015,0-.023.022-.023.052V8.1a.138.138,0,0,1-.14.139H92.727a.138.138,0,0,1-.14-.139V.233a.133.133,0,0,1,.041-.1.133.133,0,0,1,.1-.041h1.349a.168.168,0,0,1,.163.094l1.4,2.291c.012.023.023.035.035.035s.023-.012.034-.035L97.089.186a.167.167,0,0,1,.163-.094H98.6a.133.133,0,0,1,.1.041.134.134,0,0,1,.04.1V8.1a.138.138,0,0,1-.139.139Zm-8.917,0H88.266A.153.153,0,0,1,88.1,8.12L86.927,4.909c-.015-.03-.035-.046-.058-.046h-.734a.051.051,0,0,0-.058.058V8.1a.14.14,0,0,1-.14.139H84.577a.138.138,0,0,1-.14-.139V.233a.134.134,0,0,1,.041-.1.134.134,0,0,1,.1-.041h2.839A2.414,2.414,0,0,1,88.637.4a2.1,2.1,0,0,1,.826.867,2.744,2.744,0,0,1,.291,1.28,2.488,2.488,0,0,1-.326,1.291,2.007,2.007,0,0,1-.919.815.056.056,0,0,0-.035.082L89.8,8.073a.139.139,0,0,1,.012.059C89.813,8.2,89.77,8.236,89.684,8.236ZM86.136,1.5a.051.051,0,0,0-.058.058V3.548a.051.051,0,0,0,.058.059h1.012a.917.917,0,0,0,.7-.285,1.072,1.072,0,0,0,.268-.761,1.09,1.09,0,0,0-.268-.774.917.917,0,0,0-.7-.285ZM70.176,8.236H68.815a.138.138,0,0,1-.14-.139V.233a.134.134,0,0,1,.04-.1.133.133,0,0,1,.1-.041H73.48a.133.133,0,0,1,.1.041.134.134,0,0,1,.041.1V1.361a.138.138,0,0,1-.14.14H70.374a.051.051,0,0,0-.058.058V3.373a.051.051,0,0,0,.058.059h1.931a.138.138,0,0,1,.14.14V4.7a.138.138,0,0,1-.14.139H70.374a.051.051,0,0,0-.058.058V8.1a.136.136,0,0,1-.041.1A.133.133,0,0,1,70.176,8.236Zm-6.38,0H62.434a.14.14,0,0,1-.139-.139V1.571a.051.051,0,0,0-.058-.058h-1.71a.138.138,0,0,1-.139-.14V.233a.134.134,0,0,1,.041-.1.133.133,0,0,1,.1-.041h5.234a.133.133,0,0,1,.1.041.134.134,0,0,1,.04.1V1.373a.138.138,0,0,1-.139.14H63.993a.051.051,0,0,0-.058.058V8.1a.138.138,0,0,1-.139.139Zm-5.09,0H57.287a.152.152,0,0,1-.163-.116l-.267-1.14a.057.057,0,0,0-.058-.047H54.623a.056.056,0,0,0-.058.047L54.3,8.12a.147.147,0,0,1-.151.116H52.738a.127.127,0,0,1-.1-.037.133.133,0,0,1-.012-.114L54.715.21a.154.154,0,0,1,.163-.117h1.687a.153.153,0,0,1,.163.117l2.094,7.875.012.047C58.834,8.2,58.791,8.236,58.706,8.236ZM55.693,2.175c-.016,0-.027.015-.035.047L54.878,5.6a.043.043,0,0,0,.012.052.078.078,0,0,0,.047.018h1.535a.078.078,0,0,0,.047-.018.043.043,0,0,0,.012-.052l-.8-3.373C55.72,2.191,55.708,2.175,55.693,2.175ZM49.94,8.236H45.264a.14.14,0,0,1-.139-.139V.233a.131.131,0,0,1,.041-.1.13.13,0,0,1,.1-.041h1.362a.134.134,0,0,1,.1.041.134.134,0,0,1,.041.1V6.77a.051.051,0,0,0,.058.059H49.94a.138.138,0,0,1,.14.139V8.1a.138.138,0,0,1-.14.139Zm-11.382,0H37.2a.134.134,0,0,1-.1-.04.136.136,0,0,1-.041-.1V.221a.134.134,0,0,1,.041-.1.134.134,0,0,1,.1-.041h2.814A2.44,2.44,0,0,1,41.251.4a2.158,2.158,0,0,1,.838.885,2.8,2.8,0,0,1,.3,1.3,2.676,2.676,0,0,1-.3,1.274,2.1,2.1,0,0,1-.838.855,2.509,2.509,0,0,1-1.239.3H38.756a.051.051,0,0,0-.058.058V8.1a.138.138,0,0,1-.139.139Zm.2-6.736a.052.052,0,0,0-.058.058V3.653a.051.051,0,0,0,.058.058h.988a.948.948,0,0,0,.727-.3,1.138,1.138,0,0,0,.274-.8,1.176,1.176,0,0,0-.274-.815.938.938,0,0,0-.727-.3ZM29.681,8.236H28.262a.164.164,0,0,1-.162-.1L25.878,3.4c-.015-.023-.031-.035-.047-.035s-.023.016-.023.047L25.819,8.1a.138.138,0,0,1-.139.139H24.331a.138.138,0,0,1-.139-.139V.233a.134.134,0,0,1,.041-.1.133.133,0,0,1,.1-.041h1.408A.164.164,0,0,1,25.9.2l2.221,4.734c.016.024.032.035.047.035s.023-.016.023-.047V.233a.134.134,0,0,1,.041-.1.133.133,0,0,1,.1-.041h1.349a.133.133,0,0,1,.1.041.134.134,0,0,1,.04.1V8.1a.138.138,0,0,1-.139.139Zm-8.474,0H16.53a.138.138,0,0,1-.14-.139V.233a.134.134,0,0,1,.041-.1.133.133,0,0,1,.1-.041h4.676a.133.133,0,0,1,.1.041.134.134,0,0,1,.04.1V1.361a.138.138,0,0,1-.139.14H18.089a.051.051,0,0,0-.058.058V3.373a.051.051,0,0,0,.058.059h1.943a.138.138,0,0,1,.139.14V4.7a.138.138,0,0,1-.139.139H18.089a.051.051,0,0,0-.058.058V6.77a.051.051,0,0,0,.058.059h3.118a.138.138,0,0,1,.139.139V8.1a.138.138,0,0,1-.139.139Zm-11.382,0H8.463a.138.138,0,0,1-.14-.139V.221a.134.134,0,0,1,.041-.1.137.137,0,0,1,.1-.041h2.815A2.44,2.44,0,0,1,12.517.4a2.153,2.153,0,0,1,.837.885,2.788,2.788,0,0,1,.3,1.3,2.666,2.666,0,0,1-.3,1.274,2.1,2.1,0,0,1-.837.855,2.509,2.509,0,0,1-1.239.3H10.021a.051.051,0,0,0-.058.058V8.1a.14.14,0,0,1-.139.139Zm.2-6.736a.051.051,0,0,0-.058.058V3.653a.051.051,0,0,0,.058.058h.989a.948.948,0,0,0,.727-.3,1.138,1.138,0,0,0,.273-.8,1.176,1.176,0,0,0-.273-.815.938.938,0,0,0-.727-.3Z" transform="translate(14.235)" fill="#9ba5b7"/>
  </g>
</svg>
