<svg xmlns="http://www.w3.org/2000/svg" xmlns:xlink="http://www.w3.org/1999/xlink" width="215" height="215" viewBox="0 0 215 215"><defs><style>.a{fill:url(#a);}.b{fill:#fff;}.b,.c,.d{stroke:#fff;}.b,.d{stroke-width:2px;}.c,.d{fill:none;}.c{stroke-miterlimit:10;stroke-width:1.5px;}.e{filter:url(#b);}</style><linearGradient id="a" x1="0.247" y1="0.081" x2="1" y2="1" gradientUnits="objectBoundingBox"><stop offset="0" stop-color="#d2c699"/><stop offset="1" stop-color="#ad8d47"/></linearGradient><filter id="b" x="0" y="0" width="215" height="215" filterUnits="userSpaceOnUse"><feOffset input="SourceAlpha"/><feGaussianBlur stdDeviation="12.5" result="c"/><feFlood flood-color="#fff" flood-opacity="0.6"/><feComposite operator="in" in2="c"/><feComposite in="SourceGraphic"/></filter></defs><g transform="translate(-1089 -5146.5)"><g class="e" transform="matrix(1, 0, 0, 1, 1089, 5146.5)"><circle class="a" cx="70" cy="70" r="70" transform="translate(37.5 37.5)"/></g><g transform="translate(1170.525 5228.025)"><g transform="translate(0 0)"><g transform="translate(0 0)"><path class="b" d="M248.773,270.349a3.6,3.6,0,1,0-3.6-3.6A3.606,3.606,0,0,0,248.773,270.349Zm0-4.8a1.2,1.2,0,1,1-1.2,1.2A1.2,1.2,0,0,1,248.773,265.546Z" transform="translate(-225.907 -232.011)"/><path class="c" d="M267.087,254.781a1.2,1.2,0,0,0-2.375-.358c-.5,3.291-3.546,5.318-4.784,6.015h-.006q-1.108-.626-2.255-1.172a.006.006,0,0,1,0-.011,10.683,10.683,0,0,0,4.618-6.875,1.2,1.2,0,0,0-2.375-.358c-.51,3.389-3.763,5.45-4.937,6.091h-.006q-.694-.264-1.4-.5a.006.006,0,0,1,0-.011,10.217,10.217,0,0,0,3.921-6.422,1.2,1.2,0,0,0-2.375-.357c-.517,3.425-3.542,5.352-4.572,5.915h0q-1.361-.331-2.763-.563a.006.006,0,0,1,0-.011,10.179,10.179,0,0,0,3.714-6.184,1.2,1.2,0,1,0-2.375-.357c-.522,3.464-3.876,5.529-4.967,6.115h0q-.853-.064-1.716-.1a.007.007,0,0,1,0-.011,9.852,9.852,0,0,0,3.062-5.651,1.2,1.2,0,1,0-2.375-.357c-.549,3.642-4.022,5.636-4.854,6.064h0a54.752,54.752,0,0,0-14.874,3.027.007.007,0,0,1-.006-.011,24.471,24.471,0,0,1,16.072-6.5,1.234,1.234,0,0,0,1.247-1.121,1.2,1.2,0,0,0-1.2-1.281,26.95,26.95,0,0,0-21.445,11.314,1.207,1.207,0,0,0-.087,1.243l.006.009a1.137,1.137,0,0,0,.085.14,25.921,25.921,0,0,0,42.645.252l0,0c1.226-.623,5.675-3.192,6.4-7.974Zm-32.646,3.69a44.725,44.725,0,0,1,9.474-.328,1.2,1.2,0,0,0,.372.061,6,6,0,1,1-10.806,3.6,7.636,7.636,0,0,1,.96-3.335Zm5.043,12.941a24.668,24.668,0,0,1-18.608-9.142,53.676,53.676,0,0,1,10.74-3.323,8.887,8.887,0,0,0-.536,2.859,8.4,8.4,0,1,0,16.146-3.272,34.6,34.6,0,0,1,10.888,3.646,24.242,24.242,0,0,1-18.629,9.231Z" transform="translate(-216.618 -227.071)"/><path class="c" d="M222.49,239.654l.048.5a3.062,3.062,0,0,0,3.157,2.82,4,4,0,0,0,2.081-.6c4.424-2.707,9.418-4.117,17.235-4.867,1.373-.131,2.693-.2,3.925-.2,7.655,0,12.311,2.47,19.072,6.537a1.2,1.2,0,0,0,1.763-1.392A15.733,15.733,0,0,0,261.9,233.5c-5.527-3-12.439-3.661-18.776-3.052-9.08.871-15.158,2.913-19.706,6.62a2.889,2.889,0,0,0-.932,2.585Zm2.449-.724c4.158-3.389,9.839-5.268,18.418-6.091,5.786-.555,12.272-.012,17.4,2.772a15.158,15.158,0,0,1,4.9,4.076c-5.273-2.95-9.951-4.782-16.72-4.782-1.308,0-2.706.07-4.155.209-8.208.787-13.5,2.3-18.258,5.208a1.625,1.625,0,0,1-.828.25.669.669,0,0,1-.767-.648l-.048-.5a.884.884,0,0,1,.058-.5Z" transform="translate(-218.198 -220.837)"/><path class="d" d="M223.2,219.6a3.6,3.6,0,1,0-3.6,3.6A3.606,3.606,0,0,0,223.2,219.6Zm-4.8,0a1.2,1.2,0,1,1,1.2,1.2A1.2,1.2,0,0,1,218.4,219.6Z" transform="translate(-216 -216)"/><path class="d" d="M288.692,285.091a3.6,3.6,0,1,0,3.6,3.6A3.606,3.606,0,0,0,288.692,285.091Zm0,4.8a1.2,1.2,0,1,1,1.2-1.2A1.2,1.2,0,0,1,288.692,289.894Z" transform="translate(-239.465 -239.465)"/></g></g></g></g></svg>