<svg xmlns="http://www.w3.org/2000/svg" xmlns:xlink="http://www.w3.org/1999/xlink" width="215" height="215" viewBox="0 0 215 215"><defs><style>.a{fill:url(#a);}.b{fill:#fff;}.c{filter:url(#b);}</style><linearGradient id="a" x1="0.247" y1="0.081" x2="1" y2="1" gradientUnits="objectBoundingBox"><stop offset="0" stop-color="#d2c699"/><stop offset="1" stop-color="#ad8d47"/></linearGradient><filter id="b" x="0" y="0" width="215" height="215" filterUnits="userSpaceOnUse"><feOffset input="SourceAlpha"/><feGaussianBlur stdDeviation="12.5" result="c"/><feFlood flood-color="#fff" flood-opacity="0.6"/><feComposite operator="in" in2="c"/><feComposite in="SourceGraphic"/></filter></defs><g transform="translate(-363 -5146.5)"><g transform="translate(400.5 5184)"><g class="c" transform="matrix(1, 0, 0, 1, -37.5, -37.5)"><circle class="a" cx="70" cy="70" r="70" transform="translate(37.5 37.5)"/></g></g><g transform="translate(437.481 5228.025)"><g transform="translate(24.313 16.711)"><path class="b" d="M269.49,196.522h-2.823a.042.042,0,0,1-.042-.042V162.724a.774.774,0,1,0-1.548,0V196.48a1.591,1.591,0,0,0,1.59,1.589h2.823a.774.774,0,1,0,0-1.548Z" transform="translate(-265.078 -161.95)"/></g><g transform="translate(31.047 29.794)"><path class="b" d="M345.273,288.75a.774.774,0,0,0-.774.774V310.2a.042.042,0,0,1-.042.042H331.116a.774.774,0,1,0,0,1.548h13.342a1.591,1.591,0,0,0,1.589-1.589V289.524A.774.774,0,0,0,345.273,288.75Z" transform="translate(-330.342 -288.75)"/></g><g transform="translate(26.567)"><path class="b" d="M304.035,7.179a34.7,34.7,0,0,0-1.246-4.711A3.68,3.68,0,0,0,299.318,0h-6.851a3.68,3.68,0,0,0-3.472,2.468c-.2.576-.393,1.193-.57,1.833a.774.774,0,0,0,1.492.413c.168-.608.35-1.192.54-1.737a2.132,2.132,0,0,1,2.01-1.429h6.851a2.131,2.131,0,0,1,2.01,1.43,41.7,41.7,0,0,1,1.992,11.959,7.645,7.645,0,0,1-7.428,7.829,7.506,7.506,0,0,1-7.2-5.872c-.01-.042-.019-.085-.029-.128a8.244,8.244,0,0,1-.194-1.416.774.774,0,1,0-1.546.075,9.805,9.805,0,0,0,.211,1.591v.008c.008.039.016.077.025.117.031.144.06.271.093.38l0,.013h0c0,.016.01.03.016.046a9.033,9.033,0,0,0,8.615,6.735,8.733,8.733,0,0,0,6.359-2.75,9.534,9.534,0,0,0,2.617-6.627,38.929,38.929,0,0,0-.293-4.305,9.63,9.63,0,0,1,.989,4.264V27.473a.774.774,0,1,0,1.548,0V14.895A11.147,11.147,0,0,0,304.035,7.179Z" transform="translate(-286.927)"/></g><g transform="translate(30.207 31.649)"><path class="b" d="M332.08,306.728h-9.1a.774.774,0,1,0,0,1.548h9.1a.774.774,0,0,0,0-1.548Z" transform="translate(-322.203 -306.728)"/></g><g transform="translate(29.248 35.536)"><path class="b" d="M325.389,344.807a.774.774,0,0,0-1.044-.329,14.711,14.711,0,0,1-10.3,0,.774.774,0,1,0-.715,1.372,16.1,16.1,0,0,0,11.736,0A.774.774,0,0,0,325.389,344.807Z" transform="translate(-312.908 -344.391)"/></g><g transform="translate(0 6.496)"><path class="b" d="M63.41,66.115,60.8,63.5a1.776,1.776,0,0,0-1.051-.511c-2.483-.28-3.737,1-5.636,2.931-.231.235-.474.483-.734.743L44,76.04l-2.02-2.02a2.907,2.907,0,0,0-4.348.268l-5.069,6.5a.774.774,0,0,0,1.221.952l5.069-6.5a1.359,1.359,0,0,1,2.033-.125l2.567,2.567h0l1.988,1.988h0l2.567,2.567a1.359,1.359,0,0,1-.125,2.033l-9.543,7.441a1.964,1.964,0,0,1-2.594-.16l-4.175-4.175a1.965,1.965,0,0,1-.16-2.594l.478-.613a.774.774,0,0,0-1.22-.952l-.478.613a3.514,3.514,0,0,0,.286,4.64l4.175,4.175a3.514,3.514,0,0,0,4.64.286l9.543-7.441a2.907,2.907,0,0,0,.268-4.347l-2.02-2.02,9.374-9.374a6.764,6.764,0,0,1,6.124-1.942,1,1,0,0,0,.826-1.693ZM45.993,78.028l-.894-.894,8.826-8.826.894.894Zm9.942-9.9-.917-.917.2-.2c1.8-1.835,2.624-2.673,4.357-2.477a.227.227,0,0,1,.131.067l1.58,1.58A7.921,7.921,0,0,0,55.934,68.128Z" transform="translate(-29.455 -62.954)"/></g></g></g></svg>