<svg xmlns="http://www.w3.org/2000/svg" width="9.996" height="14" viewBox="0 0 9.996 14">
  <path id="Shape" d="M5,14H4.995A1.993,1.993,0,0,1,4,10.28V8.5l-3-3V3.72A1.993,1.993,0,0,1,1.992,0H2A1.993,1.993,0,0,1,3,3.72V5L5,7,7,5V3.72A1.993,1.993,0,0,1,7.992,0H8A1.993,1.993,0,0,1,9,3.72V5.5l-3,3v1.78A1.993,1.993,0,0,1,5,14Zm0-3.2A1.2,1.2,0,1,0,6.2,12,1.216,1.216,0,0,0,5,10.8ZM8,.8A1.216,1.216,0,0,0,6.8,2,1.2,1.2,0,1,0,9.2,2,1.216,1.216,0,0,0,8,.8ZM2,.8A1.216,1.216,0,0,0,.8,2,1.216,1.216,0,0,0,2,3.2,1.217,1.217,0,0,0,3.2,2,1.216,1.216,0,0,0,2,.8Z" transform="translate(0)" fill="#fff" opacity="0.6"/>
</svg>
