<svg xmlns="http://www.w3.org/2000/svg" xmlns:xlink="http://www.w3.org/1999/xlink" width="927" height="385.595" viewBox="0 0 927 385.595">
  <defs>
    <clipPath id="clip-path">
      <path id="Clip_10" data-name="Clip 10" d="M0,0H231.107V101.449H0Z" transform="translate(0.188 0.405)" fill="none"/>
    </clipPath>
  </defs>
  <g id="Group_6" data-name="Group 6" transform="translate(0 -0.405)">
    <path id="Path" d="M-175.082,162.8c-.367-84.027-66.755-152.027-148.6-152.027a144.7,144.7,0,0,0-63.588,14.65C-392.779,10.554-406.694,0-422.988,0c-21.126,0-38.253,17.74-38.253,39.624a41.5,41.5,0,0,0,.216,4.232h-.216c-51.191,0-92.69,42.543-92.69,95.022q0,.91.017,1.815a215.475,215.475,0,0,0-93.814,52.673,88.782,88.782,0,0,0-29.053-4.861C-727.16,188.5-768,230.531-768,282.372A95.292,95.292,0,0,0-750.97,337H-9.212A67.651,67.651,0,0,0,0,302.761C0,266-28.983,236.208-64.736,236.208a63.02,63.02,0,0,0-27.421,6.248C-114.732,209.374-142.968,182.106-175.082,162.8Z" transform="translate(889 30)" fill="#e7f3ff"/>
    <ellipse id="Oval_Copy_9" data-name="Oval Copy 9" cx="463.5" cy="24" rx="463.5" ry="24" transform="translate(0 338)" fill="#9bcc13"/>
    <ellipse id="Oval_Copy_9-2" data-name="Oval Copy 9" cx="386.5" cy="18" rx="386.5" ry="18" transform="translate(62 344)" fill="#18776c"/>
    <g id="Group_217" data-name="Group 217" transform="translate(178.5)">
      <path id="Fill_1" data-name="Fill 1" d="M127.5,136.2C93.849,193.36,11.076,207,11.076,207S-17.143,127.961,16.5,70.8,132.923,0,132.923,0s28.221,79.037-5.427,136.2" transform="translate(371.5 28)" fill="#18776c"/>
      <path id="Fill_3" data-name="Fill 3" d="M53.587,100.614l36.45-7.581-1.023-4.891L56.382,94.929l25.3-41.7L118,45.672l-1.024-4.891-31.744,6.6L112.413,2.588,108.128,0,64.942,71.17,54.99,39.16,50.2,40.639,61.235,76.113l.873-.269L38,115.572l-9.7-31.2-4.785,1.479,11.02,35.439-20.267,33.4L4.785,124.194,0,125.673,10.8,160.4.476,177.412,4.761,180l20.5-33.779.367,1.755,36.45-7.582L61.051,135.5l-33.52,6.972L53.419,99.811Z" transform="translate(386.5 41)" fill="#edecea"/>
      <path id="Fill_5" data-name="Fill 5" d="M16.755,131.811C49.936,186.762,130.081,199,130.081,199s26.346-76.859-6.836-131.811S9.92,0,9.92,0s-26.347,76.859,6.835,131.811" transform="translate(86.5 161)" fill="#00b293"/>
      <path id="Fill_7" data-name="Fill 7" d="M62.827,96.739,27.549,89.827l.93-4.745,31.583,6.187L35.144,51.2,0,44.317l.931-4.746L31.654,45.59,4.889,2.555,9,0,51.52,68.375l9.234-31.1,4.637,1.374L55.157,73.116l-.845-.252L78.05,111.033l9-30.312L91.689,82.1,81.464,116.524l19.957,32.089,8.8-29.621,4.637,1.375L104.836,154.1,115,170.445,110.893,173,90.71,140.547l-.334,1.7L55.1,135.336l.931-4.746,32.442,6.357L62.98,95.96Z" transform="translate(97.5 173)" fill="#edecea"/>
      <g id="Group_11" data-name="Group 11" transform="translate(37.5)">
        <path id="Clip_10-2" data-name="Clip 10" d="M0,0H231.107V101.449H0Z" transform="translate(0.188 0.405)" fill="none"/>
        <g id="Group_11-2" data-name="Group 11" clip-path="url(#clip-path)">
          <path id="Fill_9" data-name="Fill 9" d="M.289,78.537A17.845,17.845,0,0,1,.1,73.478c1.561-14.968,20-28.945,33.832-30.812a37.822,37.822,0,0,1,15.323,1.063,60.439,60.439,0,0,1,112.932-8.678A46.812,46.812,0,0,1,187.852,28.2c16.456.412,46.274,15.834,43.007,36.285-3.244,20.3-32.327,36.33-50.7,36.94-15.115.5-32.2-8.063-34.455-23.006-5.186,7.824-10.8,16.024-19.329,19.952-9.444,4.35-20.889,2.447-29.886-2.764S80.57,82.273,74.472,73.856c-9.472,14.4-24.338,26.7-41.571,27.4-12.38.5-30.145-9.126-32.612-22.714" transform="translate(0.188 0.405)" fill="#ebf3ff"/>
        </g>
      </g>
      <path id="Fill_12" data-name="Fill 12" d="M.658,8.508A12.5,12.5,0,1,0,16.492.658,12.5,12.5,0,0,0,.658,8.508" transform="translate(56.5 134)" fill="#caeced"/>
      <path id="Fill_14" data-name="Fill 14" d="M.369,4.765A7,7,0,1,0,9.235.369a7,7,0,0,0-8.867,4.4" transform="translate(22.5 148)" fill="#caeced"/>
      <path id="Fill_16" data-name="Fill 16" d="M.395,5.105A7.5,7.5,0,1,0,9.9.395a7.5,7.5,0,0,0-9.5,4.71" transform="translate(65.5 181)" fill="#caeced"/>
      <path id="Fill_18" data-name="Fill 18" d="M.316,4.084A6,6,0,1,0,7.916.316a6,6,0,0,0-7.6,3.768" transform="translate(37.5 116)" fill="#caeced"/>
      <path id="Fill_20" data-name="Fill 20" d="M.395,5.1A7.5,7.5,0,1,0,9.9.395,7.5,7.5,0,0,0,.395,5.1" transform="translate(35.5 178)" fill="#caeced"/>
      <path id="Fill_22" data-name="Fill 22" d="M.342,4.424A6.5,6.5,0,1,0,8.576.342,6.5,6.5,0,0,0,.342,4.424" transform="translate(0.5 130)" fill="#caeced"/>
      <path id="Fill_24" data-name="Fill 24" d="M.342,4.424A6.5,6.5,0,1,0,8.576.342,6.5,6.5,0,0,0,.342,4.424" transform="translate(88.5 137)" fill="#caeced"/>
      <path id="Fill_26" data-name="Fill 26" d="M11.9,15.539C-1.329,30.174.04,53,.04,53S22.863,52.1,36.1,37.462,47.96,0,47.96,0,25.136.9,11.9,15.539" transform="translate(53.5 94)" fill="#fae2a2"/>
      <path id="Fill_28" data-name="Fill 28" d="M9.424,12.313C-1.052,23.912.032,42,.032,42S18.1,41.284,28.576,29.686,37.968,0,37.968,0,19.9.715,9.424,12.313" transform="translate(63.5 94)" fill="#fd796a"/>
      <path id="Fill_30" data-name="Fill 30" d="M.5.494v0Z" transform="translate(72.5 106)" fill="#491b08"/>
      <path id="Fill_32" data-name="Fill 32" d="M6.944,9.089C-.775,17.65.023,31,.023,31s13.314-.528,21.033-9.088S27.976,0,27.976,0,14.663.528,6.944,9.089" transform="translate(70.5 97)" fill="#fed946"/>
      <path id="Fill_34" data-name="Fill 34" d="M3.183,9.2A23.13,23.13,0,0,1,5.73,11.929C16.244,25.135,2.454,40.274.283,42.508.1,42.7,0,42.8,0,42.8A41.648,41.648,0,0,0,35.419,35.19a16.561,16.561,0,0,0,6.566-12.583C42.644,6.8,22.18,0,22.18,0c-12.905,10.353-19,9.2-19,9.2" transform="translate(114.5 91)" fill="#896ae0"/>
      <path id="Fill_36" data-name="Fill 36" d="M18.385.173A16.631,16.631,0,0,0,6.457,7.967a41.524,41.524,0,0,0-4.6,34.351c.165.553.348,1.113.541,1.682,0,0,15.413-19.386,31.175-8.185A23,23,0,0,1,35.7,37.507S33.937,31.555,43,17.67c0,0-8.858-19.708-24.615-17.5" transform="translate(58.5 42)" fill="#896ae0"/>
      <path id="Fill_38" data-name="Fill 38" d="M88.246,13.181C96.628,70.995,32.4,93,32.4,93l-6.874-4.444A84.27,84.27,0,0,1,5.7,70.706L0,63.641S15.492-2.533,73.784.075A15.332,15.332,0,0,1,88.246,13.181" transform="translate(85.5 16)" fill="#8ca8ff"/>
      <path id="Fill_40" data-name="Fill 40" d="M15.345,19.812C1.678,34.951.125,56.706,0,63.848a2.119,2.119,0,0,0,2.374,2.136c7.1-.865,28.613-4.66,42.281-19.8S59.872,9.334,60,2.17A2.129,2.129,0,0,0,57.606.016C50.483.885,29,4.687,15.345,19.812" transform="translate(109.5 21)" fill="#d4eeeb"/>
      <path id="Fill_42" data-name="Fill 42" d="M2.534,0A84.824,84.824,0,0,0,17.585,15.771,85.526,85.526,0,0,0,35,28.968c-3.773,5.577-10.7,1.753-10.7,1.753-6.387-2.211-12.619-8.516-12.619-8.516s-6.983-5.486-9.85-11.531c0,0-4.548-6.419.707-10.674" transform="translate(82.5 79)" fill="#ff6592"/>
      <path id="Fill_44" data-name="Fill 44" d="M4.914,6.25A19,19,0,1,0,31.75,4.914,19,19,0,0,0,4.914,6.25" transform="translate(123.5 31)" fill="#ff6592"/>
      <path id="Fill_46" data-name="Fill 46" d="M3.75,4.769A14.5,14.5,0,1,0,24.23,3.75,14.5,14.5,0,0,0,3.75,4.769" transform="translate(127.5 35)" fill="#fae2a2"/>
      <path id="Fill_48" data-name="Fill 48" d="M8.847,3.852a14.826,14.826,0,0,0,.99,20.495A13.785,13.785,0,0,0,19,28.083,13.749,13.749,0,0,1,4.63,25.255,14.825,14.825,0,0,1,3.64,4.76,13.837,13.837,0,0,1,14.361,0,14,14,0,0,0,8.847,3.852" transform="translate(128.5 35)" fill="#ffa100"/>
      <path id="Fill_50" data-name="Fill 50" d="M.184,2.382A3.5,3.5,0,1,0,4.618.184a3.5,3.5,0,0,0-4.434,2.2" transform="translate(42.5 132)" fill="#fae2a2"/>
      <path id="Fill_52" data-name="Fill 52" d="M.184,2.382A3.5,3.5,0,1,0,4.618.184a3.5,3.5,0,0,0-4.434,2.2" transform="translate(6.5 151)" fill="#fae2a2"/>
      <path id="Fill_54" data-name="Fill 54" d="M.184,2.382A3.5,3.5,0,1,0,4.618.184a3.5,3.5,0,0,0-4.434,2.2" transform="translate(24.5 128)" fill="#fae2a2"/>
      <path id="Fill_56" data-name="Fill 56" d="M.237,3.063A4.5,4.5,0,1,0,5.937.237a4.5,4.5,0,0,0-5.7,2.826" transform="translate(46.5 159)" fill="#fae2a2"/>
      <path id="Fill_58" data-name="Fill 58" d="M.211,2.723A4,4,0,1,0,5.277.211,4,4,0,0,0,.211,2.723" transform="translate(86.5 164)" fill="#fae2a2"/>
      <path id="Fill_60" data-name="Fill 60" d="M125.212,129.778C84.64,179.759,3.038,181,3.038,181S-12.784,101.2,27.788,51.222,149.962,0,149.962,0s15.822,79.8-24.75,129.778" transform="translate(397.5 138)" fill="#96bf29"/>
      <path id="Fill_62" data-name="Fill 62" d="M61.751,88.779,97.683,86.7l-.279-4.84L65.236,83.722,95.39,47.308l35.8-2.067-.28-4.84L99.612,42.207,132,3.1,128.273,0,76.815,62.141,71.873,30l-4.786.736,5.477,35.62.873-.134L44.712,100.909,39.894,69.578l-4.785.737L40.581,105.9,16.431,135.062l-4.708-30.618-4.786.737,5.362,34.87L0,154.905,3.727,158l24.422-29.493.1,1.736,35.933-2.075-.28-4.84-33.044,1.908L61.7,87.985Z" transform="translate(407.5 149)" fill="#edecea"/>
      <path id="Fill_64" data-name="Fill 64" d="M182.555,354H16.445A16.48,16.48,0,0,1,0,337.582V16.418A16.48,16.48,0,0,1,16.445,0h166.11A16.48,16.48,0,0,1,199,16.418V337.582A16.48,16.48,0,0,1,182.555,354" transform="translate(204.5 4)" fill="#8f9bb3"/>
      <path id="Fill_66" data-name="Fill 66" d="M169.1,337H12.9A12.951,12.951,0,0,1,0,324.079V12.921A12.95,12.95,0,0,1,12.9,0H169.1A12.949,12.949,0,0,1,182,12.921V324.079A12.95,12.95,0,0,1,169.1,337" transform="translate(213.5 13)" fill="#1f1f27"/>
      <path id="Fill_68" data-name="Fill 68" d="M104.119,7H2.88C1.3,7,0,5.425,0,3.5S1.3,0,2.88,0H104.119C105.7,0,107,1.575,107,3.5S105.7,7,104.119,7" transform="translate(252.5 32)" fill="#896ae0"/>
      <path id="Fill_70" data-name="Fill 70" d="M0,242H170V0H0Z" transform="translate(218.5 60)" fill="#e8d6ff"/>
      <path id="Fill_72" data-name="Fill 72" d="M0,242H170V0H0Z" transform="translate(218.5 60)" fill="#e8d6ff"/>
      <path id="Fill_73" data-name="Fill 73" d="M155.117,142H1.883A1.923,1.923,0,0,1,0,140.04V1.96A1.923,1.923,0,0,1,1.883,0H155.117A1.923,1.923,0,0,1,157,1.96V140.04a1.923,1.923,0,0,1-1.883,1.96" transform="translate(225.5 65)" fill="#a6182a"/>
      <path id="Fill_74" data-name="Fill 74" d="M155.117,74H1.883A1.886,1.886,0,0,1,0,72.111V1.889A1.886,1.886,0,0,1,1.883,0H155.117A1.886,1.886,0,0,1,157,1.889V72.111A1.886,1.886,0,0,1,155.117,74" transform="translate(225.5 216)" fill="#8983ff"/>
      <path id="Fill_75" data-name="Fill 75" d="M72.369,17H8.632A8.592,8.592,0,0,1,0,8.5,8.592,8.592,0,0,1,8.632,0H72.369A8.591,8.591,0,0,1,81,8.5,8.591,8.591,0,0,1,72.369,17" transform="translate(260.5 318)" fill="#8f9bb3"/>
      <path id="Fill_76" data-name="Fill 76" d="M57.492,3H1.507A1.508,1.508,0,0,1,0,1.5,1.508,1.508,0,0,1,1.507,0H57.492A1.509,1.509,0,0,1,59,1.5,1.509,1.509,0,0,1,57.492,3" transform="translate(307.5 263)" fill="#e3d1ff"/>
      <path id="Fill_77" data-name="Fill 77" d="M57.492,3H1.508A1.508,1.508,0,0,1,0,1.5,1.508,1.508,0,0,1,1.508,0H57.492A1.509,1.509,0,0,1,59,1.5,1.509,1.509,0,0,1,57.492,3" transform="translate(307.5 271)" fill="#e3d1ff"/>
      <path id="Fill_78" data-name="Fill 78" d="M57.492,3H1.507A1.508,1.508,0,0,1,0,1.5,1.508,1.508,0,0,1,1.507,0H57.492A1.509,1.509,0,0,1,59,1.5,1.51,1.51,0,0,1,57.492,3" transform="translate(307.5 279)" fill="#e3d1ff"/>
      <path id="Fill_79" data-name="Fill 79" d="M0,27H41V0H0Z" transform="translate(317.5 229)" fill="#f268e1"/>
      <path id="Fill_80" data-name="Fill 80" d="M41,0,20.494,15,0,0Z" transform="translate(317.5 229)" fill="#ca60ed"/>
      <path id="Fill_81" data-name="Fill 81" d="M41,0H39.717L20.494,14.112,1.281,0H0V.938L20.494,16,41,.938Z" transform="translate(317.5 229)" fill="#fff"/>
      <path id="Fill_82" data-name="Fill 82" d="M43.685,31H1.315A1.3,1.3,0,0,1,0,29.711V1.289A1.3,1.3,0,0,1,1.315,0H43.685A1.3,1.3,0,0,1,45,1.289V29.711A1.3,1.3,0,0,1,43.685,31" transform="translate(242.5 227)" fill="#e3d1ff"/>
      <path id="Fill_83" data-name="Fill 83" d="M1.526,3A1.517,1.517,0,0,1,0,1.5,1.518,1.518,0,0,1,1.526,0H64.473A1.518,1.518,0,0,1,66,1.5,1.518,1.518,0,0,1,64.473,3Z" transform="translate(234.5 263)" fill="#e3d1ff"/>
      <path id="Fill_84" data-name="Fill 84" d="M64.473,3H1.526A1.517,1.517,0,0,1,0,1.5,1.518,1.518,0,0,1,1.526,0H64.473A1.518,1.518,0,0,1,66,1.5,1.518,1.518,0,0,1,64.473,3" transform="translate(234.5 271)" fill="#e3d1ff"/>
      <path id="Fill_85" data-name="Fill 85" d="M64.473,3H1.526A1.518,1.518,0,0,1,0,1.5,1.517,1.517,0,0,1,1.526,0H64.473A1.518,1.518,0,0,1,66,1.5,1.519,1.519,0,0,1,64.473,3" transform="translate(234.5 279)" fill="#e3d1ff"/>
      <path id="Fill_86" data-name="Fill 86" d="M1.735,9V3.623A2.052,2.052,0,0,1,3.841,1.636H24.159a2.052,2.052,0,0,1,2.107,1.987V9H28V3.623A3.74,3.74,0,0,0,24.159,0H3.841A3.741,3.741,0,0,0,0,3.623V9Z" transform="translate(251.5 229)" fill="#ca60ed"/>
      <path id="Fill_87" data-name="Fill 87" d="M5.124,18a.877.877,0,0,1-.846-.654L.029,1.1A.875.875,0,1,1,1.721.653L5.971,16.9a.876.876,0,0,1-.626,1.068A.9.9,0,0,1,5.124,18" transform="translate(255.5 238)" fill="#ca60ed"/>
      <path id="Fill_88" data-name="Fill 88" d="M.876,18a.9.9,0,0,1-.222-.029A.876.876,0,0,1,.029,16.9L4.278.653A.875.875,0,0,1,5.971,1.1L1.722,17.346A.877.877,0,0,1,.876,18" transform="translate(268.5 238)" fill="#ca60ed"/>
      <path id="Fill_89" data-name="Fill 89" d="M1.125,18a.863.863,0,0,1-.874-.839L0,.864A.862.862,0,0,1,.861,0a.86.86,0,0,1,.888.839L2,17.136A.862.862,0,0,1,1.138,18H1.125" transform="translate(264.5 238)" fill="#ca60ed"/>
      <path id="Fill_90" data-name="Fill 90" d="M27.322,19H6.436a.851.851,0,0,1-.808-.594L.042,1.133A.872.872,0,0,1,.164.356.839.839,0,0,1,.841,0H.857l32.3.248a.847.847,0,0,1,.689.366.876.876,0,0,1,.107.781L28.124,18.42A.851.851,0,0,1,27.322,19ZM2.028,1.736,7.052,17.273H26.716L31.957,1.966Z" transform="translate(248.5 237)" fill="#ca60ed"/>
      <path id="Fill_91" data-name="Fill 91" d="M29.153,2H.847A.933.933,0,0,1,0,1,.934.934,0,0,1,.847,0H29.153A.933.933,0,0,1,30,1a.933.933,0,0,1-.847,1" transform="translate(250.5 243)" fill="#ca60ed"/>
      <path id="Fill_92" data-name="Fill 92" d="M25.149,2H.851A.934.934,0,0,1,0,1,.935.935,0,0,1,.851,0h24.3A.935.935,0,0,1,26,1a.934.934,0,0,1-.851,1" transform="translate(252.5 249)" fill="#ca60ed"/>
      <path id="Fill_93" data-name="Fill 93" d="M16,16A16,16,0,0,0,32,0H0A16,16,0,0,0,16,16" transform="translate(206 92)" fill="#ff3a05"/>
      <path id="Fill_94" data-name="Fill 94" d="M16,16A16,16,0,0,0,32,0H0A16,16,0,0,0,16,16" transform="translate(238 92)" fill="#e2e2e2"/>
      <path id="Fill_95" data-name="Fill 95" d="M16,16A16,16,0,0,0,32,0H0A16,16,0,0,0,16,16" transform="translate(269.5 92)" fill="#ff3a05"/>
      <path id="Fill_96" data-name="Fill 96" d="M16,16A16,16,0,0,0,32,0H0A16,16,0,0,0,16,16" transform="translate(301.5 92)" fill="#e2e2e2"/>
      <path id="Fill_97" data-name="Fill 97" d="M16,16A16,16,0,0,0,32,0H0A16,16,0,0,0,16,16" transform="translate(333.5 92)" fill="#ff3a05"/>
      <path id="Fill_98" data-name="Fill 98" d="M16,16A16,16,0,0,0,32,0H0A16,16,0,0,0,16,16" transform="translate(366 92)" fill="#e2e2e2"/>
      <path id="Fill_99" data-name="Fill 99" d="M18.564,0,0,69l32.314-.349L45,0Z" transform="translate(206 24)" fill="#fc474a"/>
      <path id="Fill_100" data-name="Fill 100" d="M12.529,0,0,69H31.916L39,0Z" transform="translate(238 24)" fill="#fff"/>
      <path id="Fill_101" data-name="Fill 101" d="M7.063,0,0,69H31.815L32,0Z" transform="translate(270 24)" fill="#fc474a"/>
      <path id="Fill_102" data-name="Fill 102" d="M25.976.283,0,0,9.057,69,41,68.506Z" transform="translate(357 24)" fill="#fff"/>
      <path id="Fill_103" data-name="Fill 103" d="M.186,0,0,69H32L27.468,0Z" transform="translate(302 24)" fill="#fff"/>
      <path id="Fill_104" data-name="Fill 104" d="M0,0,4.591,69H37L27.958,0Z" transform="translate(329 24)" fill="#fc474a"/>
      <path id="Fill_105" data-name="Fill 105" d="M78.031,63H34.449a1.969,1.969,0,0,1-1.872-1.351L23.957,35.381,14.769,3.92H1.969a1.96,1.96,0,1,1,0-3.92H16.247a1.968,1.968,0,0,1,1.891,1.412L27.72,34.225,35.877,59.08H78.031a1.96,1.96,0,1,1,0,3.92" transform="translate(248.5 117)" fill="#d0d4de"/>
      <path id="Fill_106" data-name="Fill 106" d="M0,0H70L60.849,33H9.376Z" transform="translate(267.5 129)" fill="#d0d4de"/>
      <path id="Fill_107" data-name="Fill 107" d="M6.5,13A6.5,6.5,0,1,1,13,6.5,6.507,6.507,0,0,1,6.5,13Zm0-9.382A2.882,2.882,0,1,0,9.382,6.5,2.885,2.885,0,0,0,6.5,3.618Z" transform="translate(281.5 181)" fill="#d0d4de"/>
      <path id="Fill_108" data-name="Fill 108" d="M6.5,13A6.5,6.5,0,1,1,13,6.5,6.507,6.507,0,0,1,6.5,13Zm0-9.382A2.882,2.882,0,1,0,9.381,6.5,2.885,2.885,0,0,0,6.5,3.618Z" transform="translate(315.5 181)" fill="#d0d4de"/>
      <path id="Fill_109" data-name="Fill 109" d="M44.5,89A44.5,44.5,0,1,1,89,44.5,44.55,44.55,0,0,1,44.5,89" transform="translate(397.5 270)" fill="#ffc02b"/>
      <path id="Fill_110" data-name="Fill 110" d="M44.5,89A44.5,44.5,0,1,1,89,44.5,44.55,44.55,0,0,1,44.5,89" transform="translate(397.5 270)" fill="#ffc02b"/>
      <path id="Fill_111" data-name="Fill 111" d="M101,50.5A50.5,50.5,0,1,1,50.5,0,50.5,50.5,0,0,1,101,50.5" transform="translate(391.5 264)" fill="#ffc02b"/>
      <path id="Fill_112" data-name="Fill 112" d="M44.5,89A44.5,44.5,0,1,1,89,44.5,44.55,44.55,0,0,1,44.5,89" transform="translate(397.5 270)" fill="#ffc02b"/>
      <path id="Fill_113" data-name="Fill 113" d="M46.723,75.9A44.513,44.513,0,0,1,15.2,0,44.476,44.476,0,1,0,76,64.846,44.245,44.245,0,0,1,46.723,75.9" transform="translate(397.5 281)" fill="#fed946"/>
      <path id="Fill_114" data-name="Fill 114" d="M28.894,0A43.827,43.827,0,0,0,0,10.858a43.771,43.771,0,0,1,25.956-8.5A44.254,44.254,0,0,1,54.849,80,44.261,44.261,0,0,0,28.894,0" transform="translate(413.5 270)" fill="#fd9401"/>
      <path id="Fill_115" data-name="Fill 115" d="M23.713,63h-4.9V57.453a32.879,32.879,0,0,1-9.945-2.6A35.358,35.358,0,0,1,0,49.17l5.584-6.611A26.723,26.723,0,0,0,18.817,49.17V34.426c-5.734-1.359-9.993-3.175-12.659-5.4A10.417,10.417,0,0,1,3.146,24.88a15.363,15.363,0,0,1-1-5.767A15.034,15.034,0,0,1,3.3,13.139,13.755,13.755,0,0,1,6.77,8.36,16.741,16.741,0,0,1,12.1,5.131,22.212,22.212,0,0,1,18.817,3.8V0h4.9V3.877A30.863,30.863,0,0,1,31.9,5.606a34.55,34.55,0,0,1,7.726,3.97l-4.972,6.991a24.884,24.884,0,0,0-10.939-4.406V26.447h.229c5.837,1.363,10.186,3.229,12.927,5.548a10.976,10.976,0,0,1,3.1,4.285A15.526,15.526,0,0,1,41,42.14a14.951,14.951,0,0,1-1.186,6.032,13.734,13.734,0,0,1-3.556,4.8A17.127,17.127,0,0,1,30.75,56.2a24.037,24.037,0,0,1-7.037,1.329V63Zm0-27.283V49.4a10.775,10.775,0,0,0,5.813-2.128,5.843,5.843,0,0,0,.459-8.625c-1.116-1.033-3.226-2.018-6.272-2.927Zm-4.9-23.786h0a9.233,9.233,0,0,0-5.392,2.014A5.455,5.455,0,0,0,11.474,18.2,5.368,5.368,0,0,0,13,22.229c1.014.983,2.97,1.942,5.813,2.85V11.931Z" transform="translate(420.5 283)" fill="#fd9401"/>
      <path id="Fill_116" data-name="Fill 116" d="M16.008,9.826l-4.366,6.259q.684.434,1.355.915l5-7.174A31.881,31.881,0,0,0,1.992,3.978V0H0V3.978A31.881,31.881,0,0,1,16.008,9.826" transform="translate(442.5 283)" fill="#ff7a00"/>
      <path id="Fill_117" data-name="Fill 117" d="M0,14a14.993,14.993,0,0,0,2-.352V.666C1.384.44.722.218,0,0Z" transform="translate(442.5 319)" fill="#ff7a00"/>
      <path id="Fill_118" data-name="Fill 118" d="M1.888,6.2A5.454,5.454,0,0,1,3.747,1.992,7.532,7.532,0,0,1,7,.338V0A8.578,8.578,0,0,0,1.86,1.992,5.454,5.454,0,0,0,0,6.2a5.391,5.391,0,0,0,1.459,3.983Q2.916,11.647,7,13v-.688a11.1,11.1,0,0,1-3.654-2.13A5.394,5.394,0,0,1,1.888,6.2" transform="translate(430.5 295)" fill="#ff7a00"/>
      <path id="Fill_119" data-name="Fill 119" d="M14.927,19.9q-4.074-3.505-12.749-5.565H1.953V.376C1.309.227.659.1,0,0V14.332H.226Q8.9,16.392,12.974,19.9t4.073,10.178a13.916,13.916,0,0,1-4.676,10.863Q7.693,45.131,0,45.511V51H1.953V45.511q7.694-.38,12.371-4.573A13.912,13.912,0,0,0,19,30.074Q19,23.4,14.927,19.9" transform="translate(442.5 295)" fill="#ff7a00"/>
      <path id="Fill_120" data-name="Fill 120" d="M12,6.559A27.219,27.219,0,0,1,.8,0L0,1.013A24.99,24.99,0,0,0,12,7Z" transform="translate(425.5 326)" fill="#ff7a00"/>
      <path id="Fill_121" data-name="Fill 121" d="M0,0V12.05c0,2.117,1.472,3.617,3.33,4.623,8.345,4.5,25.683,8.116,43.408,8.311,15.656.176,29.014-1.042,39.743-4.8q1.366-.449,2.682-1.006a49,49,0,0,0,5.031-2.364A4.878,4.878,0,0,0,97,12.6V0Z" transform="translate(354.5 361)" fill="#ffc02b"/>
      <path id="Fill_122" data-name="Fill 122" d="M0,0V12.05c0,2.117,1.472,3.617,3.33,4.623,8.345,4.5,25.683,8.116,43.408,8.311,10.957.122,20.792-.441,29.365-2.082.893-.159,1.77-.353,2.63-.548.841-.176,1.664-.388,2.489-.6.894-.211,1.77-.458,2.629-.724q1.342-.4,2.63-.846,1.366-.449,2.682-1.006a49,49,0,0,0,5.031-2.364A4.879,4.879,0,0,0,97,12.6V0Z" transform="translate(354.5 361)" fill="#ffc02b"/>
      <path id="Fill_123" data-name="Fill 123" d="M0,0V12.05a4.78,4.78,0,0,0,2.191,3.882,7.022,7.022,0,0,0,1.139.741c.421.229.86.459,1.333.671.806.388,1.683.776,2.63,1.129.789.317,1.613.635,2.49.918.841.3,1.717.564,2.629.846.806.229,1.63.459,2.489.688s1.736.442,2.63.654c.806.194,1.63.37,2.472.564.859.177,1.735.353,2.629.512.824.159,1.648.3,2.489.441q1.289.213,2.63.424c.824.106,1.647.23,2.49.335.859.106,1.735.212,2.63.3.806.089,1.63.177,2.471.247.86.089,1.754.16,2.631.212.823.07,1.648.124,2.489.159.876.053,1.754.088,2.63.123.823.036,1.647.053,2.489.07.385,0,.771.019,1.157.019.49.017.982.017,1.472.017.825,0,1.648,0,2.472-.017.876.017,1.754,0,2.63-.019.842,0,1.666-.035,2.489-.07.895,0,1.771-.035,2.629-.087.842-.018,1.666-.07,2.491-.124.893-.036,1.77-.106,2.629-.177q1.236-.079,2.471-.211c.895-.07,1.771-.159,2.631-.283.841-.07,1.665-.177,2.489-.317.893-.106,1.77-.229,2.629-.388.789-.123,1.561-.265,2.332-.406.893-.159,1.77-.353,2.63-.548.841-.176,1.664-.388,2.489-.6.894-.211,1.77-.458,2.629-.724q1.342-.4,2.63-.846,1.366-.449,2.682-1.006a49,49,0,0,0,5.031-2.364A4.878,4.878,0,0,0,97,12.6V0Z" transform="translate(354.5 361)" fill="#ffc02b"/>
      <path id="Fill_124" data-name="Fill 124" d="M0,13.492a6.418,6.418,0,0,0,2.191,4.668,13.9,13.9,0,0,0,2.471,1.848,22.777,22.777,0,0,0,2.63,1.322c.789.335,1.613.652,2.49.951.841.3,1.717.564,2.629.828.806.229,1.63.44,2.489.634q1.289.318,2.63.581c.806.159,1.63.317,2.472.458q1.288.239,2.629.423c.824.124,1.666.247,2.489.335.877.123,1.754.229,2.63.335.824.088,1.666.176,2.49.247.876.088,1.77.158,2.63.229.841.07,1.664.123,2.471.176q1.368.106,2.631.158c.859.053,1.7.106,2.489.141.929.036,1.824.053,2.63.088.929.018,1.753.053,2.489.071C46.738,27,47.632,27,48.21,27h.281c.439,0,1.192,0,2.191-.017q1.13-.028,2.63-.053c.771-.018,1.6-.053,2.489-.07.824-.053,1.718-.088,2.629-.142.807-.035,1.631-.087,2.491-.141s1.735-.106,2.629-.176c.806-.07,1.648-.141,2.471-.211q1.316-.106,2.631-.264c.823-.089,1.665-.176,2.489-.282.876-.106,1.753-.23,2.629-.353C85.587,23.6,97,20.219,97,13.492,97,.37,53.47,0,48.491,0,43.529,0,0,.37,0,13.492" transform="translate(354.5 347)" fill="#fed946"/>
      <path id="Fill_125" data-name="Fill 125" d="M0,11.5C0,16.9,20.148,23,45,23s45-6.1,45-11.5S69.854,0,45,0,0,6.1,0,11.5" transform="translate(357.5 349)" fill="#ffc02b"/>
      <path id="Fill_126" data-name="Fill 126" d="M45,0C69.853,0,90,6.2,90,11.68c0,1.032-.714,2.089-2.038,3.125a2.663,2.663,0,0,0,.43-1.372C88.392,8.154,69,2.188,45.073,2.188S1.754,8.154,1.754,13.433A2.789,2.789,0,0,0,2.306,15C.818,13.9,0,12.777,0,11.68,0,6.2,20.148,0,45,0" transform="translate(357.5 349)" fill="#ffa328"/>
      <path id="Fill_127" data-name="Fill 127" d="M3,0V11q-1.47.55-3,1V.977C1.054.674,2.05.346,3,0" transform="translate(440.5 369)" fill="#fed946"/>
      <path id="Fill_128" data-name="Fill 128" d="M3,0V11.645c-.121.065-.24.134-.367.193C1.778,12.242.9,12.628,0,13V1.839A16.892,16.892,0,0,0,3,0" transform="translate(445.5 366)" fill="#fed946"/>
      <path id="Fill_129" data-name="Fill 129" d="M3,0V11.272c-.981.267-1.981.516-3,.728V.654C1.025.451,2.022.231,3,0" transform="translate(435.5 370)" fill="#fed946"/>
      <path id="Fill_130" data-name="Fill 130" d="M3,0V11.449c-.98.2-1.981.392-3,.551V.47C1.008.323,2.011.169,3,0" transform="translate(429.5 372)" fill="#fed946"/>
      <path id="Fill_131" data-name="Fill 131" d="M0,.357V12c1.02-.107,2.02-.232,3-.392V0C2,.124,1,.25,0,.357" transform="translate(424.5 372)" fill="#fed946"/>
      <path id="Fill_132" data-name="Fill 132" d="M0,.268V12c1.021-.071,2.021-.162,3-.287V0Q1.5.161,0,.268" transform="translate(419.5 373)" fill="#ffa328"/>
      <path id="Fill_133" data-name="Fill 133" d="M0,.18V12c1.02-.036,2.02-.108,3-.18V0C1.981.072.98.127,0,.18" transform="translate(414.5 373)" fill="#ffa328"/>
      <path id="Fill_134" data-name="Fill 134" d="M0,.146V12c1.021,0,2.021-.036,3-.091V0C1.961.055.94.092,0,.146" transform="translate(409.5 374)" fill="#ffa328"/>
      <path id="Fill_135" data-name="Fill 135" d="M0,.05V10.993c1,.016,2,0,3-.018V0Q1.291.024,0,.05" transform="translate(404.5 374)" fill="#ffa328"/>
      <path id="Fill_136" data-name="Fill 136" d="M0,0V10.966c.44,0,.88.018,1.321.018C1.88,11,2.441,11,3,11V.017c-.659,0-1.679,0-3-.017" transform="translate(399.5 374)" fill="#ffa328"/>
      <path id="Fill_137" data-name="Fill 137" d="M0,0V10.882c1,.051,2,.085,3,.118V.084C2.08.05,1.06.034,0,0" transform="translate(394.5 374)" fill="#ffa328"/>
      <path id="Fill_138" data-name="Fill 138" d="M0,0V10.8c.98.085,2,.152,3,.2V.151Q1.56.1,0,0" transform="translate(389.5 374)" fill="#ffa328"/>
      <path id="Fill_139" data-name="Fill 139" d="M0,0V10.713c.98.1,1.98.2,3,.287V.219C2.021.152,1,.084,0,0" transform="translate(384.5 374)" fill="#ffa328"/>
      <path id="Fill_140" data-name="Fill 140" d="M0,0V10.593q1.471.2,3,.407V.323C2,.221,1,.119,0,0" transform="translate(378.5 373)" fill="#ffa328"/>
      <path id="Fill_141" data-name="Fill 141" d="M0,0V10.5c.981.171,1.981.342,3,.5V.411Q1.471.232,0,0" transform="translate(373.5 372)" fill="#ffa328"/>
      <path id="Fill_142" data-name="Fill 142" d="M0,0V10.365c.98.223,1.98.429,3,.635V.567Q1.47.31,0,0" transform="translate(368.5 371)" fill="#fd9401"/>
      <path id="Fill_143" data-name="Fill 143" d="M0,0V10.186c.96.288,1.96.543,3,.814V.8C1.96.543.96.289,0,0" transform="translate(363.5 370)" fill="#fd9401"/>
      <path id="Fill_144" data-name="Fill 144" d="M0,0V10.866c.92.39,1.92.779,3,1.134V1.33A27.731,27.731,0,0,1,0,0" transform="translate(358.5 367)" fill="#fd9401"/>
      <path id="Fill_145" data-name="Fill 145" d="M0,0V12.1A4.922,4.922,0,0,0,2,16V4.7A6.747,6.747,0,0,1,0,0" transform="translate(354.5 361)" fill="#fd9401"/>
      <path id="Fill_146" data-name="Fill 146" d="M0,23l126.88-1.984A15.665,15.665,0,0,0,131,10.392,17.471,17.471,0,0,0,127.022,0C84.729.39,42.294.954,0,1.344V3.97l54.49,0s7.957,8.175-.275,15.179L0,20.081Z" transform="translate(49.5 329)" fill="#ff436c"/>
      <path id="Fill_147" data-name="Fill 147" d="M0,0S5.493,8.16,0,16l50.982-.883S59.838,8.952,51.255,0Z" transform="translate(52.5 333)" fill="#d4eeeb"/>
      <path id="Fill_148" data-name="Fill 148" d="M.145,25,0,1.715,140.8,0l.026,3.017L38,4.6l.137,16.019,102.834-1.24.034,3.95Z" transform="translate(53.5 349)" fill="#6045d3"/>
      <path id="Fill_149" data-name="Fill 149" d="M0,2.062.136,18,100,16.8S91.93,8.931,98.755,0Z" transform="translate(91.5 352)" fill="#d4eeeb"/>
      <path id="Fill_150" data-name="Fill 150" d="M108.827,2.96,108.8,0,0,1.168.2,24,109,22.892l-.033-3.874L6.3,20.234,6.166,4.516Z" transform="translate(85.5 349)" fill="#8983ff"/>
      <path id="Fill_151" data-name="Fill 151" d="M.4,4.17A3.719,3.719,0,0,1,0,6.955S3.346,14.771,8,5.36A6.069,6.069,0,0,1,6.288,0S4.476,3.976.4,4.17" transform="translate(526.5 247)" fill="#ffa28d"/>
      <path id="Fill_152" data-name="Fill 152" d="M.227,8.729a34.929,34.929,0,0,0,1.906,9.417c1.577,3.87,5.869,5.19,8.992,2.264a13.052,13.052,0,0,0,2.931-4.675C15.4,12.441,16.978,9.3,15.219,5.794a8.789,8.789,0,0,0-1.682-2.255C11.038,1.045,5.227-1.331,2,.871.337,2.008-.073,3.743.01,5.7Q.077,7.214.227,8.729" transform="translate(520.5 230)" fill="#ffbf8f"/>
      <path id="Fill_153" data-name="Fill 153" d="M4.756,9.928c.708-.045,1.127.744,1.627,1.249a2.537,2.537,0,0,0,3.123.31,9.074,9.074,0,0,1,1.182-.879,1.668,1.668,0,0,1,2.245,1.3c.023.248-.013.5,0,.749a1.9,1.9,0,0,0,1.6,1.719,7.007,7.007,0,0,0,2.23-.424c.747-.151,1.712.056,1.919.788.259.919-.831,1.583-1.39,2.359a2.153,2.153,0,0,0-.03,2.486.868.868,0,0,0,.792.4,1.1,1.1,0,0,0,.577-.427l2.6-3.011a1.763,1.763,0,0,0,.38-.583c.232-.72-.481-1.361-.8-2.048-.593-1.281.227-2.738,1.009-3.913s1.579-2.654.95-3.918c-.729-1.464-2.829-1.554-4-2.694-.433-.421-.719-.969-1.122-1.418A3.622,3.622,0,0,0,15.333.806a9.843,9.843,0,0,0-3.1.491,4.009,4.009,0,0,1-3.056-.243C8.814.819,8.519.483,8.145.26A2.173,2.173,0,0,0,5.108,1.387a3.339,3.339,0,0,1-.272.771,1.355,1.355,0,0,1-.444.406,7.475,7.475,0,0,1-2.333.677C-.987,3.93.185,7.11.4,9.431a1.849,1.849,0,0,0,1.4,1.867c1.578.44,1.678-1.291,2.95-1.37" transform="translate(517.5 224)" fill="#00528d"/>
      <path id="Fill_154" data-name="Fill 154" d="M13.236,0,8.78,4.544S1.912,5.454,0,9l17.586-.658L18,.2Z" transform="translate(500.5 367)" fill="#1e246b"/>
      <path id="Fill_155" data-name="Fill 155" d="M10.429.548,7.342,5.483S.884,8.289,0,12L17,6.3,15.481,0Z" transform="translate(539.5 367)" fill="#1e246b"/>
      <path id="Fill_156" data-name="Fill 156" d="M7.98,0,0,71.624,8.048,72,27,2.43S19.2,5.981,7.98,0" transform="translate(511.5 296)" fill="#533684"/>
      <path id="Fill_157" data-name="Fill 157" d="M0,3.836,19.743,74,28,72.256,18.312,0S14.307,4.4,0,3.836" transform="translate(528.5 295)" fill="#924ae4"/>
      <path id="Fill_158" data-name="Fill 158" d="M16.171,0a17.607,17.607,0,0,1,6.954,2.261,157.454,157.454,0,0,1,6.766,51.654S15.578,61.163,0,53.44L1.8,21.567s.072-17.234.848-17.743C4.764,2.431,7.255,2.052,8.221,1.545c0,0,3.407,7.4,7.95-1.545" transform="translate(518.5 252)" fill="#e772da"/>
      <path id="Fill_159" data-name="Fill 159" d="M6.608,16,5.425,12.727,0,8.2c.762-4.241,2.847-5.13,2.946-5.021C5.677,6.189,7.53,5.018,7.53,5.018S8.415.824,9.646.044A.307.307,0,0,1,10.1.326L9.021,8.018a3.637,3.637,0,0,0,.14,1.626L11,14.51Z" transform="translate(496.5 251)" fill="#ffa28d"/>
      <path id="Fill_160" data-name="Fill 160" d="M18.6,0a7.477,7.477,0,0,0-5.077,5.172C11.48,12.16,9.86,17.655,9.217,21.883c0-.077-2.145-9.82-4.781-13.3L.291,10.592C-.6,13.052.347,30.376,5.985,34a5.079,5.079,0,0,0,6.429-.314c3.487-2.964,4.773-11.1,4.773-11.1S22.43,5.383,18.6,0" transform="translate(502.5 256)" fill="#e772da"/>
      <path id="Fill_161" data-name="Fill 161" d="M2.452,0l-2,4.36A3.743,3.743,0,0,0,.117,5.624,20.538,20.538,0,0,0,.269,11.2s2.638,6.088,5.367-4.14L6,.65Z" transform="translate(538.5 306)" fill="#ffa28d"/>
      <path id="Fill_162" data-name="Fill 162" d="M1.618,15.459c.341,1.5,2.872,12.9,2.613,14.412L.628,50.885,6.055,52l4.951-18.767c1.749-6.2,1.017-13.9-.857-20.067C8.04,6.23,6.1,2.946,4.675,1.4,3.587.222-2.986-4.757,1.618,15.459" transform="translate(539.5 255)" fill="#ee8ee2"/>
      <path id="Fill_163" data-name="Fill 163" d="M1.045,0,4.421.814A6.669,6.669,0,0,1,3.263,8L0,7.878A11.265,11.265,0,0,0,1.045,0" transform="translate(508.5 239)" fill="#924ae4"/>
      <path id="Fill_164" data-name="Fill 164" d="M3.272,24,0,23.484,3.729,0,7,.515Z" transform="translate(473.5 227)" fill="#a9abc5"/>
      <path id="Fill_165" data-name="Fill 165" d="M3.6,0,20,6.812,18.065,19.952,0,23Z" transform="translate(476.5 227)" fill="#924ae4"/>
      <path id="Fill_166" data-name="Fill 166" d="M5,0,2.493,15A9.943,9.943,0,0,1,.517,5.275,9.751,9.751,0,0,1,5,0" transform="translate(471.5 231)" fill="#6045d3"/>
      <path id="Fill_167" data-name="Fill 167" d="M2.892,0S-1.952,8.532.9,17.074L16.381,19s3.909-6.037,2.176-16.619Z" transform="translate(491.5 232)" fill="#6045d3"/>
      <path id="Fill_168" data-name="Fill 168" d="M2.345,0S4.189,8.843,0,16.732L2.057,17A22.332,22.332,0,0,0,4.353.306Z" transform="translate(506.5 234)" fill="#a9abc5"/>
      <path id="Fill_169" data-name="Fill 169" d="M5.221,0S4.635,6.889,1.472,10.264a7.841,7.841,0,0,0-1.058,1.27,2.183,2.183,0,0,0,.431,3.014s2.4,2.3,6.068-3.5c0,0,2.617-3.654,3.087-10.342Z" transform="translate(495.5 249)" fill="#6045d3"/>
      <path id="Fill_170" data-name="Fill 170" d="M2,.189,1.226.016A.613.613,0,0,0,.612.229a2.74,2.74,0,0,0-.6,2.042.573.573,0,0,0,.376.482l.7.248A3.481,3.481,0,0,0,2,.189" transform="translate(498.5 251)" fill="#924ae4"/>
      <path id="Fill_171" data-name="Fill 171" d="M.234,4.76A5.456,5.456,0,0,0,2.6,4.941,3.178,3.178,0,0,0,4.916,1.395a2.339,2.339,0,0,0-1.2-1.25A1.332,1.332,0,0,0,2.7.064,4.112,4.112,0,0,0,.64,1.5,3.479,3.479,0,0,0,.234,4.76" transform="translate(496.5 255)" fill="#ffa28d"/>
      <path id="Fill_172" data-name="Fill 172" d="M1.306,12.563a11.735,11.735,0,0,0,8.688,6.668,5.391,5.391,0,0,1,2.148.52c1.114.687,1.331,2.951,1.435,4.249,2.545-1.251,1.925-.7,3.021-1.389s4.223-3.132,3.2-3.919a10.765,10.765,0,0,1-2.713-4.014,4.9,4.9,0,0,1,.259-3.374A18.564,18.564,0,0,0,18.49,8.048,3.258,3.258,0,0,0,17.524,4.9a1.858,1.858,0,0,0-2.848.723c.333-1.285-4.64-3.986-5.547-4.392A14.945,14.945,0,0,0,4.782.03,4.184,4.184,0,0,0,.088,3.582c-.012.095-.02.191-.025.289-.162,3.037-.1,5.877,1.243,8.693" transform="translate(384.5 293)" fill="#ffb88f"/>
      <path id="Fill_173" data-name="Fill 173" d="M14.394,15.62A3.134,3.134,0,0,1,17.54,17.2a50.513,50.513,0,0,1-.135,5.349,15.669,15.669,0,0,0,3.644-3.431,5.126,5.126,0,0,0,.775-4.711c-.29-.711-.79-1.323-1.1-2.026a2.061,2.061,0,0,1,.13-2.17c.738-.83,2.184-.484,3.015.258a4.337,4.337,0,0,1,1.386,3.844c-.468,2.968-4,5.228-3.4,8.173a4.448,4.448,0,0,0,3.069,3.048,13.587,13.587,0,0,0,4.534.457c.717-.009,1.56-.083,1.936-.679.4-.634.023-1.433-.171-2.152-.506-1.874.338-3.852,1.458-5.452A40.3,40.3,0,0,0,36.1,12.954a9.052,9.052,0,0,0-1.212-9.746A9.6,9.6,0,0,0,25.27.325a9.3,9.3,0,0,0-6.609,7.4c-3.076-2.277-6.889-6.481-10.748-6.6C5.788,1.066,3.5,4.315,1.962,5.75c-2.275,2.122-2.914,7.308-.055,9.26,3.8,2.594,8.4.8,12.487.61" transform="translate(384.5 282)" fill="#532180"/>
      <path id="Fill_174" data-name="Fill 174" d="M5.248,0S-4.809,4.978,2.922,16.308c0,0,6.446,8.217,2.783,10.692,0,0,3.4-1.712-.808-11.23,0,0-2-4.608.35-8.094Z" transform="translate(380.5 289)" fill="#532180"/>
      <path id="Fill_175" data-name="Fill 175" d="M14.074,6.589a4.788,4.788,0,0,1-.784,2.459,4.375,4.375,0,0,0-.718,2.473c.1.867.955,1.695,1.782,1.427a3.465,3.465,0,0,1-.418-3.518A13.249,13.249,0,0,0,15,5.869,5.16,5.16,0,0,0,11.705,1.3,13.98,13.98,0,0,0,5.848.492,23.4,23.4,0,0,1,0,0,6.9,6.9,0,0,0,6.17,3.817c2.369-.005,7.669-.946,7.9,2.772" transform="translate(385.5 295)" fill="#532180"/>
      <path id="Fill_176" data-name="Fill 176" d="M3.838.922C2,1.59.074,2.925,0,4.848A4.32,4.32,0,0,0,2.365,8.435c2.411,1.452,5.4,1.531,8.226,1.56a15.283,15.283,0,0,0,4.822-.471A5.074,5.074,0,0,0,18.85,6.417c.839-2.786-2.019-4.7-4.267-5.495a16.116,16.116,0,0,0-10.745,0" transform="translate(346.5 356)" fill="#00395e"/>
      <path id="Fill_177" data-name="Fill 177" d="M0,19.706S13.361,6.149,22.418.948c0,0,6.938-3.4,17.628,2.664L63,12.973,50.74,23.208S32.159,16.631,25.7,10.657c0,0-7.686,7.974-21.9,13.343Z" transform="translate(337.5 335)" fill="#c0376d"/>
      <path id="Fill_178" data-name="Fill 178" d="M36.2,1.638S24.791,4.413,17.1,5.306c0,0-18.633.892-17,7.908,0,0-1.412,7.271,18.159,6.76,0,0,31-.6,33.739-15.457,0,0-6.862-7.822-15.8-2.879" transform="translate(360.5 348)" fill="#ff3866"/>
      <path id="Fill_179" data-name="Fill 179" d="M5.606,1.082A10.96,10.96,0,0,1,12.535.244a7.367,7.367,0,0,1,5.229,4.4c.4,1.077.361,2.525-.63,3.1a3.065,3.065,0,0,1-1.674.25Q9.487,7.753,3.514,7.5C1.8,7.433-1.17,6.724.486,4.543c1.134-1.5,3.447-2.714,5.121-3.461" transform="translate(321.5 358)" fill="#00395e"/>
      <path id="Fill_180" data-name="Fill 180" d="M11.424.518S3.194-1.668.028,2.94c0,0-.76,3.425,5.7,1.443a9.277,9.277,0,0,1,5.7,0s3.546-1.99,0-3.864" transform="translate(357.5 331)" fill="#ffb88f"/>
      <path id="Fill_181" data-name="Fill 181" d="M29.058,1.732l-10.7,14.613a2.652,2.652,0,0,1-2.775,1.113L1.555,14.406A6.582,6.582,0,0,0,.293,16.7,6.5,6.5,0,0,0,.04,19.352L16.4,24.764a4.637,4.637,0,0,0,4.962-1.356L31.579,11.566C32.973,9.95,34.949,6.112,35,3.179,34.981,1.323,34.154-.044,32.351,0a3.733,3.733,0,0,0-3.293,1.731" transform="translate(367.5 318)" fill="#efafff"/>
      <path id="Fill_182" data-name="Fill 182" d="M7.92,5.542S-1.092,10.451.111,39.575c0,0,5.12,5.33,21.9,2.691,0,0,1.584.081,2.481-4.314A46.139,46.139,0,0,0,12.692,0S14.647,1.205,7.92,5.542" transform="translate(391.5 311)" fill="#ca60ed"/>
      <path id="Fill_183" data-name="Fill 183" d="M8.955,7.874a9.278,9.278,0,0,1,.28-5.133A4.194,4.194,0,0,1,13.274.018a4.3,4.3,0,0,1,2.871,1.831,12.688,12.688,0,0,1,1.522,3.137q2.613,6.941,5.225,13.883c.79,2.1,1.582,4.435.759,6.52a6.258,6.258,0,0,1-5.079,3.518,18.423,18.423,0,0,1-6.419-.63Q6.19,26.969.233,25.628c-.514-.115-.048-2.149.161-4.991q4.132.221,8.265.446c1.313.071,5.653,1.125,5.764-.734.054-.888-5.211-10.157-5.47-12.476" transform="translate(388.5 320)" fill="#efafff"/>
      <path id="Fill_184" data-name="Fill 184" d="M4.345,11.969h0A.918.918,0,0,1,3.23,11.4L.034,1.058A.826.826,0,0,1,.655.032.917.917,0,0,1,1.77.6l3.2,10.338a.825.825,0,0,1-.62,1.027" transform="translate(376.5 325)" fill="#747390"/>
      <path id="Fill_185" data-name="Fill 185" d="M10.669,12,3.256,9.772.64,5.51S-.817.292.665,0a28.275,28.275,0,0,1,1,3.96l4.832.9S3.476,1.978,4.594.962c0,0,.6-.07,4.207,2.968L11,8.311Z" transform="translate(378.5 333)" fill="#ffb88f"/>
      <path id="Fill_186" data-name="Fill 186" d="M2.988,0,.014,2.8S-.375,6.349,2.988,5.972L6,3.584Z" transform="translate(335.5 355)" fill="#ffb88f"/>
      <path id="Fill_187" data-name="Fill 187" d="M41.639,3.956a6.745,6.745,0,0,0-7.828,1.638A6.255,6.255,0,0,0,28.65.111a8.668,8.668,0,0,0-7.39,2.54,14.5,14.5,0,0,0-3.713,7.107c-2.256-1.07-5.043.595-6.094,2.863s-.843,4.9-.614,7.386a6.739,6.739,0,0,0-3.6,12.016,4.792,4.792,0,0,0-2.8,8.35A7.985,7.985,0,0,0,.109,45.413c-.493,2.234.725,4.9,2.94,5.463,1.549.394,3.145-.248,4.706-.59,5.333-1.167,11.36,1.123,16.128-1.536,1.738-.97,3.147-2.539,5.034-3.168,3.27-1.092,7.324.842,10.093-1.214,2.453-1.822,2.216-5.517,3.453-8.313.665-1.505,1.78-2.763,2.592-4.2a5.308,5.308,0,0,0,.618-4.712,5.328,5.328,0,0,0-3.318-2.53c-2.465-.82-6.833-1.365-6.809-4.884.016-2.261,1.924-2.445,3.7-3.049,5.5-1.866,9.177-9.448,2.389-12.728" transform="translate(178.5 287)" fill="#c0376d"/>
      <path id="Fill_188" data-name="Fill 188" d="M13.207,10.126a11.023,11.023,0,0,1-4.346,4.341c-1.88.881-4.38.719-5.736-.853A7.525,7.525,0,0,1,1.77,10.386Q1.045,7.437.322,4.489a6.936,6.936,0,0,1-.3-2.41A2.353,2.353,0,0,1,1.3.135a2.2,2.2,0,0,1,2.35.6A4.224,4.224,0,0,1,4.671,3.064C4.86,4.283,13.977.472,14.807.75c3.033,1.019-.547,7.7-1.6,9.376" transform="translate(201.5 300)" fill="#ffb88f"/>
      <path id="Fill_189" data-name="Fill 189" d="M8,7.532A4.058,4.058,0,0,0,5.871,11S2.74,7.532,0,9.266c0,0,3.695-6.4,4-8.861S8,7.532,8,7.532" transform="translate(199.5 307)" fill="#ffb88f"/>
      <path id="Fill_190" data-name="Fill 190" d="M14.957,1.358c1.721.863,3.36,2.469,2.99,4.246A3.716,3.716,0,0,1,15.5,8.076a12.348,12.348,0,0,1-3.709.587l-5.917.326C1.776,9.215-2.1,5.767,1.3,2.324c3.063-3.1,10.078-2.757,13.653-.966" transform="translate(241.5 366)" fill="#00395e"/>
      <path id="Fill_191" data-name="Fill 191" d="M10,4.36,6.722,0,0,2.791l2.72,3.1s4.06,2.5,5.9,0A3.217,3.217,0,0,1,10,4.36" transform="translate(262.5 363)" fill="#ffb88f"/>
      <path id="Fill_192" data-name="Fill 192" d="M72,25.461,64.473,29,44.534,12.865l-23.1,10.32S7.046,20.037,0,23.815c0,0,12.29-12.9,27.377-18.4A115.948,115.948,0,0,1,41.005.262,7.387,7.387,0,0,1,47.647,1.69a124.264,124.264,0,0,1,10.37,8.556A123.76,123.76,0,0,1,72,25.461" transform="translate(197.5 337)" fill="#ff3866"/>
      <path id="Fill_193" data-name="Fill 193" d="M46.521,7.937A15.358,15.358,0,0,1,52.1,10.823c1.512,1.4,2.38,3.535,1.612,5.365-1.13,2.689-4.877,3.4-8.029,3.727-7.166.731-14.391,1.462-21.573.867S9.706,18.164,4.19,13.951C1.922,12.219-.142,9.847.008,7.161.194,3.852,3.692,1.441,7.2.53,14.168-1.276,17.732,2,23.78,3.477c7.559,1.85,15.232,1.908,22.741,4.46" transform="translate(192.5 354)" fill="#ff3866"/>
      <path id="Fill_194" data-name="Fill 194" d="M.024,1.69C-.28,3.18,2.373,4.974,5.949,5.7s6.723.1,7.027-1.389S10.627,1.025,7.051.3.328.2.024,1.69" transform="translate(225.5 350)" fill="#f6a57b"/>
      <path id="Fill_195" data-name="Fill 195" d="M13.272,25.857C13.333,27.587,12.382,2.253,2.7,0c0,0-6.865,4.624,1.309,28.3,0,0-.137,3.739,5.5,5.78L31.166,39s2.018-3.186-.225-5.579Z" transform="translate(197.5 317)" fill="#00a2a6"/>
      <path id="Fill_196" data-name="Fill 196" d="M23.861,38.267s1.647-23.358-6.382-35.951c0,0-6.794-8.734-12.97,7.718,0,0-9.264,18.889-1.236,36.966A23.719,23.719,0,0,1,24,40.907Z" transform="translate(188.5 316)" fill="#896ae0"/>
      <path id="Fill_197" data-name="Fill 197" d="M0,3.042C.009,4.7,2.926,6.022,6.516,6S13.009,4.614,13,2.957,10.074-.023,6.484,0-.009,1.386,0,3.042" transform="translate(224.5 354)" fill="#ffb88f"/>
      <path id="Fill_198" data-name="Fill 198" d="M12.951,25.382S12.134-2.882,3.783.241c0,0-8.147,3.53-.528,27.248,0,0-.277,3.7,5.5,5.909L31.029,39s2.206-3.085-.033-5.531Z" transform="translate(194.5 320)" fill="#8ca8ff"/>
      <path id="Fill_199" data-name="Fill 199" d="M1.013,2H45.986A1.009,1.009,0,0,0,47,1a1.01,1.01,0,0,0-1.014-1H1.013A1.009,1.009,0,0,0,0,1,1.009,1.009,0,0,0,1.013,2" transform="translate(209.5 360)" fill="#00395e"/>
      <path id="Fill_200" data-name="Fill 200" d="M0,21H26V4.508A4.6,4.6,0,0,0,21.311,0H4.689A4.6,4.6,0,0,0,0,4.508Z" transform="translate(230.5 339)" fill="#00395e"/>
      <path id="Fill_201" data-name="Fill 201" d="M0,3.5C0,5.434,1.119,7,2.5,7S5,5.434,5,3.5,3.88,0,2.5,0,0,1.566,0,3.5" transform="translate(245.5 344)" fill="#e3d1ff"/>
      <path id="Fill_202" data-name="Fill 202" d="M21.834,6.254a.653.653,0,0,1-.375,1.082,146.739,146.739,0,0,1-18.262.6A3.738,3.738,0,0,1,1,7.4,3.065,3.065,0,0,1,.017,4.678,9.161,9.161,0,0,1,.949,1.8a7.927,7.927,0,0,0,3.9,1.014C6.713,2.639,6.613.755,7.773.238,9.2-.4,11.726.4,13.157.815a18.774,18.774,0,0,1,8.677,5.439" transform="translate(264.5 367)" fill="#00395e"/>
      <path id="Fill_203" data-name="Fill 203" d="M1.66,43.068A5.417,5.417,0,0,1,0,39.845a4.288,4.288,0,0,1,2.365-3.417,29.678,29.678,0,0,0,3.761-2.157c3.017-2.506,2.937-7.363,5.648-10.2,1.875-1.961,6.273-2.325,6.3-5.043a74.147,74.147,0,0,1,.765-8.557A11.423,11.423,0,0,1,25.1,1.031a11.878,11.878,0,0,1,11.264.9c8.029,4.957,5.37,6.7,8.029,9.749,2.538,2.911,5.891,5.2,5.686,9.059-.132,2.456-1.83,5.141-.414,7.149C50.873,29.6,53.5,29.42,55.2,30.634c2.741,1.953,2,6.426,4.128,9.034A16.8,16.8,0,0,0,62.566,42.2a4.43,4.43,0,0,1,2.1,3.371c-.033,1.773-1.788,3.264-1.523,5.018.213,1.417,1.692,2.4,1.847,3.83a2.988,2.988,0,0,1-1.581,2.723,8.725,8.725,0,0,1-3.168.922c-4.823.758-9.854,1.5-14.5.01-2.391-.767-4.7-2.123-7.206-1.979-3.921.224-7.054,4.069-10.978,3.9-3.887-.162-6.813-4.216-10.7-4.3-3.619-.077-7.059,1.906-8.8-2.316-.614-1.486-.756-3.046-1.587-4.471-1.242-2.129-3.209-3.97-4.8-5.841" transform="translate(76.5 243)" fill="#ef4b00"/>
      <path id="Fill_204" data-name="Fill 204" d="M2.3.659S2.538,5.495,0,8.195A5.649,5.649,0,0,0,5.669,13,5.647,5.647,0,0,0,11,8.195S8.976,6.264,8.719,0c0,0-3.149,3.336-6.42.659" transform="translate(104.5 266)" fill="#ffb88f"/>
      <path id="Fill_205" data-name="Fill 205" d="M13.867,7.359c2.188,5.326,1.111,10.826-2.4,12.283s-8.141-1.677-10.33-7S.022,1.816,3.538.357s8.141,1.677,10.329,7" transform="translate(99.5 248)" fill="#ffbfad"/>
      <path id="Fill_206" data-name="Fill 206" d="M9.432,7.751A17.38,17.38,0,0,0,26,11.048c-1.717-4-4.527-7.691-8.441-9.667S8.544-.552,5.118,2.169A12.745,12.745,0,0,0,.95,9.227c-4.82,19.783,10.356.158,8.482-1.476" transform="translate(94.5 243)" fill="#ef4b00"/>
      <path id="Fill_207" data-name="Fill 207" d="M0,17.126S5.492,3.2,11.195,2.048c0,0,6.317-2.669,7.393-1.913A5.824,5.824,0,0,0,22.6,4.386c2.692.676,5.851-1.049,6.973-4.251L36.964,3.21A39.7,39.7,0,0,1,45,16.4a37.589,37.589,0,0,1-8.507,4.436L33.162,15.9s1.682,15.517,1.918,20.687L11.3,38l-.1-22.1-2.62,4.6S2.112,20.922,0,17.126" transform="translate(85.5 275)" fill="#96bf29"/>
      <path id="Fill_208" data-name="Fill 208" d="M5.872,19.841a12.562,12.562,0,0,1,5.123-.13l-.011-.156S23.123,12.9,21.759,8.9L17.725,4.163S23.836,1.377,25.372,0l3.454,9.7S32,15.333,11.22,23.073l0-.039a13.443,13.443,0,0,1-4.333,1.629C3.373,25.391.3,24.9.02,23.569s2.34-3,5.852-3.728" transform="translate(104.5 291)" fill="#ffa989"/>
      <path id="Fill_209" data-name="Fill 209" d="M23.1,19.823a12.623,12.623,0,0,0-5.147-.13l.01-.157s-12.2-6.683-10.828-10.7l4.052-6.122S4.954,1.639,3.483,0L.2,10.209S-3.163,15.3,17.723,23.067l0-.039a13.541,13.541,0,0,0,4.355,1.634c3.529.729,6.618.237,6.9-1.1s-2.353-3.011-5.881-3.741" transform="translate(82.5 292)" fill="#ffb88f"/>
      <path id="Fill_210" data-name="Fill 210" d="M0,16.217,1.591,23s20.05-.072,43.955-9.55c0,0,12.936-5.46,10.029-10.733,0,0-1.87-6.353-21.81.369,0,0-14.053,5.346-33.764,13.13" transform="translate(88.5 308)" fill="#003960"/>
      <path id="Fill_211" data-name="Fill 211" d="M18.654,1.139S12.43-2.706,2.673,3.732c0,0-6.13,4.142.177,6.543a11.4,11.4,0,0,0,5.474.632c3.4-.427,9.729-1.686,13.291-5.305,0,0,1.958-1.547-2.962-4.462" transform="translate(64.5 326)" fill="#4d31a2"/>
      <path id="Fill_212" data-name="Fill 212" d="M13.768,0,5.774,1.762S.788,2.65,0,5.279c0,0,2.453,3.181,6.945.893L15,5.035Z" transform="translate(74.5 326)" fill="#ffb88f"/>
      <path id="Fill_213" data-name="Fill 213" d="M56,17.422,54.178,24S33.991,23.284,10.23,13.254c0,0-12.847-5.753-9.747-10.811,0,0,2.09-6.149,21.949,1.063,0,0,13.975,5.676,33.568,13.915" transform="translate(69.5 307)" fill="#394b90"/>
      <path id="Fill_214" data-name="Fill 214" d="M3.483,1.054s6.381-3.9,15.959,3.308c0,0,6.014,4.634-.4,6.991a10.794,10.794,0,0,1-5.517.492c-3.4-.57-9.713-2.13-13.166-6.119,0,0-1.914-1.72,3.127-4.671" transform="translate(127.5 326)" fill="#4d31a2"/>
      <path id="Fill_215" data-name="Fill 215" d="M1.4,0,9.341,2.2S14.3,3.346,15,6.247c0,0-2.563,3.393-6.98.737L0,5.463Z" transform="translate(123.5 326)" fill="#ffb88f"/>
      <path id="Fill_216" data-name="Fill 216" d="M11.7,3H1.3A1.415,1.415,0,0,1,0,1.5,1.415,1.415,0,0,1,1.3,0H11.7A1.415,1.415,0,0,1,13,1.5,1.415,1.415,0,0,1,11.7,3" transform="translate(100.5 310)" fill="#394b90"/>
    </g>
  </g>
</svg>
