<svg xmlns="http://www.w3.org/2000/svg" xmlns:xlink="http://www.w3.org/1999/xlink" width="215" height="215" viewBox="0 0 215 215"><defs><style>.a{fill:url(#a);}.b{fill:#fff;}.c{filter:url(#b);}</style><linearGradient id="a" x1="0.247" y1="0.081" x2="1" y2="1" gradientUnits="objectBoundingBox"><stop offset="0" stop-color="#d2c699"/><stop offset="1" stop-color="#ad8d47"/></linearGradient><filter id="b" x="0" y="0" width="215" height="215" filterUnits="userSpaceOnUse"><feOffset input="SourceAlpha"/><feGaussianBlur stdDeviation="12.5" result="c"/><feFlood flood-color="#fff" flood-opacity="0.6"/><feComposite operator="in" in2="c"/><feComposite in="SourceGraphic"/></filter></defs><g transform="translate(-123 -5458.5)"><g class="c" transform="matrix(1, 0, 0, 1, 123, 5458.5)"><circle class="a" cx="70" cy="70" r="70" transform="translate(37.5 37.5)"/></g><g transform="translate(203.644 5540.026)"><path class="b" d="M9.134,41.064A26.394,26.394,0,0,0,1.087,51.423a.828.828,0,0,0,.428,1.113.785.785,0,0,0,1.113-.428,23.981,23.981,0,0,1,7.533-9.674.921.921,0,0,0,.171-1.2.776.776,0,0,0-1.2-.171Z" transform="translate(-1.006 -6.73)"/><path class="b" d="M14.785,40.134c.428-.171.77-.428,1.2-.6a.823.823,0,0,0-.77-1.455,9.357,9.357,0,0,0-1.284.685.948.948,0,0,0-.342,1.2C13.586,39.877,14.1,40.477,14.785,40.134Z" transform="translate(-2.805 -6.313)"/><path class="b" d="M52.861,29.078l1.8-1.8a2.483,2.483,0,0,0,0-3.6l-1.2-1.284a2.483,2.483,0,0,0-3.6,0l-6.677,6.677L41.9,27.794a2.633,2.633,0,0,0-.514-2.911,3.02,3.02,0,0,0-1.113-.685,2.777,2.777,0,0,0-.685-2.4,3.02,3.02,0,0,0-1.113-.685,2.777,2.777,0,0,0-.685-2.4,2.888,2.888,0,0,0-1.712-.77,2.422,2.422,0,0,0-.77-1.712,2.482,2.482,0,0,0-3.6,0l-.6.6-3.6-3.6,4.623-4.623a.847.847,0,0,0-1.2-1.2L14.68,23.6a.828.828,0,0,1-1.2,0l-1.2-1.2a.828.828,0,0,1,0-1.2l4.109-4.109a.847.847,0,1,0-1.2-1.2l-1.027,1.027L12.455,15.21a.985.985,0,0,1,0-1.455L23.07,3.139a.985.985,0,0,1,1.455,0l1.712,1.712-9.16,9.16a.847.847,0,1,0,1.2,1.2L30.518,2.968a.794.794,0,0,1,1.2,0L33,4.252a.828.828,0,0,1,0,1.2.847.847,0,0,0,1.2,1.2,2.483,2.483,0,0,0,0-3.6L32.915,1.769a2.487,2.487,0,0,0-3.6,0l-1.8,1.8L25.809,1.855a2.793,2.793,0,0,0-3.852,0L19.046,4.766a3.45,3.45,0,0,0-4.88,4.88l-2.911,2.911a2.793,2.793,0,0,0,0,3.852l1.712,1.712-1.8,1.8a2.483,2.483,0,0,0,0,3.6L12.455,24.8a2.483,2.483,0,0,0,3.6,0l6.677-6.677,1.2,1.2-1.455,1.37A6.538,6.538,0,0,0,20.5,25.4a4.849,4.849,0,0,1-1.455,3.51l-1.969,2.055a.847.847,0,0,0,1.2,1.2l2.055-2.055A6.538,6.538,0,0,0,22.3,25.4a4.849,4.849,0,0,1,1.455-3.51L25.039,20.6l1.2,1.2-.6.6a.847.847,0,0,0,1.2,1.2l6.078-6.078a.847.847,0,0,1,1.2,1.2l-2.4,2.4a.847.847,0,1,0,1.2,1.2l2.4-2.4a.847.847,0,1,1,1.2,1.2l-.6.6-1.8,1.8a.847.847,0,0,0,1.2,1.2l1.8-1.8h0a.847.847,0,1,1,1.2,1.2l-.6.6-1.2,1.2a.847.847,0,0,0,1.2,1.2l1.2-1.2a.847.847,0,1,1,1.2,1.2l-3.6,3.6-3.852,3.852a3.978,3.978,0,0,1-1.969,1.2,7.6,7.6,0,0,0-3.852,2.055l-4.965,6.677A24.386,24.386,0,0,1,16.478,49.8l-3.424,2.483a.837.837,0,0,0-.171,1.2.852.852,0,0,0,1.2.171l3.424-2.483a27.621,27.621,0,0,0,5.736-5.65l4.88-6.592a6.948,6.948,0,0,1,3.167-1.541,7.19,7.19,0,0,0,2.654-1.627L37.2,32.5l1.2,1.2-4.537,4.537a.847.847,0,1,0,1.2,1.2L40.191,34.3,51.064,23.428a.828.828,0,0,1,1.2,0l1.284,1.284a.828.828,0,0,1,0,1.2l-3.852,3.852a.847.847,0,0,0,1.2,1.2l.856-.856,1.712,1.712a.985.985,0,0,1,0,1.455L42.674,44.06a.985.985,0,0,1-1.455,0l-1.712-1.712,9.074-9.074a.847.847,0,1,0-1.2-1.2L35.312,44.231a.828.828,0,0,1-1.2,0l-1.284-1.284a.828.828,0,0,1,0-1.2.847.847,0,0,0-1.2-1.2,2.483,2.483,0,0,0,0,3.6l1.284,1.284a2.483,2.483,0,0,0,3.6,0l1.8-1.8,1.712,1.712a2.793,2.793,0,0,0,3.852,0l2.911-2.911a3.45,3.45,0,0,0,4.88-4.88l2.911-2.911a2.793,2.793,0,0,0,0-3.852ZM15.365,6.05a1.655,1.655,0,0,1,2.4,0l-2.4,2.4A1.655,1.655,0,0,1,15.365,6.05ZM27.436,20.6l-1.8-1.8h0l-1.8-1.8,2.4-2.4,3.6,3.6ZM39.507,32.674l-1.2-1.2,2.4-2.4,1.2,1.2Zm10.958,8.475a1.655,1.655,0,0,1-2.4,0l2.4-2.4A1.655,1.655,0,0,1,50.464,41.149Z" transform="translate(-2.358 -0.993)"/><path class="b" d="M27.156,36.564l-5.564,1.37a.813.813,0,0,0-.6,1.027.981.981,0,0,0,1.027.6l5.564-1.37a2.464,2.464,0,0,0,1.883-2.055h.942a.809.809,0,0,1,.856.856.856.856,0,0,0,1.712,0,2.522,2.522,0,0,0-2.568-2.568h-.856v-.856a.809.809,0,0,1,.856-.856h3.424a.856.856,0,1,0,0-1.712H30.409a2.522,2.522,0,0,0-2.568,2.568v2.055A.866.866,0,0,1,27.156,36.564Z" transform="translate(-3.876 -5.311)"/></g></g></svg>