<svg xmlns="http://www.w3.org/2000/svg" xmlns:xlink="http://www.w3.org/1999/xlink" width="870.591" height="456.172" viewBox="0 0 870.591 456.172"><defs><style>.a{fill:url(#a);}.b,.c{fill:url(#b);}.c,.d{stroke:rgba(0,0,0,0);}.d{fill:url(#d);}.e{fill:#fc3c3c;}.f{fill:#f8b500;}.g{fill:#f89900;}.h{fill:#393e46;}.i{fill:#2c2e36;}.j{fill:#cacccf;}.k{fill:#fff;}.l{fill:#00adb5;}.m{fill:#fff8eb;}.n{fill:#f7d5a0;}.o{fill:#008f96;}.p{mix-blend-mode:multiply;isolation:isolate;}.q{fill:#17191c;}.r{fill:#de3535;}.s{fill:#fff4e0;}.t{fill:#939598;}.u{fill:#a7a9ac;}.v{fill:#e6e7e8;}.w{fill:#d93333;}.x{fill:#00a3ab;}.y{fill:#bcbec0;}</style><linearGradient id="a" x1="1.193" y1="0.5" x2="-0.259" y2="0.5" gradientUnits="objectBoundingBox"><stop offset="0" stop-color="#173a56"/><stop offset="1" stop-color="#071627"/></linearGradient><linearGradient id="b" x1="-2.457" y1="-0.421" x2="2.23" y2="1" gradientUnits="objectBoundingBox"><stop offset="0" stop-color="#071627"/><stop offset="1" stop-color="#173a56"/></linearGradient><linearGradient id="d" x1="-1.541" y1="0.5" x2="2.6" y2="0.5" xlink:href="#b"/></defs><g transform="translate(-112.495 -105.308)"><g transform="translate(112.495 105.84)"><g transform="translate(0 12.179)"><path class="a" d="M945.719,398.17s94.6-214.516-20.158-259.837c-91.676-36.2-171.307,51.862-236.336,42.591-26.455-3.772-51-39.338-101.033-44.873-78.49-8.684-117.746,47.89-184.775,33.055-80.536-17.824-149.01-50.651-219.266,1.444-99.973,74.131-20.637,243.891-20.637,243.891S82.45,463.1,124.686,514.414c67,81.408,230.768,9.933,311.1,2.508s83.57,64.012,242.156,39.357,145.644-70.226,231.928-58.757C996.917,509.092,1003.048,430.936,945.719,398.17Z" transform="translate(-112.495 -129.553)"/></g><g transform="translate(291.728 419.757)"><path class="b" d="M701.007,926.476c31.66-8.575,62.667-.041,67.826,16.508s-40.381,19.13-73.161,12.855C673.169,951.531,676.254,933.18,701.007,926.476Z" transform="translate(-680.478 -923.093)"/></g><g transform="translate(745.316 394.021)"><path class="c" d="M1575.471,874.3c10.332-3.614,21.692.088,25.757,13.127s-9.556,21.724-21.313,19.848C1562.09,904.426,1556.4,880.967,1575.471,874.3Z" transform="translate(-1563.6 -872.986)"/></g><g transform="translate(289.318)"><path class="d" d="M690.572,109.012c14.808-5.616,32.846-4.225,41.977,7.821s-9.5,23.315-27.715,23.8C677.209,141.374,663.236,119.379,690.572,109.012Z" transform="translate(-675.786 -105.84)"/></g><g transform="translate(168.163 127.13)"><path class="e" d="M462.978,354.327a13.71,13.71,0,0,1-9.721,2.171,115.176,115.176,0,0,1-12.929-3.14l-.425,3.3a32.09,32.09,0,0,0,13.354,4.875,58.282,58.282,0,0,0,12.667,0l3.06-6.321Z" transform="translate(-439.903 -353.358)"/></g><g transform="translate(650.335 3.157)"><g transform="translate(31.626)"><path class="f" d="M1533.928,176.412c.493-28.378-6.009-65.091-43.1-64.417-60.317,1.1-49.894,84.221-49.894,84.221l2.812.281,7.845,6.741s2.77-84.42,40.973-78.892c22.056,3.192,27.562,30.436,28.276,52.9Z" transform="translate(-1440.25 -111.986)"/></g><g transform="translate(0 77.761)"><g transform="translate(31.805)"><path class="g" d="M1452.7,264.6l-12.107-1.212c.2,4.036.508,6.469.508,6.469l2.812.281,2.518,2.164,5.545.555,0,0C1452.126,270.751,1452.353,267.925,1452.7,264.6Z" transform="translate(-1440.598 -263.385)"/></g><g transform="translate(0 2.637)"><path class="f" d="M1378.675,368.006l16.232-99.487L1519.98,278.61l.61,103.6Z" transform="translate(-1378.675 -268.519)"/></g><g transform="translate(54.338 19.892)"><g transform="translate(1.041 0)"><circle class="h" cx="14.041" cy="14.041" r="14.041" transform="matrix(0.53, -0.848, 0.848, 0.53, 0, 23.811)"/></g><g transform="translate(0 25.014)"><path class="h" d="M1500.161,353.453l-15.691,35.424,34.74,3.477-10.419-40.7-8.365-.837Z" transform="translate(-1484.47 -350.816)"/></g><g transform="translate(14.923 6.197)"><path class="i" d="M1523.912,314.179a14.043,14.043,0,1,0,9.052,14.551A14.043,14.043,0,0,0,1523.912,314.179Z" transform="translate(-1513.525 -314.179)"/></g><g transform="translate(13.373 25.851)"><path class="i" d="M1519.511,357.073l-9,33.934,21.366,2.139-10.419-40.7Z" transform="translate(-1510.507 -352.446)"/></g></g><g transform="translate(0 11.996)"><path class="g" d="M1512.667,286.74s7.019,80.225-40.958,85.8-90.872-8.915-90.872-8.915l-2.161,13.248,141.915,14.205-.61-103.6Z" transform="translate(-1378.675 -286.74)"/></g></g></g><g transform="translate(91.693 81.357)"><g transform="translate(6.24)"><path class="f" d="M304.4,308.305c-2.922-17.474-2.3-40.738,20.663-43.744,37.338-4.888,38.572,47.391,38.572,47.391l-1.71.434-4.221,4.885s-9.5-51.861-32.573-44.924c-13.322,4.005-14.207,21.333-12.576,35.265Z" transform="translate(-303.168 -264.239)"/></g><g transform="translate(0 43.673)"><g transform="translate(59.064)"><path class="g" d="M406.013,351.134l7.362-1.865c.247,2.511.283,4.041.283,4.041l-1.71.433-1.355,1.568-3.372.854,0,0C406.938,354.88,406.537,353.157,406.013,351.134Z" transform="translate(-406.013 -349.269)"/></g><g transform="translate(0 0.191)"><path class="f" d="M386.5,409.563l-19.2-59.921L291.018,367.41l9.182,64.015Z" transform="translate(-291.018 -349.642)"/></g><g transform="translate(31.4 17.583)"><g transform="translate(0 0)"><circle class="h" cx="8.765" cy="8.765" r="8.765" transform="translate(0 5.109) rotate(-16.945)"/></g><g transform="translate(7.07 14.064)"><path class="h" d="M368.56,413.585l-2.642,24.039,21.324-4.5-13.889-22.245-5.135,1.083Z" transform="translate(-365.918 -410.884)"/></g><g transform="translate(7.35 2.184)"><path class="i" d="M370.494,387.754a8.766,8.766,0,0,0,4.295,16.13,8.766,8.766,0,0,0-4.295-16.13Z" transform="translate(-366.464 -387.754)"/></g><g transform="translate(14.224 14.064)"><path class="i" d="M379.846,414l1.055,21.89,13.116-2.765-13.889-22.245Z" transform="translate(-379.846 -410.884)"/></g></g><g transform="translate(8.29 0.192)"><path class="g" d="M375.152,349.642l-3.091.72c2.232,6.826,11.362,46.177-10.865,58.084-33.651,18.027-54.037,16.763-54.037,16.763l.892,6.217,86.3-21.863Z" transform="translate(-307.158 -349.642)"/></g></g></g><g transform="translate(127.111 357.048)"><ellipse class="j" cx="308.185" cy="10.737" rx="308.185" ry="10.737"/></g><g transform="translate(142.108 81.891)"><g transform="translate(87.087)"><path class="k" d="M616.38,265.28c-33.943,0-57.65,26.5-57.65,64.444,0,36.772,23.026,62.455,55.994,62.455,28.7,0,57.65-19.978,57.65-64.61C672.374,290.895,649.348,265.28,616.38,265.28Zm29.18,62.953c0,20.215-9.279,40.613-30.007,40.613-20.5,0-29.842-20.452-29.842-39.455,0-18.812,7.858-40.779,30.007-40.779C636.221,288.613,645.56,309.15,645.56,328.233Z" transform="translate(-558.73 -265.28)"/></g><g transform="translate(212.851 0.994)"><path class="k" d="M872.233,277.978c-7.934-7.141-19.774-10.763-35.187-10.763a174.971,174.971,0,0,0-28.624,2.234l-4.834.805V391.3h25.984V347.405c1.945.12,3.906.147,5.817.147,16.2,0,29.821-5,38.284-14.017,6.8-7,10.25-16.388,10.25-27.892C883.925,294.323,879.741,284.47,872.233,277.978ZM857.94,306.307c0,14.942-12.083,18.077-22.221,18.077-2.339,0-4.379-.084-6.146-.253v-33.6c2.039-.187,4.658-.318,7.8-.318C851.023,290.217,857.94,295.63,857.94,306.307Z" transform="translate(-803.589 -267.215)"/></g><g transform="translate(302.664 1.822)"><path class="k" d="M1004.436,339.72h43.415v-23.5h-43.415V292.493h45.9V268.827H978.452V392.083h74.371V368.417h-48.386Z" transform="translate(-978.452 -268.827)"/></g><g transform="translate(385.847 1.822)"><path class="k" d="M1210.663,321.342c0,7.111.054,13.8.225,20.357q-3.854-6.689-8.278-13.677l-37.495-59.195h-24.71V392.082h25.155V338.576c0-8.185-.063-15.351-.2-21.99,2.881,4.985,6.105,10.321,9.732,16.109l37.161,59.388h23.572V268.827h-25.158Z" transform="translate(-1140.405 -268.827)"/></g><g transform="translate(0 135.965)"><path class="k" d="M437.145,580.6c-15.739-6.093-18.509-10.061-18.509-16.148,0-5.051,4-10.952,15.262-10.952a38.512,38.512,0,0,1,18.442,4.6l6.044,3.294,7.711-22.815-4.159-2.357c-4.1-2.324-13.131-6.22-27.542-6.22-24.283,0-41.907,15.186-41.907,36.109,0,17.011,10.907,29.146,33.2,37.048,14.576,5.607,17.338,10.232,17.338,16.806,0,8.31-6.572,13.271-17.579,13.271a45.392,45.392,0,0,1-22.821-6.432l-6.4-3.939-7.049,23.4,3.567,2.377c7.152,4.768,20.19,8.1,31.711,8.1,31.01,0,44.89-19.051,44.89-37.932C469.342,596.09,453.063,586.743,437.145,580.6Z" transform="translate(-389.175 -530)"/></g><g transform="translate(88.302 135.965)"><path class="k" d="M618.746,530c-33.943,0-57.65,26.5-57.65,64.445,0,36.772,23.026,62.455,55.994,62.455,28.7,0,57.65-19.977,57.65-64.609C674.74,555.615,651.714,530,618.746,530Zm29.18,62.953c0,20.215-9.279,40.613-30.007,40.613-20.5,0-29.842-20.452-29.842-39.455,0-18.812,7.858-40.779,30.007-40.779C638.588,553.333,647.926,573.87,647.926,592.953Z" transform="translate(-561.096 -530)"/></g><g transform="translate(212.246 137.787)"><path class="k" d="M870.187,605.449c0,29.843-16.1,29.843-21.391,29.843-16.722,0-20.232-16.228-20.232-29.843v-71.9H802.411v71.57c0,34,16.725,53.507,45.888,53.507,30.528,0,48.037-19.745,48.037-54.171V533.547H870.187Z" transform="translate(-802.411 -533.547)"/></g><g transform="translate(319.628 136.959)"><path class="k" d="M1087.032,618.291c-2.1-9.167-5.655-16.159-10.631-20.911,9.807-6.522,15.418-16.941,15.418-29.336,0-10.363-3.813-19.435-10.686-25.5-8.109-7.339-19.272-10.61-36.2-10.61a155.73,155.73,0,0,0-28.831,2.437l-4.626.946v120.7h25.988V607.632h7.689c9.167.367,13.78,2.96,16.84,17.2,3.88,17.139,6.074,24.809,8.1,28.3l1.67,2.886H1099.7l-4.595-8.528C1092.921,643.439,1089.651,629.479,1087.032,618.291Zm-21.2-48.591c0,9.66-7.253,15.426-19.4,15.426h-8.961V555.011a80.214,80.214,0,0,1,8.432-.405C1065.833,554.832,1065.831,566.022,1065.831,569.7Z" transform="translate(-1011.48 -531.935)"/></g><g transform="translate(405.955 135.965)"><path class="k" d="M1244.168,553.665c10.126,0,16.884,2.544,20.01,4.061l6.136,2.976,6.764-22.871-4.219-2.2c-3.242-1.693-12.574-5.628-29.188-5.628-37.751,0-64.116,26.5-64.116,64.445,0,37.84,23.93,62.29,60.965,62.29,14.933,0,26.365-3.055,32.083-5.913l4.193-2.1-5.946-22.792-6.343,3.08c-5.079,2.466-13.325,4.059-21.006,4.059-23.6,0-37.134-14.259-37.134-39.122C1206.369,568.723,1220.5,553.665,1244.168,553.665Z" transform="translate(-1179.555 -530)"/></g><g transform="translate(512.001 137.788)"><path class="k" d="M1412.01,633.138v-28.7h43.415v-23.5H1412.01V557.213h45.9V533.547h-71.888V656.8H1460.4V633.138Z" transform="translate(-1386.022 -533.547)"/></g></g><g transform="translate(702.599 240.961)"><path class="e" d="M1488.88,648.014s-5.845-4.871-7.907-.516,1.375,31.859,16.961,31.859,40.11-23.837,34.609-28.879-13.981.458-13.981.458,32.546-29.8,22.233-36.214-22.462,8.71-22.462,8.71,26.587-39.652,17.648-46.986-27.5,14.44-30.484,31.63c0,0-2.063-13.752-10.773-10.772S1483.035,631.167,1488.88,648.014Z" transform="translate(-1480.43 -574.983)"/><g transform="translate(14.766 11.216)"><path class="h" d="M1509.746,714.552c-2.852-39.117,5.6-69.027,13.2-87.23,8.24-19.748,17.3-30.4,17.389-30.5l1.035.89c-.089.1-9.032,10.628-17.188,30.2-7.527,18.056-15.9,47.728-13.075,86.546Z" transform="translate(-1509.179 -596.821)"/></g><g transform="translate(17.453 49.313)"><path class="h" d="M1515.459,703.613l-1.05-.873c12.444-14.98,31.1-31.58,31.284-31.746l.906,1.021C1546.414,672.181,1527.836,688.714,1515.459,703.613Z" transform="translate(-1514.409 -670.994)"/></g><g transform="translate(16.046 82.677)"><path class="h" d="M1511.925,750l-.255-1.341c11.519-2.188,22.594-12.6,22.7-12.7l.94.99C1534.851,737.383,1523.834,747.734,1511.925,750Z" transform="translate(-1511.67 -735.953)"/></g><g transform="translate(5.716 83.921)"><path class="h" d="M1501.372,754.35c-7.8-5.42-9.734-15.3-9.813-15.722l1.342-.253c.018.1,1.921,9.759,9.251,14.855Z" transform="translate(-1491.559 -738.375)"/></g><g transform="translate(14.436 33.442)"><path class="h" d="M1513.282,678.971c-6.394-11.9-4.5-37.782-4.421-38.878l1.361.1c-.02.265-1.942,26.577,4.263,38.128Z" transform="translate(-1508.537 -640.093)"/></g></g><g transform="translate(727.063 294.437)"><path class="l" d="M1547.062,695.918s.019-7.395-6.6-2.876-22.285,33.669-3.393,45.063c17.9,10.8,44.283-16.911,39.978-21.534-3.875-4.161-12.37-.644-12.37-.644s14.246-12.089,9.594-17.253-12.77,3.731-12.77,3.731,15.334-18.674,8.97-22.557S1552.868,688.079,1547.062,695.918Z" transform="translate(-1528.061 -679.099)"/><g transform="translate(5.488 13.011)"><path class="h" d="M1539.967,766l-1.221-.154c4.621-36.816,25.759-61.175,25.973-61.417l.923.813C1565.431,705.484,1544.539,729.576,1539.967,766Z" transform="translate(-1538.746 -704.432)"/></g><g transform="translate(15.305 28.535)"><path class="h" d="M1558.244,747.425l-.386-1.168c10.492-3.472,20.451-11.52,20.55-11.6l.776.954C1579.083,735.693,1568.948,743.883,1558.244,747.425Z" transform="translate(-1557.858 -734.656)"/></g><g transform="translate(11.621 44.138)"><path class="h" d="M1550.8,772.464l-.111-1.225a91.813,91.813,0,0,0,24.55-6.2l.488,1.13A93.21,93.21,0,0,1,1550.8,772.464Z" transform="translate(-1550.686 -765.034)"/></g><g transform="translate(7.421 25.475)"><path class="h" d="M1544.708,758.365c-5.5-14.584,1.042-29.517,1.108-29.667l1.124.5c-.065.145-6.4,14.63-1.081,28.731Z" transform="translate(-1542.51 -728.698)"/></g></g><g transform="translate(104.57 270.592)"><path class="m" d="M341.453,680.593s-19.961-3.627-24.708,6.679S334.571,702.6,334.571,702.6s-17.665,4.158-10.419,13.647,38.013.194,52.578-9.765S409.1,675.765,398.787,668.1s-23.445,12.529-23.445,12.529,8.237-23.543-17.031-42.916C334.566,619.509,316.959,654.53,341.453,680.593Z" transform="translate(-316.089 -632.674)"/><g transform="translate(32.645 18.198)"><path class="h" d="M399.683,745.864a307.005,307.005,0,0,0-20.035-76.882l1.992-.878a309.492,309.492,0,0,1,20.2,77.491Z" transform="translate(-379.648 -668.104)"/></g><g transform="translate(17.54 56.153)"><path class="h" d="M376.758,750.707c-15.741,0-26.054-6.578-26.52-6.88L351.423,742a51.49,51.49,0,0,0,29.135,6.4l.152,2.171Q378.682,750.71,376.758,750.707Z" transform="translate(-350.238 -742.001)"/></g><g transform="translate(49.201 50.311)"><path class="h" d="M413.011,753.131l-1.129-1.861c16.276-9.878,21.73-20.536,21.783-20.642l1.947.972C435.384,732.058,429.82,742.93,413.011,753.131Z" transform="translate(-411.882 -730.628)"/></g></g><g transform="translate(368.015 239.287)"><g transform="translate(38.608 10.282)"><path class="e" d="M904.175,613.875c3.869,1.006,12.984,1.8,18.7-6.145,3.047-4.236,7.525-15.986,7.525-15.986l3.7.836s-.4,16.328-6.533,24.648-22.413,11.677-22.413,11.677l-.586-12.627Z" transform="translate(-904.175 -591.744)"/></g><g transform="translate(0 83.918)"><path class="n" d="M841.234,735.742s1.675,2.436-.326,3.37-6.4,3.335-6.2,2.135,1.868-1.868,1.868-1.868-6.471,2.668-6.4,1.8,1.734-1.4,1.734-1.4-2.624,1.067-2.88.534,2.479-1.2,2.479-1.2-1.934.534-1.8,0,2.931-1.067,2.931-1.067-1.6.333-1.13-.266,6.769-2.163,6.769-2.163l2.236-.505Z" transform="translate(-829.006 -735.11)"/></g><g transform="translate(64.696)"><path class="n" d="M955.787,582.161s-1.223-2.564-.68-3.809a6.149,6.149,0,0,1,1.966-2.194s.845-4.6,2-4.429-.49,4.429-.49,4.429a1.325,1.325,0,0,1,1-.111c.534.17.4.9.4.9a.5.5,0,0,1,.756-.258c.556.289,0,1.2,0,1.2a.564.564,0,0,1,.956.134c.467.689-.544,2.085-1.151,2.81a14.361,14.361,0,0,1-2.423,1.861Z" transform="translate(-954.968 -571.725)"/></g><g transform="translate(9.107 7.911)"><g transform="translate(40.732 100.026)"><path class="n" d="M931.155,791.186a31.876,31.876,0,0,1,.864-9.311l-5.977,3.469a10.828,10.828,0,0,1,.475,5.687l2.513,3.189,2-1.316Z" transform="translate(-926.042 -781.874)"/></g><g transform="translate(19.311 108.846)"><path class="n" d="M888.553,806.35a65.931,65.931,0,0,1,1.434-6.968l-4.4-.337a39.431,39.431,0,0,1-1.248,5.369l1.633,4.782,2.346-1.313Z" transform="translate(-884.336 -799.045)"/></g><g transform="translate(23.555 63.874)"><path class="o" d="M898.762,722.256c.217.2,10.684,1.378,11.015,2.039s-1.069,20.13.122,27.806l3.242,2.448,3.111-1.985s5.162-26.4,6.75-33.486-23.2-7.593-23.2-7.593l-7.2,2.62.953,3.848Z" transform="translate(-892.599 -711.486)"/></g><g transform="translate(8.438 59.02)"><path class="l" d="M880.494,709.09c1.82,3.475,12.21,11.978,12.375,13.732s-12.441,30.64-12.375,32.956l-5.029-1.721-1.191-2.118s2.779-18.911,6.154-24.478c0,0-13.027-5.441-15.785-10.669s-1.156-13.3.763-14.756l15.419,3.578Z" transform="translate(-863.165 -702.037)"/></g><g transform="translate(39.901 99.493)"><path class="l" d="M924.423,780.835a15.543,15.543,0,0,0,9.055,1.059l-.795,6.849a17.767,17.767,0,0,1-7.937-1Z" transform="translate(-924.423 -780.835)"/></g><g transform="translate(16.157 114.215)"><path class="h" d="M878.2,812.033a8.518,8.518,0,0,1,3.154-2.534,24.764,24.764,0,0,0,4.217,1.936,15.209,15.209,0,0,0,1.188,5.478c1.237,3.034,3.835,8.738,3.578,9.065a2.6,2.6,0,0,1-1.744.976A30.292,30.292,0,0,1,878.2,812.033Z" transform="translate(-878.195 -809.499)"/></g><g transform="translate(16.157 115.832)"><path class="e" d="M879.01,812.647c2.322,6.494,8.121,13.622,10.587,15.5a2.443,2.443,0,0,1-1.009.339A30.288,30.288,0,0,1,878.2,813.564,8,8,0,0,1,879.01,812.647Z" transform="translate(-878.195 -812.647)"/></g><g transform="translate(39.278 109.183)"><path class="h" d="M923.211,803.257a8.518,8.518,0,0,1,1.929-3.556,24.784,24.784,0,0,0,4.638.155,15.215,15.215,0,0,0,3.214,4.593c2.314,2.32,6.915,6.576,6.8,6.977A2.6,2.6,0,0,1,938.565,813,30.287,30.287,0,0,1,923.211,803.257Z" transform="translate(-923.211 -799.701)"/></g><g transform="translate(39.278 111.578)"><path class="e" d="M923.609,804.365c4.651,5.091,12.755,9.424,15.755,10.2a2.444,2.444,0,0,1-.8.7,30.288,30.288,0,0,1-15.354-9.743A7.9,7.9,0,0,1,923.609,804.365Z" transform="translate(-923.211 -804.365)"/></g><g transform="translate(12.381 63.181)"><path class="k" d="M879.816,754.586H879.8a.132.132,0,0,1-.116-.147c.535-4.481,6.768-22.954,7.322-24.59-9.393-4.2-13.267-9.284-14.863-12.814a12.23,12.23,0,0,1-1.217-6.788.128.128,0,0,1,.155-.105.132.132,0,0,1,.105.155c-.021.112-1.91,11.384,16.038,19.361l.11.049-.039.114c-.068.2-6.795,20.012-7.348,24.65A.132.132,0,0,1,879.816,754.586Z" transform="translate(-870.843 -710.137)"/></g><g transform="translate(19.7 14.224)"><path class="n" d="M886.107,617.731a15.31,15.31,0,0,1-1.015,7.677s1.412,8.956,8.471,11.691l3.22-5.118-2.292-8.521-4.458-1.847-2.074-3.206.84-2.662-2.56-.927Z" transform="translate(-885.092 -614.819)"/></g><g class="p" transform="translate(20.13 15.805)"><path class="n" d="M885.93,625.824c1.912,1.716,5.228,2.953,9.588,2.47l.174-.148-.079-.282-.713-2.906-4.458-1.847-.384-.593-1.69-2.613h0l.044-.139.138-.437L886.7,617.9l-.185,1.33A16.038,16.038,0,0,1,885.93,625.824Z" transform="translate(-885.93 -617.898)"/></g><g transform="translate(8.273 24.503)"><path class="e" d="M884.073,634.833s2.9,1.544,4.846,2.6c0,0-1.2,34.093-2,36.768q-11.713,5.791-23.4-.693l3.438-19.193L863.2,641.627l-.353-3.441a46.475,46.475,0,0,1,11.427-3.044s5.427,9.927,8.427,10.1Z" transform="translate(-862.845 -634.833)"/></g><g transform="translate(18.875 7.689)"><path class="n" d="M895.584,602.122c1.382.162,3.243,7.313,2.045,9.947l-1.311-.042s1.153,3.456-.458,4.94-10.378,3.641-12.374-3.047l.079-2.8,1.2-2.006S891.216,601.611,895.584,602.122Z" transform="translate(-883.486 -602.097)"/></g><g transform="translate(10.969)"><path class="q" d="M876.138,602.529c.042-.09,4.19,1.3,11.963-7.276,0,0,3.153,2.121,3.756,4.005,0,0,1.328-4.972-6.646-10.366s-13.31,3.153-13.113,4.683c0,0-2.185-.916-3.367.862s-1.855,11.813,8.757,16.416C877.487,610.853,874.833,605.36,876.138,602.529Z" transform="translate(-868.094 -587.126)"/></g><g transform="translate(17.622 14.724)"><path class="n" d="M883.582,617.171s-.807-1.555-1.961-1.361-.617,5.676,2.089,5.1S883.582,617.171,883.582,617.171Z" transform="translate(-881.048 -615.793)"/></g><g transform="translate(18.57 103.927)"><path class="l" d="M882.892,795.865s1.765,2.867,7.632,3.441l1.809-4.963a23.175,23.175,0,0,1-8.559-4.875Z" transform="translate(-882.892 -789.468)"/></g><g transform="translate(21.58 31.516)"><path class="k" d="M889.511,649.948a.8.8,0,0,1-.731-.535.744.744,0,0,1,.385-.852.393.393,0,0,1,.23-.074c.285,0,.518.294.613.567a.669.669,0,0,1-.155.779A.542.542,0,0,1,889.511,649.948Zm-.116-1.2a.135.135,0,0,0-.078.026c-.246.173-.345.365-.284.556.08.255.468.441.655.291s.1-.406.07-.484C889.683,648.926,889.52,648.752,889.4,648.752Z" transform="translate(-888.752 -648.487)"/></g><g transform="translate(24.514 34.582)"><path class="k" d="M895.224,655.917a.8.8,0,0,1-.731-.535.744.744,0,0,1,.386-.852.393.393,0,0,1,.23-.074c.285,0,.517.294.613.567a.67.67,0,0,1-.155.779A.545.545,0,0,1,895.224,655.917Zm-.116-1.2a.133.133,0,0,0-.078.026c-.247.173-.345.365-.285.556.08.255.468.442.656.291s.1-.406.07-.484C895.4,654.9,895.233,654.721,895.108,654.721Z" transform="translate(-894.465 -654.456)"/></g><g transform="translate(0 27.856)"><path class="e" d="M855.011,641.361c-2.877,1.99-7.76,29.888-8.115,33.677s0,14.98,0,14.98l3.979.17s10.612-25.379,10.072-34.974C860.946,655.214,859.755,644.573,855.011,641.361Z" transform="translate(-846.737 -641.361)"/></g></g><g transform="translate(18.305 53.085)"><path class="r" d="M864.646,693.213a100.311,100.311,0,0,0,4.337-18.134s1,7.834-2.3,19.163C865.956,693.909,865.264,693.569,864.646,693.213Z" transform="translate(-864.646 -675.079)"/></g></g><g transform="translate(563.673 295.621)"><g transform="translate(16.789 20.422)"><path class="s" d="M1244.277,727.008s4.423-3.616,9.056-4.729a18.46,18.46,0,0,1,8.608.049l4.9-1.163s8.907,1.87,13.079,6.025l.007,9.173s-.848,7.81-.97,7.942-4.016,2.265-4.016,2.265l-1.557,5.132-.441,2.426-.924,6.841-10.717.271-14.453-4.017-4.217-16.583Z" transform="translate(-1242.634 -721.165)"/></g><g transform="translate(1.845 56.128)"><path class="e" d="M1231.6,793.034c-.173-.106-8.567-4.469-14.356-1.038s-3.075,11.163-3.075,11.163l9.456,1.139s12.224-.2,12.946-.487,3.923-6.6,3.923-6.6l-6.861-4.082Z" transform="translate(-1213.537 -790.683)"/></g><g transform="translate(12.187 67.042)"><path class="n" d="M1239.311,812.312a18.189,18.189,0,0,1-5.637-.38l.217,5.783,5.108-.192Z" transform="translate(-1233.674 -811.932)"/></g><g transform="translate(0 62.371)"><path class="f" d="M1211.969,803.029s-4.325,4.771-.327,11.046l11.933-.83s-1.54-1.942-.711-5.581C1222.864,807.664,1216.8,801.705,1211.969,803.029Z" transform="translate(-1209.946 -802.837)"/></g><g transform="translate(0 62.372)"><path class="k" d="M1215.045,803.027c-1.967,1.54-4.267,4.828-2.081,10.958l-1.322.092c-4-6.275.327-11.046.327-11.046A6.391,6.391,0,0,1,1215.045,803.027Z" transform="translate(-1209.946 -802.841)"/></g><g transform="translate(27.312 17.66)"><path class="n" d="M1276.341,718.093a3.13,3.13,0,0,1,1.157,3.028c-.408,1.876-3.92,8.18-8.192,9.243,0,0-7.918-5.959-5.833-11.223s5.167-2.759,5.167-2.759Z" transform="translate(-1263.122 -715.786)"/></g><g class="p" transform="translate(27.61 17.66)"><path class="n" d="M1263.754,719.141c2.085-5.264,5.167-2.759,5.167-2.759l7.7,1.711a3.1,3.1,0,0,1,.467.456h0s-.938,6-7.056,6.667C1264.5,725.821,1263.432,719.955,1263.754,719.141Z" transform="translate(-1263.702 -715.786)"/></g><g transform="translate(26.278 6.029)"><path class="n" d="M1275.89,694.912s5.02,15.087-6.514,17.155-7.633-17.13-7.633-17.13l8.782-1.8Z" transform="translate(-1261.108 -693.141)"/></g><g transform="translate(23.921 14.008)"><path class="n" d="M1259.377,709.657a2.142,2.142,0,0,0-2.4-.868c-1.5.507,1,7.008,3.327,6.019S1259.377,709.657,1259.377,709.657Z" transform="translate(-1256.52 -708.676)"/></g><g transform="translate(20.795)"><path class="q" d="M1269.638,690.229s-4.621,8.079-13.721,5.639-4.125-8.067-4.125-8.067.918,1.178,1.677,1.149,4.358-8.506,12.4-7.456,5.574,3.595,5.574,3.595,1.674-.457,3.163,1.657,1.583,8.18-1.517,9.886l-1.33-1.42A15.98,15.98,0,0,0,1269.638,690.229Z" transform="translate(-1250.434 -681.404)"/></g><g transform="translate(40.112 13.317)"><path class="n" d="M1289.521,708.445a2.142,2.142,0,0,1,2.328-1.046c1.537.393-.467,7.064-2.865,6.252S1289.521,708.445,1289.521,708.445Z" transform="translate(-1288.042 -707.332)"/></g><g transform="translate(15.737 56.657)"><path class="e" d="M1240.735,801.917s-.462,4.188.24,6.36c0,0,28.331,2.43,39.654-1.491s12.884-8.883,8.686-12.586S1268.9,789.414,1240.735,801.917Z" transform="translate(-1240.585 -791.713)"/></g><g transform="translate(46.977 67.567)"><path class="n" d="M1307.889,812.955s-4.9,5.677-6.48,5.864l6.19-.245,2.056-1.152.22-2.707Z" transform="translate(-1301.409 -812.955)"/></g><g transform="translate(53.167 62.029)"><path class="f" d="M1324.267,802.27s4.671,4.432,1.155,10.99l-11.961.069s1.39-2.052.29-5.619C1313.751,807.711,1319.347,801.313,1324.267,802.27Z" transform="translate(-1313.461 -802.172)"/></g><g transform="translate(60.906 62.03)"><path class="k" d="M1328.527,802.5c2.077,1.388,4.618,4.494,2.9,10.771l1.324-.008c3.516-6.558-1.155-10.99-1.155-10.99A6.386,6.386,0,0,0,1328.527,802.5Z" transform="translate(-1328.527 -802.174)"/></g><g transform="translate(55.632 67.686)"><path class="k" d="M1318.975,817.9a7.38,7.38,0,0,0-.413-4.717l-.3.151a7.17,7.17,0,0,1,.389,4.479Z" transform="translate(-1318.259 -813.186)"/></g><g transform="translate(57.104 66.84)"><path class="k" d="M1322.271,817.054a7.629,7.629,0,0,0-.866-5.516l-.28.189a7.424,7.424,0,0,1,.817,5.248Z" transform="translate(-1321.125 -811.538)"/></g><g transform="translate(11.137 67.477)"><path class="k" d="M1232.055,817.465l.326-.09c-.842-3.029-.127-4.423-.119-4.436l-.3-.161C1231.932,812.838,1231.172,814.287,1232.055,817.465Z" transform="translate(-1231.63 -812.778)"/></g><g transform="translate(9.221 66.74)"><path class="k" d="M1228.3,816.824l.318-.113c-1.169-3.295.7-5.1.723-5.12l-.232-.247A5.163,5.163,0,0,0,1228.3,816.824Z" transform="translate(-1227.9 -811.344)"/></g><g transform="translate(38.529 26.447)"><path class="s" d="M1300.508,732.9s10.176,11.619,12.529,23.242c2.373,11.725-18.9,14.384-27.252,11.977l-.825-5.518s11.259-5.084,11.069-7.259a14.152,14.152,0,0,0-.5-3.061A21.039,21.039,0,0,1,1300.508,732.9Z" transform="translate(-1284.96 -732.895)"/></g><g transform="translate(2.349 26.265)"><path class="s" d="M1230.6,732.541s-18.228,16.611-15.873,24.95c2.134,7.557,19.825,12.352,25.267,11.531l0-4.37s-11.746-6.528-11.047-9.366a6.934,6.934,0,0,1,1.587-2.9S1236.219,736.223,1230.6,732.541Z" transform="translate(-1214.519 -732.541)"/></g><g transform="translate(12.097 35.901)"><g transform="translate(5.729 27.04)"><path class="t" d="M1244.654,803.947v.628l8.417-.029v-.593Z" transform="translate(-1244.654 -803.947)"/></g><g transform="translate(28.325 27.055)"><path class="t" d="M1288.647,803.977v.628l8.417-.029v-.593Z" transform="translate(-1288.646 -803.977)"/></g><g transform="translate(0.562 27.542)"><path class="u" d="M1234.952,806.771l41.6.029v-1.876l-41.957.144Z" transform="translate(-1234.593 -804.924)"/></g><path class="v" d="M1234.594,778.352l40.551.028.893-26.9L1233.5,751.3Z" transform="translate(-1233.499 -751.301)"/><g transform="translate(18.29 9.695)"><path class="k" d="M1271.707,770.208c2.4-.226,5.163.718,5.234,4.334s-7.291,4.866-7.764.759S1270.9,770.285,1271.707,770.208Z" transform="translate(-1269.11 -770.177)"/></g></g></g><g transform="translate(186.075 99.976)"><path class="q" d="M476.793,313.28a18.383,18.383,0,0,0-1.475-6.885c-1.409-2.748-.044-5.353,3.777-5.856s5.505,3.124,12.508,2.39c5.231-.548,7.583,8.268,6.865,10.315s-.447,7.7,3.2,11.954,9.555,18.184-8.086,18.762.115-8.933.115-8.933l-6.661-7.909-7.093,1.5a8.372,8.372,0,0,0-.123-7.344C477.865,317.206,477.062,316.1,476.793,313.28Z" transform="translate(-474.777 -300.491)"/><g transform="translate(4.63 50.483)"><path class="n" d="M491.111,470.016a12.323,12.323,0,0,0,4.748-1.007l-.078-.025c.973-1.8-1.574-28.137-1.574-28.885s-2.62-13.624-2.62-23.879a37.107,37.107,0,0,1,4.267-17.441h2.207l6.474,23.729s-.222,3.518-2.023,14.522-4.715,31.638-4.865,32.087a13.648,13.648,0,0,1-.949,3.743c-.274.275-12.9,0-12.9,0S483.251,470.49,491.111,470.016Z" transform="translate(-483.792 -398.779)"/></g><g class="p" transform="translate(4.63 50.483)"><path class="n" d="M491.111,470.016a12.323,12.323,0,0,0,4.748-1.007l-.078-.025c.973-1.8-1.574-28.137-1.574-28.885s-2.62-13.624-2.62-23.879a37.107,37.107,0,0,1,4.267-17.441h2.207l6.474,23.729s-.222,3.518-2.023,14.522-4.715,31.638-4.865,32.087a13.648,13.648,0,0,1-.949,3.743c-.274.275-12.9,0-12.9,0S483.251,470.49,491.111,470.016Z" transform="translate(-483.792 -398.779)"/></g><g transform="translate(13.641 49.831)"><path class="n" d="M508.655,469.4a14.494,14.494,0,0,0,4.019-.7l-.014-.007s2.507-5.927-.113-18.054-6.512-39.9-6.512-39.9-.823-4.566-.823-5.015,4.79-6.063,4.79-6.063l5.464-2.148c1.722,2.9,6.063,7.538,5.39,21.087a115.683,115.683,0,0,1-2.66,20.585s3.3,9.141-3.21,30.624h0a9.872,9.872,0,0,1-.743,2.437c-.274.275-12.9,0-12.9,0S500.8,469.872,508.655,469.4Z" transform="translate(-501.336 -397.51)"/></g><g transform="translate(10.88 48.279)"><path class="l" d="M511.661,394.488a27.66,27.66,0,0,1,7.205,17.345,129.617,129.617,0,0,1-.554,16.543s-13.02,2.695-20.805-.748c0,0-5.289-18.714,3.693-29.942Z" transform="translate(-495.959 -394.488)"/></g><g transform="translate(4.631 121.95)"><path class="r" d="M488.745,537.923c1.548.685,3.931.95,7.211.514l1.123.574.122.1a5.285,5.285,0,0,1-.5,1.421c-.274.275-12.9,0-12.9,0S483.374,538.677,488.745,537.923Z" transform="translate(-483.792 -537.923)"/></g><g transform="translate(13.642 121.929)"><path class="e" d="M506.439,537.883c1.234.767,6.381.713,8.516.339a9.221,9.221,0,0,1-.711,2.3c-.274.275-12.9,0-12.9,0S500.91,538.623,506.439,537.883Z" transform="translate(-501.336 -537.883)"/></g><g transform="translate(4.08 24.064)"><path class="e" d="M494.563,347.342c-4.8,1.113-4.55,2.118-7.538,2.725A16.145,16.145,0,0,0,483.8,351.4l-.774,5.348a18.969,18.969,0,0,0-.285,3.4c.207,1.357,2.275,3.832,5.267,3.87,1.036.013,4.881,13.356,4.881,13.356,6.717-.1,12.637-5.845,12.637-5.845-2.9-2.947-6.447-11.919-6.078-16.708Z" transform="translate(-482.72 -347.342)"/></g><g transform="translate(8.11 18.931)"><path class="n" d="M494.422,337.6c.042.2.858,7.012,1.4,7.663l-5.252.308s.332-6.552.151-7.637S494.422,337.6,494.422,337.6Z" transform="translate(-490.566 -337.348)"/></g><g class="p" transform="translate(8.256 18.933)"><path class="n" d="M494.561,337.6c.013.062.1.782.237,1.76-1.38,1.52-2.537,1.694-3.9.826a18.068,18.068,0,0,0-.045-2.252.369.369,0,0,1,.01-.161c.415-.165.833-.31,1.181-.422A14.5,14.5,0,0,1,494.561,337.6Z" transform="translate(-490.851 -337.352)"/></g><g transform="translate(3.588 3.172)"><path class="n" d="M493.951,313.524c-.043-.587-.8-9.642-9.486-5.995-5.413,2.274-1.692,16.976,2.407,17.337C489.459,325.094,494.718,324.078,493.951,313.524Z" transform="translate(-481.762 -306.666)"/></g><g transform="translate(14.817 10.54)"><path class="n" d="M504.069,321.781s.845-1.4,1.967-.421-.6,4.608-1.826,4.013S504.069,321.781,504.069,321.781Z" transform="translate(-503.625 -321.011)"/></g><g transform="translate(2.327 2.541)"><path class="q" d="M479.308,307.735s3.432,9.369,13.33,5.877,2.477-5.74,2.477-5.74-5.751-2.292-6.064-2.408-5.925.192-5.925.192Z" transform="translate(-479.308 -305.438)"/></g><g transform="translate(6.717 24.989)"><path class="n" d="M489.241,350.995s-2.293,5.122-.98,5.927,6.688-.273,8.166-2.308-2.449-5.471-2.449-5.471l-2.955.263-1.185,1.07Z" transform="translate(-487.855 -349.143)"/></g><g transform="translate(12.701 35.333)"><path class="w" d="M499.505,372.314s.481-.041,1.128-.124c.324-.054.691-.108,1.062-.205.186-.044.37-.109.556-.166a4.449,4.449,0,0,0,.534-.232c.086-.045.176-.082.259-.13s.159-.106.239-.158a3.969,3.969,0,0,0,.447-.343,4.96,4.96,0,0,0,.388-.381,3.509,3.509,0,0,0,.331-.386,4.219,4.219,0,0,0,.275-.354c.071-.113.145-.211.2-.294.121-.163.2-.259.2-.259s.007.117,0,.326c-.006.1-.01.232-.028.377a1.964,1.964,0,0,1-.111.48,2.407,2.407,0,0,1-.212.555,3.247,3.247,0,0,1-.361.573,2.994,2.994,0,0,1-.518.524c-.1.077-.2.157-.306.231s-.224.123-.337.183a3.607,3.607,0,0,1-.709.266,4.113,4.113,0,0,1-.712.11,3.972,3.972,0,0,1-1.237-.116A3.086,3.086,0,0,1,499.505,372.314Z" transform="translate(-499.505 -369.283)"/></g></g><g transform="translate(188.965 130.172)"><path class="w" d="M480.4,364.735l1.973-5.454-.783,5.43Z" transform="translate(-480.403 -359.282)"/></g><g transform="translate(199.207 142.293)"><path class="w" d="M511.291,384.517c-.261-.525-.516-1.073-.76-1.638l-3.417.5-6.772,7.546c.305.988.57,1.869.765,2.526h0A17.192,17.192,0,0,0,511.291,384.517Z" transform="translate(-500.343 -382.879)"/></g><g transform="translate(179.977 123.776)"><path class="e" d="M484.925,347.092s7.086-1.988,9.951,4.948c2.611,6.321-2.362,24.819-21.244,24.563A29.81,29.81,0,0,1,462.9,374.38l.9-1.521s12.561.846,17.9-4.466,5.338-14.943,5.338-14.943Z" transform="translate(-462.903 -346.828)"/></g><g transform="translate(198.182 148.386)"><path class="x" d="M519.474,428.5a129.6,129.6,0,0,0,.554-16.543,27.823,27.823,0,0,0-7.067-17.215l-.558.488s5.662,15.851.869,23.555c-3.615,5.811-11.342,7.287-14.923,7.662.187.833.319,1.3.319,1.3C506.453,431.195,519.474,428.5,519.474,428.5Z" transform="translate(-498.349 -394.742)"/></g><g transform="translate(172.764 148.179)"><path class="n" d="M456.885,396.115a3.809,3.809,0,0,0-2.674-1.7,4.2,4.2,0,0,0-2.677.252l.179.559s1.15-.143,1.118.289-4.012,1.3-3.788,1.748,1.188.289,1.188.289-1.573.353-1.348.9,1.894,0,1.894,0-1.348.963-.995,1.509,2.793-1.156,2.793-1.156-1.187,1.121-.931,1.427,4.43-2.744,4.43-2.744Z" transform="translate(-448.86 -394.34)"/></g><g transform="translate(161.065 124.344)"><path class="n" d="M429.8,348.51a2.713,2.713,0,0,0-2.277-.49,2.088,2.088,0,0,0-1.443,2.114c-.011,1.731,1.055,3.378,1.665,3.267s.37-.906.37-.906.481,1.146,1.165,1,.092-1.406.092-1.406.37,1.424,1.35,1.184-.444-2.145-.444-2.145.854,1.414,1.538,1.063S430.715,349.086,429.8,348.51Z" transform="translate(-426.082 -347.934)"/></g></g><g transform="translate(263.982 154.753)"><g transform="translate(0 0)"><path class="y" d="M446.115,228.292a16.387,16.387,0,0,0,.5-2.84l8.969-1.676-8.2-13.184-4.211,3.339A16.281,16.281,0,0,0,438.692,210l2.879-4.351-11.9-4.58-.423,6.665a16.287,16.287,0,0,0-4.718,1.029l-3.05-7.21-10.6,8.588,6.31,4.174a16.284,16.284,0,0,0-2.541,5.115l-7.216-.466,1.2,13.527,6.27-3.032a16.432,16.432,0,0,0,3,5.206l-2.99,3.89,11.717,5.531,1.051-3.909a16.247,16.247,0,0,0,8.282-.789l2.611,4.532,11.245-8.415L445,231.258A16.4,16.4,0,0,0,446.115,228.292Zm-19.248,4.343a10.126,10.126,0,1,1,12.408-7.149A10.125,10.125,0,0,1,426.866,232.635Z" transform="translate(-407.436 -201.071)"/></g></g><g transform="translate(311.577 176.516)"><g transform="translate(0 0)"><path class="y" d="M521.081,252.192a8.721,8.721,0,0,0-.608-1.409l3.5-3.366-7.5-3.471-.9,2.715a8.674,8.674,0,0,0-3.14-.44l.01-2.777-6.632,1.437,1.759,3.089a8.68,8.68,0,0,0-1.8,1.836l-3.463-2.317-2.209,6.918,4.027.014a8.678,8.678,0,0,0,.363,3.018l-3.347,1.9,4.485,5.669,1.9-3.181a8.752,8.752,0,0,0,2.855,1.441l-.194,2.6,6.83-.961-.674-2.046a8.651,8.651,0,0,0,3.455-2.77l2.485,1.254,2.546-7.029-3.385-.483A8.751,8.751,0,0,0,521.081,252.192Zm-7.3,7.555a5.39,5.39,0,1,1,3.433-6.806A5.391,5.391,0,0,1,513.784,259.747Z" transform="translate(-500.101 -243.444)"/></g></g><g transform="translate(172.94 224.541)"><path class="y" d="M251.159,345.7a8.773,8.773,0,0,0-.608-1.409l3.5-3.366-7.5-3.471-.9,2.716a8.661,8.661,0,0,0-3.14-.44l.01-2.777-6.632,1.437,1.759,3.09a8.668,8.668,0,0,0-1.8,1.836l-3.463-2.317-2.209,6.918,4.027.014a8.667,8.667,0,0,0,.364,3.018l-3.348,1.9,4.485,5.669,1.9-3.181a8.732,8.732,0,0,0,2.855,1.441l-.195,2.6,6.83-.962-.674-2.046a8.651,8.651,0,0,0,3.455-2.77l2.486,1.254,2.546-7.029-3.385-.483A8.714,8.714,0,0,0,251.159,345.7Zm-7.3,7.555a5.39,5.39,0,1,1,3.434-6.805A5.39,5.39,0,0,1,243.862,353.25Z" transform="translate(-230.179 -336.947)"/></g></g></svg>