<svg xmlns="http://www.w3.org/2000/svg" xmlns:xlink="http://www.w3.org/1999/xlink" width="215" height="215" viewBox="0 0 215 215"><defs><style>.a{fill:url(#a);}.b{fill:#fff;}.c{filter:url(#b);}</style><linearGradient id="a" x1="0.247" y1="0.081" x2="1" y2="1" gradientUnits="objectBoundingBox"><stop offset="0" stop-color="#d2c699"/><stop offset="1" stop-color="#ad8d47"/></linearGradient><filter id="b" x="0" y="0" width="215" height="215" filterUnits="userSpaceOnUse"><feOffset input="SourceAlpha"/><feGaussianBlur stdDeviation="12.5" result="c"/><feFlood flood-color="#fff" flood-opacity="0.6"/><feComposite operator="in" in2="c"/><feComposite in="SourceGraphic"/></filter></defs><g transform="translate(-845 -5146.5)"><g transform="translate(882.5 5184)"><g class="c" transform="matrix(1, 0, 0, 1, -37.5, -37.5)"><circle class="a" cx="70" cy="70" r="70" transform="translate(37.5 37.5)"/></g></g><g transform="translate(922.123 5232.428)"><path class="b" d="M58.806,74.712l-3-3a2.258,2.258,0,0,0-3.2,0l-1.362,1.362A.89.89,0,0,0,52.5,74.328l1.362-1.362a.479.479,0,0,1,.678,0l1.777,1.777L39.087,91.974,37.93,90.816a1.357,1.357,0,0,1,0-1.917L49.5,77.334a.89.89,0,1,0-1.259-1.258L36.671,87.641a3.139,3.139,0,0,0,0,4.434l1.058,1.057L34.1,95.824c-.992-.207-.875-.079-10.089-.118a33.173,33.173,0,0,1-6.141-.575L9.184,93.49a7.747,7.747,0,0,0-3.659,15.035.89.89,0,1,0,.51-1.705A5.968,5.968,0,0,1,8.854,95.238l8.691,1.641a34.951,34.951,0,0,0,6.471.606H32.96a3.825,3.825,0,0,1,3.821,3.821v1.942a3.825,3.825,0,0,1-3.821,3.821H9.954a.89.89,0,1,0,0,1.78H21.628a3.026,3.026,0,0,0,.466,3.666l1.538,1.538a3.017,3.017,0,0,0,4.76-.647,28.166,28.166,0,0,1,3.219-4.556H32.96a5.607,5.607,0,0,0,5.6-5.6v-.4a65.7,65.7,0,0,0,7.967-6.481L58.806,84.093A6.63,6.63,0,0,0,58.806,74.712ZM26.844,112.527a1.238,1.238,0,0,1-1.953.266l-1.537-1.537a1.242,1.242,0,0,1-.2-1.486c.17-.3.35-.605.543-.922h5.613A29.913,29.913,0,0,0,26.844,112.527Zm30.7-29.693L45.27,95.113a54.57,54.57,0,0,1-6.747,5.551,5.606,5.606,0,0,0-2.5-4.046c3.847-2.858,3.629-2.689,3.7-2.757L57.577,76a4.851,4.851,0,0,1-.03,6.834ZM33.1,102.277a2.893,2.893,0,1,0-2.893,2.893A2.9,2.9,0,0,0,33.1,102.277Zm-4.005,0A1.113,1.113,0,1,1,30.2,103.39,1.114,1.114,0,0,1,29.091,102.277Z" transform="translate(0 -71.045)"/></g></g></svg>