<svg xmlns="http://www.w3.org/2000/svg" xmlns:xlink="http://www.w3.org/1999/xlink" width="215" height="215" viewBox="0 0 215 215"><defs><style>.a{fill:url(#a);}.b{fill:#fff;}.c{filter:url(#b);}</style><linearGradient id="a" x1="0.247" y1="0.081" x2="1" y2="1" gradientUnits="objectBoundingBox"><stop offset="0" stop-color="#d2c699"/><stop offset="1" stop-color="#ad8d47"/></linearGradient><filter id="b" x="0" y="0" width="215" height="215" filterUnits="userSpaceOnUse"><feOffset input="SourceAlpha"/><feGaussianBlur stdDeviation="12.5" result="c"/><feFlood flood-color="#fff" flood-opacity="0.6"/><feComposite operator="in" in2="c"/><feComposite in="SourceGraphic"/></filter></defs><g transform="translate(-122.754 -5146.254)"><g class="c" transform="matrix(1, 0, 0, 1, 122.75, 5146.25)"><circle class="a" cx="70" cy="70" r="70" transform="translate(37.5 37.5)"/></g><g transform="translate(206.126 5227.871)"><path class="b" d="M390.993,292.933a3.467,3.467,0,1,0,0,4.9,3.448,3.448,0,0,0,0-4.9Zm-1.466,3.435a1.393,1.393,0,1,1,0-1.969A1.387,1.387,0,0,1,389.527,296.368Z" transform="translate(-347.382 -261.903)"/><path class="b" d="M202.79,242.185a3.47,3.47,0,1,0,2.451,1.016,3.448,3.448,0,0,0-2.451-1.016Zm.985,4.451a1.393,1.393,0,1,1-.985-2.377,1.381,1.381,0,0,1,.984.408l0,0a1.389,1.389,0,0,1,0,1.967Z" transform="translate(-180.732 -217.284)"/><path class="b" d="M67.074,31.5a7.689,7.689,0,0,0-8.383-5.625l-.85-3.174,8.193-12.29c1.425-2.138,1.375-4.493-.13-6a2.007,2.007,0,0,0-2.833,0l-7.994,7.988L52.15,1.484A2,2,0,0,0,49.7.068c-2.056.55-3.279,2.565-3.114,5.132l.473,7.383a9.6,9.6,0,0,0-8.088-1.268,23.979,23.979,0,0,1-5.976.535A12.539,12.539,0,0,1,25.778,9.71a4.262,4.262,0,0,0-2.9-.975c-1.329.165-2.573,2.2-3.294,4.042a16.172,16.172,0,0,0,2.735,16.287v5.951a14.83,14.83,0,0,0,1.919,6.864A1.037,1.037,0,0,0,26.07,40.9,12.771,12.771,0,0,1,24.4,35.015V29.728c4.414-.006,5.375-.2,8.511-2-.017.209-.028.42-.028.633a7.681,7.681,0,0,0,13.105,5.429L49.9,29.879l.559-.272.167.247.181.267,1.433,5.347a7.62,7.62,0,0,0,1.938,3.393A19.483,19.483,0,0,1,43.39,49.806a9.4,9.4,0,0,1-7.425.008,16.741,16.741,0,0,1-4.115-2.262,1.037,1.037,0,0,0-1.233,1.667,18.816,18.816,0,0,0,4.627,2.539,12.521,12.521,0,0,0,4.421.885,12.572,12.572,0,0,0,4.449-.894A21.766,21.766,0,0,0,55.9,40.169a7.629,7.629,0,0,0,3.748.988,7.723,7.723,0,0,0,2-.265,7.67,7.67,0,0,0,5.428-9.4ZM50.166,2.091l3.217,11.995-3.9,3.9L48.655,5.068c-.038-.585-.037-2.507,1.511-2.977ZM33.079,25.233c-4.015,2.363-4.137,2.433-9.229,2.422a14.166,14.166,0,0,1-2.977-11.934c.6-2.881,1.873-4.644,2.334-4.933.362-.013.743.218,1.456.672a14.54,14.54,0,0,0,8.256,2.464,26.119,26.119,0,0,0,6.442-.571c2.666-.512,4.051-.777,7.861,1.779l.308,4.8L45.2,22.259a7.688,7.688,0,0,0-11.469,2.588l-.655.385ZM48.841,28.09a1.034,1.034,0,0,0-.279.2L44.52,32.327a5.6,5.6,0,0,1-9.566-3.961A5.607,5.607,0,0,1,44.52,24.41a1.037,1.037,0,0,0,1.466,0l3.3-3.3a1.044,1.044,0,0,0,.081-.081L64.487,5.924c1.106,1.182.147,2.845-.178,3.332L55.211,22.9c-1.756,2.637-2.481,3.251-4.86,4.446l-.013.006c-.406.2-.859.424-1.375.675Zm15.67,8.191a5.608,5.608,0,0,1-7.655,2.049,5.672,5.672,0,0,1-.8-.559l0,0a5.551,5.551,0,0,1-1.806-2.837l-1.478-5.515a1.034,1.034,0,0,0-.142-.311l-.279-.413-.023-.034a10.631,10.631,0,0,0,3.98-3.682l.634,2.367a1.037,1.037,0,0,0,1.27.733,5.6,5.6,0,0,1,6.3,8.206Z" transform="translate(-18.5 0)"/><path class="b" d="M100.863,430.232a1.037,1.037,0,1,0-1.617,1.3l.012.015a1.037,1.037,0,1,0,1.617-1.3Z" transform="translate(-90.739 -385.649)"/></g></g></svg>