<svg xmlns="http://www.w3.org/2000/svg" xmlns:xlink="http://www.w3.org/1999/xlink" width="80.896" height="85.82" viewBox="0 0 80.896 85.82">
  <defs>
    <clipPath id="clip-path">
      <path id="Clip_2" data-name="Clip 2" d="M0,0H80.9V85.821H0Z" transform="translate(0 0.179)" fill="none"/>
    </clipPath>
  </defs>
  <g id="Group_10" data-name="Group 10" transform="translate(0 -0.18)">
    <g id="Group_3" data-name="Group 3">
      <path id="Clip_2-2" data-name="Clip 2" d="M0,0H80.9V85.821H0Z" transform="translate(0 0.179)" fill="none"/>
      <g id="Group_3-2" data-name="Group 3" clip-path="url(#clip-path)">
        <path id="Fill_1" data-name="Fill 1" d="M80.73,44.832c-.33-.34-1.038-.119-1.038-.119.395-2.591-1.449-.765-1.449-.765s-.045-2.221-1.186-1.165A8.044,8.044,0,0,0,75.3,45.569a2.48,2.48,0,0,0-3.561-.49,1.523,1.523,0,0,0-.27.313c-.595.931.007,1.412.488,1.252a1.483,1.483,0,0,1,1.337.262l.006.006a1.039,1.039,0,0,1,.163.2,1.549,1.549,0,0,1,.183,1.045,1.885,1.885,0,0,1-1.3,1.423,3.2,3.2,0,0,1-.432.139s-.769-1.237-1.383-1.233c-1.227.01-1.254,2.245-.134,3.119h0c-9.242,4.872-13.682.108-14.884-1.574a20.158,20.158,0,0,0,9.094-6.478c3.408-4.338,5.134-10.362,5.128-17.9C69.727,15.126,64.942,7.363,55.9,3.2A38.147,38.147,0,0,0,40.852,0c-.216,0-.368,0-.425.005-.082,0-.236,0-.457,0A37.828,37.828,0,0,0,24.406,3.469C15.715,7.7,11.124,15.388,11.131,25.686c.008,11.13,3.727,18.829,11.051,22.892A22.829,22.829,0,0,0,25.4,50.035c-1.186,1.672-5.619,6.481-14.892,1.61h0c1.119-.875,1.089-3.111-.138-3.119-.613,0-1.381,1.234-1.381,1.234a3.1,3.1,0,0,1-.433-.138,1.882,1.882,0,0,1-1.3-1.421,1.538,1.538,0,0,1,.181-1.045,1.037,1.037,0,0,1,.163-.2.021.021,0,0,1,.007-.006,1.485,1.485,0,0,1,1.337-.264c.48.158,1.081-.323.485-1.253a2.411,2.411,0,0,0-3.831.183,8.034,8.034,0,0,0-1.761-2.784C2.692,41.781,2.651,44,2.651,44S.8,42.179,1.2,44.769c0,0-.709-.22-1.038.121-.241.248-.28.8.315,1.96.344.673.73,1.358,1.148,2.031a17.3,17.3,0,0,0,4.413,5.041c.609.773,3.448,3.982,9.926,5.884A25.691,25.691,0,0,0,26,59.951c-.027.815-.211,5.957-.672,12.308l-.122.025c.026.173.052.354.079.531-.037.018-9.675,4.916-8.538,9.989a3.944,3.944,0,0,0,.241.751c.637,1.436,2.815,2.016,5.654,2.1a44.239,44.239,0,0,0,7.079-.494c3.9-.538,7.824-1.4,10.38-2.006h0c5.883,1.434,21.932,4.9,23.856.549a4.05,4.05,0,0,0,.239-.755c1.131-5.072-8.515-9.958-8.552-9.975.026-.177.052-.359.078-.531l-.092-.018c-.48-6.426-.674-11.657-.7-12.489a25.691,25.691,0,0,0,10.019-.162c6.472-1.91,9.307-5.122,9.917-5.9a17.308,17.308,0,0,0,4.407-5.049c.417-.673.8-1.359,1.145-2.032.593-1.164.553-1.712.312-1.961" transform="translate(0 0.179)" fill="#633ba1"/>
      </g>
    </g>
    <path id="Fill_4" data-name="Fill 4" d="M4.83,1.735s.145-.036.419-.1.674-.157,1.184-.246c1.021-.2,2.478-.446,4.227-.662S14.451.322,16.637.2C17.731.135,18.86.077,20.008.05S22.322.007,23.488,0s2.333.014,3.481.051S29.247.13,30.34.2c2.187.125,4.228.312,5.977.525s3.208.452,4.229.648c.51.088.911.187,1.185.242l.419.1a6.444,6.444,0,0,1,4.7,7.694,6.34,6.34,0,0,1-4.688,4.862l-.419.1c-.273.055-.674.155-1.184.242-1.02.2-2.478.441-4.228.655s-3.789.406-5.976.534c-1.093.068-2.223.117-3.371.147s-2.314.049-3.481.058c-1.166-.006-2.332-.008-3.48-.046s-2.277-.08-3.37-.139c-2.187-.125-4.228-.312-5.978-.526s-3.208-.454-4.228-.654c-.51-.088-.911-.189-1.185-.244l-.419-.1A6.45,6.45,0,0,1,.157,6.58,6.343,6.343,0,0,1,4.83,1.735" transform="translate(17 17)" fill="#fc9"/>
    <path id="Fill_6" data-name="Fill 6" d="M0,1.488s.165-.046.457-.115.708-.167,1.209-.267c1-.2,2.344-.435,3.691-.622s2.7-.329,3.718-.4c.508-.041.935-.051,1.233-.07S10.775,0,10.775,0L11,1.826s-.167.042-.459.1-.709.148-1.213.231c-1.006.176-2.352.366-3.7.513s-2.709.247-3.731.291C1.383,2.988.954,2.988.656,3S.185,3,.185,3Z" transform="translate(48 26)" fill="#141719"/>
    <path id="Fill_8" data-name="Fill 8" d="M10.817,3s-.172,0-.471,0-.727-.008-1.237-.034c-1.022-.043-2.379-.143-3.731-.287s-2.7-.335-3.7-.51c-.5-.084-.92-.177-1.214-.231S0,1.835,0,1.835L.221,0s.172,0,.47.013.724.028,1.233.068C2.942.153,4.295.3,5.642.479S8.331.895,9.333,1.1c.5.1.918.2,1.209.266S11,1.48,11,1.48Z" transform="translate(24 26)" fill="#141719"/>
  </g>
</svg>
