<svg xmlns="http://www.w3.org/2000/svg" xmlns:xlink="http://www.w3.org/1999/xlink" width="68.594" height="76.8" viewBox="0 0 68.594 76.8"><defs><style>.a{fill:url(#a);}</style><linearGradient id="a" y1="16.044" x2="0" y2="-26.209" gradientUnits="objectBoundingBox"><stop offset="0" stop-color="#d24f45"/><stop offset="1" stop-color="#ed4b49"/></linearGradient></defs><g transform="translate(-1.053)"><path class="a" d="M52.9,25.55a1.5,1.5,0,0,1-1.5-1.5V13.793a1.5,1.5,0,1,1,3,0V24.05A1.5,1.5,0,0,1,52.9,25.55Z" transform="translate(1)"/><circle class="a" cx="1.5" cy="1.5" r="1.5" transform="translate(52.392 7.467)"/><g transform="translate(1)"><path class="a" d="M68.647,15.759A15.748,15.748,0,0,0,43.323,3.247H5.512A5.465,5.465,0,0,0,.053,8.706V63.272a5.465,5.465,0,0,0,5.459,5.459h4.76v2.61A5.465,5.465,0,0,0,15.73,76.8H54.95a5.465,5.465,0,0,0,5.459-5.459V50.536a1.5,1.5,0,0,0-3,0V71.341A2.462,2.462,0,0,1,54.95,73.8H15.73a2.462,2.462,0,0,1-2.459-2.459v-2.61h31.46a5.465,5.465,0,0,0,5.459-5.459V31.285a15.813,15.813,0,0,0,7.218-.428v6.117a1.5,1.5,0,0,0,3,0V29.605a15.773,15.773,0,0,0,8.239-13.847ZM47.19,63.272a2.462,2.462,0,0,1-2.459,2.459H5.512a2.462,2.462,0,0,1-2.459-2.459V8.706A2.462,2.462,0,0,1,5.512,6.247H40.337a15.676,15.676,0,0,0-3.187,8.846H11.607a1.5,1.5,0,0,0-1.5,1.5v6.335a1.5,1.5,0,0,0,1.5,1.5h27.03a1.493,1.493,0,0,0,.907-.306,15.847,15.847,0,0,0,7.647,6.327ZM37.136,18.093v3.335H13.107V18.093ZM52.892,28.517A12.759,12.759,0,1,1,65.647,15.758,12.771,12.771,0,0,1,52.892,28.517Z"/><path class="a" d="M58.908,45.228a1.5,1.5,0,1,1,1.461-1.16,1.514,1.514,0,0,1-1.461,1.16Z"/></g><g transform="translate(11.05 29.55)"><path class="a" d="M28.586,3.095H1.557a1.5,1.5,0,1,1,0-3h27.03a1.5,1.5,0,1,1,0,3Z"/><path class="a" d="M28.586,10.209H1.557a1.5,1.5,0,1,1,0-3h27.03a1.5,1.5,0,1,1,0,3Z"/><path class="a" d="M28.586,17.324H1.557a1.5,1.5,0,1,1,0-3h27.03a1.5,1.5,0,1,1,0,3Z"/><path class="a" d="M28.586,24.438H1.557a1.5,1.5,0,1,1,0-3h27.03a1.5,1.5,0,0,1,0,3Z"/></g></g></svg>