<svg xmlns="http://www.w3.org/2000/svg" xmlns:xlink="http://www.w3.org/1999/xlink" width="54" height="72" viewBox="0 0 54 72"><defs><style>.a{fill:url(#a);}</style><linearGradient id="a" x1="0.5" x2="0.5" y2="1" gradientUnits="objectBoundingBox"><stop offset="0" stop-color="#d24f45"/><stop offset="1" stop-color="#ed4b49"/></linearGradient></defs><g transform="translate(-8)"><path class="a" d="M60.875,11.25A1.125,1.125,0,0,0,62,10.125V3.375A3.375,3.375,0,0,0,58.625,0H11.375A3.375,3.375,0,0,0,8,3.375v65.25A3.375,3.375,0,0,0,11.375,72h47.25A3.375,3.375,0,0,0,62,68.625v-54a1.125,1.125,0,0,0-2.25,0v54a1.125,1.125,0,0,1-1.125,1.125H11.375a1.125,1.125,0,0,1-1.125-1.125V3.375A1.125,1.125,0,0,1,11.375,2.25h47.25A1.125,1.125,0,0,1,59.75,3.375v6.75A1.125,1.125,0,0,0,60.875,11.25Z"/><path class="a" d="M43.375,19.5a1.125,1.125,0,0,0,0-2.25H42.25a9.009,9.009,0,0,0-7.875-8.922v-1.2a1.125,1.125,0,0,0-2.25,0v1.2A9.009,9.009,0,0,0,24.25,17.25H23.125a1.125,1.125,0,0,0,0,2.25ZM26.5,17.25a6.75,6.75,0,0,1,13.5,0Z" transform="translate(1.75 0.75)"/><path class="a" d="M30.875,20H15.125a1.125,1.125,0,0,0,0,2.25h15.75a1.125,1.125,0,0,0,0-2.25Z" transform="translate(0.75 2.5)"/><path class="a" d="M49.375,20h-2.25a1.125,1.125,0,0,0,0,2.25h2.25a1.125,1.125,0,0,0,0-2.25Z" transform="translate(4.75 2.5)"/><path class="a" d="M15.125,26.25h11.25a1.125,1.125,0,0,0,0-2.25H15.125a1.125,1.125,0,0,0,0,2.25Z" transform="translate(0.75 3)"/><path class="a" d="M49.375,24h-2.25a1.125,1.125,0,0,0,0,2.25h2.25a1.125,1.125,0,0,0,0-2.25Z" transform="translate(4.75 3)"/><path class="a" d="M30.875,28H15.125a1.125,1.125,0,0,0,0,2.25h15.75a1.125,1.125,0,0,0,0-2.25Z" transform="translate(0.75 3.5)"/><path class="a" d="M49.375,28h-2.25a1.125,1.125,0,0,0,0,2.25h2.25a1.125,1.125,0,0,0,0-2.25Z" transform="translate(4.75 3.5)"/><path class="a" d="M15.125,34.25h11.25a1.125,1.125,0,0,0,0-2.25H15.125a1.125,1.125,0,0,0,0,2.25Z" transform="translate(0.75 4)"/><path class="a" d="M49.375,32h-2.25a1.125,1.125,0,0,0,0,2.25h2.25a1.125,1.125,0,0,0,0-2.25Z" transform="translate(4.75 4)"/><path class="a" d="M30.875,36H15.125a1.125,1.125,0,0,0,0,2.25h15.75a1.125,1.125,0,0,0,0-2.25Z" transform="translate(0.75 4.5)"/><path class="a" d="M49.375,36h-2.25a1.125,1.125,0,0,0,0,2.25h2.25a1.125,1.125,0,0,0,0-2.25Z" transform="translate(4.75 4.5)"/><path class="a" d="M15.125,42.25h11.25a1.125,1.125,0,0,0,0-2.25H15.125a1.125,1.125,0,0,0,0,2.25Z" transform="translate(0.75 5)"/><path class="a" d="M49.375,40h-2.25a1.125,1.125,0,0,0,0,2.25h2.25a1.125,1.125,0,0,0,0-2.25Z" transform="translate(4.75 5)"/><path class="a" d="M30.875,44H15.125a1.125,1.125,0,0,0,0,2.25h15.75a1.125,1.125,0,0,0,0-2.25Z" transform="translate(0.75 5.5)"/><path class="a" d="M49.375,44h-2.25a1.125,1.125,0,0,0,0,2.25h2.25a1.125,1.125,0,0,0,0-2.25Z" transform="translate(4.75 5.5)"/><path class="a" d="M15.125,50.25h11.25a1.125,1.125,0,0,0,0-2.25H15.125a1.125,1.125,0,0,0,0,2.25Z" transform="translate(0.75 6)"/><path class="a" d="M49.375,48h-2.25a1.125,1.125,0,0,0,0,2.25h2.25a1.125,1.125,0,0,0,0-2.25Z" transform="translate(4.75 6)"/><path class="a" d="M32,53.125A1.125,1.125,0,0,0,30.875,52H15.125a1.125,1.125,0,0,0,0,2.25h15.75A1.125,1.125,0,0,0,32,53.125Z" transform="translate(0.75 6.5)"/><path class="a" d="M49.375,52h-2.25a1.125,1.125,0,0,0,0,2.25h2.25a1.125,1.125,0,0,0,0-2.25Z" transform="translate(4.75 6.5)"/><path class="a" d="M15.125,56a1.125,1.125,0,0,0,0,2.25h11.25a1.125,1.125,0,0,0,0-2.25Z" transform="translate(0.75 7)"/><path class="a" d="M49.375,56h-2.25a1.125,1.125,0,0,0,0,2.25h2.25a1.125,1.125,0,0,0,0-2.25Z" transform="translate(4.75 7)"/></g></svg>