<svg xmlns="http://www.w3.org/2000/svg" width="48" height="47.999" viewBox="0 0 48 47.999">
  <g id="graphic-design" transform="translate(48 48) rotate(-180)">
    <path id="Shape" d="M8.429,48a2.281,2.281,0,0,1-1.622-.671L.67,41.192a2.3,2.3,0,0,1,0-3.243l15.08-15.08L2.085,9.2A5.032,5.032,0,0,1,9.2,2.087L22.868,15.753,24.223,14.4a.741.741,0,1,1,1.048,1.048L23.916,16.8,31.2,24.084l1.455-1.456L30.92,20.894a.741.741,0,0,1,.524-1.265.735.735,0,0,1,.523.217L33.7,21.58l1.721-1.721-3.946-3.946a.741.741,0,0,1,1.048-1.048l3.946,3.946,1.721-1.72-1.734-1.734a.742.742,0,0,1,0-1.048.74.74,0,0,1,1.048,0l1.734,1.734,1.721-1.721-1.734-1.734a.741.741,0,0,1,1.048-1.048l1.734,1.734,1.721-1.721L39.782,7.61A.741.741,0,1,1,40.83,6.562l3.946,3.946L46.282,9a.81.81,0,0,0,0-1.147L40.145,1.718a.812.812,0,0,0-1.148,0L27.444,13.272A.741.741,0,0,1,26.4,12.225L37.95.671a2.3,2.3,0,0,1,3.243,0l6.136,6.136a2.294,2.294,0,0,1,0,3.243L32.247,25.132,43.313,36.2a.76.76,0,0,1,.167.256L46.958,45.4a1.2,1.2,0,0,1-1.121,1.637,1.214,1.214,0,0,1-.435-.081l-8.95-3.476a.746.746,0,0,1-.257-.166l-7.564-7.564A.741.741,0,0,1,29.68,34.7l7.04,7.041,1.987-1.986L15.336,16.385a.741.741,0,1,1,1.048-1.048L24.2,23.151l.008.007.015.013,4.424,4.424.019.022L39.755,38.709l1.987-1.987L30.748,25.728a.639.639,0,0,1-.145-.145l-8.257-8.257L14.507,9.488l-1.986,1.987L13.749,12.7A.741.741,0,0,1,12.7,13.751l-1.228-1.228L9.486,14.509,25.538,30.561a.724.724,0,0,1,.129.1.766.766,0,0,1,.1.129l1.482,1.483A.741.741,0,0,1,26.2,33.322L25.13,32.248l-15.08,15.08A2.277,2.277,0,0,1,8.429,48ZM16.8,23.917h0L1.718,39a.813.813,0,0,0,0,1.147l6.137,6.136a.81.81,0,0,0,1.147,0l1.506-1.506L6.562,40.829a.741.741,0,0,1,.524-1.265.735.735,0,0,1,.523.217l3.946,3.947,1.72-1.721-1.734-1.734a.741.741,0,0,1,1.049-1.048l1.733,1.734,1.721-1.721L14.31,37.5a.741.741,0,0,1,1.048-1.048l1.734,1.734,1.721-1.721-3.946-3.946a.741.741,0,1,1,1.048-1.048l3.946,3.946L21.581,33.7l-1.734-1.734a.741.741,0,0,1,1.048-1.048l1.734,1.734L24.083,31.2,16.8,23.917ZM11.543,6.524h0L6.522,11.545l1.916,1.916,2.51-2.51L13.46,8.44,11.543,6.524Z" fill="#2a2c39"/>
  </g>
</svg>
